{
	"patcher" : 	{
		"fileversion" : 1,
		"appversion" : 		{
			"major" : 8,
			"minor" : 5,
			"revision" : 6,
			"architecture" : "x64",
			"modernui" : 1
		}
,
		"classnamespace" : "box",
		"rect" : [ 0.0, 53.0, 2169.0, 1387.0 ],
		"bglocked" : 0,
		"openinpresentation" : 1,
		"default_fontsize" : 12.0,
		"default_fontface" : 0,
		"default_fontname" : "Arial",
		"gridonopen" : 1,
		"gridsize" : [ 15.0, 15.0 ],
		"gridsnaponopen" : 1,
		"objectsnaponopen" : 1,
		"statusbarvisible" : 2,
		"toolbarvisible" : 0,
		"lefttoolbarpinned" : 2,
		"toptoolbarpinned" : 2,
		"righttoolbarpinned" : 2,
		"bottomtoolbarpinned" : 2,
		"toolbars_unpinned_last_save" : 15,
		"tallnewobj" : 0,
		"boxanimatetime" : 200,
		"enablehscroll" : 0,
		"enablevscroll" : 1,
		"devicewidth" : 0.0,
		"description" : "",
		"digest" : "",
		"tags" : "",
		"style" : "",
		"subpatcher_template" : "",
		"assistshowspatchername" : 0,
		"title" : "Audio Effect Parameters",
		"boxes" : [ 			{
				"box" : 				{
					"bgcolor" : [ 0.2, 0.2, 0.2, 0.0 ],
					"hint" : "show storagewindow",
					"id" : "obj-98",
					"maxclass" : "button",
					"numinlets" : 1,
					"numoutlets" : 1,
					"outlettype" : [ "bang" ],
					"outlinecolor" : [ 0.349019607843137, 0.349019607843137, 0.349019607843137, 0.1 ],
					"parameter_enable" : 0,
					"patching_rect" : [ 1783.0, 1461.0, 24.0, 24.0 ],
					"presentation" : 1,
					"presentation_rect" : [ 655.689786841524665, 99.825205494598094, 17.999999999999773, 17.999999999999773 ]
				}

			}
, 			{
				"box" : 				{
					"id" : "obj-89",
					"maxclass" : "newobj",
					"numinlets" : 1,
					"numoutlets" : 2,
					"outlettype" : [ "bang", "writeagain" ],
					"patching_rect" : [ 2037.817278940889992, 1538.0, 80.0, 22.0 ],
					"text" : "t b writeagain"
				}

			}
, 			{
				"box" : 				{
					"id" : "obj-88",
					"maxclass" : "newobj",
					"numinlets" : 1,
					"numoutlets" : 0,
					"patching_rect" : [ 2133.317278940889992, 1774.661945338508303, 115.0, 22.0 ],
					"text" : "s modulation_saved"
				}

			}
, 			{
				"box" : 				{
					"id" : "obj-87",
					"maxclass" : "newobj",
					"numinlets" : 1,
					"numoutlets" : 0,
					"patching_rect" : [ 2091.317278940889992, 1740.328612005175046, 117.0, 22.0 ],
					"text" : "s Dry-ish_FX_saved"
				}

			}
, 			{
				"box" : 				{
					"id" : "obj-86",
					"maxclass" : "newobj",
					"numinlets" : 1,
					"numoutlets" : 0,
					"patching_rect" : [ 2043.317278940889992, 1705.995278671841561, 161.0, 22.0 ],
					"text" : "s Post-Crossfade_FX_saved"
				}

			}
, 			{
				"box" : 				{
					"id" : "obj-85",
					"maxclass" : "newobj",
					"numinlets" : 1,
					"numoutlets" : 0,
					"patching_rect" : [ 2000.317278940889992, 1671.661945338508303, 123.0, 22.0 ],
					"text" : "s Pre-LPF_FX_saved"
				}

			}
, 			{
				"box" : 				{
					"fontsize" : 9.108839179011904,
					"id" : "obj-82",
					"linecount" : 4,
					"maxclass" : "newobj",
					"numinlets" : 1,
					"numoutlets" : 4,
					"outlettype" : [ "Pre-LPF_FX", "Post-Crossfade_FX", "Dry-ish_FX", "modulation" ],
					"patching_rect" : [ 896.494937694703822, 193.623931623931639, 92.0, 49.0 ],
					"presentation_linecount" : 3,
					"text" : "t Pre-LPF_FX Post-Crossfade_FX Dry-ish_FX modulation"
				}

			}
, 			{
				"box" : 				{
					"fontsize" : 8.944856676179503,
					"id" : "obj-81",
					"linecount" : 4,
					"maxclass" : "newobj",
					"numinlets" : 1,
					"numoutlets" : 4,
					"outlettype" : [ "Pre-LPF_FX", "Post-Crossfade_FX", "Dry-ish_FX", "modulation" ],
					"patching_rect" : [ 896.494937694703822, 109.023076923076928, 89.0, 48.0 ],
					"text" : "t Pre-LPF_FX Post-Crossfade_FX Dry-ish_FX modulation"
				}

			}
, 			{
				"box" : 				{
					"id" : "obj-80",
					"maxclass" : "newobj",
					"numinlets" : 2,
					"numoutlets" : 2,
					"outlettype" : [ "", "" ],
					"patching_rect" : [ 1039.662796488336426, 109.023076923076928, 137.0, 22.0 ],
					"text" : "route main_preset_save"
				}

			}
, 			{
				"box" : 				{
					"id" : "obj-79",
					"maxclass" : "newobj",
					"numinlets" : 2,
					"numoutlets" : 2,
					"outlettype" : [ "", "" ],
					"patching_rect" : [ 985.662796488336426, 69.011538461538464, 137.0, 22.0 ],
					"text" : "route main_preset_save"
				}

			}
, 			{
				"box" : 				{
					"bgcolor" : [ 0.2, 0.2, 0.2, 0.5 ],
					"fontname" : "Monaco",
					"id" : "obj-74",
					"linecount" : 2,
					"maxclass" : "textedit",
					"numinlets" : 1,
					"numoutlets" : 4,
					"outlettype" : [ "", "int", "", "" ],
					"parameter_enable" : 0,
					"patching_rect" : [ 2490.846562203256326, 1093.926131184023916, 189.0, 102.0 ],
					"presentation" : 1,
					"presentation_rect" : [ 655.689786841524665, 120.926131184023916, 198.0, 116.0 ],
					"text" : "Sousastep's default preset",
					"varname" : "textedit[1]"
				}

			}
, 			{
				"box" : 				{
					"bgmode" : 0,
					"border" : 0,
					"clickthrough" : 0,
					"enablehscroll" : 0,
					"enablevscroll" : 0,
					"id" : "obj-408",
					"lockeddragscroll" : 0,
					"lockedsize" : 0,
					"maxclass" : "bpatcher",
					"name" : "umenu_presets.maxpat",
					"numinlets" : 1,
					"numoutlets" : 1,
					"offset" : [ 0.0, 0.0 ],
					"outlettype" : [ "" ],
					"patching_rect" : [ 2182.701586845293605, 1110.505809191026174, 205.0, 36.319396303571693 ],
					"presentation" : 1,
					"presentation_rect" : [ 755.689786841524665, 81.505809191026174, 103.0, 36.319396303571693 ],
					"viewvisibility" : 1
				}

			}
, 			{
				"box" : 				{
					"bgcolor" : [ 0.0, 0.0, 0.0, 0.27 ],
					"bubblepoint" : 0.4,
					"bubbleside" : 2,
					"bubbleusescolors" : 1,
					"fontname" : "Silom",
					"fontsize" : 16.314510578729656,
					"id" : "obj-863",
					"maxclass" : "comment",
					"numinlets" : 0,
					"numoutlets" : 0,
					"patching_rect" : [ 1825.794199913105331, 1413.679343217455653, 176.0, 27.0 ],
					"presentation" : 1,
					"presentation_rect" : [ 658.389786710394219, 244.0, 169.0, 27.0 ],
					"suppressinlet" : 1,
					"text" : "save / overwrite:",
					"textcolor" : [ 0.898039215686275, 0.788235294117647, 0.996078431372549, 1.0 ]
				}

			}
, 			{
				"box" : 				{
					"bgcolor" : [ 0.0, 0.0, 0.0, 0.27 ],
					"blinkcolor" : [ 0.850980392156863, 0.686274509803922, 1.0, 1.0 ],
					"id" : "obj-865",
					"maxclass" : "button",
					"numinlets" : 1,
					"numoutlets" : 1,
					"outlettype" : [ "bang" ],
					"outlinecolor" : [ 0.850980392156863, 0.686274509803922, 1.0, 1.0 ],
					"parameter_enable" : 0,
					"patching_rect" : [ 2037.817278940889992, 1413.679343217455653, 33.0, 33.0 ],
					"presentation" : 1,
					"presentation_rect" : [ 826.389786710394219, 244.0, 27.0, 27.0 ],
					"style" : "buttonGold",
					"varname" : "main_preset_save"
				}

			}
, 			{
				"box" : 				{
					"fontname" : "Ableton Sans Light",
					"id" : "obj-76",
					"linecount" : 2,
					"maxclass" : "comment",
					"numinlets" : 0,
					"numoutlets" : 0,
					"patching_rect" : [ 1969.899547187298595, 1017.077780353919479, 176.0, 35.0 ],
					"suppressinlet" : 1,
					"text" : "ableton automates main presets with midi note pitch"
				}

			}
, 			{
				"box" : 				{
					"id" : "obj-78",
					"maxclass" : "newobj",
					"numinlets" : 1,
					"numoutlets" : 3,
					"outlettype" : [ "", "", "" ],
					"patching_rect" : [ 2427.846562203256326, 1054.771452775817352, 145.0, 22.0 ],
					"restore" : [ "Sousastep's default preset" ],
					"saved_object_attributes" : 					{
						"parameter_enable" : 0,
						"parameter_mappable" : 0
					}
,
					"text" : "pattr \"preset descriptions\"",
					"varname" : "preset descriptions"
				}

			}
, 			{
				"box" : 				{
					"id" : "obj-223",
					"maxclass" : "newobj",
					"numinlets" : 0,
					"numoutlets" : 1,
					"outlettype" : [ "" ],
					"patching_rect" : [ 2214.809810771184857, 985.639821194286014, 151.0, 22.0 ],
					"text" : "r set_dist_preset_selection"
				}

			}
, 			{
				"box" : 				{
					"bubble" : 1,
					"bubblepoint" : 0.46,
					"fontname" : "Arial",
					"fontsize" : 13.0,
					"id" : "obj-1197",
					"linecount" : 2,
					"maxclass" : "comment",
					"numinlets" : 1,
					"numoutlets" : 0,
					"patching_rect" : [ 2127.678507817508944, 822.485050129710544, 234.0, 40.0 ],
					"presentation_linecount" : 2,
					"text" : "store a single parameter to this preset, if the preset already exists."
				}

			}
, 			{
				"box" : 				{
					"fontname" : "Arial",
					"fontsize" : 13.0,
					"id" : "obj-1202",
					"maxclass" : "number",
					"numinlets" : 1,
					"numoutlets" : 2,
					"outlettype" : [ "", "bang" ],
					"parameter_enable" : 0,
					"patching_rect" : [ 2069.697498031460782, 830.985050129710544, 50.0, 23.0 ]
				}

			}
, 			{
				"box" : 				{
					"fontname" : "Arial",
					"fontsize" : 13.0,
					"id" : "obj-1209",
					"maxclass" : "message",
					"numinlets" : 2,
					"numoutlets" : 1,
					"outlettype" : [ "" ],
					"patching_rect" : [ 2069.697498031460782, 872.505809191026174, 330.0, 23.0 ],
					"text" : "setstoredvalue duty_cycle_joystick_center_offset $1 0.5"
				}

			}
, 			{
				"box" : 				{
					"id" : "obj-579",
					"maxclass" : "message",
					"numinlets" : 2,
					"numoutlets" : 1,
					"outlettype" : [ "" ],
					"patching_rect" : [ 1718.627539544662795, 1549.641186277192674, 34.0, 22.0 ],
					"text" : "write"
				}

			}
, 			{
				"box" : 				{
					"id" : "obj-881",
					"maxclass" : "newobj",
					"numinlets" : 2,
					"numoutlets" : 1,
					"outlettype" : [ "bang" ],
					"patching_rect" : [ 2285.462254298852713, 1400.923817384336644, 35.0, 22.0 ],
					"text" : "del 1"
				}

			}
, 			{
				"box" : 				{
					"id" : "obj-591",
					"maxclass" : "newobj",
					"numinlets" : 1,
					"numoutlets" : 2,
					"outlettype" : [ "int", "int" ],
					"patching_rect" : [ 1903.399547187298595, 1017.077780353919479, 59.0, 22.0 ],
					"text" : "unpack i i"
				}

			}
, 			{
				"box" : 				{
					"id" : "obj-73",
					"maxclass" : "newobj",
					"numinlets" : 0,
					"numoutlets" : 1,
					"outlettype" : [ "" ],
					"patching_rect" : [ 2331.462254298852713, 1369.328070923988435, 66.0, 22.0 ],
					"text" : "r ramptime"
				}

			}
, 			{
				"box" : 				{
					"id" : "obj-284",
					"maxclass" : "number",
					"numinlets" : 1,
					"numoutlets" : 2,
					"outlettype" : [ "", "bang" ],
					"parameter_enable" : 0,
					"patching_rect" : [ 2331.462254298852713, 1400.923817384336644, 50.0, 22.0 ]
				}

			}
, 			{
				"box" : 				{
					"id" : "obj-399",
					"maxclass" : "newobj",
					"numinlets" : 1,
					"numoutlets" : 1,
					"outlettype" : [ "" ],
					"patching_rect" : [ 2331.462254298852713, 1430.732892691121606, 93.0, 22.0 ],
					"text" : "sprintf \"0, 1\" %s"
				}

			}
, 			{
				"box" : 				{
					"id" : "obj-494",
					"maxclass" : "newobj",
					"numinlets" : 1,
					"numoutlets" : 1,
					"outlettype" : [ "bang" ],
					"patching_rect" : [ 2298.462254298852713, 1430.732892691121606, 22.0, 22.0 ],
					"text" : "t b"
				}

			}
, 			{
				"box" : 				{
					"id" : "obj-496",
					"maxclass" : "newobj",
					"numinlets" : 1,
					"numoutlets" : 1,
					"outlettype" : [ "bang" ],
					"patching_rect" : [ 2190.462254298852713, 1546.641186277192674, 22.0, 22.0 ],
					"text" : "t b"
				}

			}
, 			{
				"box" : 				{
					"id" : "obj-502",
					"maxclass" : "message",
					"numinlets" : 2,
					"numoutlets" : 1,
					"outlettype" : [ "" ],
					"patching_rect" : [ 2298.462254298852713, 1461.250290570068955, 52.0, 22.0 ],
					"text" : "0, 1 100"
				}

			}
, 			{
				"box" : 				{
					"id" : "obj-503",
					"maxclass" : "newobj",
					"numinlets" : 3,
					"numoutlets" : 2,
					"outlettype" : [ "", "bang" ],
					"patching_rect" : [ 2298.462254298852713, 1489.923249156855491, 89.0, 22.0 ],
					"text" : "line 0 @grain 5"
				}

			}
, 			{
				"box" : 				{
					"id" : "obj-504",
					"maxclass" : "newobj",
					"numinlets" : 4,
					"numoutlets" : 1,
					"outlettype" : [ "" ],
					"patching_rect" : [ 2190.462254298852713, 1585.641186277192674, 85.0, 22.0 ],
					"text" : "pack recall i i f"
				}

			}
, 			{
				"box" : 				{
					"id" : "obj-507",
					"maxclass" : "newobj",
					"numinlets" : 1,
					"numoutlets" : 3,
					"outlettype" : [ "", "int", "int" ],
					"patching_rect" : [ 2182.962254298852713, 1358.080796590058753, 48.0, 22.0 ],
					"text" : "change"
				}

			}
, 			{
				"box" : 				{
					"id" : "obj-517",
					"maxclass" : "newobj",
					"numinlets" : 2,
					"numoutlets" : 2,
					"outlettype" : [ "", "" ],
					"patching_rect" : [ 2212.462254298852713, 1465.046008044325617, 67.0, 22.0 ],
					"text" : "zl stream 2"
				}

			}
, 			{
				"box" : 				{
					"id" : "obj-364",
					"maxclass" : "number",
					"numinlets" : 1,
					"numoutlets" : 2,
					"outlettype" : [ "", "bang" ],
					"parameter_enable" : 0,
					"patching_rect" : [ 2422.818103923109447, 1328.681870474086736, 60.0, 22.0 ]
				}

			}
, 			{
				"box" : 				{
					"id" : "obj-269",
					"maxclass" : "newobj",
					"numinlets" : 1,
					"numoutlets" : 1,
					"outlettype" : [ "" ],
					"patching_rect" : [ 2422.818103923109447, 1293.28193831371982, 83.0, 22.0 ],
					"text" : "loadmess 150"
				}

			}
, 			{
				"box" : 				{
					"id" : "obj-84",
					"maxclass" : "newobj",
					"numinlets" : 1,
					"numoutlets" : 0,
					"patching_rect" : [ 2422.818103923109447, 1369.328070923988435, 68.0, 22.0 ],
					"text" : "s ramptime"
				}

			}
, 			{
				"box" : 				{
					"fontname" : "Silom",
					"id" : "obj-696",
					"maxclass" : "newobj",
					"numinlets" : 2,
					"numoutlets" : 1,
					"outlettype" : [ "bang" ],
					"patching_rect" : [ 2037.817278940889992, 1500.725399897806938, 48.0, 24.0 ],
					"text" : "del 10"
				}

			}
, 			{
				"box" : 				{
					"fontname" : "Silom",
					"id" : "obj-852",
					"maxclass" : "newobj",
					"numinlets" : 2,
					"numoutlets" : 1,
					"outlettype" : [ "" ],
					"patching_rect" : [ 1936.017278809759773, 1530.257123571375132, 89.0, 24.0 ],
					"text" : "pack store 1"
				}

			}
, 			{
				"box" : 				{
					"autorestore" : "main_presets.xml",
					"fontname" : "Silom",
					"id" : "obj-861",
					"interp" : 					{
						"mod params::aux_SnTrSq" : [ 0, 0.0 ],
						"mod params::aux_route_menu" : [ 0, 0.0 ],
						"mod params::low_SnTrSq" : [ 0, 0.0 ],
						"mod params::verylow_SnTrSq" : [ 0, 0.0 ],
						"mod params::high_SnTrSq" : [ 0, 0.0 ],
						"preset descriptions" : [ 0, 0.0 ],
						"sustain fx chooser::Pre-LPF_FX_plugin_choice" : [ 0, 0.0 ],
						"attack fx chooser::Dry-ish_FX_plugin_choice" : [ 0, 0.0 ],
						"post-crossfade fx chooser::Post-Crossfade_FX_plugin_choice" : [ 0, 0.0 ]
					}
,
					"linecount" : 4,
					"maxclass" : "newobj",
					"numinlets" : 1,
					"numoutlets" : 1,
					"outlettype" : [ "" ],
					"patching_rect" : [ 1813.794199913105331, 1647.661945338508303, 126.0, 70.0 ],
					"saved_object_attributes" : 					{
						"client_rect" : [ 824, 334, 1402, 1079 ],
						"parameter_enable" : 0,
						"parameter_mappable" : 0,
						"storage_rect" : [ 1213, 532, 1870, 1195 ]
					}
,
					"text" : "pattrstorage main_presets @savemode 0 @chaangemode 1",
					"varname" : "main_presets"
				}

			}
, 			{
				"box" : 				{
					"bgcolor" : [ 1.0, 0.949019607843137, 0.227450980392157, 0.57 ],
					"bgcolor2" : [ 0.941176470588235, 0.227450980392157, 1.0, 0.52 ],
					"bgfillcolor_angle" : 40.988422399155411,
					"bgfillcolor_autogradient" : 0.0,
					"bgfillcolor_color" : [ 0.941176470588235, 0.227450980392157, 1.0, 0.52 ],
					"bgfillcolor_color1" : [ 1.0, 0.949019607843137, 0.227450980392157, 0.57 ],
					"bgfillcolor_color2" : [ 0.941176470588235, 0.227450980392157, 1.0, 0.52 ],
					"bgfillcolor_proportion" : 0.39,
					"bgfillcolor_pt1" : [ -0.035353535353535, 0.95959595959596 ],
					"bgfillcolor_pt2" : [ 1.005050505050505, 0.055555555555556 ],
					"bgfillcolor_type" : "gradient",
					"fontname" : "Silom",
					"gradient" : 1,
					"id" : "obj-866",
					"maxclass" : "message",
					"numinlets" : 2,
					"numoutlets" : 1,
					"outlettype" : [ "" ],
					"patching_rect" : [ 1813.794199913105331, 1500.725399897806938, 119.0, 24.0 ],
					"style" : "messageGold",
					"text" : "storagewindow",
					"textcolor" : [ 0.0, 0.0, 0.0, 0.890196078431372 ],
					"textjustification" : 1
				}

			}
, 			{
				"box" : 				{
					"bgcolor" : [ 0.247058823529412, 0.086274509803922, 0.317647058823529, 1.0 ],
					"bgcolor2" : [ 0.505882352941176, 0.266666666666667, 0.043137254901961, 1.0 ],
					"bgfillcolor_angle" : 40.988422399155411,
					"bgfillcolor_autogradient" : 0.0,
					"bgfillcolor_color" : [ 0.505882352941176, 0.266666666666667, 0.043137254901961, 1.0 ],
					"bgfillcolor_color1" : [ 0.247058823529412, 0.086274509803922, 0.317647058823529, 1.0 ],
					"bgfillcolor_color2" : [ 0.505882352941176, 0.266666666666667, 0.043137254901961, 1.0 ],
					"bgfillcolor_proportion" : 0.39,
					"bgfillcolor_pt1" : [ -0.035353535353535, 0.95959595959596 ],
					"bgfillcolor_pt2" : [ 1.005050505050505, 0.055555555555556 ],
					"bgfillcolor_type" : "gradient",
					"fontname" : "Silom",
					"gradient" : 1,
					"id" : "obj-869",
					"maxclass" : "message",
					"numinlets" : 2,
					"numoutlets" : 1,
					"outlettype" : [ "" ],
					"patching_rect" : [ 1825.794199913105331, 1530.257123571375132, 104.0, 24.0 ],
					"style" : "messageGold",
					"text" : "clientwindow",
					"textcolor" : [ 0.8, 0.8, 0.8, 0.890196078431372 ]
				}

			}
, 			{
				"box" : 				{
					"id" : "obj-617",
					"maxclass" : "newobj",
					"numinlets" : 1,
					"numoutlets" : 8,
					"outlettype" : [ "", "", "", "int", "int", "", "int", "" ],
					"patching_rect" : [ 1903.399547187298595, 985.639821194286014, 92.5, 22.0 ],
					"text" : "midiparse"
				}

			}
, 			{
				"box" : 				{
					"id" : "obj-505",
					"maxclass" : "newobj",
					"numinlets" : 1,
					"numoutlets" : 1,
					"outlettype" : [ "int" ],
					"patching_rect" : [ 1903.399547187298595, 956.077780353919479, 98.0, 22.0 ],
					"text" : "midiin \"to Max 1\""
				}

			}
, 			{
				"box" : 				{
					"id" : "obj-894",
					"maxclass" : "newobj",
					"numinlets" : 1,
					"numoutlets" : 1,
					"outlettype" : [ "" ],
					"patching_rect" : [ 1907.817278940889992, 1110.505809191026174, 54.0, 22.0 ],
					"text" : "deferlow"
				}

			}
, 			{
				"box" : 				{
					"id" : "obj-349",
					"maxclass" : "newobj",
					"numinlets" : 1,
					"numoutlets" : 1,
					"outlettype" : [ "" ],
					"patching_rect" : [ 1907.817278940889992, 1081.661945338508303, 70.0, 22.0 ],
					"text" : "loadmess 0"
				}

			}
, 			{
				"box" : 				{
					"id" : "obj-981",
					"maxclass" : "newobj",
					"numinlets" : 0,
					"numoutlets" : 1,
					"outlettype" : [ "" ],
					"patching_rect" : [ 2182.701586845293605, 938.596457461889031, 152.0, 22.0 ],
					"text" : "r get_dist_preset_selection"
				}

			}
, 			{
				"box" : 				{
					"id" : "obj-868",
					"maxclass" : "newobj",
					"numinlets" : 1,
					"numoutlets" : 0,
					"patching_rect" : [ 1969.899547187298595, 1244.661945338508303, 161.0, 22.0 ],
					"text" : "s distortion_preset_selection"
				}

			}
, 			{
				"box" : 				{
					"id" : "obj-867",
					"linecount" : 2,
					"maxclass" : "comment",
					"numinlets" : 1,
					"numoutlets" : 0,
					"patching_rect" : [ 2214.809810771184857, 1038.141186277192674, 161.78355214821795, 33.0 ],
					"presentation_linecount" : 2,
					"text" : "main presets is 1-indexed\numenu is 0-indexed "
				}

			}
, 			{
				"box" : 				{
					"id" : "obj-323",
					"linecount" : 2,
					"maxclass" : "comment",
					"numinlets" : 1,
					"numoutlets" : 0,
					"patching_rect" : [ 2214.809810771184857, 1171.734841578698251, 149.0, 33.0 ],
					"presentation_linecount" : 2,
					"text" : "pattr is 1-indexed because\nit won't save preset 0"
				}

			}
, 			{
				"box" : 				{
					"id" : "obj-275",
					"maxclass" : "newobj",
					"numinlets" : 2,
					"numoutlets" : 1,
					"outlettype" : [ "int" ],
					"patching_rect" : [ 2182.701586845293605, 1043.641186277192674, 29.5, 22.0 ],
					"text" : "- 1"
				}

			}
, 			{
				"box" : 				{
					"id" : "obj-90",
					"maxclass" : "newobj",
					"numinlets" : 2,
					"numoutlets" : 1,
					"outlettype" : [ "int" ],
					"patching_rect" : [ 2182.701586845293605, 1171.734841578698251, 29.5, 22.0 ],
					"text" : "+ 1"
				}

			}
, 			{
				"box" : 				{
					"bgcolor" : [ 0.455631017684937, 0.166376978158951, 0.586107492446899, 1.0 ],
					"bgcolor2" : [ 0.931138753890991, 0.488633632659912, 0.081496514379978, 1.0 ],
					"bgfillcolor_angle" : 40.988422399155411,
					"bgfillcolor_autogradient" : 0.0,
					"bgfillcolor_color" : [ 0.290196, 0.309804, 0.301961, 1.0 ],
					"bgfillcolor_color1" : [ 0.455631017684937, 0.166376978158951, 0.586107492446899, 1.0 ],
					"bgfillcolor_color2" : [ 0.931138753890991, 0.488633632659912, 0.081496514379978, 1.0 ],
					"bgfillcolor_proportion" : 0.39,
					"bgfillcolor_pt1" : [ -0.035353535353535, 0.95959595959596 ],
					"bgfillcolor_pt2" : [ 1.005050505050505, 0.055555555555556 ],
					"bgfillcolor_type" : "gradient",
					"gradient" : 1,
					"id" : "obj-91",
					"maxclass" : "message",
					"numinlets" : 2,
					"numoutlets" : 1,
					"outlettype" : [ "" ],
					"patching_rect" : [ 1763.365640522315516, 1549.861946935912783, 34.0, 22.0 ],
					"style" : "messageGold",
					"text" : "read",
					"textcolor" : [ 0.968627450980392, 0.968627450980392, 0.968627450980392, 0.94 ]
				}

			}
, 			{
				"box" : 				{
					"bubble" : 1,
					"bubbleside" : 3,
					"id" : "obj-455",
					"maxclass" : "comment",
					"numinlets" : 1,
					"numoutlets" : 0,
					"patching_rect" : [ 2045.243182933729258, 938.596457461889031, 146.458403911564346, 24.0 ],
					"text" : "loadbang from visuals"
				}

			}
, 			{
				"box" : 				{
					"fontsize" : 19.947392703083757,
					"id" : "obj-72",
					"maxclass" : "newobj",
					"numinlets" : 0,
					"numoutlets" : 0,
					"patching_rect" : [ 871.950958482105762, 611.666666666666515, 229.0, 31.0 ],
					"text" : "\"Modulation Parameters\"",
					"varname" : "mod params"
				}

			}
, 			{
				"box" : 				{
					"dragtrack" : 1,
					"handoff" : "",
					"hilite" : 0,
					"id" : "obj-54",
					"maxclass" : "ubutton",
					"numinlets" : 1,
					"numoutlets" : 4,
					"outlettype" : [ "bang", "bang", "", "int" ],
					"parameter_enable" : 0,
					"patching_rect" : [ 3381.815444463414224, 447.0, 128.0, 128.0 ],
					"presentation" : 1,
					"presentation_rect" : [ 326.638575819672155, 412.0, 251.0, 43.0 ],
					"varname" : "Pre-LPF_FX[1]"
				}

			}
, 			{
				"box" : 				{
					"id" : "obj-56",
					"maxclass" : "newobj",
					"numinlets" : 1,
					"numoutlets" : 5,
					"outlettype" : [ "", "", "", "", "" ],
					"patching_rect" : [ 3359.815444463414224, 387.999999999999886, 241.0, 22.0 ],
					"text" : "regexp outlinecolor @substitute bordercolor"
				}

			}
, 			{
				"box" : 				{
					"angle" : 270.0,
					"bgcolor" : [ 0.2, 0.2, 0.2, 0.0 ],
					"border" : 16,
					"bordercolor" : [ 0.137255, 0.137255, 0.137255, 0.231373 ],
					"id" : "obj-65",
					"maxclass" : "panel",
					"mode" : 0,
					"numinlets" : 1,
					"numoutlets" : 0,
					"patching_rect" : [ 3359.815444463414224, 429.0, 128.0, 128.0 ],
					"presentation" : 1,
					"presentation_rect" : [ 326.638575819672155, 412.0, 251.0, 103.0 ],
					"proportion" : 0.5,
					"varname" : "transient_crossfade[3]"
				}

			}
, 			{
				"box" : 				{
					"dragtrack" : 1,
					"handoff" : "",
					"hilite" : 0,
					"id" : "obj-37",
					"maxclass" : "ubutton",
					"numinlets" : 1,
					"numoutlets" : 4,
					"outlettype" : [ "bang", "bang", "", "int" ],
					"parameter_enable" : 0,
					"patching_rect" : [ 3938.39176845095335, 313.0, 128.0, 128.0 ],
					"presentation" : 1,
					"presentation_rect" : [ 565.0, 412.0, 245.0, 43.0 ],
					"varname" : "Dry-ish_FX[1]"
				}

			}
, 			{
				"box" : 				{
					"id" : "obj-43",
					"maxclass" : "newobj",
					"numinlets" : 1,
					"numoutlets" : 5,
					"outlettype" : [ "", "", "", "", "" ],
					"patching_rect" : [ 3916.39176845095335, 253.999999999999886, 241.0, 22.0 ],
					"text" : "regexp outlinecolor @substitute bordercolor"
				}

			}
, 			{
				"box" : 				{
					"angle" : 270.0,
					"bgcolor" : [ 0.2, 0.2, 0.2, 0.0 ],
					"border" : 16,
					"bordercolor" : [ 0.137255, 0.137255, 0.137255, 0.231373 ],
					"id" : "obj-50",
					"maxclass" : "panel",
					"mode" : 0,
					"numinlets" : 1,
					"numoutlets" : 0,
					"patching_rect" : [ 3916.39176845095335, 295.0, 128.0, 128.0 ],
					"presentation" : 1,
					"presentation_rect" : [ 565.0, 412.0, 245.0, 103.0 ],
					"proportion" : 0.5,
					"varname" : "transient_crossfade[6]"
				}

			}
, 			{
				"box" : 				{
					"dragtrack" : 1,
					"handoff" : "",
					"hilite" : 0,
					"id" : "obj-11",
					"maxclass" : "ubutton",
					"numinlets" : 1,
					"numoutlets" : 4,
					"outlettype" : [ "bang", "bang", "", "int" ],
					"parameter_enable" : 0,
					"patching_rect" : [ 3655.815444463414224, 399.0, 128.0, 128.0 ],
					"presentation" : 1,
					"presentation_rect" : [ 285.391768450953123, 1407.0, 277.0, 43.0 ],
					"varname" : "Post-Crossfade_FX[1]"
				}

			}
, 			{
				"box" : 				{
					"id" : "obj-12",
					"maxclass" : "newobj",
					"numinlets" : 1,
					"numoutlets" : 5,
					"outlettype" : [ "", "", "", "", "" ],
					"patching_rect" : [ 3633.815444463414224, 339.999999999999886, 241.0, 22.0 ],
					"text" : "regexp outlinecolor @substitute bordercolor"
				}

			}
, 			{
				"box" : 				{
					"angle" : 270.0,
					"bgcolor" : [ 0.2, 0.2, 0.2, 0.0 ],
					"border" : 16,
					"bordercolor" : [ 0.137255, 0.137255, 0.137255, 0.231373 ],
					"id" : "obj-16",
					"maxclass" : "panel",
					"mode" : 0,
					"numinlets" : 1,
					"numoutlets" : 0,
					"patching_rect" : [ 3633.815444463414224, 381.0, 128.0, 128.0 ],
					"presentation" : 1,
					"presentation_rect" : [ 285.391768450953123, 1407.0, 277.0, 103.0 ],
					"proportion" : 0.5,
					"varname" : "transient_crossfade[4]"
				}

			}
, 			{
				"box" : 				{
					"args" : [ "Dry-ish_FX" ],
					"bgmode" : 0,
					"border" : 0,
					"clickthrough" : 0,
					"enablehscroll" : 0,
					"enablevscroll" : 0,
					"id" : "obj-95",
					"lockeddragscroll" : 0,
					"lockedsize" : 0,
					"maxclass" : "bpatcher",
					"name" : "four_plugin_selectors_chooser.maxpat",
					"numinlets" : 0,
					"numoutlets" : 0,
					"offset" : [ 0.0, 0.0 ],
					"patching_rect" : [ 3896.950958482105762, 463.681870474086736, 224.049041517894238, 71.318129525913264 ],
					"presentation" : 1,
					"presentation_rect" : [ 573.0, 424.5, 223.0, 73.0 ],
					"varname" : "attack fx chooser",
					"viewvisibility" : 1
				}

			}
, 			{
				"box" : 				{
					"args" : [ "Post-Crossfade_FX" ],
					"bgmode" : 0,
					"border" : 0,
					"clickthrough" : 0,
					"enablehscroll" : 0,
					"enablevscroll" : 0,
					"id" : "obj-94",
					"lockeddragscroll" : 0,
					"lockedsize" : 0,
					"maxclass" : "bpatcher",
					"name" : "four_plugin_selectors_chooser.maxpat",
					"numinlets" : 0,
					"numoutlets" : 0,
					"offset" : [ 0.0, 0.0 ],
					"patching_rect" : [ 3616.950958482105762, 542.681870474086736, 224.049041517894238, 71.318129525913264 ],
					"presentation" : 1,
					"presentation_rect" : [ 326.5, 1419.5, 221.0, 71.0 ],
					"varname" : "post-crossfade fx chooser",
					"viewvisibility" : 1
				}

			}
, 			{
				"box" : 				{
					"args" : [ "Pre-LPF_FX" ],
					"bgmode" : 0,
					"border" : 0,
					"clickthrough" : 0,
					"enablehscroll" : 0,
					"enablevscroll" : 0,
					"id" : "obj-93",
					"lockeddragscroll" : 0,
					"lockedsize" : 0,
					"maxclass" : "bpatcher",
					"name" : "four_plugin_selectors_chooser.maxpat",
					"numinlets" : 0,
					"numoutlets" : 0,
					"offset" : [ 0.0, 0.0 ],
					"patching_rect" : [ 3333.790923704466877, 596.681870474086736, 224.049041517894238, 71.318129525913264 ],
					"presentation" : 1,
					"presentation_rect" : [ 340.0, 424.5, 223.0, 73.0 ],
					"varname" : "sustain fx chooser",
					"viewvisibility" : 1
				}

			}
, 			{
				"box" : 				{
					"id" : "obj-71",
					"maxclass" : "newobj",
					"numinlets" : 2,
					"numoutlets" : 1,
					"outlettype" : [ "" ],
					"patching_rect" : [ 3633.815444463414224, 299.999999999999886, 180.0, 22.0 ],
					"text" : "hover_bang Post-Crossfade_FX"
				}

			}
, 			{
				"box" : 				{
					"fontname" : "Ableton Sans Light",
					"id" : "obj-49",
					"maxclass" : "comment",
					"numinlets" : 0,
					"numoutlets" : 0,
					"patching_rect" : [ 4339.0, 1415.0, 897.0, 21.0 ],
					"suppressinlet" : 1
				}

			}
, 			{
				"box" : 				{
					"id" : "obj-42",
					"maxclass" : "newobj",
					"numinlets" : 2,
					"numoutlets" : 1,
					"outlettype" : [ "" ],
					"patching_rect" : [ 3359.815444463414224, 347.0, 142.0, 22.0 ],
					"text" : "hover_bang Pre-LPF_FX"
				}

			}
, 			{
				"box" : 				{
					"bgcolor" : [ 0.2, 0.2, 0.2, 0.0 ],
					"blinkcolor" : [ 0.647058823529412, 0.905882352941176, 0.705882352941177, 0.0 ],
					"id" : "obj-38",
					"maxclass" : "button",
					"numinlets" : 1,
					"numoutlets" : 1,
					"outlettype" : [ "bang" ],
					"outlinecolor" : [ 0.137255, 0.137255, 0.137255, 0.231373 ],
					"parameter_enable" : 0,
					"patching_rect" : [ 3146.815444463414224, 443.0, 92.0, 92.0 ],
					"presentation" : 1,
					"presentation_rect" : [ 578.5, 1736.0, 146.0, 146.0 ],
					"varname" : "loopers"
				}

			}
, 			{
				"box" : 				{
					"id" : "obj-39",
					"maxclass" : "newobj",
					"numinlets" : 2,
					"numoutlets" : 1,
					"outlettype" : [ "" ],
					"patching_rect" : [ 3146.815444463414224, 391.0, 115.0, 22.0 ],
					"text" : "hover_bang loopers"
				}

			}
, 			{
				"box" : 				{
					"bgcolor" : [ 0.2, 0.2, 0.2, 0.0 ],
					"blinkcolor" : [ 0.647058823529412, 0.905882352941176, 0.705882352941177, 0.0 ],
					"id" : "obj-36",
					"maxclass" : "button",
					"numinlets" : 1,
					"numoutlets" : 1,
					"outlettype" : [ "bang" ],
					"outlinecolor" : [ 0.137255, 0.137255, 0.137255, 0.231373 ],
					"parameter_enable" : 0,
					"patching_rect" : [ 3016.815444463414224, 560.0, 92.0, 92.0 ],
					"presentation" : 1,
					"presentation_rect" : [ 404.5, 1219.0, 146.0, 146.0 ],
					"varname" : "mixbus[1]"
				}

			}
, 			{
				"box" : 				{
					"bgcolor" : [ 0.2, 0.2, 0.2, 0.0 ],
					"blinkcolor" : [ 0.647058823529412, 0.905882352941176, 0.705882352941177, 0.0 ],
					"id" : "obj-3",
					"maxclass" : "button",
					"numinlets" : 1,
					"numoutlets" : 1,
					"outlettype" : [ "bang" ],
					"outlinecolor" : [ 0.137255, 0.137255, 0.137255, 0.231373 ],
					"parameter_enable" : 0,
					"patching_rect" : [ 3016.815444463414224, 443.0, 92.0, 92.0 ],
					"presentation" : 1,
					"presentation_rect" : [ 301.5, 1220.0, 146.0, 146.0 ],
					"varname" : "mixbus"
				}

			}
, 			{
				"box" : 				{
					"id" : "obj-35",
					"maxclass" : "newobj",
					"numinlets" : 2,
					"numoutlets" : 1,
					"outlettype" : [ "" ],
					"patching_rect" : [ 3016.815444463414224, 391.0, 113.0, 22.0 ],
					"text" : "hover_bang mixbus"
				}

			}
, 			{
				"box" : 				{
					"bgcolor" : [ 0.2, 0.2, 0.2, 0.0 ],
					"blinkcolor" : [ 0.647058823529412, 0.905882352941176, 0.705882352941177, 0.0 ],
					"id" : "obj-32",
					"maxclass" : "button",
					"numinlets" : 1,
					"numoutlets" : 1,
					"outlettype" : [ "bang" ],
					"outlinecolor" : [ 0.137255, 0.137255, 0.137255, 0.231373 ],
					"parameter_enable" : 0,
					"patching_rect" : [ 2864.815444463414224, 443.0, 92.0, 92.0 ],
					"presentation" : 1,
					"presentation_rect" : [ 222.5, 1844.0, 146.0, 146.0 ],
					"varname" : "metronome"
				}

			}
, 			{
				"box" : 				{
					"id" : "obj-34",
					"maxclass" : "newobj",
					"numinlets" : 2,
					"numoutlets" : 1,
					"outlettype" : [ "" ],
					"patching_rect" : [ 2864.815444463414224, 391.0, 136.0, 22.0 ],
					"text" : "hover_bang metronome"
				}

			}
, 			{
				"box" : 				{
					"bgcolor" : [ 0.2, 0.2, 0.2, 0.0 ],
					"blinkcolor" : [ 0.647058823529412, 0.905882352941176, 0.705882352941177, 0.0 ],
					"id" : "obj-28",
					"maxclass" : "button",
					"numinlets" : 1,
					"numoutlets" : 1,
					"outlettype" : [ "bang" ],
					"outlinecolor" : [ 0.137255, 0.137255, 0.137255, 0.231373 ],
					"parameter_enable" : 0,
					"patching_rect" : [ 2709.815444463414224, 443.0, 92.0, 92.0 ],
					"presentation" : 1,
					"presentation_rect" : [ 350.5, 1845.0, 146.0, 146.0 ],
					"varname" : "monitor_EQ"
				}

			}
, 			{
				"box" : 				{
					"id" : "obj-30",
					"maxclass" : "newobj",
					"numinlets" : 2,
					"numoutlets" : 1,
					"outlettype" : [ "" ],
					"patching_rect" : [ 2709.815444463414224, 391.0, 139.0, 22.0 ],
					"text" : "hover_bang monitor_EQ"
				}

			}
, 			{
				"box" : 				{
					"bgcolor" : [ 0.2, 0.2, 0.2, 0.0 ],
					"blinkcolor" : [ 0.647058823529412, 0.905882352941176, 0.705882352941177, 0.0 ],
					"id" : "obj-21",
					"maxclass" : "button",
					"numinlets" : 1,
					"numoutlets" : 1,
					"outlettype" : [ "bang" ],
					"outlinecolor" : [ 0.137255, 0.137255, 0.137255, 0.231373 ],
					"parameter_enable" : 0,
					"patching_rect" : [ 2555.815444463414224, 443.0, 92.0, 92.0 ],
					"presentation" : 1,
					"presentation_rect" : [ 350.5, 1736.0, 146.0, 146.0 ],
					"varname" : "main_limiter"
				}

			}
, 			{
				"box" : 				{
					"id" : "obj-26",
					"maxclass" : "newobj",
					"numinlets" : 2,
					"numoutlets" : 1,
					"outlettype" : [ "" ],
					"patching_rect" : [ 2555.815444463414224, 391.0, 140.0, 22.0 ],
					"text" : "hover_bang main_limiter"
				}

			}
, 			{
				"box" : 				{
					"bgcolor" : [ 0.2, 0.2, 0.2, 0.0 ],
					"blinkcolor" : [ 0.647058823529412, 0.905882352941176, 0.705882352941177, 0.0 ],
					"id" : "obj-7",
					"maxclass" : "button",
					"numinlets" : 1,
					"numoutlets" : 1,
					"outlettype" : [ "bang" ],
					"outlinecolor" : [ 0.137255, 0.137255, 0.137255, 0.231373 ],
					"parameter_enable" : 0,
					"patching_rect" : [ 2399.815444463414224, 443.0, 92.0, 92.0 ],
					"presentation" : 1,
					"presentation_rect" : [ 350.5, 1627.0, 146.0, 146.0 ],
					"varname" : "main_reverb"
				}

			}
, 			{
				"box" : 				{
					"id" : "obj-10",
					"maxclass" : "newobj",
					"numinlets" : 2,
					"numoutlets" : 1,
					"outlettype" : [ "" ],
					"patching_rect" : [ 2399.815444463414224, 391.0, 142.0, 22.0 ],
					"text" : "hover_bang main_reverb"
				}

			}
, 			{
				"box" : 				{
					"bgcolor" : [ 0.2, 0.2, 0.2, 0.0 ],
					"blinkcolor" : [ 0.647058823529412, 0.905882352941176, 0.705882352941177, 0.0 ],
					"id" : "obj-25",
					"maxclass" : "button",
					"numinlets" : 1,
					"numoutlets" : 1,
					"outlettype" : [ "bang" ],
					"outlinecolor" : [ 0.137255, 0.137255, 0.137255, 0.231373 ],
					"parameter_enable" : 0,
					"patching_rect" : [ 2246.16435412073497, 555.0, 92.0, 92.0 ],
					"presentation" : 1,
					"presentation_rect" : [ 541.391768450953123, 1230.0, 146.0, 146.0 ],
					"varname" : "delay_sends[1]"
				}

			}
, 			{
				"box" : 				{
					"bgcolor" : [ 0.2, 0.2, 0.2, 0.0 ],
					"blinkcolor" : [ 0.647058823529412, 0.905882352941176, 0.705882352941177, 0.0 ],
					"id" : "obj-22",
					"maxclass" : "button",
					"numinlets" : 1,
					"numoutlets" : 1,
					"outlettype" : [ "bang" ],
					"outlinecolor" : [ 0.137255, 0.137255, 0.137255, 0.231373 ],
					"parameter_enable" : 0,
					"patching_rect" : [ 2246.16435412073497, 443.0, 92.0, 92.0 ],
					"presentation" : 1,
					"presentation_rect" : [ 677.5, 1230.0, 146.0, 146.0 ],
					"varname" : "delay_sends"
				}

			}
, 			{
				"box" : 				{
					"id" : "obj-24",
					"maxclass" : "newobj",
					"numinlets" : 2,
					"numoutlets" : 1,
					"outlettype" : [ "" ],
					"patching_rect" : [ 2246.16435412073497, 391.0, 143.0, 22.0 ],
					"text" : "hover_bang delay_sends"
				}

			}
, 			{
				"box" : 				{
					"bgcolor" : [ 0.2, 0.2, 0.2, 0.0 ],
					"blinkcolor" : [ 0.647058823529412, 0.905882352941176, 0.705882352941177, 0.0 ],
					"id" : "obj-66",
					"maxclass" : "button",
					"numinlets" : 1,
					"numoutlets" : 1,
					"outlettype" : [ "bang" ],
					"outlinecolor" : [ 0.137255, 0.137255, 0.137255, 0.231373 ],
					"parameter_enable" : 0,
					"patching_rect" : [ 2137.16435412073497, 443.0, 92.0, 92.0 ],
					"presentation" : 1,
					"presentation_rect" : [ 209.5, 817.0, 146.0, 146.0 ],
					"varname" : "lows_comp"
				}

			}
, 			{
				"box" : 				{
					"bgcolor" : [ 0.2, 0.2, 0.2, 0.0 ],
					"blinkcolor" : [ 0.647058823529412, 0.905882352941176, 0.705882352941177, 0.0 ],
					"id" : "obj-70",
					"maxclass" : "button",
					"numinlets" : 1,
					"numoutlets" : 1,
					"outlettype" : [ "bang" ],
					"outlinecolor" : [ 0.137255, 0.137255, 0.137255, 0.231373 ],
					"parameter_enable" : 0,
					"patching_rect" : [ 2024.815444463414224, 443.0, 92.0, 92.0 ],
					"presentation" : 1,
					"presentation_rect" : [ 74.0, 817.0, 146.0, 146.0 ],
					"varname" : "octaver_comp"
				}

			}
, 			{
				"box" : 				{
					"id" : "obj-62",
					"linecount" : 2,
					"maxclass" : "newobj",
					"numinlets" : 2,
					"numoutlets" : 1,
					"outlettype" : [ "" ],
					"patching_rect" : [ 2137.16435412073497, 391.0, 75.0, 35.0 ],
					"text" : "hover_bang lows_comp"
				}

			}
, 			{
				"box" : 				{
					"id" : "obj-63",
					"linecount" : 2,
					"maxclass" : "newobj",
					"numinlets" : 2,
					"numoutlets" : 1,
					"outlettype" : [ "" ],
					"patching_rect" : [ 2024.815444463414224, 391.0, 87.0, 35.0 ],
					"text" : "hover_bang octaver_comp"
				}

			}
, 			{
				"box" : 				{
					"bgcolor" : [ 0.2, 0.2, 0.2, 0.0 ],
					"blinkcolor" : [ 0.647058823529412, 0.905882352941176, 0.705882352941177, 0.0 ],
					"id" : "obj-61",
					"maxclass" : "button",
					"numinlets" : 1,
					"numoutlets" : 1,
					"outlettype" : [ "bang" ],
					"outlinecolor" : [ 0.137255, 0.137255, 0.137255, 0.231373 ],
					"parameter_enable" : 0,
					"patching_rect" : [ 1645.450958482105762, 765.999999999999886, 92.0, 92.0 ],
					"presentation" : 1,
					"presentation_rect" : [ 351.0, 552.0, 146.0, 146.0 ],
					"varname" : "modulation[3]"
				}

			}
, 			{
				"box" : 				{
					"bgcolor" : [ 0.2, 0.2, 0.2, 0.0 ],
					"blinkcolor" : [ 0.647058823529412, 0.905882352941176, 0.705882352941177, 0.0 ],
					"id" : "obj-59",
					"maxclass" : "button",
					"numinlets" : 1,
					"numoutlets" : 1,
					"outlettype" : [ "bang" ],
					"outlinecolor" : [ 0.137255, 0.137255, 0.137255, 0.231373 ],
					"parameter_enable" : 0,
					"patching_rect" : [ 1645.450958482105762, 658.333333333333258, 92.0, 92.0 ],
					"presentation" : 1,
					"presentation_rect" : [ 220.0, 964.0, 125.0, 125.0 ],
					"varname" : "modulation[2]"
				}

			}
, 			{
				"box" : 				{
					"bgcolor" : [ 0.2, 0.2, 0.2, 0.0 ],
					"blinkcolor" : [ 0.647058823529412, 0.905882352941176, 0.705882352941177, 0.0 ],
					"id" : "obj-58",
					"maxclass" : "button",
					"numinlets" : 1,
					"numoutlets" : 1,
					"outlettype" : [ "bang" ],
					"outlinecolor" : [ 0.137255, 0.137255, 0.137255, 0.231373 ],
					"parameter_enable" : 0,
					"patching_rect" : [ 1645.450958482105762, 550.666666666666629, 92.0, 92.0 ],
					"presentation" : 1,
					"presentation_rect" : [ 84.0, 964.0, 125.0, 125.0 ],
					"varname" : "modulation[1]"
				}

			}
, 			{
				"box" : 				{
					"dragtrack" : 1,
					"handoff" : "",
					"hilite" : 0,
					"id" : "obj-57",
					"maxclass" : "ubutton",
					"numinlets" : 1,
					"numoutlets" : 4,
					"outlettype" : [ "bang", "bang", "", "int" ],
					"parameter_enable" : 0,
					"patching_rect" : [ 1779.391768450953123, 502.000000000000114, 128.0, 128.0 ],
					"presentation" : 1,
					"presentation_rect" : [ 52.391768450953123, 1114.0, 635.0, 72.0 ],
					"varname" : "transient_crossfade[2]"
				}

			}
, 			{
				"box" : 				{
					"id" : "obj-51",
					"maxclass" : "newobj",
					"numinlets" : 1,
					"numoutlets" : 5,
					"outlettype" : [ "", "", "", "", "" ],
					"patching_rect" : [ 1757.391768450953123, 443.0, 241.0, 22.0 ],
					"text" : "regexp outlinecolor @substitute bordercolor"
				}

			}
, 			{
				"box" : 				{
					"angle" : 270.0,
					"bgcolor" : [ 0.2, 0.2, 0.2, 0.0 ],
					"border" : 16,
					"bordercolor" : [ 0.137255, 0.137255, 0.137255, 0.231373 ],
					"id" : "obj-48",
					"maxclass" : "panel",
					"mode" : 0,
					"numinlets" : 1,
					"numoutlets" : 0,
					"patching_rect" : [ 1757.391768450953123, 484.000000000000114, 128.0, 128.0 ],
					"presentation" : 1,
					"presentation_rect" : [ 52.391768450953123, 1114.0, 635.0, 72.0 ],
					"proportion" : 0.5,
					"varname" : "transient_crossfade[1]"
				}

			}
, 			{
				"box" : 				{
					"bgcolor" : [ 0.2, 0.2, 0.2, 0.0 ],
					"blinkcolor" : [ 0.647058823529412, 0.905882352941176, 0.705882352941177, 0.0 ],
					"id" : "obj-46",
					"maxclass" : "button",
					"numinlets" : 1,
					"numoutlets" : 1,
					"outlettype" : [ "bang" ],
					"outlinecolor" : [ 0.137255, 0.137255, 0.137255, 0.231373 ],
					"parameter_enable" : 0,
					"patching_rect" : [ 1433.825958482105762, 765.999999999999886, 92.0, 92.0 ],
					"presentation" : 1,
					"presentation_rect" : [ 496.5, 709.0, 125.0, 125.0 ],
					"varname" : "crossover_selector[3]"
				}

			}
, 			{
				"box" : 				{
					"bgcolor" : [ 0.2, 0.2, 0.2, 0.0 ],
					"blinkcolor" : [ 0.647058823529412, 0.905882352941176, 0.705882352941177, 0.0 ],
					"id" : "obj-44",
					"maxclass" : "button",
					"numinlets" : 1,
					"numoutlets" : 1,
					"outlettype" : [ "bang" ],
					"outlinecolor" : [ 0.137255, 0.137255, 0.137255, 0.231373 ],
					"parameter_enable" : 0,
					"patching_rect" : [ 1433.825958482105762, 658.333333333333258, 92.0, 92.0 ],
					"presentation" : 1,
					"presentation_rect" : [ 362.0, 709.0, 125.0, 125.0 ],
					"varname" : "crossover_selector[2]"
				}

			}
, 			{
				"box" : 				{
					"bgcolor" : [ 0.2, 0.2, 0.2, 0.0 ],
					"blinkcolor" : [ 0.647058823529412, 0.905882352941176, 0.705882352941177, 0.0 ],
					"id" : "obj-40",
					"maxclass" : "button",
					"numinlets" : 1,
					"numoutlets" : 1,
					"outlettype" : [ "bang" ],
					"outlinecolor" : [ 0.137255, 0.137255, 0.137255, 0.231373 ],
					"parameter_enable" : 0,
					"patching_rect" : [ 1433.825958482105762, 550.666666666666629, 92.0, 92.0 ],
					"presentation" : 1,
					"presentation_rect" : [ 220.0, 709.0, 125.0, 125.0 ],
					"varname" : "crossover_selector[1]"
				}

			}
, 			{
				"box" : 				{
					"id" : "obj-20",
					"maxclass" : "newobj",
					"numinlets" : 1,
					"numoutlets" : 5,
					"outlettype" : [ "", "", "", "", "" ],
					"patching_rect" : [ 1103.662796488336426, 149.034615384615392, 167.0, 22.0 ],
					"text" : "regexp \\\\[\\\\d\\\\] @substitute \\\"\\\""
				}

			}
, 			{
				"box" : 				{
					"id" : "obj-19",
					"maxclass" : "newobj",
					"numinlets" : 1,
					"numoutlets" : 5,
					"outlettype" : [ "", "", "", "", "" ],
					"patching_rect" : [ 1157.662796488336426, 189.046153846153857, 167.0, 22.0 ],
					"text" : "regexp \\\\[\\\\d\\\\] @substitute \\\"\\\""
				}

			}
, 			{
				"box" : 				{
					"id" : "obj-125",
					"maxclass" : "newobj",
					"numinlets" : 1,
					"numoutlets" : 1,
					"outlettype" : [ "" ],
					"patching_rect" : [ 1208.950958482105762, 1171.734841578698251, 79.0, 22.0 ],
					"text" : "prepend 0 53"
				}

			}
, 			{
				"box" : 				{
					"fontname" : "Ableton Sans Light",
					"id" : "obj-122",
					"maxclass" : "comment",
					"numinlets" : 0,
					"numoutlets" : 0,
					"patching_rect" : [ 1293.375, 1134.426131184023689, 76.0, 21.0 ],
					"suppressinlet" : 1,
					"text" : "width of fpic"
				}

			}
, 			{
				"box" : 				{
					"fontname" : "Ableton Sans Light",
					"id" : "obj-121",
					"maxclass" : "comment",
					"numinlets" : 0,
					"numoutlets" : 0,
					"patching_rect" : [ 1237.375, 1037.0, 102.0, 21.0 ],
					"suppressinlet" : 1,
					"text" : "window full height"
				}

			}
, 			{
				"box" : 				{
					"id" : "obj-112",
					"maxclass" : "newobj",
					"numinlets" : 1,
					"numoutlets" : 1,
					"outlettype" : [ "" ],
					"patching_rect" : [ 1208.950958482105762, 1133.926131184023689, 76.0, 22.0 ],
					"text" : "prepend 860"
				}

			}
, 			{
				"box" : 				{
					"id" : "obj-111",
					"maxclass" : "newobj",
					"numinlets" : 1,
					"numoutlets" : 2,
					"outlettype" : [ "int", "int" ],
					"patching_rect" : [ 1166.950958482105762, 1036.117420789349126, 59.0, 22.0 ],
					"text" : "unpack i i"
				}

			}
, 			{
				"box" : 				{
					"id" : "obj-101",
					"linecount" : 8,
					"maxclass" : "message",
					"numinlets" : 2,
					"numoutlets" : 1,
					"outlettype" : [ "" ],
					"patching_rect" : [ 1398.075958482105534, 1063.0, 119.0, 116.0 ],
					"text" : ";\rmax launchbrowser https://gamedev.stackexchange.com/questions/83570/why-is-the-origin-in-computer-graphics-coordinates-at-the-top-left"
				}

			}
, 			{
				"box" : 				{
					"fontname" : "Arial",
					"fontsize" : 11.595186999999999,
					"id" : "obj-77",
					"maxclass" : "message",
					"numinlets" : 2,
					"numoutlets" : 1,
					"outlettype" : [ "" ],
					"patching_rect" : [ 1208.950958482105762, 1209.543551973372814, 326.0, 21.0 ],
					"text" : "window size $1 $2 $3 $4, window flags nozoom, window exec"
				}

			}
, 			{
				"box" : 				{
					"fontname" : "Ableton Sans Light",
					"id" : "obj-69",
					"linecount" : 3,
					"maxclass" : "comment",
					"numinlets" : 0,
					"numoutlets" : 0,
					"patching_rect" : [ 1403.806968861579207, 1011.0, 106.962020758946892, 50.0 ],
					"suppressinlet" : 1,
					"text" : "x, y\n\norigin is TOP LEFT"
				}

			}
, 			{
				"box" : 				{
					"fontname" : "Arial",
					"fontsize" : 11.595186999999999,
					"id" : "obj-45",
					"maxclass" : "newobj",
					"numinlets" : 2,
					"numoutlets" : 2,
					"outlettype" : [ "", "" ],
					"patching_rect" : [ 1129.950958482105762, 999.308710394674563, 56.0, 21.0 ],
					"text" : "zl slice 2"
				}

			}
, 			{
				"box" : 				{
					"fontname" : "Arial",
					"fontsize" : 11.595186999999999,
					"id" : "obj-47",
					"maxclass" : "newobj",
					"numinlets" : 1,
					"numoutlets" : 2,
					"outlettype" : [ "list", "list" ],
					"patching_rect" : [ 1129.950958482105762, 962.5, 67.0, 21.0 ],
					"text" : "screensize"
				}

			}
, 			{
				"box" : 				{
					"id" : "obj-17",
					"linecount" : 5,
					"maxclass" : "message",
					"numinlets" : 2,
					"numoutlets" : 1,
					"outlettype" : [ "" ],
					"patching_rect" : [ 17.0, 16.0, 126.0, 76.0 ],
					"text" : "window flags nofloat, window flags zoom, window flags grow, window exec, savewindow 0"
				}

			}
, 			{
				"box" : 				{
					"id" : "obj-33",
					"maxclass" : "newobj",
					"numinlets" : 1,
					"numoutlets" : 4,
					"outlettype" : [ "bang", "bang", "bang", "bang" ],
					"patching_rect" : [ 1111.200958482105762, 859.0, 50.5, 22.0 ],
					"text" : "b 4"
				}

			}
, 			{
				"box" : 				{
					"id" : "obj-31",
					"maxclass" : "newobj",
					"numinlets" : 0,
					"numoutlets" : 1,
					"outlettype" : [ "" ],
					"patching_rect" : [ 1111.200958482105762, 821.0, 182.0, 22.0 ],
					"text" : "r audio_effect_parameters_open"
				}

			}
, 			{
				"box" : 				{
					"id" : "obj-23",
					"linecount" : 2,
					"maxclass" : "message",
					"numinlets" : 2,
					"numoutlets" : 1,
					"outlettype" : [ "" ],
					"patching_rect" : [ 952.950958482105762, 956.077780353919479, 98.0, 35.0 ],
					"text" : "title Audio Effect Parameters"
				}

			}
, 			{
				"box" : 				{
					"id" : "obj-18",
					"maxclass" : "message",
					"numinlets" : 2,
					"numoutlets" : 1,
					"outlettype" : [ "" ],
					"patching_rect" : [ 1065.125, 967.0, 33.0, 22.0 ],
					"text" : "front"
				}

			}
, 			{
				"box" : 				{
					"id" : "obj-27",
					"maxclass" : "message",
					"numinlets" : 2,
					"numoutlets" : 1,
					"outlettype" : [ "" ],
					"patching_rect" : [ 880.994937694703822, 951.08028506089795, 61.0, 22.0 ],
					"text" : "topmost 1"
				}

			}
, 			{
				"box" : 				{
					"id" : "obj-29",
					"maxclass" : "newobj",
					"numinlets" : 1,
					"numoutlets" : 2,
					"outlettype" : [ "", "" ],
					"patching_rect" : [ 952.950958482105762, 1285.543551973372814, 67.0, 22.0 ],
					"save" : [ "#N", "thispatcher", ";", "#Q", "end", ";" ],
					"text" : "thispatcher"
				}

			}
, 			{
				"box" : 				{
					"id" : "obj-13",
					"linecount" : 2,
					"maxclass" : "newobj",
					"numinlets" : 2,
					"numoutlets" : 1,
					"outlettype" : [ "" ],
					"patching_rect" : [ 1648.16435412073497, 391.0, 92.0, 35.0 ],
					"text" : "hover_bang modulation"
				}

			}
, 			{
				"box" : 				{
					"bgcolor" : [ 0.2, 0.2, 0.2, 0.0 ],
					"blinkcolor" : [ 0.647058823529412, 0.905882352941176, 0.705882352941177, 0.0 ],
					"id" : "obj-15",
					"maxclass" : "button",
					"numinlets" : 1,
					"numoutlets" : 1,
					"outlettype" : [ "bang" ],
					"outlinecolor" : [ 0.137255, 0.137255, 0.137255, 0.231373 ],
					"parameter_enable" : 0,
					"patching_rect" : [ 1645.450958482105762, 443.0, 92.0, 92.0 ],
					"presentation" : 1,
					"presentation_rect" : [ -2.0, 568.0, 125.0, 125.0 ],
					"varname" : "modulation"
				}

			}
, 			{
				"box" : 				{
					"id" : "obj-9",
					"linecount" : 2,
					"maxclass" : "newobj",
					"numinlets" : 2,
					"numoutlets" : 1,
					"outlettype" : [ "" ],
					"patching_rect" : [ 1757.391768450953123, 391.0, 116.0, 35.0 ],
					"text" : "hover_bang transient_crossfade"
				}

			}
, 			{
				"box" : 				{
					"id" : "obj-2",
					"linecount" : 2,
					"maxclass" : "newobj",
					"numinlets" : 2,
					"numoutlets" : 1,
					"outlettype" : [ "" ],
					"patching_rect" : [ 1375.958746644099392, 391.0, 119.0, 35.0 ],
					"text" : "hover_bang crossover_selector"
				}

			}
, 			{
				"box" : 				{
					"bgcolor" : [ 0.2, 0.2, 0.2, 0.0 ],
					"blinkcolor" : [ 0.647058823529412, 0.905882352941176, 0.705882352941177, 0.0 ],
					"id" : "obj-4",
					"maxclass" : "button",
					"numinlets" : 1,
					"numoutlets" : 1,
					"outlettype" : [ "bang" ],
					"outlinecolor" : [ 0.137255, 0.137255, 0.137255, 0.231373 ],
					"parameter_enable" : 0,
					"patching_rect" : [ 1433.825958482105762, 443.0, 92.0, 92.0 ],
					"presentation" : 1,
					"presentation_rect" : [ 84.0, 709.0, 125.0, 125.0 ],
					"varname" : "crossover_selector"
				}

			}
, 			{
				"box" : 				{
					"id" : "obj-68",
					"linecount" : 2,
					"maxclass" : "newobj",
					"numinlets" : 2,
					"numoutlets" : 1,
					"outlettype" : [ "" ],
					"patching_rect" : [ 1280.662796488336426, 391.0, 75.0, 35.0 ],
					"text" : "hover_bang octaver"
				}

			}
, 			{
				"box" : 				{
					"id" : "obj-67",
					"linecount" : 2,
					"maxclass" : "newobj",
					"numinlets" : 2,
					"numoutlets" : 1,
					"outlettype" : [ "" ],
					"patching_rect" : [ 1185.366846332573004, 391.0, 75.0, 35.0 ],
					"text" : "hover_bang wet_preamp"
				}

			}
, 			{
				"box" : 				{
					"id" : "obj-64",
					"maxclass" : "newobj",
					"numinlets" : 2,
					"numoutlets" : 1,
					"outlettype" : [ "" ],
					"patching_rect" : [ 3916.39176845095335, 213.999999999999886, 138.0, 22.0 ],
					"text" : "hover_bang Dry-ish_FX"
				}

			}
, 			{
				"box" : 				{
					"id" : "obj-60",
					"linecount" : 2,
					"maxclass" : "newobj",
					"numinlets" : 2,
					"numoutlets" : 1,
					"outlettype" : [ "" ],
					"patching_rect" : [ 890.450958482105762, 391.0, 82.0, 35.0 ],
					"text" : "hover_bang dry_preamp"
				}

			}
, 			{
				"box" : 				{
					"id" : "obj-55",
					"maxclass" : "newobj",
					"numinlets" : 1,
					"numoutlets" : 1,
					"outlettype" : [ "" ],
					"patching_rect" : [ 891.0, 302.086538461538453, 29.0, 22.0 ],
					"text" : "thru"
				}

			}
, 			{
				"box" : 				{
					"id" : "obj-53",
					"maxclass" : "newobj",
					"numinlets" : 2,
					"numoutlets" : 2,
					"outlettype" : [ "", "" ],
					"patching_rect" : [ 1157.662796488336426, 269.069230769230785, 198.0, 22.0 ],
					"text" : "combine scripting_name _mouseoff"
				}

			}
, 			{
				"box" : 				{
					"id" : "obj-52",
					"maxclass" : "newobj",
					"numinlets" : 2,
					"numoutlets" : 2,
					"outlettype" : [ "", "" ],
					"patching_rect" : [ 1103.662796488336426, 229.057692307692321, 208.0, 22.0 ],
					"text" : "combine scripting_name _mouseover"
				}

			}
, 			{
				"box" : 				{
					"id" : "obj-1",
					"maxclass" : "newobj",
					"numinlets" : 1,
					"numoutlets" : 4,
					"outlettype" : [ "", "", "", "" ],
					"patching_rect" : [ 985.662796488336426, 29.0, 100.0, 22.0 ],
					"saved_object_attributes" : 					{
						"mode" : 0
					}
,
					"text" : "hover"
				}

			}
, 			{
				"box" : 				{
					"bgcolor" : [ 0.2, 0.2, 0.2, 0.0 ],
					"blinkcolor" : [ 0.647058823529412, 0.905882352941176, 0.705882352941177, 0.0 ],
					"id" : "obj-8",
					"maxclass" : "button",
					"numinlets" : 1,
					"numoutlets" : 1,
					"outlettype" : [ "bang" ],
					"outlinecolor" : [ 0.137255, 0.137255, 0.137255, 0.231373 ],
					"parameter_enable" : 0,
					"patching_rect" : [ 890.450958482105762, 443.0, 92.0, 92.0 ],
					"presentation" : 1,
					"presentation_rect" : [ 486.0, 117.0, 146.0, 146.0 ],
					"varname" : "dry_preamp"
				}

			}
, 			{
				"box" : 				{
					"bgcolor" : [ 0.2, 0.2, 0.2, 0.0 ],
					"blinkcolor" : [ 0.647058823529412, 0.905882352941176, 0.705882352941177, 0.0 ],
					"id" : "obj-6",
					"maxclass" : "button",
					"numinlets" : 1,
					"numoutlets" : 1,
					"outlettype" : [ "bang" ],
					"outlinecolor" : [ 0.137255, 0.137255, 0.137255, 0.231373 ],
					"parameter_enable" : 0,
					"patching_rect" : [ 1217.075958482105762, 443.0, 92.0, 92.0 ],
					"presentation" : 1,
					"presentation_rect" : [ 275.0, 117.0, 146.0, 146.0 ],
					"varname" : "wet_preamp"
				}

			}
, 			{
				"box" : 				{
					"bgcolor" : [ 0.2, 0.2, 0.2, 0.0 ],
					"blinkcolor" : [ 0.647058823529412, 0.905882352941176, 0.705882352941177, 0.0 ],
					"id" : "obj-5",
					"maxclass" : "button",
					"numinlets" : 1,
					"numoutlets" : 1,
					"outlettype" : [ "bang" ],
					"outlinecolor" : [ 0.137255, 0.137255, 0.137255, 0.231373 ],
					"parameter_enable" : 0,
					"patching_rect" : [ 1325.950958482105762, 443.0, 92.0, 92.0 ],
					"presentation" : 1,
					"presentation_rect" : [ 74.0, 237.0, 146.0, 146.0 ],
					"varname" : "octaver"
				}

			}
, 			{
				"box" : 				{
					"autofit" : 1,
					"background" : 1,
					"forceaspect" : 1,
					"id" : "obj-518",
					"maxclass" : "fpic",
					"numinlets" : 1,
					"numoutlets" : 1,
					"outlettype" : [ "jit_matrix" ],
					"patching_rect" : [ 0.0, 0.0, 828.277151639344311, 2029.906504207029457 ],
					"pic" : "Macintosh HD:/Users/jbaylies/Music/_repo/sousastep/Sousastep Audio FX/media/Sousastep_signalflow.drawio.png",
					"presentation" : 1,
					"presentation_rect" : [ 0.0, 0.0, 860.277151639344311, 2108.330746631271722 ]
				}

			}
, 			{
				"box" : 				{
					"angle" : 270.0,
					"background" : 1,
					"grad1" : [ 0.0, 0.980392156862745, 1.0, 0.15 ],
					"grad2" : [ 0.0, 0.141176470588235, 0.474509803921569, 0.25 ],
					"id" : "obj-238",
					"maxclass" : "panel",
					"mode" : 1,
					"numinlets" : 1,
					"numoutlets" : 0,
					"patching_rect" : [ 2434.680261404457269, 1517.0, 95.461703889554883, 116.458193340266234 ],
					"proportion" : 0.5,
					"varname" : "Aux_LFO_panel[2]"
				}

			}
 ],
		"lines" : [ 			{
				"patchline" : 				{
					"destination" : [ "obj-79", 0 ],
					"source" : [ "obj-1", 0 ]
				}

			}
, 			{
				"patchline" : 				{
					"destination" : [ "obj-80", 0 ],
					"source" : [ "obj-1", 2 ]
				}

			}
, 			{
				"patchline" : 				{
					"destination" : [ "obj-7", 0 ],
					"source" : [ "obj-10", 0 ]
				}

			}
, 			{
				"patchline" : 				{
					"destination" : [ "obj-71", 1 ],
					"source" : [ "obj-11", 1 ]
				}

			}
, 			{
				"patchline" : 				{
					"destination" : [ "obj-112", 0 ],
					"source" : [ "obj-111", 1 ]
				}

			}
, 			{
				"patchline" : 				{
					"destination" : [ "obj-125", 0 ],
					"source" : [ "obj-112", 0 ]
				}

			}
, 			{
				"patchline" : 				{
					"destination" : [ "obj-16", 0 ],
					"source" : [ "obj-12", 0 ]
				}

			}
, 			{
				"patchline" : 				{
					"destination" : [ "obj-1209", 0 ],
					"midpoints" : [ 2079.197498031460782, 862.485050129710544, 2079.197498031460782, 862.485050129710544 ],
					"source" : [ "obj-1202", 0 ]
				}

			}
, 			{
				"patchline" : 				{
					"destination" : [ "obj-77", 0 ],
					"source" : [ "obj-125", 0 ]
				}

			}
, 			{
				"patchline" : 				{
					"destination" : [ "obj-15", 0 ],
					"order" : 3,
					"source" : [ "obj-13", 0 ]
				}

			}
, 			{
				"patchline" : 				{
					"destination" : [ "obj-58", 0 ],
					"order" : 2,
					"source" : [ "obj-13", 0 ]
				}

			}
, 			{
				"patchline" : 				{
					"destination" : [ "obj-59", 0 ],
					"order" : 1,
					"source" : [ "obj-13", 0 ]
				}

			}
, 			{
				"patchline" : 				{
					"destination" : [ "obj-61", 0 ],
					"order" : 0,
					"source" : [ "obj-13", 0 ]
				}

			}
, 			{
				"patchline" : 				{
					"destination" : [ "obj-13", 1 ],
					"source" : [ "obj-15", 0 ]
				}

			}
, 			{
				"patchline" : 				{
					"destination" : [ "obj-29", 0 ],
					"source" : [ "obj-17", 0 ]
				}

			}
, 			{
				"patchline" : 				{
					"destination" : [ "obj-29", 0 ],
					"source" : [ "obj-18", 0 ]
				}

			}
, 			{
				"patchline" : 				{
					"destination" : [ "obj-53", 0 ],
					"source" : [ "obj-19", 3 ]
				}

			}
, 			{
				"patchline" : 				{
					"destination" : [ "obj-53", 0 ],
					"source" : [ "obj-19", 0 ]
				}

			}
, 			{
				"patchline" : 				{
					"destination" : [ "obj-4", 0 ],
					"order" : 3,
					"source" : [ "obj-2", 0 ]
				}

			}
, 			{
				"patchline" : 				{
					"destination" : [ "obj-40", 0 ],
					"order" : 2,
					"source" : [ "obj-2", 0 ]
				}

			}
, 			{
				"patchline" : 				{
					"destination" : [ "obj-44", 0 ],
					"order" : 1,
					"source" : [ "obj-2", 0 ]
				}

			}
, 			{
				"patchline" : 				{
					"destination" : [ "obj-46", 0 ],
					"order" : 0,
					"source" : [ "obj-2", 0 ]
				}

			}
, 			{
				"patchline" : 				{
					"destination" : [ "obj-52", 0 ],
					"source" : [ "obj-20", 3 ]
				}

			}
, 			{
				"patchline" : 				{
					"destination" : [ "obj-52", 0 ],
					"source" : [ "obj-20", 0 ]
				}

			}
, 			{
				"patchline" : 				{
					"destination" : [ "obj-26", 1 ],
					"source" : [ "obj-21", 0 ]
				}

			}
, 			{
				"patchline" : 				{
					"destination" : [ "obj-24", 1 ],
					"source" : [ "obj-22", 0 ]
				}

			}
, 			{
				"patchline" : 				{
					"destination" : [ "obj-275", 0 ],
					"source" : [ "obj-223", 0 ]
				}

			}
, 			{
				"patchline" : 				{
					"destination" : [ "obj-29", 0 ],
					"source" : [ "obj-23", 0 ]
				}

			}
, 			{
				"patchline" : 				{
					"destination" : [ "obj-22", 0 ],
					"order" : 1,
					"source" : [ "obj-24", 0 ]
				}

			}
, 			{
				"patchline" : 				{
					"destination" : [ "obj-25", 0 ],
					"order" : 0,
					"source" : [ "obj-24", 0 ]
				}

			}
, 			{
				"patchline" : 				{
					"destination" : [ "obj-24", 1 ],
					"source" : [ "obj-25", 0 ]
				}

			}
, 			{
				"patchline" : 				{
					"destination" : [ "obj-21", 0 ],
					"source" : [ "obj-26", 0 ]
				}

			}
, 			{
				"patchline" : 				{
					"destination" : [ "obj-364", 0 ],
					"source" : [ "obj-269", 0 ]
				}

			}
, 			{
				"patchline" : 				{
					"destination" : [ "obj-29", 0 ],
					"source" : [ "obj-27", 0 ]
				}

			}
, 			{
				"patchline" : 				{
					"destination" : [ "obj-408", 0 ],
					"source" : [ "obj-275", 0 ]
				}

			}
, 			{
				"patchline" : 				{
					"destination" : [ "obj-30", 1 ],
					"source" : [ "obj-28", 0 ]
				}

			}
, 			{
				"patchline" : 				{
					"destination" : [ "obj-399", 0 ],
					"source" : [ "obj-284", 0 ]
				}

			}
, 			{
				"patchline" : 				{
					"destination" : [ "obj-35", 1 ],
					"source" : [ "obj-3", 0 ]
				}

			}
, 			{
				"patchline" : 				{
					"destination" : [ "obj-28", 0 ],
					"source" : [ "obj-30", 0 ]
				}

			}
, 			{
				"patchline" : 				{
					"destination" : [ "obj-33", 0 ],
					"source" : [ "obj-31", 0 ]
				}

			}
, 			{
				"patchline" : 				{
					"destination" : [ "obj-34", 1 ],
					"source" : [ "obj-32", 0 ]
				}

			}
, 			{
				"patchline" : 				{
					"destination" : [ "obj-18", 0 ],
					"source" : [ "obj-33", 3 ]
				}

			}
, 			{
				"patchline" : 				{
					"destination" : [ "obj-23", 0 ],
					"source" : [ "obj-33", 1 ]
				}

			}
, 			{
				"patchline" : 				{
					"destination" : [ "obj-27", 0 ],
					"source" : [ "obj-33", 0 ]
				}

			}
, 			{
				"patchline" : 				{
					"destination" : [ "obj-47", 0 ],
					"source" : [ "obj-33", 2 ]
				}

			}
, 			{
				"patchline" : 				{
					"destination" : [ "obj-32", 0 ],
					"source" : [ "obj-34", 0 ]
				}

			}
, 			{
				"patchline" : 				{
					"destination" : [ "obj-894", 0 ],
					"source" : [ "obj-349", 0 ]
				}

			}
, 			{
				"patchline" : 				{
					"destination" : [ "obj-3", 0 ],
					"order" : 1,
					"source" : [ "obj-35", 0 ]
				}

			}
, 			{
				"patchline" : 				{
					"destination" : [ "obj-36", 0 ],
					"order" : 0,
					"source" : [ "obj-35", 0 ]
				}

			}
, 			{
				"patchline" : 				{
					"destination" : [ "obj-35", 1 ],
					"source" : [ "obj-36", 0 ]
				}

			}
, 			{
				"patchline" : 				{
					"destination" : [ "obj-84", 0 ],
					"source" : [ "obj-364", 0 ]
				}

			}
, 			{
				"patchline" : 				{
					"destination" : [ "obj-64", 1 ],
					"source" : [ "obj-37", 1 ]
				}

			}
, 			{
				"patchline" : 				{
					"destination" : [ "obj-39", 1 ],
					"source" : [ "obj-38", 0 ]
				}

			}
, 			{
				"patchline" : 				{
					"destination" : [ "obj-38", 0 ],
					"source" : [ "obj-39", 0 ]
				}

			}
, 			{
				"patchline" : 				{
					"destination" : [ "obj-502", 1 ],
					"source" : [ "obj-399", 0 ]
				}

			}
, 			{
				"patchline" : 				{
					"destination" : [ "obj-2", 1 ],
					"source" : [ "obj-4", 0 ]
				}

			}
, 			{
				"patchline" : 				{
					"destination" : [ "obj-2", 1 ],
					"source" : [ "obj-40", 0 ]
				}

			}
, 			{
				"patchline" : 				{
					"destination" : [ "obj-90", 0 ],
					"source" : [ "obj-408", 0 ]
				}

			}
, 			{
				"patchline" : 				{
					"destination" : [ "obj-56", 0 ],
					"source" : [ "obj-42", 0 ]
				}

			}
, 			{
				"patchline" : 				{
					"destination" : [ "obj-50", 0 ],
					"source" : [ "obj-43", 0 ]
				}

			}
, 			{
				"patchline" : 				{
					"destination" : [ "obj-2", 1 ],
					"source" : [ "obj-44", 0 ]
				}

			}
, 			{
				"patchline" : 				{
					"destination" : [ "obj-111", 0 ],
					"source" : [ "obj-45", 1 ]
				}

			}
, 			{
				"patchline" : 				{
					"destination" : [ "obj-2", 1 ],
					"source" : [ "obj-46", 0 ]
				}

			}
, 			{
				"patchline" : 				{
					"destination" : [ "obj-45", 0 ],
					"source" : [ "obj-47", 0 ]
				}

			}
, 			{
				"patchline" : 				{
					"destination" : [ "obj-502", 0 ],
					"source" : [ "obj-494", 0 ]
				}

			}
, 			{
				"patchline" : 				{
					"destination" : [ "obj-504", 0 ],
					"source" : [ "obj-496", 0 ]
				}

			}
, 			{
				"patchline" : 				{
					"destination" : [ "obj-68", 1 ],
					"source" : [ "obj-5", 0 ]
				}

			}
, 			{
				"patchline" : 				{
					"destination" : [ "obj-503", 0 ],
					"source" : [ "obj-502", 0 ]
				}

			}
, 			{
				"patchline" : 				{
					"destination" : [ "obj-496", 0 ],
					"order" : 1,
					"source" : [ "obj-503", 0 ]
				}

			}
, 			{
				"patchline" : 				{
					"destination" : [ "obj-504", 3 ],
					"order" : 0,
					"source" : [ "obj-503", 0 ]
				}

			}
, 			{
				"patchline" : 				{
					"destination" : [ "obj-861", 0 ],
					"source" : [ "obj-504", 0 ]
				}

			}
, 			{
				"patchline" : 				{
					"destination" : [ "obj-617", 0 ],
					"source" : [ "obj-505", 0 ]
				}

			}
, 			{
				"patchline" : 				{
					"destination" : [ "obj-504", 2 ],
					"midpoints" : [ 2192.462254298852713, 1511.702488498135381, 2243.962254298852713, 1511.702488498135381 ],
					"order" : 1,
					"source" : [ "obj-507", 0 ]
				}

			}
, 			{
				"patchline" : 				{
					"destination" : [ "obj-517", 0 ],
					"order" : 2,
					"source" : [ "obj-507", 0 ]
				}

			}
, 			{
				"patchline" : 				{
					"destination" : [ "obj-852", 1 ],
					"order" : 3,
					"source" : [ "obj-507", 0 ]
				}

			}
, 			{
				"patchline" : 				{
					"destination" : [ "obj-881", 0 ],
					"order" : 0,
					"source" : [ "obj-507", 0 ]
				}

			}
, 			{
				"patchline" : 				{
					"destination" : [ "obj-48", 0 ],
					"source" : [ "obj-51", 0 ]
				}

			}
, 			{
				"patchline" : 				{
					"destination" : [ "obj-504", 1 ],
					"source" : [ "obj-517", 0 ]
				}

			}
, 			{
				"patchline" : 				{
					"destination" : [ "obj-55", 0 ],
					"source" : [ "obj-52", 0 ]
				}

			}
, 			{
				"patchline" : 				{
					"destination" : [ "obj-55", 0 ],
					"source" : [ "obj-53", 0 ]
				}

			}
, 			{
				"patchline" : 				{
					"destination" : [ "obj-42", 1 ],
					"source" : [ "obj-54", 1 ]
				}

			}
, 			{
				"patchline" : 				{
					"destination" : [ "obj-10", 0 ],
					"order" : 8,
					"source" : [ "obj-55", 0 ]
				}

			}
, 			{
				"patchline" : 				{
					"destination" : [ "obj-13", 0 ],
					"order" : 13,
					"source" : [ "obj-55", 0 ]
				}

			}
, 			{
				"patchline" : 				{
					"destination" : [ "obj-2", 0 ],
					"order" : 14,
					"source" : [ "obj-55", 0 ]
				}

			}
, 			{
				"patchline" : 				{
					"destination" : [ "obj-24", 0 ],
					"order" : 9,
					"source" : [ "obj-55", 0 ]
				}

			}
, 			{
				"patchline" : 				{
					"destination" : [ "obj-26", 0 ],
					"order" : 7,
					"source" : [ "obj-55", 0 ]
				}

			}
, 			{
				"patchline" : 				{
					"destination" : [ "obj-30", 0 ],
					"order" : 6,
					"source" : [ "obj-55", 0 ]
				}

			}
, 			{
				"patchline" : 				{
					"destination" : [ "obj-34", 0 ],
					"order" : 5,
					"source" : [ "obj-55", 0 ]
				}

			}
, 			{
				"patchline" : 				{
					"destination" : [ "obj-35", 0 ],
					"order" : 4,
					"source" : [ "obj-55", 0 ]
				}

			}
, 			{
				"patchline" : 				{
					"destination" : [ "obj-39", 0 ],
					"order" : 3,
					"source" : [ "obj-55", 0 ]
				}

			}
, 			{
				"patchline" : 				{
					"destination" : [ "obj-42", 0 ],
					"order" : 2,
					"source" : [ "obj-55", 0 ]
				}

			}
, 			{
				"patchline" : 				{
					"destination" : [ "obj-60", 0 ],
					"order" : 17,
					"source" : [ "obj-55", 0 ]
				}

			}
, 			{
				"patchline" : 				{
					"destination" : [ "obj-62", 0 ],
					"order" : 10,
					"source" : [ "obj-55", 0 ]
				}

			}
, 			{
				"patchline" : 				{
					"destination" : [ "obj-63", 0 ],
					"order" : 11,
					"source" : [ "obj-55", 0 ]
				}

			}
, 			{
				"patchline" : 				{
					"destination" : [ "obj-64", 0 ],
					"order" : 0,
					"source" : [ "obj-55", 0 ]
				}

			}
, 			{
				"patchline" : 				{
					"destination" : [ "obj-67", 0 ],
					"order" : 16,
					"source" : [ "obj-55", 0 ]
				}

			}
, 			{
				"patchline" : 				{
					"destination" : [ "obj-68", 0 ],
					"order" : 15,
					"source" : [ "obj-55", 0 ]
				}

			}
, 			{
				"patchline" : 				{
					"destination" : [ "obj-71", 0 ],
					"order" : 1,
					"source" : [ "obj-55", 0 ]
				}

			}
, 			{
				"patchline" : 				{
					"destination" : [ "obj-9", 0 ],
					"order" : 12,
					"source" : [ "obj-55", 0 ]
				}

			}
, 			{
				"patchline" : 				{
					"destination" : [ "obj-65", 0 ],
					"source" : [ "obj-56", 0 ]
				}

			}
, 			{
				"patchline" : 				{
					"destination" : [ "obj-9", 1 ],
					"source" : [ "obj-57", 1 ]
				}

			}
, 			{
				"patchline" : 				{
					"destination" : [ "obj-861", 0 ],
					"source" : [ "obj-579", 0 ]
				}

			}
, 			{
				"patchline" : 				{
					"destination" : [ "obj-13", 1 ],
					"source" : [ "obj-58", 0 ]
				}

			}
, 			{
				"patchline" : 				{
					"destination" : [ "obj-13", 1 ],
					"source" : [ "obj-59", 0 ]
				}

			}
, 			{
				"patchline" : 				{
					"destination" : [ "obj-408", 0 ],
					"source" : [ "obj-591", 0 ]
				}

			}
, 			{
				"patchline" : 				{
					"destination" : [ "obj-67", 1 ],
					"source" : [ "obj-6", 0 ]
				}

			}
, 			{
				"patchline" : 				{
					"destination" : [ "obj-8", 0 ],
					"source" : [ "obj-60", 0 ]
				}

			}
, 			{
				"patchline" : 				{
					"destination" : [ "obj-13", 1 ],
					"source" : [ "obj-61", 0 ]
				}

			}
, 			{
				"patchline" : 				{
					"destination" : [ "obj-591", 0 ],
					"source" : [ "obj-617", 0 ]
				}

			}
, 			{
				"patchline" : 				{
					"destination" : [ "obj-66", 0 ],
					"source" : [ "obj-62", 0 ]
				}

			}
, 			{
				"patchline" : 				{
					"destination" : [ "obj-70", 0 ],
					"source" : [ "obj-63", 0 ]
				}

			}
, 			{
				"patchline" : 				{
					"destination" : [ "obj-43", 0 ],
					"source" : [ "obj-64", 0 ]
				}

			}
, 			{
				"patchline" : 				{
					"destination" : [ "obj-62", 1 ],
					"source" : [ "obj-66", 0 ]
				}

			}
, 			{
				"patchline" : 				{
					"destination" : [ "obj-6", 0 ],
					"source" : [ "obj-67", 0 ]
				}

			}
, 			{
				"patchline" : 				{
					"destination" : [ "obj-5", 0 ],
					"source" : [ "obj-68", 0 ]
				}

			}
, 			{
				"patchline" : 				{
					"destination" : [ "obj-89", 0 ],
					"source" : [ "obj-696", 0 ]
				}

			}
, 			{
				"patchline" : 				{
					"destination" : [ "obj-10", 1 ],
					"source" : [ "obj-7", 0 ]
				}

			}
, 			{
				"patchline" : 				{
					"destination" : [ "obj-63", 1 ],
					"source" : [ "obj-70", 0 ]
				}

			}
, 			{
				"patchline" : 				{
					"destination" : [ "obj-12", 0 ],
					"source" : [ "obj-71", 0 ]
				}

			}
, 			{
				"patchline" : 				{
					"destination" : [ "obj-284", 0 ],
					"source" : [ "obj-73", 0 ]
				}

			}
, 			{
				"patchline" : 				{
					"destination" : [ "obj-29", 0 ],
					"source" : [ "obj-77", 0 ]
				}

			}
, 			{
				"patchline" : 				{
					"destination" : [ "obj-74", 0 ],
					"source" : [ "obj-78", 1 ]
				}

			}
, 			{
				"patchline" : 				{
					"destination" : [ "obj-20", 0 ],
					"source" : [ "obj-79", 1 ]
				}

			}
, 			{
				"patchline" : 				{
					"destination" : [ "obj-81", 0 ],
					"source" : [ "obj-79", 0 ]
				}

			}
, 			{
				"patchline" : 				{
					"destination" : [ "obj-60", 1 ],
					"source" : [ "obj-8", 0 ]
				}

			}
, 			{
				"patchline" : 				{
					"destination" : [ "obj-19", 0 ],
					"source" : [ "obj-80", 1 ]
				}

			}
, 			{
				"patchline" : 				{
					"destination" : [ "obj-82", 0 ],
					"source" : [ "obj-80", 0 ]
				}

			}
, 			{
				"patchline" : 				{
					"destination" : [ "obj-52", 0 ],
					"source" : [ "obj-81", 3 ]
				}

			}
, 			{
				"patchline" : 				{
					"destination" : [ "obj-52", 0 ],
					"source" : [ "obj-81", 2 ]
				}

			}
, 			{
				"patchline" : 				{
					"destination" : [ "obj-52", 0 ],
					"source" : [ "obj-81", 1 ]
				}

			}
, 			{
				"patchline" : 				{
					"destination" : [ "obj-52", 0 ],
					"source" : [ "obj-81", 0 ]
				}

			}
, 			{
				"patchline" : 				{
					"destination" : [ "obj-53", 0 ],
					"source" : [ "obj-82", 3 ]
				}

			}
, 			{
				"patchline" : 				{
					"destination" : [ "obj-53", 0 ],
					"source" : [ "obj-82", 2 ]
				}

			}
, 			{
				"patchline" : 				{
					"destination" : [ "obj-53", 0 ],
					"source" : [ "obj-82", 1 ]
				}

			}
, 			{
				"patchline" : 				{
					"destination" : [ "obj-53", 0 ],
					"source" : [ "obj-82", 0 ]
				}

			}
, 			{
				"patchline" : 				{
					"destination" : [ "obj-861", 0 ],
					"midpoints" : [ 1945.517278809759773, 1577.661945338508303, 1823.294199913105331, 1577.661945338508303 ],
					"source" : [ "obj-852", 0 ]
				}

			}
, 			{
				"patchline" : 				{
					"destination" : [ "obj-696", 0 ],
					"order" : 0,
					"source" : [ "obj-865", 0 ]
				}

			}
, 			{
				"patchline" : 				{
					"destination" : [ "obj-852", 0 ],
					"midpoints" : [ 2047.317278940889992, 1488.757123571375132, 2022.865640522315516, 1488.757123571375132, 2022.865640522315516, 1514.757123571375132, 1945.517278809759773, 1514.757123571375132 ],
					"order" : 1,
					"source" : [ "obj-865", 0 ]
				}

			}
, 			{
				"patchline" : 				{
					"destination" : [ "obj-861", 0 ],
					"midpoints" : [ 1823.294199913105331, 1526.661945338508303, 1823.294199913105331, 1526.661945338508303 ],
					"source" : [ "obj-866", 0 ]
				}

			}
, 			{
				"patchline" : 				{
					"destination" : [ "obj-861", 0 ],
					"midpoints" : [ 1835.294199913105331, 1577.661945338508303, 1823.294199913105331, 1577.661945338508303 ],
					"source" : [ "obj-869", 0 ]
				}

			}
, 			{
				"patchline" : 				{
					"destination" : [ "obj-494", 0 ],
					"source" : [ "obj-881", 0 ]
				}

			}
, 			{
				"patchline" : 				{
					"destination" : [ "obj-85", 0 ],
					"order" : 3,
					"source" : [ "obj-89", 0 ]
				}

			}
, 			{
				"patchline" : 				{
					"destination" : [ "obj-86", 0 ],
					"order" : 2,
					"source" : [ "obj-89", 0 ]
				}

			}
, 			{
				"patchline" : 				{
					"destination" : [ "obj-861", 0 ],
					"midpoints" : [ 2108.317278940889992, 1577.661945338508303, 1823.294199913105331, 1577.661945338508303 ],
					"source" : [ "obj-89", 1 ]
				}

			}
, 			{
				"patchline" : 				{
					"destination" : [ "obj-87", 0 ],
					"order" : 1,
					"source" : [ "obj-89", 0 ]
				}

			}
, 			{
				"patchline" : 				{
					"destination" : [ "obj-88", 0 ],
					"order" : 0,
					"source" : [ "obj-89", 0 ]
				}

			}
, 			{
				"patchline" : 				{
					"destination" : [ "obj-408", 0 ],
					"source" : [ "obj-894", 0 ]
				}

			}
, 			{
				"patchline" : 				{
					"destination" : [ "obj-51", 0 ],
					"source" : [ "obj-9", 0 ]
				}

			}
, 			{
				"patchline" : 				{
					"destination" : [ "obj-507", 0 ],
					"order" : 0,
					"source" : [ "obj-90", 0 ]
				}

			}
, 			{
				"patchline" : 				{
					"destination" : [ "obj-868", 0 ],
					"order" : 1,
					"source" : [ "obj-90", 0 ]
				}

			}
, 			{
				"patchline" : 				{
					"destination" : [ "obj-861", 0 ],
					"source" : [ "obj-91", 0 ]
				}

			}
, 			{
				"patchline" : 				{
					"destination" : [ "obj-866", 0 ],
					"source" : [ "obj-98", 0 ]
				}

			}
, 			{
				"patchline" : 				{
					"destination" : [ "obj-275", 0 ],
					"source" : [ "obj-981", 0 ]
				}

			}
 ],
		"bgcolor" : [ 0.2, 0.2, 0.2, 1.0 ]
	}

}
