{
	"patcher" : 	{
		"fileversion" : 1,
		"appversion" : 		{
			"major" : 8,
			"minor" : 5,
			"revision" : 0,
			"architecture" : "x64",
			"modernui" : 1
		}
,
		"classnamespace" : "box",
		"rect" : [ 356.0, -993.0, 834.0, 886.0 ],
		"bglocked" : 0,
		"openinpresentation" : 1,
		"default_fontsize" : 12.0,
		"default_fontface" : 0,
		"default_fontname" : "Arial",
		"gridonopen" : 1,
		"gridsize" : [ 15.0, 15.0 ],
		"gridsnaponopen" : 1,
		"objectsnaponopen" : 1,
		"statusbarvisible" : 2,
		"toolbarvisible" : 1,
		"lefttoolbarpinned" : 0,
		"toptoolbarpinned" : 0,
		"righttoolbarpinned" : 0,
		"bottomtoolbarpinned" : 0,
		"toolbars_unpinned_last_save" : 0,
		"tallnewobj" : 0,
		"boxanimatetime" : 200,
		"enablehscroll" : 1,
		"enablevscroll" : 1,
		"devicewidth" : 0.0,
		"description" : "",
		"digest" : "",
		"tags" : "",
		"style" : "",
		"subpatcher_template" : "",
		"assistshowspatchername" : 0,
		"boxes" : [ 			{
				"box" : 				{
					"bgcolor" : [ 0.2, 0.2, 0.2, 0.31 ],
					"bgfillcolor_angle" : 270.0,
					"bgfillcolor_color" : [ 0.2, 0.2, 0.2, 0.31 ],
					"bgfillcolor_color1" : [ 0.376470588235294, 0.384313725490196, 0.4, 1.0 ],
					"bgfillcolor_color2" : [ 0.290196078431373, 0.309803921568627, 0.301960784313725, 1.0 ],
					"bgfillcolor_proportion" : 0.39,
					"bgfillcolor_type" : "color",
					"fontname" : "Ableton Sans Light",
					"id" : "obj-71",
					"items" : [ "volume", "fade", "out", ",", "highpass", "sweep", "up", ",", "lowpass", "sweep", "down" ],
					"maxclass" : "umenu",
					"numinlets" : 1,
					"numoutlets" : 3,
					"outlettype" : [ "int", "", "" ],
					"parameter_enable" : 0,
					"patching_rect" : [ 850.000319567753195, 264.991487017986856, 120.0, 23.0 ],
					"presentation" : 1,
					"presentation_rect" : [ 5.370666947980681, 195.991487017985037, 134.739824517654597, 23.0 ],
					"textcolor" : [ 0.129412, 0.129412, 0.129412, 1.0 ]
				}

			}
, 			{
				"box" : 				{
					"comment" : "fade out FX type",
					"id" : "obj-76",
					"index" : 0,
					"maxclass" : "inlet",
					"numinlets" : 0,
					"numoutlets" : 1,
					"outlettype" : [ "" ],
					"patching_rect" : [ 850.000319567753195, 180.491487017986856, 30.0, 30.0 ]
				}

			}
, 			{
				"box" : 				{
					"id" : "obj-75",
					"maxclass" : "newobj",
					"numinlets" : 2,
					"numoutlets" : 1,
					"outlettype" : [ "int" ],
					"patching_rect" : [ 850.000319567753195, 227.500000000000455, 29.5, 22.0 ],
					"text" : "- 1"
				}

			}
, 			{
				"box" : 				{
					"id" : "obj-74",
					"maxclass" : "newobj",
					"numinlets" : 2,
					"numoutlets" : 1,
					"outlettype" : [ "int" ],
					"patching_rect" : [ 850.000319567753195, 301.988769250000587, 29.5, 22.0 ],
					"text" : "+ 1"
				}

			}
, 			{
				"box" : 				{
					"id" : "obj-70",
					"maxclass" : "newobj",
					"numinlets" : 2,
					"numoutlets" : 3,
					"outlettype" : [ "", "", "" ],
					"patching_rect" : [ 850.000319567753195, 356.500000000000455, 42.0, 22.0 ],
					"text" : "gate 3"
				}

			}
, 			{
				"box" : 				{
					"id" : "obj-62",
					"maxclass" : "newobj",
					"numinlets" : 1,
					"numoutlets" : 1,
					"outlettype" : [ "bang" ],
					"patching_rect" : [ 482.059872424607875, 226.491487017985946, 22.0, 22.0 ],
					"text" : "t b"
				}

			}
, 			{
				"box" : 				{
					"id" : "obj-61",
					"maxclass" : "newobj",
					"numinlets" : 2,
					"numoutlets" : 2,
					"outlettype" : [ "bang", "" ],
					"patching_rect" : [ 46.5, 122.491487017985946, 34.0, 22.0 ],
					"text" : "sel 1"
				}

			}
, 			{
				"box" : 				{
					"id" : "obj-60",
					"maxclass" : "newobj",
					"numinlets" : 0,
					"numoutlets" : 1,
					"outlettype" : [ "" ],
					"patching_rect" : [ 46.5, 85.491487017985946, 55.0, 22.0 ],
					"text" : "r options"
				}

			}
, 			{
				"box" : 				{
					"bubble" : 1,
					"id" : "obj-59",
					"linecount" : 2,
					"maxclass" : "comment",
					"numinlets" : 1,
					"numoutlets" : 0,
					"patching_rect" : [ 1059.000319567753195, 287.988769250000132, 63.0, 37.0 ],
					"text" : "ms per loop"
				}

			}
, 			{
				"box" : 				{
					"id" : "obj-51",
					"maxclass" : "comment",
					"numinlets" : 1,
					"numoutlets" : 0,
					"patching_rect" : [ 1137.50031956775365, 514.5, 55.0, 20.0 ],
					"text" : "unmute"
				}

			}
, 			{
				"box" : 				{
					"id" : "obj-52",
					"maxclass" : "comment",
					"numinlets" : 1,
					"numoutlets" : 0,
					"patching_rect" : [ 1137.50031956775365, 418.809846017985819, 55.0, 20.0 ],
					"text" : "fade in"
				}

			}
, 			{
				"box" : 				{
					"id" : "obj-53",
					"maxclass" : "comment",
					"numinlets" : 1,
					"numoutlets" : 0,
					"patching_rect" : [ 1137.50031956775365, 464.809846017985819, 55.0, 20.0 ],
					"presentation_linecount" : 2,
					"text" : "fade out"
				}

			}
, 			{
				"box" : 				{
					"id" : "obj-54",
					"maxclass" : "message",
					"numinlets" : 2,
					"numoutlets" : 1,
					"outlettype" : [ "" ],
					"patching_rect" : [ 1195.390147669871567, 513.5, 32.0, 22.0 ],
					"text" : "1 12"
				}

			}
, 			{
				"box" : 				{
					"id" : "obj-55",
					"maxclass" : "newobj",
					"numinlets" : 2,
					"numoutlets" : 1,
					"outlettype" : [ "" ],
					"patching_rect" : [ 1302.390147669871567, 482.073974375000034, 56.5, 22.0 ],
					"text" : "pack"
				}

			}
, 			{
				"box" : 				{
					"id" : "obj-56",
					"maxclass" : "message",
					"numinlets" : 2,
					"numoutlets" : 1,
					"outlettype" : [ "" ],
					"patching_rect" : [ 1195.390147669871567, 418.809846017985819, 29.5, 22.0 ],
					"text" : "1"
				}

			}
, 			{
				"box" : 				{
					"id" : "obj-57",
					"maxclass" : "message",
					"numinlets" : 2,
					"numoutlets" : 1,
					"outlettype" : [ "" ],
					"patching_rect" : [ 1195.390147669871567, 464.809846017985819, 29.5, 22.0 ],
					"text" : "0"
				}

			}
, 			{
				"box" : 				{
					"id" : "obj-58",
					"maxclass" : "newobj",
					"numinlets" : 3,
					"numoutlets" : 2,
					"outlettype" : [ "", "bang" ],
					"patching_rect" : [ 1302.390147669871567, 519.159179499999937, 41.0, 22.0 ],
					"text" : "line 1."
				}

			}
, 			{
				"box" : 				{
					"id" : "obj-50",
					"maxclass" : "comment",
					"numinlets" : 1,
					"numoutlets" : 0,
					"patching_rect" : [ 1714.0, 649.809846017985819, 18.0, 20.0 ]
				}

			}
, 			{
				"box" : 				{
					"id" : "obj-41",
					"maxclass" : "comment",
					"numinlets" : 1,
					"numoutlets" : 0,
					"patching_rect" : [ 888.110491465635278, 538.0, 55.0, 20.0 ],
					"text" : "unmute"
				}

			}
, 			{
				"box" : 				{
					"id" : "obj-42",
					"maxclass" : "comment",
					"numinlets" : 1,
					"numoutlets" : 0,
					"patching_rect" : [ 888.110491465635278, 452.809846017985819, 55.0, 20.0 ],
					"text" : "fade in"
				}

			}
, 			{
				"box" : 				{
					"id" : "obj-43",
					"maxclass" : "comment",
					"numinlets" : 1,
					"numoutlets" : 0,
					"patching_rect" : [ 888.110491465635278, 493.809846017985819, 55.0, 20.0 ],
					"presentation_linecount" : 2,
					"text" : "fade out"
				}

			}
, 			{
				"box" : 				{
					"id" : "obj-44",
					"maxclass" : "message",
					"numinlets" : 2,
					"numoutlets" : 1,
					"outlettype" : [ "" ],
					"patching_rect" : [ 946.000319567753195, 537.0, 32.0, 22.0 ],
					"text" : "0 12"
				}

			}
, 			{
				"box" : 				{
					"id" : "obj-45",
					"maxclass" : "newobj",
					"numinlets" : 2,
					"numoutlets" : 1,
					"outlettype" : [ "" ],
					"patching_rect" : [ 1053.000319567753195, 505.573974375000034, 56.5, 22.0 ],
					"text" : "pack"
				}

			}
, 			{
				"box" : 				{
					"id" : "obj-46",
					"maxclass" : "message",
					"numinlets" : 2,
					"numoutlets" : 1,
					"outlettype" : [ "" ],
					"patching_rect" : [ 946.000319567753195, 493.809846017985819, 29.5, 22.0 ],
					"text" : "1"
				}

			}
, 			{
				"box" : 				{
					"id" : "obj-47",
					"maxclass" : "message",
					"numinlets" : 2,
					"numoutlets" : 1,
					"outlettype" : [ "" ],
					"patching_rect" : [ 946.000319567753195, 450.809846017985819, 29.5, 22.0 ],
					"text" : "0"
				}

			}
, 			{
				"box" : 				{
					"id" : "obj-48",
					"maxclass" : "newobj",
					"numinlets" : 3,
					"numoutlets" : 2,
					"outlettype" : [ "", "bang" ],
					"patching_rect" : [ 1053.000319567753195, 542.659179499999937, 41.0, 22.0 ],
					"text" : "line 1."
				}

			}
, 			{
				"box" : 				{
					"id" : "obj-40",
					"maxclass" : "newobj",
					"numinlets" : 1,
					"numoutlets" : 1,
					"outlettype" : [ "" ],
					"patching_rect" : [ 794.000319567753195, 589.0, 77.0, 22.0 ],
					"text" : "prepend Wet"
				}

			}
, 			{
				"box" : 				{
					"id" : "obj-39",
					"maxclass" : "newobj",
					"numinlets" : 1,
					"numoutlets" : 0,
					"patching_rect" : [ 199.25, 1129.0, 32.0, 22.0 ],
					"text" : "print"
				}

			}
, 			{
				"box" : 				{
					"id" : "obj-38",
					"maxclass" : "message",
					"numinlets" : 2,
					"numoutlets" : 1,
					"outlettype" : [ "" ],
					"patching_rect" : [ 67.0, 1045.0, 49.0, 22.0 ],
					"text" : "params"
				}

			}
, 			{
				"box" : 				{
					"id" : "obj-36",
					"maxclass" : "message",
					"numinlets" : 2,
					"numoutlets" : 1,
					"outlettype" : [ "" ],
					"patching_rect" : [ 980.500319567753195, 189.406281892986044, 29.5, 22.0 ],
					"text" : "140"
				}

			}
, 			{
				"box" : 				{
					"id" : "obj-33",
					"maxclass" : "comment",
					"numinlets" : 1,
					"numoutlets" : 0,
					"patching_rect" : [ 629.110491465635278, 547.0, 55.0, 20.0 ],
					"text" : "unmute"
				}

			}
, 			{
				"box" : 				{
					"id" : "obj-32",
					"maxclass" : "comment",
					"numinlets" : 1,
					"numoutlets" : 0,
					"patching_rect" : [ 629.110491465635278, 499.309846017985819, 55.0, 20.0 ],
					"presentation_linecount" : 2,
					"text" : "fade out"
				}

			}
, 			{
				"box" : 				{
					"id" : "obj-31",
					"maxclass" : "comment",
					"numinlets" : 1,
					"numoutlets" : 0,
					"patching_rect" : [ 637.110491465635278, 448.809846017985819, 47.0, 20.0 ],
					"text" : "fade in"
				}

			}
, 			{
				"box" : 				{
					"id" : "obj-25",
					"maxclass" : "message",
					"numinlets" : 2,
					"numoutlets" : 1,
					"outlettype" : [ "" ],
					"patching_rect" : [ 687.000319567753195, 546.0, 45.0, 22.0 ],
					"text" : "0, 1 12"
				}

			}
, 			{
				"box" : 				{
					"id" : "obj-1075",
					"maxclass" : "newobj",
					"numinlets" : 2,
					"numoutlets" : 1,
					"outlettype" : [ "float" ],
					"patching_rect" : [ 1027.500319567753195, 295.488769250000132, 29.5, 22.0 ],
					"text" : "* 1."
				}

			}
, 			{
				"box" : 				{
					"id" : "obj-1074",
					"maxclass" : "newobj",
					"numinlets" : 2,
					"numoutlets" : 1,
					"outlettype" : [ "" ],
					"patching_rect" : [ 794.000319567753195, 514.573974375000034, 56.5, 22.0 ],
					"text" : "pack"
				}

			}
, 			{
				"box" : 				{
					"id" : "obj-1067",
					"maxclass" : "message",
					"numinlets" : 2,
					"numoutlets" : 1,
					"outlettype" : [ "" ],
					"patching_rect" : [ 687.000319567753195, 451.309846017985819, 29.5, 22.0 ],
					"text" : "1"
				}

			}
, 			{
				"box" : 				{
					"id" : "obj-1063",
					"maxclass" : "message",
					"numinlets" : 2,
					"numoutlets" : 1,
					"outlettype" : [ "" ],
					"patching_rect" : [ 687.000319567753195, 497.309846017985819, 29.5, 22.0 ],
					"text" : "0"
				}

			}
, 			{
				"box" : 				{
					"id" : "obj-1059",
					"maxclass" : "newobj",
					"numinlets" : 3,
					"numoutlets" : 2,
					"outlettype" : [ "", "bang" ],
					"patching_rect" : [ 794.000319567753195, 551.659179499999937, 41.0, 22.0 ],
					"text" : "line 1."
				}

			}
, 			{
				"box" : 				{
					"bubble" : 1,
					"id" : "obj-1058",
					"linecount" : 2,
					"maxclass" : "comment",
					"numinlets" : 1,
					"numoutlets" : 0,
					"patching_rect" : [ 1091.500319567753195, 235.491487017985946, 89.0, 37.0 ],
					"text" : "ms per whole note"
				}

			}
, 			{
				"box" : 				{
					"id" : "obj-1051",
					"maxclass" : "newobj",
					"numinlets" : 2,
					"numoutlets" : 1,
					"outlettype" : [ "float" ],
					"patching_rect" : [ 1027.500319567753195, 242.991487017985946, 62.0, 22.0 ],
					"text" : "!/ 240000."
				}

			}
, 			{
				"box" : 				{
					"color" : [ 1.0, 0.0, 0.32156862745098, 1.0 ],
					"id" : "obj-1050",
					"maxclass" : "newobj",
					"numinlets" : 0,
					"numoutlets" : 1,
					"outlettype" : [ "" ],
					"patching_rect" : [ 1027.500319567753195, 189.406281892986044, 82.0, 22.0 ],
					"text" : "r tempo_BPM"
				}

			}
, 			{
				"box" : 				{
					"bgcolor" : [ 0.2, 0.2, 0.2, 0.25 ],
					"elementcolor" : [ 0.349019607843137, 0.349019607843137, 0.349019607843137, 0.22 ],
					"floatoutput" : 1,
					"id" : "obj-26",
					"ignoreclick" : 1,
					"maxclass" : "slider",
					"numinlets" : 1,
					"numoutlets" : 1,
					"outlettype" : [ "" ],
					"parameter_enable" : 0,
					"patching_rect" : [ 397.871152337402236, 414.0, 118.0, 39.0 ],
					"presentation" : 1,
					"presentation_rect" : [ 5.370666947980681, 52.781730178020553, 134.739824517654597, 16.0 ],
					"size" : 1.0
				}

			}
, 			{
				"box" : 				{
					"id" : "obj-24",
					"maxclass" : "newobj",
					"numinlets" : 3,
					"numoutlets" : 2,
					"outlettype" : [ "", "bang" ],
					"patching_rect" : [ 475.871152337402236, 368.754519521906786, 40.0, 22.0 ],
					"text" : "line"
				}

			}
, 			{
				"box" : 				{
					"id" : "obj-20",
					"maxclass" : "newobj",
					"numinlets" : 1,
					"numoutlets" : 1,
					"outlettype" : [ "" ],
					"patching_rect" : [ 668.0, 92.067992757122283, 96.0, 22.0 ],
					"text" : "prepend symbol"
				}

			}
, 			{
				"box" : 				{
					"bgcolor" : [ 0.2, 0.2, 0.2, 0.31 ],
					"bgfillcolor_angle" : 270.0,
					"bgfillcolor_color" : [ 0.2, 0.2, 0.2, 0.31 ],
					"bgfillcolor_color1" : [ 0.376470588235294, 0.384313725490196, 0.4, 1.0 ],
					"bgfillcolor_color2" : [ 0.290196078431373, 0.309803921568627, 0.301960784313725, 1.0 ],
					"bgfillcolor_proportion" : 0.39,
					"bgfillcolor_type" : "color",
					"fontname" : "Ableton Sans Light",
					"id" : "obj-19",
					"items" : [ 4, ",", 8, ",", 16, ",", 32 ],
					"maxclass" : "umenu",
					"numinlets" : 1,
					"numoutlets" : 3,
					"outlettype" : [ "int", "", "" ],
					"parameter_enable" : 0,
					"patching_rect" : [ 668.0, 129.000000000000455, 100.0, 23.0 ],
					"presentation" : 1,
					"presentation_rect" : [ 97.110491465635278, 231.991487017985037, 43.0, 23.0 ],
					"textcolor" : [ 0.129412, 0.129412, 0.129412, 1.0 ]
				}

			}
, 			{
				"box" : 				{
					"id" : "obj-18",
					"maxclass" : "newobj",
					"numinlets" : 1,
					"numoutlets" : 1,
					"outlettype" : [ "" ],
					"patching_rect" : [ 910.50031956775365, 580.0, 73.0, 22.0 ],
					"text" : "loadmess 0."
				}

			}
, 			{
				"box" : 				{
					"id" : "obj-17",
					"maxclass" : "newobj",
					"numinlets" : 1,
					"numoutlets" : 1,
					"outlettype" : [ "" ],
					"patching_rect" : [ 1119.50031956775365, 607.491487017985492, 73.0, 22.0 ],
					"text" : "loadmess 1."
				}

			}
, 			{
				"box" : 				{
					"bgcolor" : [ 0.2, 0.2, 0.2, 0.3 ],
					"id" : "obj-16",
					"maxclass" : "meter~",
					"numinlets" : 1,
					"numoutlets" : 1,
					"offcolor" : [ 0.349019607843137, 0.349019607843137, 0.349019607843137, 0.81 ],
					"oncolor" : [ 0.807843137254902, 0.898039215686275, 0.909803921568627, 1.0 ],
					"outlettype" : [ "float" ],
					"patching_rect" : [ 189.360171897882537, 1168.809846017985819, 30.485437572002411, 119.796115040779114 ],
					"presentation" : 1,
					"presentation_rect" : [ 5.370666947980681, 70.809846017985819, 30.485437572002411, 119.796115040779114 ]
				}

			}
, 			{
				"box" : 				{
					"bubble" : 1,
					"bubbleside" : 3,
					"id" : "obj-11",
					"linecount" : 2,
					"maxclass" : "comment",
					"numinlets" : 1,
					"numoutlets" : 0,
					"patching_rect" : [ 50.25, 1168.809846017985819, 62.0, 37.0 ],
					"text" : "audio output"
				}

			}
, 			{
				"box" : 				{
					"bubble" : 1,
					"bubbleside" : 3,
					"id" : "obj-10",
					"linecount" : 2,
					"maxclass" : "comment",
					"numinlets" : 1,
					"numoutlets" : 0,
					"patching_rect" : [ 66.050938608780143, 372.567992757121829, 62.0, 37.0 ],
					"text" : "audio input"
				}

			}
, 			{
				"box" : 				{
					"bgcolor" : [ 0.666666666666667, 0.690196078431373, 0.682352941176471, 0.541176470588235 ],
					"bubble" : 1,
					"bubbleside" : 3,
					"bubbleusescolors" : 1,
					"fontname" : "Ableton Sans Light",
					"id" : "obj-9",
					"linecount" : 3,
					"maxclass" : "comment",
					"numinlets" : 1,
					"numoutlets" : 0,
					"patching_rect" : [ 612.860491465635278, 114.500000000000455, 61.0, 54.0 ],
					"presentation" : 1,
					"presentation_linecount" : 2,
					"presentation_rect" : [ 11.892045449323632, 223.491487017985037, 86.0, 39.0 ],
					"text" : "loop length in bars",
					"textjustification" : 1
				}

			}
, 			{
				"box" : 				{
					"comment" : "loop length in bars",
					"id" : "obj-8",
					"index" : 0,
					"maxclass" : "inlet",
					"numinlets" : 0,
					"numoutlets" : 1,
					"outlettype" : [ "" ],
					"patching_rect" : [ 668.0, 46.754519521907241, 30.0, 30.0 ]
				}

			}
, 			{
				"box" : 				{
					"id" : "obj-4",
					"maxclass" : "newobj",
					"numinlets" : 5,
					"numoutlets" : 5,
					"outlettype" : [ "bang", "bang", "bang", "bang", "" ],
					"patching_rect" : [ 660.0, 172.991487017985946, 77.0, 22.0 ],
					"text" : "sel 32 16 8 4"
				}

			}
, 			{
				"box" : 				{
					"comment" : "one-button looper :)",
					"id" : "obj-1",
					"index" : 0,
					"maxclass" : "inlet",
					"numinlets" : 0,
					"numoutlets" : 1,
					"outlettype" : [ "" ],
					"patching_rect" : [ 338.059872424607875, 59.301002572337893, 30.0, 30.0 ]
				}

			}
, 			{
				"box" : 				{
					"id" : "obj-1035",
					"maxclass" : "message",
					"numinlets" : 2,
					"numoutlets" : 1,
					"outlettype" : [ "" ],
					"patching_rect" : [ 629.110491465635278, 210.781730178020553, 29.5, 22.0 ],
					"text" : "0"
				}

			}
, 			{
				"box" : 				{
					"id" : "obj-1033",
					"maxclass" : "message",
					"numinlets" : 2,
					"numoutlets" : 1,
					"outlettype" : [ "" ],
					"patching_rect" : [ 664.110491465635278, 210.781730178020553, 32.0, 22.0 ],
					"text" : "0.03"
				}

			}
, 			{
				"box" : 				{
					"id" : "obj-1031",
					"maxclass" : "message",
					"numinlets" : 2,
					"numoutlets" : 1,
					"outlettype" : [ "" ],
					"patching_rect" : [ 701.930705194256916, 210.781730178020553, 32.0, 22.0 ],
					"text" : "0.06"
				}

			}
, 			{
				"box" : 				{
					"id" : "obj-1029",
					"maxclass" : "message",
					"numinlets" : 2,
					"numoutlets" : 1,
					"outlettype" : [ "" ],
					"patching_rect" : [ 741.110491465635278, 210.781730178020553, 29.5, 22.0 ],
					"text" : "0.2"
				}

			}
, 			{
				"box" : 				{
					"id" : "obj-1025",
					"maxclass" : "newobj",
					"numinlets" : 1,
					"numoutlets" : 1,
					"outlettype" : [ "" ],
					"patching_rect" : [ 629.110491465635278, 258.491487017986401, 111.0, 22.0 ],
					"text" : "prepend \"Time Div\""
				}

			}
, 			{
				"box" : 				{
					"id" : "obj-1023",
					"maxclass" : "newobj",
					"numinlets" : 1,
					"numoutlets" : 3,
					"outlettype" : [ "bang", "bang", "bang" ],
					"patching_rect" : [ 338.059872424607875, 114.500000000000455, 75.0, 22.0 ],
					"text" : "button_timer"
				}

			}
, 			{
				"box" : 				{
					"id" : "obj-1020",
					"maxclass" : "newobj",
					"numinlets" : 1,
					"numoutlets" : 1,
					"outlettype" : [ "bang" ],
					"patching_rect" : [ 46.5, 161.491487017985946, 22.0, 22.0 ],
					"text" : "t b"
				}

			}
, 			{
				"box" : 				{
					"bgcolor" : [ 0.2, 0.2, 0.2, 0.31 ],
					"id" : "obj-1018",
					"maxclass" : "button",
					"numinlets" : 1,
					"numoutlets" : 1,
					"outlettype" : [ "bang" ],
					"parameter_enable" : 0,
					"patching_rect" : [ 482.059872424607875, 180.491487017986856, 24.0, 24.0 ],
					"presentation" : 1,
					"presentation_rect" : [ 116.110491465635278, 160.430940017985137, 24.0, 24.0 ]
				}

			}
, 			{
				"box" : 				{
					"bgcolor" : [ 0.666666666666667, 0.690196078431373, 0.682352941176471, 0.541176470588235 ],
					"bubble" : 1,
					"bubbleside" : 3,
					"bubbleusescolors" : 1,
					"fontname" : "Ableton Sans Light",
					"id" : "obj-1019",
					"maxclass" : "comment",
					"numinlets" : 1,
					"numoutlets" : 0,
					"patching_rect" : [ 410.110491465635278, 180.491487017986856, 78.0, 25.0 ],
					"presentation" : 1,
					"presentation_linecount" : 2,
					"presentation_rect" : [ 53.161110506662681, 152.930940017985108, 63.0, 39.0 ],
					"text" : "fade out",
					"textjustification" : 1
				}

			}
, 			{
				"box" : 				{
					"id" : "obj-1014",
					"maxclass" : "newobj",
					"numinlets" : 1,
					"numoutlets" : 1,
					"outlettype" : [ "bang" ],
					"patching_rect" : [ 366.059872424607875, 226.491487017985946, 22.0, 22.0 ],
					"text" : "t b"
				}

			}
, 			{
				"box" : 				{
					"bgcolor" : [ 0.2, 0.2, 0.2, 0.31 ],
					"id" : "obj-1015",
					"maxclass" : "button",
					"numinlets" : 1,
					"numoutlets" : 1,
					"outlettype" : [ "bang" ],
					"parameter_enable" : 0,
					"patching_rect" : [ 366.059872424607875, 180.491487017986856, 24.0, 24.0 ],
					"presentation" : 1,
					"presentation_rect" : [ 116.110491465635278, 118.870393017985251, 24.0, 24.0 ]
				}

			}
, 			{
				"box" : 				{
					"bgcolor" : [ 0.666666666666667, 0.690196078431373, 0.682352941176471, 0.541176470588235 ],
					"bubble" : 1,
					"bubbleside" : 3,
					"bubbleusescolors" : 1,
					"fontname" : "Ableton Sans Light",
					"id" : "obj-1016",
					"linecount" : 2,
					"maxclass" : "comment",
					"numinlets" : 1,
					"numoutlets" : 0,
					"patching_rect" : [ 294.110491465635278, 173.991487017986401, 79.0, 39.0 ],
					"presentation" : 1,
					"presentation_linecount" : 2,
					"presentation_rect" : [ 37.161110506662681, 111.370393017985236, 79.0, 39.0 ],
					"text" : "stop recording",
					"textjustification" : 1
				}

			}
, 			{
				"box" : 				{
					"id" : "obj-1007",
					"maxclass" : "newobj",
					"numinlets" : 1,
					"numoutlets" : 1,
					"outlettype" : [ "bang" ],
					"patching_rect" : [ 240.110491465635278, 226.491487017985946, 22.0, 22.0 ],
					"text" : "t b"
				}

			}
, 			{
				"box" : 				{
					"bgcolor" : [ 0.2, 0.2, 0.2, 0.31 ],
					"id" : "obj-1003",
					"maxclass" : "button",
					"numinlets" : 1,
					"numoutlets" : 1,
					"outlettype" : [ "bang" ],
					"parameter_enable" : 0,
					"patching_rect" : [ 240.110491465635278, 180.491487017985946, 24.0, 24.0 ],
					"presentation" : 1,
					"presentation_rect" : [ 116.110491465635278, 77.309846017985365, 24.0, 24.0 ]
				}

			}
, 			{
				"box" : 				{
					"id" : "obj-990",
					"maxclass" : "message",
					"numinlets" : 2,
					"numoutlets" : 1,
					"outlettype" : [ "" ],
					"patching_rect" : [ 475.871152337402236, 317.491487017985946, 45.0, 22.0 ],
					"text" : "1, 0 55"
				}

			}
, 			{
				"box" : 				{
					"id" : "obj-991",
					"maxclass" : "message",
					"numinlets" : 2,
					"numoutlets" : 1,
					"outlettype" : [ "" ],
					"patching_rect" : [ 402.110491465635278, 317.491487017985946, 45.0, 22.0 ],
					"text" : "0, 1 20"
				}

			}
, 			{
				"box" : 				{
					"id" : "obj-992",
					"maxclass" : "newobj",
					"numinlets" : 2,
					"numoutlets" : 2,
					"outlettype" : [ "signal", "bang" ],
					"patching_rect" : [ 402.110491465635278, 368.754519521906786, 64.0, 22.0 ],
					"text" : "line~ 0 0.1"
				}

			}
, 			{
				"box" : 				{
					"id" : "obj-987",
					"maxclass" : "message",
					"numinlets" : 2,
					"numoutlets" : 1,
					"outlettype" : [ "" ],
					"patching_rect" : [ 47.050938608780598, 199.518697674100167, 65.0, 22.0 ],
					"text" : "100, 0 500"
				}

			}
, 			{
				"box" : 				{
					"id" : "obj-985",
					"maxclass" : "message",
					"numinlets" : 2,
					"numoutlets" : 1,
					"outlettype" : [ "" ],
					"patching_rect" : [ 215.131327819747639, 317.491487017985946, 52.0, 22.0 ],
					"text" : "0, 100 5"
				}

			}
, 			{
				"box" : 				{
					"id" : "obj-973",
					"maxclass" : "newobj",
					"numinlets" : 3,
					"numoutlets" : 2,
					"outlettype" : [ "", "bang" ],
					"patching_rect" : [ 215.131327819747639, 360.491487017985946, 40.0, 22.0 ],
					"text" : "line"
				}

			}
, 			{
				"box" : 				{
					"id" : "obj-955",
					"maxclass" : "newobj",
					"numinlets" : 2,
					"numoutlets" : 1,
					"outlettype" : [ "signal" ],
					"patching_rect" : [ 162.161110506662681, 439.491487017985946, 29.5, 22.0 ],
					"text" : "*~"
				}

			}
, 			{
				"box" : 				{
					"id" : "obj-947",
					"maxclass" : "newobj",
					"numinlets" : 2,
					"numoutlets" : 1,
					"outlettype" : [ "signal" ],
					"patching_rect" : [ 129.930705194256916, 439.491487017985946, 29.5, 22.0 ],
					"text" : "*~"
				}

			}
, 			{
				"box" : 				{
					"id" : "obj-901",
					"maxclass" : "live.dial",
					"numinlets" : 1,
					"numoutlets" : 2,
					"outlettype" : [ "", "float" ],
					"parameter_enable" : 1,
					"patching_rect" : [ 910.50031956775365, 647.781730178020553, 51.059552856854452, 48.0 ],
					"presentation" : 1,
					"presentation_rect" : [ 48.430219804835133, 2.781730178020553, 51.059552856854452, 48.0 ],
					"saved_attribute_attributes" : 					{
						"valueof" : 						{
							"parameter_exponent" : 4.0,
							"parameter_longname" : "master_highpass",
							"parameter_mmax" : 1.0,
							"parameter_shortname" : "highpass",
							"parameter_type" : 0,
							"parameter_unitstyle" : 1
						}

					}
,
					"varname" : "live.dial"
				}

			}
, 			{
				"box" : 				{
					"id" : "obj-898",
					"maxclass" : "newobj",
					"numinlets" : 1,
					"numoutlets" : 1,
					"outlettype" : [ "" ],
					"patching_rect" : [ 942.559872424608329, 709.491487017985946, 120.0, 22.0 ],
					"text" : "prepend \"Master Hp\""
				}

			}
, 			{
				"box" : 				{
					"id" : "obj-895",
					"maxclass" : "live.dial",
					"numinlets" : 1,
					"numoutlets" : 2,
					"outlettype" : [ "", "float" ],
					"parameter_enable" : 1,
					"patching_rect" : [ 1119.50031956775365, 646.781730178020553, 51.059552856854452, 48.0 ],
					"presentation" : 1,
					"presentation_rect" : [ 99.489772661689585, 2.781730178020553, 51.059552856854452, 48.0 ],
					"saved_attribute_attributes" : 					{
						"valueof" : 						{
							"parameter_exponent" : 4.0,
							"parameter_longname" : "master_lowpass",
							"parameter_mmax" : 1.0,
							"parameter_shortname" : "lowpass",
							"parameter_type" : 0,
							"parameter_unitstyle" : 1
						}

					}
,
					"varname" : "live.dial[1]"
				}

			}
, 			{
				"box" : 				{
					"id" : "obj-894",
					"maxclass" : "newobj",
					"numinlets" : 1,
					"numoutlets" : 1,
					"outlettype" : [ "" ],
					"patching_rect" : [ 1151.559872424608329, 708.491487017985946, 118.0, 22.0 ],
					"text" : "prepend \"Master Lp\""
				}

			}
, 			{
				"box" : 				{
					"id" : "obj-813",
					"maxclass" : "live.dial",
					"numinlets" : 1,
					"numoutlets" : 2,
					"outlettype" : [ "", "float" ],
					"parameter_enable" : 1,
					"patching_rect" : [ 215.131327819747639, 505.781730178020553, 51.059552856854452, 48.0 ],
					"presentation" : 1,
					"presentation_rect" : [ -2.629333052019319, 2.781730178020553, 51.059552856854452, 48.0 ],
					"saved_attribute_attributes" : 					{
						"valueof" : 						{
							"parameter_longname" : "feedback",
							"parameter_mmax" : 100.0,
							"parameter_shortname" : "feedback",
							"parameter_type" : 0,
							"parameter_unitstyle" : 5
						}

					}
,
					"varname" : "live.dial[2]"
				}

			}
, 			{
				"box" : 				{
					"id" : "obj-608",
					"maxclass" : "newobj",
					"numinlets" : 1,
					"numoutlets" : 1,
					"outlettype" : [ "" ],
					"patching_rect" : [ 247.190880676602319, 567.491487017985946, 109.0, 22.0 ],
					"text" : "prepend Feedback"
				}

			}
, 			{
				"box" : 				{
					"autosave" : 1,
					"bgcolor" : [ 0.538491249084473, 0.422205001115799, 0.727462887763977, 1.0 ],
					"bgmode" : 0,
					"border" : 0,
					"clickthrough" : 0,
					"color" : [ 0.153387323021889, 0.134049296379089, 0.161194369196892, 1.0 ],
					"id" : "obj-603",
					"maxclass" : "newobj",
					"numinlets" : 2,
					"numoutlets" : 8,
					"offset" : [ 0.0, 0.0 ],
					"outlettype" : [ "signal", "signal", "", "list", "int", "", "", "" ],
					"patching_rect" : [ 122.661110506662681, 1092.12814907704842, 129.0, 22.0 ],
					"save" : [ "#N", "vst~", "loaduniqueid", 0, 2, 2, "Relayer", ";" ],
					"saved_object_attributes" : 					{
						"parameter_enable" : 0,
						"parameter_mappable" : 0,
						"prefer" : "AudioUnit"
					}
,
					"snapshot" : 					{
						"filetype" : "C74Snapshot",
						"version" : 2,
						"minorversion" : 0,
						"name" : "snapshotlist",
						"origin" : "vst~",
						"type" : "list",
						"subtype" : "Undefined",
						"embed" : 1,
						"snapshot" : 						{
							"pluginname" : "Relayer.vstinfo",
							"plugindisplayname" : "Relayer",
							"pluginsavedname" : "",
							"pluginsaveduniqueid" : 0,
							"version" : 1,
							"isbank" : 0,
							"isbase64" : 1,
							"blob" : "1607.CMlaKA....fQPMDZ....AHUYrEF.AT.A....APTYlEVcrQG..............................XvBUYURzD.....5Q...3wYeXksaaiCE889UXXLuFYwKoDk.RJPScV5fllT6zjmYrYZzTYIMZIK+8CWjtWI6LwAH3vCotmK2NhhG+q69l3yeZl42wmU76rB8ren1oOY97Ym9Vkpo4j4gymcQd4Cp7a6JLUHDFha06pJOYNyh+RWa4M4p2LEmOaYVSkA6iwR8ipt71YWY9W17YWoa00+namtV0VVahTO0RcQ4trBjb8aEats7xxlVaH8ImKAWoMgVW2mg8kljnSezYKqeyQeu1WdcYd4.9aEUcsWnZ0mUndHWu00PjzUxjqqzUZUai6INWq29fZyeb0cU41wOno3RcU6SmLON.R3rjnHG4JWrXA.mIXhXCmpwzkOOK27+FLBrgJ9d0IygPyuAhKcDym8USpWOVQGwsuUYB+esR2T1UuQund.jsqpKuQ2rXo94rM5YqJK2sPjDN6hx7sytTkmG7h549nbU1qlPFDJijRQLGntpMc3bdbfI4SHZaRwjoAhH9X5k0YOaG4B3xPfK3x8pxmsgD6sJW7Mqmx1oWl8rIpw9Bi6o1xL2XjEAHhiHAhhPTLhjHJAQoHhERPREFICizgQBwHkXjTLRKFIFiTCH0fQ8IRMfTCH0.RMfTCH0.RMfTiSpwI03jZeurrZcqptEGnsLmUXF3sKCrDqeIq32X0tRq2nxMSj8M3dUck2kPkULddyVlgH.QbDIPjo+cjHIPFyh3wdp3CojVJHHITjDy8Tl98QbHPl.RQjmxz+OBXAIRoaGmKMLCDGw3AQQgBIzywrbgABQrYcbOGkkLJMYTdZm1GfwDTRvDBlRc9PBNZHgTCH0.RMfTCH0.RMfTCH03jZbRMNo1zo8AFbZ+F0j4QSQ+hGC.riYNDenNw.HZnQwXijCTIHU5.keNwCw3yHA522YQBhDEgQpvPYXjNLTHfDBnNBIDfBAjP.JDPBAnP.IDfBwIg3nPbRnoC68DtQc+f95pZsx91ffvvzTtLxwde1V66Ur1luxFOuXJZmcCR3QoPHyQXmiChiMluBovwvOfQb.icYVfLJRjlx.GSrKv.S.IQ91HcOkYuhYSkmwt1KPvAFjj5UO0w.byav3dF6jr88AhvTNS5obIMDkDBLYOEfcHNhDHJBQwHRhnDDkNf52tYQLDgZ.nF.pAfZ.nF.pAfZ.nFbTCNpAG0X5TcOAtAyTldW3qrSy92N0VyoE7u7z+SLppe5meRjwQwi4OaWU6a7ogwwg8quVt6g9.ik+43BSCAxfA3txWz4CoVDQcdY8NUQ69rty07kIOrm6Tpk2qd5E0S1XlOzPO0v4GF2J2gf7qx4wwoxjQUNMSWo2185oYCGVqm3uyZ8AfnbG2YTSlFl6UOqW+jpRWOdbaDK8zDY+4FyJF2KGp75t1Cp8lmTMk0WWu024XIt+RGU2nSaFjDwc+Mp5AuhoAr+Ln9z65GerQ6lg3BHFD9n+8yutuUF9Pg.XIxgJ7mV0jNgRyNcvEFXpkC3sbRCkPZruANOGIWHjowtP41fMkQb.iyyARRBiLp4XbdNLixBdJ2w37bLejAo0vFQbeHvBQDCQ.h3HRfnHDEiHIhPIP+D.8S.zOAP+D.8S.zOAP+D.8S.zOAntA0OP+D.8S.zOA12OA1yOA79I9Ao+e+Df7SFUbhG.7N1Hvd1HvfMRPj4EFlEPRjcZrNvOAF6mPD66l.uiaB7ttIvgtIvgtIvG4l.uiaBruaBbnaBrmaBbnaB7ttIv64l.ejaB7gtIvG3l.eraB7ttIvgtI.5l3W9QtHCkGLO.6s.73icMYk9TLARi3rQr8KjiFQccgI9tfsrayez029j4SYex7sp9yna+h3PXnxuz155JrAhKcMDKtTuwdcDlSgDr+yoK5TstDCPsFt+.2kBrU+p4qRWpezUt+NFty7s5tGZ70Q3tRhapKMyIsY5F2wnWoJ9sYPH1d7NSGP2dixNFs3WMlHr3edP8Vdl8ixK2zsSWz1r3W28sE8h3ZT+i0rPbzCp5Y4lc4AO9ZUS+WeUnpts7h5Lma7hQWMxPP5uJmE96x4ye53E9K34+.rhjuOO"
						}
,
						"snapshotlist" : 						{
							"current_snapshot" : 0,
							"entries" : [ 								{
									"filetype" : "C74Snapshot",
									"version" : 2,
									"minorversion" : 0,
									"name" : "Relayer",
									"origin" : "Relayer.vstinfo",
									"type" : "VST",
									"subtype" : "MidiEffect",
									"embed" : 0,
									"snapshot" : 									{
										"pluginname" : "Relayer.vstinfo",
										"plugindisplayname" : "Relayer",
										"pluginsavedname" : "",
										"pluginsaveduniqueid" : 0,
										"version" : 1,
										"isbank" : 0,
										"isbase64" : 1,
										"blob" : "1607.CMlaKA....fQPMDZ....AHUYrEF.AT.A....APTYlEVcrQG..............................XvBUYURzD.....5Q...3wYeXksaaiCE889UXXLuFYwKoDk.RJPScV5fllT6zjmYrYZzTYIMZIK+8CWjtWI6LwAH3vCotmK2NhhG+q69l3yeZl42wmU76rB8ren1oOY97Ym9Vkpo4j4gymcQd4Cp7a6JLUHDFha06pJOYNyh+RWa4M4p2LEmOaYVSkA6iwR8ipt71YWY9W17YWoa00+namtV0VVahTO0RcQ4trBjb8aEats7xxlVaH8ImKAWoMgVW2mg8kljnSezYKqeyQeu1WdcYd4.9aEUcsWnZ0mUndHWu00PjzUxjqqzUZUai6INWq29fZyeb0cU41wOno3RcU6SmLON.R3rjnHG4JWrXA.mIXhXCmpwzkOOK27+FLBrgJ9d0IygPyuAhKcDym8USpWOVQGwsuUYB+esR2T1UuQund.jsqpKuQ2rXo94rM5YqJK2sPjDN6hx7sytTkmG7h549nbU1qlPFDJijRQLGntpMc3bdbfI4SHZaRwjoAhH9X5k0YOaG4B3xPfK3x8pxmsgD6sJW7Mqmx1oWl8rIpw9Bi6o1xL2XjEAHhiHAhhPTLhjHJAQoHhERPREFICizgQBwHkXjTLRKFIFiTCH0fQ8IRMfTCH0.RMfTCH0.RMfTiSpwI03jZeurrZcqptEGnsLmUXF3sKCrDqeIq32X0tRq2nxMSj8M3dUck2kPkULddyVlgH.QbDIPjo+cjHIPFyh3wdp3CojVJHHITjDy8Tl98QbHPl.RQjmxz+OBXAIRoaGmKMLCDGw3AQQgBIzywrbgABQrYcbOGkkLJMYTdZm1GfwDTRvDBlRc9PBNZHgTCH0.RMfTCH0.RMfTCH03jZbRMNo1zo8AFbZ+F0j4QSQ+hGC.riYNDenNw.HZnQwXijCTIHU5.keNwCw3yHA522YQBhDEgQpvPYXjNLTHfDBnNBIDfBAjP.JDPBAnP.IDfBwIg3nPbRnoC68DtQc+f95pZsx91ffvvzTtLxwde1V66Ur1luxFOuXJZmcCR3QoPHyQXmiChiMluBovwvOfQb.icYVfLJRjlx.GSrKv.S.IQ91HcOkYuhYSkmwt1KPvAFjj5UO0w.byav3dF6jr88AhvTNS5obIMDkDBLYOEfcHNhDHJBQwHRhnDDkNf52tYQLDgZ.nF.pAfZ.nF.pAfZ.nFbTCNpAG0X5TcOAtAyTldW3qrSy92N0VyoE7u7z+SLppe5meRjwQwi4OaWU6a7ogwwg8quVt6g9.ik+43BSCAxfA3txWz4CoVDQcdY8NUQ69rty07kIOrm6Tpk2qd5E0S1XlOzPO0v4GF2J2gf7qx4wwoxjQUNMSWo2185oYCGVqm3uyZ8AfnbG2YTSlFl6UOqW+jpRWOdbaDK8zDY+4FyJF2KGp75t1Cp8lmTMk0WWu024XIt+RGU2nSaFjDwc+Mp5AuhoAr+Ln9z65GerQ6lg3BHFD9n+8yutuUF9Pg.XIxgJ7mV0jNgRyNcvEFXpkC3sbRCkPZruANOGIWHjowtP41fMkQb.iyyARRBiLp4XbdNLixBdJ2w37bLejAo0vFQbeHvBQDCQ.h3HRfnHDEiHIhPIP+D.8S.zOAP+D.8S.zOAP+D.8S.zOAntA0OP+D.8S.zOA12OA1yOA79I9Ao+e+Df7SFUbhG.7N1Hvd1HvfMRPj4EFlEPRjcZrNvOAF6mPD66l.uiaB7ttIvgtIvgtIvG4l.uiaBruaBbnaBrmaBbnaB7ttIv64l.ejaB7gtIvG3l.eraB7ttIvgtI.5l3W9QtHCkGLO.6s.73icMYk9TLARi3rQr8KjiFQccgI9tfsrayez029j4SYex7sp9yna+h3PXnxuz155JrAhKcMDKtTuwdcDlSgDr+yoK5TstDCPsFt+.2kBrU+p4qRWpezUt+NFty7s5tGZ70Q3tRhapKMyIsY5F2wnWoJ9sYPH1d7NSGP2dixNFs3WMlHr3edP8Vdl8ixK2zsSWz1r3W28sE8h3ZT+i0rPbzCp5Y4lc4AO9ZUS+WeUnpts7h5Lma7hQWMxPP5uJmE96x4ye53E9K34+.rhjuOO"
									}
,
									"fileref" : 									{
										"name" : "Relayer",
										"filename" : "Relayer_20221022.maxsnap",
										"filepath" : "~/Music/_repo/sousastep/Sousastep Audio FX/data",
										"filepos" : -1,
										"snapshotfileid" : "9372c2ca4e771da7f849f7bdd08841da"
									}

								}
 ]
						}

					}
,
					"text" : "audiounit~ 2 2 Relayer",
					"textcolor" : [ 0.0, 0.0, 0.0, 1.0 ],
					"viewvisibility" : 0
				}

			}
, 			{
				"box" : 				{
					"bubble" : 1,
					"bubbleside" : 0,
					"id" : "obj-999",
					"linecount" : 2,
					"maxclass" : "comment",
					"numinlets" : 1,
					"numoutlets" : 0,
					"patching_rect" : [ 57.050938608780143, 210.781730178020553, 59.0, 52.0 ],
					"text" : "disable feedback"
				}

			}
, 			{
				"box" : 				{
					"bubble" : 1,
					"bubbleside" : 3,
					"id" : "obj-998",
					"linecount" : 2,
					"maxclass" : "comment",
					"numinlets" : 1,
					"numoutlets" : 0,
					"patching_rect" : [ 147.161110506662681, 309.991487017985492, 80.0, 37.0 ],
					"text" : "enable feedback"
				}

			}
, 			{
				"box" : 				{
					"bubble" : 1,
					"id" : "obj-1000",
					"linecount" : 2,
					"maxclass" : "comment",
					"numinlets" : 1,
					"numoutlets" : 0,
					"patching_rect" : [ 514.871152337401782, 309.991487017985492, 57.059552856855134, 37.0 ],
					"text" : "close send",
					"textjustification" : 1
				}

			}
, 			{
				"box" : 				{
					"bubble" : 1,
					"bubbleside" : 3,
					"id" : "obj-1001",
					"linecount" : 2,
					"maxclass" : "comment",
					"numinlets" : 1,
					"numoutlets" : 0,
					"patching_rect" : [ 352.161110506662681, 309.991487017985492, 59.0, 37.0 ],
					"text" : "open send"
				}

			}
, 			{
				"box" : 				{
					"bgcolor" : [ 0.666666666666667, 0.690196078431373, 0.682352941176471, 0.541176470588235 ],
					"bubble" : 1,
					"bubbleside" : 3,
					"bubbleusescolors" : 1,
					"fontname" : "Ableton Sans Light",
					"id" : "obj-1008",
					"linecount" : 2,
					"maxclass" : "comment",
					"numinlets" : 1,
					"numoutlets" : 0,
					"patching_rect" : [ 168.161110506662681, 173.991487017986401, 79.0, 39.0 ],
					"presentation" : 1,
					"presentation_linecount" : 2,
					"presentation_rect" : [ 37.161110506662681, 69.809846017985365, 79.0, 39.0 ],
					"text" : "start recording",
					"textjustification" : 1
				}

			}
, 			{
				"box" : 				{
					"bubble" : 1,
					"bubbleside" : 3,
					"id" : "obj-1021",
					"linecount" : 2,
					"maxclass" : "comment",
					"numinlets" : 1,
					"numoutlets" : 0,
					"patching_rect" : [ 81.050938608780143, 431.991487017985492, 62.0, 37.0 ],
					"text" : "looper send"
				}

			}
, 			{
				"box" : 				{
					"bubble" : 1,
					"bubbleside" : 3,
					"id" : "obj-1024",
					"linecount" : 3,
					"maxclass" : "comment",
					"numinlets" : 1,
					"numoutlets" : 0,
					"patching_rect" : [ 168.161110506662681, 48.801002572337893, 175.0, 51.0 ],
					"text" : "single click - start recording\ndouble click - stop recording\nhold - stop playing"
				}

			}
, 			{
				"box" : 				{
					"comment" : "Left audio input",
					"id" : "obj-1036",
					"index" : 0,
					"maxclass" : "inlet",
					"numinlets" : 0,
					"numoutlets" : 1,
					"outlettype" : [ "" ],
					"patching_rect" : [ 130.050938608780143, 376.067992757121829, 30.0, 30.0 ]
				}

			}
, 			{
				"box" : 				{
					"comment" : "Right audio input",
					"id" : "obj-1037",
					"index" : 0,
					"maxclass" : "inlet",
					"numinlets" : 0,
					"numoutlets" : 1,
					"outlettype" : [ "" ],
					"patching_rect" : [ 162.281407608780228, 376.067992757121829, 30.0, 30.0 ]
				}

			}
, 			{
				"box" : 				{
					"comment" : "",
					"id" : "obj-1038",
					"index" : 0,
					"maxclass" : "outlet",
					"numinlets" : 1,
					"numoutlets" : 0,
					"patching_rect" : [ 114.25, 1168.809846017985819, 30.0, 30.0 ]
				}

			}
, 			{
				"box" : 				{
					"comment" : "",
					"id" : "obj-1039",
					"index" : 0,
					"maxclass" : "outlet",
					"numinlets" : 1,
					"numoutlets" : 0,
					"patching_rect" : [ 145.678531469598738, 1168.809846017985819, 30.0, 30.0 ]
				}

			}
, 			{
				"box" : 				{
					"angle" : 118.584720323800468,
					"grad1" : [ 0.317009210586548, 0.649242401123047, 0.164529159665108, 0.8 ],
					"grad2" : [ 0.204072818160057, 0.600701093673706, 0.832885324954987, 0.8 ],
					"id" : "obj-23",
					"maxclass" : "panel",
					"mode" : 1,
					"numinlets" : 1,
					"numoutlets" : 0,
					"patching_rect" : [ 11.0, 12.0, 126.0, 350.0 ],
					"presentation" : 1,
					"presentation_rect" : [ 0.0, 0.0, 153.370666947980681, 268.0 ],
					"proportion" : 0.5,
					"pt1" : [ 0.934343434343434, 0.919191919191919 ],
					"pt2" : [ 0.505050505050505, 0.131313131313131 ],
					"rounded" : 0
				}

			}
 ],
		"lines" : [ 			{
				"patchline" : 				{
					"destination" : [ "obj-1023", 0 ],
					"source" : [ "obj-1", 0 ]
				}

			}
, 			{
				"patchline" : 				{
					"destination" : [ "obj-1007", 0 ],
					"source" : [ "obj-1003", 0 ]
				}

			}
, 			{
				"patchline" : 				{
					"destination" : [ "obj-25", 0 ],
					"midpoints" : [ 249.610491465635278, 294.0, 603.0, 294.0, 603.0, 531.0, 696.500319567753195, 531.0 ],
					"order" : 2,
					"source" : [ "obj-1007", 0 ]
				}

			}
, 			{
				"patchline" : 				{
					"destination" : [ "obj-44", 0 ],
					"midpoints" : [ 249.610491465635278, 294.0, 603.0, 294.0, 603.0, 483.0, 873.0, 483.0, 873.0, 520.0, 915.0, 520.0, 915.0, 531.0, 955.500319567753195, 531.0 ],
					"order" : 1,
					"source" : [ "obj-1007", 0 ]
				}

			}
, 			{
				"patchline" : 				{
					"destination" : [ "obj-54", 0 ],
					"midpoints" : [ 249.610491465635278, 294.0, 603.0, 294.0, 603.0, 435.0, 1122.0, 435.0, 1122.0, 498.0, 1204.890147669871567, 498.0 ],
					"order" : 0,
					"source" : [ "obj-1007", 0 ]
				}

			}
, 			{
				"patchline" : 				{
					"destination" : [ "obj-985", 0 ],
					"order" : 4,
					"source" : [ "obj-1007", 0 ]
				}

			}
, 			{
				"patchline" : 				{
					"destination" : [ "obj-991", 0 ],
					"order" : 3,
					"source" : [ "obj-1007", 0 ]
				}

			}
, 			{
				"patchline" : 				{
					"destination" : [ "obj-990", 0 ],
					"source" : [ "obj-1014", 0 ]
				}

			}
, 			{
				"patchline" : 				{
					"destination" : [ "obj-1014", 0 ],
					"source" : [ "obj-1015", 0 ]
				}

			}
, 			{
				"patchline" : 				{
					"destination" : [ "obj-62", 0 ],
					"source" : [ "obj-1018", 0 ]
				}

			}
, 			{
				"patchline" : 				{
					"destination" : [ "obj-987", 0 ],
					"source" : [ "obj-1020", 0 ]
				}

			}
, 			{
				"patchline" : 				{
					"destination" : [ "obj-1003", 0 ],
					"source" : [ "obj-1023", 0 ]
				}

			}
, 			{
				"patchline" : 				{
					"destination" : [ "obj-1015", 0 ],
					"source" : [ "obj-1023", 1 ]
				}

			}
, 			{
				"patchline" : 				{
					"destination" : [ "obj-1018", 0 ],
					"source" : [ "obj-1023", 2 ]
				}

			}
, 			{
				"patchline" : 				{
					"destination" : [ "obj-603", 0 ],
					"source" : [ "obj-1025", 0 ]
				}

			}
, 			{
				"patchline" : 				{
					"destination" : [ "obj-1025", 0 ],
					"source" : [ "obj-1029", 0 ]
				}

			}
, 			{
				"patchline" : 				{
					"destination" : [ "obj-1025", 0 ],
					"source" : [ "obj-1031", 0 ]
				}

			}
, 			{
				"patchline" : 				{
					"destination" : [ "obj-1025", 0 ],
					"source" : [ "obj-1033", 0 ]
				}

			}
, 			{
				"patchline" : 				{
					"destination" : [ "obj-1025", 0 ],
					"source" : [ "obj-1035", 0 ]
				}

			}
, 			{
				"patchline" : 				{
					"destination" : [ "obj-947", 0 ],
					"source" : [ "obj-1036", 0 ]
				}

			}
, 			{
				"patchline" : 				{
					"destination" : [ "obj-955", 0 ],
					"source" : [ "obj-1037", 0 ]
				}

			}
, 			{
				"patchline" : 				{
					"destination" : [ "obj-1051", 0 ],
					"source" : [ "obj-1050", 0 ]
				}

			}
, 			{
				"patchline" : 				{
					"destination" : [ "obj-1075", 0 ],
					"source" : [ "obj-1051", 0 ]
				}

			}
, 			{
				"patchline" : 				{
					"destination" : [ "obj-40", 0 ],
					"source" : [ "obj-1059", 0 ]
				}

			}
, 			{
				"patchline" : 				{
					"destination" : [ "obj-1074", 0 ],
					"source" : [ "obj-1063", 0 ]
				}

			}
, 			{
				"patchline" : 				{
					"destination" : [ "obj-1074", 0 ],
					"source" : [ "obj-1067", 0 ]
				}

			}
, 			{
				"patchline" : 				{
					"destination" : [ "obj-1059", 0 ],
					"source" : [ "obj-1074", 0 ]
				}

			}
, 			{
				"patchline" : 				{
					"destination" : [ "obj-1074", 1 ],
					"order" : 2,
					"source" : [ "obj-1075", 0 ]
				}

			}
, 			{
				"patchline" : 				{
					"destination" : [ "obj-45", 1 ],
					"order" : 1,
					"source" : [ "obj-1075", 0 ]
				}

			}
, 			{
				"patchline" : 				{
					"destination" : [ "obj-55", 1 ],
					"order" : 0,
					"source" : [ "obj-1075", 0 ]
				}

			}
, 			{
				"patchline" : 				{
					"destination" : [ "obj-895", 0 ],
					"source" : [ "obj-17", 0 ]
				}

			}
, 			{
				"patchline" : 				{
					"destination" : [ "obj-901", 0 ],
					"source" : [ "obj-18", 0 ]
				}

			}
, 			{
				"patchline" : 				{
					"destination" : [ "obj-1075", 1 ],
					"order" : 0,
					"source" : [ "obj-19", 1 ]
				}

			}
, 			{
				"patchline" : 				{
					"destination" : [ "obj-4", 0 ],
					"order" : 1,
					"source" : [ "obj-19", 1 ]
				}

			}
, 			{
				"patchline" : 				{
					"destination" : [ "obj-19", 0 ],
					"source" : [ "obj-20", 0 ]
				}

			}
, 			{
				"patchline" : 				{
					"destination" : [ "obj-26", 0 ],
					"source" : [ "obj-24", 0 ]
				}

			}
, 			{
				"patchline" : 				{
					"destination" : [ "obj-1059", 0 ],
					"source" : [ "obj-25", 0 ]
				}

			}
, 			{
				"patchline" : 				{
					"destination" : [ "obj-1051", 0 ],
					"source" : [ "obj-36", 0 ]
				}

			}
, 			{
				"patchline" : 				{
					"destination" : [ "obj-603", 0 ],
					"source" : [ "obj-38", 0 ]
				}

			}
, 			{
				"patchline" : 				{
					"destination" : [ "obj-1029", 0 ],
					"source" : [ "obj-4", 3 ]
				}

			}
, 			{
				"patchline" : 				{
					"destination" : [ "obj-1031", 0 ],
					"source" : [ "obj-4", 2 ]
				}

			}
, 			{
				"patchline" : 				{
					"destination" : [ "obj-1033", 0 ],
					"source" : [ "obj-4", 1 ]
				}

			}
, 			{
				"patchline" : 				{
					"destination" : [ "obj-1035", 0 ],
					"source" : [ "obj-4", 0 ]
				}

			}
, 			{
				"patchline" : 				{
					"destination" : [ "obj-603", 0 ],
					"source" : [ "obj-40", 0 ]
				}

			}
, 			{
				"patchline" : 				{
					"destination" : [ "obj-48", 0 ],
					"source" : [ "obj-44", 0 ]
				}

			}
, 			{
				"patchline" : 				{
					"destination" : [ "obj-48", 0 ],
					"source" : [ "obj-45", 0 ]
				}

			}
, 			{
				"patchline" : 				{
					"destination" : [ "obj-45", 0 ],
					"source" : [ "obj-46", 0 ]
				}

			}
, 			{
				"patchline" : 				{
					"destination" : [ "obj-45", 0 ],
					"source" : [ "obj-47", 0 ]
				}

			}
, 			{
				"patchline" : 				{
					"destination" : [ "obj-901", 0 ],
					"source" : [ "obj-48", 0 ]
				}

			}
, 			{
				"patchline" : 				{
					"destination" : [ "obj-58", 0 ],
					"source" : [ "obj-54", 0 ]
				}

			}
, 			{
				"patchline" : 				{
					"destination" : [ "obj-58", 0 ],
					"source" : [ "obj-55", 0 ]
				}

			}
, 			{
				"patchline" : 				{
					"destination" : [ "obj-55", 0 ],
					"source" : [ "obj-56", 0 ]
				}

			}
, 			{
				"patchline" : 				{
					"destination" : [ "obj-55", 0 ],
					"source" : [ "obj-57", 0 ]
				}

			}
, 			{
				"patchline" : 				{
					"destination" : [ "obj-895", 0 ],
					"source" : [ "obj-58", 0 ]
				}

			}
, 			{
				"patchline" : 				{
					"destination" : [ "obj-61", 0 ],
					"source" : [ "obj-60", 0 ]
				}

			}
, 			{
				"patchline" : 				{
					"destination" : [ "obj-1038", 0 ],
					"source" : [ "obj-603", 0 ]
				}

			}
, 			{
				"patchline" : 				{
					"destination" : [ "obj-1039", 0 ],
					"order" : 1,
					"source" : [ "obj-603", 1 ]
				}

			}
, 			{
				"patchline" : 				{
					"destination" : [ "obj-16", 0 ],
					"order" : 0,
					"source" : [ "obj-603", 1 ]
				}

			}
, 			{
				"patchline" : 				{
					"destination" : [ "obj-39", 0 ],
					"source" : [ "obj-603", 2 ]
				}

			}
, 			{
				"patchline" : 				{
					"destination" : [ "obj-603", 0 ],
					"source" : [ "obj-608", 0 ]
				}

			}
, 			{
				"patchline" : 				{
					"destination" : [ "obj-1020", 0 ],
					"source" : [ "obj-61", 0 ]
				}

			}
, 			{
				"patchline" : 				{
					"destination" : [ "obj-70", 1 ],
					"source" : [ "obj-62", 0 ]
				}

			}
, 			{
				"patchline" : 				{
					"destination" : [ "obj-1063", 0 ],
					"source" : [ "obj-70", 0 ]
				}

			}
, 			{
				"patchline" : 				{
					"destination" : [ "obj-46", 0 ],
					"source" : [ "obj-70", 1 ]
				}

			}
, 			{
				"patchline" : 				{
					"destination" : [ "obj-57", 0 ],
					"source" : [ "obj-70", 2 ]
				}

			}
, 			{
				"patchline" : 				{
					"destination" : [ "obj-74", 0 ],
					"source" : [ "obj-71", 0 ]
				}

			}
, 			{
				"patchline" : 				{
					"destination" : [ "obj-70", 0 ],
					"source" : [ "obj-74", 0 ]
				}

			}
, 			{
				"patchline" : 				{
					"destination" : [ "obj-71", 0 ],
					"source" : [ "obj-75", 0 ]
				}

			}
, 			{
				"patchline" : 				{
					"destination" : [ "obj-75", 0 ],
					"source" : [ "obj-76", 0 ]
				}

			}
, 			{
				"patchline" : 				{
					"destination" : [ "obj-20", 0 ],
					"source" : [ "obj-8", 0 ]
				}

			}
, 			{
				"patchline" : 				{
					"destination" : [ "obj-608", 0 ],
					"source" : [ "obj-813", 1 ]
				}

			}
, 			{
				"patchline" : 				{
					"destination" : [ "obj-603", 0 ],
					"source" : [ "obj-894", 0 ]
				}

			}
, 			{
				"patchline" : 				{
					"destination" : [ "obj-894", 0 ],
					"source" : [ "obj-895", 1 ]
				}

			}
, 			{
				"patchline" : 				{
					"destination" : [ "obj-603", 0 ],
					"source" : [ "obj-898", 0 ]
				}

			}
, 			{
				"patchline" : 				{
					"destination" : [ "obj-898", 0 ],
					"source" : [ "obj-901", 1 ]
				}

			}
, 			{
				"patchline" : 				{
					"destination" : [ "obj-603", 0 ],
					"source" : [ "obj-947", 0 ]
				}

			}
, 			{
				"patchline" : 				{
					"destination" : [ "obj-603", 1 ],
					"source" : [ "obj-955", 0 ]
				}

			}
, 			{
				"patchline" : 				{
					"destination" : [ "obj-813", 0 ],
					"source" : [ "obj-973", 0 ]
				}

			}
, 			{
				"patchline" : 				{
					"destination" : [ "obj-973", 0 ],
					"source" : [ "obj-985", 0 ]
				}

			}
, 			{
				"patchline" : 				{
					"destination" : [ "obj-973", 0 ],
					"source" : [ "obj-987", 0 ]
				}

			}
, 			{
				"patchline" : 				{
					"destination" : [ "obj-24", 0 ],
					"order" : 0,
					"source" : [ "obj-990", 0 ]
				}

			}
, 			{
				"patchline" : 				{
					"destination" : [ "obj-992", 0 ],
					"order" : 1,
					"source" : [ "obj-990", 0 ]
				}

			}
, 			{
				"patchline" : 				{
					"destination" : [ "obj-24", 0 ],
					"order" : 0,
					"source" : [ "obj-991", 0 ]
				}

			}
, 			{
				"patchline" : 				{
					"destination" : [ "obj-992", 0 ],
					"order" : 1,
					"source" : [ "obj-991", 0 ]
				}

			}
, 			{
				"patchline" : 				{
					"destination" : [ "obj-947", 1 ],
					"order" : 1,
					"source" : [ "obj-992", 0 ]
				}

			}
, 			{
				"patchline" : 				{
					"destination" : [ "obj-955", 1 ],
					"order" : 0,
					"source" : [ "obj-992", 0 ]
				}

			}
 ],
		"parameters" : 		{
			"obj-1023::obj-62" : [ "number[15]", "number[3]", 0 ],
			"obj-1023::obj-64" : [ "number[16]", "number[4]", 0 ],
			"obj-813" : [ "feedback", "feedback", 0 ],
			"obj-895" : [ "master_lowpass", "lowpass", 0 ],
			"obj-901" : [ "master_highpass", "highpass", 0 ],
			"parameterbanks" : 			{
				"0" : 				{
					"index" : 0,
					"name" : "",
					"parameters" : [ "-", "-", "-", "-", "-", "-", "-", "-" ]
				}

			}
,
			"inherited_shortname" : 1
		}
,
		"dependency_cache" : [ 			{
				"name" : "Relayer_20221022.maxsnap",
				"bootpath" : "~/Music/_repo/sousastep/Sousastep Audio FX/data",
				"patcherrelativepath" : "../data",
				"type" : "mx@s",
				"implicit" : 1
			}
, 			{
				"name" : "button_timer.maxpat",
				"bootpath" : "~/Music/_repo/sousastep/Sousastep Audio FX/patchers",
				"patcherrelativepath" : ".",
				"type" : "JSON",
				"implicit" : 1
			}
 ],
		"autosave" : 0
	}

}
