{
	"patcher" : 	{
		"fileversion" : 1,
		"appversion" : 		{
			"major" : 8,
			"minor" : 5,
			"revision" : 3,
			"architecture" : "x64",
			"modernui" : 1
		}
,
		"classnamespace" : "box",
		"rect" : [ -201.0, -993.0, 1852.0, 959.0 ],
		"bglocked" : 0,
		"openinpresentation" : 1,
		"default_fontsize" : 12.0,
		"default_fontface" : 0,
		"default_fontname" : "Arial",
		"gridonopen" : 1,
		"gridsize" : [ 15.0, 15.0 ],
		"gridsnaponopen" : 1,
		"objectsnaponopen" : 1,
		"statusbarvisible" : 2,
		"toolbarvisible" : 1,
		"lefttoolbarpinned" : 0,
		"toptoolbarpinned" : 0,
		"righttoolbarpinned" : 0,
		"bottomtoolbarpinned" : 0,
		"toolbars_unpinned_last_save" : 0,
		"tallnewobj" : 0,
		"boxanimatetime" : 200,
		"enablehscroll" : 1,
		"enablevscroll" : 1,
		"devicewidth" : 0.0,
		"description" : "",
		"digest" : "",
		"tags" : "",
		"style" : "",
		"subpatcher_template" : "",
		"assistshowspatchername" : 0,
		"boxes" : [ 			{
				"box" : 				{
					"id" : "obj-10",
					"maxclass" : "newobj",
					"numinlets" : 2,
					"numoutlets" : 1,
					"outlettype" : [ "signal" ],
					"patching_rect" : [ 1389.477499232784339, 579.685347274049946, 29.5, 22.0 ],
					"text" : "+~"
				}

			}
, 			{
				"box" : 				{
					"id" : "obj-17",
					"maxclass" : "newobj",
					"numinlets" : 2,
					"numoutlets" : 1,
					"outlettype" : [ "signal" ],
					"patching_rect" : [ 1432.454998465568679, 579.685347274049946, 29.5, 22.0 ],
					"text" : "+~"
				}

			}
, 			{
				"box" : 				{
					"fontname" : "Silom",
					"id" : "obj-9",
					"maxclass" : "newobj",
					"numinlets" : 1,
					"numoutlets" : 3,
					"outlettype" : [ "", "", "" ],
					"patching_rect" : [ 617.5, 1053.484994248891326, 164.0, 24.0 ],
					"restore" : [ -9.0 ],
					"saved_object_attributes" : 					{
						"parameter_enable" : 0,
						"parameter_mappable" : 0
					}
,
					"text" : "pattr very_low_volume",
					"varname" : "very_low_volume"
				}

			}
, 			{
				"box" : 				{
					"fontname" : "Silom",
					"id" : "obj-3",
					"maxclass" : "newobj",
					"numinlets" : 1,
					"numoutlets" : 3,
					"outlettype" : [ "", "", "" ],
					"patching_rect" : [ 760.5, 1079.484994248891326, 126.0, 24.0 ],
					"restore" : [ -9.0 ],
					"saved_object_attributes" : 					{
						"parameter_enable" : 0,
						"parameter_mappable" : 0
					}
,
					"text" : "pattr low_volume",
					"varname" : "low_volume"
				}

			}
, 			{
				"box" : 				{
					"id" : "obj-8",
					"lastchannelcount" : 0,
					"maxclass" : "live.gain~",
					"numinlets" : 2,
					"numoutlets" : 5,
					"outlettype" : [ "signal", "signal", "", "float", "list" ],
					"parameter_enable" : 1,
					"patching_rect" : [ 923.605790779372796, 1139.484994248891326, 48.0, 136.0 ],
					"presentation" : 1,
					"presentation_rect" : [ 375.605790779372796, 431.392208389259395, 48.0, 84.0 ],
					"saved_attribute_attributes" : 					{
						"valueof" : 						{
							"parameter_longname" : "low vol",
							"parameter_mmax" : 6.0,
							"parameter_mmin" : -70.0,
							"parameter_shortname" : "low vol",
							"parameter_type" : 0,
							"parameter_unitstyle" : 4
						}

					}
,
					"varname" : "lowvol"
				}

			}
, 			{
				"box" : 				{
					"id" : "obj-4",
					"lastchannelcount" : 0,
					"maxclass" : "live.gain~",
					"numinlets" : 2,
					"numoutlets" : 5,
					"outlettype" : [ "signal", "signal", "", "float", "list" ],
					"parameter_enable" : 1,
					"patching_rect" : [ 535.25, 1139.484994248891326, 48.0, 136.0 ],
					"presentation" : 1,
					"presentation_rect" : [ 325.60579077937291, 431.392208389259395, 48.0, 84.0 ],
					"saved_attribute_attributes" : 					{
						"valueof" : 						{
							"parameter_longname" : "v low vol",
							"parameter_mmax" : 6.0,
							"parameter_mmin" : -70.0,
							"parameter_shortname" : "v low vol",
							"parameter_type" : 0,
							"parameter_unitstyle" : 4
						}

					}
,
					"varname" : "verylowvol"
				}

			}
, 			{
				"box" : 				{
					"fontname" : "Silom",
					"id" : "obj-48",
					"maxclass" : "newobj",
					"numinlets" : 1,
					"numoutlets" : 3,
					"outlettype" : [ "", "", "" ],
					"patching_rect" : [ 1048.5, 1139.484994248891326, 130.0, 24.0 ],
					"restore" : [ -4.0 ],
					"saved_object_attributes" : 					{
						"parameter_enable" : 0,
						"parameter_mappable" : 0
					}
,
					"text" : "pattr high_volume",
					"varname" : "high_volume"
				}

			}
, 			{
				"box" : 				{
					"fontname" : "Silom",
					"id" : "obj-16",
					"maxclass" : "newobj",
					"numinlets" : 1,
					"numoutlets" : 3,
					"outlettype" : [ "", "", "" ],
					"patching_rect" : [ 1672.869518973499908, 874.809075306784848, 83.0, 24.0 ],
					"restore" : [ 						{
							"filetype" : "C74Snapshot",
							"version" : 2,
							"minorversion" : 0,
							"name" : "Color_Limiter.amxd",
							"origin" : "Color_Limiter.amxd",
							"type" : "amxd",
							"subtype" : "Undefined",
							"embed" : 1,
							"snapshot" : 							{
								"name" : "Color_Limiter.amxd",
								"origname" : "~/Music/_repo/sousastep/Sousastep Audio FX/patchers/Color_Limiter.amxd",
								"valuedictionary" : 								{
									"parameter_values" : 									{
										"Ceiling" : -4.0,
										"Lookahead" : 0.0,
										"Loudness" : 0.0,
										"Release" : 1039.161649214701811,
										"Saturation" : 0.0,
										"Saturation Color" : 0.5
									}

								}

							}

						}
 ],
					"saved_object_attributes" : 					{
						"parameter_enable" : 0,
						"parameter_mappable" : 0
					}
,
					"text" : "pattr limit2",
					"varname" : "limit2"
				}

			}
, 			{
				"box" : 				{
					"fontname" : "Silom",
					"id" : "obj-15",
					"maxclass" : "newobj",
					"numinlets" : 1,
					"numoutlets" : 3,
					"outlettype" : [ "", "", "" ],
					"patching_rect" : [ 1093.60577589996501, 901.809075306784962, 83.0, 24.0 ],
					"restore" : [ 						{
							"filetype" : "C74Snapshot",
							"version" : 2,
							"minorversion" : 0,
							"name" : "Color_Limiter.amxd",
							"origin" : "Color_Limiter.amxd",
							"type" : "amxd",
							"subtype" : "Undefined",
							"embed" : 1,
							"snapshot" : 							{
								"name" : "Color_Limiter.amxd",
								"origname" : "~/Music/_repo/sousastep/Sousastep Audio FX/patchers/Color_Limiter.amxd",
								"valuedictionary" : 								{
									"parameter_values" : 									{
										"Ceiling" : -4.0,
										"Lookahead" : 0.0,
										"Loudness" : 0.0,
										"Release" : 1039.161649214701811,
										"Saturation" : 0.0,
										"Saturation Color" : 0.5
									}

								}

							}

						}
 ],
					"saved_object_attributes" : 					{
						"parameter_enable" : 0,
						"parameter_mappable" : 0
					}
,
					"text" : "pattr limit1",
					"varname" : "limit1"
				}

			}
, 			{
				"box" : 				{
					"fontname" : "Silom",
					"id" : "obj-13",
					"maxclass" : "newobj",
					"numinlets" : 1,
					"numoutlets" : 3,
					"outlettype" : [ "", "", "" ],
					"patching_rect" : [ 1689.477499232784339, 590.531730885730326, 89.0, 24.0 ],
					"restore" : [ 						{
							"filetype" : "C74Snapshot",
							"version" : 2,
							"minorversion" : 0,
							"name" : "Comp TUBE-STA",
							"origin" : "Comp TUBE-STA.auinfo",
							"type" : "AudioUnit",
							"subtype" : "MidiEffect",
							"embed" : 1,
							"snapshot" : 							{
								"pluginname" : "Comp TUBE-STA.auinfo",
								"plugindisplayname" : "Comp TUBE-STA",
								"pluginsavedname" : "",
								"pluginsaveduniqueid" : 1414747201,
								"version" : 1,
								"isbank" : 0,
								"isbase64" : 1,
								"blob" : "2296.hAGaoMGcv.C1AHv.DTfAGfPBJr.EUXwEXvUag4VclE1XzUmbkIGUjEFcgwUYrUVak4Fcs3VXsU1WP.wPu4Fcx8FarUlbfLEcgQWYWMWchQWdvU1U1Ulbyk1atQEc4AWYT4VXsUlDAIGc08TDAvA..............HB...P.+.H......H..........C..........A9z+72B...TvO.B......F7Cf......vA+.H......f..........I7C.......fB+........r..........L.........PC+........3vO........O7Cf.......D.........DA.........h7C.......vH+........PxO........k7C.......fI+........bxO........n7C.......PJ+........nxO........q7C........K+........zB.........t.........vK..........C.........w.........fL.....HMCM3fDQESTxH8CL.QDQASVSQWYxU1afjjaYMUZjU1XnEVZtE8CSn0TzUlbk8FHOUGcOEgAQKiLfLWYxkVXrkldgQWZu4lN5DlbigVZ1UFHw.CHv.xMf.CH2.xMfPTYlEVcrQGH1.xTzUlbk8FHzDCH2.RPxQWcxkVXf.CHf.CHv.BLf.CHw.BLf.CHfDiMwjiMwLSM1XCHw.CHw3RMt.iKz.iMw.BLf.CHv.BLf.CHv.BLf.CHf.CHv.xLf.CHv.BLfDiMf7jbocVZtEFaPE1Xq4TXsUFH1.xTzUlbk8FHwfCHOIWZmklagwFTxU1bkQmSg0VYfbCHDUlYgUGazABMfPUdvUFH3.BUk0FbrEFckABLf.CHv.xMf.CHv.BLf.CHv.BLfHyLf.CHv.BLfXCHBkGbgM2bf.CH4.BQxkGHu.xUkQGHw.RLy.RQtElXrUFHEYlYkMFcfDCHwDCHEgGckImagwFHSMDHv.RL1.RQ3QWYx4VXrAxTCAxQgklaf.iK0.RLz.BRocFZrk1YnQGHM8FYkARLfDCLfjjavUGcfbTXo4FHv.RL2.RRtAWcz8xS0QGb0QGHLklaqARLfDiLfzTRDkDHCgVXt4VYrABLfDSLf7TczAWczAxQgklafDCHwHCHRUFakE1bkARSuQVYf.CHwHCHRUFakE1bkABUo0VYf.iKzjiMv.CLvHCHwbCHSMDHDUFckMFco8lafzzajUFHv3RMfDSMfL0PfTTTfHTYrwFHFIWYwABLtTCHwTCHSMDHEEEHBUFarAxQgklaf.iK0.RLy.xTCARQQABRPAhQxUVbf.CHwPCHSMDHEEEHHAkQfXjbkEGHv.RLx.xTCARQQABRPYDHO4FHv.RLy.xTCARQQABSPAhQxUVbfDCHwPCHSMDHEEEHLAkQfXjbkEGHw.RLx.xTCARQQABSPYDHO4FHv.BNfL0PfTTTf7jaf.CHw.CHVElboEFco8layABLfPiLf.CHwfCHMkFYoMzatQmbuwFakImSg0VYfLiLf...........................................fDCMf70WHc0WMEFbvUFYe8ELfPCH+++++CRLz.xWegzUe0TXvAWYj80Ww.BMf7++++OHwTCHe8ERW8USgAGbkQ1WeECLfPCH+++++CRL0.xWegzUe0TXvAWYj80WwDCHz.x+++++fDSMf70WHc0WMEFbvUFYe8ULx.BMf7++++OHwTCHe8ERW8USgAGbkQ1WeEyLfPCH+++++CRL0.xWegzUe0TXvAWYj80WwPCHz.x+++++fDSMf70WHc0WMEFbvUFYe8UL0.BMf7++++OHwTCHe8ERW8USgAGbkQ1WeEiMfPCH+++++CRL0.xWegzUe0TXvAWYj80WwbCHz.x+++++fDSMf70WHc0WMEFbvUFYe8UL3.BMf7++++OHwTCHe8ERW8USgAGbkQ1WeESNfPCH+++++CRLz.xWegzUe0TXvAWYj80Wx.BMf7++++OHwPCHe8ERW8USgAGbkQ1WeMCHz.x+++++fDCMf70WHc0WMEFbvUFYe8EMfPCH+++++CRLz.xWegzUe0TXvAWYj80W0.BMf7++++OHwPCHe8ERW8USgAGbkQ1WeYCHz.x+++++fDCMf70WHc0WMEFbvUFYe80MfPCH+++++CRLz.xWegzUe0TXvAWYj80W3.BMf7++++OHwPCHe8ERW8USgAGbkQ1WekCHz.x+++++fDSLf70WMEFbvUFYe8ELfPCH+++++CRLw.xWe0TXvAWYj80Ww.BMf7++++OHwHCHe8USgAGbkQ1WeECLfPCH+++++CRLx.xWe0TXvAWYj80WwDCHz.x+++++fDiLf70WMEFbvUFYe8ULx.BMf7++++OHwHCHe8USgAGbkQ1WeEyLfPCH+++++CRLx.xWe0TXvAWYj80WwPCHz.x+++++fDiLf70WMEFbvUFYe8UL0.BMf7++++OHwHCHe8USgAGbkQ1WeEiMfPCH+++++CRLx.xWe0TXvAWYj80WwbCHz.x+++++fDiLf70WMEFbvUFYe8UL3.BMf7++++OHwHCHe8USgAGbkQ1WeESNfPCH+++++CRLw.xWe0TXvAWYj80Wx.BMf7++++OHwDCHe8USgAGbkQ1WeMCHz.x+++++fDSLf70WMEFbvUFYe8EMfPCH+++++CRLw.xWe0TXvAWYj80W0.BMf7++++OHwDCHe8USgAGbkQ1WeYCHz.x+++++fDSLf70WMEFbvUFYe80MfPCH+++++CRLw.xWe0TXvAWYj80W3.BMf7++++OHwDCHe8USgAGbkQ1WekCHz.x+++++fHyMf70WSQUPTUzWeIUQSUjTVUDQe8USOQTRFkTQDARLf.iBRP0TTEDD.HQX00lYXUkazkFcrUFY.f..Y.fI.rB.3.vR.LE.aA.X.TF.pEfhA7X.QFvjAfY.ZF.oA3Z.wF.uHDIBVh.lHzI.......f.A.........PF...................BlB"
							}

						}
 ],
					"saved_object_attributes" : 					{
						"parameter_enable" : 0,
						"parameter_mappable" : 0
					}
,
					"text" : "pattr comp2",
					"varname" : "comp2"
				}

			}
, 			{
				"box" : 				{
					"fontname" : "Silom",
					"id" : "obj-14",
					"maxclass" : "newobj",
					"numinlets" : 1,
					"numoutlets" : 3,
					"outlettype" : [ "", "", "" ],
					"patching_rect" : [ 1087.477499232784339, 607.531730885730326, 89.0, 24.0 ],
					"restore" : [ 						{
							"filetype" : "C74Snapshot",
							"version" : 2,
							"minorversion" : 0,
							"name" : "Comp TUBE-STA",
							"origin" : "Comp TUBE-STA.auinfo",
							"type" : "AudioUnit",
							"subtype" : "MidiEffect",
							"embed" : 1,
							"snapshot" : 							{
								"pluginname" : "Comp TUBE-STA.auinfo",
								"plugindisplayname" : "Comp TUBE-STA",
								"pluginsavedname" : "",
								"pluginsaveduniqueid" : 1414747201,
								"version" : 1,
								"isbank" : 0,
								"isbase64" : 1,
								"blob" : "2296.hAGaoMGcv.C1AHv.DTfAGfPBJr.EUXwEXvUag4VclE1XzUmbkIGUjEFcgwUYrUVak4Fcs3VXsU1WP.wPu4Fcx8FarUlbfLEcgQWYWMWchQWdvU1U1Ulbyk1atQEc4AWYT4VXsUlDAIGc08TDAvA..............HB...P.+.H......H..........C..........A9z+72B...TvO.B......F7Cf......vA+.H......f..........I7C.......fB+........r..........L.........PC+........3vO........O7Cf.......D.........DA.........h7C.......vH+........PxO........k7C.......fI+........bxO........n7C.......PJ+........nxO........q7C........K+........zB.........t.........vK..........C.........w.........fL.....HMCM3fDQESTxH8CL.QDQASVSQWYxU1afjjaYMUZjU1XnEVZtE8CSn0TzUlbk8FHOUGcOEgAQKiLfLWYxkVXrkldgQWZu4lN5DlbigVZ1UFHw.CHv.xMf.CH2.xMfPTYlEVcrQGH1.xTzUlbk8FHzDCH2.RPxQWcxkVXf.CHf.CHv.BLf.CHw.BLf.CHfDiMwjiMwLSM1XCHw.CHw3RMt.iKz.iMw.BLf.CHv.BLf.CHv.BLf.CHf.CHv.xLf.CHv.BLfDiMf7jbocVZtEFaPE1Xq4TXsUFH1.xTzUlbk8FHwfCHOIWZmklagwFTxU1bkQmSg0VYfbCHDUlYgUGazABMfPUdvUFH3.BUk0FbrEFckABLf.CHv.xMf.CHv.BLf.CHv.BLfHyLf.CHv.BLfXCHBkGbgM2bf.CH4.BQxkGHu.xUkQGHw.RLy.RQtElXrUFHEYlYkMFcfDCHwDCHEgGckImagwFHSMDHv.RL1.RQ3QWYx4VXrAxTCAxQgklaf.iK0.RLz.BRocFZrk1YnQGHM8FYkARLfDCLfjjavUGcfbTXo4FHv.RL2.RRtAWcz8xS0QGb0QGHLklaqARLfDiLfzTRDkDHCgVXt4VYrABLfDSLf7TczAWczAxQgklafDCHwHCHRUFakE1bkARSuQVYf.CHwHCHRUFakE1bkABUo0VYf.iKzjiMv.CLvHCHwbCHSMDHDUFckMFco8lafzzajUFHv3RMfDSMfL0PfTTTfHTYrwFHFIWYwABLtTCHwTCHSMDHEEEHBUFarAxQgklaf.iK0.RLy.xTCARQQABRPAhQxUVbf.CHwPCHSMDHEEEHHAkQfXjbkEGHv.RLx.xTCARQQABRPYDHO4FHv.RLy.xTCARQQABSPAhQxUVbfDCHwPCHSMDHEEEHLAkQfXjbkEGHw.RLx.xTCARQQABSPYDHO4FHv.BNfL0PfTTTf7jaf.CHw.CHVElboEFco8layABLfPiLf.CHwfCHMkFYoMzatQmbuwFakImSg0VYfLiLf...........................................fDCMf70WHc0WMEFbvUFYe8ELfPCH+++++CRLz.xWegzUe0TXvAWYj80Ww.BMf7++++OHwTCHe8ERW8USgAGbkQ1WeECLfPCH+++++CRL0.xWegzUe0TXvAWYj80WwDCHz.x+++++fDSMf70WHc0WMEFbvUFYe8ULx.BMf7++++OHwTCHe8ERW8USgAGbkQ1WeEyLfPCH+++++CRL0.xWegzUe0TXvAWYj80WwPCHz.x+++++fDSMf70WHc0WMEFbvUFYe8UL0.BMf7++++OHwTCHe8ERW8USgAGbkQ1WeEiMfPCH+++++CRL0.xWegzUe0TXvAWYj80WwbCHz.x+++++fDSMf70WHc0WMEFbvUFYe8UL3.BMf7++++OHwTCHe8ERW8USgAGbkQ1WeESNfPCH+++++CRLz.xWegzUe0TXvAWYj80Wx.BMf7++++OHwPCHe8ERW8USgAGbkQ1WeMCHz.x+++++fDCMf70WHc0WMEFbvUFYe8EMfPCH+++++CRLz.xWegzUe0TXvAWYj80W0.BMf7++++OHwPCHe8ERW8USgAGbkQ1WeYCHz.x+++++fDCMf70WHc0WMEFbvUFYe80MfPCH+++++CRLz.xWegzUe0TXvAWYj80W3.BMf7++++OHwPCHe8ERW8USgAGbkQ1WekCHz.x+++++fDSLf70WMEFbvUFYe8ELfPCH+++++CRLw.xWe0TXvAWYj80Ww.BMf7++++OHwHCHe8USgAGbkQ1WeECLfPCH+++++CRLx.xWe0TXvAWYj80WwDCHz.x+++++fDiLf70WMEFbvUFYe8ULx.BMf7++++OHwHCHe8USgAGbkQ1WeEyLfPCH+++++CRLx.xWe0TXvAWYj80WwPCHz.x+++++fDiLf70WMEFbvUFYe8UL0.BMf7++++OHwHCHe8USgAGbkQ1WeEiMfPCH+++++CRLx.xWe0TXvAWYj80WwbCHz.x+++++fDiLf70WMEFbvUFYe8UL3.BMf7++++OHwHCHe8USgAGbkQ1WeESNfPCH+++++CRLw.xWe0TXvAWYj80Wx.BMf7++++OHwDCHe8USgAGbkQ1WeMCHz.x+++++fDSLf70WMEFbvUFYe8EMfPCH+++++CRLw.xWe0TXvAWYj80W0.BMf7++++OHwDCHe8USgAGbkQ1WeYCHz.x+++++fDSLf70WMEFbvUFYe80MfPCH+++++CRLw.xWe0TXvAWYj80W3.BMf7++++OHwDCHe8USgAGbkQ1WekCHz.x+++++fHyMf70WSQUPTUzWeIUQSUjTVUDQe8USOQTRFkTQDARLf.iBRP0TTEDD.HQX00lYXUkazkFcrUFY.f..Y.fI.rB.3.vR.LE.aA.X.TF.pEfhA7X.QFvjAfY.ZF.oA3Z.wF.uHDIBVh.lHzI.......f.A.........PF...................BlB"
							}

						}
 ],
					"saved_object_attributes" : 					{
						"parameter_enable" : 0,
						"parameter_mappable" : 0
					}
,
					"text" : "pattr comp1",
					"varname" : "comp1"
				}

			}
, 			{
				"box" : 				{
					"fontname" : "Silom",
					"id" : "obj-12",
					"maxclass" : "newobj",
					"numinlets" : 1,
					"numoutlets" : 3,
					"outlettype" : [ "", "", "" ],
					"patching_rect" : [ 1689.477499232784339, 671.995004003124336, 77.0, 24.0 ],
					"restore" : [ 						{
							"filetype" : "C74Snapshot",
							"version" : 2,
							"minorversion" : 0,
							"name" : "GMaudio Clipper 1.1.amxd",
							"origin" : "GMaudio Clipper 1.1.amxd",
							"type" : "amxd",
							"subtype" : "Undefined",
							"embed" : 1,
							"snapshot" : 							{
								"name" : "GMaudio Clipper 1.1.amxd",
								"origname" : "~/Music/_repo/sousastep/Sousastep Audio FX/patchers/GMaudio Clipper 1.1.amxd",
								"valuedictionary" : 								{
									"parameter_values" : 									{
										"Ceiling" : -6.0,
										"Filters On/Off" : 1.0,
										"Filters On/Off[1]" : 1.0
									}

								}

							}

						}
 ],
					"saved_object_attributes" : 					{
						"parameter_enable" : 0,
						"parameter_mappable" : 0
					}
,
					"text" : "pattr clip4",
					"varname" : "clip4"
				}

			}
, 			{
				"box" : 				{
					"fontname" : "Silom",
					"id" : "obj-11",
					"maxclass" : "newobj",
					"numinlets" : 1,
					"numoutlets" : 3,
					"outlettype" : [ "", "", "" ],
					"patching_rect" : [ 1093.60577589996501, 679.531730885730326, 77.0, 24.0 ],
					"restore" : [ 						{
							"filetype" : "C74Snapshot",
							"version" : 2,
							"minorversion" : 0,
							"name" : "GMaudio Clipper 1.1.amxd",
							"origin" : "GMaudio Clipper 1.1.amxd",
							"type" : "amxd",
							"subtype" : "Undefined",
							"embed" : 1,
							"snapshot" : 							{
								"name" : "GMaudio Clipper 1.1.amxd",
								"origname" : "~/Music/_repo/sousastep/Sousastep Audio FX/patchers/GMaudio Clipper 1.1.amxd",
								"valuedictionary" : 								{
									"parameter_values" : 									{
										"Ceiling" : -6.0,
										"Filters On/Off" : 1.0,
										"Filters On/Off[1]" : 1.0
									}

								}

							}

						}
 ],
					"saved_object_attributes" : 					{
						"parameter_enable" : 0,
						"parameter_mappable" : 0
					}
,
					"text" : "pattr clip3",
					"varname" : "clip3"
				}

			}
, 			{
				"box" : 				{
					"fontname" : "Silom",
					"id" : "obj-5",
					"maxclass" : "newobj",
					"numinlets" : 2,
					"numoutlets" : 1,
					"outlettype" : [ "bang" ],
					"patching_rect" : [ 2131.429137651358815, 485.063454559298634, 48.0, 24.0 ],
					"text" : "del 10"
				}

			}
, 			{
				"box" : 				{
					"fontname" : "Silom",
					"id" : "obj-6",
					"maxclass" : "message",
					"numinlets" : 2,
					"numoutlets" : 1,
					"outlettype" : [ "" ],
					"patching_rect" : [ 2131.006056978485958, 514.595178232866942, 81.0, 24.0 ],
					"text" : "writeagain"
				}

			}
, 			{
				"box" : 				{
					"fontname" : "Silom",
					"id" : "obj-45",
					"maxclass" : "newobj",
					"numinlets" : 1,
					"numoutlets" : 1,
					"outlettype" : [ "int" ],
					"patching_rect" : [ 1831.477499232784339, 514.595178232866942, 26.0, 24.0 ],
					"text" : "t 1"
				}

			}
, 			{
				"box" : 				{
					"fontname" : "Silom",
					"id" : "obj-7",
					"maxclass" : "newobj",
					"numinlets" : 1,
					"numoutlets" : 1,
					"outlettype" : [ "" ],
					"patching_rect" : [ 1831.477499232784339, 485.063454559298634, 69.0, 24.0 ],
					"text" : "deferlow"
				}

			}
, 			{
				"box" : 				{
					"fontname" : "Silom",
					"id" : "obj-42",
					"maxclass" : "newobj",
					"numinlets" : 1,
					"numoutlets" : 1,
					"outlettype" : [ "bang" ],
					"patching_rect" : [ 1831.477499232784339, 455.531730885730326, 69.0, 24.0 ],
					"text" : "loadbang"
				}

			}
, 			{
				"box" : 				{
					"fontname" : "Silom",
					"id" : "obj-44",
					"maxclass" : "newobj",
					"numinlets" : 2,
					"numoutlets" : 1,
					"outlettype" : [ "" ],
					"patching_rect" : [ 2029.629137520228596, 514.595178232866942, 89.0, 24.0 ],
					"text" : "pack store 1"
				}

			}
, 			{
				"box" : 				{
					"autorestore" : "post-triplewrap_mixbus.json",
					"fontname" : "Silom",
					"id" : "obj-32",
					"maxclass" : "newobj",
					"numinlets" : 1,
					"numoutlets" : 1,
					"outlettype" : [ "" ],
					"patching_rect" : [ 1907.406058623574154, 583.0, 350.0, 24.0 ],
					"saved_object_attributes" : 					{
						"client_rect" : [ 4, 44, 358, 172 ],
						"parameter_enable" : 0,
						"parameter_mappable" : 0,
						"storage_rect" : [ 245, -852, 1685, -73 ]
					}
,
					"text" : "pattrstorage post-triplewrap_mixbus @savemode 0",
					"varname" : "post-triplewrap_mixbus"
				}

			}
, 			{
				"box" : 				{
					"bgcolor" : [ 0.0, 0.0, 0.0, 0.27 ],
					"bubblepoint" : 0.4,
					"bubbleside" : 2,
					"bubbleusescolors" : 1,
					"fontname" : "Silom",
					"fontsize" : 14.0,
					"id" : "obj-65",
					"maxclass" : "comment",
					"numinlets" : 0,
					"numoutlets" : 0,
					"patching_rect" : [ 1974.429137651358815, 439.017397878947463, 147.0, 24.0 ],
					"presentation" : 1,
					"presentation_rect" : [ 209.0, 117.063454559298634, 45.0, 24.0 ],
					"suppressinlet" : 1,
					"text" : "save",
					"textcolor" : [ 0.898039215686275, 0.788235294117647, 0.996078431372549, 1.0 ]
				}

			}
, 			{
				"box" : 				{
					"bgcolor" : [ 0.0, 0.0, 0.0, 0.27 ],
					"blinkcolor" : [ 0.850980392156863, 0.686274509803922, 1.0, 1.0 ],
					"id" : "obj-84",
					"maxclass" : "button",
					"numinlets" : 1,
					"numoutlets" : 1,
					"outlettype" : [ "bang" ],
					"outlinecolor" : [ 0.850980392156863, 0.686274509803922, 1.0, 1.0 ],
					"parameter_enable" : 0,
					"patching_rect" : [ 2131.429137651358815, 432.517397878947463, 36.0, 36.0 ],
					"presentation" : 1,
					"presentation_rect" : [ 209.0, 147.063454559298634, 45.0, 45.0 ],
					"style" : "buttonGold"
				}

			}
, 			{
				"box" : 				{
					"bgcolor" : [ 1.0, 0.949019607843137, 0.227450980392157, 0.57 ],
					"bgcolor2" : [ 0.941176470588235, 0.227450980392157, 1.0, 0.52 ],
					"bgfillcolor_angle" : 40.988422399155411,
					"bgfillcolor_autogradient" : 0.0,
					"bgfillcolor_color" : [ 0.941176470588235, 0.227450980392157, 1.0, 0.52 ],
					"bgfillcolor_color1" : [ 1.0, 0.949019607843137, 0.227450980392157, 0.57 ],
					"bgfillcolor_color2" : [ 0.941176470588235, 0.227450980392157, 1.0, 0.52 ],
					"bgfillcolor_proportion" : 0.39,
					"bgfillcolor_pt1" : [ -0.035353535353535, 0.95959595959596 ],
					"bgfillcolor_pt2" : [ 1.005050505050505, 0.055555555555556 ],
					"bgfillcolor_type" : "gradient",
					"fontname" : "Silom",
					"gradient" : 1,
					"id" : "obj-89",
					"maxclass" : "message",
					"numinlets" : 2,
					"numoutlets" : 1,
					"outlettype" : [ "" ],
					"patching_rect" : [ 1907.406058623574154, 485.063454559298634, 119.0, 24.0 ],
					"style" : "messageGold",
					"text" : "storagewindow",
					"textcolor" : [ 0.0, 0.0, 0.0, 0.890196078431372 ],
					"textjustification" : 1
				}

			}
, 			{
				"box" : 				{
					"bgcolor" : [ 0.247058823529412, 0.086274509803922, 0.317647058823529, 1.0 ],
					"bgcolor2" : [ 0.505882352941176, 0.266666666666667, 0.043137254901961, 1.0 ],
					"bgfillcolor_angle" : 40.988422399155411,
					"bgfillcolor_autogradient" : 0.0,
					"bgfillcolor_color" : [ 0.505882352941176, 0.266666666666667, 0.043137254901961, 1.0 ],
					"bgfillcolor_color1" : [ 0.247058823529412, 0.086274509803922, 0.317647058823529, 1.0 ],
					"bgfillcolor_color2" : [ 0.505882352941176, 0.266666666666667, 0.043137254901961, 1.0 ],
					"bgfillcolor_proportion" : 0.39,
					"bgfillcolor_pt1" : [ -0.035353535353535, 0.95959595959596 ],
					"bgfillcolor_pt2" : [ 1.005050505050505, 0.055555555555556 ],
					"bgfillcolor_type" : "gradient",
					"fontname" : "Silom",
					"gradient" : 1,
					"id" : "obj-96",
					"maxclass" : "message",
					"numinlets" : 2,
					"numoutlets" : 1,
					"outlettype" : [ "" ],
					"patching_rect" : [ 1919.406058623574154, 514.595178232866942, 104.0, 24.0 ],
					"style" : "messageGold",
					"text" : "clientwindow",
					"textcolor" : [ 0.8, 0.8, 0.8, 0.890196078431372 ]
				}

			}
, 			{
				"box" : 				{
					"autosave" : 0,
					"bgmode" : 1,
					"border" : 0,
					"clickthrough" : 0,
					"enablehscroll" : 0,
					"enablevscroll" : 0,
					"id" : "obj-2",
					"linecount" : 5,
					"lockeddragscroll" : 0,
					"lockedsize" : 0,
					"maxclass" : "newobj",
					"numinlets" : 3,
					"numoutlets" : 4,
					"offset" : [ 0.0, 0.0 ],
					"outlettype" : [ "signal", "signal", "", "" ],
					"patching_rect" : [ 1473.0, 728.809075306784962, 175.0, 170.0 ],
					"presentation" : 1,
					"presentation_linecount" : 5,
					"presentation_rect" : [ 275.314899537494284, 75.809075306784962, 175.0, 170.0 ],
					"saved_object_attributes" : 					{
						"autosave" : 0,
						"parameter_enable" : 0,
						"patchername" : "GMaudio Clipper 1.1.amxd",
						"patchername_fallback" : "~/Music/_repo/sousastep/Sousastep Audio FX/patchers/GMaudio Clipper 1.1.amxd",
						"showheader" : 0
					}
,
					"text" : "amxd~ \"/Users/jbaylies/Music/_repo/sousastep/Sousastep Audio FX/patchers/GMaudio Clipper 1.1.amxd\"",
					"varname" : "amxd~[1]",
					"viewvisibility" : 1
				}

			}
, 			{
				"box" : 				{
					"autosave" : 0,
					"bgmode" : 1,
					"border" : 0,
					"clickthrough" : 0,
					"enablehscroll" : 0,
					"enablevscroll" : 0,
					"id" : "obj-1",
					"linecount" : 4,
					"lockeddragscroll" : 0,
					"lockedsize" : 0,
					"maxclass" : "newobj",
					"numinlets" : 3,
					"numoutlets" : 4,
					"offset" : [ 0.0, 0.0 ],
					"outlettype" : [ "signal", "signal", "", "" ],
					"patching_rect" : [ 1473.0, 921.809075306784962, 244.0, 170.0 ],
					"presentation" : 1,
					"presentation_linecount" : 4,
					"presentation_rect" : [ 275.314899537494284, 247.526321451103286, 244.0, 170.0 ],
					"saved_object_attributes" : 					{
						"autosave" : 0,
						"parameter_enable" : 0,
						"patchername" : "Color_Limiter.amxd",
						"patchername_fallback" : "~/Music/_repo/sousastep/Sousastep Audio FX/patchers/Color_Limiter.amxd",
						"showheader" : 0
					}
,
					"text" : "amxd~ \"/Users/jbaylies/Music/_repo/sousastep/Sousastep Audio FX/patchers/Color_Limiter.amxd\"",
					"varname" : "amxd~",
					"viewvisibility" : 1
				}

			}
, 			{
				"box" : 				{
					"id" : "obj-1131",
					"maxclass" : "toggle",
					"numinlets" : 1,
					"numoutlets" : 1,
					"outlettype" : [ "int" ],
					"parameter_enable" : 0,
					"patching_rect" : [ 1529.630481026500092, 206.701658970920107, 24.0, 24.0 ],
					"presentation" : 1,
					"presentation_rect" : [ 154.5, 431.392208389259395, 24.0, 24.0 ]
				}

			}
, 			{
				"box" : 				{
					"id" : "obj-1132",
					"maxclass" : "toggle",
					"numinlets" : 1,
					"numoutlets" : 1,
					"outlettype" : [ "int" ],
					"parameter_enable" : 0,
					"patching_rect" : [ 1354.10579077937291, 48.005149184195034, 24.0, 24.0 ],
					"presentation" : 1,
					"presentation_rect" : [ 125.0, 431.392208389259395, 24.0, 24.0 ]
				}

			}
, 			{
				"box" : 				{
					"fontname" : "Arial",
					"fontsize" : 13.0,
					"id" : "obj-1144",
					"maxclass" : "newobj",
					"numinlets" : 3,
					"numoutlets" : 2,
					"outlettype" : [ "signal", "signal" ],
					"patching_rect" : [ 1473.0, 579.685347274049946, 190.000000000000114, 23.0 ],
					"text" : "muteme"
				}

			}
, 			{
				"box" : 				{
					"fontname" : "Arial",
					"fontsize" : 13.0,
					"id" : "obj-1148",
					"maxclass" : "newobj",
					"numinlets" : 3,
					"numoutlets" : 2,
					"outlettype" : [ "signal", "signal" ],
					"patching_rect" : [ 1187.10579077937291, 579.685347274049946, 190.0, 23.0 ],
					"text" : "muteme"
				}

			}
, 			{
				"box" : 				{
					"id" : "obj-1100",
					"maxclass" : "toggle",
					"numinlets" : 1,
					"numoutlets" : 1,
					"outlettype" : [ "int" ],
					"parameter_enable" : 0,
					"patching_rect" : [ 634.25, 470.500036409258428, 24.0, 24.0 ],
					"presentation" : 1,
					"presentation_rect" : [ 154.5, 490.080856037385729, 24.0, 24.0 ]
				}

			}
, 			{
				"box" : 				{
					"id" : "obj-1107",
					"maxclass" : "toggle",
					"numinlets" : 1,
					"numoutlets" : 1,
					"outlettype" : [ "int" ],
					"parameter_enable" : 0,
					"patching_rect" : [ 481.25, 470.500036409258428, 24.0, 24.0 ],
					"presentation" : 1,
					"presentation_rect" : [ 125.0, 490.080856037385729, 24.0, 24.0 ]
				}

			}
, 			{
				"box" : 				{
					"fontname" : "Arial",
					"fontsize" : 13.0,
					"id" : "obj-1116",
					"maxclass" : "newobj",
					"numinlets" : 3,
					"numoutlets" : 2,
					"outlettype" : [ "signal", "signal" ],
					"patching_rect" : [ 597.75, 511.716701131287209, 55.0, 23.0 ],
					"text" : "muteme"
				}

			}
, 			{
				"box" : 				{
					"fontname" : "Arial",
					"fontsize" : 13.0,
					"id" : "obj-1117",
					"maxclass" : "newobj",
					"numinlets" : 3,
					"numoutlets" : 2,
					"outlettype" : [ "signal", "signal" ],
					"patching_rect" : [ 506.812272643987626, 511.716701131287209, 55.0, 23.0 ],
					"text" : "muteme"
				}

			}
, 			{
				"box" : 				{
					"id" : "obj-983",
					"maxclass" : "toggle",
					"numinlets" : 1,
					"numoutlets" : 1,
					"outlettype" : [ "int" ],
					"parameter_enable" : 0,
					"patching_rect" : [ 1102.477499232784339, 33.005149184195034, 24.0, 24.0 ],
					"presentation" : 1,
					"presentation_rect" : [ 154.5, 461.080856037385729, 24.0, 24.0 ]
				}

			}
, 			{
				"box" : 				{
					"id" : "obj-972",
					"maxclass" : "toggle",
					"numinlets" : 1,
					"numoutlets" : 1,
					"outlettype" : [ "int" ],
					"parameter_enable" : 0,
					"patching_rect" : [ 842.477514112192011, 46.35340407755757, 24.0, 24.0 ],
					"presentation" : 1,
					"presentation_rect" : [ 125.0, 461.080856037385729, 24.0, 24.0 ]
				}

			}
, 			{
				"box" : 				{
					"fontname" : "Arial",
					"fontsize" : 13.0,
					"id" : "obj-956",
					"maxclass" : "newobj",
					"numinlets" : 3,
					"numoutlets" : 2,
					"outlettype" : [ "signal", "signal" ],
					"patching_rect" : [ 1001.105790779372796, 515.095178232867056, 55.0, 23.0 ],
					"text" : "muteme"
				}

			}
, 			{
				"box" : 				{
					"fontname" : "Arial",
					"fontsize" : 13.0,
					"id" : "obj-950",
					"maxclass" : "newobj",
					"numinlets" : 3,
					"numoutlets" : 2,
					"outlettype" : [ "signal", "signal" ],
					"patching_rect" : [ 916.605790779372796, 515.095178232867056, 55.0, 23.0 ],
					"text" : "muteme"
				}

			}
, 			{
				"box" : 				{
					"autosave" : 0,
					"bgmode" : 0,
					"border" : 0,
					"clickthrough" : 0,
					"id" : "obj-125",
					"linecount" : 4,
					"maxclass" : "newobj",
					"numinlets" : 4,
					"numoutlets" : 8,
					"offset" : [ 0.0, 0.0 ],
					"outlettype" : [ "signal", "signal", "", "list", "int", "", "", "" ],
					"patching_rect" : [ 1473.0, 633.99500400312445, 190.0, 62.0 ],
					"presentation" : 1,
					"presentation_linecount" : 4,
					"presentation_rect" : [ 275.314899537494284, 11.809075306784962, 196.0, 62.0 ],
					"save" : [ "#N", "vst~", "loaduniqueid", 0, 4, 2, "Comp TUBE-STA", "@prefer", "AudioUnit", "@parameter_enable", 0, "@autosave", 0, ";" ],
					"saved_attribute_attributes" : 					{
						"valueof" : 						{
							"parameter_invisible" : 1,
							"parameter_longname" : "vst~[1]",
							"parameter_shortname" : "vst~[1]",
							"parameter_type" : 3
						}

					}
,
					"saved_object_attributes" : 					{
						"autosave" : 0,
						"parameter_enable" : 1,
						"parameter_mappable" : 0,
						"prefer" : "AudioUnit"
					}
,
					"text" : "audiounit~ 4 2 \"Comp TUBE-STA\" @prefer AudioUnit @parameter_enable 0 @autosave 0",
					"varname" : "vst~[1]",
					"viewvisibility" : 0
				}

			}
, 			{
				"box" : 				{
					"autosave" : 0,
					"bgmode" : 0,
					"border" : 0,
					"clickthrough" : 0,
					"id" : "obj-59",
					"linecount" : 4,
					"maxclass" : "newobj",
					"numinlets" : 4,
					"numoutlets" : 8,
					"offset" : [ 0.0, 0.0 ],
					"outlettype" : [ "signal", "signal", "", "list", "int", "", "", "" ],
					"patching_rect" : [ 1187.10579077937291, 633.99500400312445, 190.0, 62.0 ],
					"presentation" : 1,
					"presentation_linecount" : 4,
					"presentation_rect" : [ 15.038280601981796, 11.809075306784962, 196.0, 62.0 ],
					"save" : [ "#N", "vst~", "loaduniqueid", 0, 4, 2, "Comp TUBE-STA", "@prefer", "AudioUnit", "@parameter_enable", 0, "@autosave", 0, ";" ],
					"saved_attribute_attributes" : 					{
						"valueof" : 						{
							"parameter_invisible" : 1,
							"parameter_longname" : "vst~",
							"parameter_shortname" : "vst~",
							"parameter_type" : 3
						}

					}
,
					"saved_object_attributes" : 					{
						"autosave" : 0,
						"parameter_enable" : 1,
						"parameter_mappable" : 0,
						"prefer" : "AudioUnit"
					}
,
					"text" : "audiounit~ 4 2 \"Comp TUBE-STA\" @prefer AudioUnit @parameter_enable 0 @autosave 0",
					"varname" : "vst~",
					"viewvisibility" : 0
				}

			}
, 			{
				"box" : 				{
					"autosave" : 0,
					"bgmode" : 1,
					"border" : 0,
					"clickthrough" : 0,
					"enablehscroll" : 0,
					"enablevscroll" : 0,
					"id" : "obj-484",
					"linecount" : 2,
					"lockeddragscroll" : 0,
					"lockedsize" : 0,
					"maxclass" : "newobj",
					"numinlets" : 3,
					"numoutlets" : 4,
					"offset" : [ 0.0, 0.0 ],
					"outlettype" : [ "signal", "signal", "", "" ],
					"patching_rect" : [ 1187.10579077937291, 728.809075306784962, 175.0, 170.0 ],
					"presentation" : 1,
					"presentation_linecount" : 2,
					"presentation_rect" : [ 15.038280601981796, 75.809075306784962, 175.0, 170.0 ],
					"saved_object_attributes" : 					{
						"autosave" : 0,
						"parameter_enable" : 0,
						"patchername" : "GMaudio Clipper 1.1.amxd",
						"patchername_fallback" : "~/Music/_repo/sousastep/Sousastep Audio FX/patchers/GMaudio Clipper 1.1.amxd",
						"showheader" : 0
					}
,
					"text" : "amxd~ \"GMaudio Clipper 1.1.amxd\"",
					"varname" : "max~",
					"viewvisibility" : 1
				}

			}
, 			{
				"box" : 				{
					"autosave" : 0,
					"bgmode" : 1,
					"border" : 0,
					"clickthrough" : 0,
					"enablehscroll" : 0,
					"enablevscroll" : 0,
					"id" : "obj-85",
					"linecount" : 4,
					"lockeddragscroll" : 0,
					"lockedsize" : 0,
					"maxclass" : "newobj",
					"numinlets" : 3,
					"numoutlets" : 4,
					"offset" : [ 0.0, 0.0 ],
					"outlettype" : [ "signal", "signal", "", "" ],
					"patching_rect" : [ 1187.10579077937291, 924.809075306784962, 244.0, 170.0 ],
					"presentation" : 1,
					"presentation_linecount" : 4,
					"presentation_rect" : [ 15.038280601981796, 247.526321451103286, 244.0, 170.0 ],
					"saved_object_attributes" : 					{
						"autosave" : 0,
						"parameter_enable" : 0,
						"patchername" : "Color_Limiter.amxd",
						"patchername_fallback" : "~/Music/_repo/sousastep/Sousastep Audio FX/patchers/Color_Limiter.amxd",
						"showheader" : 0
					}
,
					"text" : "amxd~ \"/Users/jbaylies/Music/_repo/sousastep/Sousastep Audio FX/patchers/Color_Limiter.amxd\"",
					"varname" : "max~[2]",
					"viewvisibility" : 1
				}

			}
, 			{
				"box" : 				{
					"id" : "obj-874",
					"lastchannelcount" : 0,
					"maxclass" : "live.gain~",
					"numinlets" : 2,
					"numoutlets" : 5,
					"outlettype" : [ "signal", "signal", "", "float", "list" ],
					"parameter_enable" : 1,
					"patching_rect" : [ 1199.863526899965109, 1178.484994248891326, 84.0, 135.0 ],
					"presentation" : 1,
					"presentation_rect" : [ 455.863526899965109, 431.392208389259395, 49.0, 83.0 ],
					"saved_attribute_attributes" : 					{
						"valueof" : 						{
							"parameter_longname" : "high gain[1]",
							"parameter_mmax" : 6.0,
							"parameter_mmin" : -70.0,
							"parameter_shortname" : "high gain",
							"parameter_type" : 0,
							"parameter_unitstyle" : 4
						}

					}
,
					"varname" : "live.gain~[1]"
				}

			}
, 			{
				"box" : 				{
					"bgcolor" : [ 1.0, 1.0, 1.0, 0.27 ],
					"bubble" : 1,
					"bubbleside" : 3,
					"bubbleusescolors" : 1,
					"fontname" : "Ableton Sans Light",
					"id" : "obj-1150",
					"linecount" : 3,
					"maxclass" : "comment",
					"numinlets" : 1,
					"numoutlets" : 0,
					"patching_rect" : [ 1294.10579077937291, 33.005149184195034, 58.0, 54.0 ],
					"presentation" : 1,
					"presentation_rect" : [ 15.0, 431.392208389259395, 134.0, 25.0 ],
					"text" : "mute high dry",
					"textjustification" : 1
				}

			}
, 			{
				"box" : 				{
					"bgcolor" : [ 1.0, 1.0, 1.0, 0.27 ],
					"bubble" : 1,
					"bubbleside" : 3,
					"bubbleusescolors" : 1,
					"fontname" : "Ableton Sans Light",
					"id" : "obj-1119",
					"linecount" : 2,
					"maxclass" : "comment",
					"numinlets" : 1,
					"numoutlets" : 0,
					"patching_rect" : [ 402.0, 463.000036409258428, 84.5, 39.0 ],
					"presentation" : 1,
					"presentation_rect" : [ 15.0, 490.080856037385729, 134.0, 25.0 ],
					"text" : "mute very low dry",
					"textjustification" : 1
				}

			}
, 			{
				"box" : 				{
					"bgcolor" : [ 1.0, 1.0, 1.0, 0.27 ],
					"bubble" : 1,
					"bubbleside" : 3,
					"bubbleusescolors" : 1,
					"fontname" : "Ableton Sans Light",
					"id" : "obj-886",
					"linecount" : 2,
					"maxclass" : "comment",
					"numinlets" : 1,
					"numoutlets" : 0,
					"patching_rect" : [ 765.477514112192011, 38.35340407755757, 75.0, 39.0 ],
					"presentation" : 1,
					"presentation_rect" : [ 15.0, 461.080856037385729, 134.0, 25.0 ],
					"text" : "mute low dry",
					"textjustification" : 1
				}

			}
, 			{
				"box" : 				{
					"bgcolor" : [ 1.0, 1.0, 1.0, 0.27 ],
					"bubble" : 1,
					"bubbleusescolors" : 1,
					"fontname" : "Ableton Sans Light",
					"id" : "obj-1129",
					"linecount" : 3,
					"maxclass" : "comment",
					"numinlets" : 1,
					"numoutlets" : 0,
					"patching_rect" : [ 1558.5, 188.049913864282644, 58.0, 54.0 ],
					"presentation" : 1,
					"presentation_rect" : [ 154.5, 431.392208389259395, 134.0, 25.0 ],
					"text" : "mute high mod",
					"textjustification" : 1
				}

			}
, 			{
				"box" : 				{
					"bgcolor" : [ 1.0, 1.0, 1.0, 0.27 ],
					"bubble" : 1,
					"bubbleusescolors" : 1,
					"fontname" : "Ableton Sans Light",
					"id" : "obj-1099",
					"linecount" : 2,
					"maxclass" : "comment",
					"numinlets" : 1,
					"numoutlets" : 0,
					"patching_rect" : [ 659.750001899965127, 463.000036409258428, 79.0, 39.0 ],
					"presentation" : 1,
					"presentation_rect" : [ 154.5, 490.080856037385729, 134.0, 25.0 ],
					"text" : "mute very low mod",
					"textjustification" : 1
				}

			}
, 			{
				"box" : 				{
					"bgcolor" : [ 1.0, 1.0, 1.0, 0.27 ],
					"bubble" : 1,
					"bubbleusescolors" : 1,
					"fontname" : "Ableton Sans Light",
					"id" : "obj-1001",
					"linecount" : 3,
					"maxclass" : "comment",
					"numinlets" : 1,
					"numoutlets" : 0,
					"patching_rect" : [ 1128.477499232784339, 16.35340407755757, 57.0, 54.0 ],
					"presentation" : 1,
					"presentation_rect" : [ 154.5, 461.080856037385729, 134.0, 25.0 ],
					"text" : "mute low mod",
					"textjustification" : 1
				}

			}
, 			{
				"box" : 				{
					"comment" : "",
					"id" : "obj-953",
					"index" : 0,
					"maxclass" : "inlet",
					"numinlets" : 0,
					"numoutlets" : 1,
					"outlettype" : [ "" ],
					"patching_rect" : [ 496.812272899965137, 422.848327711878937, 30.0, 30.0 ]
				}

			}
, 			{
				"box" : 				{
					"comment" : "",
					"id" : "obj-963",
					"index" : 0,
					"maxclass" : "inlet",
					"numinlets" : 0,
					"numoutlets" : 1,
					"outlettype" : [ "" ],
					"patching_rect" : [ 531.812272899965137, 422.848327711878937, 30.0, 30.0 ]
				}

			}
, 			{
				"box" : 				{
					"comment" : "",
					"id" : "obj-966",
					"index" : 0,
					"maxclass" : "inlet",
					"numinlets" : 0,
					"numoutlets" : 1,
					"outlettype" : [ "" ],
					"patching_rect" : [ 587.750001899965127, 422.848327711878937, 30.0, 30.0 ]
				}

			}
, 			{
				"box" : 				{
					"comment" : "",
					"id" : "obj-967",
					"index" : 0,
					"maxclass" : "inlet",
					"numinlets" : 0,
					"numoutlets" : 1,
					"outlettype" : [ "" ],
					"patching_rect" : [ 622.750001899965127, 422.848327711878937, 30.0, 30.0 ]
				}

			}
, 			{
				"box" : 				{
					"comment" : "",
					"id" : "obj-975",
					"index" : 0,
					"maxclass" : "inlet",
					"numinlets" : 0,
					"numoutlets" : 1,
					"outlettype" : [ "" ],
					"patching_rect" : [ 894.105790779372796, 435.27824078748381, 30.0, 30.0 ]
				}

			}
, 			{
				"box" : 				{
					"comment" : "",
					"id" : "obj-984",
					"index" : 0,
					"maxclass" : "inlet",
					"numinlets" : 0,
					"numoutlets" : 1,
					"outlettype" : [ "" ],
					"patching_rect" : [ 929.105790779372796, 435.27824078748381, 30.0, 30.0 ]
				}

			}
, 			{
				"box" : 				{
					"comment" : "",
					"id" : "obj-995",
					"index" : 0,
					"maxclass" : "inlet",
					"numinlets" : 0,
					"numoutlets" : 1,
					"outlettype" : [ "" ],
					"patching_rect" : [ 978.105775899965124, 435.27824078748381, 30.0, 30.0 ]
				}

			}
, 			{
				"box" : 				{
					"comment" : "",
					"id" : "obj-1005",
					"index" : 0,
					"maxclass" : "inlet",
					"numinlets" : 0,
					"numoutlets" : 1,
					"outlettype" : [ "" ],
					"patching_rect" : [ 1013.105775899965124, 435.27824078748381, 30.0, 30.0 ]
				}

			}
, 			{
				"box" : 				{
					"comment" : "",
					"id" : "obj-1011",
					"index" : 0,
					"maxclass" : "inlet",
					"numinlets" : 0,
					"numoutlets" : 1,
					"outlettype" : [ "" ],
					"patching_rect" : [ 1187.10579077937291, 472.000036409258428, 30.0, 30.0 ]
				}

			}
, 			{
				"box" : 				{
					"comment" : "",
					"id" : "obj-1012",
					"index" : 0,
					"maxclass" : "inlet",
					"numinlets" : 0,
					"numoutlets" : 1,
					"outlettype" : [ "" ],
					"patching_rect" : [ 1272.60579077937291, 472.000036409258428, 30.0, 30.0 ]
				}

			}
, 			{
				"box" : 				{
					"comment" : "",
					"id" : "obj-1013",
					"index" : 0,
					"maxclass" : "inlet",
					"numinlets" : 0,
					"numoutlets" : 1,
					"outlettype" : [ "" ],
					"patching_rect" : [ 1473.0, 472.000036409258428, 30.0, 30.0 ]
				}

			}
, 			{
				"box" : 				{
					"comment" : "",
					"id" : "obj-1017",
					"index" : 0,
					"maxclass" : "inlet",
					"numinlets" : 0,
					"numoutlets" : 1,
					"outlettype" : [ "" ],
					"patching_rect" : [ 1558.5, 472.000036409258428, 30.0, 30.0 ]
				}

			}
, 			{
				"box" : 				{
					"comment" : "",
					"id" : "obj-1021",
					"index" : 0,
					"maxclass" : "outlet",
					"numinlets" : 1,
					"numoutlets" : 0,
					"patching_rect" : [ 519.750001899965127, 1330.969893658149886, 30.0, 30.0 ]
				}

			}
, 			{
				"box" : 				{
					"comment" : "",
					"id" : "obj-1028",
					"index" : 0,
					"maxclass" : "outlet",
					"numinlets" : 1,
					"numoutlets" : 0,
					"patching_rect" : [ 565.750001899965127, 1330.969893658149886, 30.0, 30.0 ]
				}

			}
, 			{
				"box" : 				{
					"comment" : "",
					"id" : "obj-1029",
					"index" : 0,
					"maxclass" : "outlet",
					"numinlets" : 1,
					"numoutlets" : 0,
					"patching_rect" : [ 900.605790779372796, 1328.48489940925856, 30.0, 30.0 ]
				}

			}
, 			{
				"box" : 				{
					"comment" : "",
					"id" : "obj-1031",
					"index" : 0,
					"maxclass" : "outlet",
					"numinlets" : 1,
					"numoutlets" : 0,
					"patching_rect" : [ 943.25, 1328.48489940925856, 30.0, 30.0 ]
				}

			}
, 			{
				"box" : 				{
					"comment" : "",
					"id" : "obj-1032",
					"index" : 0,
					"maxclass" : "outlet",
					"numinlets" : 1,
					"numoutlets" : 0,
					"patching_rect" : [ 1199.863526899965109, 1373.48489940925856, 30.0, 30.0 ]
				}

			}
, 			{
				"box" : 				{
					"comment" : "",
					"id" : "obj-1038",
					"index" : 0,
					"maxclass" : "outlet",
					"numinlets" : 1,
					"numoutlets" : 0,
					"patching_rect" : [ 1264.863526899965109, 1373.48489940925856, 30.0, 30.0 ]
				}

			}
 ],
		"lines" : [ 			{
				"patchline" : 				{
					"destination" : [ "obj-874", 1 ],
					"source" : [ "obj-1", 1 ]
				}

			}
, 			{
				"patchline" : 				{
					"destination" : [ "obj-874", 0 ],
					"source" : [ "obj-1", 0 ]
				}

			}
, 			{
				"patchline" : 				{
					"destination" : [ "obj-125", 2 ],
					"order" : 0,
					"source" : [ "obj-10", 0 ]
				}

			}
, 			{
				"patchline" : 				{
					"destination" : [ "obj-59", 2 ],
					"order" : 1,
					"source" : [ "obj-10", 0 ]
				}

			}
, 			{
				"patchline" : 				{
					"destination" : [ "obj-956", 1 ],
					"source" : [ "obj-1005", 0 ]
				}

			}
, 			{
				"patchline" : 				{
					"destination" : [ "obj-10", 0 ],
					"order" : 0,
					"source" : [ "obj-1011", 0 ]
				}

			}
, 			{
				"patchline" : 				{
					"destination" : [ "obj-1148", 0 ],
					"order" : 1,
					"source" : [ "obj-1011", 0 ]
				}

			}
, 			{
				"patchline" : 				{
					"destination" : [ "obj-1148", 1 ],
					"order" : 1,
					"source" : [ "obj-1012", 0 ]
				}

			}
, 			{
				"patchline" : 				{
					"destination" : [ "obj-17", 0 ],
					"order" : 0,
					"source" : [ "obj-1012", 0 ]
				}

			}
, 			{
				"patchline" : 				{
					"destination" : [ "obj-10", 1 ],
					"order" : 1,
					"source" : [ "obj-1013", 0 ]
				}

			}
, 			{
				"patchline" : 				{
					"destination" : [ "obj-1144", 0 ],
					"order" : 0,
					"source" : [ "obj-1013", 0 ]
				}

			}
, 			{
				"patchline" : 				{
					"destination" : [ "obj-1144", 1 ],
					"order" : 0,
					"source" : [ "obj-1017", 0 ]
				}

			}
, 			{
				"patchline" : 				{
					"destination" : [ "obj-17", 1 ],
					"order" : 1,
					"source" : [ "obj-1017", 0 ]
				}

			}
, 			{
				"patchline" : 				{
					"destination" : [ "obj-484", 0 ],
					"source" : [ "obj-11", 1 ]
				}

			}
, 			{
				"patchline" : 				{
					"destination" : [ "obj-1116", 2 ],
					"source" : [ "obj-1100", 0 ]
				}

			}
, 			{
				"patchline" : 				{
					"destination" : [ "obj-1117", 2 ],
					"source" : [ "obj-1107", 0 ]
				}

			}
, 			{
				"patchline" : 				{
					"destination" : [ "obj-4", 1 ],
					"source" : [ "obj-1116", 1 ]
				}

			}
, 			{
				"patchline" : 				{
					"destination" : [ "obj-4", 0 ],
					"source" : [ "obj-1116", 0 ]
				}

			}
, 			{
				"patchline" : 				{
					"destination" : [ "obj-4", 1 ],
					"source" : [ "obj-1117", 1 ]
				}

			}
, 			{
				"patchline" : 				{
					"destination" : [ "obj-4", 0 ],
					"source" : [ "obj-1117", 0 ]
				}

			}
, 			{
				"patchline" : 				{
					"destination" : [ "obj-1144", 2 ],
					"source" : [ "obj-1131", 0 ]
				}

			}
, 			{
				"patchline" : 				{
					"destination" : [ "obj-1148", 2 ],
					"source" : [ "obj-1132", 0 ]
				}

			}
, 			{
				"patchline" : 				{
					"destination" : [ "obj-125", 1 ],
					"source" : [ "obj-1144", 1 ]
				}

			}
, 			{
				"patchline" : 				{
					"destination" : [ "obj-125", 0 ],
					"source" : [ "obj-1144", 0 ]
				}

			}
, 			{
				"patchline" : 				{
					"destination" : [ "obj-59", 1 ],
					"source" : [ "obj-1148", 1 ]
				}

			}
, 			{
				"patchline" : 				{
					"destination" : [ "obj-59", 0 ],
					"source" : [ "obj-1148", 0 ]
				}

			}
, 			{
				"patchline" : 				{
					"destination" : [ "obj-2", 0 ],
					"source" : [ "obj-12", 1 ]
				}

			}
, 			{
				"patchline" : 				{
					"destination" : [ "obj-2", 1 ],
					"source" : [ "obj-125", 1 ]
				}

			}
, 			{
				"patchline" : 				{
					"destination" : [ "obj-2", 0 ],
					"source" : [ "obj-125", 0 ]
				}

			}
, 			{
				"patchline" : 				{
					"destination" : [ "obj-125", 0 ],
					"source" : [ "obj-13", 1 ]
				}

			}
, 			{
				"patchline" : 				{
					"destination" : [ "obj-59", 0 ],
					"source" : [ "obj-14", 1 ]
				}

			}
, 			{
				"patchline" : 				{
					"destination" : [ "obj-85", 0 ],
					"source" : [ "obj-15", 1 ]
				}

			}
, 			{
				"patchline" : 				{
					"destination" : [ "obj-1", 0 ],
					"source" : [ "obj-16", 1 ]
				}

			}
, 			{
				"patchline" : 				{
					"destination" : [ "obj-125", 3 ],
					"order" : 0,
					"source" : [ "obj-17", 0 ]
				}

			}
, 			{
				"patchline" : 				{
					"destination" : [ "obj-59", 3 ],
					"order" : 1,
					"source" : [ "obj-17", 0 ]
				}

			}
, 			{
				"patchline" : 				{
					"destination" : [ "obj-1", 1 ],
					"source" : [ "obj-2", 1 ]
				}

			}
, 			{
				"patchline" : 				{
					"destination" : [ "obj-1", 0 ],
					"source" : [ "obj-2", 0 ]
				}

			}
, 			{
				"patchline" : 				{
					"destination" : [ "obj-8", 0 ],
					"source" : [ "obj-3", 1 ]
				}

			}
, 			{
				"patchline" : 				{
					"destination" : [ "obj-1021", 0 ],
					"source" : [ "obj-4", 0 ]
				}

			}
, 			{
				"patchline" : 				{
					"destination" : [ "obj-1028", 0 ],
					"source" : [ "obj-4", 1 ]
				}

			}
, 			{
				"patchline" : 				{
					"destination" : [ "obj-7", 0 ],
					"source" : [ "obj-42", 0 ]
				}

			}
, 			{
				"patchline" : 				{
					"destination" : [ "obj-32", 0 ],
					"midpoints" : [ 2039.129137520228596, 562.0, 1916.906058623574154, 562.0 ],
					"source" : [ "obj-44", 0 ]
				}

			}
, 			{
				"patchline" : 				{
					"destination" : [ "obj-32", 0 ],
					"midpoints" : [ 1840.977499232784339, 562.0, 1916.906058623574154, 562.0 ],
					"source" : [ "obj-45", 0 ]
				}

			}
, 			{
				"patchline" : 				{
					"destination" : [ "obj-874", 0 ],
					"source" : [ "obj-48", 1 ]
				}

			}
, 			{
				"patchline" : 				{
					"destination" : [ "obj-85", 1 ],
					"source" : [ "obj-484", 1 ]
				}

			}
, 			{
				"patchline" : 				{
					"destination" : [ "obj-85", 0 ],
					"source" : [ "obj-484", 0 ]
				}

			}
, 			{
				"patchline" : 				{
					"destination" : [ "obj-6", 0 ],
					"source" : [ "obj-5", 0 ]
				}

			}
, 			{
				"patchline" : 				{
					"destination" : [ "obj-484", 1 ],
					"source" : [ "obj-59", 1 ]
				}

			}
, 			{
				"patchline" : 				{
					"destination" : [ "obj-484", 0 ],
					"source" : [ "obj-59", 0 ]
				}

			}
, 			{
				"patchline" : 				{
					"destination" : [ "obj-32", 0 ],
					"midpoints" : [ 2140.506056978485958, 562.0, 1916.906058623574154, 562.0 ],
					"source" : [ "obj-6", 0 ]
				}

			}
, 			{
				"patchline" : 				{
					"destination" : [ "obj-45", 0 ],
					"source" : [ "obj-7", 0 ]
				}

			}
, 			{
				"patchline" : 				{
					"destination" : [ "obj-1029", 0 ],
					"source" : [ "obj-8", 0 ]
				}

			}
, 			{
				"patchline" : 				{
					"destination" : [ "obj-1031", 0 ],
					"source" : [ "obj-8", 1 ]
				}

			}
, 			{
				"patchline" : 				{
					"destination" : [ "obj-44", 0 ],
					"midpoints" : [ 2140.929137651358815, 473.095178232866942, 2116.477499232784339, 473.095178232866942, 2116.477499232784339, 499.095178232866942, 2039.129137520228596, 499.095178232866942 ],
					"order" : 1,
					"source" : [ "obj-84", 0 ]
				}

			}
, 			{
				"patchline" : 				{
					"destination" : [ "obj-5", 0 ],
					"order" : 0,
					"source" : [ "obj-84", 0 ]
				}

			}
, 			{
				"patchline" : 				{
					"destination" : [ "obj-874", 1 ],
					"source" : [ "obj-85", 1 ]
				}

			}
, 			{
				"patchline" : 				{
					"destination" : [ "obj-874", 0 ],
					"source" : [ "obj-85", 0 ]
				}

			}
, 			{
				"patchline" : 				{
					"destination" : [ "obj-1032", 0 ],
					"source" : [ "obj-874", 0 ]
				}

			}
, 			{
				"patchline" : 				{
					"destination" : [ "obj-1038", 0 ],
					"source" : [ "obj-874", 1 ]
				}

			}
, 			{
				"patchline" : 				{
					"destination" : [ "obj-32", 0 ],
					"midpoints" : [ 1916.906058623574154, 511.0, 1916.906058623574154, 511.0 ],
					"source" : [ "obj-89", 0 ]
				}

			}
, 			{
				"patchline" : 				{
					"destination" : [ "obj-4", 0 ],
					"source" : [ "obj-9", 1 ]
				}

			}
, 			{
				"patchline" : 				{
					"destination" : [ "obj-8", 1 ],
					"source" : [ "obj-950", 1 ]
				}

			}
, 			{
				"patchline" : 				{
					"destination" : [ "obj-8", 0 ],
					"source" : [ "obj-950", 0 ]
				}

			}
, 			{
				"patchline" : 				{
					"destination" : [ "obj-1117", 0 ],
					"source" : [ "obj-953", 0 ]
				}

			}
, 			{
				"patchline" : 				{
					"destination" : [ "obj-8", 1 ],
					"source" : [ "obj-956", 1 ]
				}

			}
, 			{
				"patchline" : 				{
					"destination" : [ "obj-8", 0 ],
					"source" : [ "obj-956", 0 ]
				}

			}
, 			{
				"patchline" : 				{
					"destination" : [ "obj-32", 0 ],
					"midpoints" : [ 1928.906058623574154, 562.0, 1916.906058623574154, 562.0 ],
					"source" : [ "obj-96", 0 ]
				}

			}
, 			{
				"patchline" : 				{
					"destination" : [ "obj-1117", 1 ],
					"source" : [ "obj-963", 0 ]
				}

			}
, 			{
				"patchline" : 				{
					"destination" : [ "obj-1116", 0 ],
					"source" : [ "obj-966", 0 ]
				}

			}
, 			{
				"patchline" : 				{
					"destination" : [ "obj-1116", 1 ],
					"source" : [ "obj-967", 0 ]
				}

			}
, 			{
				"patchline" : 				{
					"destination" : [ "obj-950", 2 ],
					"source" : [ "obj-972", 0 ]
				}

			}
, 			{
				"patchline" : 				{
					"destination" : [ "obj-950", 0 ],
					"source" : [ "obj-975", 0 ]
				}

			}
, 			{
				"patchline" : 				{
					"destination" : [ "obj-956", 2 ],
					"source" : [ "obj-983", 0 ]
				}

			}
, 			{
				"patchline" : 				{
					"destination" : [ "obj-950", 1 ],
					"source" : [ "obj-984", 0 ]
				}

			}
, 			{
				"patchline" : 				{
					"destination" : [ "obj-956", 0 ],
					"source" : [ "obj-995", 0 ]
				}

			}
 ],
		"parameters" : 		{
			"obj-125" : [ "vst~[1]", "vst~[1]", 0 ],
			"obj-4" : [ "v low vol", "v low vol", 0 ],
			"obj-59" : [ "vst~", "vst~", 0 ],
			"obj-8" : [ "low vol", "low vol", 0 ],
			"obj-874" : [ "high gain[1]", "high gain", 0 ],
			"parameterbanks" : 			{
				"0" : 				{
					"index" : 0,
					"name" : "",
					"parameters" : [ "-", "-", "-", "-", "-", "-", "-", "-" ]
				}

			}
,
			"inherited_shortname" : 1
		}
,
		"dependency_cache" : [ 			{
				"name" : "Color_Limiter.amxd",
				"bootpath" : "~/Music/_repo/sousastep/Sousastep Audio FX/patchers",
				"patcherrelativepath" : ".",
				"type" : "amxd",
				"implicit" : 1
			}
, 			{
				"name" : "GMaudio Clipper 1.1.amxd",
				"bootpath" : "~/Music/_repo/sousastep/Sousastep Audio FX/patchers",
				"patcherrelativepath" : ".",
				"type" : "amxd",
				"implicit" : 1
			}
, 			{
				"name" : "amazing-noises-logo_white-11px.svg",
				"bootpath" : "~/Music/_repo/sousastep/Sousastep Audio FX/media",
				"patcherrelativepath" : "../media",
				"type" : "svg",
				"implicit" : 1
			}
, 			{
				"name" : "grmeter.js",
				"bootpath" : "~/Music/_repo/sousastep/Sousastep Audio FX/code",
				"patcherrelativepath" : "../code",
				"type" : "TEXT",
				"implicit" : 1
			}
, 			{
				"name" : "grmeterbg.js",
				"bootpath" : "~/Music/_repo/sousastep/Sousastep Audio FX/code",
				"patcherrelativepath" : "../code",
				"type" : "TEXT",
				"implicit" : 1
			}
, 			{
				"name" : "livedial_override.js",
				"bootpath" : "~/Music/_repo/sousastep/Sousastep Audio FX/code",
				"patcherrelativepath" : "../code",
				"type" : "TEXT",
				"implicit" : 1
			}
, 			{
				"name" : "muteme.maxpat",
				"bootpath" : "~/Music/_repo/sousastep/Sousastep Audio FX/patchers",
				"patcherrelativepath" : ".",
				"type" : "JSON",
				"implicit" : 1
			}
, 			{
				"name" : "post-triplewrap_mixbus.json",
				"bootpath" : "~/Music/_repo/sousastep/Sousastep Audio FX/data",
				"patcherrelativepath" : "../data",
				"type" : "JSON",
				"implicit" : 1
			}
, 			{
				"name" : "vs.gen.onepole.gendsp",
				"bootpath" : "~/Music/_repo/sousastep/Sousastep Audio FX/code",
				"patcherrelativepath" : "../code",
				"type" : "gDSP",
				"implicit" : 1
			}
, 			{
				"name" : "vs.gen.rampsmooth.gendsp",
				"bootpath" : "~/Music/_repo/sousastep/Sousastep Audio FX/code",
				"patcherrelativepath" : "../code",
				"type" : "gDSP",
				"implicit" : 1
			}
, 			{
				"name" : "vs.gen.smoother.gendsp",
				"bootpath" : "~/Music/_repo/sousastep/Sousastep Audio FX/code",
				"patcherrelativepath" : "../code",
				"type" : "gDSP",
				"implicit" : 1
			}
, 			{
				"name" : "vs.gen.xfade.gendsp",
				"bootpath" : "~/Music/_repo/sousastep/Sousastep Audio FX/code",
				"patcherrelativepath" : "../code",
				"type" : "gDSP",
				"implicit" : 1
			}
 ],
		"autosave" : 0
	}

}
