{
	"patcher" : 	{
		"fileversion" : 1,
		"appversion" : 		{
			"major" : 8,
			"minor" : 5,
			"revision" : 4,
			"architecture" : "x64",
			"modernui" : 1
		}
,
		"classnamespace" : "box",
		"rect" : [ -196.0, -993.0, 1371.0, 959.0 ],
		"bglocked" : 0,
		"openinpresentation" : 1,
		"default_fontsize" : 12.0,
		"default_fontface" : 0,
		"default_fontname" : "Arial",
		"gridonopen" : 1,
		"gridsize" : [ 15.0, 15.0 ],
		"gridsnaponopen" : 1,
		"objectsnaponopen" : 1,
		"statusbarvisible" : 2,
		"toolbarvisible" : 1,
		"lefttoolbarpinned" : 0,
		"toptoolbarpinned" : 0,
		"righttoolbarpinned" : 0,
		"bottomtoolbarpinned" : 0,
		"toolbars_unpinned_last_save" : 0,
		"tallnewobj" : 0,
		"boxanimatetime" : 200,
		"enablehscroll" : 1,
		"enablevscroll" : 1,
		"devicewidth" : 0.0,
		"description" : "",
		"digest" : "",
		"tags" : "",
		"style" : "",
		"subpatcher_template" : "",
		"assistshowspatchername" : 0,
		"boxes" : [ 			{
				"box" : 				{
					"id" : "obj-51",
					"maxclass" : "newobj",
					"numinlets" : 1,
					"numoutlets" : 1,
					"outlettype" : [ "signal" ],
					"patching_rect" : [ 921.235235353376538, 1318.48489940925856, 31.0, 22.0 ],
					"text" : "sig~"
				}

			}
, 			{
				"box" : 				{
					"id" : "obj-33",
					"maxclass" : "newobj",
					"numinlets" : 1,
					"numoutlets" : 1,
					"outlettype" : [ "signal" ],
					"patching_rect" : [ 1010.0, 1318.48489940925856, 31.0, 22.0 ],
					"text" : "sig~"
				}

			}
, 			{
				"box" : 				{
					"id" : "obj-52",
					"maxclass" : "number",
					"numinlets" : 1,
					"numoutlets" : 2,
					"outlettype" : [ "", "bang" ],
					"parameter_enable" : 0,
					"patching_rect" : [ 1070.0, 1301.0, 50.0, 22.0 ]
				}

			}
, 			{
				"box" : 				{
					"id" : "obj-38",
					"maxclass" : "number",
					"numinlets" : 1,
					"numoutlets" : 2,
					"outlettype" : [ "", "bang" ],
					"parameter_enable" : 0,
					"patching_rect" : [ 1061.0, 1262.0, 50.0, 22.0 ]
				}

			}
, 			{
				"box" : 				{
					"id" : "obj-56",
					"maxclass" : "newobj",
					"numinlets" : 3,
					"numoutlets" : 1,
					"outlettype" : [ "signal" ],
					"patching_rect" : [ 912.0, 1348.48489940925856, 87.0, 22.0 ],
					"text" : "slide~ 480 480"
				}

			}
, 			{
				"box" : 				{
					"id" : "obj-55",
					"maxclass" : "newobj",
					"numinlets" : 3,
					"numoutlets" : 1,
					"outlettype" : [ "signal" ],
					"patching_rect" : [ 1010.0, 1348.48489940925856, 87.0, 22.0 ],
					"text" : "slide~ 480 480"
				}

			}
, 			{
				"box" : 				{
					"id" : "obj-54",
					"maxclass" : "newobj",
					"numinlets" : 1,
					"numoutlets" : 1,
					"outlettype" : [ "bang" ],
					"patching_rect" : [ 899.735235353376538, 1126.484994248891326, 22.0, 22.0 ],
					"text" : "t b"
				}

			}
, 			{
				"box" : 				{
					"id" : "obj-50",
					"maxclass" : "newobj",
					"numinlets" : 2,
					"numoutlets" : 1,
					"outlettype" : [ "int" ],
					"patching_rect" : [ 982.0, 1254.0, 29.5, 22.0 ],
					"text" : "-"
				}

			}
, 			{
				"box" : 				{
					"id" : "obj-49",
					"maxclass" : "newobj",
					"numinlets" : 2,
					"numoutlets" : 1,
					"outlettype" : [ "int" ],
					"patching_rect" : [ 926.863526899965109, 1254.0, 29.5, 22.0 ],
					"text" : "-"
				}

			}
, 			{
				"box" : 				{
					"id" : "obj-47",
					"maxclass" : "newobj",
					"numinlets" : 3,
					"numoutlets" : 1,
					"outlettype" : [ "" ],
					"patching_rect" : [ 982.0, 1291.0, 47.0, 22.0 ],
					"text" : "clip 0 1"
				}

			}
, 			{
				"box" : 				{
					"id" : "obj-40",
					"maxclass" : "newobj",
					"numinlets" : 3,
					"numoutlets" : 1,
					"outlettype" : [ "" ],
					"patching_rect" : [ 926.863526899965109, 1291.0, 47.0, 22.0 ],
					"text" : "clip 0 1"
				}

			}
, 			{
				"box" : 				{
					"id" : "obj-12",
					"maxclass" : "newobj",
					"numinlets" : 0,
					"numoutlets" : 1,
					"outlettype" : [ "" ],
					"patching_rect" : [ 956.5, 1155.0, 55.0, 22.0 ],
					"text" : "r options"
				}

			}
, 			{
				"box" : 				{
					"id" : "obj-43",
					"maxclass" : "newobj",
					"numinlets" : 0,
					"numoutlets" : 1,
					"outlettype" : [ "" ],
					"patching_rect" : [ 815.735235353376538, 39.017397878947463, 179.0, 22.0 ],
					"text" : "r post-triplewrap_mixbus_preset"
				}

			}
, 			{
				"box" : 				{
					"id" : "obj-46",
					"maxclass" : "button",
					"numinlets" : 1,
					"numoutlets" : 1,
					"outlettype" : [ "bang" ],
					"parameter_enable" : 0,
					"patching_rect" : [ 1461.0, 534.153616388319506, 24.0, 24.0 ],
					"presentation" : 1,
					"presentation_rect" : [ 297.128291546588571, 118.063454559298634, 24.0, 24.0 ]
				}

			}
, 			{
				"box" : 				{
					"id" : "obj-41",
					"maxclass" : "button",
					"numinlets" : 1,
					"numoutlets" : 1,
					"outlettype" : [ "bang" ],
					"parameter_enable" : 0,
					"patching_rect" : [ 790.0, 547.0, 24.0, 24.0 ],
					"presentation" : 1,
					"presentation_rect" : [ 297.128291546588571, 89.563454559298634, 24.0, 24.0 ]
				}

			}
, 			{
				"box" : 				{
					"fontname" : "Ableton Sans Light",
					"id" : "obj-39",
					"maxclass" : "comment",
					"numinlets" : 0,
					"numoutlets" : 0,
					"patching_rect" : [ 1334.477499232784339, 536.153616388319506, 122.0, 21.0 ],
					"presentation" : 1,
					"presentation_rect" : [ 180.60579077937291, 119.563454559298634, 122.0, 21.0 ],
					"suppressinlet" : 1,
					"text" : "open high mod comp:"
				}

			}
, 			{
				"box" : 				{
					"fontname" : "Ableton Sans Light",
					"id" : "obj-34",
					"maxclass" : "comment",
					"numinlets" : 0,
					"numoutlets" : 0,
					"patching_rect" : [ 673.0, 548.5, 114.0, 21.0 ],
					"presentation" : 1,
					"presentation_rect" : [ 186.128291546588571, 91.063454559298634, 116.0, 21.0 ],
					"suppressinlet" : 1,
					"text" : "open high dry comp:"
				}

			}
, 			{
				"box" : 				{
					"id" : "obj-21",
					"maxclass" : "message",
					"numinlets" : 2,
					"numoutlets" : 1,
					"outlettype" : [ "" ],
					"patching_rect" : [ 1461.0, 569.685347274049832, 35.0, 22.0 ],
					"text" : "open"
				}

			}
, 			{
				"box" : 				{
					"id" : "obj-16",
					"maxclass" : "message",
					"numinlets" : 2,
					"numoutlets" : 1,
					"outlettype" : [ "" ],
					"patching_rect" : [ 673.0, 593.531730885730326, 35.0, 22.0 ],
					"text" : "open"
				}

			}
, 			{
				"box" : 				{
					"floatoutput" : 1,
					"id" : "obj-37",
					"maxclass" : "dial",
					"numinlets" : 1,
					"numoutlets" : 1,
					"outlettype" : [ "float" ],
					"parameter_enable" : 0,
					"patching_rect" : [ 731.25, 1318.48489940925856, 31.75, 31.75 ],
					"presentation" : 1,
					"presentation_rect" : [ 249.988526899965109, 680.392208389259395, 20.75, 20.75 ],
					"size" : 1.0
				}

			}
, 			{
				"box" : 				{
					"floatoutput" : 1,
					"id" : "obj-36",
					"maxclass" : "dial",
					"numinlets" : 1,
					"numoutlets" : 1,
					"outlettype" : [ "float" ],
					"parameter_enable" : 0,
					"patching_rect" : [ 511.105790779372796, 1203.0, 31.75, 31.75 ],
					"presentation" : 1,
					"presentation_rect" : [ 169.230790779372796, 680.392208389259395, 20.75, 20.75 ],
					"size" : 1.0
				}

			}
, 			{
				"box" : 				{
					"floatoutput" : 1,
					"id" : "obj-35",
					"maxclass" : "dial",
					"numinlets" : 1,
					"numoutlets" : 1,
					"outlettype" : [ "float" ],
					"parameter_enable" : 0,
					"patching_rect" : [ 204.750001899965127, 1203.0, 31.75, 31.75 ],
					"presentation" : 1,
					"presentation_rect" : [ 119.23079077937291, 680.392208389259395, 20.75, 20.75 ],
					"size" : 1.0
				}

			}
, 			{
				"box" : 				{
					"autosave" : 0,
					"bgmode" : 1,
					"border" : 0,
					"clickthrough" : 0,
					"enablehscroll" : 0,
					"enablevscroll" : 0,
					"id" : "obj-25",
					"lockeddragscroll" : 0,
					"lockedsize" : 0,
					"maxclass" : "newobj",
					"numinlets" : 3,
					"numoutlets" : 4,
					"offset" : [ 0.0, 0.0 ],
					"outlettype" : [ "signal", "signal", "", "" ],
					"patching_rect" : [ 815.735235353376538, 733.809075306784962, 242.0, 170.0 ],
					"presentation" : 1,
					"presentation_rect" : [ 84.60579077937291, 152.33333420753479, 242.0, 170.0 ],
					"saved_attribute_attributes" : 					{
						"valueof" : 						{
							"parameter_initial" : [ 								{
									"filetype" : "C74Snapshot",
									"version" : 2,
									"minorversion" : 0,
									"name" : "GMaudio Clipper 2.0.amxd",
									"origin" : "GMaudio Clipper 2.0.amxd",
									"type" : "amxd",
									"subtype" : "Undefined",
									"embed" : 1,
									"snapshot" : 									{
										"name" : "GMaudio Clipper 2.0.amxd",
										"origname" : "~/Music/_repo/sousastep/Sousastep Audio FX/patchers/GMaudio Clipper 2.0.amxd",
										"valuedictionary" : 										{
											"parameter_values" : 											{

											}

										}

									}

								}
 ],
							"parameter_initial_enable" : 1,
							"parameter_invisible" : 1,
							"parameter_longname" : "Clipper2",
							"parameter_shortname" : "Clipper2",
							"parameter_type" : 3
						}

					}
,
					"saved_object_attributes" : 					{
						"autosave" : 0,
						"parameter_enable" : 1,
						"patchername" : "GMaudio Clipper 2.0.amxd",
						"patchername_fallback" : "~/Music/_repo/sousastep/Sousastep Audio FX/patchers/GMaudio Clipper 2.0.amxd",
						"showheader" : 0
					}
,
					"text" : "amxd~ \"GMaudio Clipper 2.0.amxd\"",
					"varname" : "Clipper2",
					"viewvisibility" : 1
				}

			}
, 			{
				"box" : 				{
					"id" : "obj-24",
					"maxclass" : "newobj",
					"numinlets" : 1,
					"numoutlets" : 1,
					"outlettype" : [ "" ],
					"patching_rect" : [ 26.25, 1070.0, 70.0, 22.0 ],
					"text" : "loadmess 1"
				}

			}
, 			{
				"box" : 				{
					"id" : "obj-31",
					"maxclass" : "newobj",
					"numinlets" : 2,
					"numoutlets" : 1,
					"outlettype" : [ "signal" ],
					"patching_rect" : [ 866.735235353376538, 1411.48489940925856, 29.5, 22.0 ],
					"text" : "*~"
				}

			}
, 			{
				"box" : 				{
					"id" : "obj-30",
					"maxclass" : "newobj",
					"numinlets" : 2,
					"numoutlets" : 1,
					"outlettype" : [ "signal" ],
					"patching_rect" : [ 814.735235353376538, 1411.48489940925856, 29.5, 22.0 ],
					"text" : "*~"
				}

			}
, 			{
				"box" : 				{
					"id" : "obj-29",
					"maxclass" : "newobj",
					"numinlets" : 2,
					"numoutlets" : 1,
					"outlettype" : [ "signal" ],
					"patching_rect" : [ 589.85579077937291, 1114.0, 29.5, 22.0 ],
					"text" : "*~"
				}

			}
, 			{
				"box" : 				{
					"id" : "obj-28",
					"maxclass" : "newobj",
					"numinlets" : 2,
					"numoutlets" : 1,
					"outlettype" : [ "signal" ],
					"patching_rect" : [ 552.85579077937291, 1114.0, 29.5, 22.0 ],
					"text" : "*~"
				}

			}
, 			{
				"box" : 				{
					"id" : "obj-27",
					"maxclass" : "newobj",
					"numinlets" : 2,
					"numoutlets" : 1,
					"outlettype" : [ "signal" ],
					"patching_rect" : [ 188.812272899965137, 1110.0, 29.5, 22.0 ],
					"text" : "*~"
				}

			}
, 			{
				"box" : 				{
					"id" : "obj-26",
					"maxclass" : "newobj",
					"numinlets" : 2,
					"numoutlets" : 1,
					"outlettype" : [ "signal" ],
					"patching_rect" : [ 148.812272899965137, 1110.0, 29.5, 22.0 ],
					"text" : "*~"
				}

			}
, 			{
				"box" : 				{
					"id" : "obj-22",
					"maxclass" : "newobj",
					"numinlets" : 6,
					"numoutlets" : 1,
					"outlettype" : [ "" ],
					"patching_rect" : [ 425.355790779372796, 842.0, 87.0, 22.0 ],
					"text" : "scale 0 70 0 1."
				}

			}
, 			{
				"box" : 				{
					"id" : "obj-20",
					"maxclass" : "newobj",
					"numinlets" : 6,
					"numoutlets" : 1,
					"outlettype" : [ "" ],
					"patching_rect" : [ 371.25, 812.809075306784962, 87.0, 22.0 ],
					"text" : "scale 0 70 0 1."
				}

			}
, 			{
				"box" : 				{
					"id" : "obj-2",
					"maxclass" : "newobj",
					"numinlets" : 6,
					"numoutlets" : 1,
					"outlettype" : [ "" ],
					"patching_rect" : [ 318.25, 783.809075306784962, 87.0, 22.0 ],
					"text" : "scale 0 70 0 1."
				}

			}
, 			{
				"box" : 				{
					"id" : "obj-1",
					"maxclass" : "newobj",
					"numinlets" : 4,
					"numoutlets" : 4,
					"outlettype" : [ "", "", "", "" ],
					"patching_rect" : [ 390.916666666666686, 733.809075306784962, 86.0, 22.0 ],
					"text" : "route 27 28 29"
				}

			}
, 			{
				"box" : 				{
					"id" : "obj-23",
					"maxclass" : "newobj",
					"numinlets" : 7,
					"numoutlets" : 7,
					"outlettype" : [ "", "", "", "", "", "", "" ],
					"patching_rect" : [ 317.0, 238.0, 136.0, 22.0 ],
					"text" : "route 21 22 23 24 25 26"
				}

			}
, 			{
				"box" : 				{
					"id" : "obj-19",
					"maxclass" : "newobj",
					"numinlets" : 1,
					"numoutlets" : 8,
					"outlettype" : [ "", "", "", "int", "int", "", "int", "" ],
					"patching_rect" : [ 296.0, 200.0, 92.5, 22.0 ],
					"text" : "midiparse"
				}

			}
, 			{
				"box" : 				{
					"id" : "obj-18",
					"maxclass" : "newobj",
					"numinlets" : 1,
					"numoutlets" : 1,
					"outlettype" : [ "int" ],
					"patching_rect" : [ 296.0, 163.0, 98.0, 22.0 ],
					"text" : "midiin \"to Max 1\""
				}

			}
, 			{
				"box" : 				{
					"id" : "obj-10",
					"maxclass" : "newobj",
					"numinlets" : 2,
					"numoutlets" : 1,
					"outlettype" : [ "signal" ],
					"patching_rect" : [ 1029.235235353376538, 568.685347274049946, 29.5, 22.0 ],
					"text" : "+~"
				}

			}
, 			{
				"box" : 				{
					"id" : "obj-17",
					"maxclass" : "newobj",
					"numinlets" : 2,
					"numoutlets" : 1,
					"outlettype" : [ "signal" ],
					"patching_rect" : [ 1072.212734586160877, 568.685347274049946, 29.5, 22.0 ],
					"text" : "+~"
				}

			}
, 			{
				"box" : 				{
					"fontname" : "Silom",
					"id" : "obj-9",
					"maxclass" : "newobj",
					"numinlets" : 1,
					"numoutlets" : 3,
					"outlettype" : [ "", "", "" ],
					"patching_rect" : [ 232.605790779372796, 1060.484994248891326, 164.0, 24.0 ],
					"restore" : [ -7.0 ],
					"saved_object_attributes" : 					{
						"parameter_enable" : 0,
						"parameter_mappable" : 0
					}
,
					"text" : "pattr very_low_volume",
					"varname" : "very_low_volume"
				}

			}
, 			{
				"box" : 				{
					"fontname" : "Silom",
					"id" : "obj-3",
					"maxclass" : "newobj",
					"numinlets" : 1,
					"numoutlets" : 3,
					"outlettype" : [ "", "", "" ],
					"patching_rect" : [ 405.855790779372796, 1060.484994248891326, 126.0, 24.0 ],
					"restore" : [ -6.0 ],
					"saved_object_attributes" : 					{
						"parameter_enable" : 0,
						"parameter_mappable" : 0
					}
,
					"text" : "pattr low_volume",
					"varname" : "low_volume"
				}

			}
, 			{
				"box" : 				{
					"id" : "obj-8",
					"lastchannelcount" : 0,
					"maxclass" : "live.gain~",
					"numinlets" : 2,
					"numoutlets" : 5,
					"outlettype" : [ "signal", "signal", "", "float", "list" ],
					"parameter_enable" : 1,
					"patching_rect" : [ 543.605790779372796, 1159.484994248891326, 48.0, 136.0 ],
					"presentation" : 1,
					"presentation_rect" : [ 155.605790779372796, 594.392208389259395, 48.0, 84.0 ],
					"saved_attribute_attributes" : 					{
						"valueof" : 						{
							"parameter_longname" : "low vol",
							"parameter_mmax" : 6.0,
							"parameter_mmin" : -70.0,
							"parameter_shortname" : "low vol",
							"parameter_type" : 0,
							"parameter_unitstyle" : 4
						}

					}
,
					"varname" : "lowvol"
				}

			}
, 			{
				"box" : 				{
					"id" : "obj-4",
					"lastchannelcount" : 0,
					"maxclass" : "live.gain~",
					"numinlets" : 2,
					"numoutlets" : 5,
					"outlettype" : [ "signal", "signal", "", "float", "list" ],
					"parameter_enable" : 1,
					"patching_rect" : [ 155.25, 1159.484994248891326, 48.0, 136.0 ],
					"presentation" : 1,
					"presentation_rect" : [ 105.60579077937291, 594.392208389259395, 48.0, 84.0 ],
					"saved_attribute_attributes" : 					{
						"valueof" : 						{
							"parameter_longname" : "v low vol",
							"parameter_mmax" : 6.0,
							"parameter_mmin" : -70.0,
							"parameter_shortname" : "v low vol",
							"parameter_type" : 0,
							"parameter_unitstyle" : 4
						}

					}
,
					"varname" : "verylowvol"
				}

			}
, 			{
				"box" : 				{
					"fontname" : "Silom",
					"id" : "obj-48",
					"maxclass" : "newobj",
					"numinlets" : 1,
					"numoutlets" : 3,
					"outlettype" : [ "", "", "" ],
					"patching_rect" : [ 626.10579077937291, 1060.484994248891326, 130.0, 24.0 ],
					"restore" : [ -5.0 ],
					"saved_object_attributes" : 					{
						"parameter_enable" : 0,
						"parameter_mappable" : 0
					}
,
					"text" : "pattr high_volume",
					"varname" : "high_volume"
				}

			}
, 			{
				"box" : 				{
					"fontname" : "Silom",
					"id" : "obj-15",
					"maxclass" : "newobj",
					"numinlets" : 1,
					"numoutlets" : 3,
					"outlettype" : [ "", "", "" ],
					"patching_rect" : [ 684.477499232784339, 936.809075306784962, 83.0, 24.0 ],
					"restore" : [ 						{
							"filetype" : "C74Snapshot",
							"version" : 2,
							"minorversion" : 0,
							"name" : "Color_Limiter.amxd",
							"origin" : "Color_Limiter.amxd",
							"type" : "amxd",
							"subtype" : "Undefined",
							"embed" : 1,
							"snapshot" : 							{
								"name" : "Color_Limiter.amxd",
								"origname" : "~/Music/_repo/sousastep/Sousastep Audio FX/patchers/Color_Limiter.amxd",
								"valuedictionary" : 								{
									"parameter_values" : 									{
										"Ceiling" : -6.0,
										"Lookahead" : 0.0,
										"Loudness" : 0.0,
										"Release" : 1039.161649214701811,
										"Saturation" : 0.0,
										"Saturation Color" : 0.5
									}

								}

							}

						}
 ],
					"saved_object_attributes" : 					{
						"parameter_enable" : 0,
						"parameter_mappable" : 0
					}
,
					"text" : "pattr limit1",
					"varname" : "limit1"
				}

			}
, 			{
				"box" : 				{
					"fontname" : "Silom",
					"id" : "obj-13",
					"maxclass" : "newobj",
					"numinlets" : 1,
					"numoutlets" : 3,
					"outlettype" : [ "", "", "" ],
					"patching_rect" : [ 1360.477499232784339, 569.685347274049832, 89.0, 24.0 ],
					"restore" : [ 						{
							"filetype" : "C74Snapshot",
							"version" : 2,
							"minorversion" : 0,
							"name" : "Comp TUBE-STA",
							"origin" : "Comp TUBE-STA.auinfo",
							"type" : "AudioUnit",
							"subtype" : "MidiEffect",
							"embed" : 1,
							"snapshot" : 							{
								"pluginname" : "Comp TUBE-STA.auinfo",
								"plugindisplayname" : "Comp TUBE-STA",
								"pluginsavedname" : "",
								"pluginsaveduniqueid" : 1414747201,
								"version" : 1,
								"isbank" : 0,
								"isbase64" : 1,
								"blob" : "2338.hAGaoMGcv.C1AHv.DTfAGfPBJr.EUXwEXvUag4VclE1XzUmbkIGUjEFcgwUYrUVak4Fcs3VXsU1WP.wPu4Fcx8FarUlbfLEcgQWYWMWchQWdvU1U1Ulbyk1atQEc4AWYT4VXsUlDAIGc08TDAvA..............HB...P.+.H......HfOzjiW....C7Cf.......A9P7llB...TvOqUXG....F.........vA+.H......f..........I7C.......fB+........r..........L.........PC+........3vO........O7Cf.......D.........DA.........h7C.......vH+........PxO........k7C.......fI+........bxO........n7C.......PJ+........nxO........q7C........K+........zB.........t.........vK..........C.........w.........fL.....HMCM3fDQESTxH8CL.QDQASVSQWYxU1afjjaYMUZjU1XnEVZtE8CSn0TzUlbk8FHOUGcOEgA6KiLfLWYxkVXrkldgQWZu4lN5DlbigVZ1UFHw.CHv.xMf.CH2.RLz.Bcu8lXgABZocFZfz1ajABMfT0bkIGHzDCH2.RPxQWcxkVXf.CHf.CHv.BLf.CHv.BLf.CHfDiM2jCL4TCM3PCHw.CHw3RMt.iKz.iMw.BLf.CHv.BLf.CHv.BLf.CHf.CHv.BMf.CHv.BLfDiMf7jbocVZtEFaPE1Xq4TXsUFH1.xTzUlbk8FHwfCHOIWZmklagwFTxU1bkQmSg0VYfbCHDUlYgUGazAxMfLUchQWdvUFHw.CHC8VavIWYyM2axABMfPUdvUFH3.BQ44VXsk1XyABLf.CHv.xMf.CHv.BLf.CHv.BLfHyLf.CHv.BLfXCHBkGbgM2bf.CH4.BQxkGHu.xUkQGHw.RLy.RQtElXrUFHEYlYkMFcfDCHwDCHEgGckImagwFHSMDHv.RL1.RQ3QWYx4VXrAxTCAxQgklaf.iK0.RLz.BRocFZrk1YnQGHM8FYkARLfDCLfjjavUGcfbTXo4FHv3RL2XCLv.CL4.RL2.RRtAWcz8xS0QGb0QGHLklaqABLfDiLfzTRDkDHCgVXt4VYrABLfDSLf7TczAWczAxQgklaf.iK4DSN4jSN4.RLx.hTkwVYgMWYfzzajUFHw.RLx.hTkwVYgMWYfPUZsUFHv3xL3PCHwbCHSMDHDUFckMFco8lafzzajUFHv3RMfDSMfL0PfTTTfHTYrwFHFIWYwABLtTCHwTCHSMDHEEEHBUFarAxQgklaf.iK0.RLy.xTCARQQABRPAhQxUVbf.CHwPCHSMDHEEEHHAkQfXjbkEGHv.RLx.xTCARQQABRPYDHO4FHv.RLy.xTCARQQABSPAhQxUVbfDCHwPCHSMDHEEEHLAkQfXjbkEGHw.RLx.xTCARQQABSPYDHO4FHv.BNfL0PfTTTf7jaf.CHw.CHVElboEFco8layABLfPiLf.CHwfCHMkFYoMzatQmbuwFakImSg0VYfLiLf...........................................fDCMf70WHc0WMEFbvUFYe8ELfPCH+++++CRLz.xWegzUe0TXvAWYj80Ww.BMf7++++OHwTCHe8ERW8USgAGbkQ1WeECLfPCH+++++CRL0.xWegzUe0TXvAWYj80WwDCHz.x+++++fDSMf70WHc0WMEFbvUFYe8ULx.BMf7++++OHwTCHe8ERW8USgAGbkQ1WeEyLfPCH+++++CRL0.xWegzUe0TXvAWYj80WwPCHz.x+++++fDSMf70WHc0WMEFbvUFYe8UL0.BMf7++++OHwTCHe8ERW8USgAGbkQ1WeEiMfPCH+++++CRL0.xWegzUe0TXvAWYj80WwbCHz.x+++++fDSMf70WHc0WMEFbvUFYe8UL3.BMf7++++OHwTCHe8ERW8USgAGbkQ1WeESNfPCH+++++CRLz.xWegzUe0TXvAWYj80Wx.BMf7++++OHwPCHe8ERW8USgAGbkQ1WeMCHz.x+++++fDCMf70WHc0WMEFbvUFYe8EMfPCH+++++CRLz.xWegzUe0TXvAWYj80W0.BMf7++++OHwPCHe8ERW8USgAGbkQ1WeYCHz.x+++++fDCMf70WHc0WMEFbvUFYe80MfPCH+++++CRLz.xWegzUe0TXvAWYj80W3.BMf7++++OHwPCHe8ERW8USgAGbkQ1WekCHz.x+++++fDSLf70WMEFbvUFYe8ELfPCH+++++CRLw.xWe0TXvAWYj80Ww.BMf7++++OHwHCHe8USgAGbkQ1WeECLfPCH+++++CRLx.xWe0TXvAWYj80WwDCHz.x+++++fDiLf70WMEFbvUFYe8ULx.BMf7++++OHwHCHe8USgAGbkQ1WeEyLfPCH+++++CRLx.xWe0TXvAWYj80WwPCHz.x+++++fDiLf70WMEFbvUFYe8UL0.BMf7++++OHwHCHe8USgAGbkQ1WeEiMfPCH+++++CRLx.xWe0TXvAWYj80WwbCHz.x+++++fDiLf70WMEFbvUFYe8UL3.BMf7++++OHwHCHe8USgAGbkQ1WeESNfPCH+++++CRLw.xWe0TXvAWYj80Wx.BMf7++++OHwDCHe8USgAGbkQ1WeMCHz.x+++++fDSLf70WMEFbvUFYe8EMfPCH+++++CRLw.xWe0TXvAWYj80W0.BMf7++++OHwDCHe8USgAGbkQ1WeYCHz.x+++++fDSLf70WMEFbvUFYe80MfPCH+++++CRLw.xWe0TXvAWYj80W3.BMf7++++OHwDCHe8USgAGbkQ1WekCHz.x+++++fHyMf70WSQUPTUzWeIUQSUjTVUDQe8USOQTRFkTQDARLf.iBRP0TTEDD.HQX00lYXUkazkFcrUFY.f..Y.fI.rB.3.vR.LE.aA.X.TF.pEfhA7X.QFvjAfY.ZF.oA3Z.wF.uHrKB.ifvHbL.......f.A.........PF...................BPC"
							}

						}
 ],
					"saved_object_attributes" : 					{
						"parameter_enable" : 0,
						"parameter_mappable" : 0
					}
,
					"text" : "pattr comp2",
					"varname" : "comp2"
				}

			}
, 			{
				"box" : 				{
					"fontname" : "Silom",
					"id" : "obj-14",
					"maxclass" : "newobj",
					"numinlets" : 1,
					"numoutlets" : 3,
					"outlettype" : [ "", "", "" ],
					"patching_rect" : [ 714.477499232784339, 593.531730885730326, 89.0, 24.0 ],
					"restore" : [ 						{
							"filetype" : "C74Snapshot",
							"version" : 2,
							"minorversion" : 0,
							"name" : "Comp TUBE-STA",
							"origin" : "Comp TUBE-STA.auinfo",
							"type" : "AudioUnit",
							"subtype" : "MidiEffect",
							"embed" : 1,
							"snapshot" : 							{
								"pluginname" : "Comp TUBE-STA.auinfo",
								"plugindisplayname" : "Comp TUBE-STA",
								"pluginsavedname" : "",
								"pluginsaveduniqueid" : 1414747201,
								"version" : 1,
								"isbank" : 0,
								"isbase64" : 1,
								"blob" : "2344.hAGaoMGcv.C1AHv.DTfAGfPBJr.EUXwEXvUag4VclE1XzUmbkIGUjEFcgwUYrUVak4Fcs3VXsU1WP.wPu4Fcx8FarUlbfLEcgQWYWMWchQWdvU1U1Ulbyk1atQEc4AWYT4VXsUlDAIGc08TDAvA..............HB...P.+.H......HvO3DE6....C7C........A.........TvOO8sN....F.........vA+.H......f..........I7C.......fB+........r..........L.........PC+........3vO........O7Cf.......D.........DA.........h7C.......vH+........PxO........k7C.......fI+........bxO........n7C.......PJ+........nxO........q7C........K+........zB.........t.........vK..........C.........w.........fL.....HMCM3fDQESTxH8CL.QDQASVSQWYxU1afjjaYMUZjU1XnEVZtE8CSn0TzUlbk8FHOUGcOEwAAHiLfLWYxkVXrkldgQWZu4lN5DlbigVZ1UFHw.CHv.xMf.CH2.hLw.Bcu8lXgABZocFZfPlb4ARZtQGHyMFHz.RUyUlbfPSLfbCHAIGc0IWZgABLf.BLf.CHv.BLf.CHv.BLf.RL1bSNvbiLxXiMfDCLfDiK03BLtPCL1DCHv.BLf.CHv.BLf.CHv.BLf.BLf.CHz.BLf.CHv.RL1.xSxk1Yo4VXrAUXislSg0VYfXCHSQWYxU1afDCNf7jbocVZtEFaPIWYyUFcNEVakAxMfPTYlEVcrQGH2.xT0IFc4AWYfDCLfLzasAmbkM2buIGHz.BU4AWYffCHDkmag0VZiMGHv.BLf.CH2.BLf.CHv.BLf.CHv.hLy.BLf.CHv.hMfHTdvE1byABLfjCHDIWdf7BHWUFcfDCHwLCHE4VXhwVYfTjYlU1XzARLfDSLfTDdzUlbtEFafL0Pf.CHwXCHEgGckImagwFHSMDHGEVZtABLtTCHwPCHHk1YnwVZmgFcfzzajUFHv.RLv.RRtAWczAxQgklaf.iK2HCLv.CLvLCHwbCHI4Fb0Q2KOUGcvUGcfvTZtsFHv.RLx.RSIQTRfLDZg4lakwFHv.RLw.xS0QGb0QGHGEVZtABLtfSLwjSN4jiLfDiLfHUYrUVXyUFHM8FYkABLtTCHwHCHRUFakE1bkABUo0VYf.CHwbCHSMDHDUFckMFco8lafzzajUFHv3RMfDSMfL0PfTTTfHTYrwFHFIWYwABLtTCHwTCHSMDHEEEHBUFarAxQgklaf.iK0.RLy.xTCARQQABRPAhQxUVbf.CHwPCHSMDHEEEHHAkQfXjbkEGHv.RLx.xTCARQQABRPYDHO4FHv.RLy.xTCARQQABSPAhQxUVbfDCHwPCHSMDHEEEHLAkQfXjbkEGHw.RLx.xTCARQQABSPYDHO4FHv.BNfL0PfTTTf7jaf.CHw.CHVElboEFco8layABLfPiLf.CHwfCHMkFYoMzatQmbuwFakImSg0VYfLiLf...........................................fDCMf70WHc0WMEFbvUFYe8ELfPCH+++++CRLz.xWegzUe0TXvAWYj80Ww.BMf7++++OHwTCHe8ERW8USgAGbkQ1WeECLfPCH+++++CRL0.xWegzUe0TXvAWYj80WwDCHz.x+++++fDSMf70WHc0WMEFbvUFYe8ULx.BMf7++++OHwTCHe8ERW8USgAGbkQ1WeEyLfPCH+++++CRL0.xWegzUe0TXvAWYj80WwPCHz.x+++++fDSMf70WHc0WMEFbvUFYe8UL0.BMf7++++OHwTCHe8ERW8USgAGbkQ1WeEiMfPCH+++++CRL0.xWegzUe0TXvAWYj80WwbCHz.x+++++fDSMf70WHc0WMEFbvUFYe8UL3.BMf7++++OHwTCHe8ERW8USgAGbkQ1WeESNfPCH+++++CRLz.xWegzUe0TXvAWYj80Wx.BMf7++++OHwPCHe8ERW8USgAGbkQ1WeMCHz.x+++++fDCMf70WHc0WMEFbvUFYe8EMfPCH+++++CRLz.xWegzUe0TXvAWYj80W0.BMf7++++OHwPCHe8ERW8USgAGbkQ1WeYCHz.x+++++fDCMf70WHc0WMEFbvUFYe80MfPCH+++++CRLz.xWegzUe0TXvAWYj80W3.BMf7++++OHwPCHe8ERW8USgAGbkQ1WekCHz.x+++++fDSLf70WMEFbvUFYe8ELfPCH+++++CRLw.xWe0TXvAWYj80Ww.BMf7++++OHwHCHe8USgAGbkQ1WeECLfPCH+++++CRLx.xWe0TXvAWYj80WwDCHz.x+++++fDiLf70WMEFbvUFYe8ULx.BMf7++++OHwHCHe8USgAGbkQ1WeEyLfPCH+++++CRLx.xWe0TXvAWYj80WwPCHz.x+++++fDiLf70WMEFbvUFYe8UL0.BMf7++++OHwHCHe8USgAGbkQ1WeEiMfPCH+++++CRLx.xWe0TXvAWYj80WwbCHz.x+++++fDiLf70WMEFbvUFYe8UL3.BMf7++++OHwHCHe8USgAGbkQ1WeESNfPCH+++++CRLw.xWe0TXvAWYj80Wx.BMf7++++OHwDCHe8USgAGbkQ1WeMCHz.x+++++fDSLf70WMEFbvUFYe8EMfPCH+++++CRLw.xWe0TXvAWYj80W0.BMf7++++OHwDCHe8USgAGbkQ1WeYCHz.x+++++fDSLf70WMEFbvUFYe80MfPCH+++++CRLw.xWe0TXvAWYj80W3.BMf7++++OHwDCHe8USgAGbkQ1WekCHz.x+++++fHyMf70WSQUPTUzWeIUQSUjTVUDQe8USOQTRFkTQDARLf.iBRP0TTEDD.HQX00lYXUkazkFcrUFY.f..Y.fI.rB.3.vR.LE.aA.X.TF.pEfhA7X.QFvjAfY.ZF.oA3Z.wF.uHDLBFi.xHzL.......f.A.........PF...................BVC"
							}

						}
 ],
					"saved_object_attributes" : 					{
						"parameter_enable" : 0,
						"parameter_mappable" : 0
					}
,
					"text" : "pattr comp1",
					"varname" : "comp1"
				}

			}
, 			{
				"box" : 				{
					"fontname" : "Silom",
					"id" : "obj-11",
					"maxclass" : "newobj",
					"numinlets" : 1,
					"numoutlets" : 3,
					"outlettype" : [ "", "", "" ],
					"patching_rect" : [ 699.477499232784339, 677.809075306784848, 77.0, 24.0 ],
					"restore" : [ 						{
							"filetype" : "C74Snapshot",
							"version" : 2,
							"minorversion" : 0,
							"name" : "GMaudio Clipper 2.0.amxd",
							"origin" : "GMaudio Clipper 2.0.amxd",
							"type" : "amxd",
							"subtype" : "Undefined",
							"embed" : 1,
							"snapshot" : 							{
								"name" : "GMaudio Clipper 2.0.amxd",
								"origname" : "~/Music/_repo/sousastep/Sousastep Audio FX/patchers/GMaudio Clipper 2.0.amxd",
								"valuedictionary" : 								{
									"parameter_values" : 									{
										"Ceiling" : -5.0,
										"Input Gain" : 0.0,
										"Output Gain" : 0.0,
										"Solo GR" : 0.0
									}

								}

							}

						}
 ],
					"saved_object_attributes" : 					{
						"parameter_enable" : 0,
						"parameter_mappable" : 0
					}
,
					"text" : "pattr clip3",
					"varname" : "clip3"
				}

			}
, 			{
				"box" : 				{
					"fontname" : "Silom",
					"id" : "obj-5",
					"maxclass" : "newobj",
					"numinlets" : 2,
					"numoutlets" : 1,
					"outlettype" : [ "bang" ],
					"patching_rect" : [ 770.128869807157571, 85.063454559298634, 48.0, 24.0 ],
					"text" : "del 10"
				}

			}
, 			{
				"box" : 				{
					"fontname" : "Silom",
					"id" : "obj-6",
					"maxclass" : "message",
					"numinlets" : 2,
					"numoutlets" : 1,
					"outlettype" : [ "" ],
					"patching_rect" : [ 770.128869807157571, 133.595178232866942, 81.0, 24.0 ],
					"text" : "writeagain"
				}

			}
, 			{
				"box" : 				{
					"fontname" : "Silom",
					"id" : "obj-45",
					"maxclass" : "newobj",
					"numinlets" : 1,
					"numoutlets" : 1,
					"outlettype" : [ "int" ],
					"patching_rect" : [ 470.177231388582982, 114.595178232866942, 26.0, 24.0 ],
					"text" : "t 1"
				}

			}
, 			{
				"box" : 				{
					"fontname" : "Silom",
					"id" : "obj-7",
					"maxclass" : "newobj",
					"numinlets" : 1,
					"numoutlets" : 1,
					"outlettype" : [ "" ],
					"patching_rect" : [ 470.177231388582982, 85.063454559298634, 69.0, 24.0 ],
					"text" : "deferlow"
				}

			}
, 			{
				"box" : 				{
					"fontname" : "Silom",
					"id" : "obj-42",
					"maxclass" : "newobj",
					"numinlets" : 1,
					"numoutlets" : 1,
					"outlettype" : [ "bang" ],
					"patching_rect" : [ 470.177231388582982, 55.531730885730326, 69.0, 24.0 ],
					"text" : "loadbang"
				}

			}
, 			{
				"box" : 				{
					"fontname" : "Silom",
					"id" : "obj-44",
					"maxclass" : "newobj",
					"numinlets" : 2,
					"numoutlets" : 1,
					"outlettype" : [ "" ],
					"patching_rect" : [ 668.328869676027352, 114.595178232866942, 89.0, 24.0 ],
					"text" : "pack store 1"
				}

			}
, 			{
				"box" : 				{
					"autorestore" : "post-triplewrap_mixbus.json",
					"fontname" : "Silom",
					"id" : "obj-32",
					"maxclass" : "newobj",
					"numinlets" : 1,
					"numoutlets" : 1,
					"outlettype" : [ "" ],
					"patching_rect" : [ 546.105790779372796, 183.0, 350.0, 24.0 ],
					"saved_object_attributes" : 					{
						"client_rect" : [ 4, 44, 358, 172 ],
						"parameter_enable" : 0,
						"parameter_mappable" : 0,
						"storage_rect" : [ 222, -852, 1662, -73 ]
					}
,
					"text" : "pattrstorage post-triplewrap_mixbus @savemode 0",
					"varname" : "post-triplewrap_mixbus"
				}

			}
, 			{
				"box" : 				{
					"bgcolor" : [ 0.0, 0.0, 0.0, 0.27 ],
					"bubblepoint" : 0.4,
					"bubbleside" : 2,
					"bubbleusescolors" : 1,
					"fontname" : "Silom",
					"fontsize" : 14.0,
					"id" : "obj-65",
					"maxclass" : "comment",
					"numinlets" : 0,
					"numoutlets" : 0,
					"patching_rect" : [ 613.128869807157457, 39.017397878947463, 147.0, 24.0 ],
					"presentation" : 1,
					"presentation_rect" : [ 57.10579077937291, 107.563454559298634, 45.0, 24.0 ],
					"suppressinlet" : 1,
					"text" : "save",
					"textcolor" : [ 0.898039215686275, 0.788235294117647, 0.996078431372549, 1.0 ]
				}

			}
, 			{
				"box" : 				{
					"bgcolor" : [ 0.0, 0.0, 0.0, 0.27 ],
					"blinkcolor" : [ 0.850980392156863, 0.686274509803922, 1.0, 1.0 ],
					"id" : "obj-84",
					"maxclass" : "button",
					"numinlets" : 1,
					"numoutlets" : 1,
					"outlettype" : [ "bang" ],
					"outlinecolor" : [ 0.850980392156863, 0.686274509803922, 1.0, 1.0 ],
					"parameter_enable" : 0,
					"patching_rect" : [ 770.128869807157571, 32.517397878947463, 36.0, 36.0 ],
					"presentation" : 1,
					"presentation_rect" : [ 107.10579077937291, 97.063454559298634, 45.0, 45.0 ],
					"style" : "buttonGold"
				}

			}
, 			{
				"box" : 				{
					"bgcolor" : [ 1.0, 0.949019607843137, 0.227450980392157, 0.57 ],
					"bgcolor2" : [ 0.941176470588235, 0.227450980392157, 1.0, 0.52 ],
					"bgfillcolor_angle" : 40.988422399155411,
					"bgfillcolor_autogradient" : 0.0,
					"bgfillcolor_color" : [ 0.941176470588235, 0.227450980392157, 1.0, 0.52 ],
					"bgfillcolor_color1" : [ 1.0, 0.949019607843137, 0.227450980392157, 0.57 ],
					"bgfillcolor_color2" : [ 0.941176470588235, 0.227450980392157, 1.0, 0.52 ],
					"bgfillcolor_proportion" : 0.39,
					"bgfillcolor_pt1" : [ -0.035353535353535, 0.95959595959596 ],
					"bgfillcolor_pt2" : [ 1.005050505050505, 0.055555555555556 ],
					"bgfillcolor_type" : "gradient",
					"fontname" : "Silom",
					"gradient" : 1,
					"id" : "obj-89",
					"maxclass" : "message",
					"numinlets" : 2,
					"numoutlets" : 1,
					"outlettype" : [ "" ],
					"patching_rect" : [ 546.105790779372796, 85.063454559298634, 119.0, 24.0 ],
					"presentation" : 1,
					"presentation_rect" : [ 47.0, 66.063454559298634, 119.0, 24.0 ],
					"style" : "messageGold",
					"text" : "storagewindow",
					"textcolor" : [ 0.0, 0.0, 0.0, 0.890196078431372 ],
					"textjustification" : 1
				}

			}
, 			{
				"box" : 				{
					"bgcolor" : [ 0.247058823529412, 0.086274509803922, 0.317647058823529, 1.0 ],
					"bgcolor2" : [ 0.505882352941176, 0.266666666666667, 0.043137254901961, 1.0 ],
					"bgfillcolor_angle" : 40.988422399155411,
					"bgfillcolor_autogradient" : 0.0,
					"bgfillcolor_color" : [ 0.505882352941176, 0.266666666666667, 0.043137254901961, 1.0 ],
					"bgfillcolor_color1" : [ 0.247058823529412, 0.086274509803922, 0.317647058823529, 1.0 ],
					"bgfillcolor_color2" : [ 0.505882352941176, 0.266666666666667, 0.043137254901961, 1.0 ],
					"bgfillcolor_proportion" : 0.39,
					"bgfillcolor_pt1" : [ -0.035353535353535, 0.95959595959596 ],
					"bgfillcolor_pt2" : [ 1.005050505050505, 0.055555555555556 ],
					"bgfillcolor_type" : "gradient",
					"fontname" : "Silom",
					"gradient" : 1,
					"id" : "obj-96",
					"maxclass" : "message",
					"numinlets" : 2,
					"numoutlets" : 1,
					"outlettype" : [ "" ],
					"patching_rect" : [ 558.105790779372796, 114.595178232866942, 104.0, 24.0 ],
					"style" : "messageGold",
					"text" : "clientwindow",
					"textcolor" : [ 0.8, 0.8, 0.8, 0.890196078431372 ]
				}

			}
, 			{
				"box" : 				{
					"id" : "obj-1131",
					"maxclass" : "toggle",
					"numinlets" : 1,
					"numoutlets" : 1,
					"outlettype" : [ "int" ],
					"parameter_enable" : 0,
					"patching_rect" : [ 1261.0, 398.500072818516401, 24.0, 24.0 ],
					"presentation" : 1,
					"presentation_rect" : [ 211.5, 501.392208389259395, 24.0, 24.0 ]
				}

			}
, 			{
				"box" : 				{
					"id" : "obj-1132",
					"maxclass" : "toggle",
					"numinlets" : 1,
					"numoutlets" : 1,
					"outlettype" : [ "int" ],
					"parameter_enable" : 0,
					"patching_rect" : [ 976.10579077937291, 394.848327711878937, 24.0, 24.0 ],
					"presentation" : 1,
					"presentation_rect" : [ 182.0, 501.392208389259395, 24.0, 24.0 ]
				}

			}
, 			{
				"box" : 				{
					"fontname" : "Arial",
					"fontsize" : 13.0,
					"id" : "obj-1144",
					"maxclass" : "newobj",
					"numinlets" : 3,
					"numoutlets" : 2,
					"outlettype" : [ "signal", "signal" ],
					"patching_rect" : [ 1112.757736120592199, 568.685347274049946, 190.000000000000114, 23.0 ],
					"text" : "muteme"
				}

			}
, 			{
				"box" : 				{
					"fontname" : "Arial",
					"fontsize" : 13.0,
					"id" : "obj-1148",
					"maxclass" : "newobj",
					"numinlets" : 3,
					"numoutlets" : 2,
					"outlettype" : [ "signal", "signal" ],
					"patching_rect" : [ 826.863526899965109, 568.685347274049946, 190.0, 23.0 ],
					"text" : "muteme"
				}

			}
, 			{
				"box" : 				{
					"id" : "obj-1100",
					"maxclass" : "toggle",
					"numinlets" : 1,
					"numoutlets" : 1,
					"outlettype" : [ "int" ],
					"parameter_enable" : 0,
					"patching_rect" : [ 251.25, 451.500036409258428, 24.0, 24.0 ],
					"presentation" : 1,
					"presentation_rect" : [ 211.5, 560.080856037385729, 24.0, 24.0 ]
				}

			}
, 			{
				"box" : 				{
					"id" : "obj-1107",
					"maxclass" : "toggle",
					"numinlets" : 1,
					"numoutlets" : 1,
					"outlettype" : [ "int" ],
					"parameter_enable" : 0,
					"patching_rect" : [ 98.25, 451.500036409258428, 24.0, 24.0 ],
					"presentation" : 1,
					"presentation_rect" : [ 182.0, 560.080856037385729, 24.0, 24.0 ]
				}

			}
, 			{
				"box" : 				{
					"fontname" : "Arial",
					"fontsize" : 13.0,
					"id" : "obj-1116",
					"maxclass" : "newobj",
					"numinlets" : 3,
					"numoutlets" : 2,
					"outlettype" : [ "signal", "signal" ],
					"patching_rect" : [ 214.75, 492.716701131287209, 55.0, 23.0 ],
					"text" : "muteme"
				}

			}
, 			{
				"box" : 				{
					"fontname" : "Arial",
					"fontsize" : 13.0,
					"id" : "obj-1117",
					"maxclass" : "newobj",
					"numinlets" : 3,
					"numoutlets" : 2,
					"outlettype" : [ "signal", "signal" ],
					"patching_rect" : [ 123.812272643987626, 492.716701131287209, 55.0, 23.0 ],
					"text" : "muteme"
				}

			}
, 			{
				"box" : 				{
					"id" : "obj-983",
					"maxclass" : "toggle",
					"numinlets" : 1,
					"numoutlets" : 1,
					"outlettype" : [ "int" ],
					"parameter_enable" : 0,
					"patching_rect" : [ 658.477499232784339, 369.005149184195034, 24.0, 24.0 ],
					"presentation" : 1,
					"presentation_rect" : [ 211.5, 531.080856037385729, 24.0, 24.0 ]
				}

			}
, 			{
				"box" : 				{
					"id" : "obj-972",
					"maxclass" : "toggle",
					"numinlets" : 1,
					"numoutlets" : 1,
					"outlettype" : [ "int" ],
					"parameter_enable" : 0,
					"patching_rect" : [ 569.477514112192011, 367.35340407755757, 24.0, 24.0 ],
					"presentation" : 1,
					"presentation_rect" : [ 182.0, 531.080856037385729, 24.0, 24.0 ]
				}

			}
, 			{
				"box" : 				{
					"fontname" : "Arial",
					"fontsize" : 13.0,
					"id" : "obj-956",
					"maxclass" : "newobj",
					"numinlets" : 3,
					"numoutlets" : 2,
					"outlettype" : [ "signal", "signal" ],
					"patching_rect" : [ 618.105790779372796, 496.095178232867056, 55.0, 23.0 ],
					"text" : "muteme"
				}

			}
, 			{
				"box" : 				{
					"fontname" : "Arial",
					"fontsize" : 13.0,
					"id" : "obj-950",
					"maxclass" : "newobj",
					"numinlets" : 3,
					"numoutlets" : 2,
					"outlettype" : [ "signal", "signal" ],
					"patching_rect" : [ 533.605790779372796, 496.095178232867056, 55.0, 23.0 ],
					"text" : "muteme"
				}

			}
, 			{
				"box" : 				{
					"autosave" : 0,
					"bgmode" : 0,
					"border" : 0,
					"clickthrough" : 0,
					"id" : "obj-125",
					"linecount" : 4,
					"maxclass" : "newobj",
					"numinlets" : 4,
					"numoutlets" : 8,
					"offset" : [ 0.0, 0.0 ],
					"outlettype" : [ "signal", "signal", "", "list", "int", "", "", "" ],
					"patching_rect" : [ 1100.0, 619.99500400312445, 196.0, 62.0 ],
					"save" : [ "#N", "vst~", "loaduniqueid", 0, 4, 2, "Comp TUBE-STA", "@prefer", "AudioUnit", "@parameter_enable", 0, "@autosave", 0, ";" ],
					"saved_attribute_attributes" : 					{
						"valueof" : 						{
							"parameter_invisible" : 1,
							"parameter_longname" : "vst~[1]",
							"parameter_shortname" : "vst~[1]",
							"parameter_type" : 3
						}

					}
,
					"saved_object_attributes" : 					{
						"autosave" : 0,
						"parameter_enable" : 1,
						"parameter_mappable" : 0,
						"prefer" : "AudioUnit"
					}
,
					"text" : "audiounit~ 4 2 \"Comp TUBE-STA\" @prefer AudioUnit @parameter_enable 0 @autosave 0",
					"varname" : "vst~[1]",
					"viewvisibility" : 0
				}

			}
, 			{
				"box" : 				{
					"autosave" : 0,
					"bgmode" : 0,
					"border" : 0,
					"clickthrough" : 0,
					"id" : "obj-59",
					"linecount" : 4,
					"maxclass" : "newobj",
					"numinlets" : 4,
					"numoutlets" : 8,
					"offset" : [ 0.0, 0.0 ],
					"outlettype" : [ "signal", "signal", "", "list", "int", "", "", "" ],
					"patching_rect" : [ 829.863526899965109, 619.99500400312445, 196.0, 62.0 ],
					"save" : [ "#N", "vst~", "loaduniqueid", 0, 4, 2, "Comp TUBE-STA", "@prefer", "AudioUnit", "@parameter_enable", 0, "@autosave", 0, ";" ],
					"saved_attribute_attributes" : 					{
						"valueof" : 						{
							"parameter_invisible" : 1,
							"parameter_longname" : "vst~",
							"parameter_shortname" : "vst~",
							"parameter_type" : 3
						}

					}
,
					"saved_object_attributes" : 					{
						"autosave" : 0,
						"parameter_enable" : 1,
						"parameter_mappable" : 0,
						"prefer" : "AudioUnit"
					}
,
					"text" : "audiounit~ 4 2 \"Comp TUBE-STA\" @prefer AudioUnit @parameter_enable 0 @autosave 0",
					"varname" : "vst~",
					"viewvisibility" : 0
				}

			}
, 			{
				"box" : 				{
					"autosave" : 0,
					"bgmode" : 1,
					"border" : 0,
					"clickthrough" : 0,
					"enablehscroll" : 0,
					"enablevscroll" : 0,
					"id" : "obj-85",
					"linecount" : 4,
					"lockeddragscroll" : 0,
					"lockedsize" : 0,
					"maxclass" : "newobj",
					"numinlets" : 3,
					"numoutlets" : 4,
					"offset" : [ 0.0, 0.0 ],
					"outlettype" : [ "signal", "signal", "", "" ],
					"patching_rect" : [ 814.735235353376538, 936.809075306784962, 244.0, 170.0 ],
					"presentation" : 1,
					"presentation_linecount" : 4,
					"presentation_rect" : [ 84.60579077937291, 325.526321451103286, 244.0, 170.0 ],
					"saved_object_attributes" : 					{
						"autosave" : 0,
						"parameter_enable" : 0,
						"patchername" : "Color_Limiter.amxd",
						"patchername_fallback" : "~/Music/_repo/sousastep/Sousastep Audio FX/patchers/Color_Limiter.amxd",
						"showheader" : 0
					}
,
					"text" : "amxd~ \"/Users/jbaylies/Music/_repo/sousastep/Sousastep Audio FX/patchers/Color_Limiter.amxd\"",
					"varname" : "max~[2]",
					"viewvisibility" : 1
				}

			}
, 			{
				"box" : 				{
					"id" : "obj-874",
					"lastchannelcount" : 0,
					"maxclass" : "live.gain~",
					"numinlets" : 2,
					"numoutlets" : 5,
					"outlettype" : [ "signal", "signal", "", "float", "list" ],
					"parameter_enable" : 1,
					"patching_rect" : [ 814.735235353376538, 1450.969893658149886, 84.0, 135.0 ],
					"presentation" : 1,
					"presentation_rect" : [ 235.863526899965109, 594.392208389259395, 49.0, 83.0 ],
					"saved_attribute_attributes" : 					{
						"valueof" : 						{
							"parameter_longname" : "high gain[1]",
							"parameter_mmax" : 6.0,
							"parameter_mmin" : -70.0,
							"parameter_shortname" : "high gain",
							"parameter_type" : 0,
							"parameter_unitstyle" : 4
						}

					}
,
					"varname" : "live.gain~[1]"
				}

			}
, 			{
				"box" : 				{
					"bgcolor" : [ 1.0, 1.0, 1.0, 0.27 ],
					"bubble" : 1,
					"bubbleside" : 3,
					"bubbleusescolors" : 1,
					"fontname" : "Ableton Sans Light",
					"id" : "obj-1150",
					"linecount" : 2,
					"maxclass" : "comment",
					"numinlets" : 1,
					"numoutlets" : 0,
					"patching_rect" : [ 903.235235353376538, 387.348327711878937, 67.0, 39.0 ],
					"presentation" : 1,
					"presentation_rect" : [ 72.0, 501.392208389259395, 134.0, 25.0 ],
					"text" : "mute high dry",
					"textjustification" : 1
				}

			}
, 			{
				"box" : 				{
					"bgcolor" : [ 1.0, 1.0, 1.0, 0.27 ],
					"bubble" : 1,
					"bubbleside" : 3,
					"bubbleusescolors" : 1,
					"fontname" : "Ableton Sans Light",
					"id" : "obj-1119",
					"linecount" : 2,
					"maxclass" : "comment",
					"numinlets" : 1,
					"numoutlets" : 0,
					"patching_rect" : [ 19.0, 444.000036409258428, 84.5, 39.0 ],
					"presentation" : 1,
					"presentation_rect" : [ 72.0, 560.080856037385729, 134.0, 25.0 ],
					"text" : "mute very low dry",
					"textjustification" : 1
				}

			}
, 			{
				"box" : 				{
					"bgcolor" : [ 1.0, 1.0, 1.0, 0.27 ],
					"bubble" : 1,
					"bubbleside" : 3,
					"bubbleusescolors" : 1,
					"fontname" : "Ableton Sans Light",
					"id" : "obj-886",
					"linecount" : 2,
					"maxclass" : "comment",
					"numinlets" : 1,
					"numoutlets" : 0,
					"patching_rect" : [ 492.477514112192011, 359.35340407755757, 75.0, 39.0 ],
					"presentation" : 1,
					"presentation_rect" : [ 72.0, 531.080856037385729, 134.0, 25.0 ],
					"text" : "mute low dry",
					"textjustification" : 1
				}

			}
, 			{
				"box" : 				{
					"bgcolor" : [ 1.0, 1.0, 1.0, 0.27 ],
					"bubble" : 1,
					"bubbleusescolors" : 1,
					"fontname" : "Ableton Sans Light",
					"id" : "obj-1129",
					"linecount" : 2,
					"maxclass" : "comment",
					"numinlets" : 1,
					"numoutlets" : 0,
					"patching_rect" : [ 1289.869518973499908, 387.348327711878937, 81.0, 39.0 ],
					"presentation" : 1,
					"presentation_rect" : [ 211.5, 501.392208389259395, 134.0, 25.0 ],
					"text" : "mute high mod",
					"textjustification" : 1
				}

			}
, 			{
				"box" : 				{
					"bgcolor" : [ 1.0, 1.0, 1.0, 0.27 ],
					"bubble" : 1,
					"bubbleusescolors" : 1,
					"fontname" : "Ableton Sans Light",
					"id" : "obj-1099",
					"linecount" : 2,
					"maxclass" : "comment",
					"numinlets" : 1,
					"numoutlets" : 0,
					"patching_rect" : [ 276.750001899965127, 444.000036409258428, 79.0, 39.0 ],
					"presentation" : 1,
					"presentation_rect" : [ 211.5, 560.080856037385729, 134.0, 25.0 ],
					"text" : "mute very low mod",
					"textjustification" : 1
				}

			}
, 			{
				"box" : 				{
					"bgcolor" : [ 1.0, 1.0, 1.0, 0.27 ],
					"bubble" : 1,
					"bubbleusescolors" : 1,
					"fontname" : "Ableton Sans Light",
					"id" : "obj-1001",
					"linecount" : 3,
					"maxclass" : "comment",
					"numinlets" : 1,
					"numoutlets" : 0,
					"patching_rect" : [ 684.477499232784339, 352.35340407755757, 57.0, 54.0 ],
					"presentation" : 1,
					"presentation_rect" : [ 211.5, 531.080856037385729, 134.0, 25.0 ],
					"text" : "mute low mod",
					"textjustification" : 1
				}

			}
, 			{
				"box" : 				{
					"comment" : "",
					"id" : "obj-953",
					"index" : 0,
					"maxclass" : "inlet",
					"numinlets" : 0,
					"numoutlets" : 1,
					"outlettype" : [ "" ],
					"patching_rect" : [ 113.812272899965137, 403.848327711878937, 30.0, 30.0 ]
				}

			}
, 			{
				"box" : 				{
					"comment" : "",
					"id" : "obj-963",
					"index" : 0,
					"maxclass" : "inlet",
					"numinlets" : 0,
					"numoutlets" : 1,
					"outlettype" : [ "" ],
					"patching_rect" : [ 148.812272899965137, 403.848327711878937, 30.0, 30.0 ]
				}

			}
, 			{
				"box" : 				{
					"comment" : "",
					"id" : "obj-966",
					"index" : 0,
					"maxclass" : "inlet",
					"numinlets" : 0,
					"numoutlets" : 1,
					"outlettype" : [ "" ],
					"patching_rect" : [ 204.750001899965127, 403.848327711878937, 30.0, 30.0 ]
				}

			}
, 			{
				"box" : 				{
					"comment" : "",
					"id" : "obj-967",
					"index" : 0,
					"maxclass" : "inlet",
					"numinlets" : 0,
					"numoutlets" : 1,
					"outlettype" : [ "" ],
					"patching_rect" : [ 239.750001899965127, 403.848327711878937, 30.0, 30.0 ]
				}

			}
, 			{
				"box" : 				{
					"comment" : "",
					"id" : "obj-975",
					"index" : 0,
					"maxclass" : "inlet",
					"numinlets" : 0,
					"numoutlets" : 1,
					"outlettype" : [ "" ],
					"patching_rect" : [ 511.105790779372796, 416.27824078748381, 30.0, 30.0 ]
				}

			}
, 			{
				"box" : 				{
					"comment" : "",
					"id" : "obj-984",
					"index" : 0,
					"maxclass" : "inlet",
					"numinlets" : 0,
					"numoutlets" : 1,
					"outlettype" : [ "" ],
					"patching_rect" : [ 546.105790779372796, 416.27824078748381, 30.0, 30.0 ]
				}

			}
, 			{
				"box" : 				{
					"comment" : "",
					"id" : "obj-995",
					"index" : 0,
					"maxclass" : "inlet",
					"numinlets" : 0,
					"numoutlets" : 1,
					"outlettype" : [ "" ],
					"patching_rect" : [ 595.105775899965124, 416.27824078748381, 30.0, 30.0 ]
				}

			}
, 			{
				"box" : 				{
					"comment" : "",
					"id" : "obj-1005",
					"index" : 0,
					"maxclass" : "inlet",
					"numinlets" : 0,
					"numoutlets" : 1,
					"outlettype" : [ "" ],
					"patching_rect" : [ 630.105775899965124, 416.27824078748381, 30.0, 30.0 ]
				}

			}
, 			{
				"box" : 				{
					"comment" : "",
					"id" : "obj-1011",
					"index" : 0,
					"maxclass" : "inlet",
					"numinlets" : 0,
					"numoutlets" : 1,
					"outlettype" : [ "" ],
					"patching_rect" : [ 804.10579077937291, 453.000036409258428, 30.0, 30.0 ]
				}

			}
, 			{
				"box" : 				{
					"comment" : "",
					"id" : "obj-1012",
					"index" : 0,
					"maxclass" : "inlet",
					"numinlets" : 0,
					"numoutlets" : 1,
					"outlettype" : [ "" ],
					"patching_rect" : [ 889.60579077937291, 453.000036409258428, 30.0, 30.0 ]
				}

			}
, 			{
				"box" : 				{
					"comment" : "",
					"id" : "obj-1013",
					"index" : 0,
					"maxclass" : "inlet",
					"numinlets" : 0,
					"numoutlets" : 1,
					"outlettype" : [ "" ],
					"patching_rect" : [ 1090.0, 453.000036409258428, 30.0, 30.0 ]
				}

			}
, 			{
				"box" : 				{
					"comment" : "",
					"id" : "obj-1017",
					"index" : 0,
					"maxclass" : "inlet",
					"numinlets" : 0,
					"numoutlets" : 1,
					"outlettype" : [ "" ],
					"patching_rect" : [ 1175.5, 453.000036409258428, 30.0, 30.0 ]
				}

			}
, 			{
				"box" : 				{
					"comment" : "",
					"id" : "obj-1021",
					"index" : 0,
					"maxclass" : "outlet",
					"numinlets" : 1,
					"numoutlets" : 0,
					"patching_rect" : [ 139.750001899965127, 1350.969893658149886, 30.0, 30.0 ]
				}

			}
, 			{
				"box" : 				{
					"comment" : "",
					"id" : "obj-1028",
					"index" : 0,
					"maxclass" : "outlet",
					"numinlets" : 1,
					"numoutlets" : 0,
					"patching_rect" : [ 185.750001899965127, 1350.969893658149886, 30.0, 30.0 ]
				}

			}
, 			{
				"box" : 				{
					"comment" : "",
					"id" : "obj-1029",
					"index" : 0,
					"maxclass" : "outlet",
					"numinlets" : 1,
					"numoutlets" : 0,
					"patching_rect" : [ 520.605790779372796, 1348.48489940925856, 30.0, 30.0 ]
				}

			}
, 			{
				"box" : 				{
					"comment" : "",
					"id" : "obj-1031",
					"index" : 0,
					"maxclass" : "outlet",
					"numinlets" : 1,
					"numoutlets" : 0,
					"patching_rect" : [ 563.25, 1348.48489940925856, 30.0, 30.0 ]
				}

			}
, 			{
				"box" : 				{
					"comment" : "",
					"id" : "obj-1032",
					"index" : 0,
					"maxclass" : "outlet",
					"numinlets" : 1,
					"numoutlets" : 0,
					"patching_rect" : [ 805.735235353376538, 1611.96979881851712, 30.0, 30.0 ]
				}

			}
, 			{
				"box" : 				{
					"comment" : "",
					"id" : "obj-1038",
					"index" : 0,
					"maxclass" : "outlet",
					"numinlets" : 1,
					"numoutlets" : 0,
					"patching_rect" : [ 870.735235353376538, 1611.96979881851712, 30.0, 30.0 ]
				}

			}
 ],
		"lines" : [ 			{
				"patchline" : 				{
					"destination" : [ "obj-2", 0 ],
					"source" : [ "obj-1", 0 ]
				}

			}
, 			{
				"patchline" : 				{
					"destination" : [ "obj-20", 0 ],
					"source" : [ "obj-1", 1 ]
				}

			}
, 			{
				"patchline" : 				{
					"destination" : [ "obj-22", 0 ],
					"source" : [ "obj-1", 2 ]
				}

			}
, 			{
				"patchline" : 				{
					"destination" : [ "obj-125", 2 ],
					"order" : 0,
					"source" : [ "obj-10", 0 ]
				}

			}
, 			{
				"patchline" : 				{
					"destination" : [ "obj-59", 2 ],
					"order" : 1,
					"source" : [ "obj-10", 0 ]
				}

			}
, 			{
				"patchline" : 				{
					"destination" : [ "obj-956", 1 ],
					"source" : [ "obj-1005", 0 ]
				}

			}
, 			{
				"patchline" : 				{
					"destination" : [ "obj-10", 0 ],
					"order" : 0,
					"source" : [ "obj-1011", 0 ]
				}

			}
, 			{
				"patchline" : 				{
					"destination" : [ "obj-1148", 0 ],
					"order" : 1,
					"source" : [ "obj-1011", 0 ]
				}

			}
, 			{
				"patchline" : 				{
					"destination" : [ "obj-1148", 1 ],
					"order" : 1,
					"source" : [ "obj-1012", 0 ]
				}

			}
, 			{
				"patchline" : 				{
					"destination" : [ "obj-17", 0 ],
					"order" : 0,
					"source" : [ "obj-1012", 0 ]
				}

			}
, 			{
				"patchline" : 				{
					"destination" : [ "obj-10", 1 ],
					"order" : 1,
					"source" : [ "obj-1013", 0 ]
				}

			}
, 			{
				"patchline" : 				{
					"destination" : [ "obj-1144", 0 ],
					"order" : 0,
					"source" : [ "obj-1013", 0 ]
				}

			}
, 			{
				"patchline" : 				{
					"destination" : [ "obj-1144", 1 ],
					"order" : 0,
					"source" : [ "obj-1017", 0 ]
				}

			}
, 			{
				"patchline" : 				{
					"destination" : [ "obj-17", 1 ],
					"order" : 1,
					"source" : [ "obj-1017", 0 ]
				}

			}
, 			{
				"patchline" : 				{
					"destination" : [ "obj-25", 0 ],
					"source" : [ "obj-11", 1 ]
				}

			}
, 			{
				"patchline" : 				{
					"destination" : [ "obj-1116", 2 ],
					"source" : [ "obj-1100", 0 ]
				}

			}
, 			{
				"patchline" : 				{
					"destination" : [ "obj-1117", 2 ],
					"source" : [ "obj-1107", 0 ]
				}

			}
, 			{
				"patchline" : 				{
					"destination" : [ "obj-26", 0 ],
					"source" : [ "obj-1116", 0 ]
				}

			}
, 			{
				"patchline" : 				{
					"destination" : [ "obj-27", 0 ],
					"source" : [ "obj-1116", 1 ]
				}

			}
, 			{
				"patchline" : 				{
					"destination" : [ "obj-26", 0 ],
					"source" : [ "obj-1117", 0 ]
				}

			}
, 			{
				"patchline" : 				{
					"destination" : [ "obj-27", 0 ],
					"source" : [ "obj-1117", 1 ]
				}

			}
, 			{
				"patchline" : 				{
					"destination" : [ "obj-1144", 2 ],
					"source" : [ "obj-1131", 0 ]
				}

			}
, 			{
				"patchline" : 				{
					"destination" : [ "obj-1148", 2 ],
					"source" : [ "obj-1132", 0 ]
				}

			}
, 			{
				"patchline" : 				{
					"destination" : [ "obj-125", 1 ],
					"source" : [ "obj-1144", 1 ]
				}

			}
, 			{
				"patchline" : 				{
					"destination" : [ "obj-125", 0 ],
					"source" : [ "obj-1144", 0 ]
				}

			}
, 			{
				"patchline" : 				{
					"destination" : [ "obj-59", 1 ],
					"source" : [ "obj-1148", 1 ]
				}

			}
, 			{
				"patchline" : 				{
					"destination" : [ "obj-59", 0 ],
					"source" : [ "obj-1148", 0 ]
				}

			}
, 			{
				"patchline" : 				{
					"destination" : [ "obj-38", 0 ],
					"order" : 0,
					"source" : [ "obj-12", 0 ]
				}

			}
, 			{
				"patchline" : 				{
					"destination" : [ "obj-49", 1 ],
					"order" : 2,
					"source" : [ "obj-12", 0 ]
				}

			}
, 			{
				"patchline" : 				{
					"destination" : [ "obj-50", 1 ],
					"order" : 1,
					"source" : [ "obj-12", 0 ]
				}

			}
, 			{
				"patchline" : 				{
					"destination" : [ "obj-54", 0 ],
					"order" : 3,
					"source" : [ "obj-12", 0 ]
				}

			}
, 			{
				"patchline" : 				{
					"destination" : [ "obj-25", 1 ],
					"source" : [ "obj-125", 1 ]
				}

			}
, 			{
				"patchline" : 				{
					"destination" : [ "obj-25", 0 ],
					"source" : [ "obj-125", 0 ]
				}

			}
, 			{
				"patchline" : 				{
					"destination" : [ "obj-125", 0 ],
					"source" : [ "obj-13", 1 ]
				}

			}
, 			{
				"patchline" : 				{
					"destination" : [ "obj-59", 0 ],
					"source" : [ "obj-14", 1 ]
				}

			}
, 			{
				"patchline" : 				{
					"destination" : [ "obj-85", 0 ],
					"source" : [ "obj-15", 1 ]
				}

			}
, 			{
				"patchline" : 				{
					"destination" : [ "obj-59", 0 ],
					"source" : [ "obj-16", 0 ]
				}

			}
, 			{
				"patchline" : 				{
					"destination" : [ "obj-125", 3 ],
					"order" : 0,
					"source" : [ "obj-17", 0 ]
				}

			}
, 			{
				"patchline" : 				{
					"destination" : [ "obj-59", 3 ],
					"order" : 1,
					"source" : [ "obj-17", 0 ]
				}

			}
, 			{
				"patchline" : 				{
					"destination" : [ "obj-19", 0 ],
					"source" : [ "obj-18", 0 ]
				}

			}
, 			{
				"patchline" : 				{
					"destination" : [ "obj-1", 0 ],
					"midpoints" : [ 326.5, 234.0, 303.0, 234.0, 303.0, 429.0, 400.416666666666686, 429.0 ],
					"order" : 0,
					"source" : [ "obj-19", 2 ]
				}

			}
, 			{
				"patchline" : 				{
					"destination" : [ "obj-23", 0 ],
					"order" : 1,
					"source" : [ "obj-19", 2 ]
				}

			}
, 			{
				"patchline" : 				{
					"destination" : [ "obj-37", 0 ],
					"order" : 2,
					"source" : [ "obj-2", 0 ]
				}

			}
, 			{
				"patchline" : 				{
					"destination" : [ "obj-49", 0 ],
					"order" : 1,
					"source" : [ "obj-2", 0 ]
				}

			}
, 			{
				"patchline" : 				{
					"destination" : [ "obj-50", 0 ],
					"order" : 0,
					"source" : [ "obj-2", 0 ]
				}

			}
, 			{
				"patchline" : 				{
					"destination" : [ "obj-28", 1 ],
					"order" : 1,
					"source" : [ "obj-20", 0 ]
				}

			}
, 			{
				"patchline" : 				{
					"destination" : [ "obj-29", 1 ],
					"order" : 0,
					"source" : [ "obj-20", 0 ]
				}

			}
, 			{
				"patchline" : 				{
					"destination" : [ "obj-36", 0 ],
					"order" : 2,
					"source" : [ "obj-20", 0 ]
				}

			}
, 			{
				"patchline" : 				{
					"destination" : [ "obj-125", 0 ],
					"source" : [ "obj-21", 0 ]
				}

			}
, 			{
				"patchline" : 				{
					"destination" : [ "obj-26", 1 ],
					"order" : 2,
					"source" : [ "obj-22", 0 ]
				}

			}
, 			{
				"patchline" : 				{
					"destination" : [ "obj-27", 1 ],
					"order" : 1,
					"source" : [ "obj-22", 0 ]
				}

			}
, 			{
				"patchline" : 				{
					"destination" : [ "obj-35", 0 ],
					"order" : 0,
					"source" : [ "obj-22", 0 ]
				}

			}
, 			{
				"patchline" : 				{
					"destination" : [ "obj-1100", 0 ],
					"source" : [ "obj-23", 5 ]
				}

			}
, 			{
				"patchline" : 				{
					"destination" : [ "obj-1107", 0 ],
					"source" : [ "obj-23", 4 ]
				}

			}
, 			{
				"patchline" : 				{
					"destination" : [ "obj-1131", 0 ],
					"source" : [ "obj-23", 1 ]
				}

			}
, 			{
				"patchline" : 				{
					"destination" : [ "obj-1132", 0 ],
					"source" : [ "obj-23", 0 ]
				}

			}
, 			{
				"patchline" : 				{
					"destination" : [ "obj-972", 0 ],
					"source" : [ "obj-23", 2 ]
				}

			}
, 			{
				"patchline" : 				{
					"destination" : [ "obj-983", 0 ],
					"source" : [ "obj-23", 3 ]
				}

			}
, 			{
				"patchline" : 				{
					"destination" : [ "obj-26", 1 ],
					"order" : 7,
					"source" : [ "obj-24", 0 ]
				}

			}
, 			{
				"patchline" : 				{
					"destination" : [ "obj-27", 1 ],
					"order" : 6,
					"source" : [ "obj-24", 0 ]
				}

			}
, 			{
				"patchline" : 				{
					"destination" : [ "obj-28", 1 ],
					"order" : 5,
					"source" : [ "obj-24", 0 ]
				}

			}
, 			{
				"patchline" : 				{
					"destination" : [ "obj-29", 1 ],
					"order" : 4,
					"source" : [ "obj-24", 0 ]
				}

			}
, 			{
				"patchline" : 				{
					"destination" : [ "obj-30", 1 ],
					"order" : 3,
					"source" : [ "obj-24", 0 ]
				}

			}
, 			{
				"patchline" : 				{
					"destination" : [ "obj-31", 1 ],
					"order" : 2,
					"source" : [ "obj-24", 0 ]
				}

			}
, 			{
				"patchline" : 				{
					"destination" : [ "obj-49", 0 ],
					"order" : 1,
					"source" : [ "obj-24", 0 ]
				}

			}
, 			{
				"patchline" : 				{
					"destination" : [ "obj-50", 0 ],
					"order" : 0,
					"source" : [ "obj-24", 0 ]
				}

			}
, 			{
				"patchline" : 				{
					"destination" : [ "obj-85", 1 ],
					"source" : [ "obj-25", 1 ]
				}

			}
, 			{
				"patchline" : 				{
					"destination" : [ "obj-85", 0 ],
					"source" : [ "obj-25", 0 ]
				}

			}
, 			{
				"patchline" : 				{
					"destination" : [ "obj-4", 0 ],
					"source" : [ "obj-26", 0 ]
				}

			}
, 			{
				"patchline" : 				{
					"destination" : [ "obj-4", 1 ],
					"source" : [ "obj-27", 0 ]
				}

			}
, 			{
				"patchline" : 				{
					"destination" : [ "obj-8", 0 ],
					"source" : [ "obj-28", 0 ]
				}

			}
, 			{
				"patchline" : 				{
					"destination" : [ "obj-8", 1 ],
					"source" : [ "obj-29", 0 ]
				}

			}
, 			{
				"patchline" : 				{
					"destination" : [ "obj-8", 0 ],
					"source" : [ "obj-3", 1 ]
				}

			}
, 			{
				"patchline" : 				{
					"destination" : [ "obj-874", 0 ],
					"source" : [ "obj-30", 0 ]
				}

			}
, 			{
				"patchline" : 				{
					"destination" : [ "obj-874", 1 ],
					"source" : [ "obj-31", 0 ]
				}

			}
, 			{
				"patchline" : 				{
					"destination" : [ "obj-55", 0 ],
					"source" : [ "obj-33", 0 ]
				}

			}
, 			{
				"patchline" : 				{
					"destination" : [ "obj-1021", 0 ],
					"source" : [ "obj-4", 0 ]
				}

			}
, 			{
				"patchline" : 				{
					"destination" : [ "obj-1028", 0 ],
					"source" : [ "obj-4", 1 ]
				}

			}
, 			{
				"patchline" : 				{
					"destination" : [ "obj-51", 0 ],
					"source" : [ "obj-40", 0 ]
				}

			}
, 			{
				"patchline" : 				{
					"destination" : [ "obj-16", 0 ],
					"source" : [ "obj-41", 0 ]
				}

			}
, 			{
				"patchline" : 				{
					"destination" : [ "obj-7", 0 ],
					"source" : [ "obj-42", 0 ]
				}

			}
, 			{
				"patchline" : 				{
					"destination" : [ "obj-44", 1 ],
					"midpoints" : [ 825.235235353376538, 142.0, 856.0, 142.0, 856.0, 120.0, 759.0, 120.0, 759.0, 111.0, 747.828869676027352, 111.0 ],
					"source" : [ "obj-43", 0 ]
				}

			}
, 			{
				"patchline" : 				{
					"destination" : [ "obj-32", 0 ],
					"midpoints" : [ 677.828869676027352, 162.0, 555.605790779372796, 162.0 ],
					"source" : [ "obj-44", 0 ]
				}

			}
, 			{
				"patchline" : 				{
					"destination" : [ "obj-32", 0 ],
					"midpoints" : [ 479.677231388582982, 162.0, 555.605790779372796, 162.0 ],
					"source" : [ "obj-45", 0 ]
				}

			}
, 			{
				"patchline" : 				{
					"destination" : [ "obj-21", 0 ],
					"source" : [ "obj-46", 0 ]
				}

			}
, 			{
				"patchline" : 				{
					"destination" : [ "obj-33", 0 ],
					"order" : 1,
					"source" : [ "obj-47", 0 ]
				}

			}
, 			{
				"patchline" : 				{
					"destination" : [ "obj-52", 0 ],
					"order" : 0,
					"source" : [ "obj-47", 0 ]
				}

			}
, 			{
				"patchline" : 				{
					"destination" : [ "obj-874", 0 ],
					"source" : [ "obj-48", 1 ]
				}

			}
, 			{
				"patchline" : 				{
					"destination" : [ "obj-40", 0 ],
					"source" : [ "obj-49", 0 ]
				}

			}
, 			{
				"patchline" : 				{
					"destination" : [ "obj-6", 0 ],
					"source" : [ "obj-5", 0 ]
				}

			}
, 			{
				"patchline" : 				{
					"destination" : [ "obj-47", 0 ],
					"source" : [ "obj-50", 0 ]
				}

			}
, 			{
				"patchline" : 				{
					"destination" : [ "obj-56", 0 ],
					"source" : [ "obj-51", 0 ]
				}

			}
, 			{
				"patchline" : 				{
					"destination" : [ "obj-49", 0 ],
					"order" : 1,
					"source" : [ "obj-54", 0 ]
				}

			}
, 			{
				"patchline" : 				{
					"destination" : [ "obj-50", 0 ],
					"order" : 0,
					"source" : [ "obj-54", 0 ]
				}

			}
, 			{
				"patchline" : 				{
					"destination" : [ "obj-31", 1 ],
					"source" : [ "obj-55", 0 ]
				}

			}
, 			{
				"patchline" : 				{
					"destination" : [ "obj-30", 1 ],
					"source" : [ "obj-56", 0 ]
				}

			}
, 			{
				"patchline" : 				{
					"destination" : [ "obj-25", 1 ],
					"source" : [ "obj-59", 1 ]
				}

			}
, 			{
				"patchline" : 				{
					"destination" : [ "obj-25", 0 ],
					"source" : [ "obj-59", 0 ]
				}

			}
, 			{
				"patchline" : 				{
					"destination" : [ "obj-32", 0 ],
					"midpoints" : [ 779.628869807157571, 162.0, 555.605790779372796, 162.0 ],
					"source" : [ "obj-6", 0 ]
				}

			}
, 			{
				"patchline" : 				{
					"destination" : [ "obj-45", 0 ],
					"source" : [ "obj-7", 0 ]
				}

			}
, 			{
				"patchline" : 				{
					"destination" : [ "obj-1029", 0 ],
					"source" : [ "obj-8", 0 ]
				}

			}
, 			{
				"patchline" : 				{
					"destination" : [ "obj-1031", 0 ],
					"source" : [ "obj-8", 1 ]
				}

			}
, 			{
				"patchline" : 				{
					"destination" : [ "obj-44", 0 ],
					"midpoints" : [ 779.628869807157571, 73.095178232866942, 755.177231388583095, 73.095178232866942, 755.177231388583095, 99.095178232866942, 677.828869676027352, 99.095178232866942 ],
					"order" : 1,
					"source" : [ "obj-84", 0 ]
				}

			}
, 			{
				"patchline" : 				{
					"destination" : [ "obj-5", 0 ],
					"order" : 0,
					"source" : [ "obj-84", 0 ]
				}

			}
, 			{
				"patchline" : 				{
					"destination" : [ "obj-30", 0 ],
					"source" : [ "obj-85", 0 ]
				}

			}
, 			{
				"patchline" : 				{
					"destination" : [ "obj-31", 0 ],
					"source" : [ "obj-85", 1 ]
				}

			}
, 			{
				"patchline" : 				{
					"destination" : [ "obj-1032", 0 ],
					"source" : [ "obj-874", 0 ]
				}

			}
, 			{
				"patchline" : 				{
					"destination" : [ "obj-1038", 0 ],
					"source" : [ "obj-874", 1 ]
				}

			}
, 			{
				"patchline" : 				{
					"destination" : [ "obj-32", 0 ],
					"midpoints" : [ 555.605790779372796, 111.0, 555.605790779372796, 111.0 ],
					"source" : [ "obj-89", 0 ]
				}

			}
, 			{
				"patchline" : 				{
					"destination" : [ "obj-4", 0 ],
					"source" : [ "obj-9", 1 ]
				}

			}
, 			{
				"patchline" : 				{
					"destination" : [ "obj-28", 0 ],
					"source" : [ "obj-950", 0 ]
				}

			}
, 			{
				"patchline" : 				{
					"destination" : [ "obj-29", 0 ],
					"source" : [ "obj-950", 1 ]
				}

			}
, 			{
				"patchline" : 				{
					"destination" : [ "obj-1117", 0 ],
					"source" : [ "obj-953", 0 ]
				}

			}
, 			{
				"patchline" : 				{
					"destination" : [ "obj-28", 0 ],
					"source" : [ "obj-956", 0 ]
				}

			}
, 			{
				"patchline" : 				{
					"destination" : [ "obj-29", 0 ],
					"source" : [ "obj-956", 1 ]
				}

			}
, 			{
				"patchline" : 				{
					"destination" : [ "obj-32", 0 ],
					"midpoints" : [ 567.605790779372796, 162.0, 555.605790779372796, 162.0 ],
					"source" : [ "obj-96", 0 ]
				}

			}
, 			{
				"patchline" : 				{
					"destination" : [ "obj-1117", 1 ],
					"source" : [ "obj-963", 0 ]
				}

			}
, 			{
				"patchline" : 				{
					"destination" : [ "obj-1116", 0 ],
					"source" : [ "obj-966", 0 ]
				}

			}
, 			{
				"patchline" : 				{
					"destination" : [ "obj-1116", 1 ],
					"source" : [ "obj-967", 0 ]
				}

			}
, 			{
				"patchline" : 				{
					"destination" : [ "obj-950", 2 ],
					"source" : [ "obj-972", 0 ]
				}

			}
, 			{
				"patchline" : 				{
					"destination" : [ "obj-950", 0 ],
					"source" : [ "obj-975", 0 ]
				}

			}
, 			{
				"patchline" : 				{
					"destination" : [ "obj-956", 2 ],
					"source" : [ "obj-983", 0 ]
				}

			}
, 			{
				"patchline" : 				{
					"destination" : [ "obj-950", 1 ],
					"source" : [ "obj-984", 0 ]
				}

			}
, 			{
				"patchline" : 				{
					"destination" : [ "obj-956", 0 ],
					"source" : [ "obj-995", 0 ]
				}

			}
 ],
		"parameters" : 		{
			"obj-125" : [ "vst~[1]", "vst~[1]", 0 ],
			"obj-25" : [ "Clipper2", "Clipper2", 0 ],
			"obj-4" : [ "v low vol", "v low vol", 0 ],
			"obj-59" : [ "vst~", "vst~", 0 ],
			"obj-8" : [ "low vol", "low vol", 0 ],
			"obj-874" : [ "high gain[1]", "high gain", 0 ],
			"parameterbanks" : 			{
				"0" : 				{
					"index" : 0,
					"name" : "",
					"parameters" : [ "-", "-", "-", "-", "-", "-", "-", "-" ]
				}

			}
,
			"inherited_shortname" : 1
		}
,
		"dependency_cache" : [ 			{
				"name" : "Color_Limiter.amxd",
				"bootpath" : "~/Music/_repo/sousastep/Sousastep Audio FX/patchers",
				"patcherrelativepath" : ".",
				"type" : "amxd",
				"implicit" : 1
			}
, 			{
				"name" : "GMaudio Clipper 2.0.amxd",
				"bootpath" : "~/Music/_repo/sousastep/Sousastep Audio FX/patchers",
				"patcherrelativepath" : ".",
				"type" : "amxd",
				"implicit" : 1
			}
, 			{
				"name" : "amazing-noises-logo_white-11px.svg",
				"bootpath" : "~/Music/_repo/sousastep/Sousastep Audio FX/media",
				"patcherrelativepath" : "../media",
				"type" : "svg",
				"implicit" : 1
			}
, 			{
				"name" : "gma.clipper004~.mxo",
				"type" : "iLaX"
			}
, 			{
				"name" : "grmeter.js",
				"bootpath" : "~/Music/_repo/sousastep/Sousastep Audio FX/code",
				"patcherrelativepath" : "../code",
				"type" : "TEXT",
				"implicit" : 1
			}
, 			{
				"name" : "grmeterbg.js",
				"bootpath" : "~/Music/_repo/sousastep/Sousastep Audio FX/code",
				"patcherrelativepath" : "../code",
				"type" : "TEXT",
				"implicit" : 1
			}
, 			{
				"name" : "livedial_override.js",
				"bootpath" : "~/Music/_repo/sousastep/Sousastep Audio FX/code",
				"patcherrelativepath" : "../code",
				"type" : "TEXT",
				"implicit" : 1
			}
, 			{
				"name" : "muteme.maxpat",
				"bootpath" : "~/Music/_repo/sousastep/Sousastep Audio FX/patchers",
				"patcherrelativepath" : ".",
				"type" : "JSON",
				"implicit" : 1
			}
, 			{
				"name" : "post-triplewrap_mixbus.json",
				"bootpath" : "~/Music/_repo/sousastep/Sousastep Audio FX/data",
				"patcherrelativepath" : "../data",
				"type" : "JSON",
				"implicit" : 1
			}
, 			{
				"name" : "vs.gen.onepole.gendsp",
				"bootpath" : "~/Music/_repo/sousastep/Sousastep Audio FX/code",
				"patcherrelativepath" : "../code",
				"type" : "gDSP",
				"implicit" : 1
			}
, 			{
				"name" : "vs.gen.rampsmooth.gendsp",
				"bootpath" : "~/Music/_repo/sousastep/Sousastep Audio FX/code",
				"patcherrelativepath" : "../code",
				"type" : "gDSP",
				"implicit" : 1
			}
, 			{
				"name" : "vs.gen.smoother.gendsp",
				"bootpath" : "~/Music/_repo/sousastep/Sousastep Audio FX/code",
				"patcherrelativepath" : "../code",
				"type" : "gDSP",
				"implicit" : 1
			}
, 			{
				"name" : "vs.gen.xfade.gendsp",
				"bootpath" : "~/Music/_repo/sousastep/Sousastep Audio FX/code",
				"patcherrelativepath" : "../code",
				"type" : "gDSP",
				"implicit" : 1
			}
 ],
		"autosave" : 0
	}

}
