{
	"patcher" : 	{
		"fileversion" : 1,
		"appversion" : 		{
			"major" : 8,
			"minor" : 5,
			"revision" : 5,
			"architecture" : "x64",
			"modernui" : 1
		}
,
		"classnamespace" : "box",
		"rect" : [ 931.0, 305.0, 1061.0, 896.0 ],
		"bglocked" : 0,
		"openinpresentation" : 1,
		"default_fontsize" : 12.0,
		"default_fontface" : 0,
		"default_fontname" : "Arial",
		"gridonopen" : 1,
		"gridsize" : [ 15.0, 15.0 ],
		"gridsnaponopen" : 1,
		"objectsnaponopen" : 1,
		"statusbarvisible" : 2,
		"toolbarvisible" : 1,
		"lefttoolbarpinned" : 0,
		"toptoolbarpinned" : 0,
		"righttoolbarpinned" : 0,
		"bottomtoolbarpinned" : 0,
		"toolbars_unpinned_last_save" : 0,
		"tallnewobj" : 0,
		"boxanimatetime" : 200,
		"enablehscroll" : 1,
		"enablevscroll" : 1,
		"devicewidth" : 0.0,
		"description" : "",
		"digest" : "",
		"tags" : "",
		"style" : "",
		"subpatcher_template" : "",
		"assistshowspatchername" : 0,
		"boxes" : [ 			{
				"box" : 				{
					"fontname" : "Ableton Sans Light",
					"id" : "obj-102",
					"maxclass" : "comment",
					"numinlets" : 0,
					"numoutlets" : 0,
					"patching_rect" : [ 419.5, 683.0, 47.0, 21.0 ],
					"presentation" : 1,
					"presentation_rect" : [ 217.0, 216.0, 47.0, 21.0 ],
					"suppressinlet" : 1,
					"text" : "Output",
					"textjustification" : 1
				}

			}
, 			{
				"box" : 				{
					"fontname" : "Ableton Sans Light",
					"id" : "obj-101",
					"maxclass" : "comment",
					"numinlets" : 0,
					"numoutlets" : 0,
					"patching_rect" : [ 273.0, 683.0, 41.0, 21.0 ],
					"presentation" : 1,
					"presentation_rect" : [ 12.0, 215.0, 41.0, 21.0 ],
					"suppressinlet" : 1,
					"text" : "Input",
					"textjustification" : 1
				}

			}
, 			{
				"box" : 				{
					"id" : "obj-99",
					"maxclass" : "meter~",
					"numinlets" : 1,
					"numoutlets" : 1,
					"outlettype" : [ "float" ],
					"patching_rect" : [ 314.0, 529.0, 35.0, 171.0 ],
					"presentation" : 1,
					"presentation_rect" : [ 15.0, 238.0, 35.0, 171.0 ]
				}

			}
, 			{
				"box" : 				{
					"id" : "obj-98",
					"maxclass" : "meter~",
					"numinlets" : 1,
					"numoutlets" : 1,
					"outlettype" : [ "float" ],
					"patching_rect" : [ 381.0, 529.0, 35.0, 171.0 ],
					"presentation" : 1,
					"presentation_rect" : [ 223.0, 239.0, 35.0, 171.0 ]
				}

			}
, 			{
				"box" : 				{
					"fontname" : "Ableton Sans Light",
					"id" : "obj-97",
					"linecount" : 4,
					"maxclass" : "comment",
					"numinlets" : 0,
					"numoutlets" : 0,
					"patching_rect" : [ 1031.0, 227.0, 177.0, 64.0 ],
					"suppressinlet" : 1,
					"text" : "dummy inlet because plugin_or_rnbo_selector_mono may use this to control parameters in certain bpatchers"
				}

			}
, 			{
				"box" : 				{
					"format" : 6,
					"id" : "obj-27",
					"ignoreclick" : 1,
					"maxclass" : "flonum",
					"numinlets" : 1,
					"numoutlets" : 2,
					"outlettype" : [ "", "bang" ],
					"parameter_enable" : 0,
					"patching_rect" : [ 591.5, 625.0, 50.0, 22.0 ],
					"presentation" : 1,
					"presentation_rect" : [ 158.0, 534.0, 50.0, 22.0 ],
					"triangle" : 0
				}

			}
, 			{
				"box" : 				{
					"id" : "obj-31",
					"ignoreclick" : 1,
					"maxclass" : "multislider",
					"numinlets" : 1,
					"numoutlets" : 2,
					"outlettype" : [ "", "" ],
					"parameter_enable" : 0,
					"patching_rect" : [ 593.0, 555.0, 20.0, 60.0 ],
					"presentation" : 1,
					"presentation_rect" : [ 159.5, 464.0, 20.0, 60.0 ],
					"setminmax" : [ 0.0, 60.0 ],
					"setstyle" : 1,
					"slidercolor" : [ 0.929412, 0.929412, 0.352941, 1.0 ]
				}

			}
, 			{
				"box" : 				{
					"format" : 6,
					"id" : "obj-41",
					"ignoreclick" : 1,
					"maxclass" : "flonum",
					"numinlets" : 1,
					"numoutlets" : 2,
					"outlettype" : [ "", "bang" ],
					"parameter_enable" : 0,
					"patching_rect" : [ 511.5, 625.0, 50.0, 22.0 ],
					"presentation" : 1,
					"presentation_rect" : [ 78.0, 534.0, 50.0, 22.0 ],
					"triangle" : 0
				}

			}
, 			{
				"box" : 				{
					"bgcolor" : [ 0.929412, 0.929412, 0.352941, 1.0 ],
					"id" : "obj-42",
					"ignoreclick" : 1,
					"maxclass" : "multislider",
					"numinlets" : 1,
					"numoutlets" : 2,
					"outlettype" : [ "", "" ],
					"parameter_enable" : 0,
					"patching_rect" : [ 513.0, 555.0, 20.0, 60.0 ],
					"presentation" : 1,
					"presentation_rect" : [ 79.5, 464.0, 20.0, 60.0 ],
					"setminmax" : [ -60.0, 0.0 ],
					"setstyle" : 1,
					"slidercolor" : [ 0.2, 0.2, 0.2, 1.0 ]
				}

			}
, 			{
				"box" : 				{
					"id" : "obj-43",
					"maxclass" : "newobj",
					"numinlets" : 5,
					"numoutlets" : 5,
					"outlettype" : [ "", "", "", "", "" ],
					"patching_rect" : [ 513.0, 515.0, 212.0, 22.0 ],
					"text" : "route atten compens latency loadbang"
				}

			}
, 			{
				"box" : 				{
					"attr" : "volume",
					"attr_display" : 1,
					"hint" : "Sets the global volume",
					"id" : "obj-49",
					"lock" : 1,
					"maxclass" : "attrui",
					"numinlets" : 1,
					"numoutlets" : 1,
					"outlettype" : [ "" ],
					"parameter_enable" : 0,
					"patching_rect" : [ 204.0, 459.0, 110.0, 22.0 ],
					"presentation" : 1,
					"presentation_rect" : [ 76.5, 376.0, 110.0, 22.0 ],
					"text_width" : 64.0
				}

			}
, 			{
				"box" : 				{
					"attr" : "sustain",
					"attr_display" : 1,
					"hint" : "Sets the release time (or amount of \"spongy\" sound)",
					"id" : "obj-54",
					"lock" : 1,
					"maxclass" : "attrui",
					"numinlets" : 1,
					"numoutlets" : 1,
					"outlettype" : [ "" ],
					"parameter_enable" : 0,
					"patching_rect" : [ 204.0, 435.0, 110.0, 22.0 ],
					"presentation" : 1,
					"presentation_rect" : [ 76.5, 352.0, 110.0, 22.0 ],
					"text_width" : 64.0
				}

			}
, 			{
				"box" : 				{
					"attr" : "attack",
					"attr_display" : 1,
					"hint" : "Sets the attack time (or amount of \"picky\" sound)",
					"id" : "obj-55",
					"lock" : 1,
					"maxclass" : "attrui",
					"numinlets" : 1,
					"numoutlets" : 1,
					"outlettype" : [ "" ],
					"parameter_enable" : 0,
					"patching_rect" : [ 204.0, 411.0, 110.0, 22.0 ],
					"presentation" : 1,
					"presentation_rect" : [ 76.5, 328.0, 110.0, 22.0 ],
					"text_width" : 64.0
				}

			}
, 			{
				"box" : 				{
					"attr" : "comp",
					"attr_display" : 1,
					"hint" : "Sets the amount of compression applied to the input signal",
					"id" : "obj-56",
					"lock" : 1,
					"maxclass" : "attrui",
					"numinlets" : 1,
					"numoutlets" : 1,
					"outlettype" : [ "" ],
					"parameter_enable" : 0,
					"patching_rect" : [ 204.0, 387.0, 110.0, 22.0 ],
					"presentation" : 1,
					"presentation_rect" : [ 76.5, 304.0, 110.0, 22.0 ],
					"text_width" : 64.0
				}

			}
, 			{
				"box" : 				{
					"attr" : "active",
					"hint" : "Enables/disables the RNBO effect",
					"id" : "obj-57",
					"lock" : 1,
					"maxclass" : "attrui",
					"numinlets" : 1,
					"numoutlets" : 1,
					"outlettype" : [ "" ],
					"parameter_enable" : 0,
					"patching_rect" : [ 204.0, 339.0, 110.0, 22.0 ],
					"presentation" : 1,
					"presentation_rect" : [ 76.5, 256.0, 110.0, 22.0 ],
					"text_width" : 64.0
				}

			}
, 			{
				"box" : 				{
					"hidden" : 1,
					"id" : "obj-58",
					"maxclass" : "newobj",
					"numinlets" : 1,
					"numoutlets" : 2,
					"outlettype" : [ "", "" ],
					"patcher" : 					{
						"fileversion" : 1,
						"appversion" : 						{
							"major" : 8,
							"minor" : 5,
							"revision" : 5,
							"architecture" : "x64",
							"modernui" : 1
						}
,
						"classnamespace" : "box",
						"rect" : [ 59.0, 104.0, 270.0, 246.0 ],
						"bglocked" : 0,
						"openinpresentation" : 0,
						"default_fontsize" : 12.0,
						"default_fontface" : 0,
						"default_fontname" : "Arial",
						"gridonopen" : 2,
						"gridsize" : [ 10.0, 10.0 ],
						"gridsnaponopen" : 2,
						"objectsnaponopen" : 0,
						"statusbarvisible" : 2,
						"toolbarvisible" : 1,
						"lefttoolbarpinned" : 0,
						"toptoolbarpinned" : 0,
						"righttoolbarpinned" : 0,
						"bottomtoolbarpinned" : 0,
						"toolbars_unpinned_last_save" : 0,
						"tallnewobj" : 0,
						"boxanimatetime" : 200,
						"enablehscroll" : 1,
						"enablevscroll" : 1,
						"devicewidth" : 0.0,
						"description" : "",
						"digest" : "",
						"tags" : "",
						"style" : "",
						"subpatcher_template" : "MP-Rnbo",
						"assistshowspatchername" : 0,
						"boxes" : [ 							{
								"box" : 								{
									"id" : "obj-3",
									"maxclass" : "newobj",
									"numinlets" : 1,
									"numoutlets" : 1,
									"outlettype" : [ "" ],
									"patching_rect" : [ 110.0, 30.0, 70.0, 22.0 ],
									"text" : "loadmess 0"
								}

							}
, 							{
								"box" : 								{
									"comment" : "",
									"id" : "obj-2",
									"index" : 1,
									"maxclass" : "outlet",
									"numinlets" : 1,
									"numoutlets" : 0,
									"patching_rect" : [ 60.0, 170.0, 30.0, 30.0 ]
								}

							}
, 							{
								"box" : 								{
									"id" : "obj-1",
									"linecount" : 2,
									"maxclass" : "message",
									"numinlets" : 2,
									"numoutlets" : 1,
									"outlettype" : [ "" ],
									"patching_rect" : [ 60.0, 120.0, 80.0, 35.0 ],
									"text" : "clearchecks, checkitem $1"
								}

							}
, 							{
								"box" : 								{
									"id" : "obj-15",
									"maxclass" : "number",
									"numinlets" : 1,
									"numoutlets" : 2,
									"outlettype" : [ "", "bang" ],
									"parameter_enable" : 0,
									"patching_rect" : [ 60.0, 80.0, 50.0, 22.0 ]
								}

							}
, 							{
								"box" : 								{
									"id" : "obj-11",
									"maxclass" : "message",
									"numinlets" : 2,
									"numoutlets" : 1,
									"outlettype" : [ "" ],
									"patching_rect" : [ 150.0, 80.0, 63.0, 22.0 ],
									"text" : "restore $1"
								}

							}
, 							{
								"box" : 								{
									"comment" : "",
									"id" : "obj-31",
									"index" : 1,
									"maxclass" : "inlet",
									"numinlets" : 0,
									"numoutlets" : 1,
									"outlettype" : [ "" ],
									"patching_rect" : [ 60.0, 30.0, 30.0, 30.0 ]
								}

							}
, 							{
								"box" : 								{
									"comment" : "",
									"id" : "obj-32",
									"index" : 2,
									"maxclass" : "outlet",
									"numinlets" : 1,
									"numoutlets" : 0,
									"patching_rect" : [ 150.0, 170.0, 30.0, 30.0 ]
								}

							}
 ],
						"lines" : [ 							{
								"patchline" : 								{
									"destination" : [ "obj-2", 0 ],
									"source" : [ "obj-1", 0 ]
								}

							}
, 							{
								"patchline" : 								{
									"destination" : [ "obj-32", 0 ],
									"source" : [ "obj-11", 0 ]
								}

							}
, 							{
								"patchline" : 								{
									"destination" : [ "obj-1", 0 ],
									"order" : 1,
									"source" : [ "obj-15", 0 ]
								}

							}
, 							{
								"patchline" : 								{
									"destination" : [ "obj-11", 0 ],
									"order" : 0,
									"source" : [ "obj-15", 0 ]
								}

							}
, 							{
								"patchline" : 								{
									"destination" : [ "obj-15", 0 ],
									"source" : [ "obj-3", 0 ]
								}

							}
, 							{
								"patchline" : 								{
									"destination" : [ "obj-15", 0 ],
									"source" : [ "obj-31", 0 ]
								}

							}
 ]
					}
,
					"patching_rect" : [ 263.0, 252.0, 59.0, 22.0 ],
					"saved_object_attributes" : 					{
						"description" : "",
						"digest" : "",
						"globalpatchername" : "",
						"tags" : ""
					}
,
					"text" : "p Presets"
				}

			}
, 			{
				"box" : 				{
					"id" : "obj-59",
					"items" : [ "Default", ",", "Picky", ",", "Spongy", ",", "High", "Gain" ],
					"maxclass" : "umenu",
					"numinlets" : 1,
					"numoutlets" : 3,
					"outlettype" : [ "int", "", "" ],
					"parameter_enable" : 0,
					"patching_rect" : [ 144.0, 252.0, 110.0, 22.0 ],
					"presentation" : 1,
					"presentation_rect" : [ 76.5, 215.0, 110.0, 22.0 ],
					"varname" : "umenu[1]"
				}

			}
, 			{
				"box" : 				{
					"attr" : "softclip",
					"attr_display" : 1,
					"displaymode" : 8,
					"hint" : "Enables/disables soft clipping (slight saturation)",
					"id" : "obj-60",
					"lock" : 1,
					"maxclass" : "attrui",
					"numinlets" : 1,
					"numoutlets" : 1,
					"outlettype" : [ "" ],
					"parameter_enable" : 0,
					"patching_rect" : [ 204.0, 483.0, 110.0, 22.0 ],
					"presentation" : 1,
					"presentation_rect" : [ 76.5, 400.0, 110.0, 22.0 ],
					"text_width" : 64.0
				}

			}
, 			{
				"box" : 				{
					"autosave" : 1,
					"color" : [ 0.999996185302734, 0.99993908405304, 0.041033305227757, 1.0 ],
					"fontface" : 1,
					"fontsize" : 14.0,
					"hint" : "To make a preset, unlock the patcher and highlight the rnbo~ object, then click on the snapshot sidebar icon. From here, click on the + icon or the New... button to add a new snapshot and the play button to recall it. Just like standard Max snapshots , you can embed them in the patcher and rename them as you see fit.",
					"id" : "obj-62",
					"inletInfo" : 					{
						"IOInfo" : [ 							{
								"type" : "signal",
								"index" : 1,
								"tag" : "in1",
								"comment" : ""
							}
, 							{
								"type" : "midi",
								"index" : -1,
								"tag" : "",
								"comment" : ""
							}
 ]
					}
,
					"maxclass" : "newobj",
					"numinlets" : 2,
					"numoutlets" : 2,
					"outletInfo" : 					{
						"IOInfo" : [ 							{
								"type" : "signal",
								"index" : 1,
								"tag" : "out1",
								"comment" : ""
							}
 ]
					}
,
					"outlettype" : [ "signal", "list" ],
					"patching_rect" : [ 354.0, 469.0, 178.0, 24.0 ],
					"rnboattrcache" : 					{
						"attack" : 						{
							"label" : "attack",
							"isEnum" : 0,
							"parsestring" : ""
						}
,
						"sustain" : 						{
							"label" : "sustain",
							"isEnum" : 0,
							"parsestring" : ""
						}
,
						"volume" : 						{
							"label" : "volume",
							"isEnum" : 0,
							"parsestring" : ""
						}
,
						"comp" : 						{
							"label" : "comp",
							"isEnum" : 0,
							"parsestring" : ""
						}
,
						"lookahead" : 						{
							"label" : "lookahead",
							"isEnum" : 1,
							"parsestring" : "\"0\" \"1\" \"10\""
						}
,
						"softclip" : 						{
							"label" : "softclip",
							"isEnum" : 1,
							"parsestring" : "\"0\" \"1\""
						}

					}
,
					"rnboversion" : "1.2.0-dev.70",
					"saved_attribute_attributes" : 					{
						"valueof" : 						{
							"parameter_invisible" : 1,
							"parameter_longname" : "rnbo~[1]",
							"parameter_shortname" : "rnbo~",
							"parameter_type" : 3
						}

					}
,
					"saved_object_attributes" : 					{
						"optimization" : "O1",
						"parameter_enable" : 1,
						"uuid" : "74a09b97-f360-11ea-9b97-34363bd3ed8c"
					}
,
					"snapshot" : 					{
						"filetype" : "C74Snapshot",
						"version" : 2,
						"minorversion" : 0,
						"name" : "snapshotlist",
						"origin" : "rnbo~",
						"type" : "list",
						"subtype" : "Undefined",
						"embed" : 1,
						"snapshot" : 						{
							"__sps" : 							{
								"Compensation~" : 								{

								}
,
								"Compression~" : 								{

								}
,
								"Lookahead~" : 								{

								}
,
								"Volume&Clip~" : 								{

								}

							}
,
							"sustain" : 							{
								"value" : 25.0
							}
,
							"comp" : 							{
								"value" : 25.0
							}
,
							"attack" : 							{
								"value" : 25.0
							}
,
							"__presetid" : "compressor_mono",
							"softclip" : 							{
								"value" : 0.0
							}
,
							"volume" : 							{
								"value" : 0.0
							}
,
							"lookahead" : 							{
								"value" : 1.0
							}

						}
,
						"snapshotlist" : 						{
							"current_snapshot" : 0,
							"entries" : [ 								{
									"filetype" : "C74Snapshot",
									"version" : 2,
									"minorversion" : 0,
									"name" : "Default",
									"origin" : "compressor_mono",
									"type" : "rnbo",
									"subtype" : "",
									"embed" : 1,
									"snapshot" : 									{
										"__sps" : 										{
											"Compensation~" : 											{

											}
,
											"Compression~" : 											{

											}
,
											"Lookahead~" : 											{

											}
,
											"Volume&Clip~" : 											{

											}

										}
,
										"sustain" : 										{
											"value" : 25.0
										}
,
										"comp" : 										{
											"value" : 25.0
										}
,
										"attack" : 										{
											"value" : 25.0
										}
,
										"__presetid" : "compressor_mono",
										"softclip" : 										{
											"value" : 0.0
										}
,
										"volume" : 										{
											"value" : 0.0
										}
,
										"lookahead" : 										{
											"value" : 1.0
										}

									}
,
									"fileref" : 									{
										"name" : "Default",
										"filename" : "_20211127.maxsnap",
										"filepath" : "~/Documents/Max 8/Snapshots",
										"filepos" : -1,
										"snapshotfileid" : "679b72fd5c4ec2954c3df73c1efad036"
									}

								}
, 								{
									"filetype" : "C74Snapshot",
									"version" : 2,
									"minorversion" : 0,
									"name" : "Picky",
									"origin" : "untitled",
									"type" : "rnbo",
									"subtype" : "",
									"embed" : 1,
									"snapshot" : 									{
										"__sps" : 										{
											"Compensation~" : 											{

											}
,
											"Compression~" : 											{

											}
,
											"Volume&Clip~" : 											{

											}
,
											"Lookahead~" : 											{

											}

										}
,
										"sustain" : 										{
											"value" : 0
										}
,
										"attack" : 										{
											"value" : 100
										}
,
										"__presetid" : "untitled",
										"softclip" : 										{
											"value" : 0
										}
,
										"comp" : 										{
											"value" : 50
										}
,
										"volume" : 										{
											"value" : 0
										}
,
										"lookahead" : 										{
											"value" : 1
										}

									}
,
									"fileref" : 									{
										"name" : "Spongy[1]",
										"filename" : "Spongy[1].maxsnap",
										"filepath" : "~/Documents/Max 8/Snapshots",
										"filepos" : -1,
										"snapshotfileid" : "de68120beaf2edaf266288abbdf167a7"
									}

								}
, 								{
									"filetype" : "C74Snapshot",
									"version" : 2,
									"minorversion" : 0,
									"name" : "Spongy",
									"origin" : "untitled",
									"type" : "rnbo",
									"subtype" : "",
									"embed" : 1,
									"snapshot" : 									{
										"__sps" : 										{
											"Compensation~" : 											{

											}
,
											"Compression~" : 											{

											}
,
											"Volume&Clip~" : 											{

											}
,
											"Lookahead~" : 											{

											}

										}
,
										"sustain" : 										{
											"value" : 100
										}
,
										"attack" : 										{
											"value" : 0
										}
,
										"__presetid" : "untitled",
										"softclip" : 										{
											"value" : 0
										}
,
										"comp" : 										{
											"value" : 50
										}
,
										"volume" : 										{
											"value" : 0
										}
,
										"lookahead" : 										{
											"value" : 1
										}

									}
,
									"fileref" : 									{
										"name" : "Default[1]",
										"filename" : "Default[1].maxsnap",
										"filepath" : "~/Documents/Max 8/Snapshots",
										"filepos" : -1,
										"snapshotfileid" : "cc286f993fff0145d560f913fc3cdcf4"
									}

								}
, 								{
									"filetype" : "C74Snapshot",
									"version" : 2,
									"minorversion" : 0,
									"name" : "High Gain",
									"origin" : "74a09b97-f360-11ea-9b97-34363bd3ed8c",
									"type" : "rnbo",
									"subtype" : "",
									"embed" : 1,
									"snapshot" : 									{
										"__sps" : 										{
											"Compensation~" : 											{

											}
,
											"Compression~" : 											{

											}
,
											"Volume&Clip~" : 											{

											}
,
											"Lookahead~" : 											{

											}

										}
,
										"sustain" : 										{
											"value" : 25.0
										}
,
										"attack" : 										{
											"value" : 25.0
										}
,
										"__presetid" : "74a09b97-f360-11ea-9b97-34363bd3ed8c",
										"softclip" : 										{
											"value" : 1.0
										}
,
										"comp" : 										{
											"value" : 50.0
										}
,
										"volume" : 										{
											"value" : 40.0
										}
,
										"lookahead" : 										{
											"value" : 2.0
										}

									}
,
									"fileref" : 									{
										"name" : "High Gain",
										"filename" : "Default[1]_20220820.maxsnap",
										"filepath" : "~/Documents/Max 8/Snapshots",
										"filepos" : -1,
										"snapshotfileid" : "3a825db4c4c039dc72ebb4b687d06c83"
									}

								}
 ]
						}

					}
,
					"text" : "rnbo~ compressor_mono",
					"varname" : "rnbo~[1]"
				}

			}
, 			{
				"box" : 				{
					"attr" : "lookahead",
					"attr_display" : 1,
					"hint" : "Sets the amount of time that the input signal will be delayed",
					"id" : "obj-63",
					"lock" : 1,
					"maxclass" : "attrui",
					"numinlets" : 1,
					"numoutlets" : 1,
					"outlettype" : [ "" ],
					"parameter_enable" : 0,
					"patching_rect" : [ 204.0, 363.0, 110.0, 22.0 ],
					"presentation" : 1,
					"presentation_rect" : [ 76.5, 280.0, 110.0, 22.0 ],
					"text_width" : 64.0
				}

			}
, 			{
				"box" : 				{
					"fontname" : "Ableton Sans Light",
					"id" : "obj-4",
					"linecount" : 3,
					"maxclass" : "comment",
					"numinlets" : 0,
					"numoutlets" : 0,
					"patching_rect" : [ 96.0, 99.077780353919479, 138.0, 50.0 ],
					"suppressinlet" : 1,
					"text" : "load umenu preset name before allowing it to actually set parameters"
				}

			}
, 			{
				"box" : 				{
					"id" : "obj-14",
					"maxclass" : "newobj",
					"numinlets" : 1,
					"numoutlets" : 1,
					"outlettype" : [ "int" ],
					"patching_rect" : [ 228.5, 158.178987598743248, 22.0, 22.0 ],
					"text" : "t 1"
				}

			}
, 			{
				"box" : 				{
					"id" : "obj-16",
					"maxclass" : "newobj",
					"numinlets" : 2,
					"numoutlets" : 1,
					"outlettype" : [ "bang" ],
					"patching_rect" : [ 228.5, 127.077780353919479, 48.0, 22.0 ],
					"text" : "del 100"
				}

			}
, 			{
				"box" : 				{
					"id" : "obj-15",
					"maxclass" : "newobj",
					"numinlets" : 2,
					"numoutlets" : 1,
					"outlettype" : [ "" ],
					"patching_rect" : [ 228.5, 189.280194843567017, 52.0, 22.0 ],
					"text" : "gate 1 0"
				}

			}
, 			{
				"box" : 				{
					"id" : "obj-2",
					"maxclass" : "newobj",
					"numinlets" : 1,
					"numoutlets" : 3,
					"outlettype" : [ "", "", "" ],
					"patching_rect" : [ 119.0, 192.0, 69.0, 22.0 ],
					"restore" : [ 0 ],
					"saved_object_attributes" : 					{
						"parameter_enable" : 0,
						"parameter_mappable" : 0
					}
,
					"text" : "pattr preset",
					"varname" : "preset"
				}

			}
, 			{
				"box" : 				{
					"bgcolor" : [ 0.191979482769966, 0.191979482769966, 0.191979482769966, 1.0 ],
					"color" : [ 0.073607139289379, 0.073319047689438, 0.082183390855789, 1.0 ],
					"fontname" : "PT Mono",
					"id" : "obj-8",
					"maxclass" : "newobj",
					"numinlets" : 1,
					"numoutlets" : 3,
					"outlettype" : [ "", "", "" ],
					"patching_rect" : [ 387.0, 422.734195638237679, 196.0, 22.0 ],
					"restore" : [ 						{
							"filetype" : "C74Snapshot",
							"version" : 2,
							"minorversion" : 0,
							"name" : "compressor_mono",
							"origin" : "compressor_mono",
							"type" : "rnbo",
							"subtype" : "",
							"embed" : 1,
							"snapshot" : 							{
								"__sps" : 								{
									"Compensation~" : 									{

									}
,
									"Compression~" : 									{

									}
,
									"Lookahead~" : 									{

									}
,
									"Volume&Clip~" : 									{

									}

								}
,
								"sustain" : 								{
									"value" : 25.0
								}
,
								"comp" : 								{
									"value" : 25.0
								}
,
								"attack" : 								{
									"value" : 25.0
								}
,
								"__presetid" : "compressor_mono",
								"softclip" : 								{
									"value" : 0.0
								}
,
								"volume" : 								{
									"value" : 0.0
								}
,
								"lookahead" : 								{
									"value" : 1.0
								}

							}

						}
 ],
					"saved_object_attributes" : 					{
						"parameter_enable" : 0,
						"parameter_mappable" : 0
					}
,
					"text" : "pattr rnbo_compressor_mono",
					"textcolor" : [ 0.946456670761108, 0.828183054924011, 0.155197724699974, 1.0 ],
					"varname" : "rnbo_compressor_mono"
				}

			}
, 			{
				"box" : 				{
					"id" : "obj-68",
					"maxclass" : "newobj",
					"numinlets" : 1,
					"numoutlets" : 1,
					"outlettype" : [ "bang" ],
					"patching_rect" : [ 643.151638287444257, 82.063447347136616, 22.0, 22.0 ],
					"text" : "t b"
				}

			}
, 			{
				"box" : 				{
					"fontsize" : 10.512151719659835,
					"id" : "obj-67",
					"maxclass" : "message",
					"numinlets" : 2,
					"numoutlets" : 1,
					"outlettype" : [ "" ],
					"patching_rect" : [ 643.0, 42.0, 128.0, 20.0 ],
					"presentation" : 1,
					"presentation_linecount" : 2,
					"presentation_rect" : [ 86.0, 424.0, 91.0, 32.0 ],
					"text" : "save compressor settings",
					"textjustification" : 1
				}

			}
, 			{
				"box" : 				{
					"fontname" : "Silom",
					"id" : "obj-11",
					"maxclass" : "newobj",
					"numinlets" : 2,
					"numoutlets" : 1,
					"outlettype" : [ "bang" ],
					"patching_rect" : [ 739.951638418574476, 126.077780353919479, 48.0, 24.0 ],
					"text" : "del 10"
				}

			}
, 			{
				"box" : 				{
					"fontname" : "Silom",
					"id" : "obj-12",
					"maxclass" : "message",
					"numinlets" : 2,
					"numoutlets" : 1,
					"outlettype" : [ "" ],
					"patching_rect" : [ 739.528557745701619, 155.609504027487787, 81.0, 24.0 ],
					"text" : "writeagain"
				}

			}
, 			{
				"box" : 				{
					"fontname" : "Silom",
					"id" : "obj-45",
					"maxclass" : "newobj",
					"numinlets" : 1,
					"numoutlets" : 1,
					"outlettype" : [ "int" ],
					"patching_rect" : [ 407.0, 85.063447347136616, 26.0, 24.0 ],
					"text" : "t 1"
				}

			}
, 			{
				"box" : 				{
					"fontname" : "Silom",
					"id" : "obj-13",
					"maxclass" : "newobj",
					"numinlets" : 1,
					"numoutlets" : 1,
					"outlettype" : [ "" ],
					"patching_rect" : [ 407.0, 45.531723673568308, 69.0, 24.0 ],
					"text" : "deferlow"
				}

			}
, 			{
				"box" : 				{
					"fontname" : "Silom",
					"id" : "obj-44",
					"maxclass" : "newobj",
					"numinlets" : 2,
					"numoutlets" : 1,
					"outlettype" : [ "" ],
					"patching_rect" : [ 643.151638287444257, 155.609504027487787, 89.0, 24.0 ],
					"text" : "pack store 1"
				}

			}
, 			{
				"box" : 				{
					"fontname" : "Silom",
					"id" : "obj-32",
					"maxclass" : "newobj",
					"numinlets" : 1,
					"numoutlets" : 1,
					"outlettype" : [ "" ],
					"patching_rect" : [ 502.951638418574476, 221.031723673568308, 479.0, 24.0 ],
					"saved_object_attributes" : 					{
						"client_rect" : [ 100, 100, 500, 600 ],
						"parameter_enable" : 0,
						"parameter_mappable" : 0,
						"storage_rect" : [ 200, 200, 800, 500 ]
					}
,
					"text" : "pattrstorage #1_rnbo_compressor_mono @savemode 0 @outputmode 1",
					"varname" : "#1_rnbo_compressor_mono"
				}

			}
, 			{
				"box" : 				{
					"bgcolor" : [ 1.0, 0.949019607843137, 0.227450980392157, 0.57 ],
					"bgcolor2" : [ 0.941176470588235, 0.227450980392157, 1.0, 0.52 ],
					"bgfillcolor_angle" : 40.988422399155411,
					"bgfillcolor_autogradient" : 0.0,
					"bgfillcolor_color" : [ 0.941176470588235, 0.227450980392157, 1.0, 0.52 ],
					"bgfillcolor_color1" : [ 1.0, 0.949019607843137, 0.227450980392157, 0.57 ],
					"bgfillcolor_color2" : [ 0.941176470588235, 0.227450980392157, 1.0, 0.52 ],
					"bgfillcolor_proportion" : 0.39,
					"bgfillcolor_pt1" : [ -0.035353535353535, 0.95959595959596 ],
					"bgfillcolor_pt2" : [ 1.005050505050505, 0.055555555555556 ],
					"bgfillcolor_type" : "gradient",
					"fontname" : "Silom",
					"fontsize" : 10.942105946795223,
					"gradient" : 1,
					"id" : "obj-89",
					"maxclass" : "message",
					"numinlets" : 2,
					"numoutlets" : 1,
					"outlettype" : [ "" ],
					"patching_rect" : [ 520.428559390789815, 120.077780353919479, 114.0, 22.0 ],
					"style" : "messageGold",
					"text" : "storagewindow",
					"textcolor" : [ 0.0, 0.0, 0.0, 0.890196078431372 ],
					"textjustification" : 1
				}

			}
, 			{
				"box" : 				{
					"bgcolor" : [ 0.247058823529412, 0.086274509803922, 0.317647058823529, 1.0 ],
					"bgcolor2" : [ 0.505882352941176, 0.266666666666667, 0.043137254901961, 1.0 ],
					"bgfillcolor_angle" : 40.988422399155411,
					"bgfillcolor_autogradient" : 0.0,
					"bgfillcolor_color" : [ 0.505882352941176, 0.266666666666667, 0.043137254901961, 1.0 ],
					"bgfillcolor_color1" : [ 0.247058823529412, 0.086274509803922, 0.317647058823529, 1.0 ],
					"bgfillcolor_color2" : [ 0.505882352941176, 0.266666666666667, 0.043137254901961, 1.0 ],
					"bgfillcolor_proportion" : 0.39,
					"bgfillcolor_pt1" : [ -0.035353535353535, 0.95959595959596 ],
					"bgfillcolor_pt2" : [ 1.005050505050505, 0.055555555555556 ],
					"bgfillcolor_type" : "gradient",
					"fontname" : "Silom",
					"gradient" : 1,
					"id" : "obj-96",
					"maxclass" : "message",
					"numinlets" : 2,
					"numoutlets" : 1,
					"outlettype" : [ "" ],
					"patching_rect" : [ 527.928559390789815, 155.609504027487787, 104.0, 24.0 ],
					"style" : "messageGold",
					"text" : "clientwindow",
					"textcolor" : [ 0.8, 0.8, 0.8, 0.890196078431372 ]
				}

			}
, 			{
				"box" : 				{
					"fontname" : "Ableton Sans Light",
					"id" : "obj-9",
					"maxclass" : "comment",
					"numinlets" : 0,
					"numoutlets" : 0,
					"patching_rect" : [ 725.0, 565.0, 115.0, 21.0 ],
					"suppressinlet" : 1,
					"text" : "lookahead = latency"
				}

			}
, 			{
				"box" : 				{
					"comment" : "octaver params",
					"id" : "obj-6",
					"index" : 0,
					"maxclass" : "inlet",
					"numinlets" : 0,
					"numoutlets" : 1,
					"outlettype" : [ "" ],
					"patching_rect" : [ 994.0, 218.031723673568308, 30.0, 30.0 ]
				}

			}
, 			{
				"box" : 				{
					"comment" : "latency",
					"id" : "obj-5",
					"index" : 0,
					"maxclass" : "outlet",
					"numinlets" : 1,
					"numoutlets" : 0,
					"patching_rect" : [ 725.0, 620.0, 30.0, 30.0 ]
				}

			}
, 			{
				"box" : 				{
					"comment" : "left output",
					"id" : "obj-3",
					"index" : 0,
					"maxclass" : "outlet",
					"numinlets" : 1,
					"numoutlets" : 0,
					"patching_rect" : [ 350.283557234481123, 745.0, 30.0, 30.0 ]
				}

			}
, 			{
				"box" : 				{
					"comment" : "left imput",
					"id" : "obj-1",
					"index" : 0,
					"maxclass" : "inlet",
					"numinlets" : 0,
					"numoutlets" : 1,
					"outlettype" : [ "" ],
					"patching_rect" : [ 354.0, 374.473737438285752, 30.0, 30.0 ]
				}

			}
, 			{
				"box" : 				{
					"background" : 1,
					"fontface" : 0,
					"id" : "obj-65",
					"linecount" : 3,
					"maxclass" : "comment",
					"numinlets" : 1,
					"numoutlets" : 0,
					"patching_rect" : [ 851.0, 140.0, 432.0, 47.0 ],
					"presentation" : 1,
					"presentation_linecount" : 4,
					"presentation_rect" : [ 10.0, 127.0, 337.0, 60.0 ],
					"text" : "The main parameters are the compression amount (comp) and the \"shape\" of the compression: attack controls the amount of \"picky\" sound, and sustain controls the amount of \"spongy\" sound."
				}

			}
, 			{
				"box" : 				{
					"background" : 1,
					"fontname" : "Ableton Sans Light",
					"id" : "obj-77",
					"maxclass" : "comment",
					"numinlets" : 1,
					"numoutlets" : 0,
					"patching_rect" : [ 563.0, 625.0, 22.0, 21.0 ],
					"presentation" : 1,
					"presentation_rect" : [ 129.5, 534.0, 22.0, 21.0 ],
					"text" : "dB"
				}

			}
, 			{
				"box" : 				{
					"background" : 1,
					"fontname" : "Ableton Sans Light",
					"id" : "obj-78",
					"maxclass" : "comment",
					"numinlets" : 1,
					"numoutlets" : 0,
					"patching_rect" : [ 643.0, 625.0, 22.0, 21.0 ],
					"presentation" : 1,
					"presentation_rect" : [ 209.5, 534.0, 22.0, 21.0 ],
					"text" : "dB"
				}

			}
, 			{
				"box" : 				{
					"background" : 1,
					"fontname" : "Ableton Sans Light",
					"id" : "obj-79",
					"linecount" : 2,
					"maxclass" : "comment",
					"numinlets" : 1,
					"numoutlets" : 0,
					"patching_rect" : [ 617.0, 567.5, 58.0, 35.0 ],
					"presentation" : 1,
					"presentation_linecount" : 2,
					"presentation_rect" : [ 183.5, 476.5, 58.0, 35.0 ],
					"text" : "Gain  compens."
				}

			}
, 			{
				"box" : 				{
					"background" : 1,
					"fontface" : 0,
					"fontsize" : 10.0,
					"id" : "obj-80",
					"maxclass" : "comment",
					"numinlets" : 1,
					"numoutlets" : 0,
					"patching_rect" : [ 314.0, 437.5, 18.0, 18.0 ],
					"presentation" : 1,
					"presentation_rect" : [ 186.5, 354.5, 18.0, 18.0 ],
					"text" : "%",
					"textjustification" : 1
				}

			}
, 			{
				"box" : 				{
					"background" : 1,
					"fontname" : "Ableton Sans Light",
					"id" : "obj-193",
					"linecount" : 2,
					"maxclass" : "comment",
					"numinlets" : 1,
					"numoutlets" : 0,
					"patching_rect" : [ 537.0, 567.5, 45.0, 35.0 ],
					"presentation" : 1,
					"presentation_linecount" : 2,
					"presentation_rect" : [ 103.5, 476.5, 45.0, 35.0 ],
					"text" : "Gain reduc."
				}

			}
, 			{
				"box" : 				{
					"background" : 1,
					"fontface" : 0,
					"fontsize" : 10.0,
					"id" : "obj-81",
					"maxclass" : "comment",
					"numinlets" : 1,
					"numoutlets" : 0,
					"patching_rect" : [ 314.0, 461.5, 33.0, 18.0 ],
					"presentation" : 1,
					"presentation_rect" : [ 186.5, 378.5, 33.0, 18.0 ],
					"text" : "-/+ %",
					"textjustification" : 1
				}

			}
, 			{
				"box" : 				{
					"background" : 1,
					"fontface" : 0,
					"fontsize" : 10.0,
					"id" : "obj-82",
					"maxclass" : "comment",
					"numinlets" : 1,
					"numoutlets" : 0,
					"patching_rect" : [ 314.0, 413.5, 18.0, 18.0 ],
					"presentation" : 1,
					"presentation_rect" : [ 186.5, 330.5, 18.0, 18.0 ],
					"text" : "%",
					"textjustification" : 1
				}

			}
, 			{
				"box" : 				{
					"background" : 1,
					"fontface" : 0,
					"fontsize" : 10.0,
					"id" : "obj-83",
					"maxclass" : "comment",
					"numinlets" : 1,
					"numoutlets" : 0,
					"patching_rect" : [ 314.0, 390.0, 18.0, 18.0 ],
					"presentation" : 1,
					"presentation_rect" : [ 186.5, 307.0, 18.0, 18.0 ],
					"text" : "%",
					"textjustification" : 1
				}

			}
, 			{
				"box" : 				{
					"background" : 1,
					"fontface" : 0,
					"fontsize" : 10.0,
					"id" : "obj-84",
					"maxclass" : "comment",
					"numinlets" : 1,
					"numoutlets" : 0,
					"patching_rect" : [ 204.0, 322.0, 110.0, 18.0 ],
					"presentation" : 1,
					"presentation_rect" : [ 76.5, 239.0, 110.0, 18.0 ],
					"text" : "Parameters",
					"textjustification" : 1
				}

			}
, 			{
				"box" : 				{
					"background" : 1,
					"fontface" : 0,
					"id" : "obj-87",
					"linecount" : 4,
					"maxclass" : "comment",
					"numinlets" : 1,
					"numoutlets" : 0,
					"patching_rect" : [ 851.0, 63.063447347136616, 474.0, 60.0 ],
					"presentation" : 1,
					"presentation_linecount" : 6,
					"presentation_rect" : [ 10.0, 36.063447347136616, 337.0, 87.0 ],
					"text" : "Compression reduces the dynamic range of a signal by bringing down the level of the loudest parts (gain reduction), meaning the loud and quiet parts become closer together in volume, and the natural volume variations are less obvious. The audio compressor unit can then boost the overall level of the compressed signal (gain compensation). "
				}

			}
, 			{
				"box" : 				{
					"background" : 1,
					"fontface" : 0,
					"fontsize" : 10.0,
					"id" : "obj-88",
					"maxclass" : "comment",
					"numinlets" : 1,
					"numoutlets" : 0,
					"patching_rect" : [ 314.0, 366.0, 22.0, 18.0 ],
					"presentation" : 1,
					"presentation_rect" : [ 186.5, 283.0, 22.0, 18.0 ],
					"text" : "ms",
					"textjustification" : 1
				}

			}
, 			{
				"box" : 				{
					"background" : 1,
					"fontface" : 1,
					"fontsize" : 18.0,
					"id" : "obj-90",
					"maxclass" : "comment",
					"numinlets" : 1,
					"numoutlets" : 0,
					"patching_rect" : [ 851.0, 36.563447347136616, 173.0, 27.0 ],
					"presentation" : 1,
					"presentation_rect" : [ 10.0, 9.563447347136616, 173.0, 27.0 ],
					"text" : "RNBO Compressor"
				}

			}
, 			{
				"box" : 				{
					"background" : 1,
					"fontface" : 1,
					"id" : "obj-91",
					"maxclass" : "comment",
					"numinlets" : 1,
					"numoutlets" : 0,
					"patching_rect" : [ 1021.0, 43.063447347136616, 162.0, 20.0 ],
					"presentation" : 1,
					"presentation_rect" : [ 185.0, 13.063447347136616, 162.0, 20.0 ],
					"text" : "Classic mono compressor"
				}

			}
 ],
		"lines" : [ 			{
				"patchline" : 				{
					"destination" : [ "obj-62", 0 ],
					"order" : 0,
					"source" : [ "obj-1", 0 ]
				}

			}
, 			{
				"patchline" : 				{
					"destination" : [ "obj-99", 0 ],
					"order" : 1,
					"source" : [ "obj-1", 0 ]
				}

			}
, 			{
				"patchline" : 				{
					"destination" : [ "obj-12", 0 ],
					"source" : [ "obj-11", 0 ]
				}

			}
, 			{
				"patchline" : 				{
					"destination" : [ "obj-32", 0 ],
					"midpoints" : [ 749.028557745701619, 203.014325794620845, 512.451638418574476, 203.014325794620845 ],
					"source" : [ "obj-12", 0 ]
				}

			}
, 			{
				"patchline" : 				{
					"destination" : [ "obj-16", 0 ],
					"order" : 1,
					"source" : [ "obj-13", 0 ]
				}

			}
, 			{
				"patchline" : 				{
					"destination" : [ "obj-45", 0 ],
					"order" : 0,
					"source" : [ "obj-13", 0 ]
				}

			}
, 			{
				"patchline" : 				{
					"destination" : [ "obj-15", 0 ],
					"source" : [ "obj-14", 0 ]
				}

			}
, 			{
				"patchline" : 				{
					"destination" : [ "obj-58", 0 ],
					"source" : [ "obj-15", 0 ]
				}

			}
, 			{
				"patchline" : 				{
					"destination" : [ "obj-14", 0 ],
					"source" : [ "obj-16", 0 ]
				}

			}
, 			{
				"patchline" : 				{
					"destination" : [ "obj-59", 0 ],
					"source" : [ "obj-2", 1 ]
				}

			}
, 			{
				"patchline" : 				{
					"destination" : [ "obj-27", 0 ],
					"source" : [ "obj-31", 0 ]
				}

			}
, 			{
				"patchline" : 				{
					"destination" : [ "obj-41", 0 ],
					"source" : [ "obj-42", 0 ]
				}

			}
, 			{
				"patchline" : 				{
					"destination" : [ "obj-13", 0 ],
					"source" : [ "obj-43", 3 ]
				}

			}
, 			{
				"patchline" : 				{
					"destination" : [ "obj-31", 0 ],
					"source" : [ "obj-43", 1 ]
				}

			}
, 			{
				"patchline" : 				{
					"destination" : [ "obj-42", 0 ],
					"source" : [ "obj-43", 0 ]
				}

			}
, 			{
				"patchline" : 				{
					"destination" : [ "obj-5", 0 ],
					"source" : [ "obj-43", 2 ]
				}

			}
, 			{
				"patchline" : 				{
					"destination" : [ "obj-32", 0 ],
					"midpoints" : [ 652.651638287444257, 203.014325794620845, 512.451638418574476, 203.014325794620845 ],
					"source" : [ "obj-44", 0 ]
				}

			}
, 			{
				"patchline" : 				{
					"destination" : [ "obj-32", 0 ],
					"midpoints" : [ 416.5, 160.014325794620845, 512.451638418574476, 160.014325794620845 ],
					"source" : [ "obj-45", 0 ]
				}

			}
, 			{
				"patchline" : 				{
					"destination" : [ "obj-62", 0 ],
					"hidden" : 1,
					"source" : [ "obj-49", 0 ]
				}

			}
, 			{
				"patchline" : 				{
					"destination" : [ "obj-62", 0 ],
					"hidden" : 1,
					"source" : [ "obj-54", 0 ]
				}

			}
, 			{
				"patchline" : 				{
					"destination" : [ "obj-62", 0 ],
					"hidden" : 1,
					"source" : [ "obj-55", 0 ]
				}

			}
, 			{
				"patchline" : 				{
					"destination" : [ "obj-62", 0 ],
					"hidden" : 1,
					"source" : [ "obj-56", 0 ]
				}

			}
, 			{
				"patchline" : 				{
					"destination" : [ "obj-62", 0 ],
					"hidden" : 1,
					"source" : [ "obj-57", 0 ]
				}

			}
, 			{
				"patchline" : 				{
					"destination" : [ "obj-59", 0 ],
					"hidden" : 1,
					"source" : [ "obj-58", 0 ]
				}

			}
, 			{
				"patchline" : 				{
					"destination" : [ "obj-62", 0 ],
					"hidden" : 1,
					"source" : [ "obj-58", 1 ]
				}

			}
, 			{
				"patchline" : 				{
					"destination" : [ "obj-15", 1 ],
					"hidden" : 1,
					"source" : [ "obj-59", 0 ]
				}

			}
, 			{
				"patchline" : 				{
					"destination" : [ "obj-62", 0 ],
					"hidden" : 1,
					"source" : [ "obj-60", 0 ]
				}

			}
, 			{
				"patchline" : 				{
					"destination" : [ "obj-3", 0 ],
					"order" : 1,
					"source" : [ "obj-62", 0 ]
				}

			}
, 			{
				"patchline" : 				{
					"destination" : [ "obj-43", 0 ],
					"source" : [ "obj-62", 1 ]
				}

			}
, 			{
				"patchline" : 				{
					"destination" : [ "obj-98", 0 ],
					"order" : 0,
					"source" : [ "obj-62", 0 ]
				}

			}
, 			{
				"patchline" : 				{
					"destination" : [ "obj-62", 0 ],
					"hidden" : 1,
					"source" : [ "obj-63", 0 ]
				}

			}
, 			{
				"patchline" : 				{
					"destination" : [ "obj-68", 0 ],
					"source" : [ "obj-67", 0 ]
				}

			}
, 			{
				"patchline" : 				{
					"destination" : [ "obj-11", 0 ],
					"order" : 0,
					"source" : [ "obj-68", 0 ]
				}

			}
, 			{
				"patchline" : 				{
					"destination" : [ "obj-44", 0 ],
					"order" : 1,
					"source" : [ "obj-68", 0 ]
				}

			}
, 			{
				"patchline" : 				{
					"destination" : [ "obj-62", 0 ],
					"source" : [ "obj-8", 1 ]
				}

			}
, 			{
				"patchline" : 				{
					"destination" : [ "obj-32", 0 ],
					"midpoints" : [ 529.928559390789815, 152.014325794620845, 512.451638418574476, 152.014325794620845 ],
					"source" : [ "obj-89", 0 ]
				}

			}
, 			{
				"patchline" : 				{
					"destination" : [ "obj-32", 0 ],
					"midpoints" : [ 537.428559390789815, 203.014325794620845, 512.451638418574476, 203.014325794620845 ],
					"source" : [ "obj-96", 0 ]
				}

			}
 ],
		"parameters" : 		{
			"obj-62" : [ "rnbo~[1]", "rnbo~", 0 ],
			"parameterbanks" : 			{
				"0" : 				{
					"index" : 0,
					"name" : "",
					"parameters" : [ "-", "-", "-", "-", "-", "-", "-", "-" ]
				}

			}
,
			"inherited_shortname" : 1
		}
,
		"dependency_cache" : [ 			{
				"name" : "_20211127.maxsnap",
				"bootpath" : "~/Documents/Max 8/Snapshots",
				"patcherrelativepath" : "../../../../../Documents/Max 8/Snapshots",
				"type" : "mx@s",
				"implicit" : 1
			}
, 			{
				"name" : "compressor_mono.rnbopat",
				"bootpath" : "~/Music/_repo/sousastep/Sousastep Audio FX/patchers",
				"patcherrelativepath" : ".",
				"type" : "RBOP",
				"implicit" : 1
			}
 ],
		"autosave" : 0
	}

}
