{
	"patcher" : 	{
		"fileversion" : 1,
		"appversion" : 		{
			"major" : 8,
			"minor" : 6,
			"revision" : 2,
			"architecture" : "x64",
			"modernui" : 1
		}
,
		"classnamespace" : "box",
		"rect" : [ 59.0, 106.0, 640.0, 480.0 ],
		"bglocked" : 0,
		"openinpresentation" : 0,
		"default_fontsize" : 12.0,
		"default_fontface" : 0,
		"default_fontname" : "Arial",
		"gridonopen" : 1,
		"gridsize" : [ 15.0, 15.0 ],
		"gridsnaponopen" : 1,
		"objectsnaponopen" : 1,
		"statusbarvisible" : 2,
		"toolbarvisible" : 1,
		"lefttoolbarpinned" : 0,
		"toptoolbarpinned" : 0,
		"righttoolbarpinned" : 0,
		"bottomtoolbarpinned" : 0,
		"toolbars_unpinned_last_save" : 0,
		"tallnewobj" : 0,
		"boxanimatetime" : 200,
		"enablehscroll" : 1,
		"enablevscroll" : 1,
		"devicewidth" : 0.0,
		"description" : "",
		"digest" : "",
		"tags" : "",
		"style" : "",
		"subpatcher_template" : "",
		"assistshowspatchername" : 0,
		"boxes" : [ 			{
				"box" : 				{
					"id" : "obj-736",
					"maxclass" : "newobj",
					"numinlets" : 1,
					"numoutlets" : 1,
					"outlettype" : [ "" ],
					"patching_rect" : [ 216.0, 357.0, 70.0, 22.0 ],
					"text" : "loadmess 0"
				}

			}
, 			{
				"box" : 				{
					"id" : "obj-693",
					"maxclass" : "newobj",
					"numinlets" : 2,
					"numoutlets" : 1,
					"outlettype" : [ "" ],
					"patching_rect" : [ 1223.0, 315.0, 54.0, 22.0 ],
					"text" : "qlim 100"
				}

			}
, 			{
				"box" : 				{
					"id" : "obj-689",
					"maxclass" : "newobj",
					"numinlets" : 4,
					"numoutlets" : 1,
					"outlettype" : [ "" ],
					"patching_rect" : [ 1191.0, 373.0, 117.0, 22.0 ],
					"text" : "pak gravity 0. -9.8 0."
				}

			}
, 			{
				"box" : 				{
					"bgfillcolor_angle" : 334.020575237729702,
					"bgfillcolor_autogradient" : 0.0,
					"bgfillcolor_color" : [ 0.0, 0.0, 0.0, 0.0 ],
					"bgfillcolor_color1" : [ 0.124120846390724, 0.582354485988617, 0.573236286640167, 1.0 ],
					"bgfillcolor_color2" : [ 1.0, 0.0, 0.125490196078431, 1.0 ],
					"bgfillcolor_proportion" : 0.5,
					"bgfillcolor_pt1" : [ -0.075757575757576, 0.222222222222222 ],
					"bgfillcolor_pt2" : [ 1.116161616161616, 0.803030303030303 ],
					"bgfillcolor_type" : "gradient",
					"id" : "obj-764",
					"items" : [ "sphere", ",", "cube" ],
					"maxclass" : "umenu",
					"numinlets" : 1,
					"numoutlets" : 3,
					"outlettype" : [ "int", "", "" ],
					"parameter_enable" : 0,
					"patching_rect" : [ 1340.0, 428.0, 100.0, 22.0 ],
					"presentation" : 1,
					"presentation_rect" : [ 700.263256460614571, 1275.405772848045444, 100.0, 22.0 ],
					"varname" : "bouncy_shape_selector"
				}

			}
, 			{
				"box" : 				{
					"id" : "obj-763",
					"maxclass" : "newobj",
					"numinlets" : 1,
					"numoutlets" : 1,
					"outlettype" : [ "" ],
					"patching_rect" : [ 1380.0, 458.0, 89.0, 22.0 ],
					"text" : "prepend shape"
				}

			}
, 			{
				"box" : 				{
					"bgmode" : 0,
					"border" : 0,
					"clickthrough" : 0,
					"enablehscroll" : 0,
					"enablevscroll" : 0,
					"id" : "obj-748",
					"lockeddragscroll" : 0,
					"lockedsize" : 0,
					"maxclass" : "bpatcher",
					"name" : "scale_GUI_gen.maxpat",
					"numinlets" : 0,
					"numoutlets" : 1,
					"offset" : [ 0.0, 0.0 ],
					"outlettype" : [ "" ],
					"patching_rect" : [ 1001.0, 162.0, 180.0, 68.875 ],
					"presentation" : 1,
					"presentation_rect" : [ 700.263256460614571, 1206.205339735953885, 180.0, 62.875 ],
					"varname" : "bouncy_shape_scale",
					"viewvisibility" : 1
				}

			}
, 			{
				"box" : 				{
					"fontname" : "Ableton Sans Medium",
					"fontsize" : 16.0,
					"id" : "obj-749",
					"maxclass" : "comment",
					"numinlets" : 1,
					"numoutlets" : 0,
					"patching_rect" : [ 1001.0, 137.0, 180.0, 26.0 ],
					"presentation" : 1,
					"presentation_rect" : [ 700.263256460614571, 1189.87201744934805, 180.0, 26.0 ],
					"text" : "scale",
					"textcolor" : [ 0.0, 0.0, 0.0, 1.0 ],
					"textjustification" : 1
				}

			}
, 			{
				"box" : 				{
					"id" : "obj-741",
					"maxclass" : "newobj",
					"numinlets" : 4,
					"numoutlets" : 1,
					"outlettype" : [ "" ],
					"patching_rect" : [ 961.0, 257.0, 79.0, 22.0 ],
					"text" : "pak scale f f f"
				}

			}
, 			{
				"box" : 				{
					"fontname" : "Ableton Sans Light",
					"id" : "obj-723",
					"maxclass" : "comment",
					"numinlets" : 0,
					"numoutlets" : 0,
					"patching_rect" : [ 1317.0, 214.0, 54.0, 21.0 ],
					"suppressinlet" : 1,
					"text" : "inverted"
				}

			}
, 			{
				"box" : 				{
					"id" : "obj-669",
					"maxclass" : "newobj",
					"numinlets" : 2,
					"numoutlets" : 1,
					"outlettype" : [ "float" ],
					"patching_rect" : [ 1224.0, 241.0, 40.0, 22.0 ],
					"text" : "* 900."
				}

			}
, 			{
				"box" : 				{
					"id" : "obj-658",
					"maxclass" : "newobj",
					"numinlets" : 6,
					"numoutlets" : 1,
					"outlettype" : [ "" ],
					"patching_rect" : [ 1224.0, 213.0, 91.0, 22.0 ],
					"text" : "scale 0. 1. 1. -1"
				}

			}
, 			{
				"box" : 				{
					"bgmode" : 0,
					"border" : 0,
					"clickthrough" : 0,
					"enablehscroll" : 0,
					"enablevscroll" : 0,
					"id" : "obj-656",
					"lockeddragscroll" : 0,
					"lockedsize" : 0,
					"maxclass" : "bpatcher",
					"name" : "scale_GUI_gen.maxpat",
					"numinlets" : 0,
					"numoutlets" : 1,
					"offset" : [ 0.0, 0.0 ],
					"outlettype" : [ "" ],
					"patching_rect" : [ 1224.0, 128.0, 180.0, 68.875 ],
					"presentation" : 1,
					"presentation_rect" : [ 700.263256460614571, 1120.205339735953885, 180.0, 62.875 ],
					"varname" : "bouncy_shape_force",
					"viewvisibility" : 1
				}

			}
, 			{
				"box" : 				{
					"fontname" : "Ableton Sans Medium",
					"fontsize" : 16.0,
					"id" : "obj-657",
					"maxclass" : "comment",
					"numinlets" : 1,
					"numoutlets" : 0,
					"patching_rect" : [ 1224.0, 100.0, 180.0, 26.0 ],
					"presentation" : 1,
					"presentation_rect" : [ 700.263256460614571, 1103.87201744934805, 180.0, 26.0 ],
					"text" : "sideways force",
					"textcolor" : [ 0.0, 0.0, 0.0, 1.0 ],
					"textjustification" : 1
				}

			}
, 			{
				"box" : 				{
					"fontname" : "Ableton Sans Light",
					"id" : "obj-654",
					"linecount" : 4,
					"maxclass" : "comment",
					"numinlets" : 0,
					"numoutlets" : 0,
					"patching_rect" : [ 1066.0, 711.0, 195.0, 64.0 ],
					"suppressinlet" : 1,
					"text" : "this invisible concave open cylinder encompasses the sousaphone bell so that the small shape can bounce around within it."
				}

			}
, 			{
				"box" : 				{
					"id" : "obj-647",
					"maxclass" : "newobj",
					"numinlets" : 1,
					"numoutlets" : 1,
					"outlettype" : [ "" ],
					"patching_rect" : [ 815.0, 352.0, 54.0, 22.0 ],
					"text" : "deferlow"
				}

			}
, 			{
				"box" : 				{
					"id" : "obj-650",
					"maxclass" : "newobj",
					"numinlets" : 1,
					"numoutlets" : 1,
					"outlettype" : [ "bang" ],
					"patching_rect" : [ 815.0, 318.0, 58.0, 22.0 ],
					"text" : "loadbang"
				}

			}
, 			{
				"box" : 				{
					"id" : "obj-639",
					"maxclass" : "newobj",
					"numinlets" : 1,
					"numoutlets" : 1,
					"outlettype" : [ "" ],
					"patching_rect" : [ 884.0, 683.0, 54.0, 22.0 ],
					"text" : "deferlow"
				}

			}
, 			{
				"box" : 				{
					"color" : [ 0.0, 0.996078431372549, 0.043137254901961, 1.0 ],
					"id" : "obj-444",
					"maxclass" : "newobj",
					"numinlets" : 0,
					"numoutlets" : 1,
					"outlettype" : [ "" ],
					"patching_rect" : [ 102.0, 614.0, 32.0, 22.0 ],
					"text" : "r ms"
				}

			}
, 			{
				"box" : 				{
					"id" : "obj-555",
					"maxclass" : "newobj",
					"numinlets" : 1,
					"numoutlets" : 1,
					"outlettype" : [ "bang" ],
					"patching_rect" : [ 884.0, 650.0, 58.0, 22.0 ],
					"text" : "loadbang"
				}

			}
, 			{
				"box" : 				{
					"id" : "obj-626",
					"maxclass" : "message",
					"numinlets" : 2,
					"numoutlets" : 1,
					"outlettype" : [ "" ],
					"patching_rect" : [ 884.0, 719.0, 172.0, 22.0 ],
					"text" : "import_material blue.toon.jitmtl"
				}

			}
, 			{
				"box" : 				{
					"id" : "obj-627",
					"maxclass" : "newobj",
					"numinlets" : 8,
					"numoutlets" : 2,
					"outlettype" : [ "", "" ],
					"patching_rect" : [ 884.0, 753.0, 92.5, 22.0 ],
					"text" : "jit.gl.material"
				}

			}
, 			{
				"box" : 				{
					"id" : "obj-652",
					"linecount" : 2,
					"maxclass" : "message",
					"numinlets" : 2,
					"numoutlets" : 1,
					"outlettype" : [ "" ],
					"patching_rect" : [ 815.0, 387.0, 131.0, 35.0 ],
					"text" : "import_material purple.potomous.jitmtl"
				}

			}
, 			{
				"box" : 				{
					"id" : "obj-653",
					"maxclass" : "newobj",
					"numinlets" : 8,
					"numoutlets" : 2,
					"outlettype" : [ "", "" ],
					"patching_rect" : [ 815.0, 434.0, 92.5, 22.0 ],
					"text" : "jit.gl.material"
				}

			}
, 			{
				"box" : 				{
					"id" : "obj-673",
					"maxclass" : "newobj",
					"numinlets" : 2,
					"numoutlets" : 1,
					"outlettype" : [ "int" ],
					"patching_rect" : [ 1043.0, 368.0, 29.5, 22.0 ],
					"text" : "> 7."
				}

			}
, 			{
				"box" : 				{
					"id" : "obj-674",
					"maxclass" : "newobj",
					"numinlets" : 2,
					"numoutlets" : 1,
					"outlettype" : [ "int" ],
					"patching_rect" : [ 999.0, 368.0, 33.0, 22.0 ],
					"text" : "< -7."
				}

			}
, 			{
				"box" : 				{
					"id" : "obj-675",
					"maxclass" : "newobj",
					"numinlets" : 2,
					"numoutlets" : 2,
					"outlettype" : [ "bang", "" ],
					"patching_rect" : [ 1043.0, 414.0, 50.0, 22.0 ],
					"text" : "select 1"
				}

			}
, 			{
				"box" : 				{
					"id" : "obj-676",
					"maxclass" : "newobj",
					"numinlets" : 2,
					"numoutlets" : 1,
					"outlettype" : [ "int" ],
					"patching_rect" : [ 1083.0, 368.0, 33.0, 22.0 ],
					"text" : "< -7."
				}

			}
, 			{
				"box" : 				{
					"fontname" : "Ableton Sans Medium",
					"id" : "obj-679",
					"linecount" : 3,
					"maxclass" : "comment",
					"numinlets" : 1,
					"numoutlets" : 0,
					"patching_rect" : [ 332.0, 313.0, 92.0, 50.0 ],
					"presentation" : 1,
					"presentation_linecount" : 3,
					"presentation_rect" : [ 744.263256460614457, 1046.75001072883606, 92.0, 50.0 ],
					"text" : "enable/disable physics videoplane"
				}

			}
, 			{
				"box" : 				{
					"fontname" : "Verdana",
					"fontsize" : 12.0,
					"id" : "obj-682",
					"maxclass" : "newobj",
					"numinlets" : 1,
					"numoutlets" : 2,
					"outlettype" : [ "", "" ],
					"patching_rect" : [ 155.0, 715.0, 701.0, 23.0 ],
					"text" : "jit.phys.world bouncy_shape_ctx @drawto bouncy_shape_node @worldbox 0 @remove_plane 3 @gravity 0 -9.8 0"
				}

			}
, 			{
				"box" : 				{
					"fontname" : "Verdana",
					"fontsize" : 12.0,
					"id" : "obj-683",
					"maxclass" : "newobj",
					"numinlets" : 1,
					"numoutlets" : 2,
					"outlettype" : [ "bang", "erase" ],
					"patching_rect" : [ 50.0, 698.0, 62.0, 23.0 ],
					"text" : "t b erase"
				}

			}
, 			{
				"box" : 				{
					"fontname" : "Verdana",
					"fontsize" : 12.0,
					"id" : "obj-684",
					"maxclass" : "newobj",
					"numinlets" : 2,
					"numoutlets" : 1,
					"outlettype" : [ "bang" ],
					"patching_rect" : [ 50.0, 657.0, 71.0, 23.0 ],
					"text" : "qmetro 11"
				}

			}
, 			{
				"box" : 				{
					"fontname" : "Verdana",
					"fontsize" : 12.0,
					"id" : "obj-685",
					"maxclass" : "newobj",
					"numinlets" : 1,
					"numoutlets" : 2,
					"outlettype" : [ "bang", "" ],
					"patching_rect" : [ 116.0, 761.0, 307.0, 23.0 ],
					"text" : "jit.gl.render physics-render @erase_color 0 0 0 1"
				}

			}
, 			{
				"box" : 				{
					"id" : "obj-686",
					"maxclass" : "newobj",
					"numinlets" : 1,
					"numoutlets" : 3,
					"outlettype" : [ "jit_gl_texture", "", "" ],
					"patching_rect" : [ 366.0, 596.0, 232.0, 22.0 ],
					"text" : "jit.gl.node w @name bouncy_shape_node"
				}

			}
, 			{
				"box" : 				{
					"bgcolor" : [ 0.2, 0.2, 0.2, 0.5 ],
					"id" : "obj-687",
					"maxclass" : "toggle",
					"numinlets" : 1,
					"numoutlets" : 1,
					"outlettype" : [ "int" ],
					"parameter_enable" : 0,
					"patching_rect" : [ 366.0, 416.0, 24.0, 24.0 ],
					"presentation" : 1,
					"presentation_rect" : [ 699.055812611691863, 1048.75001072883606, 46.0, 46.0 ],
					"varname" : "physics_videoplane_toggle"
				}

			}
, 			{
				"box" : 				{
					"id" : "obj-688",
					"linecount" : 2,
					"maxclass" : "newobj",
					"numinlets" : 1,
					"numoutlets" : 1,
					"outlettype" : [ "" ],
					"patching_rect" : [ 366.0, 520.0, 56.0, 35.0 ],
					"text" : "prepend enable"
				}

			}
, 			{
				"box" : 				{
					"id" : "obj-705",
					"maxclass" : "message",
					"numinlets" : 2,
					"numoutlets" : 1,
					"outlettype" : [ "" ],
					"patching_rect" : [ 1086.0, 449.0, 79.0, 22.0 ],
					"text" : "velocity 0 0 0"
				}

			}
, 			{
				"box" : 				{
					"id" : "obj-706",
					"maxclass" : "newobj",
					"numinlets" : 1,
					"numoutlets" : 3,
					"outlettype" : [ "float", "float", "float" ],
					"patching_rect" : [ 999.0, 327.0, 116.5, 22.0 ],
					"text" : "unpack f f f"
				}

			}
, 			{
				"box" : 				{
					"id" : "obj-707",
					"maxclass" : "newobj",
					"numinlets" : 2,
					"numoutlets" : 1,
					"outlettype" : [ "bang" ],
					"patching_rect" : [ 516.0, 505.0, 69.0, 22.0 ],
					"text" : "qmetro 300"
				}

			}
, 			{
				"box" : 				{
					"id" : "obj-708",
					"maxclass" : "message",
					"numinlets" : 2,
					"numoutlets" : 1,
					"outlettype" : [ "" ],
					"patching_rect" : [ 516.0, 539.0, 67.0, 22.0 ],
					"text" : "getposition"
				}

			}
, 			{
				"box" : 				{
					"id" : "obj-709",
					"maxclass" : "newobj",
					"numinlets" : 2,
					"numoutlets" : 2,
					"outlettype" : [ "", "" ],
					"patching_rect" : [ 1243.0, 639.0, 81.0, 22.0 ],
					"text" : "route position"
				}

			}
, 			{
				"box" : 				{
					"id" : "obj-710",
					"maxclass" : "message",
					"numinlets" : 2,
					"numoutlets" : 1,
					"outlettype" : [ "" ],
					"patching_rect" : [ 973.0, 449.0, 80.0, 22.0 ],
					"text" : "position 0 0 0"
				}

			}
, 			{
				"box" : 				{
					"id" : "obj-711",
					"maxclass" : "newobj",
					"numinlets" : 1,
					"numoutlets" : 2,
					"outlettype" : [ "jit_matrix", "" ],
					"patching_rect" : [ 973.0, 591.0, 289.0, 22.0 ],
					"text" : "jit.gl.gridshape bouncy_shape_node @shape sphere"
				}

			}
, 			{
				"box" : 				{
					"id" : "obj-712",
					"maxclass" : "newobj",
					"numinlets" : 1,
					"numoutlets" : 2,
					"outlettype" : [ "", "" ],
					"patching_rect" : [ 989.0, 535.0, 828.0, 22.0 ],
					"text" : "jit.phys.body @shape sphere @restitution 1 @position 0 0 0 @scale 0.2 0.2 0.2 @friction 0.01 @mass 4 @restitution 0.8 @worldname bouncy_shape_ctx"
				}

			}
, 			{
				"box" : 				{
					"id" : "obj-721",
					"maxclass" : "newobj",
					"numinlets" : 1,
					"numoutlets" : 2,
					"outlettype" : [ "jit_matrix", "" ],
					"patching_rect" : [ 864.0, 787.0, 573.0, 22.0 ],
					"text" : "jit.gl.gridshape bouncy_shape_node @shape opencylinder @color 0 0 1 @rad_minor 0.2 @matrixoutput 2"
				}

			}
, 			{
				"box" : 				{
					"fontname" : "Verdana",
					"fontsize" : 12.0,
					"id" : "obj-722",
					"maxclass" : "newobj",
					"numinlets" : 1,
					"numoutlets" : 2,
					"outlettype" : [ "", "" ],
					"patching_rect" : [ 864.0, 821.0, 795.0, 23.0 ],
					"text" : "jit.phys.body @shape concave @scale 0.84 0.84 0.1 @mass 0. @restitution 1. @position 0. 0. 0. @worldname bouncy_shape_ctx"
				}

			}
 ],
		"lines" : [ 			{
				"patchline" : 				{
					"destination" : [ "obj-684", 1 ],
					"source" : [ "obj-444", 0 ]
				}

			}
, 			{
				"patchline" : 				{
					"destination" : [ "obj-639", 0 ],
					"source" : [ "obj-555", 0 ]
				}

			}
, 			{
				"patchline" : 				{
					"destination" : [ "obj-627", 0 ],
					"source" : [ "obj-626", 0 ]
				}

			}
, 			{
				"patchline" : 				{
					"destination" : [ "obj-721", 0 ],
					"source" : [ "obj-627", 0 ]
				}

			}
, 			{
				"patchline" : 				{
					"destination" : [ "obj-626", 0 ],
					"source" : [ "obj-639", 0 ]
				}

			}
, 			{
				"patchline" : 				{
					"destination" : [ "obj-652", 0 ],
					"source" : [ "obj-647", 0 ]
				}

			}
, 			{
				"patchline" : 				{
					"destination" : [ "obj-647", 0 ],
					"source" : [ "obj-650", 0 ]
				}

			}
, 			{
				"patchline" : 				{
					"destination" : [ "obj-653", 0 ],
					"source" : [ "obj-652", 0 ]
				}

			}
, 			{
				"patchline" : 				{
					"destination" : [ "obj-711", 0 ],
					"source" : [ "obj-653", 0 ]
				}

			}
, 			{
				"patchline" : 				{
					"destination" : [ "obj-658", 0 ],
					"source" : [ "obj-656", 0 ]
				}

			}
, 			{
				"patchline" : 				{
					"destination" : [ "obj-669", 0 ],
					"source" : [ "obj-658", 0 ]
				}

			}
, 			{
				"patchline" : 				{
					"destination" : [ "obj-693", 0 ],
					"source" : [ "obj-669", 0 ]
				}

			}
, 			{
				"patchline" : 				{
					"destination" : [ "obj-675", 0 ],
					"source" : [ "obj-673", 0 ]
				}

			}
, 			{
				"patchline" : 				{
					"destination" : [ "obj-675", 0 ],
					"source" : [ "obj-674", 0 ]
				}

			}
, 			{
				"patchline" : 				{
					"destination" : [ "obj-705", 0 ],
					"order" : 0,
					"source" : [ "obj-675", 0 ]
				}

			}
, 			{
				"patchline" : 				{
					"destination" : [ "obj-710", 0 ],
					"order" : 1,
					"source" : [ "obj-675", 0 ]
				}

			}
, 			{
				"patchline" : 				{
					"destination" : [ "obj-675", 0 ],
					"source" : [ "obj-676", 0 ]
				}

			}
, 			{
				"patchline" : 				{
					"destination" : [ "obj-685", 0 ],
					"source" : [ "obj-682", 0 ]
				}

			}
, 			{
				"patchline" : 				{
					"destination" : [ "obj-685", 0 ],
					"source" : [ "obj-683", 1 ]
				}

			}
, 			{
				"patchline" : 				{
					"destination" : [ "obj-685", 0 ],
					"source" : [ "obj-683", 0 ]
				}

			}
, 			{
				"patchline" : 				{
					"destination" : [ "obj-683", 0 ],
					"source" : [ "obj-684", 0 ]
				}

			}
, 			{
				"patchline" : 				{
					"destination" : [ "obj-721", 0 ],
					"midpoints" : [ 482.0, 690.545102725235665, 873.5, 690.545102725235665 ],
					"source" : [ "obj-686", 1 ]
				}

			}
, 			{
				"patchline" : 				{
					"destination" : [ "obj-684", 0 ],
					"order" : 2,
					"source" : [ "obj-687", 0 ]
				}

			}
, 			{
				"patchline" : 				{
					"destination" : [ "obj-688", 0 ],
					"order" : 1,
					"source" : [ "obj-687", 0 ]
				}

			}
, 			{
				"patchline" : 				{
					"destination" : [ "obj-707", 0 ],
					"order" : 0,
					"source" : [ "obj-687", 0 ]
				}

			}
, 			{
				"patchline" : 				{
					"destination" : [ "obj-682", 0 ],
					"order" : 1,
					"source" : [ "obj-688", 0 ]
				}

			}
, 			{
				"patchline" : 				{
					"destination" : [ "obj-686", 0 ],
					"order" : 0,
					"source" : [ "obj-688", 0 ]
				}

			}
, 			{
				"patchline" : 				{
					"destination" : [ "obj-682", 0 ],
					"source" : [ "obj-689", 0 ]
				}

			}
, 			{
				"patchline" : 				{
					"destination" : [ "obj-689", 1 ],
					"source" : [ "obj-693", 0 ]
				}

			}
, 			{
				"patchline" : 				{
					"destination" : [ "obj-712", 0 ],
					"source" : [ "obj-705", 0 ]
				}

			}
, 			{
				"patchline" : 				{
					"destination" : [ "obj-673", 0 ],
					"order" : 0,
					"source" : [ "obj-706", 0 ]
				}

			}
, 			{
				"patchline" : 				{
					"destination" : [ "obj-674", 0 ],
					"order" : 1,
					"source" : [ "obj-706", 0 ]
				}

			}
, 			{
				"patchline" : 				{
					"destination" : [ "obj-676", 0 ],
					"source" : [ "obj-706", 1 ]
				}

			}
, 			{
				"patchline" : 				{
					"destination" : [ "obj-708", 0 ],
					"source" : [ "obj-707", 0 ]
				}

			}
, 			{
				"patchline" : 				{
					"destination" : [ "obj-711", 0 ],
					"source" : [ "obj-708", 0 ]
				}

			}
, 			{
				"patchline" : 				{
					"destination" : [ "obj-706", 0 ],
					"midpoints" : [ 1252.5, 696.704658971375466, 959.0, 696.704658971375466, 959.0, 373.037993059700739, 933.0, 373.037993059700739, 933.0, 303.704659329003107, 1008.5, 303.704659329003107 ],
					"source" : [ "obj-709", 0 ]
				}

			}
, 			{
				"patchline" : 				{
					"destination" : [ "obj-712", 0 ],
					"source" : [ "obj-710", 0 ]
				}

			}
, 			{
				"patchline" : 				{
					"destination" : [ "obj-709", 0 ],
					"source" : [ "obj-711", 1 ]
				}

			}
, 			{
				"patchline" : 				{
					"destination" : [ "obj-711", 0 ],
					"source" : [ "obj-712", 0 ]
				}

			}
, 			{
				"patchline" : 				{
					"destination" : [ "obj-722", 0 ],
					"source" : [ "obj-721", 0 ]
				}

			}
, 			{
				"patchline" : 				{
					"destination" : [ "obj-687", 0 ],
					"source" : [ "obj-736", 0 ]
				}

			}
, 			{
				"patchline" : 				{
					"destination" : [ "obj-712", 0 ],
					"source" : [ "obj-741", 0 ]
				}

			}
, 			{
				"patchline" : 				{
					"destination" : [ "obj-741", 3 ],
					"order" : 0,
					"source" : [ "obj-748", 0 ]
				}

			}
, 			{
				"patchline" : 				{
					"destination" : [ "obj-741", 2 ],
					"order" : 1,
					"source" : [ "obj-748", 0 ]
				}

			}
, 			{
				"patchline" : 				{
					"destination" : [ "obj-741", 1 ],
					"order" : 2,
					"source" : [ "obj-748", 0 ]
				}

			}
, 			{
				"patchline" : 				{
					"destination" : [ "obj-711", 0 ],
					"order" : 1,
					"source" : [ "obj-763", 0 ]
				}

			}
, 			{
				"patchline" : 				{
					"destination" : [ "obj-712", 0 ],
					"order" : 0,
					"source" : [ "obj-763", 0 ]
				}

			}
, 			{
				"patchline" : 				{
					"destination" : [ "obj-763", 0 ],
					"source" : [ "obj-764", 1 ]
				}

			}
 ]
	}

}
