{
	"patcher" : 	{
		"fileversion" : 1,
		"appversion" : 		{
			"major" : 8,
			"minor" : 6,
			"revision" : 0,
			"architecture" : "x64",
			"modernui" : 1
		}
,
		"classnamespace" : "box",
		"rect" : [ 955.0, 118.0, 1479.0, 1252.0 ],
		"bglocked" : 0,
		"openinpresentation" : 1,
		"default_fontsize" : 12.0,
		"default_fontface" : 0,
		"default_fontname" : "Arial",
		"gridonopen" : 1,
		"gridsize" : [ 15.0, 15.0 ],
		"gridsnaponopen" : 1,
		"objectsnaponopen" : 1,
		"statusbarvisible" : 2,
		"toolbarvisible" : 1,
		"lefttoolbarpinned" : 0,
		"toptoolbarpinned" : 0,
		"righttoolbarpinned" : 0,
		"bottomtoolbarpinned" : 0,
		"toolbars_unpinned_last_save" : 0,
		"tallnewobj" : 0,
		"boxanimatetime" : 200,
		"enablehscroll" : 1,
		"enablevscroll" : 1,
		"devicewidth" : 0.0,
		"description" : "",
		"digest" : "",
		"tags" : "",
		"style" : "",
		"subpatcher_template" : "",
		"assistshowspatchername" : 0,
		"boxes" : [ 			{
				"box" : 				{
					"id" : "obj-69",
					"maxclass" : "message",
					"numinlets" : 2,
					"numoutlets" : 1,
					"outlettype" : [ "" ],
					"patching_rect" : [ 1087.0, 1500.0, 141.0, 22.0 ],
					"text" : "param Color4 $1 $2 $3 1"
				}

			}
, 			{
				"box" : 				{
					"id" : "obj-68",
					"maxclass" : "message",
					"numinlets" : 2,
					"numoutlets" : 1,
					"outlettype" : [ "" ],
					"patching_rect" : [ 942.0, 1500.0, 141.0, 22.0 ],
					"text" : "param Color3 $1 $2 $3 1"
				}

			}
, 			{
				"box" : 				{
					"id" : "obj-66",
					"maxclass" : "message",
					"numinlets" : 2,
					"numoutlets" : 1,
					"outlettype" : [ "" ],
					"patching_rect" : [ 786.0, 1500.0, 141.0, 22.0 ],
					"text" : "param Color2 $1 $2 $3 1"
				}

			}
, 			{
				"box" : 				{
					"id" : "obj-64",
					"maxclass" : "message",
					"numinlets" : 2,
					"numoutlets" : 1,
					"outlettype" : [ "" ],
					"patching_rect" : [ 634.0, 1499.875, 141.0, 22.0 ],
					"text" : "param Color1 $1 $2 $3 1"
				}

			}
, 			{
				"box" : 				{
					"id" : "obj-46",
					"maxclass" : "newobj",
					"numinlets" : 1,
					"numoutlets" : 1,
					"outlettype" : [ "" ],
					"patching_rect" : [ 1087.0, 1407.0, 71.0, 22.0 ],
					"text" : "prepend hsl"
				}

			}
, 			{
				"box" : 				{
					"id" : "obj-52",
					"maxclass" : "swatch",
					"numinlets" : 3,
					"numoutlets" : 2,
					"outlettype" : [ "", "float" ],
					"parameter_enable" : 0,
					"patching_rect" : [ 1087.0, 1442.0, 98.0, 49.0 ],
					"saturation" : 0.5
				}

			}
, 			{
				"box" : 				{
					"id" : "obj-22",
					"maxclass" : "newobj",
					"numinlets" : 1,
					"numoutlets" : 1,
					"outlettype" : [ "" ],
					"patching_rect" : [ 942.0, 1407.0, 71.0, 22.0 ],
					"text" : "prepend hsl"
				}

			}
, 			{
				"box" : 				{
					"id" : "obj-45",
					"maxclass" : "swatch",
					"numinlets" : 3,
					"numoutlets" : 2,
					"outlettype" : [ "", "float" ],
					"parameter_enable" : 0,
					"patching_rect" : [ 942.0, 1442.0, 98.0, 49.0 ],
					"saturation" : 0.5
				}

			}
, 			{
				"box" : 				{
					"id" : "obj-15",
					"maxclass" : "newobj",
					"numinlets" : 1,
					"numoutlets" : 1,
					"outlettype" : [ "" ],
					"patching_rect" : [ 786.0, 1407.0, 71.0, 22.0 ],
					"text" : "prepend hsl"
				}

			}
, 			{
				"box" : 				{
					"id" : "obj-21",
					"maxclass" : "swatch",
					"numinlets" : 3,
					"numoutlets" : 2,
					"outlettype" : [ "", "float" ],
					"parameter_enable" : 0,
					"patching_rect" : [ 786.0, 1442.0, 98.0, 49.0 ],
					"saturation" : 0.5
				}

			}
, 			{
				"box" : 				{
					"id" : "obj-14",
					"maxclass" : "newobj",
					"numinlets" : 1,
					"numoutlets" : 1,
					"outlettype" : [ "" ],
					"patching_rect" : [ 634.0, 1406.875, 71.0, 22.0 ],
					"text" : "prepend hsl"
				}

			}
, 			{
				"box" : 				{
					"id" : "obj-8",
					"maxclass" : "swatch",
					"numinlets" : 3,
					"numoutlets" : 2,
					"outlettype" : [ "", "float" ],
					"parameter_enable" : 0,
					"patching_rect" : [ 634.0, 1441.875, 98.0, 49.0 ],
					"saturation" : 0.5
				}

			}
, 			{
				"box" : 				{
					"id" : "obj-44",
					"maxclass" : "newobj",
					"numinlets" : 2,
					"numoutlets" : 1,
					"outlettype" : [ "" ],
					"patching_rect" : [ 1087.0, 1313.0, 80.0, 22.0 ],
					"text" : "speedlim 100"
				}

			}
, 			{
				"box" : 				{
					"id" : "obj-43",
					"maxclass" : "newobj",
					"numinlets" : 2,
					"numoutlets" : 1,
					"outlettype" : [ "" ],
					"patching_rect" : [ 942.0, 1313.0, 80.0, 22.0 ],
					"text" : "speedlim 100"
				}

			}
, 			{
				"box" : 				{
					"id" : "obj-42",
					"maxclass" : "newobj",
					"numinlets" : 2,
					"numoutlets" : 1,
					"outlettype" : [ "" ],
					"patching_rect" : [ 786.0, 1313.0, 80.0, 22.0 ],
					"text" : "speedlim 100"
				}

			}
, 			{
				"box" : 				{
					"id" : "obj-41",
					"maxclass" : "newobj",
					"numinlets" : 0,
					"numoutlets" : 1,
					"outlettype" : [ "" ],
					"patching_rect" : [ 1212.0, 1265.0, 32.0, 22.0 ],
					"text" : "r ms"
				}

			}
, 			{
				"box" : 				{
					"id" : "obj-27",
					"maxclass" : "newobj",
					"numinlets" : 2,
					"numoutlets" : 1,
					"outlettype" : [ "" ],
					"patching_rect" : [ 634.0, 1313.0, 80.0, 22.0 ],
					"text" : "speedlim 100"
				}

			}
, 			{
				"box" : 				{
					"fontname" : "Ableton Sans Light",
					"fontsize" : 16.0,
					"id" : "obj-80",
					"maxclass" : "comment",
					"numinlets" : 0,
					"numoutlets" : 0,
					"patching_rect" : [ 84.103174603174608, 1499.0, 84.0, 24.0 ],
					"presentation" : 1,
					"presentation_rect" : [ 179.0, 303.0, 84.0, 24.0 ],
					"suppressinlet" : 1,
					"text" : "saturation"
				}

			}
, 			{
				"box" : 				{
					"args" : [ "saturation" ],
					"bgmode" : 0,
					"border" : 0,
					"clickthrough" : 0,
					"enablehscroll" : 0,
					"enablevscroll" : 0,
					"id" : "obj-82",
					"lockeddragscroll" : 0,
					"lockedsize" : 0,
					"maxclass" : "bpatcher",
					"name" : "scale_GUI_gen.maxpat",
					"numinlets" : 0,
					"numoutlets" : 1,
					"offset" : [ 0.0, 0.0 ],
					"outlettype" : [ "" ],
					"patching_rect" : [ 7.103174603174608, 1459.0, 180.0, 66.875 ],
					"presentation" : 1,
					"presentation_rect" : [ 102.0, 261.0, 180.0, 66.875 ],
					"varname" : "PlanetOfBaobabs_saturation",
					"viewvisibility" : 1
				}

			}
, 			{
				"box" : 				{
					"id" : "obj-78",
					"maxclass" : "newobj",
					"numinlets" : 3,
					"numoutlets" : 1,
					"outlettype" : [ "" ],
					"patching_rect" : [ 1087.0, 1263.0, 88.0, 22.0 ],
					"text" : "pak 0.5 0.5 0.5"
				}

			}
, 			{
				"box" : 				{
					"id" : "obj-74",
					"maxclass" : "newobj",
					"numinlets" : 3,
					"numoutlets" : 1,
					"outlettype" : [ "" ],
					"patching_rect" : [ 942.0, 1263.0, 88.0, 22.0 ],
					"text" : "pak 0.5 0.5 0.5"
				}

			}
, 			{
				"box" : 				{
					"id" : "obj-70",
					"maxclass" : "newobj",
					"numinlets" : 3,
					"numoutlets" : 1,
					"outlettype" : [ "" ],
					"patching_rect" : [ 786.0, 1263.0, 88.0, 22.0 ],
					"text" : "pak 0.5 0.5 0.5"
				}

			}
, 			{
				"box" : 				{
					"id" : "obj-67",
					"linecount" : 5,
					"maxclass" : "comment",
					"numinlets" : 1,
					"numoutlets" : 0,
					"patching_rect" : [ 799.0, 1149.625, 189.0, 74.0 ],
					"text" : "4 hues, 4 brightness, 1 saturation\n\n\n\nhue saturation brightness"
				}

			}
, 			{
				"box" : 				{
					"id" : "obj-65",
					"maxclass" : "newobj",
					"numinlets" : 3,
					"numoutlets" : 1,
					"outlettype" : [ "" ],
					"patching_rect" : [ 634.0, 1263.0, 88.0, 22.0 ],
					"text" : "pak 0.5 0.5 0.5"
				}

			}
, 			{
				"box" : 				{
					"id" : "obj-17",
					"maxclass" : "newobj",
					"numinlets" : 2,
					"numoutlets" : 1,
					"outlettype" : [ "" ],
					"patching_rect" : [ 308.10317460317458, 155.625, 41.0, 22.0 ],
					"text" : "pak f f"
				}

			}
, 			{
				"box" : 				{
					"comment" : "",
					"id" : "obj-60",
					"index" : 0,
					"maxclass" : "outlet",
					"numinlets" : 1,
					"numoutlets" : 0,
					"patching_rect" : [ 578.0, 1672.0, 30.0, 30.0 ]
				}

			}
, 			{
				"box" : 				{
					"fontname" : "Ableton Sans Light",
					"fontsize" : 16.0,
					"id" : "obj-19",
					"maxclass" : "comment",
					"numinlets" : 0,
					"numoutlets" : 0,
					"patching_rect" : [ 84.047619047619051, 1405.875, 98.0, 24.0 ],
					"presentation" : 1,
					"presentation_rect" : [ 275.0, 583.0, 99.0, 24.0 ],
					"suppressinlet" : 1,
					"text" : "brightness4"
				}

			}
, 			{
				"box" : 				{
					"fontname" : "Ableton Sans Light",
					"fontsize" : 16.0,
					"id" : "obj-36",
					"maxclass" : "comment",
					"numinlets" : 0,
					"numoutlets" : 0,
					"patching_rect" : [ 84.126984126984127, 1302.75, 98.0, 24.0 ],
					"presentation" : 1,
					"presentation_rect" : [ 275.0, 513.0, 99.0, 24.0 ],
					"suppressinlet" : 1,
					"text" : "brightness3"
				}

			}
, 			{
				"box" : 				{
					"fontname" : "Ableton Sans Light",
					"fontsize" : 16.0,
					"id" : "obj-37",
					"maxclass" : "comment",
					"numinlets" : 0,
					"numoutlets" : 0,
					"patching_rect" : [ 84.206349206349216, 1199.625, 98.0, 24.0 ],
					"presentation" : 1,
					"presentation_rect" : [ 275.0, 443.0, 99.0, 24.0 ],
					"suppressinlet" : 1,
					"text" : "brightness2"
				}

			}
, 			{
				"box" : 				{
					"fontname" : "Ableton Sans Light",
					"fontsize" : 16.0,
					"id" : "obj-38",
					"maxclass" : "comment",
					"numinlets" : 0,
					"numoutlets" : 0,
					"patching_rect" : [ 84.285714285714292, 1096.5, 98.0, 24.0 ],
					"presentation" : 1,
					"presentation_rect" : [ 275.0, 373.0, 99.0, 24.0 ],
					"suppressinlet" : 1,
					"text" : "brightness1"
				}

			}
, 			{
				"box" : 				{
					"fontname" : "Ableton Sans Light",
					"fontsize" : 16.0,
					"id" : "obj-39",
					"maxclass" : "comment",
					"numinlets" : 0,
					"numoutlets" : 0,
					"patching_rect" : [ 84.365079365079367, 993.375, 84.0, 24.0 ],
					"presentation" : 1,
					"presentation_rect" : [ 86.0, 585.0, 84.0, 24.0 ],
					"suppressinlet" : 1,
					"text" : "hue4"
				}

			}
, 			{
				"box" : 				{
					"fontname" : "Ableton Sans Light",
					"fontsize" : 16.0,
					"id" : "obj-40",
					"maxclass" : "comment",
					"numinlets" : 0,
					"numoutlets" : 0,
					"patching_rect" : [ 84.444444444444443, 890.25, 84.0, 24.0 ],
					"presentation" : 1,
					"presentation_rect" : [ 86.0, 515.0, 84.0, 24.0 ],
					"suppressinlet" : 1,
					"text" : "hue3"
				}

			}
, 			{
				"box" : 				{
					"id" : "obj-47",
					"maxclass" : "newobj",
					"numinlets" : 1,
					"numoutlets" : 1,
					"outlettype" : [ "" ],
					"patching_rect" : [ 578.0, 1566.0, 90.0, 22.0 ],
					"text" : "prepend param"
				}

			}
, 			{
				"box" : 				{
					"args" : [ "brightness4" ],
					"bgmode" : 0,
					"border" : 0,
					"clickthrough" : 0,
					"enablehscroll" : 0,
					"enablevscroll" : 0,
					"id" : "obj-54",
					"lockeddragscroll" : 0,
					"lockedsize" : 0,
					"maxclass" : "bpatcher",
					"name" : "scale_GUI_gen.maxpat",
					"numinlets" : 0,
					"numoutlets" : 1,
					"offset" : [ 0.0, 0.0 ],
					"outlettype" : [ "" ],
					"patching_rect" : [ 7.103174603174608, 1366.375, 180.0, 66.875 ],
					"presentation" : 1,
					"presentation_rect" : [ 198.0, 541.0, 180.0, 66.875 ],
					"varname" : "PlanetOfBaobabs_brightness4",
					"viewvisibility" : 1
				}

			}
, 			{
				"box" : 				{
					"args" : [ "brightness3" ],
					"bgmode" : 0,
					"border" : 0,
					"clickthrough" : 0,
					"enablehscroll" : 0,
					"enablevscroll" : 0,
					"id" : "obj-55",
					"lockeddragscroll" : 0,
					"lockedsize" : 0,
					"maxclass" : "bpatcher",
					"name" : "scale_GUI_gen.maxpat",
					"numinlets" : 0,
					"numoutlets" : 1,
					"offset" : [ 0.0, 0.0 ],
					"outlettype" : [ "" ],
					"patching_rect" : [ 7.103174603174608, 1262.75, 180.0, 66.875 ],
					"presentation" : 1,
					"presentation_rect" : [ 198.0, 471.0, 180.0, 66.875 ],
					"varname" : "PlanetOfBaobabs_brightness3",
					"viewvisibility" : 1
				}

			}
, 			{
				"box" : 				{
					"args" : [ "brightness2" ],
					"bgmode" : 0,
					"border" : 0,
					"clickthrough" : 0,
					"enablehscroll" : 0,
					"enablevscroll" : 0,
					"id" : "obj-56",
					"lockeddragscroll" : 0,
					"lockedsize" : 0,
					"maxclass" : "bpatcher",
					"name" : "scale_GUI_gen.maxpat",
					"numinlets" : 0,
					"numoutlets" : 1,
					"offset" : [ 0.0, 0.0 ],
					"outlettype" : [ "" ],
					"patching_rect" : [ 7.103174603174608, 1159.125, 180.0, 66.875 ],
					"presentation" : 1,
					"presentation_rect" : [ 198.0, 401.0, 180.0, 66.875 ],
					"varname" : "PlanetOfBaobabs_brightness2",
					"viewvisibility" : 1
				}

			}
, 			{
				"box" : 				{
					"args" : [ "brightness1" ],
					"bgmode" : 0,
					"border" : 0,
					"clickthrough" : 0,
					"enablehscroll" : 0,
					"enablevscroll" : 0,
					"id" : "obj-57",
					"lockeddragscroll" : 0,
					"lockedsize" : 0,
					"maxclass" : "bpatcher",
					"name" : "scale_GUI_gen.maxpat",
					"numinlets" : 0,
					"numoutlets" : 1,
					"offset" : [ 0.0, 0.0 ],
					"outlettype" : [ "" ],
					"patching_rect" : [ 7.103174603174608, 1055.5, 180.0, 66.875 ],
					"presentation" : 1,
					"presentation_rect" : [ 198.0, 331.0, 180.0, 66.875 ],
					"varname" : "PlanetOfBaobabs_brightness1",
					"viewvisibility" : 1
				}

			}
, 			{
				"box" : 				{
					"args" : [ "hue4" ],
					"bgmode" : 0,
					"border" : 0,
					"clickthrough" : 0,
					"enablehscroll" : 0,
					"enablevscroll" : 0,
					"id" : "obj-58",
					"lockeddragscroll" : 0,
					"lockedsize" : 0,
					"maxclass" : "bpatcher",
					"name" : "scale_GUI_gen.maxpat",
					"numinlets" : 0,
					"numoutlets" : 1,
					"offset" : [ 0.0, 0.0 ],
					"outlettype" : [ "" ],
					"patching_rect" : [ 7.103174603174608, 951.875, 180.0, 66.875 ],
					"presentation" : 1,
					"presentation_rect" : [ 9.0, 542.0, 180.0, 66.875 ],
					"varname" : "PlanetOfBaobabs_hue4",
					"viewvisibility" : 1
				}

			}
, 			{
				"box" : 				{
					"args" : [ "hue3" ],
					"bgmode" : 0,
					"border" : 0,
					"clickthrough" : 0,
					"enablehscroll" : 0,
					"enablevscroll" : 0,
					"id" : "obj-59",
					"lockeddragscroll" : 0,
					"lockedsize" : 0,
					"maxclass" : "bpatcher",
					"name" : "scale_GUI_gen.maxpat",
					"numinlets" : 0,
					"numoutlets" : 1,
					"offset" : [ 0.0, 0.0 ],
					"outlettype" : [ "" ],
					"patching_rect" : [ 7.103174603174608, 848.25, 180.0, 66.875 ],
					"presentation" : 1,
					"presentation_rect" : [ 9.0, 472.0, 180.0, 66.875 ],
					"varname" : "PlanetOfBaobabs_hue3",
					"viewvisibility" : 1
				}

			}
, 			{
				"box" : 				{
					"fontname" : "Ableton Sans Light",
					"fontsize" : 16.0,
					"id" : "obj-35",
					"maxclass" : "comment",
					"numinlets" : 0,
					"numoutlets" : 0,
					"patching_rect" : [ 84.444444444444443, 773.875, 84.0, 24.0 ],
					"presentation" : 1,
					"presentation_rect" : [ 85.0, 442.0, 84.0, 24.0 ],
					"suppressinlet" : 1,
					"text" : "hue2"
				}

			}
, 			{
				"box" : 				{
					"fontname" : "Ableton Sans Light",
					"fontsize" : 16.0,
					"id" : "obj-34",
					"maxclass" : "comment",
					"numinlets" : 0,
					"numoutlets" : 0,
					"patching_rect" : [ 84.523809523809518, 670.75, 84.0, 24.0 ],
					"presentation" : 1,
					"presentation_rect" : [ 86.0, 373.0, 84.0, 24.0 ],
					"suppressinlet" : 1,
					"text" : "hue1"
				}

			}
, 			{
				"box" : 				{
					"fontname" : "Ableton Sans Light",
					"fontsize" : 16.0,
					"id" : "obj-33",
					"maxclass" : "comment",
					"numinlets" : 0,
					"numoutlets" : 0,
					"patching_rect" : [ 84.603174603174608, 567.625, 84.0, 24.0 ],
					"presentation" : 1,
					"presentation_rect" : [ 276.0, 232.0, 84.0, 24.0 ],
					"suppressinlet" : 1,
					"text" : "density"
				}

			}
, 			{
				"box" : 				{
					"fontname" : "Ableton Sans Light",
					"fontsize" : 16.0,
					"id" : "obj-32",
					"maxclass" : "comment",
					"numinlets" : 0,
					"numoutlets" : 0,
					"patching_rect" : [ 84.682539682539684, 464.5, 84.0, 24.0 ],
					"presentation" : 1,
					"presentation_rect" : [ 276.0, 162.0, 84.0, 24.0 ],
					"suppressinlet" : 1,
					"text" : "depth"
				}

			}
, 			{
				"box" : 				{
					"fontname" : "Ableton Sans Light",
					"fontsize" : 16.0,
					"id" : "obj-31",
					"maxclass" : "comment",
					"numinlets" : 0,
					"numoutlets" : 0,
					"patching_rect" : [ 84.761904761904759, 361.375, 84.0, 24.0 ],
					"presentation" : 1,
					"presentation_rect" : [ 82.0, 232.0, 84.0, 24.0 ],
					"suppressinlet" : 1,
					"text" : "size"
				}

			}
, 			{
				"box" : 				{
					"fontname" : "Ableton Sans Light",
					"fontsize" : 16.0,
					"id" : "obj-30",
					"maxclass" : "comment",
					"numinlets" : 0,
					"numoutlets" : 0,
					"patching_rect" : [ 84.841269841269835, 258.25, 84.0, 24.0 ],
					"presentation" : 1,
					"presentation_rect" : [ 82.0, 163.0, 84.0, 24.0 ],
					"suppressinlet" : 1,
					"text" : "rotation"
				}

			}
, 			{
				"box" : 				{
					"fontname" : "Ableton Sans Light",
					"fontsize" : 16.0,
					"id" : "obj-29",
					"maxclass" : "comment",
					"numinlets" : 0,
					"numoutlets" : 0,
					"patching_rect" : [ 84.920634920634924, 155.125, 84.0, 24.0 ],
					"presentation" : 1,
					"presentation_rect" : [ 277.0, 93.0, 84.0, 24.0 ],
					"suppressinlet" : 1,
					"text" : "offsetY"
				}

			}
, 			{
				"box" : 				{
					"fontname" : "Ableton Sans Light",
					"fontsize" : 16.0,
					"id" : "obj-28",
					"maxclass" : "comment",
					"numinlets" : 0,
					"numoutlets" : 0,
					"patching_rect" : [ 85.0, 52.0, 84.0, 24.0 ],
					"presentation" : 1,
					"presentation_rect" : [ 82.0, 93.0, 84.0, 24.0 ],
					"suppressinlet" : 1,
					"text" : "offsetX"
				}

			}
, 			{
				"box" : 				{
					"fontname" : "Phosphate",
					"fontsize" : 36.0,
					"id" : "obj-20",
					"maxclass" : "comment",
					"numinlets" : 0,
					"numoutlets" : 0,
					"patching_rect" : [ 462.0, 38.0, 452.0, 47.0 ],
					"presentation" : 1,
					"presentation_rect" : [ 4.0, 4.0, 374.60317460317458, 47.0 ],
					"suppressinlet" : 1,
					"text" : "PlanetOfBaobabs",
					"textjustification" : 1
				}

			}
, 			{
				"box" : 				{
					"id" : "obj-26",
					"maxclass" : "newobj",
					"numinlets" : 6,
					"numoutlets" : 1,
					"outlettype" : [ "" ],
					"patching_rect" : [ 310.5, 265.190421342849731, 87.0, 22.0 ],
					"text" : "scale 0. 1. -2 2"
				}

			}
, 			{
				"box" : 				{
					"id" : "obj-25",
					"maxclass" : "newobj",
					"numinlets" : 6,
					"numoutlets" : 1,
					"outlettype" : [ "" ],
					"patching_rect" : [ 310.5, 368.882009208202362, 90.0, 22.0 ],
					"text" : "scale 0. 1. 5 12"
				}

			}
, 			{
				"box" : 				{
					"id" : "obj-24",
					"maxclass" : "newobj",
					"numinlets" : 6,
					"numoutlets" : 1,
					"outlettype" : [ "" ],
					"patching_rect" : [ 310.5, 472.573597073554993, 110.0, 22.0 ],
					"text" : "scale 0. 1. 0.01 0.1"
				}

			}
, 			{
				"box" : 				{
					"id" : "obj-23",
					"maxclass" : "newobj",
					"numinlets" : 6,
					"numoutlets" : 1,
					"outlettype" : [ "" ],
					"patching_rect" : [ 310.5, 580.938082098960876, 93.0, 22.0 ],
					"text" : "scale 0. 1. 0.1 4"
				}

			}
, 			{
				"box" : 				{
					"id" : "obj-18",
					"maxclass" : "newobj",
					"numinlets" : 6,
					"numoutlets" : 1,
					"outlettype" : [ "" ],
					"patching_rect" : [ 330.10317460317458, 112.625, 87.0, 22.0 ],
					"text" : "scale 0. 1. 1 -1"
				}

			}
, 			{
				"box" : 				{
					"id" : "obj-16",
					"maxclass" : "newobj",
					"numinlets" : 6,
					"numoutlets" : 1,
					"outlettype" : [ "" ],
					"patching_rect" : [ 310.5, 57.613317728042603, 87.0, 22.0 ],
					"text" : "scale 0. 1. 1 -1"
				}

			}
, 			{
				"box" : 				{
					"id" : "obj-13",
					"maxclass" : "newobj",
					"numinlets" : 1,
					"numoutlets" : 1,
					"outlettype" : [ "" ],
					"patching_rect" : [ 310.5, 608.280781864545361, 94.0, 22.0 ],
					"text" : "prepend density"
				}

			}
, 			{
				"box" : 				{
					"id" : "obj-12",
					"maxclass" : "newobj",
					"numinlets" : 1,
					"numoutlets" : 1,
					"outlettype" : [ "" ],
					"patching_rect" : [ 310.5, 503.424625491636334, 86.0, 22.0 ],
					"text" : "prepend depth"
				}

			}
, 			{
				"box" : 				{
					"id" : "obj-11",
					"maxclass" : "newobj",
					"numinlets" : 1,
					"numoutlets" : 1,
					"outlettype" : [ "" ],
					"patching_rect" : [ 310.5, 398.568469118727251, 77.0, 22.0 ],
					"text" : "prepend size"
				}

			}
, 			{
				"box" : 				{
					"id" : "obj-10",
					"maxclass" : "newobj",
					"numinlets" : 1,
					"numoutlets" : 1,
					"outlettype" : [ "" ],
					"patching_rect" : [ 310.5, 293.712312745818167, 96.0, 22.0 ],
					"text" : "prepend rotation"
				}

			}
, 			{
				"box" : 				{
					"id" : "obj-9",
					"maxclass" : "newobj",
					"numinlets" : 1,
					"numoutlets" : 1,
					"outlettype" : [ "" ],
					"patching_rect" : [ 308.10317460317458, 179.625, 85.0, 22.0 ],
					"text" : "prepend offset"
				}

			}
, 			{
				"box" : 				{
					"args" : [ "hue2" ],
					"bgmode" : 0,
					"border" : 0,
					"clickthrough" : 0,
					"enablehscroll" : 0,
					"enablevscroll" : 0,
					"id" : "obj-7",
					"lockeddragscroll" : 0,
					"lockedsize" : 0,
					"maxclass" : "bpatcher",
					"name" : "scale_GUI_gen.maxpat",
					"numinlets" : 0,
					"numoutlets" : 1,
					"offset" : [ 0.0, 0.0 ],
					"outlettype" : [ "" ],
					"patching_rect" : [ 7.5, 734.375, 180.0, 66.875 ],
					"presentation" : 1,
					"presentation_rect" : [ 9.0, 401.0, 180.0, 66.875 ],
					"varname" : "PlanetOfBaobabs_hue2",
					"viewvisibility" : 1
				}

			}
, 			{
				"box" : 				{
					"args" : [ "hue1" ],
					"bgmode" : 0,
					"border" : 0,
					"clickthrough" : 0,
					"enablehscroll" : 0,
					"enablevscroll" : 0,
					"id" : "obj-6",
					"lockeddragscroll" : 0,
					"lockedsize" : 0,
					"maxclass" : "bpatcher",
					"name" : "scale_GUI_gen.maxpat",
					"numinlets" : 0,
					"numoutlets" : 1,
					"offset" : [ 0.0, 0.0 ],
					"outlettype" : [ "" ],
					"patching_rect" : [ 7.5, 630.75, 180.0, 66.875 ],
					"presentation" : 1,
					"presentation_rect" : [ 9.0, 331.0, 180.0, 66.875 ],
					"varname" : "PlanetOfBaobabs_hue1",
					"viewvisibility" : 1
				}

			}
, 			{
				"box" : 				{
					"args" : [ "density" ],
					"bgmode" : 0,
					"border" : 0,
					"clickthrough" : 0,
					"enablehscroll" : 0,
					"enablevscroll" : 0,
					"id" : "obj-5",
					"lockeddragscroll" : 0,
					"lockedsize" : 0,
					"maxclass" : "bpatcher",
					"name" : "scale_GUI_gen.maxpat",
					"numinlets" : 0,
					"numoutlets" : 1,
					"offset" : [ 0.0, 0.0 ],
					"outlettype" : [ "" ],
					"patching_rect" : [ 7.5, 527.125, 180.0, 66.875 ],
					"presentation" : 1,
					"presentation_rect" : [ 199.0, 190.0, 180.0, 66.875 ],
					"varname" : "PlanetOfBaobabs_density",
					"viewvisibility" : 1
				}

			}
, 			{
				"box" : 				{
					"args" : [ "depth" ],
					"bgmode" : 0,
					"border" : 0,
					"clickthrough" : 0,
					"enablehscroll" : 0,
					"enablevscroll" : 0,
					"id" : "obj-4",
					"lockeddragscroll" : 0,
					"lockedsize" : 0,
					"maxclass" : "bpatcher",
					"name" : "scale_GUI_gen.maxpat",
					"numinlets" : 0,
					"numoutlets" : 1,
					"offset" : [ 0.0, 0.0 ],
					"outlettype" : [ "" ],
					"patching_rect" : [ 7.5, 423.5, 180.0, 66.875 ],
					"presentation" : 1,
					"presentation_rect" : [ 199.0, 120.0, 180.0, 66.875 ],
					"varname" : "PlanetOfBaobabs_depth",
					"viewvisibility" : 1
				}

			}
, 			{
				"box" : 				{
					"args" : [ "size" ],
					"bgmode" : 0,
					"border" : 0,
					"clickthrough" : 0,
					"enablehscroll" : 0,
					"enablevscroll" : 0,
					"id" : "obj-3",
					"lockeddragscroll" : 0,
					"lockedsize" : 0,
					"maxclass" : "bpatcher",
					"name" : "scale_GUI_gen.maxpat",
					"numinlets" : 0,
					"numoutlets" : 1,
					"offset" : [ 0.0, 0.0 ],
					"outlettype" : [ "" ],
					"patching_rect" : [ 7.5, 319.875, 180.0, 66.875 ],
					"presentation" : 1,
					"presentation_rect" : [ 5.0, 190.0, 180.0, 66.875 ],
					"varname" : "PlanetOfBaobabs_size",
					"viewvisibility" : 1
				}

			}
, 			{
				"box" : 				{
					"args" : [ "rotation" ],
					"bgmode" : 0,
					"border" : 0,
					"clickthrough" : 0,
					"enablehscroll" : 0,
					"enablevscroll" : 0,
					"id" : "obj-2",
					"lockeddragscroll" : 0,
					"lockedsize" : 0,
					"maxclass" : "bpatcher",
					"name" : "scale_GUI_gen.maxpat",
					"numinlets" : 0,
					"numoutlets" : 1,
					"offset" : [ 0.0, 0.0 ],
					"outlettype" : [ "" ],
					"patching_rect" : [ 7.5, 216.25, 180.0, 66.875 ],
					"presentation" : 1,
					"presentation_rect" : [ 5.0, 120.0, 180.0, 66.875 ],
					"varname" : "PlanetOfBaobabs_rotation",
					"viewvisibility" : 1
				}

			}
, 			{
				"box" : 				{
					"args" : [ "offsetY" ],
					"bgmode" : 0,
					"border" : 0,
					"clickthrough" : 0,
					"enablehscroll" : 0,
					"enablevscroll" : 0,
					"id" : "obj-1",
					"lockeddragscroll" : 0,
					"lockedsize" : 0,
					"maxclass" : "bpatcher",
					"name" : "scale_GUI_gen.maxpat",
					"numinlets" : 0,
					"numoutlets" : 1,
					"offset" : [ 0.0, 0.0 ],
					"outlettype" : [ "" ],
					"patching_rect" : [ 7.5, 112.625, 180.0, 66.875 ],
					"presentation" : 1,
					"presentation_rect" : [ 199.0, 50.0, 180.0, 66.875 ],
					"varname" : "PlanetOfBaobabs_offsetY",
					"viewvisibility" : 1
				}

			}
, 			{
				"box" : 				{
					"args" : [ "offsetX" ],
					"bgmode" : 0,
					"border" : 0,
					"clickthrough" : 0,
					"enablehscroll" : 0,
					"enablevscroll" : 0,
					"id" : "obj-602",
					"lockeddragscroll" : 0,
					"lockedsize" : 0,
					"maxclass" : "bpatcher",
					"name" : "scale_GUI_gen.maxpat",
					"numinlets" : 0,
					"numoutlets" : 1,
					"offset" : [ 0.0, 0.0 ],
					"outlettype" : [ "" ],
					"patching_rect" : [ 7.5, 9.0, 180.0, 66.875 ],
					"presentation" : 1,
					"presentation_rect" : [ 5.0, 50.0, 180.0, 66.875 ],
					"varname" : "PlanetOfBaobabs_offsetX",
					"viewvisibility" : 1
				}

			}
 ],
		"lines" : [ 			{
				"patchline" : 				{
					"destination" : [ "obj-18", 0 ],
					"midpoints" : [ 17.0, 189.0, 297.0, 189.0, 297.0, 95.0, 339.60317460317458, 95.0 ],
					"source" : [ "obj-1", 0 ]
				}

			}
, 			{
				"patchline" : 				{
					"destination" : [ "obj-47", 0 ],
					"midpoints" : [ 320.0, 322.0, 587.5, 322.0 ],
					"source" : [ "obj-10", 0 ]
				}

			}
, 			{
				"patchline" : 				{
					"destination" : [ "obj-47", 0 ],
					"midpoints" : [ 320.0, 429.0, 587.5, 429.0 ],
					"source" : [ "obj-11", 0 ]
				}

			}
, 			{
				"patchline" : 				{
					"destination" : [ "obj-47", 0 ],
					"midpoints" : [ 320.0, 535.0, 587.5, 535.0 ],
					"source" : [ "obj-12", 0 ]
				}

			}
, 			{
				"patchline" : 				{
					"destination" : [ "obj-47", 0 ],
					"midpoints" : [ 320.0, 669.0, 587.5, 669.0 ],
					"source" : [ "obj-13", 0 ]
				}

			}
, 			{
				"patchline" : 				{
					"destination" : [ "obj-8", 0 ],
					"source" : [ "obj-14", 0 ]
				}

			}
, 			{
				"patchline" : 				{
					"destination" : [ "obj-21", 0 ],
					"source" : [ "obj-15", 0 ]
				}

			}
, 			{
				"patchline" : 				{
					"destination" : [ "obj-17", 0 ],
					"source" : [ "obj-16", 0 ]
				}

			}
, 			{
				"patchline" : 				{
					"destination" : [ "obj-9", 0 ],
					"source" : [ "obj-17", 0 ]
				}

			}
, 			{
				"patchline" : 				{
					"destination" : [ "obj-17", 1 ],
					"source" : [ "obj-18", 0 ]
				}

			}
, 			{
				"patchline" : 				{
					"destination" : [ "obj-26", 0 ],
					"midpoints" : [ 17.0, 294.0, 297.0, 294.0, 297.0, 261.0, 320.0, 261.0 ],
					"source" : [ "obj-2", 0 ]
				}

			}
, 			{
				"patchline" : 				{
					"destination" : [ "obj-66", 0 ],
					"source" : [ "obj-21", 0 ]
				}

			}
, 			{
				"patchline" : 				{
					"destination" : [ "obj-45", 0 ],
					"source" : [ "obj-22", 0 ]
				}

			}
, 			{
				"patchline" : 				{
					"destination" : [ "obj-13", 0 ],
					"source" : [ "obj-23", 0 ]
				}

			}
, 			{
				"patchline" : 				{
					"destination" : [ "obj-12", 0 ],
					"source" : [ "obj-24", 0 ]
				}

			}
, 			{
				"patchline" : 				{
					"destination" : [ "obj-11", 0 ],
					"source" : [ "obj-25", 0 ]
				}

			}
, 			{
				"patchline" : 				{
					"destination" : [ "obj-10", 0 ],
					"source" : [ "obj-26", 0 ]
				}

			}
, 			{
				"patchline" : 				{
					"destination" : [ "obj-14", 0 ],
					"source" : [ "obj-27", 0 ]
				}

			}
, 			{
				"patchline" : 				{
					"destination" : [ "obj-25", 0 ],
					"midpoints" : [ 17.0, 396.0, 297.0, 396.0, 297.0, 363.0, 320.0, 363.0 ],
					"source" : [ "obj-3", 0 ]
				}

			}
, 			{
				"patchline" : 				{
					"destination" : [ "obj-24", 0 ],
					"midpoints" : [ 17.0, 501.0, 297.0, 501.0, 297.0, 468.0, 320.0, 468.0 ],
					"source" : [ "obj-4", 0 ]
				}

			}
, 			{
				"patchline" : 				{
					"destination" : [ "obj-27", 1 ],
					"order" : 3,
					"source" : [ "obj-41", 0 ]
				}

			}
, 			{
				"patchline" : 				{
					"destination" : [ "obj-42", 1 ],
					"order" : 2,
					"source" : [ "obj-41", 0 ]
				}

			}
, 			{
				"patchline" : 				{
					"destination" : [ "obj-43", 1 ],
					"order" : 1,
					"source" : [ "obj-41", 0 ]
				}

			}
, 			{
				"patchline" : 				{
					"destination" : [ "obj-44", 1 ],
					"order" : 0,
					"source" : [ "obj-41", 0 ]
				}

			}
, 			{
				"patchline" : 				{
					"destination" : [ "obj-15", 0 ],
					"source" : [ "obj-42", 0 ]
				}

			}
, 			{
				"patchline" : 				{
					"destination" : [ "obj-22", 0 ],
					"source" : [ "obj-43", 0 ]
				}

			}
, 			{
				"patchline" : 				{
					"destination" : [ "obj-46", 0 ],
					"source" : [ "obj-44", 0 ]
				}

			}
, 			{
				"patchline" : 				{
					"destination" : [ "obj-68", 0 ],
					"source" : [ "obj-45", 0 ]
				}

			}
, 			{
				"patchline" : 				{
					"destination" : [ "obj-52", 0 ],
					"source" : [ "obj-46", 0 ]
				}

			}
, 			{
				"patchline" : 				{
					"destination" : [ "obj-60", 0 ],
					"source" : [ "obj-47", 0 ]
				}

			}
, 			{
				"patchline" : 				{
					"destination" : [ "obj-23", 0 ],
					"midpoints" : [ 17.0, 603.0, 297.0, 603.0, 297.0, 576.0, 320.0, 576.0 ],
					"source" : [ "obj-5", 0 ]
				}

			}
, 			{
				"patchline" : 				{
					"destination" : [ "obj-69", 0 ],
					"source" : [ "obj-52", 0 ]
				}

			}
, 			{
				"patchline" : 				{
					"destination" : [ "obj-78", 2 ],
					"midpoints" : [ 16.603174603174608, 1443.0, 621.0, 1443.0, 621.0, 1245.0, 1165.5, 1245.0 ],
					"source" : [ "obj-54", 0 ]
				}

			}
, 			{
				"patchline" : 				{
					"destination" : [ "obj-74", 2 ],
					"midpoints" : [ 16.603174603174608, 1338.0, 621.0, 1338.0, 621.0, 1239.0, 1020.5, 1239.0 ],
					"source" : [ "obj-55", 0 ]
				}

			}
, 			{
				"patchline" : 				{
					"destination" : [ "obj-70", 2 ],
					"midpoints" : [ 16.603174603174608, 1242.0, 864.5, 1242.0 ],
					"source" : [ "obj-56", 0 ]
				}

			}
, 			{
				"patchline" : 				{
					"destination" : [ "obj-65", 2 ],
					"midpoints" : [ 16.603174603174608, 1146.0, 712.5, 1146.0 ],
					"source" : [ "obj-57", 0 ]
				}

			}
, 			{
				"patchline" : 				{
					"destination" : [ "obj-78", 0 ],
					"midpoints" : [ 16.603174603174608, 1041.0, 1096.5, 1041.0 ],
					"source" : [ "obj-58", 0 ]
				}

			}
, 			{
				"patchline" : 				{
					"destination" : [ "obj-74", 0 ],
					"midpoints" : [ 16.603174603174608, 936.0, 951.5, 936.0 ],
					"source" : [ "obj-59", 0 ]
				}

			}
, 			{
				"patchline" : 				{
					"destination" : [ "obj-65", 0 ],
					"midpoints" : [ 17.0, 720.0, 643.5, 720.0 ],
					"source" : [ "obj-6", 0 ]
				}

			}
, 			{
				"patchline" : 				{
					"destination" : [ "obj-16", 0 ],
					"midpoints" : [ 17.0, 87.0, 297.0, 87.0, 297.0, 51.0, 320.0, 51.0 ],
					"source" : [ "obj-602", 0 ]
				}

			}
, 			{
				"patchline" : 				{
					"destination" : [ "obj-60", 0 ],
					"source" : [ "obj-64", 0 ]
				}

			}
, 			{
				"patchline" : 				{
					"destination" : [ "obj-27", 0 ],
					"source" : [ "obj-65", 0 ]
				}

			}
, 			{
				"patchline" : 				{
					"destination" : [ "obj-60", 0 ],
					"source" : [ "obj-66", 0 ]
				}

			}
, 			{
				"patchline" : 				{
					"destination" : [ "obj-60", 0 ],
					"source" : [ "obj-68", 0 ]
				}

			}
, 			{
				"patchline" : 				{
					"destination" : [ "obj-60", 0 ],
					"source" : [ "obj-69", 0 ]
				}

			}
, 			{
				"patchline" : 				{
					"destination" : [ "obj-70", 0 ],
					"midpoints" : [ 17.0, 834.0, 795.5, 834.0 ],
					"source" : [ "obj-7", 0 ]
				}

			}
, 			{
				"patchline" : 				{
					"destination" : [ "obj-42", 0 ],
					"source" : [ "obj-70", 0 ]
				}

			}
, 			{
				"patchline" : 				{
					"destination" : [ "obj-43", 0 ],
					"source" : [ "obj-74", 0 ]
				}

			}
, 			{
				"patchline" : 				{
					"destination" : [ "obj-44", 0 ],
					"source" : [ "obj-78", 0 ]
				}

			}
, 			{
				"patchline" : 				{
					"destination" : [ "obj-64", 0 ],
					"source" : [ "obj-8", 0 ]
				}

			}
, 			{
				"patchline" : 				{
					"destination" : [ "obj-65", 1 ],
					"midpoints" : [ 16.603174603174608, 1536.0, 621.0, 1536.0, 621.0, 988.0, 678.0, 988.0 ],
					"order" : 3,
					"source" : [ "obj-82", 0 ]
				}

			}
, 			{
				"patchline" : 				{
					"destination" : [ "obj-70", 1 ],
					"midpoints" : [ 16.603174603174608, 1536.0, 621.0, 1536.0, 621.0, 960.0, 830.0, 960.0 ],
					"order" : 2,
					"source" : [ "obj-82", 0 ]
				}

			}
, 			{
				"patchline" : 				{
					"destination" : [ "obj-74", 1 ],
					"midpoints" : [ 16.603174603174608, 1536.0, 621.0, 1536.0, 621.0, 918.0, 986.0, 918.0 ],
					"order" : 1,
					"source" : [ "obj-82", 0 ]
				}

			}
, 			{
				"patchline" : 				{
					"destination" : [ "obj-78", 1 ],
					"midpoints" : [ 16.603174603174608, 1536.0, 621.0, 1536.0, 621.0, 904.0, 1131.0, 904.0 ],
					"order" : 0,
					"source" : [ "obj-82", 0 ]
				}

			}
, 			{
				"patchline" : 				{
					"destination" : [ "obj-47", 0 ],
					"midpoints" : [ 317.60317460317458, 210.0, 587.5, 210.0 ],
					"source" : [ "obj-9", 0 ]
				}

			}
 ],
		"parameters" : 		{
			"obj-1::obj-133" : [ "scale_invert[1]", "Phase-Inversion", 1 ],
			"obj-2::obj-133" : [ "scale_invert[2]", "Phase-Inversion", 1 ],
			"obj-3::obj-133" : [ "scale_invert[3]", "Phase-Inversion", 1 ],
			"obj-4::obj-133" : [ "scale_invert[4]", "Phase-Inversion", 1 ],
			"obj-54::obj-133" : [ "scale_invert[13]", "Phase-Inversion", 1 ],
			"obj-55::obj-133" : [ "scale_invert[12]", "Phase-Inversion", 1 ],
			"obj-56::obj-133" : [ "scale_invert[11]", "Phase-Inversion", 1 ],
			"obj-57::obj-133" : [ "scale_invert[10]", "Phase-Inversion", 1 ],
			"obj-58::obj-133" : [ "scale_invert[9]", "Phase-Inversion", 1 ],
			"obj-59::obj-133" : [ "scale_invert[8]", "Phase-Inversion", 1 ],
			"obj-5::obj-133" : [ "scale_invert[5]", "Phase-Inversion", 1 ],
			"obj-602::obj-133" : [ "scale_invert[47]", "Phase-Inversion", 1 ],
			"obj-6::obj-133" : [ "scale_invert[6]", "Phase-Inversion", 1 ],
			"obj-7::obj-133" : [ "scale_invert[7]", "Phase-Inversion", 1 ],
			"obj-82::obj-133" : [ "scale_invert[14]", "Phase-Inversion", 1 ],
			"parameterbanks" : 			{
				"0" : 				{
					"index" : 0,
					"name" : "",
					"parameters" : [ "-", "-", "-", "-", "-", "-", "-", "-" ]
				}

			}
,
			"parameter_overrides" : 			{
				"obj-1::obj-133" : 				{
					"parameter_longname" : "scale_invert[1]"
				}
,
				"obj-2::obj-133" : 				{
					"parameter_longname" : "scale_invert[2]"
				}
,
				"obj-3::obj-133" : 				{
					"parameter_longname" : "scale_invert[3]"
				}
,
				"obj-4::obj-133" : 				{
					"parameter_longname" : "scale_invert[4]"
				}
,
				"obj-54::obj-133" : 				{
					"parameter_longname" : "scale_invert[13]"
				}
,
				"obj-55::obj-133" : 				{
					"parameter_longname" : "scale_invert[12]"
				}
,
				"obj-56::obj-133" : 				{
					"parameter_longname" : "scale_invert[11]"
				}
,
				"obj-57::obj-133" : 				{
					"parameter_longname" : "scale_invert[10]"
				}
,
				"obj-58::obj-133" : 				{
					"parameter_longname" : "scale_invert[9]"
				}
,
				"obj-59::obj-133" : 				{
					"parameter_longname" : "scale_invert[8]"
				}
,
				"obj-5::obj-133" : 				{
					"parameter_longname" : "scale_invert[5]"
				}
,
				"obj-6::obj-133" : 				{
					"parameter_longname" : "scale_invert[6]"
				}
,
				"obj-7::obj-133" : 				{
					"parameter_longname" : "scale_invert[7]"
				}
,
				"obj-82::obj-133" : 				{
					"parameter_longname" : "scale_invert[14]"
				}

			}
,
			"inherited_shortname" : 1
		}
,
		"dependency_cache" : [ 			{
				"name" : "function_visualizer_clear_line.maxpat",
				"bootpath" : "~/Documents/Max 8/Projects/sousastep/SousaVFX/patchers",
				"patcherrelativepath" : ".",
				"type" : "JSON",
				"implicit" : 1
			}
, 			{
				"name" : "function_visualizer_floats.maxpat",
				"bootpath" : "~/Documents/Max 8/Projects/sousastep/SousaVFX/patchers",
				"patcherrelativepath" : ".",
				"type" : "JSON",
				"implicit" : 1
			}
, 			{
				"name" : "scale_GUI_gen.maxpat",
				"bootpath" : "~/Documents/Max 8/Projects/sousastep/SousaVFX/patchers",
				"patcherrelativepath" : ".",
				"type" : "JSON",
				"implicit" : 1
			}
 ],
		"autosave" : 0
	}

}
