{
	"patcher" : 	{
		"fileversion" : 1,
		"appversion" : 		{
			"major" : 9,
			"minor" : 0,
			"revision" : 4,
			"architecture" : "x64",
			"modernui" : 1
		}
,
		"classnamespace" : "box",
		"rect" : [ 718.0, 188.0, 1000.0, 780.0 ],
		"openinpresentation" : 1,
		"gridsize" : [ 15.0, 15.0 ],
		"boxes" : [ 			{
				"box" : 				{
					"id" : "obj-38",
					"maxclass" : "newobj",
					"numinlets" : 1,
					"numoutlets" : 1,
					"outlettype" : [ "" ],
					"patching_rect" : [ 365.0, 84.0, 108.0, 22.0 ],
					"text" : "loadmess set trails"
				}

			}
, 			{
				"box" : 				{
					"fontname" : "Monaco",
					"id" : "obj-47",
					"maxclass" : "newobj",
					"numinlets" : 1,
					"numoutlets" : 1,
					"outlettype" : [ "" ],
					"patching_rect" : [ 365.0, 248.0, 405.0, 23.0 ],
					"saved_object_attributes" : 					{
						"client_rect" : [ 1950, 347, 2533, 847 ],
						"parameter_enable" : 0,
						"parameter_mappable" : 0,
						"storage_rect" : [ 625, 377, 1225, 677 ]
					}
,
					"text" : "pattrstorage trails @greedy 0 @savemode 0 @changemode 1",
					"varname" : "trails"
				}

			}
, 			{
				"box" : 				{
					"args" : [ "#1" ],
					"bgmode" : 0,
					"border" : 0,
					"clickthrough" : 0,
					"enablehscroll" : 0,
					"enablevscroll" : 0,
					"id" : "obj-19",
					"lockeddragscroll" : 0,
					"lockedsize" : 0,
					"maxclass" : "bpatcher",
					"name" : "ISF-pattrstorage.maxpat",
					"numinlets" : 0,
					"numoutlets" : 1,
					"offset" : [ 0.0, 0.0 ],
					"outlettype" : [ "int" ],
					"patching_rect" : [ 365.0, 176.0, 159.0, 56.0 ],
					"presentation" : 1,
					"presentation_rect" : [ 16.0, 42.0, 159.0, 56.0 ],
					"varname" : "ISF-pattrstorage",
					"viewvisibility" : 1
				}

			}
, 			{
				"box" : 				{
					"fontname" : "Phosphate",
					"fontsize" : 24.0,
					"id" : "obj-20",
					"maxclass" : "comment",
					"numinlets" : 1,
					"numoutlets" : 0,
					"patching_rect" : [ 365.0, 124.0, 167.0, 35.0 ],
					"presentation" : 1,
					"presentation_rect" : [ 5.0, 5.0, 181.0, 35.0 ],
					"textjustification" : 1
				}

			}
, 			{
				"box" : 				{
					"args" : [ "trails", "trails" ],
					"bgmode" : 0,
					"border" : 0,
					"clickthrough" : 0,
					"enablehscroll" : 0,
					"enablevscroll" : 0,
					"id" : "obj-309",
					"lockeddragscroll" : 0,
					"lockedsize" : 0,
					"maxclass" : "bpatcher",
					"name" : "scale_GUI_gen.maxpat",
					"numinlets" : 1,
					"numoutlets" : 1,
					"offset" : [ 0.0, 0.0 ],
					"outlettype" : [ "" ],
					"patching_rect" : [ 50.0, 100.0, 180.0, 66.875 ],
					"presentation" : 1,
					"presentation_rect" : [ 5.5, 100.0, 180.0, 70.0 ],
					"varname" : "ISF_shader_brightness",
					"viewvisibility" : 1
				}

			}
, 			{
				"box" : 				{
					"comment" : "",
					"id" : "obj-316",
					"index" : 1,
					"maxclass" : "outlet",
					"numinlets" : 1,
					"numoutlets" : 0,
					"patching_rect" : [ 50.0, 226.875, 30.0, 30.0 ]
				}

			}
 ],
		"lines" : [ 			{
				"patchline" : 				{
					"destination" : [ "obj-47", 0 ],
					"source" : [ "obj-19", 0 ]
				}

			}
, 			{
				"patchline" : 				{
					"destination" : [ "obj-316", 0 ],
					"source" : [ "obj-309", 0 ]
				}

			}
, 			{
				"patchline" : 				{
					"destination" : [ "obj-20", 0 ],
					"source" : [ "obj-38", 0 ]
				}

			}
 ],
		"originid" : "pat-11828",
		"toolbaradditions" : [ "packagemanager" ],
		"toolbarexclusions" : [ "mixerslider", "quickrecord", "showsnapshots", "showmappings" ]
	}

}
