{
	"patcher" : 	{
		"fileversion" : 1,
		"appversion" : 		{
			"major" : 8,
			"minor" : 6,
			"revision" : 0,
			"architecture" : "x64",
			"modernui" : 1
		}
,
		"classnamespace" : "box",
		"rect" : [ 34.0, 87.0, 2492.0, 1319.0 ],
		"bglocked" : 0,
		"openinpresentation" : 1,
		"default_fontsize" : 12.0,
		"default_fontface" : 0,
		"default_fontname" : "Arial",
		"gridonopen" : 1,
		"gridsize" : [ 15.0, 15.0 ],
		"gridsnaponopen" : 1,
		"objectsnaponopen" : 1,
		"statusbarvisible" : 2,
		"toolbarvisible" : 1,
		"lefttoolbarpinned" : 0,
		"toptoolbarpinned" : 0,
		"righttoolbarpinned" : 0,
		"bottomtoolbarpinned" : 0,
		"toolbars_unpinned_last_save" : 0,
		"tallnewobj" : 0,
		"boxanimatetime" : 200,
		"enablehscroll" : 1,
		"enablevscroll" : 1,
		"devicewidth" : 0.0,
		"description" : "",
		"digest" : "",
		"tags" : "",
		"style" : "",
		"subpatcher_template" : "",
		"assistshowspatchername" : 0,
		"boxes" : [ 			{
				"box" : 				{
					"fontname" : "Ableton Sans Light",
					"id" : "obj-4",
					"maxclass" : "comment",
					"numinlets" : 0,
					"numoutlets" : 0,
					"patching_rect" : [ 61.0, 101.0, 150.0, 21.0 ],
					"presentation" : 1,
					"presentation_rect" : [ 126.0, 49.5, 44.0, 21.0 ],
					"suppressinlet" : 1,
					"text" : "pause:"
				}

			}
, 			{
				"box" : 				{
					"fontname" : "Ableton Sans Light",
					"id" : "obj-3",
					"maxclass" : "comment",
					"numinlets" : 0,
					"numoutlets" : 0,
					"patching_rect" : [ 46.0, 86.0, 150.0, 21.0 ],
					"presentation" : 1,
					"presentation_rect" : [ 29.0, 48.865079929303249, 41.0, 21.0 ],
					"suppressinlet" : 1,
					"text" : "reset: "
				}

			}
, 			{
				"box" : 				{
					"id" : "obj-462",
					"maxclass" : "newobj",
					"numinlets" : 6,
					"numoutlets" : 1,
					"outlettype" : [ "" ],
					"patching_rect" : [ 1299.930829349758824, 1693.0, 93.0, 22.0 ],
					"text" : "scale 0 255 0 1."
				}

			}
, 			{
				"box" : 				{
					"id" : "obj-460",
					"maxclass" : "newobj",
					"numinlets" : 6,
					"numoutlets" : 1,
					"outlettype" : [ "" ],
					"patching_rect" : [ 1218.930829349758824, 1666.0, 93.0, 22.0 ],
					"text" : "scale 0 255 0 1."
				}

			}
, 			{
				"box" : 				{
					"id" : "obj-458",
					"maxclass" : "newobj",
					"numinlets" : 6,
					"numoutlets" : 1,
					"outlettype" : [ "" ],
					"patching_rect" : [ 1139.930829349758824, 1639.0, 93.0, 22.0 ],
					"text" : "scale 0 255 0 1."
				}

			}
, 			{
				"box" : 				{
					"id" : "obj-454",
					"maxclass" : "newobj",
					"numinlets" : 6,
					"numoutlets" : 1,
					"outlettype" : [ "" ],
					"patching_rect" : [ 1060.930829349758824, 1612.0, 93.0, 22.0 ],
					"text" : "scale 0 255 0 1."
				}

			}
, 			{
				"box" : 				{
					"bgcolor" : [ 0.2, 0.2, 0.2, 0.0 ],
					"blinkcolor" : [ 1.0, 0.89, 0.09, 1.0 ],
					"id" : "obj-620",
					"maxclass" : "button",
					"numinlets" : 1,
					"numoutlets" : 1,
					"outlettype" : [ "bang" ],
					"outlinecolor" : [ 0.184313725490196, 0.176470588235294, 0.176470588235294, 1.0 ],
					"parameter_enable" : 0,
					"patching_rect" : [ 1964.125039836412725, 901.148171254408226, 24.0, 24.0 ],
					"presentation" : 1,
					"presentation_rect" : [ 172.0, 47.0, 26.0, 26.0 ]
				}

			}
, 			{
				"box" : 				{
					"bgcolor" : [ 0.2, 0.2, 0.2, 0.0 ],
					"blinkcolor" : [ 1.0, 0.89, 0.09, 1.0 ],
					"id" : "obj-708",
					"maxclass" : "button",
					"numinlets" : 1,
					"numoutlets" : 1,
					"outlettype" : [ "bang" ],
					"outlinecolor" : [ 0.184313725490196, 0.176470588235294, 0.176470588235294, 1.0 ],
					"parameter_enable" : 0,
					"patching_rect" : [ 1957.125039836412725, 1327.888888888889142, 24.0, 24.0 ],
					"presentation" : 1,
					"presentation_rect" : [ 69.0, 47.0, 24.730159858606498, 24.730159858606498 ]
				}

			}
, 			{
				"box" : 				{
					"bgcolor" : [ 0.952792822702703, 0.357141065945946, 0.064551065945946, 0.750162162162162 ],
					"fontname" : "Ableton Sans Bold",
					"fontsize" : 12.0,
					"id" : "obj-768",
					"maxclass" : "comment",
					"numinlets" : 1,
					"numoutlets" : 0,
					"patching_rect" : [ 2542.125039836412725, 1351.29921000000013, 202.0, 21.0 ],
					"presentation" : 1,
					"presentation_rect" : [ 2.0, 26.0, 223.0, 21.0 ],
					"text" : "attempting to connect in 9 seconds"
				}

			}
, 			{
				"box" : 				{
					"allowdrag" : 0,
					"bgcolor" : [ 0.301961, 0.301961, 0.301961, 1 ],
					"bgfillcolor_angle" : 89.222277005736373,
					"bgfillcolor_autogradient" : 0.0,
					"bgfillcolor_color" : [ 0.301961, 0.301961, 0.301961, 1 ],
					"bgfillcolor_color1" : [ 0.301961, 0.301961, 0.301961, 1 ],
					"bgfillcolor_color2" : [ 0.2, 0.2, 0.2, 1 ],
					"bgfillcolor_proportion" : 0.5,
					"bgfillcolor_pt1" : [ 0.661616161616162, 1.080808080808081 ],
					"bgfillcolor_pt2" : [ 0.676767676767677, -0.035353535353535 ],
					"bgfillcolor_type" : "color",
					"fontface" : 0,
					"fontname" : "Ableton Sans Light",
					"fontsize" : 12.0,
					"id" : "obj-769",
					"items" : [ "tbwDKPointer  v.0.2.0 ", ",", "Virtual Keyboard  v.0.2.0 ", ",", "Kensington Expert Mouse", ",", "CalDigit Thunderbolt 3 Audio", ",", "TouchBarUserDevice", ",", "Keyboard Backlight", ",", "Digitizer Usage 0x4", ",", "Apple Internal Keyboard / Trackpad", ",", "Apple Internal Keyboard / Trackpad 2", ",", "Apple Internal Keyboard / Trackpad 3", ",", "Apple Internal Keyboard / Trackpad 4", ",", "Apple Internal Keyboard / Trackpad 5", ",", "Page: 0xff00, Usage: 0xff", ",", "Page: 0xff00, Usage: 0x4", ",", "Headset", ",", "BTM" ],
					"labelclick" : 1,
					"maxclass" : "umenu",
					"numinlets" : 1,
					"numoutlets" : 3,
					"outlettype" : [ "int", "", "" ],
					"parameter_enable" : 0,
					"patching_rect" : [ 321.551393289097177, 268.433341264724731, 372.0, 23.0 ],
					"presentation" : 1,
					"presentation_rect" : [ 4.0, 4.0, 221.0, 23.0 ],
					"textcolor" : [ 0.945098039215686, 0.945098039215686, 0.945098039215686, 1.0 ]
				}

			}
, 			{
				"box" : 				{
					"format" : 6,
					"id" : "obj-779",
					"maxclass" : "flonum",
					"numinlets" : 1,
					"numoutlets" : 2,
					"outlettype" : [ "", "bang" ],
					"parameter_enable" : 0,
					"patching_rect" : [ 1922.0, 1810.0, 50.0, 22.0 ]
				}

			}
, 			{
				"box" : 				{
					"format" : 6,
					"id" : "obj-778",
					"maxclass" : "flonum",
					"numinlets" : 1,
					"numoutlets" : 2,
					"outlettype" : [ "", "bang" ],
					"parameter_enable" : 0,
					"patching_rect" : [ 1856.0, 1807.0, 50.0, 22.0 ]
				}

			}
, 			{
				"box" : 				{
					"format" : 6,
					"id" : "obj-777",
					"maxclass" : "flonum",
					"numinlets" : 1,
					"numoutlets" : 2,
					"outlettype" : [ "", "bang" ],
					"parameter_enable" : 0,
					"patching_rect" : [ 1791.0, 1805.0, 50.0, 22.0 ]
				}

			}
, 			{
				"box" : 				{
					"format" : 6,
					"id" : "obj-776",
					"maxclass" : "flonum",
					"numinlets" : 1,
					"numoutlets" : 2,
					"outlettype" : [ "", "bang" ],
					"parameter_enable" : 0,
					"patching_rect" : [ 1725.0, 1802.0, 50.0, 22.0 ]
				}

			}
, 			{
				"box" : 				{
					"id" : "obj-480",
					"maxclass" : "newobj",
					"numinlets" : 1,
					"numoutlets" : 0,
					"patching_rect" : [ 801.807153450002261, 2127.0, 30.0, 22.0 ],
					"text" : "s ←"
				}

			}
, 			{
				"box" : 				{
					"id" : "obj-481",
					"maxclass" : "newobj",
					"numinlets" : 1,
					"numoutlets" : 0,
					"patching_rect" : [ 763.807153450002261, 2127.0, 24.0, 22.0 ],
					"text" : "s ↓"
				}

			}
, 			{
				"box" : 				{
					"id" : "obj-482",
					"maxclass" : "newobj",
					"numinlets" : 1,
					"numoutlets" : 0,
					"patching_rect" : [ 725.807153450002261, 2127.0, 30.0, 22.0 ],
					"text" : "s →"
				}

			}
, 			{
				"box" : 				{
					"id" : "obj-483",
					"maxclass" : "newobj",
					"numinlets" : 1,
					"numoutlets" : 0,
					"patching_rect" : [ 691.258057500001087, 2127.0, 24.0, 22.0 ],
					"text" : "s ↑"
				}

			}
, 			{
				"box" : 				{
					"bgcolor" : [ 0.178526863455772, 0.331328541040421, 0.978633761405945, 1.0 ],
					"fontname" : "Arial",
					"fontsize" : 20.788986000000001,
					"id" : "obj-489",
					"maxclass" : "comment",
					"numinlets" : 1,
					"numoutlets" : 0,
					"patching_rect" : [ 873.635662166667316, 2086.0, 29.0, 30.0 ],
					"text" : "→",
					"textcolor" : [ 0.996078431372549, 0.996078431372549, 0.996078431372549, 1.0 ]
				}

			}
, 			{
				"box" : 				{
					"bgcolor" : [ 0.178526863455772, 0.331328541040421, 0.978633761405945, 1.0 ],
					"fontname" : "Arial",
					"fontsize" : 20.788986000000001,
					"id" : "obj-490",
					"maxclass" : "comment",
					"numinlets" : 1,
					"numoutlets" : 0,
					"patching_rect" : [ 908.946859833334202, 2086.0, 26.0, 30.0 ],
					"text" : "↓",
					"textcolor" : [ 0.996078431372549, 0.996078431372549, 0.996078431372549, 1.0 ]
				}

			}
, 			{
				"box" : 				{
					"bgcolor" : [ 0.178526863455772, 0.331328541040421, 0.978633761405945, 1.0 ],
					"fontname" : "Arial",
					"fontsize" : 20.788986000000001,
					"id" : "obj-491",
					"maxclass" : "comment",
					"numinlets" : 1,
					"numoutlets" : 0,
					"patching_rect" : [ 941.258057500001087, 2086.0, 29.0, 30.0 ],
					"text" : "←",
					"textcolor" : [ 0.996078431372549, 0.996078431372549, 0.996078431372549, 1.0 ]
				}

			}
, 			{
				"box" : 				{
					"bgcolor" : [ 0.178526863455772, 0.331328541040421, 0.978633761405945, 1.0 ],
					"fontname" : "Arial",
					"fontsize" : 20.788986000000001,
					"id" : "obj-492",
					"maxclass" : "comment",
					"numinlets" : 1,
					"numoutlets" : 0,
					"patching_rect" : [ 841.324464500000431, 2086.0, 26.0, 30.0 ],
					"text" : "↑",
					"textcolor" : [ 0.996078431372549, 0.996078431372549, 0.996078431372549, 1.0 ]
				}

			}
, 			{
				"box" : 				{
					"bgcolor" : [ 0.178526863455772, 0.331328541040421, 0.978633761405945, 1.0 ],
					"fontsize" : 20.0,
					"id" : "obj-493",
					"maxclass" : "comment",
					"numinlets" : 1,
					"numoutlets" : 0,
					"patching_rect" : [ 653.258057500001087, 1938.5, 28.0, 34.0 ],
					"text" : "↙",
					"textcolor" : [ 0.996078431372549, 0.996078431372549, 0.996078431372549, 1.0 ]
				}

			}
, 			{
				"box" : 				{
					"bgcolor" : [ 0.178526863455772, 0.331328541040421, 0.978633761405945, 1.0 ],
					"fontsize" : 20.0,
					"id" : "obj-494",
					"maxclass" : "comment",
					"numinlets" : 1,
					"numoutlets" : 0,
					"patching_rect" : [ 615.258057500001087, 1938.5, 28.0, 30.0 ],
					"text" : "↘",
					"textcolor" : [ 0.996078431372549, 0.996078431372549, 0.996078431372549, 1.0 ]
				}

			}
, 			{
				"box" : 				{
					"bgcolor" : [ 0.178526863455772, 0.331328541040421, 0.978633761405945, 1.0 ],
					"fontsize" : 20.0,
					"id" : "obj-496",
					"maxclass" : "comment",
					"numinlets" : 1,
					"numoutlets" : 0,
					"patching_rect" : [ 691.258057500001087, 1938.5, 28.0, 30.0 ],
					"text" : "↖",
					"textcolor" : [ 0.996078431372549, 0.996078431372549, 0.996078431372549, 1.0 ]
				}

			}
, 			{
				"box" : 				{
					"bgcolor" : [ 0.178526863455772, 0.331328541040421, 0.978633761405945, 1.0 ],
					"fontsize" : 20.0,
					"id" : "obj-497",
					"maxclass" : "comment",
					"numinlets" : 1,
					"numoutlets" : 0,
					"patching_rect" : [ 577.258057500001087, 1938.5, 28.0, 34.0 ],
					"text" : "↗",
					"textcolor" : [ 0.996078431372549, 0.996078431372549, 0.996078431372549, 1.0 ]
				}

			}
, 			{
				"box" : 				{
					"bgcolor" : [ 0.178526863455772, 0.331328541040421, 0.978633761405945, 1.0 ],
					"fontname" : "Arial",
					"fontsize" : 20.788986000000001,
					"id" : "obj-498",
					"maxclass" : "comment",
					"numinlets" : 1,
					"numoutlets" : 0,
					"patching_rect" : [ 836.086566216666142, 1938.5, 29.0, 30.0 ],
					"text" : "→",
					"textcolor" : [ 0.996078431372549, 0.996078431372549, 0.996078431372549, 1.0 ]
				}

			}
, 			{
				"box" : 				{
					"bgcolor" : [ 0.178526863455772, 0.331328541040421, 0.978633761405945, 1.0 ],
					"fontname" : "Arial",
					"fontsize" : 20.788986000000001,
					"id" : "obj-499",
					"maxclass" : "comment",
					"numinlets" : 1,
					"numoutlets" : 0,
					"patching_rect" : [ 871.397763883332118, 1938.5, 26.0, 30.0 ],
					"text" : "↓",
					"textcolor" : [ 0.996078431372549, 0.996078431372549, 0.996078431372549, 1.0 ]
				}

			}
, 			{
				"box" : 				{
					"bgcolor" : [ 0.178526863455772, 0.331328541040421, 0.978633761405945, 1.0 ],
					"fontname" : "Arial",
					"fontsize" : 20.788986000000001,
					"id" : "obj-501",
					"maxclass" : "comment",
					"numinlets" : 1,
					"numoutlets" : 0,
					"patching_rect" : [ 903.708961549999003, 1938.5, 29.0, 30.0 ],
					"text" : "←",
					"textcolor" : [ 0.996078431372549, 0.996078431372549, 0.996078431372549, 1.0 ]
				}

			}
, 			{
				"box" : 				{
					"bgcolor" : [ 0.178526863455772, 0.331328541040421, 0.978633761405945, 1.0 ],
					"fontname" : "Arial",
					"fontsize" : 20.788986000000001,
					"id" : "obj-503",
					"maxclass" : "comment",
					"numinlets" : 1,
					"numoutlets" : 0,
					"patching_rect" : [ 803.775368549999257, 1938.5, 26.0, 30.0 ],
					"text" : "↑",
					"textcolor" : [ 0.996078431372549, 0.996078431372549, 0.996078431372549, 1.0 ]
				}

			}
, 			{
				"box" : 				{
					"id" : "obj-504",
					"maxclass" : "newobj",
					"numinlets" : 1,
					"numoutlets" : 4,
					"outlettype" : [ "int", "int", "int", "int" ],
					"patching_rect" : [ 724.458961549999003, 1989.25, 52.0, 22.0 ],
					"text" : "t 1 0 0 1"
				}

			}
, 			{
				"box" : 				{
					"id" : "obj-505",
					"maxclass" : "newobj",
					"numinlets" : 1,
					"numoutlets" : 4,
					"outlettype" : [ "int", "int", "int", "int" ],
					"patching_rect" : [ 661.36672494999948, 1989.25, 52.0, 22.0 ],
					"text" : "t 0 0 1 1"
				}

			}
, 			{
				"box" : 				{
					"id" : "obj-506",
					"maxclass" : "newobj",
					"numinlets" : 1,
					"numoutlets" : 4,
					"outlettype" : [ "int", "int", "int", "int" ],
					"patching_rect" : [ 598.274488349999956, 1989.25, 52.0, 22.0 ],
					"text" : "t 0 1 1 0"
				}

			}
, 			{
				"box" : 				{
					"id" : "obj-508",
					"maxclass" : "newobj",
					"numinlets" : 1,
					"numoutlets" : 4,
					"outlettype" : [ "int", "int", "int", "int" ],
					"patching_rect" : [ 535.182251750000432, 1989.25, 52.0, 22.0 ],
					"text" : "t 1 1 0 0"
				}

			}
, 			{
				"box" : 				{
					"id" : "obj-509",
					"maxclass" : "button",
					"numinlets" : 1,
					"numoutlets" : 1,
					"outlettype" : [ "bang" ],
					"parameter_enable" : 0,
					"patching_rect" : [ 758.708961549999003, 374.766708257934624, 24.0, 24.0 ]
				}

			}
, 			{
				"box" : 				{
					"id" : "obj-511",
					"maxclass" : "newobj",
					"numinlets" : 0,
					"numoutlets" : 1,
					"outlettype" : [ "" ],
					"patching_rect" : [ 431.106446000000687, 1950.5, 95.0, 22.0 ],
					"text" : "r dpad_released"
				}

			}
, 			{
				"box" : 				{
					"id" : "obj-512",
					"maxclass" : "newobj",
					"numinlets" : 1,
					"numoutlets" : 1,
					"outlettype" : [ "int" ],
					"patching_rect" : [ 431.106446000000687, 1987.5, 22.0, 22.0 ],
					"text" : "t 0"
				}

			}
, 			{
				"box" : 				{
					"id" : "obj-513",
					"maxclass" : "newobj",
					"numinlets" : 1,
					"numoutlets" : 2,
					"outlettype" : [ "int", "int" ],
					"patching_rect" : [ 924.708961549999003, 1989.0, 32.0, 22.0 ],
					"text" : "t 1 0"
				}

			}
, 			{
				"box" : 				{
					"id" : "obj-514",
					"maxclass" : "newobj",
					"numinlets" : 1,
					"numoutlets" : 2,
					"outlettype" : [ "int", "int" ],
					"patching_rect" : [ 879.042294883332033, 1989.0, 32.0, 22.0 ],
					"text" : "t 1 0"
				}

			}
, 			{
				"box" : 				{
					"id" : "obj-515",
					"maxclass" : "newobj",
					"numinlets" : 1,
					"numoutlets" : 2,
					"outlettype" : [ "int", "int" ],
					"patching_rect" : [ 833.375628216665973, 1989.0, 32.0, 22.0 ],
					"text" : "t 1 0"
				}

			}
, 			{
				"box" : 				{
					"id" : "obj-516",
					"maxclass" : "newobj",
					"numinlets" : 1,
					"numoutlets" : 2,
					"outlettype" : [ "int", "int" ],
					"patching_rect" : [ 787.708961549999003, 1989.0, 32.0, 22.0 ],
					"text" : "t 1 0"
				}

			}
, 			{
				"box" : 				{
					"fontname" : "Ableton Sans Light",
					"id" : "obj-517",
					"maxclass" : "comment",
					"numinlets" : 0,
					"numoutlets" : 0,
					"patching_rect" : [ 916.397763883332118, 1417.034840422330035, 174.22945316358846, 21.0 ],
					"suppressinlet" : 1,
					"text" : "convert xbox dpad to PS4 dpad"
				}

			}
, 			{
				"box" : 				{
					"id" : "obj-518",
					"maxclass" : "newobj",
					"numinlets" : 3,
					"numoutlets" : 1,
					"outlettype" : [ "" ],
					"patching_rect" : [ 415.200196299999334, 1579.408163265305575, 47.0, 22.0 ],
					"text" : "clip 0 1"
				}

			}
, 			{
				"box" : 				{
					"id" : "obj-519",
					"maxclass" : "newobj",
					"numinlets" : 3,
					"numoutlets" : 1,
					"outlettype" : [ "" ],
					"patching_rect" : [ 392.500196299999516, 1549.938775510203868, 47.0, 22.0 ],
					"text" : "clip 0 1"
				}

			}
, 			{
				"box" : 				{
					"id" : "obj-520",
					"maxclass" : "newobj",
					"numinlets" : 3,
					"numoutlets" : 1,
					"outlettype" : [ "" ],
					"patching_rect" : [ 369.800196299999698, 1520.469387755102161, 47.0, 22.0 ],
					"text" : "clip 0 1"
				}

			}
, 			{
				"box" : 				{
					"id" : "obj-522",
					"maxclass" : "newobj",
					"numinlets" : 3,
					"numoutlets" : 1,
					"outlettype" : [ "" ],
					"patching_rect" : [ 347.10019629999988, 1491.0, 47.0, 22.0 ],
					"text" : "clip 0 1"
				}

			}
, 			{
				"box" : 				{
					"id" : "obj-523",
					"maxclass" : "newobj",
					"numinlets" : 1,
					"numoutlets" : 1,
					"outlettype" : [ "int" ],
					"patching_rect" : [ 906.930829349758824, 808.034840422330035, 22.0, 22.0 ],
					"text" : "t 1"
				}

			}
, 			{
				"box" : 				{
					"id" : "obj-524",
					"maxclass" : "newobj",
					"numinlets" : 1,
					"numoutlets" : 1,
					"outlettype" : [ "int" ],
					"patching_rect" : [ 703.708961549999913, 817.034840422330035, 22.0, 22.0 ],
					"text" : "t 2"
				}

			}
, 			{
				"box" : 				{
					"id" : "obj-525",
					"maxclass" : "newobj",
					"numinlets" : 0,
					"numoutlets" : 1,
					"outlettype" : [ "" ],
					"patching_rect" : [ 462.766870079487489, 356.0, 65.0, 22.0 ],
					"text" : "r hi_ignore"
				}

			}
, 			{
				"box" : 				{
					"id" : "obj-526",
					"maxclass" : "newobj",
					"numinlets" : 1,
					"numoutlets" : 0,
					"patching_rect" : [ 604.930829349758824, 1556.034840422330035, 67.0, 22.0 ],
					"text" : "s hi_ignore"
				}

			}
, 			{
				"box" : 				{
					"id" : "obj-527",
					"maxclass" : "newobj",
					"numinlets" : 1,
					"numoutlets" : 0,
					"patching_rect" : [ 875.369825599998876, 1764.0, 67.0, 22.0 ],
					"text" : "s hi_ignore"
				}

			}
, 			{
				"box" : 				{
					"id" : "obj-528",
					"maxclass" : "newobj",
					"numinlets" : 1,
					"numoutlets" : 1,
					"outlettype" : [ "" ],
					"patching_rect" : [ 758.708961549999003, 409.077830596952026, 89.0, 22.0 ],
					"text" : "loadmess clear"
				}

			}
, 			{
				"box" : 				{
					"id" : "obj-529",
					"maxclass" : "newobj",
					"numinlets" : 1,
					"numoutlets" : 1,
					"outlettype" : [ "bang" ],
					"patching_rect" : [ 780.708961549999003, 690.0, 22.0, 22.0 ],
					"text" : "t b"
				}

			}
, 			{
				"box" : 				{
					"id" : "obj-535",
					"maxclass" : "newobj",
					"numinlets" : 6,
					"numoutlets" : 1,
					"outlettype" : [ "" ],
					"patching_rect" : [ 1895.752930000000561, 1655.419370538611474, 107.0, 22.0 ],
					"text" : "scale 0 65535 0 1."
				}

			}
, 			{
				"box" : 				{
					"id" : "obj-536",
					"maxclass" : "newobj",
					"numinlets" : 6,
					"numoutlets" : 1,
					"outlettype" : [ "" ],
					"patching_rect" : [ 1855.252930000000561, 1624.971609344581793, 107.0, 22.0 ],
					"text" : "scale 0 65535 0 1."
				}

			}
, 			{
				"box" : 				{
					"id" : "obj-537",
					"maxclass" : "newobj",
					"numinlets" : 6,
					"numoutlets" : 1,
					"outlettype" : [ "" ],
					"patching_rect" : [ 1814.752930000000561, 1594.523848150551657, 107.0, 22.0 ],
					"text" : "scale 0 65535 0 1."
				}

			}
, 			{
				"box" : 				{
					"id" : "obj-538",
					"maxclass" : "newobj",
					"numinlets" : 3,
					"numoutlets" : 1,
					"outlettype" : [ "" ],
					"patching_rect" : [ 871.397763883332118, 1451.034840422330035, 130.0, 22.0 ],
					"text" : "pong 0 9 @mode wrap"
				}

			}
, 			{
				"box" : 				{
					"id" : "obj-539",
					"maxclass" : "newobj",
					"numinlets" : 2,
					"numoutlets" : 1,
					"outlettype" : [ "int" ],
					"patching_rect" : [ 871.397763883332118, 1416.034840422330035, 29.5, 22.0 ],
					"text" : "- 1"
				}

			}
, 			{
				"box" : 				{
					"id" : "obj-540",
					"maxclass" : "newobj",
					"numinlets" : 6,
					"numoutlets" : 1,
					"outlettype" : [ "" ],
					"patching_rect" : [ 1774.252930000000561, 1564.076086956521976, 107.0, 22.0 ],
					"text" : "scale 0 65535 0 1."
				}

			}
, 			{
				"box" : 				{
					"id" : "obj-541",
					"maxclass" : "number",
					"numinlets" : 1,
					"numoutlets" : 2,
					"outlettype" : [ "", "bang" ],
					"parameter_enable" : 0,
					"patching_rect" : [ 797.930829349758824, 865.034840422330035, 50.0, 22.0 ]
				}

			}
, 			{
				"box" : 				{
					"id" : "obj-542",
					"maxclass" : "newobj",
					"numinlets" : 2,
					"numoutlets" : 2,
					"outlettype" : [ "", "" ],
					"patching_rect" : [ 237.053305545244257, 1363.0, 52.0, 22.0 ],
					"text" : "gate 2 1"
				}

			}
, 			{
				"box" : 				{
					"id" : "obj-543",
					"maxclass" : "newobj",
					"numinlets" : 1,
					"numoutlets" : 1,
					"outlettype" : [ "" ],
					"patching_rect" : [ 604.930829349758824, 1520.034840422330035, 89.0, 22.0 ],
					"text" : "prepend ignore"
				}

			}
, 			{
				"box" : 				{
					"id" : "obj-544",
					"maxclass" : "newobj",
					"numinlets" : 1,
					"numoutlets" : 3,
					"outlettype" : [ "int", "int", "int" ],
					"patching_rect" : [ 604.930829349758824, 1487.034840422330035, 65.0, 22.0 ],
					"text" : "unpack i i i"
				}

			}
, 			{
				"box" : 				{
					"id" : "obj-545",
					"maxclass" : "newobj",
					"numinlets" : 19,
					"numoutlets" : 19,
					"outlettype" : [ "", "", "", "", "", "", "", "", "", "", "", "", "", "", "", "", "", "", "" ],
					"patching_rect" : [ 270.115703502691758, 1425.0, 395.0, 22.0 ],
					"text" : "route 21 18 19 22 277 278 24 25 28 29 31 32 30 273 274 275 276 279"
				}

			}
, 			{
				"box" : 				{
					"id" : "obj-546",
					"maxclass" : "newobj",
					"numinlets" : 2,
					"numoutlets" : 1,
					"outlettype" : [ "float" ],
					"patching_rect" : [ 1369.487793999999667, 1860.0, 29.5, 22.0 ],
					"text" : "f"
				}

			}
, 			{
				"box" : 				{
					"id" : "obj-547",
					"maxclass" : "newobj",
					"numinlets" : 2,
					"numoutlets" : 1,
					"outlettype" : [ "float" ],
					"patching_rect" : [ 1236.487793999999667, 1862.0, 29.5, 22.0 ],
					"text" : "f"
				}

			}
, 			{
				"box" : 				{
					"id" : "obj-548",
					"maxclass" : "newobj",
					"numinlets" : 2,
					"numoutlets" : 1,
					"outlettype" : [ "float" ],
					"patching_rect" : [ 1114.487793999999667, 1866.0, 29.5, 22.0 ],
					"text" : "f"
				}

			}
, 			{
				"box" : 				{
					"id" : "obj-550",
					"maxclass" : "newobj",
					"numinlets" : 2,
					"numoutlets" : 1,
					"outlettype" : [ "float" ],
					"patching_rect" : [ 995.487793999999667, 1871.0, 29.5, 22.0 ],
					"text" : "f"
				}

			}
, 			{
				"box" : 				{
					"id" : "obj-563",
					"maxclass" : "newobj",
					"numinlets" : 1,
					"numoutlets" : 0,
					"patching_rect" : [ 691.258057500001087, 1871.0, 97.0, 22.0 ],
					"text" : "s dpad_released"
				}

			}
, 			{
				"box" : 				{
					"id" : "obj-564",
					"maxclass" : "newobj",
					"numinlets" : 1,
					"numoutlets" : 1,
					"outlettype" : [ "" ],
					"patching_rect" : [ 1868.708961549999003, 1275.96669038951768, 54.0, 22.0 ],
					"text" : "deferlow"
				}

			}
, 			{
				"box" : 				{
					"id" : "obj-565",
					"maxclass" : "newobj",
					"numinlets" : 1,
					"numoutlets" : 1,
					"outlettype" : [ "" ],
					"patching_rect" : [ 321.551393289097177, 198.216670632362366, 54.0, 22.0 ],
					"text" : "deferlow"
				}

			}
, 			{
				"box" : 				{
					"id" : "obj-623",
					"maxclass" : "comment",
					"numinlets" : 1,
					"numoutlets" : 0,
					"patching_rect" : [ 1864.467471575510899, 903.148171254408226, 106.0, 20.0 ],
					"text" : "pause countdown"
				}

			}
, 			{
				"box" : 				{
					"id" : "obj-624",
					"maxclass" : "newobj",
					"numinlets" : 1,
					"numoutlets" : 1,
					"outlettype" : [ "int" ],
					"patching_rect" : [ 1964.125039836412725, 937.059268501763199, 22.0, 22.0 ],
					"text" : "t 0"
				}

			}
, 			{
				"box" : 				{
					"id" : "obj-625",
					"maxclass" : "newobj",
					"numinlets" : 1,
					"numoutlets" : 1,
					"outlettype" : [ "" ],
					"patching_rect" : [ 875.369825599998876, 1728.0, 89.0, 22.0 ],
					"text" : "prepend ignore"
				}

			}
, 			{
				"box" : 				{
					"id" : "obj-626",
					"maxclass" : "newobj",
					"numinlets" : 1,
					"numoutlets" : 3,
					"outlettype" : [ "int", "int", "int" ],
					"patching_rect" : [ 875.369825599998876, 1695.0, 65.0, 22.0 ],
					"text" : "unpack i i i"
				}

			}
, 			{
				"box" : 				{
					"bubble" : 1,
					"bubblepoint" : 0.2,
					"bubbleside" : 2,
					"fontname" : "Ableton Sans Bold",
					"fontsize" : 12.0,
					"id" : "obj-627",
					"maxclass" : "comment",
					"numinlets" : 1,
					"numoutlets" : 0,
					"patching_rect" : [ 422.18016593763241, 100.0, 226.0, 40.0 ],
					"text" : "set preferred human interface here",
					"textjustification" : 1
				}

			}
, 			{
				"box" : 				{
					"id" : "obj-628",
					"linecount" : 3,
					"maxclass" : "comment",
					"numinlets" : 1,
					"numoutlets" : 0,
					"patching_rect" : [ 383.997490707638462, 454.707439756171425, 169.0, 47.0 ],
					"text" : "these [thru]s will preserve the patch cables if the bpatcher somehow gets messed up"
				}

			}
, 			{
				"box" : 				{
					"id" : "obj-629",
					"maxclass" : "newobj",
					"numinlets" : 1,
					"numoutlets" : 1,
					"outlettype" : [ "" ],
					"patching_rect" : [ 568.226021767894053, 409.077830596952026, 29.0, 22.0 ],
					"text" : "thru"
				}

			}
, 			{
				"box" : 				{
					"id" : "obj-630",
					"maxclass" : "newobj",
					"numinlets" : 1,
					"numoutlets" : 1,
					"outlettype" : [ "" ],
					"patching_rect" : [ 653.630836549999913, 513.148171254408226, 29.0, 22.0 ],
					"text" : "thru"
				}

			}
, 			{
				"box" : 				{
					"id" : "obj-631",
					"maxclass" : "newobj",
					"numinlets" : 1,
					"numoutlets" : 1,
					"outlettype" : [ "list" ],
					"patching_rect" : [ 568.226021767894053, 513.148171254408226, 29.0, 22.0 ],
					"text" : "thru"
				}

			}
, 			{
				"box" : 				{
					"id" : "obj-632",
					"maxclass" : "newobj",
					"numinlets" : 1,
					"numoutlets" : 1,
					"outlettype" : [ "bang" ],
					"patching_rect" : [ 1868.708961549999003, 1238.0, 58.0, 22.0 ],
					"text" : "loadbang"
				}

			}
, 			{
				"box" : 				{
					"id" : "obj-633",
					"maxclass" : "toggle",
					"numinlets" : 1,
					"numoutlets" : 1,
					"outlettype" : [ "int" ],
					"parameter_enable" : 0,
					"patching_rect" : [ 1958.125039836412725, 1119.777777777777828, 24.0, 24.0 ]
				}

			}
, 			{
				"box" : 				{
					"id" : "obj-634",
					"maxclass" : "newobj",
					"numinlets" : 0,
					"numoutlets" : 1,
					"outlettype" : [ "" ],
					"patching_rect" : [ 2197.625039836412725, 817.148171254408226, 102.0, 22.0 ],
					"text" : "r controller_found"
				}

			}
, 			{
				"box" : 				{
					"id" : "obj-635",
					"maxclass" : "newobj",
					"numinlets" : 2,
					"numoutlets" : 1,
					"outlettype" : [ "int" ],
					"patching_rect" : [ 2796.625039836412725, 1237.509556543509916, 29.5, 22.0 ],
					"text" : "+ 1"
				}

			}
, 			{
				"box" : 				{
					"id" : "obj-636",
					"maxclass" : "newobj",
					"numinlets" : 3,
					"numoutlets" : 1,
					"outlettype" : [ "" ],
					"patching_rect" : [ 2796.625039836412725, 1271.339704362339944, 52.0, 22.0 ],
					"text" : "switch 2"
				}

			}
, 			{
				"box" : 				{
					"id" : "obj-637",
					"maxclass" : "newobj",
					"numinlets" : 2,
					"numoutlets" : 1,
					"outlettype" : [ "int" ],
					"patching_rect" : [ 2992.125039836412725, 1128.700005511443123, 39.0, 22.0 ],
					"text" : "<= 60"
				}

			}
, 			{
				"box" : 				{
					"id" : "obj-638",
					"maxclass" : "newobj",
					"numinlets" : 2,
					"numoutlets" : 1,
					"outlettype" : [ "" ],
					"patching_rect" : [ 2992.125039836412725, 1251.058556557626616, 32.0, 22.0 ],
					"text" : "gate"
				}

			}
, 			{
				"box" : 				{
					"id" : "obj-639",
					"maxclass" : "newobj",
					"numinlets" : 2,
					"numoutlets" : 2,
					"outlettype" : [ "bang", "" ],
					"patching_rect" : [ 2938.708961549999913, 1168.700005511443123, 34.0, 22.0 ],
					"text" : "sel 1"
				}

			}
, 			{
				"box" : 				{
					"id" : "obj-640",
					"maxclass" : "newobj",
					"numinlets" : 2,
					"numoutlets" : 1,
					"outlettype" : [ "int" ],
					"patching_rect" : [ 2938.708961549999913, 1128.700005511443123, 32.0, 22.0 ],
					"text" : "> 60"
				}

			}
, 			{
				"box" : 				{
					"id" : "obj-641",
					"maxclass" : "newobj",
					"numinlets" : 1,
					"numoutlets" : 1,
					"outlettype" : [ "minutes" ],
					"patching_rect" : [ 2938.708961549999913, 1208.700005511443123, 57.0, 22.0 ],
					"text" : "t minutes"
				}

			}
, 			{
				"box" : 				{
					"id" : "obj-643",
					"maxclass" : "newobj",
					"numinlets" : 6,
					"numoutlets" : 1,
					"outlettype" : [ "" ],
					"patching_rect" : [ 2400.625039836412725, 1048.911097247354974, 97.0, 22.0 ],
					"text" : "scale 0 12 925 0"
				}

			}
, 			{
				"box" : 				{
					"id" : "obj-644",
					"maxclass" : "newobj",
					"numinlets" : 2,
					"numoutlets" : 1,
					"outlettype" : [ "int" ],
					"patching_rect" : [ 2827.125039836412725, 1173.0, 29.5, 22.0 ],
					"text" : "+ 1"
				}

			}
, 			{
				"box" : 				{
					"id" : "obj-645",
					"maxclass" : "newobj",
					"numinlets" : 2,
					"numoutlets" : 1,
					"outlettype" : [ "int" ],
					"patching_rect" : [ 2827.125039836412725, 1145.300002435843453, 29.5, 22.0 ],
					"text" : "/ 60"
				}

			}
, 			{
				"box" : 				{
					"id" : "obj-646",
					"maxclass" : "newobj",
					"numinlets" : 2,
					"numoutlets" : 1,
					"outlettype" : [ "bang" ],
					"patching_rect" : [ 2503.810523550000653, 1009.0, 55.0, 22.0 ],
					"text" : "del 1000"
				}

			}
, 			{
				"box" : 				{
					"id" : "obj-647",
					"maxclass" : "toggle",
					"numinlets" : 1,
					"numoutlets" : 1,
					"outlettype" : [ "int" ],
					"parameter_enable" : 0,
					"patching_rect" : [ 2097.625039836412725, 863.0, 24.0, 24.0 ]
				}

			}
, 			{
				"box" : 				{
					"id" : "obj-648",
					"maxclass" : "newobj",
					"numinlets" : 1,
					"numoutlets" : 1,
					"outlettype" : [ "int" ],
					"patching_rect" : [ 2111.708961549999003, 828.0, 22.0, 22.0 ],
					"text" : "t 0"
				}

			}
, 			{
				"box" : 				{
					"id" : "obj-649",
					"maxclass" : "newobj",
					"numinlets" : 1,
					"numoutlets" : 1,
					"outlettype" : [ "int" ],
					"patching_rect" : [ 2083.708961549999003, 828.0, 22.0, 22.0 ],
					"text" : "t 1"
				}

			}
, 			{
				"box" : 				{
					"id" : "obj-650",
					"maxclass" : "newobj",
					"numinlets" : 3,
					"numoutlets" : 3,
					"outlettype" : [ "bang", "bang", "" ],
					"patching_rect" : [ 2083.708961549999003, 798.0, 44.0, 22.0 ],
					"text" : "sel 0 1"
				}

			}
, 			{
				"box" : 				{
					"id" : "obj-651",
					"maxclass" : "newobj",
					"numinlets" : 1,
					"numoutlets" : 1,
					"outlettype" : [ "second" ],
					"patching_rect" : [ 2426.625039836412725, 1185.300002435843453, 54.0, 22.0 ],
					"text" : "t second"
				}

			}
, 			{
				"box" : 				{
					"id" : "obj-652",
					"maxclass" : "newobj",
					"numinlets" : 1,
					"numoutlets" : 1,
					"outlettype" : [ "seconds" ],
					"patching_rect" : [ 2346.625039836412725, 1185.300002435843453, 60.0, 22.0 ],
					"text" : "t seconds"
				}

			}
, 			{
				"box" : 				{
					"id" : "obj-653",
					"maxclass" : "newobj",
					"numinlets" : 3,
					"numoutlets" : 3,
					"outlettype" : [ "bang", "bang", "" ],
					"patching_rect" : [ 2380.625039836412725, 1145.300002435843453, 44.0, 22.0 ],
					"text" : "sel 0 1"
				}

			}
, 			{
				"box" : 				{
					"id" : "obj-654",
					"maxclass" : "newobj",
					"numinlets" : 2,
					"numoutlets" : 1,
					"outlettype" : [ "int" ],
					"patching_rect" : [ 2380.625039836412725, 1105.300002435843453, 33.0, 22.0 ],
					"text" : "== 1"
				}

			}
, 			{
				"box" : 				{
					"id" : "obj-655",
					"maxclass" : "newobj",
					"numinlets" : 4,
					"numoutlets" : 1,
					"outlettype" : [ "" ],
					"patching_rect" : [ 2225.625039836412725, 1227.66666666666697, 240.0, 22.0 ],
					"text" : "pak set \"attempting to connect in\" i seconds"
				}

			}
, 			{
				"box" : 				{
					"id" : "obj-656",
					"maxclass" : "newobj",
					"numinlets" : 0,
					"numoutlets" : 1,
					"outlettype" : [ "" ],
					"patching_rect" : [ 2503.810523550000653, 969.920695889156832, 102.0, 22.0 ],
					"text" : "r controller_found"
				}

			}
, 			{
				"box" : 				{
					"id" : "obj-657",
					"maxclass" : "newobj",
					"numinlets" : 1,
					"numoutlets" : 0,
					"patching_rect" : [ 780.708961549999003, 757.029634250881827, 104.0, 22.0 ],
					"text" : "s controller_found"
				}

			}
, 			{
				"box" : 				{
					"id" : "obj-658",
					"maxclass" : "newobj",
					"numinlets" : 1,
					"numoutlets" : 1,
					"outlettype" : [ "set" ],
					"patching_rect" : [ 2503.810523550000653, 1048.911097247354974, 31.0, 22.0 ],
					"text" : "t set"
				}

			}
, 			{
				"box" : 				{
					"id" : "obj-659",
					"maxclass" : "newobj",
					"numinlets" : 2,
					"numoutlets" : 1,
					"outlettype" : [ "" ],
					"patching_rect" : [ 2795.125039836412725, 1048.911097247354974, 105.000000000000227, 22.0 ],
					"text" : "gate"
				}

			}
, 			{
				"box" : 				{
					"id" : "obj-660",
					"maxclass" : "newobj",
					"numinlets" : 0,
					"numoutlets" : 1,
					"outlettype" : [ "" ],
					"patching_rect" : [ 2795.125039836412725, 964.0, 105.0, 22.0 ],
					"text" : "r 15_minute_timer"
				}

			}
, 			{
				"box" : 				{
					"id" : "obj-661",
					"maxclass" : "newobj",
					"numinlets" : 2,
					"numoutlets" : 1,
					"outlettype" : [ "int" ],
					"patching_rect" : [ 2795.125039836412725, 1018.0, 39.0, 22.0 ],
					"text" : "< 725"
				}

			}
, 			{
				"box" : 				{
					"id" : "obj-662",
					"maxclass" : "newobj",
					"numinlets" : 1,
					"numoutlets" : 0,
					"patching_rect" : [ 1983.075659550001546, 977.029634250881827, 107.0, 22.0 ],
					"text" : "s 15_minute_timer"
				}

			}
, 			{
				"box" : 				{
					"id" : "obj-663",
					"maxclass" : "newobj",
					"numinlets" : 4,
					"numoutlets" : 1,
					"outlettype" : [ "" ],
					"patching_rect" : [ 2567.125039836411815, 1237.509556543509916, 88.000000000000227, 22.0 ],
					"text" : "pack f f f f"
				}

			}
, 			{
				"box" : 				{
					"id" : "obj-664",
					"maxclass" : "newobj",
					"numinlets" : 6,
					"numoutlets" : 1,
					"outlettype" : [ "" ],
					"patching_rect" : [ 2613.125039836412725, 1169.849260905849405, 177.0, 22.0 ],
					"text" : "scale 925 0 0.144178 0.038047"
				}

			}
, 			{
				"box" : 				{
					"id" : "obj-665",
					"maxclass" : "newobj",
					"numinlets" : 6,
					"numoutlets" : 1,
					"outlettype" : [ "" ],
					"patching_rect" : [ 2590.125039836411815, 1136.019113087019377, 177.0, 22.0 ],
					"text" : "scale 925 0 0.724084 0.235003"
				}

			}
, 			{
				"box" : 				{
					"id" : "obj-666",
					"maxclass" : "newobj",
					"numinlets" : 6,
					"numoutlets" : 1,
					"outlettype" : [ "" ],
					"patching_rect" : [ 2567.125039836411815, 1102.188965268189349, 177.0, 22.0 ],
					"text" : "scale 925 0 0.907481 0.967875"
				}

			}
, 			{
				"box" : 				{
					"id" : "obj-667",
					"maxclass" : "message",
					"numinlets" : 2,
					"numoutlets" : 1,
					"outlettype" : [ "" ],
					"patching_rect" : [ 2542.125039836412725, 1048.911097247354974, 101.0, 22.0 ],
					"text" : "bgcolor 1. 1. 1. 0."
				}

			}
, 			{
				"box" : 				{
					"id" : "obj-668",
					"maxclass" : "newobj",
					"numinlets" : 6,
					"numoutlets" : 1,
					"outlettype" : [ "" ],
					"patching_rect" : [ 2636.125039836412725, 1203.679408724679433, 110.0, 22.0 ],
					"text" : "scale 925 0 0.3 0.9"
				}

			}
, 			{
				"box" : 				{
					"id" : "obj-669",
					"maxclass" : "newobj",
					"numinlets" : 1,
					"numoutlets" : 1,
					"outlettype" : [ "" ],
					"patching_rect" : [ 2567.125039836411815, 1271.339704362339944, 95.0, 22.0 ],
					"text" : "prepend bgcolor"
				}

			}
, 			{
				"box" : 				{
					"id" : "obj-670",
					"maxclass" : "newobj",
					"numinlets" : 1,
					"numoutlets" : 1,
					"outlettype" : [ "second" ],
					"patching_rect" : [ 3075.125039836412725, 1208.700005511443123, 54.0, 22.0 ],
					"text" : "t second"
				}

			}
, 			{
				"box" : 				{
					"id" : "obj-671",
					"maxclass" : "newobj",
					"numinlets" : 1,
					"numoutlets" : 1,
					"outlettype" : [ "seconds" ],
					"patching_rect" : [ 3005.125039836412725, 1208.700005511443123, 60.0, 22.0 ],
					"text" : "t seconds"
				}

			}
, 			{
				"box" : 				{
					"id" : "obj-672",
					"maxclass" : "newobj",
					"numinlets" : 3,
					"numoutlets" : 3,
					"outlettype" : [ "bang", "bang", "" ],
					"patching_rect" : [ 3039.125039836412725, 1168.700005511443123, 44.0, 22.0 ],
					"text" : "sel 0 1"
				}

			}
, 			{
				"box" : 				{
					"id" : "obj-673",
					"maxclass" : "newobj",
					"numinlets" : 2,
					"numoutlets" : 1,
					"outlettype" : [ "int" ],
					"patching_rect" : [ 3039.125039836412725, 1128.700005511443123, 33.0, 22.0 ],
					"text" : "== 1"
				}

			}
, 			{
				"box" : 				{
					"id" : "obj-674",
					"maxclass" : "newobj",
					"numinlets" : 4,
					"numoutlets" : 1,
					"outlettype" : [ "" ],
					"patching_rect" : [ 2607.125039836412725, 1305.169852181169972, 303.0, 22.0 ],
					"text" : "pak set \"checking controller connectivity in\" i seconds"
				}

			}
, 			{
				"box" : 				{
					"id" : "obj-675",
					"linecount" : 2,
					"maxclass" : "comment",
					"numinlets" : 1,
					"numoutlets" : 0,
					"patching_rect" : [ 1609.346832892388193, 1049.32404608685556, 100.0, 33.0 ],
					"text" : "bang if [sel \"_\"] not present in list"
				}

			}
, 			{
				"box" : 				{
					"id" : "obj-676",
					"linecount" : 5,
					"maxclass" : "message",
					"numinlets" : 2,
					"numoutlets" : 1,
					"outlettype" : [ "" ],
					"patching_rect" : [ 2418.810523550000653, 730.0, 116.0, 76.0 ],
					"text" : ";\rmax launchbrowser https://discussions.apple.com/thread/253703053"
				}

			}
, 			{
				"box" : 				{
					"id" : "obj-677",
					"linecount" : 4,
					"maxclass" : "comment",
					"numinlets" : 1,
					"numoutlets" : 0,
					"patching_rect" : [ 1994.125039836412725, 1305.169852181169972, 299.0, 60.0 ],
					"text" : "the human interface object can only detect the controller if the object instantiates after the controller connects, so we reinstantiate the object within a bpatcher before we check if the controller's connected"
				}

			}
, 			{
				"box" : 				{
					"id" : "obj-678",
					"maxclass" : "number",
					"numinlets" : 1,
					"numoutlets" : 2,
					"outlettype" : [ "", "bang" ],
					"parameter_enable" : 0,
					"patching_rect" : [ 2004.708961549999003, 1246.0, 50.0, 22.0 ]
				}

			}
, 			{
				"box" : 				{
					"id" : "obj-679",
					"maxclass" : "number",
					"numinlets" : 1,
					"numoutlets" : 2,
					"outlettype" : [ "", "bang" ],
					"parameter_enable" : 0,
					"patching_rect" : [ 2139.125039836412725, 977.029634250881827, 50.0, 22.0 ]
				}

			}
, 			{
				"box" : 				{
					"id" : "obj-680",
					"maxclass" : "newobj",
					"numinlets" : 1,
					"numoutlets" : 1,
					"outlettype" : [ "int" ],
					"patching_rect" : [ 2152.625039836412725, 857.118537003526399, 35.0, 22.0 ],
					"text" : "t 925"
				}

			}
, 			{
				"box" : 				{
					"id" : "obj-681",
					"linecount" : 5,
					"maxclass" : "comment",
					"numinlets" : 1,
					"numoutlets" : 0,
					"patching_rect" : [ 2215.625039836412725, 731.0, 204.0, 74.0 ],
					"text" : "for some reason, my PS4 controller disconnects after ~15 minutes of inactivity, so I begin checking for the controller after 925 seconds of inactivity"
				}

			}
, 			{
				"box" : 				{
					"id" : "obj-682",
					"maxclass" : "newobj",
					"numinlets" : 2,
					"numoutlets" : 2,
					"outlettype" : [ "bang", "" ],
					"patching_rect" : [ 2097.625039836412725, 977.029634250881827, 34.0, 22.0 ],
					"text" : "sel 0"
				}

			}
, 			{
				"box" : 				{
					"id" : "obj-683",
					"maxclass" : "newobj",
					"numinlets" : 2,
					"numoutlets" : 1,
					"outlettype" : [ "bang" ],
					"patching_rect" : [ 2097.625039836412725, 897.088902752645026, 133.0, 22.0 ],
					"text" : "qmetro 1000 @active 1"
				}

			}
, 			{
				"box" : 				{
					"id" : "obj-684",
					"maxclass" : "newobj",
					"numinlets" : 5,
					"numoutlets" : 4,
					"outlettype" : [ "int", "", "", "int" ],
					"patching_rect" : [ 2097.625039836412725, 937.059268501763199, 92.0, 22.0 ],
					"text" : "counter 1 925 0"
				}

			}
, 			{
				"box" : 				{
					"id" : "obj-685",
					"maxclass" : "comment",
					"numinlets" : 1,
					"numoutlets" : 0,
					"patching_rect" : [ 255.830225739097841, 1624.5, 407.657568260901826, 20.0 ],
					"text" : "may need to adjust routing numbers depending on OS, and controller type"
				}

			}
, 			{
				"box" : 				{
					"id" : "obj-686",
					"maxclass" : "newobj",
					"numinlets" : 2,
					"numoutlets" : 2,
					"outlettype" : [ "bang", "" ],
					"patching_rect" : [ 2152.625039836412725, 817.148171254408226, 34.0, 22.0 ],
					"text" : "sel 1"
				}

			}
, 			{
				"box" : 				{
					"id" : "obj-687",
					"maxclass" : "newobj",
					"numinlets" : 2,
					"numoutlets" : 1,
					"outlettype" : [ "bang" ],
					"patching_rect" : [ 321.551393289097177, 128.0, 41.0, 22.0 ],
					"text" : "del 10"
				}

			}
, 			{
				"box" : 				{
					"id" : "obj-688",
					"maxclass" : "newobj",
					"numinlets" : 1,
					"numoutlets" : 3,
					"outlettype" : [ "", "int", "int" ],
					"patching_rect" : [ 2152.625039836412725, 777.177805505289598, 48.0, 22.0 ],
					"text" : "change"
				}

			}
, 			{
				"box" : 				{
					"id" : "obj-689",
					"maxclass" : "newobj",
					"numinlets" : 1,
					"numoutlets" : 1,
					"outlettype" : [ "int" ],
					"patching_rect" : [ 2152.625039836412725, 737.207439756171425, 22.0, 22.0 ],
					"text" : "t 0"
				}

			}
, 			{
				"box" : 				{
					"id" : "obj-690",
					"maxclass" : "newobj",
					"numinlets" : 2,
					"numoutlets" : 1,
					"outlettype" : [ "bang" ],
					"patching_rect" : [ 2152.625039836412725, 657.266708257934624, 140.5, 22.0 ],
					"text" : "qmetro 1000 @active 1"
				}

			}
, 			{
				"box" : 				{
					"id" : "obj-691",
					"maxclass" : "newobj",
					"numinlets" : 1,
					"numoutlets" : 1,
					"outlettype" : [ "int" ],
					"patching_rect" : [ 2186.125039836412725, 737.207439756171425, 22.0, 22.0 ],
					"text" : "t 1"
				}

			}
, 			{
				"box" : 				{
					"id" : "obj-693",
					"maxclass" : "newobj",
					"numinlets" : 0,
					"numoutlets" : 1,
					"outlettype" : [ "" ],
					"patching_rect" : [ 2186.125039836412725, 697.237074007053252, 107.0, 22.0 ],
					"text" : "r all_together_now"
				}

			}
, 			{
				"box" : 				{
					"id" : "obj-695",
					"maxclass" : "newobj",
					"numinlets" : 2,
					"numoutlets" : 1,
					"outlettype" : [ "" ],
					"patching_rect" : [ 1747.566187167170028, 1019.82404608685556, 41.0, 22.0 ],
					"text" : "pipe 2"
				}

			}
, 			{
				"box" : 				{
					"id" : "obj-697",
					"maxclass" : "newobj",
					"numinlets" : 1,
					"numoutlets" : 1,
					"outlettype" : [ "int" ],
					"patching_rect" : [ 1714.343531167170113, 973.82404608685556, 22.0, 22.0 ],
					"text" : "t 1"
				}

			}
, 			{
				"box" : 				{
					"id" : "obj-698",
					"maxclass" : "newobj",
					"numinlets" : 1,
					"numoutlets" : 1,
					"outlettype" : [ "int" ],
					"patching_rect" : [ 1958.125039836412725, 1073.0, 22.0, 22.0 ],
					"text" : "t 1"
				}

			}
, 			{
				"box" : 				{
					"id" : "obj-699",
					"maxclass" : "newobj",
					"numinlets" : 2,
					"numoutlets" : 1,
					"outlettype" : [ "bang" ],
					"patching_rect" : [ 1841.178589467170241, 1019.82404608685556, 35.0, 22.0 ],
					"text" : "del 5"
				}

			}
, 			{
				"box" : 				{
					"id" : "obj-700",
					"maxclass" : "newobj",
					"numinlets" : 1,
					"numoutlets" : 1,
					"outlettype" : [ "int" ],
					"patching_rect" : [ 1766.566187167170028, 973.82404608685556, 22.0, 22.0 ],
					"text" : "t 0"
				}

			}
, 			{
				"box" : 				{
					"id" : "obj-701",
					"maxclass" : "newobj",
					"numinlets" : 1,
					"numoutlets" : 1,
					"outlettype" : [ "bang" ],
					"patching_rect" : [ 1841.178589467170241, 973.82404608685556, 22.0, 22.0 ],
					"text" : "t b"
				}

			}
, 			{
				"box" : 				{
					"id" : "obj-702",
					"maxclass" : "newobj",
					"numinlets" : 2,
					"numoutlets" : 1,
					"outlettype" : [ "" ],
					"patching_rect" : [ 1714.343531167170113, 1054.82404608685556, 100.835058299999673, 22.0 ],
					"text" : "gate"
				}

			}
, 			{
				"box" : 				{
					"id" : "obj-703",
					"maxclass" : "newobj",
					"numinlets" : 2,
					"numoutlets" : 2,
					"outlettype" : [ "bang", "" ],
					"patching_rect" : [ 1958.125039836412725, 1246.111111111111313, 34.0, 22.0 ],
					"text" : "sel 0"
				}

			}
, 			{
				"box" : 				{
					"id" : "obj-704",
					"maxclass" : "newobj",
					"numinlets" : 2,
					"numoutlets" : 1,
					"outlettype" : [ "bang" ],
					"patching_rect" : [ 1958.125039836412725, 1160.555555555555657, 76.0, 22.0 ],
					"text" : "qmetro 1000"
				}

			}
, 			{
				"box" : 				{
					"id" : "obj-705",
					"maxclass" : "newobj",
					"numinlets" : 5,
					"numoutlets" : 4,
					"outlettype" : [ "int", "", "", "int" ],
					"patching_rect" : [ 1958.125039836412725, 1203.333333333333485, 85.0, 22.0 ],
					"text" : "counter 1 12 0"
				}

			}
, 			{
				"box" : 				{
					"id" : "obj-706",
					"maxclass" : "newobj",
					"numinlets" : 3,
					"numoutlets" : 3,
					"outlettype" : [ "bang", "bang", "" ],
					"patching_rect" : [ 703.708961549999003, 638.148171254408226, 369.0, 22.0 ],
					"text" : "sel \"Xbox Wireless Controller\" \"DUALSHOCK 4 Wireless Controller\""
				}

			}
, 			{
				"box" : 				{
					"id" : "obj-707",
					"maxclass" : "newobj",
					"numinlets" : 2,
					"numoutlets" : 2,
					"outlettype" : [ "", "" ],
					"patching_rect" : [ 703.708961549999003, 572.034840422330035, 79.0, 22.0 ],
					"text" : "route append"
				}

			}
, 			{
				"box" : 				{
					"id" : "obj-709",
					"maxclass" : "newobj",
					"numinlets" : 2,
					"numoutlets" : 1,
					"outlettype" : [ "bang" ],
					"patching_rect" : [ 1890.125039836412725, 1372.66666666666697, 48.0, 22.0 ],
					"text" : "del 200"
				}

			}
, 			{
				"box" : 				{
					"id" : "obj-710",
					"maxclass" : "message",
					"numinlets" : 2,
					"numoutlets" : 1,
					"outlettype" : [ "" ],
					"patching_rect" : [ 1958.125039836412725, 1372.66666666666697, 365.0, 22.0 ],
					"text" : "script sendbox hi_reconnect replace auto-connect_hi_reset.maxpat"
				}

			}
, 			{
				"box" : 				{
					"id" : "obj-711",
					"maxclass" : "message",
					"numinlets" : 2,
					"numoutlets" : 1,
					"outlettype" : [ "" ],
					"patching_rect" : [ 1890.125039836412725, 1415.444444444444798, 355.0, 22.0 ],
					"text" : "script sendbox hi_reconnect replace auto-connect_hi_set.maxpat"
				}

			}
, 			{
				"box" : 				{
					"id" : "obj-712",
					"maxclass" : "newobj",
					"numinlets" : 1,
					"numoutlets" : 2,
					"outlettype" : [ "", "" ],
					"patching_rect" : [ 1890.125039836412725, 1458.222222222222626, 67.0, 22.0 ],
					"save" : [ "#N", "thispatcher", ";", "#Q", "end", ";" ],
					"text" : "thispatcher"
				}

			}
, 			{
				"box" : 				{
					"bgmode" : 0,
					"border" : 0,
					"clickthrough" : 0,
					"enablehscroll" : 0,
					"enablevscroll" : 0,
					"id" : "obj-713",
					"lockeddragscroll" : 0,
					"lockedsize" : 0,
					"maxclass" : "bpatcher",
					"name" : "auto-connect_hi_set.maxpat",
					"numinlets" : 1,
					"numoutlets" : 2,
					"offset" : [ 0.0, 0.0 ],
					"outlettype" : [ "list", "" ],
					"patching_rect" : [ 568.226021767894053, 460.207439756171425, 104.404814782105859, 36.0 ],
					"varname" : "hi_reconnect",
					"viewvisibility" : 1
				}

			}
, 			{
				"box" : 				{
					"id" : "obj-714",
					"maxclass" : "newobj",
					"numinlets" : 1,
					"numoutlets" : 1,
					"outlettype" : [ "" ],
					"patching_rect" : [ 993.284693478474765, 270.022250614656969, 70.0, 22.0 ],
					"text" : "loadmess 4"
				}

			}
, 			{
				"box" : 				{
					"id" : "obj-715",
					"maxclass" : "newobj",
					"numinlets" : 1,
					"numoutlets" : 1,
					"outlettype" : [ "" ],
					"patching_rect" : [ 321.551393289097177, 163.108335316181183, 204.0, 22.0 ],
					"text" : "loadmess \"Xbox Wireless Controller\""
				}

			}
, 			{
				"box" : 				{
					"id" : "obj-716",
					"linecount" : 2,
					"maxclass" : "comment",
					"numinlets" : 1,
					"numoutlets" : 0,
					"patching_rect" : [ 1089.017832863144577, 375.766708257934624, 93.0, 33.0 ],
					"text" : "there are many [r qlim] objects"
				}

			}
, 			{
				"box" : 				{
					"id" : "obj-737",
					"maxclass" : "newobj",
					"numinlets" : 1,
					"numoutlets" : 0,
					"patching_rect" : [ 582.758057500001087, 1764.0, 31.0, 22.0 ],
					"text" : "s L3"
				}

			}
, 			{
				"box" : 				{
					"id" : "obj-738",
					"maxclass" : "newobj",
					"numinlets" : 1,
					"numoutlets" : 0,
					"patching_rect" : [ 625.333863250000832, 1764.0, 33.0, 22.0 ],
					"text" : "s R3"
				}

			}
, 			{
				"box" : 				{
					"id" : "obj-739",
					"maxclass" : "newobj",
					"numinlets" : 1,
					"numoutlets" : 0,
					"patching_rect" : [ 669.909669000000576, 1764.0, 64.0, 22.0 ],
					"text" : "s trackpad"
				}

			}
, 			{
				"box" : 				{
					"id" : "obj-740",
					"maxclass" : "newobj",
					"numinlets" : 1,
					"numoutlets" : 0,
					"patching_rect" : [ 410.030640250000033, 1764.0, 33.0, 22.0 ],
					"text" : "s R2"
				}

			}
, 			{
				"box" : 				{
					"id" : "obj-741",
					"maxclass" : "newobj",
					"numinlets" : 1,
					"numoutlets" : 0,
					"patching_rect" : [ 322.879028750000543, 1764.0, 33.0, 22.0 ],
					"text" : "s R1"
				}

			}
, 			{
				"box" : 				{
					"id" : "obj-743",
					"maxclass" : "newobj",
					"numinlets" : 1,
					"numoutlets" : 0,
					"patching_rect" : [ 514.182251750000432, 1764.0, 57.0, 22.0 ],
					"text" : "s options"
				}

			}
, 			{
				"box" : 				{
					"id" : "obj-744",
					"maxclass" : "newobj",
					"numinlets" : 1,
					"numoutlets" : 0,
					"patching_rect" : [ 454.606446000000687, 1764.0, 48.0, 22.0 ],
					"text" : "s share"
				}

			}
, 			{
				"box" : 				{
					"id" : "obj-745",
					"maxclass" : "newobj",
					"numinlets" : 1,
					"numoutlets" : 0,
					"patching_rect" : [ 367.454834500000288, 1764.0, 31.0, 22.0 ],
					"text" : "s L2"
				}

			}
, 			{
				"box" : 				{
					"id" : "obj-746",
					"maxclass" : "newobj",
					"numinlets" : 1,
					"numoutlets" : 0,
					"patching_rect" : [ 280.303222999999889, 1763.868179537313608, 31.0, 22.0 ],
					"text" : "s L1"
				}

			}
, 			{
				"box" : 				{
					"id" : "obj-747",
					"maxclass" : "newobj",
					"numinlets" : 1,
					"numoutlets" : 0,
					"patching_rect" : [ 211.727417250000144, 1763.868179537313608, 57.0, 22.0 ],
					"text" : "s triangle"
				}

			}
, 			{
				"box" : 				{
					"id" : "obj-748",
					"maxclass" : "newobj",
					"numinlets" : 1,
					"numoutlets" : 0,
					"patching_rect" : [ 154.151611500000399, 1763.868179537313608, 46.0, 22.0 ],
					"text" : "s circle"
				}

			}
, 			{
				"box" : 				{
					"id" : "obj-749",
					"maxclass" : "newobj",
					"numinlets" : 1,
					"numoutlets" : 0,
					"patching_rect" : [ 116.575805749999745, 1763.868179537313608, 26.0, 22.0 ],
					"text" : "s X"
				}

			}
, 			{
				"box" : 				{
					"id" : "obj-750",
					"maxclass" : "newobj",
					"numinlets" : 1,
					"numoutlets" : 0,
					"patching_rect" : [ 50.0, 1764.0, 55.0, 22.0 ],
					"text" : "s square"
				}

			}
, 			{
				"box" : 				{
					"id" : "obj-751",
					"maxclass" : "newobj",
					"numinlets" : 1,
					"numoutlets" : 0,
					"patching_rect" : [ 1369.930829349758824, 2027.034840422330035, 111.0, 22.0 ],
					"text" : "s RV_predeadzone"
				}

			}
, 			{
				"box" : 				{
					"id" : "obj-752",
					"maxclass" : "newobj",
					"numinlets" : 1,
					"numoutlets" : 0,
					"patching_rect" : [ 1236.930829349758824, 1993.034840422330035, 112.0, 22.0 ],
					"text" : "s RH_predeadzone"
				}

			}
, 			{
				"box" : 				{
					"id" : "obj-753",
					"maxclass" : "newobj",
					"numinlets" : 1,
					"numoutlets" : 0,
					"patching_rect" : [ 1114.930829349758824, 1959.034840422330035, 108.0, 22.0 ],
					"text" : "s LV_predeadzone"
				}

			}
, 			{
				"box" : 				{
					"id" : "obj-754",
					"maxclass" : "newobj",
					"numinlets" : 1,
					"numoutlets" : 0,
					"patching_rect" : [ 995.930829349758824, 1925.034840422330035, 110.0, 22.0 ],
					"text" : "s LH_predeadzone"
				}

			}
, 			{
				"box" : 				{
					"bgcolor" : [ 0.178526863455772, 0.331328541040421, 0.978633761405945, 1.0 ],
					"color" : [ 0.178526863455772, 0.331328541040421, 0.978633761405945, 1.0 ],
					"id" : "obj-758",
					"maxclass" : "newobj",
					"numinlets" : 6,
					"numoutlets" : 6,
					"outlettype" : [ "bang", "bang", "bang", "bang", "bang", "" ],
					"patching_rect" : [ 572.814433690470651, 1850.0, 92.0, 22.0 ],
					"text" : "select 1 3 5 7 8",
					"textcolor" : [ 0.0, 0.0, 0.0, 1.0 ]
				}

			}
, 			{
				"box" : 				{
					"bgcolor" : [ 0.996078431372549, 0.83921568627451, 0.96078431372549, 1.0 ],
					"color" : [ 0.122555986046791, 0.922992467880249, 0.946839809417725, 1.0 ],
					"id" : "obj-759",
					"maxclass" : "newobj",
					"numinlets" : 5,
					"numoutlets" : 5,
					"outlettype" : [ "bang", "bang", "bang", "bang", "" ],
					"patching_rect" : [ 783.435645799999293, 1744.0, 80.0, 22.0 ],
					"text" : "select 0 2 4 6",
					"textcolor" : [ 0.043137254901961, 0.0, 0.513725490196078, 1.0 ]
				}

			}
, 			{
				"box" : 				{
					"bgcolor" : [ 0.996078431372549, 0.83921568627451, 0.96078431372549, 1.0 ],
					"color" : [ 0.985210537910461, 0.0, 0.759790301322937, 1.0 ],
					"id" : "obj-760",
					"maxclass" : "newobj",
					"numinlets" : 22,
					"numoutlets" : 22,
					"outlettype" : [ "", "", "", "", "", "", "", "", "", "", "", "", "", "", "", "", "", "", "", "", "", "" ],
					"patching_rect" : [ 231.830567000000883, 1646.0, 662.539258599997993, 22.0 ],
					"text" : "route 66 67 68 69 70 71 72 73 74 75 76 77 78 79 80 81 82 83 84 85 86",
					"textcolor" : [ 0.043137254901961, 0.0, 0.513725490196078, 1.0 ]
				}

			}
, 			{
				"box" : 				{
					"id" : "obj-762",
					"maxclass" : "newobj",
					"numinlets" : 1,
					"numoutlets" : 1,
					"outlettype" : [ "" ],
					"patching_rect" : [ 321.551393289097177, 233.325005948543549, 94.0, 22.0 ],
					"text" : "prepend symbol"
				}

			}
, 			{
				"box" : 				{
					"id" : "obj-763",
					"maxclass" : "newobj",
					"numinlets" : 1,
					"numoutlets" : 1,
					"outlettype" : [ "" ],
					"patching_rect" : [ 993.284693478474765, 424.077830596952026, 117.0, 22.0 ],
					"text" : "append milliseconds"
				}

			}
, 			{
				"box" : 				{
					"id" : "obj-764",
					"maxclass" : "newobj",
					"numinlets" : 1,
					"numoutlets" : 0,
					"patching_rect" : [ 993.284693478474765, 466.888952935969428, 133.0, 22.0 ],
					"text" : "print \"Resolution set to\""
				}

			}
, 			{
				"box" : 				{
					"id" : "obj-765",
					"maxclass" : "newobj",
					"numinlets" : 1,
					"numoutlets" : 0,
					"patching_rect" : [ 1047.017832863144577, 381.266708257934624, 40.0, 22.0 ],
					"text" : "s qlim"
				}

			}
, 			{
				"box" : 				{
					"id" : "obj-766",
					"maxclass" : "newobj",
					"numinlets" : 2,
					"numoutlets" : 1,
					"outlettype" : [ "" ],
					"patching_rect" : [ 668.566187167170028, 375.766708257934624, 60.0, 22.0 ],
					"text" : "pak poll 2"
				}

			}
, 			{
				"box" : 				{
					"id" : "obj-767",
					"maxclass" : "newobj",
					"numinlets" : 3,
					"numoutlets" : 3,
					"outlettype" : [ "bang", "bang", "" ],
					"patching_rect" : [ 586.051393289097177, 316.455585918917222, 369.0, 22.0 ],
					"text" : "sel \"Xbox Wireless Controller\" \"DUALSHOCK 4 Wireless Controller\""
				}

			}
, 			{
				"box" : 				{
					"fontname" : "Ableton Sans Medium",
					"fontsize" : 16.0,
					"id" : "obj-771",
					"maxclass" : "number",
					"maximum" : 200,
					"minimum" : 2,
					"numinlets" : 1,
					"numoutlets" : 2,
					"outlettype" : [ "", "bang" ],
					"parameter_enable" : 0,
					"patching_rect" : [ 993.284693478474765, 313.455585918917222, 81.0, 28.0 ],
					"triangle" : 0,
					"varname" : "number"
				}

			}
 ],
		"lines" : [ 			{
				"patchline" : 				{
					"color" : [ 0.0, 0.0, 0.0, 1.0 ],
					"destination" : [ "obj-550", 0 ],
					"source" : [ "obj-454", 0 ]
				}

			}
, 			{
				"patchline" : 				{
					"color" : [ 0.0, 0.0, 0.0, 1.0 ],
					"destination" : [ "obj-548", 0 ],
					"source" : [ "obj-458", 0 ]
				}

			}
, 			{
				"patchline" : 				{
					"color" : [ 0.0, 0.0, 0.0, 1.0 ],
					"destination" : [ "obj-547", 0 ],
					"source" : [ "obj-460", 0 ]
				}

			}
, 			{
				"patchline" : 				{
					"color" : [ 0.0, 0.0, 0.0, 1.0 ],
					"destination" : [ "obj-546", 0 ],
					"source" : [ "obj-462", 0 ]
				}

			}
, 			{
				"patchline" : 				{
					"destination" : [ "obj-480", 0 ],
					"source" : [ "obj-504", 3 ]
				}

			}
, 			{
				"patchline" : 				{
					"destination" : [ "obj-481", 0 ],
					"source" : [ "obj-504", 2 ]
				}

			}
, 			{
				"patchline" : 				{
					"destination" : [ "obj-482", 0 ],
					"source" : [ "obj-504", 1 ]
				}

			}
, 			{
				"patchline" : 				{
					"destination" : [ "obj-483", 0 ],
					"source" : [ "obj-504", 0 ]
				}

			}
, 			{
				"patchline" : 				{
					"destination" : [ "obj-480", 0 ],
					"source" : [ "obj-505", 3 ]
				}

			}
, 			{
				"patchline" : 				{
					"destination" : [ "obj-481", 0 ],
					"source" : [ "obj-505", 2 ]
				}

			}
, 			{
				"patchline" : 				{
					"destination" : [ "obj-482", 0 ],
					"source" : [ "obj-505", 1 ]
				}

			}
, 			{
				"patchline" : 				{
					"destination" : [ "obj-483", 0 ],
					"source" : [ "obj-505", 0 ]
				}

			}
, 			{
				"patchline" : 				{
					"destination" : [ "obj-480", 0 ],
					"source" : [ "obj-506", 3 ]
				}

			}
, 			{
				"patchline" : 				{
					"destination" : [ "obj-481", 0 ],
					"source" : [ "obj-506", 2 ]
				}

			}
, 			{
				"patchline" : 				{
					"destination" : [ "obj-482", 0 ],
					"source" : [ "obj-506", 1 ]
				}

			}
, 			{
				"patchline" : 				{
					"destination" : [ "obj-483", 0 ],
					"source" : [ "obj-506", 0 ]
				}

			}
, 			{
				"patchline" : 				{
					"destination" : [ "obj-480", 0 ],
					"source" : [ "obj-508", 3 ]
				}

			}
, 			{
				"patchline" : 				{
					"destination" : [ "obj-481", 0 ],
					"source" : [ "obj-508", 2 ]
				}

			}
, 			{
				"patchline" : 				{
					"destination" : [ "obj-482", 0 ],
					"source" : [ "obj-508", 1 ]
				}

			}
, 			{
				"patchline" : 				{
					"destination" : [ "obj-483", 0 ],
					"source" : [ "obj-508", 0 ]
				}

			}
, 			{
				"patchline" : 				{
					"destination" : [ "obj-528", 0 ],
					"source" : [ "obj-509", 0 ]
				}

			}
, 			{
				"patchline" : 				{
					"destination" : [ "obj-512", 0 ],
					"source" : [ "obj-511", 0 ]
				}

			}
, 			{
				"patchline" : 				{
					"destination" : [ "obj-480", 0 ],
					"order" : 0,
					"source" : [ "obj-512", 0 ]
				}

			}
, 			{
				"patchline" : 				{
					"destination" : [ "obj-481", 0 ],
					"order" : 1,
					"source" : [ "obj-512", 0 ]
				}

			}
, 			{
				"patchline" : 				{
					"destination" : [ "obj-482", 0 ],
					"order" : 2,
					"source" : [ "obj-512", 0 ]
				}

			}
, 			{
				"patchline" : 				{
					"destination" : [ "obj-483", 0 ],
					"order" : 3,
					"source" : [ "obj-512", 0 ]
				}

			}
, 			{
				"patchline" : 				{
					"destination" : [ "obj-480", 0 ],
					"source" : [ "obj-513", 0 ]
				}

			}
, 			{
				"patchline" : 				{
					"destination" : [ "obj-481", 0 ],
					"order" : 0,
					"source" : [ "obj-513", 1 ]
				}

			}
, 			{
				"patchline" : 				{
					"destination" : [ "obj-482", 0 ],
					"order" : 1,
					"source" : [ "obj-513", 1 ]
				}

			}
, 			{
				"patchline" : 				{
					"destination" : [ "obj-483", 0 ],
					"order" : 2,
					"source" : [ "obj-513", 1 ]
				}

			}
, 			{
				"patchline" : 				{
					"destination" : [ "obj-480", 0 ],
					"order" : 0,
					"source" : [ "obj-514", 1 ]
				}

			}
, 			{
				"patchline" : 				{
					"destination" : [ "obj-481", 0 ],
					"source" : [ "obj-514", 0 ]
				}

			}
, 			{
				"patchline" : 				{
					"destination" : [ "obj-482", 0 ],
					"order" : 1,
					"source" : [ "obj-514", 1 ]
				}

			}
, 			{
				"patchline" : 				{
					"destination" : [ "obj-483", 0 ],
					"order" : 2,
					"source" : [ "obj-514", 1 ]
				}

			}
, 			{
				"patchline" : 				{
					"destination" : [ "obj-480", 0 ],
					"order" : 0,
					"source" : [ "obj-515", 1 ]
				}

			}
, 			{
				"patchline" : 				{
					"destination" : [ "obj-481", 0 ],
					"order" : 1,
					"source" : [ "obj-515", 1 ]
				}

			}
, 			{
				"patchline" : 				{
					"destination" : [ "obj-482", 0 ],
					"source" : [ "obj-515", 0 ]
				}

			}
, 			{
				"patchline" : 				{
					"destination" : [ "obj-483", 0 ],
					"order" : 2,
					"source" : [ "obj-515", 1 ]
				}

			}
, 			{
				"patchline" : 				{
					"destination" : [ "obj-480", 0 ],
					"order" : 0,
					"source" : [ "obj-516", 1 ]
				}

			}
, 			{
				"patchline" : 				{
					"destination" : [ "obj-481", 0 ],
					"order" : 1,
					"source" : [ "obj-516", 1 ]
				}

			}
, 			{
				"patchline" : 				{
					"destination" : [ "obj-482", 0 ],
					"order" : 2,
					"source" : [ "obj-516", 1 ]
				}

			}
, 			{
				"patchline" : 				{
					"destination" : [ "obj-483", 0 ],
					"source" : [ "obj-516", 0 ]
				}

			}
, 			{
				"patchline" : 				{
					"destination" : [ "obj-740", 0 ],
					"source" : [ "obj-518", 0 ]
				}

			}
, 			{
				"patchline" : 				{
					"destination" : [ "obj-745", 0 ],
					"source" : [ "obj-519", 0 ]
				}

			}
, 			{
				"patchline" : 				{
					"destination" : [ "obj-741", 0 ],
					"source" : [ "obj-520", 0 ]
				}

			}
, 			{
				"patchline" : 				{
					"destination" : [ "obj-746", 0 ],
					"source" : [ "obj-522", 0 ]
				}

			}
, 			{
				"patchline" : 				{
					"destination" : [ "obj-541", 0 ],
					"source" : [ "obj-523", 0 ]
				}

			}
, 			{
				"patchline" : 				{
					"destination" : [ "obj-541", 0 ],
					"source" : [ "obj-524", 0 ]
				}

			}
, 			{
				"patchline" : 				{
					"destination" : [ "obj-629", 0 ],
					"source" : [ "obj-525", 0 ]
				}

			}
, 			{
				"patchline" : 				{
					"destination" : [ "obj-713", 0 ],
					"source" : [ "obj-528", 0 ]
				}

			}
, 			{
				"patchline" : 				{
					"destination" : [ "obj-657", 0 ],
					"order" : 1,
					"source" : [ "obj-529", 0 ]
				}

			}
, 			{
				"patchline" : 				{
					"destination" : [ "obj-687", 0 ],
					"midpoints" : [ 790.208961549999003, 736.0, 267.708961549999003, 736.0, 267.708961549999003, 114.0, 331.051393289097177, 114.0 ],
					"order" : 2,
					"source" : [ "obj-529", 0 ]
				}

			}
, 			{
				"patchline" : 				{
					"destination" : [ "obj-700", 0 ],
					"order" : 0,
					"source" : [ "obj-529", 0 ]
				}

			}
, 			{
				"patchline" : 				{
					"destination" : [ "obj-546", 0 ],
					"order" : 1,
					"source" : [ "obj-535", 0 ]
				}

			}
, 			{
				"patchline" : 				{
					"destination" : [ "obj-779", 0 ],
					"order" : 0,
					"source" : [ "obj-535", 0 ]
				}

			}
, 			{
				"patchline" : 				{
					"destination" : [ "obj-547", 0 ],
					"order" : 1,
					"source" : [ "obj-536", 0 ]
				}

			}
, 			{
				"patchline" : 				{
					"destination" : [ "obj-778", 0 ],
					"order" : 0,
					"source" : [ "obj-536", 0 ]
				}

			}
, 			{
				"patchline" : 				{
					"destination" : [ "obj-548", 0 ],
					"order" : 1,
					"source" : [ "obj-537", 0 ]
				}

			}
, 			{
				"patchline" : 				{
					"destination" : [ "obj-777", 0 ],
					"order" : 0,
					"source" : [ "obj-537", 0 ]
				}

			}
, 			{
				"patchline" : 				{
					"color" : [ 0.178526863455772, 0.331328541040421, 0.978633761405945, 1.0 ],
					"destination" : [ "obj-759", 0 ],
					"source" : [ "obj-538", 0 ]
				}

			}
, 			{
				"patchline" : 				{
					"destination" : [ "obj-538", 0 ],
					"source" : [ "obj-539", 0 ]
				}

			}
, 			{
				"patchline" : 				{
					"destination" : [ "obj-550", 0 ],
					"order" : 1,
					"source" : [ "obj-540", 0 ]
				}

			}
, 			{
				"patchline" : 				{
					"destination" : [ "obj-776", 0 ],
					"order" : 0,
					"source" : [ "obj-540", 0 ]
				}

			}
, 			{
				"patchline" : 				{
					"destination" : [ "obj-542", 0 ],
					"source" : [ "obj-541", 0 ]
				}

			}
, 			{
				"patchline" : 				{
					"destination" : [ "obj-545", 0 ],
					"source" : [ "obj-542", 1 ]
				}

			}
, 			{
				"patchline" : 				{
					"destination" : [ "obj-760", 0 ],
					"source" : [ "obj-542", 0 ]
				}

			}
, 			{
				"patchline" : 				{
					"destination" : [ "obj-526", 0 ],
					"source" : [ "obj-543", 0 ]
				}

			}
, 			{
				"patchline" : 				{
					"destination" : [ "obj-543", 0 ],
					"source" : [ "obj-544", 0 ]
				}

			}
, 			{
				"patchline" : 				{
					"destination" : [ "obj-518", 0 ],
					"source" : [ "obj-545", 5 ]
				}

			}
, 			{
				"patchline" : 				{
					"destination" : [ "obj-519", 0 ],
					"source" : [ "obj-545", 4 ]
				}

			}
, 			{
				"patchline" : 				{
					"destination" : [ "obj-520", 0 ],
					"source" : [ "obj-545", 7 ]
				}

			}
, 			{
				"patchline" : 				{
					"destination" : [ "obj-522", 0 ],
					"source" : [ "obj-545", 6 ]
				}

			}
, 			{
				"patchline" : 				{
					"destination" : [ "obj-535", 0 ],
					"source" : [ "obj-545", 16 ]
				}

			}
, 			{
				"patchline" : 				{
					"destination" : [ "obj-536", 0 ],
					"source" : [ "obj-545", 15 ]
				}

			}
, 			{
				"patchline" : 				{
					"destination" : [ "obj-537", 0 ],
					"source" : [ "obj-545", 14 ]
				}

			}
, 			{
				"patchline" : 				{
					"destination" : [ "obj-539", 0 ],
					"source" : [ "obj-545", 17 ]
				}

			}
, 			{
				"patchline" : 				{
					"destination" : [ "obj-540", 0 ],
					"source" : [ "obj-545", 13 ]
				}

			}
, 			{
				"patchline" : 				{
					"destination" : [ "obj-544", 0 ],
					"source" : [ "obj-545", 18 ]
				}

			}
, 			{
				"patchline" : 				{
					"destination" : [ "obj-737", 0 ],
					"source" : [ "obj-545", 10 ]
				}

			}
, 			{
				"patchline" : 				{
					"destination" : [ "obj-738", 0 ],
					"source" : [ "obj-545", 11 ]
				}

			}
, 			{
				"patchline" : 				{
					"destination" : [ "obj-739", 0 ],
					"source" : [ "obj-545", 12 ]
				}

			}
, 			{
				"patchline" : 				{
					"destination" : [ "obj-743", 0 ],
					"source" : [ "obj-545", 9 ]
				}

			}
, 			{
				"patchline" : 				{
					"destination" : [ "obj-744", 0 ],
					"source" : [ "obj-545", 8 ]
				}

			}
, 			{
				"patchline" : 				{
					"destination" : [ "obj-747", 0 ],
					"source" : [ "obj-545", 3 ]
				}

			}
, 			{
				"patchline" : 				{
					"destination" : [ "obj-748", 0 ],
					"source" : [ "obj-545", 2 ]
				}

			}
, 			{
				"patchline" : 				{
					"destination" : [ "obj-749", 0 ],
					"source" : [ "obj-545", 1 ]
				}

			}
, 			{
				"patchline" : 				{
					"destination" : [ "obj-750", 0 ],
					"source" : [ "obj-545", 0 ]
				}

			}
, 			{
				"patchline" : 				{
					"destination" : [ "obj-751", 0 ],
					"source" : [ "obj-546", 0 ]
				}

			}
, 			{
				"patchline" : 				{
					"destination" : [ "obj-752", 0 ],
					"source" : [ "obj-547", 0 ]
				}

			}
, 			{
				"patchline" : 				{
					"destination" : [ "obj-753", 0 ],
					"source" : [ "obj-548", 0 ]
				}

			}
, 			{
				"patchline" : 				{
					"destination" : [ "obj-754", 0 ],
					"source" : [ "obj-550", 0 ]
				}

			}
, 			{
				"patchline" : 				{
					"destination" : [ "obj-708", 0 ],
					"source" : [ "obj-564", 0 ]
				}

			}
, 			{
				"patchline" : 				{
					"destination" : [ "obj-762", 0 ],
					"source" : [ "obj-565", 0 ]
				}

			}
, 			{
				"patchline" : 				{
					"destination" : [ "obj-624", 0 ],
					"source" : [ "obj-620", 0 ]
				}

			}
, 			{
				"patchline" : 				{
					"destination" : [ "obj-633", 0 ],
					"order" : 1,
					"source" : [ "obj-624", 0 ]
				}

			}
, 			{
				"patchline" : 				{
					"destination" : [ "obj-647", 0 ],
					"order" : 0,
					"source" : [ "obj-624", 0 ]
				}

			}
, 			{
				"patchline" : 				{
					"destination" : [ "obj-527", 0 ],
					"source" : [ "obj-625", 0 ]
				}

			}
, 			{
				"patchline" : 				{
					"destination" : [ "obj-625", 0 ],
					"source" : [ "obj-626", 0 ]
				}

			}
, 			{
				"patchline" : 				{
					"destination" : [ "obj-713", 0 ],
					"source" : [ "obj-629", 0 ]
				}

			}
, 			{
				"patchline" : 				{
					"destination" : [ "obj-707", 0 ],
					"order" : 0,
					"source" : [ "obj-630", 0 ]
				}

			}
, 			{
				"patchline" : 				{
					"destination" : [ "obj-769", 0 ],
					"midpoints" : [ 663.130836549999913, 602.0, 576.708961549999003, 602.0, 576.708961549999003, 602.0, 306.708961549999003, 602.0, 306.708961549999003, 263.0, 331.051393289097177, 263.0 ],
					"order" : 1,
					"source" : [ "obj-630", 0 ]
				}

			}
, 			{
				"patchline" : 				{
					"destination" : [ "obj-542", 1 ],
					"source" : [ "obj-631", 0 ]
				}

			}
, 			{
				"patchline" : 				{
					"destination" : [ "obj-564", 0 ],
					"source" : [ "obj-632", 0 ]
				}

			}
, 			{
				"patchline" : 				{
					"destination" : [ "obj-704", 0 ],
					"source" : [ "obj-633", 0 ]
				}

			}
, 			{
				"patchline" : 				{
					"destination" : [ "obj-680", 0 ],
					"source" : [ "obj-634", 0 ]
				}

			}
, 			{
				"patchline" : 				{
					"destination" : [ "obj-636", 0 ],
					"source" : [ "obj-635", 0 ]
				}

			}
, 			{
				"patchline" : 				{
					"destination" : [ "obj-674", 2 ],
					"source" : [ "obj-636", 0 ]
				}

			}
, 			{
				"patchline" : 				{
					"destination" : [ "obj-638", 0 ],
					"source" : [ "obj-637", 0 ]
				}

			}
, 			{
				"patchline" : 				{
					"destination" : [ "obj-674", 3 ],
					"source" : [ "obj-638", 0 ]
				}

			}
, 			{
				"patchline" : 				{
					"destination" : [ "obj-641", 0 ],
					"source" : [ "obj-639", 0 ]
				}

			}
, 			{
				"patchline" : 				{
					"destination" : [ "obj-635", 0 ],
					"order" : 1,
					"source" : [ "obj-640", 0 ]
				}

			}
, 			{
				"patchline" : 				{
					"destination" : [ "obj-639", 0 ],
					"order" : 0,
					"source" : [ "obj-640", 0 ]
				}

			}
, 			{
				"patchline" : 				{
					"destination" : [ "obj-674", 3 ],
					"source" : [ "obj-641", 0 ]
				}

			}
, 			{
				"patchline" : 				{
					"destination" : [ "obj-664", 0 ],
					"order" : 1,
					"source" : [ "obj-643", 0 ]
				}

			}
, 			{
				"patchline" : 				{
					"destination" : [ "obj-665", 0 ],
					"order" : 2,
					"source" : [ "obj-643", 0 ]
				}

			}
, 			{
				"patchline" : 				{
					"destination" : [ "obj-666", 0 ],
					"order" : 3,
					"source" : [ "obj-643", 0 ]
				}

			}
, 			{
				"patchline" : 				{
					"destination" : [ "obj-668", 0 ],
					"order" : 0,
					"source" : [ "obj-643", 0 ]
				}

			}
, 			{
				"patchline" : 				{
					"destination" : [ "obj-636", 2 ],
					"source" : [ "obj-644", 0 ]
				}

			}
, 			{
				"patchline" : 				{
					"destination" : [ "obj-644", 0 ],
					"source" : [ "obj-645", 0 ]
				}

			}
, 			{
				"patchline" : 				{
					"destination" : [ "obj-658", 0 ],
					"order" : 1,
					"source" : [ "obj-646", 0 ]
				}

			}
, 			{
				"patchline" : 				{
					"destination" : [ "obj-667", 0 ],
					"order" : 0,
					"source" : [ "obj-646", 0 ]
				}

			}
, 			{
				"patchline" : 				{
					"destination" : [ "obj-683", 0 ],
					"source" : [ "obj-647", 0 ]
				}

			}
, 			{
				"patchline" : 				{
					"destination" : [ "obj-647", 0 ],
					"source" : [ "obj-648", 0 ]
				}

			}
, 			{
				"patchline" : 				{
					"destination" : [ "obj-647", 0 ],
					"source" : [ "obj-649", 0 ]
				}

			}
, 			{
				"patchline" : 				{
					"destination" : [ "obj-648", 0 ],
					"source" : [ "obj-650", 1 ]
				}

			}
, 			{
				"patchline" : 				{
					"destination" : [ "obj-649", 0 ],
					"source" : [ "obj-650", 0 ]
				}

			}
, 			{
				"patchline" : 				{
					"destination" : [ "obj-655", 3 ],
					"source" : [ "obj-651", 0 ]
				}

			}
, 			{
				"patchline" : 				{
					"destination" : [ "obj-655", 3 ],
					"source" : [ "obj-652", 0 ]
				}

			}
, 			{
				"patchline" : 				{
					"destination" : [ "obj-651", 0 ],
					"source" : [ "obj-653", 1 ]
				}

			}
, 			{
				"patchline" : 				{
					"destination" : [ "obj-652", 0 ],
					"source" : [ "obj-653", 0 ]
				}

			}
, 			{
				"patchline" : 				{
					"destination" : [ "obj-653", 0 ],
					"source" : [ "obj-654", 0 ]
				}

			}
, 			{
				"patchline" : 				{
					"destination" : [ "obj-768", 0 ],
					"source" : [ "obj-655", 0 ]
				}

			}
, 			{
				"patchline" : 				{
					"destination" : [ "obj-646", 0 ],
					"source" : [ "obj-656", 0 ]
				}

			}
, 			{
				"patchline" : 				{
					"destination" : [ "obj-768", 0 ],
					"source" : [ "obj-658", 0 ]
				}

			}
, 			{
				"patchline" : 				{
					"destination" : [ "obj-636", 1 ],
					"order" : 4,
					"source" : [ "obj-659", 0 ]
				}

			}
, 			{
				"patchline" : 				{
					"destination" : [ "obj-637", 0 ],
					"order" : 1,
					"source" : [ "obj-659", 0 ]
				}

			}
, 			{
				"patchline" : 				{
					"destination" : [ "obj-640", 0 ],
					"order" : 2,
					"source" : [ "obj-659", 0 ]
				}

			}
, 			{
				"patchline" : 				{
					"destination" : [ "obj-645", 0 ],
					"order" : 3,
					"source" : [ "obj-659", 0 ]
				}

			}
, 			{
				"patchline" : 				{
					"destination" : [ "obj-664", 0 ],
					"order" : 6,
					"source" : [ "obj-659", 0 ]
				}

			}
, 			{
				"patchline" : 				{
					"destination" : [ "obj-665", 0 ],
					"order" : 7,
					"source" : [ "obj-659", 0 ]
				}

			}
, 			{
				"patchline" : 				{
					"destination" : [ "obj-666", 0 ],
					"order" : 8,
					"source" : [ "obj-659", 0 ]
				}

			}
, 			{
				"patchline" : 				{
					"destination" : [ "obj-668", 0 ],
					"order" : 5,
					"source" : [ "obj-659", 0 ]
				}

			}
, 			{
				"patchline" : 				{
					"destination" : [ "obj-673", 0 ],
					"order" : 0,
					"source" : [ "obj-659", 0 ]
				}

			}
, 			{
				"patchline" : 				{
					"destination" : [ "obj-659", 1 ],
					"order" : 0,
					"source" : [ "obj-660", 0 ]
				}

			}
, 			{
				"patchline" : 				{
					"destination" : [ "obj-661", 0 ],
					"order" : 1,
					"source" : [ "obj-660", 0 ]
				}

			}
, 			{
				"patchline" : 				{
					"destination" : [ "obj-659", 0 ],
					"source" : [ "obj-661", 0 ]
				}

			}
, 			{
				"patchline" : 				{
					"destination" : [ "obj-669", 0 ],
					"source" : [ "obj-663", 0 ]
				}

			}
, 			{
				"patchline" : 				{
					"destination" : [ "obj-663", 2 ],
					"source" : [ "obj-664", 0 ]
				}

			}
, 			{
				"patchline" : 				{
					"destination" : [ "obj-663", 1 ],
					"source" : [ "obj-665", 0 ]
				}

			}
, 			{
				"patchline" : 				{
					"destination" : [ "obj-663", 0 ],
					"source" : [ "obj-666", 0 ]
				}

			}
, 			{
				"patchline" : 				{
					"destination" : [ "obj-768", 0 ],
					"source" : [ "obj-667", 0 ]
				}

			}
, 			{
				"patchline" : 				{
					"destination" : [ "obj-663", 3 ],
					"source" : [ "obj-668", 0 ]
				}

			}
, 			{
				"patchline" : 				{
					"destination" : [ "obj-768", 0 ],
					"source" : [ "obj-669", 0 ]
				}

			}
, 			{
				"patchline" : 				{
					"destination" : [ "obj-638", 1 ],
					"source" : [ "obj-670", 0 ]
				}

			}
, 			{
				"patchline" : 				{
					"destination" : [ "obj-638", 1 ],
					"source" : [ "obj-671", 0 ]
				}

			}
, 			{
				"patchline" : 				{
					"destination" : [ "obj-670", 0 ],
					"source" : [ "obj-672", 1 ]
				}

			}
, 			{
				"patchline" : 				{
					"destination" : [ "obj-671", 0 ],
					"source" : [ "obj-672", 0 ]
				}

			}
, 			{
				"patchline" : 				{
					"destination" : [ "obj-672", 0 ],
					"source" : [ "obj-673", 0 ]
				}

			}
, 			{
				"patchline" : 				{
					"destination" : [ "obj-768", 0 ],
					"source" : [ "obj-674", 0 ]
				}

			}
, 			{
				"patchline" : 				{
					"destination" : [ "obj-684", 3 ],
					"source" : [ "obj-680", 0 ]
				}

			}
, 			{
				"patchline" : 				{
					"destination" : [ "obj-698", 0 ],
					"source" : [ "obj-682", 0 ]
				}

			}
, 			{
				"patchline" : 				{
					"destination" : [ "obj-684", 0 ],
					"source" : [ "obj-683", 0 ]
				}

			}
, 			{
				"patchline" : 				{
					"destination" : [ "obj-662", 0 ],
					"order" : 2,
					"source" : [ "obj-684", 0 ]
				}

			}
, 			{
				"patchline" : 				{
					"destination" : [ "obj-679", 0 ],
					"order" : 0,
					"source" : [ "obj-684", 0 ]
				}

			}
, 			{
				"patchline" : 				{
					"destination" : [ "obj-682", 0 ],
					"order" : 1,
					"source" : [ "obj-684", 0 ]
				}

			}
, 			{
				"patchline" : 				{
					"destination" : [ "obj-646", 0 ],
					"order" : 0,
					"source" : [ "obj-686", 0 ]
				}

			}
, 			{
				"patchline" : 				{
					"destination" : [ "obj-680", 0 ],
					"order" : 1,
					"source" : [ "obj-686", 0 ]
				}

			}
, 			{
				"patchline" : 				{
					"destination" : [ "obj-715", 0 ],
					"source" : [ "obj-687", 0 ]
				}

			}
, 			{
				"patchline" : 				{
					"destination" : [ "obj-686", 0 ],
					"source" : [ "obj-688", 0 ]
				}

			}
, 			{
				"patchline" : 				{
					"destination" : [ "obj-688", 0 ],
					"source" : [ "obj-689", 0 ]
				}

			}
, 			{
				"patchline" : 				{
					"destination" : [ "obj-689", 0 ],
					"source" : [ "obj-690", 0 ]
				}

			}
, 			{
				"patchline" : 				{
					"destination" : [ "obj-688", 0 ],
					"source" : [ "obj-691", 0 ]
				}

			}
, 			{
				"patchline" : 				{
					"destination" : [ "obj-691", 0 ],
					"source" : [ "obj-693", 0 ]
				}

			}
, 			{
				"patchline" : 				{
					"destination" : [ "obj-702", 0 ],
					"source" : [ "obj-695", 0 ]
				}

			}
, 			{
				"patchline" : 				{
					"destination" : [ "obj-702", 0 ],
					"source" : [ "obj-697", 0 ]
				}

			}
, 			{
				"patchline" : 				{
					"destination" : [ "obj-633", 0 ],
					"order" : 1,
					"source" : [ "obj-698", 0 ]
				}

			}
, 			{
				"patchline" : 				{
					"destination" : [ "obj-650", 0 ],
					"order" : 0,
					"source" : [ "obj-698", 0 ]
				}

			}
, 			{
				"patchline" : 				{
					"destination" : [ "obj-702", 1 ],
					"source" : [ "obj-699", 0 ]
				}

			}
, 			{
				"patchline" : 				{
					"destination" : [ "obj-633", 0 ],
					"order" : 1,
					"source" : [ "obj-700", 0 ]
				}

			}
, 			{
				"patchline" : 				{
					"destination" : [ "obj-650", 0 ],
					"order" : 0,
					"source" : [ "obj-700", 0 ]
				}

			}
, 			{
				"patchline" : 				{
					"destination" : [ "obj-695", 0 ],
					"order" : 2,
					"source" : [ "obj-700", 0 ]
				}

			}
, 			{
				"patchline" : 				{
					"destination" : [ "obj-699", 0 ],
					"source" : [ "obj-701", 0 ]
				}

			}
, 			{
				"patchline" : 				{
					"destination" : [ "obj-698", 0 ],
					"source" : [ "obj-702", 0 ]
				}

			}
, 			{
				"patchline" : 				{
					"destination" : [ "obj-708", 0 ],
					"source" : [ "obj-703", 0 ]
				}

			}
, 			{
				"patchline" : 				{
					"destination" : [ "obj-705", 0 ],
					"source" : [ "obj-704", 0 ]
				}

			}
, 			{
				"patchline" : 				{
					"destination" : [ "obj-643", 0 ],
					"order" : 0,
					"source" : [ "obj-705", 0 ]
				}

			}
, 			{
				"patchline" : 				{
					"destination" : [ "obj-654", 0 ],
					"order" : 1,
					"source" : [ "obj-705", 0 ]
				}

			}
, 			{
				"patchline" : 				{
					"destination" : [ "obj-655", 2 ],
					"order" : 2,
					"source" : [ "obj-705", 0 ]
				}

			}
, 			{
				"patchline" : 				{
					"destination" : [ "obj-678", 0 ],
					"order" : 3,
					"source" : [ "obj-705", 0 ]
				}

			}
, 			{
				"patchline" : 				{
					"destination" : [ "obj-703", 0 ],
					"order" : 4,
					"source" : [ "obj-705", 0 ]
				}

			}
, 			{
				"patchline" : 				{
					"destination" : [ "obj-523", 0 ],
					"order" : 0,
					"source" : [ "obj-706", 1 ]
				}

			}
, 			{
				"patchline" : 				{
					"destination" : [ "obj-524", 0 ],
					"order" : 1,
					"source" : [ "obj-706", 0 ]
				}

			}
, 			{
				"patchline" : 				{
					"destination" : [ "obj-529", 0 ],
					"order" : 1,
					"source" : [ "obj-706", 1 ]
				}

			}
, 			{
				"patchline" : 				{
					"destination" : [ "obj-529", 0 ],
					"order" : 0,
					"source" : [ "obj-706", 0 ]
				}

			}
, 			{
				"patchline" : 				{
					"destination" : [ "obj-697", 0 ],
					"order" : 1,
					"source" : [ "obj-706", 2 ]
				}

			}
, 			{
				"patchline" : 				{
					"destination" : [ "obj-701", 0 ],
					"order" : 0,
					"source" : [ "obj-706", 2 ]
				}

			}
, 			{
				"patchline" : 				{
					"destination" : [ "obj-706", 0 ],
					"source" : [ "obj-707", 0 ]
				}

			}
, 			{
				"patchline" : 				{
					"destination" : [ "obj-709", 0 ],
					"order" : 1,
					"source" : [ "obj-708", 0 ]
				}

			}
, 			{
				"patchline" : 				{
					"destination" : [ "obj-710", 0 ],
					"order" : 0,
					"source" : [ "obj-708", 0 ]
				}

			}
, 			{
				"patchline" : 				{
					"destination" : [ "obj-711", 0 ],
					"source" : [ "obj-709", 0 ]
				}

			}
, 			{
				"patchline" : 				{
					"destination" : [ "obj-712", 0 ],
					"source" : [ "obj-710", 0 ]
				}

			}
, 			{
				"patchline" : 				{
					"destination" : [ "obj-712", 0 ],
					"source" : [ "obj-711", 0 ]
				}

			}
, 			{
				"patchline" : 				{
					"destination" : [ "obj-630", 0 ],
					"source" : [ "obj-713", 1 ]
				}

			}
, 			{
				"patchline" : 				{
					"destination" : [ "obj-631", 0 ],
					"source" : [ "obj-713", 0 ]
				}

			}
, 			{
				"patchline" : 				{
					"destination" : [ "obj-771", 0 ],
					"source" : [ "obj-714", 0 ]
				}

			}
, 			{
				"patchline" : 				{
					"destination" : [ "obj-565", 0 ],
					"source" : [ "obj-715", 0 ]
				}

			}
, 			{
				"patchline" : 				{
					"destination" : [ "obj-504", 0 ],
					"source" : [ "obj-758", 3 ]
				}

			}
, 			{
				"patchline" : 				{
					"destination" : [ "obj-505", 0 ],
					"source" : [ "obj-758", 2 ]
				}

			}
, 			{
				"patchline" : 				{
					"destination" : [ "obj-506", 0 ],
					"source" : [ "obj-758", 1 ]
				}

			}
, 			{
				"patchline" : 				{
					"destination" : [ "obj-508", 0 ],
					"source" : [ "obj-758", 0 ]
				}

			}
, 			{
				"patchline" : 				{
					"destination" : [ "obj-563", 0 ],
					"source" : [ "obj-758", 4 ]
				}

			}
, 			{
				"patchline" : 				{
					"destination" : [ "obj-513", 0 ],
					"source" : [ "obj-759", 3 ]
				}

			}
, 			{
				"patchline" : 				{
					"destination" : [ "obj-514", 0 ],
					"source" : [ "obj-759", 2 ]
				}

			}
, 			{
				"patchline" : 				{
					"destination" : [ "obj-515", 0 ],
					"source" : [ "obj-759", 1 ]
				}

			}
, 			{
				"patchline" : 				{
					"destination" : [ "obj-516", 0 ],
					"source" : [ "obj-759", 0 ]
				}

			}
, 			{
				"patchline" : 				{
					"color" : [ 0.122555986046791, 0.922992467880249, 0.946839809417725, 1.0 ],
					"destination" : [ "obj-758", 0 ],
					"midpoints" : [ 853.935645799999293, 1817.0, 582.314433690470651, 1817.0 ],
					"source" : [ "obj-759", 4 ]
				}

			}
, 			{
				"patchline" : 				{
					"color" : [ 0.0, 0.0, 0.0, 1.0 ],
					"destination" : [ "obj-454", 0 ],
					"midpoints" : [ 670.356739399999469, 1589.0, 1070.430829349758824, 1589.0 ],
					"source" : [ "obj-760", 14 ]
				}

			}
, 			{
				"patchline" : 				{
					"color" : [ 0.0, 0.0, 0.0, 1.0 ],
					"destination" : [ "obj-458", 0 ],
					"midpoints" : [ 701.001465999999482, 1589.0, 1149.430829349758824, 1589.0 ],
					"source" : [ "obj-760", 15 ]
				}

			}
, 			{
				"patchline" : 				{
					"color" : [ 0.0, 0.0, 0.0, 1.0 ],
					"destination" : [ "obj-460", 0 ],
					"midpoints" : [ 731.646192599999381, 1589.0, 1228.430829349758824, 1589.0 ],
					"source" : [ "obj-760", 16 ]
				}

			}
, 			{
				"patchline" : 				{
					"color" : [ 0.0, 0.0, 0.0, 1.0 ],
					"destination" : [ "obj-462", 0 ],
					"midpoints" : [ 762.29091919999928, 1589.0, 1309.430829349758824, 1589.0 ],
					"source" : [ "obj-760", 17 ]
				}

			}
, 			{
				"patchline" : 				{
					"destination" : [ "obj-626", 0 ],
					"source" : [ "obj-760", 21 ]
				}

			}
, 			{
				"patchline" : 				{
					"destination" : [ "obj-737", 0 ],
					"source" : [ "obj-760", 10 ]
				}

			}
, 			{
				"patchline" : 				{
					"destination" : [ "obj-738", 0 ],
					"source" : [ "obj-760", 11 ]
				}

			}
, 			{
				"patchline" : 				{
					"destination" : [ "obj-739", 0 ],
					"source" : [ "obj-760", 13 ]
				}

			}
, 			{
				"patchline" : 				{
					"destination" : [ "obj-740", 0 ],
					"source" : [ "obj-760", 7 ]
				}

			}
, 			{
				"patchline" : 				{
					"destination" : [ "obj-741", 0 ],
					"source" : [ "obj-760", 5 ]
				}

			}
, 			{
				"patchline" : 				{
					"destination" : [ "obj-743", 0 ],
					"source" : [ "obj-760", 9 ]
				}

			}
, 			{
				"patchline" : 				{
					"destination" : [ "obj-744", 0 ],
					"source" : [ "obj-760", 8 ]
				}

			}
, 			{
				"patchline" : 				{
					"destination" : [ "obj-745", 0 ],
					"source" : [ "obj-760", 6 ]
				}

			}
, 			{
				"patchline" : 				{
					"destination" : [ "obj-746", 0 ],
					"source" : [ "obj-760", 4 ]
				}

			}
, 			{
				"patchline" : 				{
					"destination" : [ "obj-747", 0 ],
					"source" : [ "obj-760", 3 ]
				}

			}
, 			{
				"patchline" : 				{
					"destination" : [ "obj-748", 0 ],
					"source" : [ "obj-760", 2 ]
				}

			}
, 			{
				"patchline" : 				{
					"destination" : [ "obj-749", 0 ],
					"source" : [ "obj-760", 1 ]
				}

			}
, 			{
				"patchline" : 				{
					"destination" : [ "obj-750", 0 ],
					"source" : [ "obj-760", 0 ]
				}

			}
, 			{
				"patchline" : 				{
					"color" : [ 0.178526863455772, 0.331328541040421, 0.978633761405945, 1.0 ],
					"destination" : [ "obj-759", 0 ],
					"source" : [ "obj-760", 18 ]
				}

			}
, 			{
				"patchline" : 				{
					"destination" : [ "obj-769", 0 ],
					"source" : [ "obj-762", 0 ]
				}

			}
, 			{
				"patchline" : 				{
					"destination" : [ "obj-764", 0 ],
					"source" : [ "obj-763", 0 ]
				}

			}
, 			{
				"patchline" : 				{
					"destination" : [ "obj-629", 0 ],
					"source" : [ "obj-766", 0 ]
				}

			}
, 			{
				"patchline" : 				{
					"destination" : [ "obj-766", 0 ],
					"source" : [ "obj-767", 1 ]
				}

			}
, 			{
				"patchline" : 				{
					"destination" : [ "obj-766", 0 ],
					"source" : [ "obj-767", 0 ]
				}

			}
, 			{
				"patchline" : 				{
					"destination" : [ "obj-629", 0 ],
					"order" : 1,
					"source" : [ "obj-769", 1 ]
				}

			}
, 			{
				"patchline" : 				{
					"destination" : [ "obj-767", 0 ],
					"order" : 0,
					"source" : [ "obj-769", 1 ]
				}

			}
, 			{
				"patchline" : 				{
					"destination" : [ "obj-763", 0 ],
					"order" : 1,
					"source" : [ "obj-771", 0 ]
				}

			}
, 			{
				"patchline" : 				{
					"destination" : [ "obj-765", 0 ],
					"order" : 0,
					"source" : [ "obj-771", 0 ]
				}

			}
, 			{
				"patchline" : 				{
					"destination" : [ "obj-766", 1 ],
					"order" : 2,
					"source" : [ "obj-771", 0 ]
				}

			}
 ],
		"dependency_cache" : [ 			{
				"name" : "auto-connect_hi_set.maxpat",
				"bootpath" : "~/Documents/Max 8/Projects/sousastep/SousaFX/patchers",
				"patcherrelativepath" : ".",
				"type" : "JSON",
				"implicit" : 1
			}
, 			{
				"name" : "thru.maxpat",
				"bootpath" : "C74:/patchers/m4l/Pluggo for Live resources/patches",
				"type" : "JSON",
				"implicit" : 1
			}
 ],
		"autosave" : 0
	}

}
