{
	"patcher" : 	{
		"fileversion" : 1,
		"appversion" : 		{
			"major" : 8,
			"minor" : 6,
			"revision" : 0,
			"architecture" : "x64",
			"modernui" : 1
		}
,
		"classnamespace" : "box",
		"rect" : [ 1242.0, 484.0, 1200.0, 896.0 ],
		"bglocked" : 0,
		"openinpresentation" : 1,
		"default_fontsize" : 12.0,
		"default_fontface" : 0,
		"default_fontname" : "Arial",
		"gridonopen" : 1,
		"gridsize" : [ 15.0, 15.0 ],
		"gridsnaponopen" : 1,
		"objectsnaponopen" : 1,
		"statusbarvisible" : 2,
		"toolbarvisible" : 1,
		"lefttoolbarpinned" : 0,
		"toptoolbarpinned" : 0,
		"righttoolbarpinned" : 0,
		"bottomtoolbarpinned" : 0,
		"toolbars_unpinned_last_save" : 0,
		"tallnewobj" : 0,
		"boxanimatetime" : 200,
		"enablehscroll" : 1,
		"enablevscroll" : 1,
		"devicewidth" : 0.0,
		"description" : "",
		"digest" : "",
		"tags" : "",
		"style" : "",
		"subpatcher_template" : "",
		"assistshowspatchername" : 0,
		"boxes" : [ 			{
				"box" : 				{
					"fontname" : "Ableton Sans Light",
					"id" : "obj-48",
					"maxclass" : "comment",
					"numinlets" : 0,
					"numoutlets" : 0,
					"patching_rect" : [ 38.0, 219.0, 94.0, 21.0 ],
					"suppressinlet" : 1,
					"text" : "Default preset #"
				}

			}
, 			{
				"box" : 				{
					"fontname" : "Monaco",
					"id" : "obj-14",
					"maxclass" : "newobj",
					"numinlets" : 1,
					"numoutlets" : 1,
					"outlettype" : [ "" ],
					"patching_rect" : [ 312.0, 295.0, 66.0, 23.0 ],
					"text" : "deferlow"
				}

			}
, 			{
				"box" : 				{
					"fontname" : "Monaco",
					"id" : "obj-53",
					"maxclass" : "newobj",
					"numinlets" : 1,
					"numoutlets" : 2,
					"outlettype" : [ "bang", "bang" ],
					"patching_rect" : [ 242.0, 232.0, 45.0, 23.0 ],
					"text" : "t b b"
				}

			}
, 			{
				"box" : 				{
					"fontname" : "Monaco",
					"id" : "obj-54",
					"maxclass" : "newobj",
					"numinlets" : 1,
					"numoutlets" : 1,
					"outlettype" : [ "" ],
					"patching_rect" : [ 38.0, 245.0, 81.0, 23.0 ],
					"text" : "loadmess 1"
				}

			}
, 			{
				"box" : 				{
					"fontname" : "Monaco",
					"id" : "obj-55",
					"maxclass" : "newobj",
					"numinlets" : 2,
					"numoutlets" : 1,
					"outlettype" : [ "" ],
					"patching_rect" : [ 201.0, 295.0, 95.0, 23.0 ],
					"text" : "pack store 1"
				}

			}
, 			{
				"box" : 				{
					"fontname" : "Monaco",
					"id" : "obj-57",
					"maxclass" : "newobj",
					"numinlets" : 1,
					"numoutlets" : 1,
					"outlettype" : [ "" ],
					"patching_rect" : [ 38.0, 384.0, 340.0, 23.0 ],
					"saved_object_attributes" : 					{
						"client_rect" : [ 301, 413, 655, 541 ],
						"parameter_enable" : 0,
						"parameter_mappable" : 0,
						"storage_rect" : [ 1346, 561, 1854, 871 ]
					}
,
					"text" : "pattrstorage #1_gigaverb @greedy 0 @savemode 0",
					"varname" : "#1_gigaverb[1]"
				}

			}
, 			{
				"box" : 				{
					"bgcolor" : [ 1.0, 0.949019607843137, 0.227450980392157, 0.57 ],
					"bgcolor2" : [ 0.941176470588235, 0.227450980392157, 1.0, 0.52 ],
					"bgfillcolor_angle" : 40.988422399155411,
					"bgfillcolor_autogradient" : 0.0,
					"bgfillcolor_color" : [ 0.941176470588235, 0.227450980392157, 1.0, 0.52 ],
					"bgfillcolor_color1" : [ 1.0, 0.949019607843137, 0.227450980392157, 0.57 ],
					"bgfillcolor_color2" : [ 0.941176470588235, 0.227450980392157, 1.0, 0.52 ],
					"bgfillcolor_proportion" : 0.39,
					"bgfillcolor_pt1" : [ -0.035353535353535, 0.95959595959596 ],
					"bgfillcolor_pt2" : [ 1.005050505050505, 0.055555555555556 ],
					"bgfillcolor_type" : "gradient",
					"fontname" : "Monaco",
					"fontsize" : 12.0,
					"gradient" : 1,
					"id" : "obj-58",
					"maxclass" : "message",
					"numinlets" : 2,
					"numoutlets" : 1,
					"outlettype" : [ "" ],
					"patching_rect" : [ 55.0, 282.0, 115.0, 23.0 ],
					"style" : "messageGold",
					"text" : "storagewindow",
					"textcolor" : [ 0.0, 0.0, 0.0, 0.890196078431372 ],
					"textjustification" : 1
				}

			}
, 			{
				"box" : 				{
					"bgcolor" : [ 0.247058823529412, 0.086274509803922, 0.317647058823529, 1.0 ],
					"bgcolor2" : [ 0.505882352941176, 0.266666666666667, 0.043137254901961, 1.0 ],
					"bgfillcolor_angle" : 40.988422399155411,
					"bgfillcolor_autogradient" : 0.0,
					"bgfillcolor_color" : [ 0.505882352941176, 0.266666666666667, 0.043137254901961, 1.0 ],
					"bgfillcolor_color1" : [ 0.247058823529412, 0.086274509803922, 0.317647058823529, 1.0 ],
					"bgfillcolor_color2" : [ 0.505882352941176, 0.266666666666667, 0.043137254901961, 1.0 ],
					"bgfillcolor_proportion" : 0.39,
					"bgfillcolor_pt1" : [ -0.035353535353535, 0.95959595959596 ],
					"bgfillcolor_pt2" : [ 1.005050505050505, 0.055555555555556 ],
					"bgfillcolor_type" : "gradient",
					"fontname" : "Monaco",
					"fontsize" : 12.0,
					"gradient" : 1,
					"id" : "obj-59",
					"maxclass" : "message",
					"numinlets" : 2,
					"numoutlets" : 1,
					"outlettype" : [ "" ],
					"patching_rect" : [ 64.0, 313.0, 101.0, 23.0 ],
					"style" : "messageGold",
					"text" : "clientwindow",
					"textcolor" : [ 1.0, 1.0, 1.0, 1.0 ]
				}

			}
, 			{
				"box" : 				{
					"fontname" : "Monaco",
					"id" : "obj-17",
					"maxclass" : "newobj",
					"numinlets" : 1,
					"numoutlets" : 1,
					"outlettype" : [ "bang" ],
					"patching_rect" : [ 403.0, 206.0, 66.0, 23.0 ],
					"text" : "loadbang"
				}

			}
, 			{
				"box" : 				{
					"fontname" : "Monaco",
					"id" : "obj-15",
					"maxclass" : "message",
					"numinlets" : 2,
					"numoutlets" : 1,
					"outlettype" : [ "" ],
					"patching_rect" : [ 403.0, 251.0, 131.0, 23.0 ],
					"text" : "#1"
				}

			}
, 			{
				"box" : 				{
					"fontname" : "Monaco",
					"id" : "obj-60",
					"maxclass" : "message",
					"numinlets" : 2,
					"numoutlets" : 1,
					"outlettype" : [ "" ],
					"patching_rect" : [ 312.0, 339.0, 606.0, 23.0 ],
					"text" : "write \"~/Documents/Max 8/Projects/sousastep/SousaFX/data/#1_gigaverb.json\""
				}

			}
, 			{
				"box" : 				{
					"fontname" : "Monaco",
					"id" : "obj-16",
					"maxclass" : "newobj",
					"numinlets" : 1,
					"numoutlets" : 1,
					"outlettype" : [ "" ],
					"patching_rect" : [ 403.0, 295.0, 613.0, 23.0 ],
					"text" : "sprintf write \\\"~/Documents/Max 8/Projects/sousastep/SousaFX/data/%s_gigaverb.json\\\""
				}

			}
, 			{
				"box" : 				{
					"id" : "obj-43",
					"maxclass" : "newobj",
					"numinlets" : 2,
					"numoutlets" : 1,
					"outlettype" : [ "bang" ],
					"patching_rect" : [ 388.0, 33.0, 48.0, 22.0 ],
					"text" : "del 250"
				}

			}
, 			{
				"box" : 				{
					"id" : "obj-41",
					"linecount" : 4,
					"maxclass" : "message",
					"numinlets" : 2,
					"numoutlets" : 1,
					"outlettype" : [ "" ],
					"patching_rect" : [ 474.0, 54.0, 50.0, 62.0 ],
					"text" : "0. 0.875 0.013672 1."
				}

			}
, 			{
				"box" : 				{
					"id" : "obj-36",
					"maxclass" : "message",
					"numinlets" : 2,
					"numoutlets" : 1,
					"outlettype" : [ "" ],
					"patching_rect" : [ 388.0, 94.0, 75.0, 22.0 ],
					"text" : "0.2 0.2 0.2 1"
				}

			}
, 			{
				"box" : 				{
					"attr" : "bgfillcolor",
					"id" : "obj-31",
					"maxclass" : "attrui",
					"numinlets" : 1,
					"numoutlets" : 1,
					"outlettype" : [ "" ],
					"parameter_enable" : 0,
					"patching_rect" : [ 459.0, 148.0, 150.0, 22.0 ]
				}

			}
, 			{
				"box" : 				{
					"id" : "obj-18",
					"maxclass" : "newobj",
					"numinlets" : 1,
					"numoutlets" : 1,
					"outlettype" : [ "bang" ],
					"patching_rect" : [ 311.0, 68.0, 22.0, 22.0 ],
					"text" : "t b"
				}

			}
, 			{
				"box" : 				{
					"bgcolor" : [ 0.301961, 0.301961, 0.301961, 1.0 ],
					"bgcolor2" : [ 0.301961, 0.301961, 0.301961, 1.0 ],
					"bgfillcolor_angle" : 270.0,
					"bgfillcolor_autogradient" : 0.0,
					"bgfillcolor_color" : [ 0.2, 0.2, 0.2, 1 ],
					"bgfillcolor_color1" : [ 0.301961, 0.301961, 0.301961, 1.0 ],
					"bgfillcolor_color2" : [ 0.2, 0.2, 0.2, 1.0 ],
					"bgfillcolor_proportion" : 0.5,
					"bgfillcolor_type" : "color",
					"fontsize" : 10.512151719659835,
					"gradient" : 1,
					"id" : "obj-19",
					"maxclass" : "message",
					"numinlets" : 2,
					"numoutlets" : 1,
					"outlettype" : [ "" ],
					"patching_rect" : [ 242.0, 117.0, 113.0, 20.0 ],
					"presentation" : 1,
					"presentation_rect" : [ 115.5, 216.333333333333314, 115.0, 20.0 ],
					"text" : "save gigaverb settings"
				}

			}
, 			{
				"box" : 				{
					"fontname" : "Ableton Sans Light",
					"id" : "obj-9",
					"maxclass" : "comment",
					"numinlets" : 0,
					"numoutlets" : 0,
					"patching_rect" : [ 115.5, 529.0, 150.0, 21.0 ],
					"suppressinlet" : 1,
					"text" : "autopattr inside bpatcher"
				}

			}
, 			{
				"box" : 				{
					"id" : "obj-8",
					"maxclass" : "newobj",
					"numinlets" : 1,
					"numoutlets" : 1,
					"outlettype" : [ "" ],
					"patching_rect" : [ 635.5, 672.0, 70.0, 22.0 ],
					"text" : "loadmess 0"
				}

			}
, 			{
				"box" : 				{
					"comment" : "left output",
					"id" : "obj-5",
					"index" : 0,
					"maxclass" : "outlet",
					"numinlets" : 1,
					"numoutlets" : 0,
					"patching_rect" : [ 635.5, 730.0, 30.0, 30.0 ]
				}

			}
, 			{
				"box" : 				{
					"bgmode" : 0,
					"border" : 0,
					"clickthrough" : 0,
					"enablehscroll" : 0,
					"enablevscroll" : 0,
					"extract" : 1,
					"id" : "obj-40",
					"lockeddragscroll" : 0,
					"lockedsize" : 0,
					"maxclass" : "bpatcher",
					"name" : "bp.Gigaverb.maxpat",
					"numinlets" : 2,
					"numoutlets" : 2,
					"offset" : [ 0.0, 0.0 ],
					"outlettype" : [ "signal", "signal" ],
					"patching_rect" : [ 99.5, 556.0, 332.0, 116.0 ],
					"presentation" : 1,
					"presentation_rect" : [ 7.0, 98.333333333333329, 332.0, 116.0 ],
					"varname" : "bpGigaverb",
					"viewvisibility" : 1
				}

			}
, 			{
				"box" : 				{
					"fontname" : "Monaco",
					"fontsize" : 12.0,
					"id" : "obj-38",
					"linecount" : 3,
					"maxclass" : "comment",
					"numinlets" : 1,
					"numoutlets" : 0,
					"patching_rect" : [ 678.0, 189.0, 275.0, 51.0 ],
					"presentation" : 1,
					"presentation_linecount" : 3,
					"presentation_rect" : [ 35.5, 40.666666666666664, 275.0, 51.0 ],
					"text" : "A mono in, stereo out reverb, ported from the implementation by Juhana Sadeharju (kouhia@nic.funet.fi).",
					"textcolor" : [ 1.0, 0.968627450980392, 0.992156862745098, 1.0 ],
					"textjustification" : 1
				}

			}
, 			{
				"box" : 				{
					"fontface" : 3,
					"fontname" : "Monaco",
					"fontsize" : 18.0,
					"id" : "obj-2",
					"maxclass" : "comment",
					"numinlets" : 1,
					"numoutlets" : 0,
					"patching_rect" : [ 678.0, 159.0, 281.0, 29.0 ],
					"presentation" : 1,
					"presentation_rect" : [ 7.0, 5.0, 332.0, 29.0 ],
					"text" : "Gigaverb",
					"textcolor" : [ 1.0, 0.968627450980392, 0.992156862745098, 1.0 ],
					"textjustification" : 1
				}

			}
, 			{
				"box" : 				{
					"comment" : "left imput",
					"id" : "obj-10",
					"index" : 0,
					"maxclass" : "inlet",
					"numinlets" : 0,
					"numoutlets" : 1,
					"outlettype" : [ "" ],
					"patching_rect" : [ 412.5, 474.0, 30.0, 30.0 ]
				}

			}
, 			{
				"box" : 				{
					"comment" : "left output",
					"id" : "obj-7",
					"index" : 0,
					"maxclass" : "outlet",
					"numinlets" : 1,
					"numoutlets" : 0,
					"patching_rect" : [ 412.5, 730.0, 30.0, 30.0 ]
				}

			}
, 			{
				"box" : 				{
					"fontname" : "Ableton Sans Light",
					"id" : "obj-97",
					"linecount" : 4,
					"maxclass" : "comment",
					"numinlets" : 0,
					"numoutlets" : 0,
					"patching_rect" : [ 666.5, 490.0, 177.0, 64.0 ],
					"suppressinlet" : 1,
					"text" : "dummy inlet because plugin_or_rnbo_selector_mono may use this to control parameters in certain bpatchers"
				}

			}
, 			{
				"box" : 				{
					"comment" : "octaver params",
					"id" : "obj-6",
					"index" : 0,
					"maxclass" : "inlet",
					"numinlets" : 0,
					"numoutlets" : 1,
					"outlettype" : [ "" ],
					"patching_rect" : [ 629.5, 481.0, 30.0, 30.0 ]
				}

			}
, 			{
				"box" : 				{
					"comment" : "left output",
					"id" : "obj-3",
					"index" : 0,
					"maxclass" : "outlet",
					"numinlets" : 1,
					"numoutlets" : 0,
					"patching_rect" : [ 99.5, 730.0, 30.0, 30.0 ]
				}

			}
, 			{
				"box" : 				{
					"comment" : "left imput",
					"id" : "obj-1",
					"index" : 0,
					"maxclass" : "inlet",
					"numinlets" : 0,
					"numoutlets" : 1,
					"outlettype" : [ "" ],
					"patching_rect" : [ 99.5, 474.0, 30.0, 30.0 ]
				}

			}
 ],
		"lines" : [ 			{
				"patchline" : 				{
					"destination" : [ "obj-40", 0 ],
					"source" : [ "obj-1", 0 ]
				}

			}
, 			{
				"patchline" : 				{
					"destination" : [ "obj-40", 1 ],
					"source" : [ "obj-10", 0 ]
				}

			}
, 			{
				"patchline" : 				{
					"destination" : [ "obj-60", 0 ],
					"source" : [ "obj-14", 0 ]
				}

			}
, 			{
				"patchline" : 				{
					"destination" : [ "obj-16", 0 ],
					"source" : [ "obj-15", 0 ]
				}

			}
, 			{
				"patchline" : 				{
					"destination" : [ "obj-60", 1 ],
					"source" : [ "obj-16", 0 ]
				}

			}
, 			{
				"patchline" : 				{
					"destination" : [ "obj-15", 0 ],
					"source" : [ "obj-17", 0 ]
				}

			}
, 			{
				"patchline" : 				{
					"destination" : [ "obj-41", 0 ],
					"order" : 0,
					"source" : [ "obj-18", 0 ]
				}

			}
, 			{
				"patchline" : 				{
					"destination" : [ "obj-43", 0 ],
					"order" : 1,
					"source" : [ "obj-18", 0 ]
				}

			}
, 			{
				"patchline" : 				{
					"destination" : [ "obj-18", 0 ],
					"order" : 0,
					"source" : [ "obj-19", 0 ]
				}

			}
, 			{
				"patchline" : 				{
					"destination" : [ "obj-53", 0 ],
					"order" : 1,
					"source" : [ "obj-19", 0 ]
				}

			}
, 			{
				"patchline" : 				{
					"destination" : [ "obj-19", 0 ],
					"source" : [ "obj-31", 0 ]
				}

			}
, 			{
				"patchline" : 				{
					"destination" : [ "obj-31", 0 ],
					"source" : [ "obj-36", 0 ]
				}

			}
, 			{
				"patchline" : 				{
					"destination" : [ "obj-3", 0 ],
					"source" : [ "obj-40", 0 ]
				}

			}
, 			{
				"patchline" : 				{
					"destination" : [ "obj-7", 0 ],
					"source" : [ "obj-40", 1 ]
				}

			}
, 			{
				"patchline" : 				{
					"destination" : [ "obj-31", 0 ],
					"source" : [ "obj-41", 0 ]
				}

			}
, 			{
				"patchline" : 				{
					"destination" : [ "obj-36", 0 ],
					"source" : [ "obj-43", 0 ]
				}

			}
, 			{
				"patchline" : 				{
					"destination" : [ "obj-14", 0 ],
					"source" : [ "obj-53", 0 ]
				}

			}
, 			{
				"patchline" : 				{
					"destination" : [ "obj-55", 0 ],
					"source" : [ "obj-53", 1 ]
				}

			}
, 			{
				"patchline" : 				{
					"destination" : [ "obj-57", 0 ],
					"source" : [ "obj-54", 0 ]
				}

			}
, 			{
				"patchline" : 				{
					"destination" : [ "obj-57", 0 ],
					"source" : [ "obj-55", 0 ]
				}

			}
, 			{
				"patchline" : 				{
					"destination" : [ "obj-57", 0 ],
					"source" : [ "obj-58", 0 ]
				}

			}
, 			{
				"patchline" : 				{
					"destination" : [ "obj-57", 0 ],
					"source" : [ "obj-59", 0 ]
				}

			}
, 			{
				"patchline" : 				{
					"destination" : [ "obj-57", 0 ],
					"source" : [ "obj-60", 0 ]
				}

			}
, 			{
				"patchline" : 				{
					"destination" : [ "obj-5", 0 ],
					"source" : [ "obj-8", 0 ]
				}

			}
 ],
		"parameters" : 		{
			"obj-40::obj-23" : [ "bypass[1]", "bypass", 0 ],
			"obj-40::obj-28" : [ "Size[1]", "Size", 0 ],
			"obj-40::obj-3" : [ "Regen[1]", "Regen", 0 ],
			"obj-40::obj-60" : [ "Damp[1]", "Damp", 0 ],
			"obj-40::obj-62" : [ "Dry[1]", "Dry", 0 ],
			"obj-40::obj-63" : [ "Early[1]", "Early", 0 ],
			"obj-40::obj-64" : [ "Tail[1]", "Tail", 0 ],
			"obj-40::obj-65" : [ "Spread[1]", "Spread", 0 ],
			"obj-40::obj-66" : [ "Time[1]", "Time", 0 ],
			"parameterbanks" : 			{
				"0" : 				{
					"index" : 0,
					"name" : "",
					"parameters" : [ "-", "-", "-", "-", "-", "-", "-", "-" ]
				}

			}
,
			"parameter_overrides" : 			{
				"obj-40::obj-23" : 				{
					"parameter_longname" : "bypass[1]"
				}
,
				"obj-40::obj-28" : 				{
					"parameter_longname" : "Size[1]"
				}
,
				"obj-40::obj-3" : 				{
					"parameter_longname" : "Regen[1]"
				}
,
				"obj-40::obj-60" : 				{
					"parameter_longname" : "Damp[1]"
				}
,
				"obj-40::obj-62" : 				{
					"parameter_longname" : "Dry[1]"
				}
,
				"obj-40::obj-63" : 				{
					"parameter_longname" : "Early[1]"
				}
,
				"obj-40::obj-64" : 				{
					"parameter_longname" : "Tail[1]"
				}
,
				"obj-40::obj-65" : 				{
					"parameter_longname" : "Spread[1]"
				}
,
				"obj-40::obj-66" : 				{
					"parameter_longname" : "Time[1]"
				}

			}
,
			"inherited_shortname" : 1
		}
,
		"dependency_cache" : [ 			{
				"name" : "bp.Gigaverb.maxpat",
				"bootpath" : "C74:/packages/BEAP/clippings/BEAP/Effects",
				"type" : "JSON",
				"implicit" : 1
			}
 ],
		"autosave" : 0,
		"bgcolor" : [ 0.0, 0.0, 0.0, 1.0 ],
		"editing_bgcolor" : [ 0.297141820192337, 0.311877995729446, 0.354982376098633, 1.0 ]
	}

}
