{
	"patcher" : 	{
		"fileversion" : 1,
		"appversion" : 		{
			"major" : 8,
			"minor" : 6,
			"revision" : 0,
			"architecture" : "x64",
			"modernui" : 1
		}
,
		"classnamespace" : "box",
		"rect" : [ 582.0, 1493.0, 1372.0, 813.0 ],
		"bglocked" : 0,
		"openinpresentation" : 1,
		"default_fontsize" : 12.0,
		"default_fontface" : 0,
		"default_fontname" : "Arial",
		"gridonopen" : 1,
		"gridsize" : [ 15.0, 15.0 ],
		"gridsnaponopen" : 1,
		"objectsnaponopen" : 1,
		"statusbarvisible" : 2,
		"toolbarvisible" : 1,
		"lefttoolbarpinned" : 0,
		"toptoolbarpinned" : 0,
		"righttoolbarpinned" : 0,
		"bottomtoolbarpinned" : 0,
		"toolbars_unpinned_last_save" : 2,
		"tallnewobj" : 0,
		"boxanimatetime" : 200,
		"enablehscroll" : 1,
		"enablevscroll" : 1,
		"devicewidth" : 0.0,
		"description" : "",
		"digest" : "",
		"tags" : "",
		"style" : "",
		"subpatcher_template" : "",
		"assistshowspatchername" : 0,
		"boxes" : [ 			{
				"box" : 				{
					"fontname" : "Ableton Sans Light",
					"id" : "obj-68",
					"maxclass" : "comment",
					"numinlets" : 0,
					"numoutlets" : 0,
					"patching_rect" : [ 1199.0, 138.0, 150.0, 21.0 ],
					"suppressinlet" : 1,
					"text" : "terrible"
				}

			}
, 			{
				"box" : 				{
					"id" : "obj-64",
					"maxclass" : "newobj",
					"numinlets" : 1,
					"numoutlets" : 1,
					"outlettype" : [ "int" ],
					"patching_rect" : [ 1317.500319567753195, 59.0, 22.0, 22.0 ],
					"text" : "t 0"
				}

			}
, 			{
				"box" : 				{
					"id" : "obj-24",
					"maxclass" : "newobj",
					"numinlets" : 1,
					"numoutlets" : 1,
					"outlettype" : [ "int" ],
					"patching_rect" : [ 1284.0, 59.0, 22.0, 22.0 ],
					"text" : "t 1"
				}

			}
, 			{
				"box" : 				{
					"id" : "obj-15",
					"maxclass" : "newobj",
					"numinlets" : 2,
					"numoutlets" : 1,
					"outlettype" : [ "" ],
					"patching_rect" : [ 1295.0, 86.0, 52.0, 22.0 ],
					"text" : "gate 1 0"
				}

			}
, 			{
				"box" : 				{
					"id" : "obj-61",
					"maxclass" : "newobj",
					"numinlets" : 1,
					"numoutlets" : 1,
					"outlettype" : [ "int" ],
					"patching_rect" : [ 1120.750319567753195, 75.0, 22.0, 22.0 ],
					"text" : "t 0"
				}

			}
, 			{
				"box" : 				{
					"id" : "obj-60",
					"maxclass" : "newobj",
					"numinlets" : 2,
					"numoutlets" : 1,
					"outlettype" : [ "bang" ],
					"patching_rect" : [ 1120.750319567753195, 36.0, 41.0, 22.0 ],
					"text" : "del 30"
				}

			}
, 			{
				"box" : 				{
					"comment" : "mute at start of fade",
					"id" : "obj-39",
					"index" : 0,
					"maxclass" : "inlet",
					"numinlets" : 0,
					"numoutlets" : 1,
					"outlettype" : [ "" ],
					"patching_rect" : [ 1329.250319567753195, 24.0, 30.0, 30.0 ]
				}

			}
, 			{
				"box" : 				{
					"id" : "obj-38",
					"maxclass" : "newobj",
					"numinlets" : 2,
					"numoutlets" : 1,
					"outlettype" : [ "" ],
					"patching_rect" : [ 1120.750319567753195, 137.0, 52.0, 22.0 ],
					"text" : "gate 1 0"
				}

			}
, 			{
				"box" : 				{
					"id" : "obj-36",
					"maxclass" : "newobj",
					"numinlets" : 1,
					"numoutlets" : 1,
					"outlettype" : [ "int" ],
					"patching_rect" : [ 960.0, 248.497282232015095, 22.0, 22.0 ],
					"text" : "t 1"
				}

			}
, 			{
				"box" : 				{
					"id" : "obj-29",
					"maxclass" : "newobj",
					"numinlets" : 1,
					"numoutlets" : 3,
					"outlettype" : [ "", "", "" ],
					"patching_rect" : [ 1317.500319567753195, 214.991487017985946, 80.0, 22.0 ],
					"restore" : [ 0.0 ],
					"saved_object_attributes" : 					{
						"parameter_enable" : 0,
						"parameter_mappable" : 0
					}
,
					"text" : "pattr fade-out",
					"varname" : "fade-out"
				}

			}
, 			{
				"box" : 				{
					"id" : "obj-26",
					"maxclass" : "newobj",
					"numinlets" : 1,
					"numoutlets" : 1,
					"outlettype" : [ "int" ],
					"patching_rect" : [ 924.0, 248.497282232015095, 22.0, 22.0 ],
					"text" : "t 0"
				}

			}
, 			{
				"box" : 				{
					"id" : "obj-21",
					"maxclass" : "toggle",
					"numinlets" : 1,
					"numoutlets" : 1,
					"outlettype" : [ "int" ],
					"parameter_enable" : 0,
					"patching_rect" : [ 371.0, 1016.0, 24.0, 24.0 ]
				}

			}
, 			{
				"box" : 				{
					"args" : [ "Looper", "loopgroup" ],
					"bgmode" : 0,
					"border" : 0,
					"clickthrough" : 0,
					"enablehscroll" : 0,
					"enablevscroll" : 0,
					"id" : "obj-4",
					"lockeddragscroll" : 0,
					"lockedsize" : 0,
					"maxclass" : "bpatcher",
					"name" : "solomuteUI.maxpat",
					"numinlets" : 3,
					"numoutlets" : 2,
					"offset" : [ 0.0, 0.0 ],
					"outlettype" : [ "signal", "signal" ],
					"patching_rect" : [ 259.0, 1062.0, 131.0, 75.0 ],
					"viewvisibility" : 1
				}

			}
, 			{
				"box" : 				{
					"fontname" : "Ableton Sans Light",
					"fontsize" : 16.0,
					"hint" : "Select which kind of fade out the looper should do.",
					"id" : "obj-87",
					"maxclass" : "live.menu",
					"numinlets" : 1,
					"numoutlets" : 3,
					"outlettype" : [ "", "", "float" ],
					"parameter_enable" : 1,
					"patching_rect" : [ 1348.000319567753195, 256.0, 167.0, 23.0 ],
					"presentation" : 1,
					"presentation_rect" : [ 9.0, 32.0, 135.0, 23.0 ],
					"saved_attribute_attributes" : 					{
						"valueof" : 						{
							"parameter_enum" : [ "volume fade out", "highpass sweep up", "lowpass sweep down" ],
							"parameter_longname" : "live.menu[1]",
							"parameter_mmax" : 2,
							"parameter_shortname" : "live.menu[1]",
							"parameter_type" : 2
						}

					}
,
					"varname" : "live.menu[1]"
				}

			}
, 			{
				"box" : 				{
					"attr" : "tricolor",
					"id" : "obj-86",
					"maxclass" : "attrui",
					"numinlets" : 1,
					"numoutlets" : 1,
					"outlettype" : [ "" ],
					"parameter_enable" : 0,
					"patching_rect" : [ 1294.500319567753195, 1485.0, 286.0, 22.0 ]
				}

			}
, 			{
				"box" : 				{
					"id" : "obj-84",
					"linecount" : 4,
					"maxclass" : "message",
					"numinlets" : 2,
					"numoutlets" : 1,
					"outlettype" : [ "" ],
					"patching_rect" : [ 1530.500319567753195, 1372.0, 50.0, 62.0 ],
					"text" : "0.756863 0.556863 1."
				}

			}
, 			{
				"box" : 				{
					"id" : "obj-82",
					"linecount" : 4,
					"maxclass" : "message",
					"numinlets" : 2,
					"numoutlets" : 1,
					"outlettype" : [ "" ],
					"patching_rect" : [ 1468.477845853938334, 1372.0, 50.0, 62.0 ],
					"text" : "0.239216 1. 0.301961"
				}

			}
, 			{
				"box" : 				{
					"id" : "obj-80",
					"linecount" : 2,
					"maxclass" : "message",
					"numinlets" : 2,
					"numoutlets" : 1,
					"outlettype" : [ "" ],
					"patching_rect" : [ 1380.522793281568056, 1372.0, 75.932578858555416, 35.0 ],
					"text" : "1. 0.286275 0.309804 1."
				}

			}
, 			{
				"box" : 				{
					"id" : "obj-72",
					"linecount" : 3,
					"maxclass" : "message",
					"numinlets" : 2,
					"numoutlets" : 1,
					"outlettype" : [ "" ],
					"patching_rect" : [ 1294.500319567753195, 1372.0, 74.0, 49.0 ],
					"text" : "0.917647 0.929412 0.894118 1."
				}

			}
, 			{
				"box" : 				{
					"attr" : "activebgcolor",
					"id" : "obj-28",
					"maxclass" : "attrui",
					"numinlets" : 1,
					"numoutlets" : 1,
					"outlettype" : [ "" ],
					"parameter_enable" : 0,
					"patching_rect" : [ 1294.500319567753195, 1452.0, 286.0, 22.0 ]
				}

			}
, 			{
				"box" : 				{
					"id" : "obj-20",
					"maxclass" : "newobj",
					"numinlets" : 1,
					"numoutlets" : 1,
					"outlettype" : [ "bang" ],
					"patching_rect" : [ 1560.500319567753195, 624.0, 22.0, 22.0 ],
					"text" : "t b"
				}

			}
, 			{
				"box" : 				{
					"id" : "obj-19",
					"maxclass" : "newobj",
					"numinlets" : 1,
					"numoutlets" : 2,
					"outlettype" : [ "int", "bang" ],
					"patching_rect" : [ 1252.0, 1302.0, 32.0, 22.0 ],
					"text" : "t 0 b"
				}

			}
, 			{
				"box" : 				{
					"id" : "obj-13",
					"maxclass" : "newobj",
					"numinlets" : 1,
					"numoutlets" : 2,
					"outlettype" : [ "int", "bang" ],
					"patching_rect" : [ 1214.0, 1302.0, 32.0, 22.0 ],
					"text" : "t 3 b"
				}

			}
, 			{
				"box" : 				{
					"id" : "obj-12",
					"maxclass" : "newobj",
					"numinlets" : 1,
					"numoutlets" : 2,
					"outlettype" : [ "int", "bang" ],
					"patching_rect" : [ 1175.0, 1302.0, 32.0, 22.0 ],
					"text" : "t 2 b"
				}

			}
, 			{
				"box" : 				{
					"id" : "obj-9",
					"maxclass" : "newobj",
					"numinlets" : 1,
					"numoutlets" : 2,
					"outlettype" : [ "int", "bang" ],
					"patching_rect" : [ 1137.0, 1302.0, 32.0, 22.0 ],
					"text" : "t 1 b"
				}

			}
, 			{
				"box" : 				{
					"fontname" : "Ableton Sans Light",
					"fontsize" : 16.0,
					"hint" : "looper status",
					"id" : "obj-8",
					"ignoreclick" : 1,
					"maxclass" : "live.menu",
					"numinlets" : 1,
					"numoutlets" : 3,
					"outlettype" : [ "", "", "float" ],
					"parameter_enable" : 1,
					"patching_rect" : [ 1197.5, 1518.0, 79.000000000000114, 23.0 ],
					"presentation" : 1,
					"presentation_rect" : [ 9.0, 7.0, 135.0, 23.0 ],
					"saved_attribute_attributes" : 					{
						"tricolor" : 						{
							"expression" : "themecolor.live_control_text_bg"
						}
,
						"valueof" : 						{
							"parameter_enum" : [ "idle", "recording", "looping", "fading out" ],
							"parameter_longname" : "live.menu",
							"parameter_mmax" : 3,
							"parameter_shortname" : "live.menu",
							"parameter_type" : 2
						}

					}
,
					"tricolor" : [ 0.764705882352941, 0.764705882352941, 0.764705882352941, 1.0 ],
					"varname" : "live.menu"
				}

			}
, 			{
				"box" : 				{
					"bgcolor" : [ 0.0, 0.0, 0.0, 0.46 ],
					"hint" : "metering",
					"id" : "obj-3",
					"maxclass" : "meter~",
					"numinlets" : 1,
					"numoutlets" : 1,
					"offcolor" : [ 0.349019607843137, 0.349019607843137, 0.349019607843137, 0.52 ],
					"outlettype" : [ "float" ],
					"patching_rect" : [ 1174.000319567753195, 1254.0, 80.0, 13.0 ],
					"presentation" : 1,
					"presentation_rect" : [ 9.0, 174.0, 135.0, 30.0 ]
				}

			}
, 			{
				"box" : 				{
					"id" : "obj-2",
					"maxclass" : "newobj",
					"numinlets" : 1,
					"numoutlets" : 0,
					"patching_rect" : [ 801.320533296374833, 560.0, 185.0, 22.0 ],
					"text" : "s looper_started_recording_bang"
				}

			}
, 			{
				"box" : 				{
					"id" : "obj-35",
					"maxclass" : "newobj",
					"numinlets" : 1,
					"numoutlets" : 1,
					"outlettype" : [ "signal" ],
					"patching_rect" : [ 558.0, 684.288944919837377, 107.0, 22.0 ],
					"text" : "r~ pre-loop_thresh"
				}

			}
, 			{
				"box" : 				{
					"bgmode" : 0,
					"border" : 0,
					"clickthrough" : 0,
					"enablehscroll" : 0,
					"enablevscroll" : 0,
					"id" : "obj-138",
					"lockeddragscroll" : 0,
					"lockedsize" : 0,
					"maxclass" : "bpatcher",
					"name" : "DJfilter.maxpat",
					"numinlets" : 3,
					"numoutlets" : 2,
					"offset" : [ 0.0, 0.0 ],
					"outlettype" : [ "signal", "signal" ],
					"patching_rect" : [ 1267.50031956775365, 984.0, 160.0, 75.0 ],
					"presentation" : 1,
					"presentation_rect" : [ 8.0, 106.0, 145.0, 63.0 ],
					"varname" : "DJfilter",
					"viewvisibility" : 1
				}

			}
, 			{
				"box" : 				{
					"bgcolor" : [ 0.823529411764706, 0.894117647058824, 1.0, 1.0 ],
					"fontname" : "Ableton Sans Light",
					"id" : "obj-76",
					"linecount" : 8,
					"maxclass" : "comment",
					"numinlets" : 0,
					"numoutlets" : 0,
					"patching_rect" : [ 774.110491465635278, 996.0, 124.0, 122.0 ],
					"suppressinlet" : 1,
					"text" : "if tuba's not playing, stop recording after 8 bars. \n\nif tuba's playing, keep recording past 8 bars until tuba stops playing."
				}

			}
, 			{
				"box" : 				{
					"id" : "obj-75",
					"maxclass" : "newobj",
					"numinlets" : 1,
					"numoutlets" : 1,
					"outlettype" : [ "bang" ],
					"patching_rect" : [ 716.320533296374833, 1072.0, 22.0, 22.0 ],
					"text" : "t b"
				}

			}
, 			{
				"box" : 				{
					"comment" : "looper fade out bang",
					"id" : "obj-40",
					"index" : 0,
					"maxclass" : "outlet",
					"numinlets" : 1,
					"numoutlets" : 0,
					"patching_rect" : [ 1708.0, 1088.0, 30.0, 30.0 ]
				}

			}
, 			{
				"box" : 				{
					"id" : "obj-30",
					"maxclass" : "newobj",
					"numinlets" : 1,
					"numoutlets" : 3,
					"outlettype" : [ "", "", "" ],
					"patching_rect" : [ 514.5, 1201.0, 115.0, 22.0 ],
					"restore" : [ -6.807086614173302 ],
					"saved_object_attributes" : 					{
						"parameter_enable" : 0,
						"parameter_mappable" : 0
					}
,
					"text" : "pattr looper_volume",
					"varname" : "looper_volume"
				}

			}
, 			{
				"box" : 				{
					"id" : "obj-162",
					"maxclass" : "newobj",
					"numinlets" : 1,
					"numoutlets" : 1,
					"outlettype" : [ "int" ],
					"patching_rect" : [ 688.320533296374833, 878.0, 22.0, 22.0 ],
					"text" : "t 2"
				}

			}
, 			{
				"box" : 				{
					"id" : "obj-156",
					"maxclass" : "newobj",
					"numinlets" : 1,
					"numoutlets" : 1,
					"outlettype" : [ "int" ],
					"patching_rect" : [ 716.320533296374833, 878.0, 22.0, 22.0 ],
					"text" : "t 1"
				}

			}
, 			{
				"box" : 				{
					"id" : "obj-11",
					"maxclass" : "newobj",
					"numinlets" : 2,
					"numoutlets" : 2,
					"outlettype" : [ "", "" ],
					"patching_rect" : [ 716.320533296374833, 944.0, 52.0, 22.0 ],
					"text" : "gate 2 1"
				}

			}
, 			{
				"box" : 				{
					"id" : "obj-153",
					"maxclass" : "newobj",
					"numinlets" : 1,
					"numoutlets" : 0,
					"patching_rect" : [ 864.000319567753195, 322.0, 189.0, 22.0 ],
					"text" : "s looper_finished_recording_bang"
				}

			}
, 			{
				"box" : 				{
					"id" : "obj-155",
					"maxclass" : "newobj",
					"numinlets" : 1,
					"numoutlets" : 1,
					"outlettype" : [ "int" ],
					"patching_rect" : [ 1083.0, 243.0, 22.0, 22.0 ],
					"text" : "t 1"
				}

			}
, 			{
				"box" : 				{
					"id" : "obj-154",
					"maxclass" : "newobj",
					"numinlets" : 2,
					"numoutlets" : 1,
					"outlettype" : [ "bang" ],
					"patching_rect" : [ 1083.0, 209.0, 48.0, 22.0 ],
					"text" : "del 100"
				}

			}
, 			{
				"box" : 				{
					"id" : "obj-152",
					"maxclass" : "newobj",
					"numinlets" : 1,
					"numoutlets" : 1,
					"outlettype" : [ "float" ],
					"patching_rect" : [ 1111.0, 844.652155268355273, 32.0, 22.0 ],
					"text" : "t 0.5"
				}

			}
, 			{
				"box" : 				{
					"id" : "obj-150",
					"maxclass" : "newobj",
					"numinlets" : 1,
					"numoutlets" : 3,
					"outlettype" : [ "", "int", "int" ],
					"patching_rect" : [ 1111.0, 767.652155268355273, 48.0, 22.0 ],
					"text" : "change"
				}

			}
, 			{
				"box" : 				{
					"id" : "obj-122",
					"maxclass" : "newobj",
					"numinlets" : 2,
					"numoutlets" : 2,
					"outlettype" : [ "bang", "" ],
					"patching_rect" : [ 1111.0, 803.652155268355273, 34.0, 22.0 ],
					"text" : "sel 0"
				}

			}
, 			{
				"box" : 				{
					"bgcolor" : [ 0.823529411764706, 0.894117647058824, 1.0, 1.0 ],
					"fontname" : "Ableton Sans Light",
					"id" : "obj-146",
					"linecount" : 2,
					"maxclass" : "comment",
					"numinlets" : 0,
					"numoutlets" : 0,
					"patching_rect" : [ 254.871152337402236, 289.488769250000587, 62.0, 35.0 ],
					"suppressinlet" : 1,
					"text" : "enable feedback"
				}

			}
, 			{
				"box" : 				{
					"bgcolor" : [ 0.823529411764706, 0.894117647058824, 1.0, 1.0 ],
					"fontname" : "Ableton Sans Light",
					"id" : "obj-132",
					"linecount" : 2,
					"maxclass" : "comment",
					"numinlets" : 0,
					"numoutlets" : 0,
					"patching_rect" : [ 422.050938608780598, 214.991487017985946, 62.0, 35.0 ],
					"suppressinlet" : 1,
					"text" : "disable feedback"
				}

			}
, 			{
				"box" : 				{
					"id" : "obj-120",
					"maxclass" : "newobj",
					"numinlets" : 1,
					"numoutlets" : 1,
					"outlettype" : [ "int" ],
					"patching_rect" : [ 815.170363890243152, 72.0, 22.0, 22.0 ],
					"text" : "t 2"
				}

			}
, 			{
				"box" : 				{
					"id" : "obj-111",
					"maxclass" : "newobj",
					"numinlets" : 2,
					"numoutlets" : 2,
					"outlettype" : [ "", "" ],
					"patching_rect" : [ 815.170363890243152, 128.0, 52.0, 22.0 ],
					"text" : "gate 2 1"
				}

			}
, 			{
				"box" : 				{
					"id" : "obj-114",
					"maxclass" : "newobj",
					"numinlets" : 2,
					"numoutlets" : 1,
					"outlettype" : [ "" ],
					"patching_rect" : [ 1111.0, 726.0, 199.0, 22.0 ],
					"text" : "if $i1 == 1 && $i2 == 1 then 1 else 0"
				}

			}
, 			{
				"box" : 				{
					"id" : "obj-112",
					"maxclass" : "newobj",
					"numinlets" : 1,
					"numoutlets" : 1,
					"outlettype" : [ "bang" ],
					"patching_rect" : [ 1203.000319567753195, 676.0, 22.0, 22.0 ],
					"text" : "t b"
				}

			}
, 			{
				"box" : 				{
					"id" : "obj-109",
					"maxclass" : "newobj",
					"numinlets" : 2,
					"numoutlets" : 1,
					"outlettype" : [ "int" ],
					"patching_rect" : [ 1291.0, 676.0, 36.0, 22.0 ],
					"text" : "== 1."
				}

			}
, 			{
				"box" : 				{
					"id" : "obj-107",
					"maxclass" : "newobj",
					"numinlets" : 2,
					"numoutlets" : 1,
					"outlettype" : [ "int" ],
					"patching_rect" : [ 1245.0, 676.0, 36.0, 22.0 ],
					"text" : "== 0."
				}

			}
, 			{
				"box" : 				{
					"comment" : "looper fade out bang",
					"id" : "obj-110",
					"index" : 0,
					"maxclass" : "outlet",
					"numinlets" : 1,
					"numoutlets" : 0,
					"patching_rect" : [ 1532.50031956775365, 1088.0, 30.0, 30.0 ]
				}

			}
, 			{
				"box" : 				{
					"id" : "obj-104",
					"maxclass" : "newobj",
					"numinlets" : 3,
					"numoutlets" : 1,
					"outlettype" : [ "signal" ],
					"patching_rect" : [ 627.0, 376.0, 87.0, 22.0 ],
					"text" : "slide~ 480 480"
				}

			}
, 			{
				"box" : 				{
					"bgcolor" : [ 0.823529411764706, 0.894117647058824, 1.0, 1.0 ],
					"fontname" : "Ableton Sans Light",
					"id" : "obj-34",
					"maxclass" : "comment",
					"numinlets" : 0,
					"numoutlets" : 0,
					"patching_rect" : [ 888.068060276951201, 860.97608175710161, 140.864518581604216, 21.0 ],
					"suppressinlet" : 1,
					"text" : "stop metro, reset counter"
				}

			}
, 			{
				"box" : 				{
					"id" : "obj-6",
					"maxclass" : "newobj",
					"numinlets" : 1,
					"numoutlets" : 2,
					"outlettype" : [ "int", "int" ],
					"patching_rect" : [ 852.385116911550313, 860.97608175710161, 32.0, 22.0 ],
					"text" : "t 0 0"
				}

			}
, 			{
				"box" : 				{
					"id" : "obj-77",
					"maxclass" : "newobj",
					"numinlets" : 1,
					"numoutlets" : 1,
					"outlettype" : [ "int" ],
					"patching_rect" : [ 672.871152337402236, 600.0, 22.0, 22.0 ],
					"text" : "t 1"
				}

			}
, 			{
				"box" : 				{
					"bgcolor" : [ 0.823529411764706, 0.894117647058824, 1.0, 1.0 ],
					"fontname" : "Ableton Sans Light",
					"id" : "obj-69",
					"maxclass" : "comment",
					"numinlets" : 0,
					"numoutlets" : 0,
					"patching_rect" : [ 672.871152337402236, 281.512902460071018, 64.500319567753195, 21.0 ],
					"suppressinlet" : 1,
					"text" : "close send"
				}

			}
, 			{
				"box" : 				{
					"bgcolor" : [ 0.823529411764706, 0.894117647058824, 1.0, 1.0 ],
					"fontname" : "Ableton Sans Light",
					"id" : "obj-65",
					"maxclass" : "comment",
					"numinlets" : 0,
					"numoutlets" : 0,
					"patching_rect" : [ 522.661110506662681, 304.512902460071018, 62.0, 21.0 ],
					"suppressinlet" : 1,
					"text" : "open send"
				}

			}
, 			{
				"box" : 				{
					"bgcolor" : [ 0.823529411764706, 0.894117647058824, 1.0, 1.0 ],
					"fontname" : "Ableton Sans Light",
					"id" : "obj-50",
					"linecount" : 5,
					"maxclass" : "comment",
					"numinlets" : 0,
					"numoutlets" : 0,
					"patching_rect" : [ 441.55955285685468, 468.510184692085204, 114.500319567753195, 79.0 ],
					"suppressinlet" : 1,
					"text" : "after looper send opens, the counter will start counting bars once the tuba starts playing"
				}

			}
, 			{
				"box" : 				{
					"bgcolor" : [ 0.823529411764706, 0.894117647058824, 1.0, 1.0 ],
					"fontname" : "Ableton Sans Light",
					"id" : "obj-49",
					"linecount" : 2,
					"maxclass" : "comment",
					"numinlets" : 0,
					"numoutlets" : 0,
					"patching_rect" : [ 467.661110506662681, 761.152155268355273, 99.0, 35.0 ],
					"suppressinlet" : 1,
					"text" : "bangs when tuba starts playing"
				}

			}
, 			{
				"box" : 				{
					"id" : "obj-5",
					"maxclass" : "newobj",
					"numinlets" : 2,
					"numoutlets" : 2,
					"outlettype" : [ "bang", "bang" ],
					"patching_rect" : [ 563.121152337402236, 548.521415442085072, 55.0, 22.0 ],
					"text" : "onebang"
				}

			}
, 			{
				"box" : 				{
					"bgcolor" : [ 0.823529411764706, 0.894117647058824, 1.0, 1.0 ],
					"fontname" : "Ableton Sans Light",
					"id" : "obj-147",
					"linecount" : 3,
					"maxclass" : "comment",
					"numinlets" : 0,
					"numoutlets" : 0,
					"patching_rect" : [ 590.110491465635278, 761.152155268355273, 123.0, 50.0 ],
					"suppressinlet" : 1,
					"text" : "bangs when tuba\n( + delay & reverb fx ) \nstops playing"
				}

			}
, 			{
				"box" : 				{
					"id" : "obj-137",
					"maxclass" : "newobj",
					"numinlets" : 1,
					"numoutlets" : 2,
					"outlettype" : [ "bang", "bang" ],
					"patching_rect" : [ 558.0, 729.438417847456549, 42.0, 22.0 ],
					"text" : "edge~"
				}

			}
, 			{
				"box" : 				{
					"bgcolor" : [ 0.823529411764706, 0.894117647058824, 1.0, 1.0 ],
					"fontname" : "Ableton Sans Light",
					"id" : "obj-133",
					"maxclass" : "comment",
					"numinlets" : 0,
					"numoutlets" : 0,
					"patching_rect" : [ 787.320533296374833, 801.0, 100.864518581604216, 21.0 ],
					"suppressinlet" : 1,
					"text" : "bang after 8 bars"
				}

			}
, 			{
				"box" : 				{
					"id" : "obj-123",
					"maxclass" : "newobj",
					"numinlets" : 2,
					"numoutlets" : 2,
					"outlettype" : [ "bang", "bang" ],
					"patching_rect" : [ 670.320533296374833, 1001.0, 98.0, 22.0 ],
					"text" : "onebang"
				}

			}
, 			{
				"box" : 				{
					"id" : "obj-115",
					"maxclass" : "newobj",
					"numinlets" : 2,
					"numoutlets" : 2,
					"outlettype" : [ "bang", "" ],
					"patching_rect" : [ 749.320533296374833, 801.0, 34.0, 22.0 ],
					"text" : "sel 9"
				}

			}
, 			{
				"box" : 				{
					"bgcolor" : [ 0.823529411764706, 0.894117647058824, 1.0, 1.0 ],
					"fontname" : "Ableton Sans Light",
					"id" : "obj-37",
					"linecount" : 3,
					"maxclass" : "comment",
					"numinlets" : 0,
					"numoutlets" : 0,
					"patching_rect" : [ 819.320533296374833, 649.0, 200.0, 50.0 ],
					"suppressinlet" : 1,
					"text" : "metronome set to whole note. active for 8 bars once tuba starts playing after looper send opens"
				}

			}
, 			{
				"box" : 				{
					"id" : "obj-22",
					"maxclass" : "newobj",
					"numinlets" : 2,
					"numoutlets" : 1,
					"outlettype" : [ "bang" ],
					"patching_rect" : [ 801.320533296374833, 707.0, 96.0, 22.0 ],
					"text" : "metro @active 0"
				}

			}
, 			{
				"box" : 				{
					"id" : "obj-14",
					"maxclass" : "newobj",
					"numinlets" : 5,
					"numoutlets" : 4,
					"outlettype" : [ "int", "", "", "int" ],
					"patching_rect" : [ 749.320533296374833, 760.0, 69.0, 22.0 ],
					"text" : "counter 1 9"
				}

			}
, 			{
				"box" : 				{
					"comment" : "",
					"id" : "obj-103",
					"index" : 0,
					"maxclass" : "outlet",
					"numinlets" : 1,
					"numoutlets" : 0,
					"patching_rect" : [ 1400.0, 1245.5, 30.0, 30.0 ]
				}

			}
, 			{
				"box" : 				{
					"comment" : "",
					"id" : "obj-101",
					"index" : 0,
					"maxclass" : "outlet",
					"numinlets" : 1,
					"numoutlets" : 0,
					"patching_rect" : [ 1291.0, 1245.5, 30.0, 30.0 ]
				}

			}
, 			{
				"box" : 				{
					"id" : "obj-100",
					"maxclass" : "newobj",
					"numinlets" : 6,
					"numoutlets" : 1,
					"outlettype" : [ "" ],
					"patching_rect" : [ 1617.50031956775365, 719.0, 87.0, 22.0 ],
					"text" : "scale 0 1 0 0.5"
				}

			}
, 			{
				"box" : 				{
					"id" : "obj-99",
					"maxclass" : "newobj",
					"numinlets" : 6,
					"numoutlets" : 1,
					"outlettype" : [ "" ],
					"patching_rect" : [ 1408.50031956775365, 719.0, 97.0, 22.0 ],
					"text" : "scale 0. 1. 0.5 1."
				}

			}
, 			{
				"box" : 				{
					"fontsize" : 12.0,
					"id" : "obj-98",
					"maxclass" : "newobj",
					"numinlets" : 1,
					"numoutlets" : 1,
					"outlettype" : [ "signal" ],
					"patching_rect" : [ 501.866671085357666, 1440.80984327617216, 29.0, 22.0 ],
					"text" : "thru"
				}

			}
, 			{
				"box" : 				{
					"fontsize" : 12.0,
					"id" : "obj-97",
					"maxclass" : "newobj",
					"numinlets" : 1,
					"numoutlets" : 1,
					"outlettype" : [ "signal" ],
					"patching_rect" : [ 366.166670560836792, 1440.80984327617216, 29.0, 22.0 ],
					"text" : "thru"
				}

			}
, 			{
				"box" : 				{
					"id" : "obj-163",
					"maxclass" : "newobj",
					"numinlets" : 1,
					"numoutlets" : 1,
					"outlettype" : [ "bang" ],
					"patching_rect" : [ 1167.000319567753195, 803.652155268355273, 58.0, 22.0 ],
					"text" : "loadbang"
				}

			}
, 			{
				"box" : 				{
					"id" : "obj-67",
					"maxclass" : "message",
					"numinlets" : 2,
					"numoutlets" : 1,
					"outlettype" : [ "" ],
					"patching_rect" : [ 1636.0, 240.0, 29.5, 22.0 ],
					"text" : "140"
				}

			}
, 			{
				"box" : 				{
					"bgcolor" : [ 0.823529411764706, 0.894117647058824, 1.0, 1.0 ],
					"fontname" : "Ableton Sans Light",
					"id" : "obj-63",
					"linecount" : 2,
					"maxclass" : "comment",
					"numinlets" : 0,
					"numoutlets" : 0,
					"patching_rect" : [ 883.110491465635278, 27.5, 208.265913304508786, 35.0 ],
					"suppressinlet" : 1,
					"text" : "first click - start recording\n second click - fade out and clear loop"
				}

			}
, 			{
				"box" : 				{
					"id" : "obj-143",
					"maxclass" : "newobj",
					"numinlets" : 1,
					"numoutlets" : 1,
					"outlettype" : [ "" ],
					"patching_rect" : [ 279.0, 684.288944919837377, 70.0, 22.0 ],
					"text" : "loadmess 0"
				}

			}
, 			{
				"box" : 				{
					"id" : "obj-142",
					"maxclass" : "newobj",
					"numinlets" : 1,
					"numoutlets" : 1,
					"outlettype" : [ "" ],
					"patching_rect" : [ 279.000319567753195, 750.924217147188529, 83.0, 22.0 ],
					"text" : "loadmess 100"
				}

			}
, 			{
				"box" : 				{
					"attr" : "volume",
					"hint" : "Adjusts the output volume of the processed signals",
					"id" : "obj-102",
					"lock" : 1,
					"maxclass" : "attrui",
					"menu_display" : 2,
					"numinlets" : 1,
					"numoutlets" : 1,
					"outlettype" : [ "" ],
					"parameter_enable" : 0,
					"patching_rect" : [ 279.000319567753195, 717.606581033513066, 110.0, 22.0 ],
					"text_width" : 64.0
				}

			}
, 			{
				"box" : 				{
					"attr" : "mix",
					"hint" : "Sets the level balance between the original and processed signals",
					"id" : "obj-106",
					"lock" : 1,
					"maxclass" : "attrui",
					"menu_display" : 2,
					"numinlets" : 1,
					"numoutlets" : 1,
					"outlettype" : [ "" ],
					"parameter_enable" : 0,
					"patching_rect" : [ 279.000319567753195, 784.241853260863991, 110.0, 22.0 ],
					"text_width" : 64.0
				}

			}
, 			{
				"box" : 				{
					"attr" : "regen",
					"attr_display" : 1,
					"hint" : "Sets the amount of delayed signals fed back to the delay lines ",
					"id" : "obj-16",
					"lock" : 1,
					"maxclass" : "attrui",
					"numinlets" : 1,
					"numoutlets" : 1,
					"outlettype" : [ "" ],
					"parameter_enable" : 0,
					"patching_rect" : [ 222.131327819747639, 611.241853260863991, 110.0, 22.0 ],
					"text_width" : 64.0
				}

			}
, 			{
				"box" : 				{
					"autosave" : 0,
					"color" : [ 0.999996185302734, 0.99993908405304, 0.041033305227757, 1.0 ],
					"fontface" : 1,
					"fontsize" : 14.0,
					"hint" : "To make a preset, unlock the patcher and highlight the rnbo~ object, then click on the snapshot sidebar icon. From here, click on the + icon or the New... button to add a new snapshot and the play button to recall it. Just like standard Max snapshots , you can embed them in the patcher and rename them as you see fit.",
					"id" : "obj-113",
					"inletInfo" : 					{
						"IOInfo" : [ 							{
								"type" : "signal",
								"index" : 1,
								"tag" : "in1",
								"comment" : ""
							}
, 							{
								"type" : "signal",
								"index" : 2,
								"tag" : "in2",
								"comment" : ""
							}
, 							{
								"type" : "midi",
								"index" : -1,
								"tag" : "",
								"comment" : ""
							}
 ]
					}
,
					"linecount" : 2,
					"maxclass" : "newobj",
					"numinlets" : 3,
					"numoutlets" : 3,
					"outletInfo" : 					{
						"IOInfo" : [ 							{
								"type" : "signal",
								"index" : 1,
								"tag" : "out1",
								"comment" : ""
							}
, 							{
								"type" : "signal",
								"index" : 2,
								"tag" : "out2",
								"comment" : ""
							}
 ]
					}
,
					"outlettype" : [ "signal", "signal", "list" ],
					"patching_rect" : [ 99.131327819747639, 860.97608175710161, 224.0, 40.0 ],
					"rnboattrcache" : 					{
						"volume" : 						{
							"label" : "volume",
							"isEnum" : 0,
							"parsestring" : ""
						}
,
						"regen" : 						{
							"label" : "regen",
							"isEnum" : 0,
							"parsestring" : ""
						}
,
						"mix" : 						{
							"label" : "mix",
							"isEnum" : 0,
							"parsestring" : ""
						}
,
						"input" : 						{
							"label" : "input",
							"isEnum" : 1,
							"parsestring" : "\"0\" \"1\""
						}
,
						"fb" : 						{
							"label" : "fb",
							"isEnum" : 1,
							"parsestring" : "\"0\" \"1\""
						}

					}
,
					"rnboversion" : "1.3.0-dev.7",
					"saved_object_attributes" : 					{
						"autosave" : 0,
						"optimization" : "O1",
						"parameter_enable" : 0,
						"uuid" : "74a09b97-f360-11ea-9b97-34363bd3ed8c"
					}
,
					"text" : "rnbo~ FilterDelay @autosave 0 @parameter_enable 0 @active 1",
					"varname" : "rnbo~"
				}

			}
, 			{
				"box" : 				{
					"hint" : "Looper Volume",
					"id" : "obj-7",
					"lastchannelcount" : 0,
					"maxclass" : "live.gain~",
					"numinlets" : 2,
					"numoutlets" : 5,
					"orientation" : 1,
					"outlettype" : [ "signal", "signal", "", "float", "list" ],
					"parameter_enable" : 1,
					"parameter_mappable" : 0,
					"patching_rect" : [ 428.586277177544844, 1258.466643333435059, 136.0, 47.0 ],
					"presentation" : 1,
					"presentation_rect" : [ 8.0, 57.0, 137.0, 47.0 ],
					"saved_attribute_attributes" : 					{
						"textcolor" : 						{
							"expression" : ""
						}
,
						"valueof" : 						{
							"parameter_longname" : "Loop Volume[1]",
							"parameter_mmax" : 6.0,
							"parameter_mmin" : -70.0,
							"parameter_shortname" : "volume",
							"parameter_type" : 0,
							"parameter_unitstyle" : 4
						}

					}
,
					"textcolor" : [ 1.0, 1.0, 1.0, 1.0 ],
					"varname" : "live.gain~"
				}

			}
, 			{
				"box" : 				{
					"id" : "obj-74",
					"maxclass" : "newobj",
					"numinlets" : 2,
					"numoutlets" : 1,
					"outlettype" : [ "int" ],
					"patching_rect" : [ 1348.000319567753195, 296.988769250000587, 29.5, 22.0 ],
					"text" : "+ 1"
				}

			}
, 			{
				"box" : 				{
					"id" : "obj-70",
					"maxclass" : "newobj",
					"numinlets" : 2,
					"numoutlets" : 3,
					"outlettype" : [ "", "", "" ],
					"patching_rect" : [ 1348.000319567753195, 351.500000000000455, 42.0, 22.0 ],
					"text" : "gate 3"
				}

			}
, 			{
				"box" : 				{
					"id" : "obj-62",
					"maxclass" : "newobj",
					"numinlets" : 1,
					"numoutlets" : 5,
					"outlettype" : [ "bang", "bang", "bang", "bang", "bang" ],
					"patching_rect" : [ 1223.949700526725792, 221.491487017985946, 61.0, 22.0 ],
					"text" : "b 5"
				}

			}
, 			{
				"box" : 				{
					"bubble" : 1,
					"id" : "obj-59",
					"linecount" : 3,
					"maxclass" : "comment",
					"numinlets" : 1,
					"numoutlets" : 0,
					"patching_rect" : [ 1556.000319567753195, 333.491487017985946, 66.0, 51.0 ],
					"text" : "ms per 8-bar loop"
				}

			}
, 			{
				"box" : 				{
					"bgcolor" : [ 0.823529411764706, 0.894117647058824, 1.0, 1.0 ],
					"id" : "obj-51",
					"maxclass" : "comment",
					"numinlets" : 1,
					"numoutlets" : 0,
					"patching_rect" : [ 1635.50031956775365, 509.5, 55.0, 20.0 ],
					"text" : "unmute"
				}

			}
, 			{
				"box" : 				{
					"bgcolor" : [ 0.823529411764706, 0.894117647058824, 1.0, 1.0 ],
					"id" : "obj-52",
					"maxclass" : "comment",
					"numinlets" : 1,
					"numoutlets" : 0,
					"patching_rect" : [ 1635.50031956775365, 413.809846017985819, 55.0, 20.0 ],
					"text" : "fade in"
				}

			}
, 			{
				"box" : 				{
					"bgcolor" : [ 0.823529411764706, 0.894117647058824, 1.0, 1.0 ],
					"id" : "obj-53",
					"maxclass" : "comment",
					"numinlets" : 1,
					"numoutlets" : 0,
					"patching_rect" : [ 1635.50031956775365, 459.809846017985819, 55.0, 20.0 ],
					"text" : "fade out"
				}

			}
, 			{
				"box" : 				{
					"id" : "obj-54",
					"maxclass" : "message",
					"numinlets" : 2,
					"numoutlets" : 1,
					"outlettype" : [ "" ],
					"patching_rect" : [ 1693.390147669871567, 508.5, 32.0, 22.0 ],
					"text" : "1 12"
				}

			}
, 			{
				"box" : 				{
					"id" : "obj-55",
					"maxclass" : "newobj",
					"numinlets" : 2,
					"numoutlets" : 1,
					"outlettype" : [ "" ],
					"patching_rect" : [ 1800.390147669871567, 477.073974375000034, 56.5, 22.0 ],
					"text" : "pack"
				}

			}
, 			{
				"box" : 				{
					"id" : "obj-56",
					"maxclass" : "message",
					"numinlets" : 2,
					"numoutlets" : 1,
					"outlettype" : [ "" ],
					"patching_rect" : [ 1693.390147669871567, 413.809846017985819, 29.5, 22.0 ],
					"text" : "1"
				}

			}
, 			{
				"box" : 				{
					"id" : "obj-57",
					"maxclass" : "message",
					"numinlets" : 2,
					"numoutlets" : 1,
					"outlettype" : [ "" ],
					"patching_rect" : [ 1693.390147669871567, 459.809846017985819, 29.5, 22.0 ],
					"text" : "0"
				}

			}
, 			{
				"box" : 				{
					"id" : "obj-58",
					"maxclass" : "newobj",
					"numinlets" : 3,
					"numoutlets" : 2,
					"outlettype" : [ "", "bang" ],
					"patching_rect" : [ 1800.390147669871567, 514.159179499999937, 41.0, 22.0 ],
					"text" : "line 1."
				}

			}
, 			{
				"box" : 				{
					"bgcolor" : [ 0.823529411764706, 0.894117647058824, 1.0, 1.0 ],
					"id" : "obj-41",
					"maxclass" : "comment",
					"numinlets" : 1,
					"numoutlets" : 0,
					"patching_rect" : [ 1386.110491465635278, 533.0, 55.0, 20.0 ],
					"text" : "unmute"
				}

			}
, 			{
				"box" : 				{
					"bgcolor" : [ 0.823529411764706, 0.894117647058824, 1.0, 1.0 ],
					"id" : "obj-42",
					"maxclass" : "comment",
					"numinlets" : 1,
					"numoutlets" : 0,
					"patching_rect" : [ 1386.110491465635278, 447.809846017985819, 55.0, 20.0 ],
					"text" : "fade in"
				}

			}
, 			{
				"box" : 				{
					"bgcolor" : [ 0.823529411764706, 0.894117647058824, 1.0, 1.0 ],
					"id" : "obj-43",
					"maxclass" : "comment",
					"numinlets" : 1,
					"numoutlets" : 0,
					"patching_rect" : [ 1386.110491465635278, 488.809846017985819, 55.0, 20.0 ],
					"text" : "fade out"
				}

			}
, 			{
				"box" : 				{
					"id" : "obj-44",
					"maxclass" : "message",
					"numinlets" : 2,
					"numoutlets" : 1,
					"outlettype" : [ "" ],
					"patching_rect" : [ 1444.000319567753195, 532.0, 32.0, 22.0 ],
					"text" : "0 12"
				}

			}
, 			{
				"box" : 				{
					"id" : "obj-45",
					"maxclass" : "newobj",
					"numinlets" : 2,
					"numoutlets" : 1,
					"outlettype" : [ "" ],
					"patching_rect" : [ 1551.000319567753195, 500.573974375000034, 56.5, 22.0 ],
					"text" : "pack"
				}

			}
, 			{
				"box" : 				{
					"id" : "obj-46",
					"maxclass" : "message",
					"numinlets" : 2,
					"numoutlets" : 1,
					"outlettype" : [ "" ],
					"patching_rect" : [ 1444.000319567753195, 488.809846017985819, 29.5, 22.0 ],
					"text" : "1"
				}

			}
, 			{
				"box" : 				{
					"id" : "obj-47",
					"maxclass" : "message",
					"numinlets" : 2,
					"numoutlets" : 1,
					"outlettype" : [ "" ],
					"patching_rect" : [ 1444.000319567753195, 445.809846017985819, 29.5, 22.0 ],
					"text" : "0"
				}

			}
, 			{
				"box" : 				{
					"id" : "obj-48",
					"maxclass" : "newobj",
					"numinlets" : 3,
					"numoutlets" : 2,
					"outlettype" : [ "", "bang" ],
					"patching_rect" : [ 1551.000319567753195, 537.659179499999937, 41.0, 22.0 ],
					"text" : "line 0."
				}

			}
, 			{
				"box" : 				{
					"bgcolor" : [ 0.823529411764706, 0.894117647058824, 1.0, 1.0 ],
					"id" : "obj-33",
					"maxclass" : "comment",
					"numinlets" : 1,
					"numoutlets" : 0,
					"patching_rect" : [ 1127.110491465635278, 542.0, 55.0, 20.0 ],
					"text" : "unmute"
				}

			}
, 			{
				"box" : 				{
					"bgcolor" : [ 0.823529411764706, 0.894117647058824, 1.0, 1.0 ],
					"id" : "obj-32",
					"maxclass" : "comment",
					"numinlets" : 1,
					"numoutlets" : 0,
					"patching_rect" : [ 1127.110491465635278, 494.309846017985819, 55.0, 20.0 ],
					"text" : "fade out"
				}

			}
, 			{
				"box" : 				{
					"bgcolor" : [ 0.823529411764706, 0.894117647058824, 1.0, 1.0 ],
					"id" : "obj-31",
					"maxclass" : "comment",
					"numinlets" : 1,
					"numoutlets" : 0,
					"patching_rect" : [ 1135.110491465635278, 443.809846017985819, 47.0, 20.0 ],
					"text" : "fade in"
				}

			}
, 			{
				"box" : 				{
					"id" : "obj-25",
					"maxclass" : "message",
					"numinlets" : 2,
					"numoutlets" : 1,
					"outlettype" : [ "" ],
					"patching_rect" : [ 1185.000319567753195, 541.0, 45.0, 22.0 ],
					"text" : "0, 1 12"
				}

			}
, 			{
				"box" : 				{
					"id" : "obj-1075",
					"maxclass" : "newobj",
					"numinlets" : 2,
					"numoutlets" : 1,
					"outlettype" : [ "float" ],
					"patching_rect" : [ 1524.500319567753195, 347.991487017985946, 29.5, 22.0 ],
					"text" : "* 8."
				}

			}
, 			{
				"box" : 				{
					"id" : "obj-1074",
					"maxclass" : "newobj",
					"numinlets" : 2,
					"numoutlets" : 1,
					"outlettype" : [ "" ],
					"patching_rect" : [ 1316.000319567753195, 527.5, 56.5, 22.0 ],
					"text" : "pack"
				}

			}
, 			{
				"box" : 				{
					"id" : "obj-1067",
					"maxclass" : "message",
					"numinlets" : 2,
					"numoutlets" : 1,
					"outlettype" : [ "" ],
					"patching_rect" : [ 1185.000319567753195, 446.309846017985819, 29.5, 22.0 ],
					"text" : "1"
				}

			}
, 			{
				"box" : 				{
					"id" : "obj-1063",
					"maxclass" : "message",
					"numinlets" : 2,
					"numoutlets" : 1,
					"outlettype" : [ "" ],
					"patching_rect" : [ 1185.000319567753195, 492.309846017985819, 29.5, 22.0 ],
					"text" : "0"
				}

			}
, 			{
				"box" : 				{
					"id" : "obj-1059",
					"maxclass" : "newobj",
					"numinlets" : 3,
					"numoutlets" : 2,
					"outlettype" : [ "", "bang" ],
					"patching_rect" : [ 1316.000319567753195, 564.585205124999902, 41.0, 22.0 ],
					"text" : "line 1."
				}

			}
, 			{
				"box" : 				{
					"bubble" : 1,
					"id" : "obj-1058",
					"linecount" : 2,
					"maxclass" : "comment",
					"numinlets" : 1,
					"numoutlets" : 0,
					"patching_rect" : [ 1588.500319567753195, 289.488769250000587, 89.0, 37.0 ],
					"text" : "ms per whole note"
				}

			}
, 			{
				"box" : 				{
					"id" : "obj-1051",
					"maxclass" : "newobj",
					"numinlets" : 2,
					"numoutlets" : 1,
					"outlettype" : [ "float" ],
					"patching_rect" : [ 1524.500319567753195, 296.988769250000587, 62.0, 22.0 ],
					"text" : "!/ 240000."
				}

			}
, 			{
				"box" : 				{
					"color" : [ 1.0, 0.0, 0.32156862745098, 1.0 ],
					"id" : "obj-1050",
					"maxclass" : "newobj",
					"numinlets" : 0,
					"numoutlets" : 1,
					"outlettype" : [ "" ],
					"patching_rect" : [ 1524.500319567753195, 248.497282232015095, 82.0, 22.0 ],
					"text" : "r tempo_BPM"
				}

			}
, 			{
				"box" : 				{
					"id" : "obj-18",
					"maxclass" : "newobj",
					"numinlets" : 1,
					"numoutlets" : 1,
					"outlettype" : [ "" ],
					"patching_rect" : [ 1408.50031956775365, 577.0, 73.0, 22.0 ],
					"text" : "loadmess 0."
				}

			}
, 			{
				"box" : 				{
					"id" : "obj-17",
					"maxclass" : "newobj",
					"numinlets" : 1,
					"numoutlets" : 1,
					"outlettype" : [ "" ],
					"patching_rect" : [ 1617.50031956775365, 577.0, 73.0, 22.0 ],
					"text" : "loadmess 1."
				}

			}
, 			{
				"box" : 				{
					"bubble" : 1,
					"bubbleside" : 3,
					"id" : "obj-10",
					"linecount" : 2,
					"maxclass" : "comment",
					"numinlets" : 1,
					"numoutlets" : 0,
					"patching_rect" : [ 81.050938608780143, 451.309846017985819, 62.0, 37.0 ],
					"text" : "audio input"
				}

			}
, 			{
				"box" : 				{
					"comment" : "one-button looper :)",
					"id" : "obj-1",
					"index" : 0,
					"maxclass" : "inlet",
					"numinlets" : 0,
					"numoutlets" : 1,
					"outlettype" : [ "" ],
					"patching_rect" : [ 848.170363890243152, 30.0, 30.0, 30.0 ]
				}

			}
, 			{
				"box" : 				{
					"id" : "obj-1020",
					"maxclass" : "newobj",
					"numinlets" : 1,
					"numoutlets" : 1,
					"outlettype" : [ "bang" ],
					"patching_rect" : [ 392.050938608780598, 221.491487017985946, 22.0, 22.0 ],
					"text" : "t b"
				}

			}
, 			{
				"box" : 				{
					"id" : "obj-1014",
					"maxclass" : "newobj",
					"numinlets" : 1,
					"numoutlets" : 1,
					"outlettype" : [ "bang" ],
					"patching_rect" : [ 663.871152337402236, 240.518697674100167, 22.0, 22.0 ],
					"text" : "t b"
				}

			}
, 			{
				"box" : 				{
					"id" : "obj-1007",
					"maxclass" : "newobj",
					"numinlets" : 1,
					"numoutlets" : 8,
					"outlettype" : [ "bang", "bang", "bang", "bang", "bang", "bang", "bang", "bang" ],
					"patching_rect" : [ 815.110491465635278, 233.491487017985946, 92.5, 22.0 ],
					"text" : "b 8"
				}

			}
, 			{
				"box" : 				{
					"id" : "obj-990",
					"maxclass" : "message",
					"numinlets" : 2,
					"numoutlets" : 1,
					"outlettype" : [ "" ],
					"patching_rect" : [ 663.871152337402236, 304.512902460071018, 52.0, 22.0 ],
					"text" : "1, 0 300"
				}

			}
, 			{
				"box" : 				{
					"id" : "obj-991",
					"maxclass" : "message",
					"numinlets" : 2,
					"numoutlets" : 1,
					"outlettype" : [ "" ],
					"patching_rect" : [ 590.110491465635278, 304.512902460071018, 45.0, 22.0 ],
					"text" : "0, 1 20"
				}

			}
, 			{
				"box" : 				{
					"id" : "obj-992",
					"maxclass" : "newobj",
					"numinlets" : 2,
					"numoutlets" : 2,
					"outlettype" : [ "signal", "bang" ],
					"patching_rect" : [ 627.0, 342.0, 64.0, 22.0 ],
					"text" : "line~ 0 0.1"
				}

			}
, 			{
				"box" : 				{
					"id" : "obj-987",
					"maxclass" : "message",
					"numinlets" : 2,
					"numoutlets" : 1,
					"outlettype" : [ "" ],
					"patching_rect" : [ 392.050938608780598, 293.518697674100167, 39.0, 22.0 ],
					"text" : "0 500"
				}

			}
, 			{
				"box" : 				{
					"id" : "obj-985",
					"maxclass" : "message",
					"numinlets" : 2,
					"numoutlets" : 1,
					"outlettype" : [ "" ],
					"patching_rect" : [ 325.131327819747639, 294.988769250000587, 39.0, 22.0 ],
					"text" : "100 5"
				}

			}
, 			{
				"box" : 				{
					"id" : "obj-973",
					"maxclass" : "newobj",
					"numinlets" : 3,
					"numoutlets" : 2,
					"outlettype" : [ "", "bang" ],
					"patching_rect" : [ 325.131327819747639, 353.491487017985946, 40.0, 22.0 ],
					"text" : "line"
				}

			}
, 			{
				"box" : 				{
					"id" : "obj-955",
					"maxclass" : "newobj",
					"numinlets" : 2,
					"numoutlets" : 1,
					"outlettype" : [ "signal" ],
					"patching_rect" : [ 177.161110506662681, 518.233340278849937, 29.5, 22.0 ],
					"text" : "*~"
				}

			}
, 			{
				"box" : 				{
					"id" : "obj-947",
					"maxclass" : "newobj",
					"numinlets" : 2,
					"numoutlets" : 1,
					"outlettype" : [ "signal" ],
					"patching_rect" : [ 144.930705194256916, 518.233340278849937, 29.5, 22.0 ],
					"text" : "*~"
				}

			}
, 			{
				"box" : 				{
					"id" : "obj-901",
					"ignoreclick" : 1,
					"maxclass" : "live.dial",
					"numinlets" : 1,
					"numoutlets" : 2,
					"outlettype" : [ "", "float" ],
					"parameter_enable" : 1,
					"patching_rect" : [ 1408.50031956775365, 642.781730178020553, 51.059552856854452, 48.0 ],
					"saved_attribute_attributes" : 					{
						"valueof" : 						{
							"parameter_longname" : "master_highpass[1]",
							"parameter_mmax" : 1.0,
							"parameter_shortname" : "highpass",
							"parameter_type" : 0,
							"parameter_unitstyle" : 1
						}

					}
,
					"varname" : "live.dial"
				}

			}
, 			{
				"box" : 				{
					"id" : "obj-895",
					"ignoreclick" : 1,
					"maxclass" : "live.dial",
					"numinlets" : 1,
					"numoutlets" : 2,
					"outlettype" : [ "", "float" ],
					"parameter_enable" : 1,
					"patching_rect" : [ 1617.50031956775365, 641.781730178020553, 51.059552856854452, 48.0 ],
					"saved_attribute_attributes" : 					{
						"valueof" : 						{
							"parameter_longname" : "master_lowpass[1]",
							"parameter_mmax" : 1.0,
							"parameter_shortname" : "lowpass",
							"parameter_type" : 0,
							"parameter_unitstyle" : 1
						}

					}
,
					"varname" : "live.dial[1]"
				}

			}
, 			{
				"box" : 				{
					"id" : "obj-813",
					"ignoreclick" : 1,
					"maxclass" : "live.dial",
					"numinlets" : 1,
					"numoutlets" : 2,
					"outlettype" : [ "", "float" ],
					"parameter_enable" : 1,
					"patching_rect" : [ 222.131327819747639, 554.315827635864025, 51.059552856854452, 48.0 ],
					"saved_attribute_attributes" : 					{
						"valueof" : 						{
							"parameter_longname" : "feedback[1]",
							"parameter_mmax" : 100.0,
							"parameter_shortname" : "feedback",
							"parameter_type" : 0,
							"parameter_unitstyle" : 5
						}

					}
,
					"varname" : "live.dial[2]"
				}

			}
, 			{
				"box" : 				{
					"bubble" : 1,
					"bubbleside" : 3,
					"id" : "obj-1021",
					"linecount" : 2,
					"maxclass" : "comment",
					"numinlets" : 1,
					"numoutlets" : 0,
					"patching_rect" : [ 96.050938608780143, 510.733340278849482, 62.0, 37.0 ],
					"text" : "looper send"
				}

			}
, 			{
				"box" : 				{
					"comment" : "Left audio input",
					"id" : "obj-1036",
					"index" : 0,
					"maxclass" : "inlet",
					"numinlets" : 0,
					"numoutlets" : 1,
					"outlettype" : [ "" ],
					"patching_rect" : [ 145.050938608780143, 454.809846017985819, 30.0, 30.0 ]
				}

			}
, 			{
				"box" : 				{
					"comment" : "Right audio input",
					"id" : "obj-1037",
					"index" : 0,
					"maxclass" : "inlet",
					"numinlets" : 0,
					"numoutlets" : 1,
					"outlettype" : [ "" ],
					"patching_rect" : [ 177.281407608780228, 454.809846017985819, 30.0, 30.0 ]
				}

			}
, 			{
				"box" : 				{
					"angle" : 92.827124578161261,
					"bgcolor" : [ 0.0, 0.0, 0.0, 0.23 ],
					"id" : "obj-23",
					"maxclass" : "panel",
					"mode" : 0,
					"numinlets" : 1,
					"numoutlets" : 0,
					"patching_rect" : [ 121.0, 5.0, 126.0, 350.0 ],
					"proportion" : 0.5,
					"rounded" : 0
				}

			}
, 			{
				"box" : 				{
					"background" : 1,
					"fontface" : 0,
					"fontsize" : 10.0,
					"id" : "obj-116",
					"maxclass" : "comment",
					"numinlets" : 1,
					"numoutlets" : 0,
					"patching_rect" : [ 259.000319567753195, 786.241853260863991, 20.0, 18.0 ],
					"text" : "10",
					"textjustification" : 1
				}

			}
, 			{
				"box" : 				{
					"background" : 1,
					"fontface" : 0,
					"fontsize" : 10.0,
					"id" : "obj-117",
					"maxclass" : "comment",
					"numinlets" : 1,
					"numoutlets" : 0,
					"patching_rect" : [ 259.000319567753195, 719.606581033513066, 18.0, 18.0 ],
					"text" : "9",
					"textjustification" : 1
				}

			}
, 			{
				"box" : 				{
					"background" : 1,
					"fontface" : 0,
					"fontsize" : 10.0,
					"id" : "obj-121",
					"maxclass" : "comment",
					"numinlets" : 1,
					"numoutlets" : 0,
					"patching_rect" : [ 202.131327819747639, 613.741853260863991, 18.0, 18.0 ],
					"text" : "5",
					"textjustification" : 1
				}

			}
, 			{
				"box" : 				{
					"background" : 1,
					"fontface" : 0,
					"fontsize" : 10.0,
					"id" : "obj-27",
					"maxclass" : "comment",
					"numinlets" : 1,
					"numoutlets" : 0,
					"patching_rect" : [ 332.131327819747639, 613.741853260863991, 18.0, 18.0 ],
					"text" : "%",
					"textjustification" : 1
				}

			}
 ],
		"lines" : [ 			{
				"patchline" : 				{
					"destination" : [ "obj-111", 1 ],
					"source" : [ "obj-1", 0 ]
				}

			}
, 			{
				"patchline" : 				{
					"destination" : [ "obj-138", 2 ],
					"source" : [ "obj-100", 0 ]
				}

			}
, 			{
				"patchline" : 				{
					"destination" : [ "obj-25", 0 ],
					"midpoints" : [ 866.610491465635278, 289.0, 1113.0, 289.0, 1113.0, 528.0, 1194.500319567753195, 528.0 ],
					"source" : [ "obj-1007", 4 ]
				}

			}
, 			{
				"patchline" : 				{
					"destination" : [ "obj-26", 0 ],
					"source" : [ "obj-1007", 7 ]
				}

			}
, 			{
				"patchline" : 				{
					"destination" : [ "obj-44", 0 ],
					"midpoints" : [ 877.110491465635278, 284.0, 1335.0, 284.0, 1335.0, 513.0, 1383.0, 513.0, 1383.0, 519.0, 1453.500319567753195, 519.0 ],
					"source" : [ "obj-1007", 5 ]
				}

			}
, 			{
				"patchline" : 				{
					"destination" : [ "obj-5", 1 ],
					"source" : [ "obj-1007", 3 ]
				}

			}
, 			{
				"patchline" : 				{
					"destination" : [ "obj-54", 0 ],
					"midpoints" : [ 887.610491465635278, 279.0, 1335.0, 279.0, 1335.0, 432.0, 1620.0, 432.0, 1620.0, 495.0, 1702.890147669871567, 495.0 ],
					"source" : [ "obj-1007", 6 ]
				}

			}
, 			{
				"patchline" : 				{
					"destination" : [ "obj-9", 0 ],
					"source" : [ "obj-1007", 0 ]
				}

			}
, 			{
				"patchline" : 				{
					"destination" : [ "obj-985", 0 ],
					"source" : [ "obj-1007", 1 ]
				}

			}
, 			{
				"patchline" : 				{
					"color" : [ 0.606694579124451, 0.0, 0.0, 1.0 ],
					"destination" : [ "obj-991", 0 ],
					"source" : [ "obj-1007", 2 ]
				}

			}
, 			{
				"patchline" : 				{
					"destination" : [ "obj-12", 0 ],
					"order" : 1,
					"source" : [ "obj-1014", 0 ]
				}

			}
, 			{
				"patchline" : 				{
					"color" : [ 0.606694579124451, 0.0, 0.0, 1.0 ],
					"destination" : [ "obj-120", 0 ],
					"order" : 3,
					"source" : [ "obj-1014", 0 ]
				}

			}
, 			{
				"patchline" : 				{
					"destination" : [ "obj-153", 0 ],
					"order" : 2,
					"source" : [ "obj-1014", 0 ]
				}

			}
, 			{
				"patchline" : 				{
					"destination" : [ "obj-24", 0 ],
					"order" : 0,
					"source" : [ "obj-1014", 0 ]
				}

			}
, 			{
				"patchline" : 				{
					"color" : [ 0.606694579124451, 0.0, 0.0, 1.0 ],
					"destination" : [ "obj-990", 0 ],
					"order" : 4,
					"source" : [ "obj-1014", 0 ]
				}

			}
, 			{
				"patchline" : 				{
					"destination" : [ "obj-113", 0 ],
					"source" : [ "obj-102", 0 ]
				}

			}
, 			{
				"patchline" : 				{
					"destination" : [ "obj-987", 0 ],
					"source" : [ "obj-1020", 0 ]
				}

			}
, 			{
				"patchline" : 				{
					"destination" : [ "obj-947", 0 ],
					"source" : [ "obj-1036", 0 ]
				}

			}
, 			{
				"patchline" : 				{
					"destination" : [ "obj-955", 0 ],
					"source" : [ "obj-1037", 0 ]
				}

			}
, 			{
				"patchline" : 				{
					"destination" : [ "obj-947", 1 ],
					"order" : 1,
					"source" : [ "obj-104", 0 ]
				}

			}
, 			{
				"patchline" : 				{
					"destination" : [ "obj-955", 1 ],
					"order" : 0,
					"source" : [ "obj-104", 0 ]
				}

			}
, 			{
				"patchline" : 				{
					"destination" : [ "obj-1051", 0 ],
					"source" : [ "obj-1050", 0 ]
				}

			}
, 			{
				"patchline" : 				{
					"destination" : [ "obj-1075", 0 ],
					"order" : 0,
					"source" : [ "obj-1051", 0 ]
				}

			}
, 			{
				"patchline" : 				{
					"color" : [ 0.606694579124451, 0.0, 0.0, 1.0 ],
					"destination" : [ "obj-22", 1 ],
					"order" : 1,
					"source" : [ "obj-1051", 0 ]
				}

			}
, 			{
				"patchline" : 				{
					"destination" : [ "obj-20", 0 ],
					"source" : [ "obj-1059", 1 ]
				}

			}
, 			{
				"patchline" : 				{
					"destination" : [ "obj-113", 0 ],
					"source" : [ "obj-106", 0 ]
				}

			}
, 			{
				"patchline" : 				{
					"destination" : [ "obj-1074", 0 ],
					"source" : [ "obj-1063", 0 ]
				}

			}
, 			{
				"patchline" : 				{
					"destination" : [ "obj-1074", 0 ],
					"source" : [ "obj-1067", 0 ]
				}

			}
, 			{
				"patchline" : 				{
					"destination" : [ "obj-114", 0 ],
					"source" : [ "obj-107", 0 ]
				}

			}
, 			{
				"patchline" : 				{
					"destination" : [ "obj-1059", 0 ],
					"source" : [ "obj-1074", 0 ]
				}

			}
, 			{
				"patchline" : 				{
					"destination" : [ "obj-1074", 1 ],
					"order" : 2,
					"source" : [ "obj-1075", 0 ]
				}

			}
, 			{
				"patchline" : 				{
					"destination" : [ "obj-45", 1 ],
					"order" : 1,
					"source" : [ "obj-1075", 0 ]
				}

			}
, 			{
				"patchline" : 				{
					"destination" : [ "obj-55", 1 ],
					"order" : 0,
					"source" : [ "obj-1075", 0 ]
				}

			}
, 			{
				"patchline" : 				{
					"destination" : [ "obj-112", 0 ],
					"order" : 1,
					"source" : [ "obj-109", 0 ]
				}

			}
, 			{
				"patchline" : 				{
					"destination" : [ "obj-114", 1 ],
					"order" : 0,
					"source" : [ "obj-109", 0 ]
				}

			}
, 			{
				"patchline" : 				{
					"destination" : [ "obj-123", 1 ],
					"source" : [ "obj-11", 1 ]
				}

			}
, 			{
				"patchline" : 				{
					"destination" : [ "obj-75", 0 ],
					"source" : [ "obj-11", 0 ]
				}

			}
, 			{
				"patchline" : 				{
					"destination" : [ "obj-1007", 0 ],
					"source" : [ "obj-111", 0 ]
				}

			}
, 			{
				"patchline" : 				{
					"destination" : [ "obj-1020", 0 ],
					"order" : 2,
					"source" : [ "obj-111", 1 ]
				}

			}
, 			{
				"patchline" : 				{
					"destination" : [ "obj-38", 1 ],
					"order" : 1,
					"source" : [ "obj-111", 1 ]
				}

			}
, 			{
				"patchline" : 				{
					"destination" : [ "obj-62", 0 ],
					"order" : 0,
					"source" : [ "obj-111", 1 ]
				}

			}
, 			{
				"patchline" : 				{
					"destination" : [ "obj-114", 0 ],
					"source" : [ "obj-112", 0 ]
				}

			}
, 			{
				"patchline" : 				{
					"destination" : [ "obj-4", 1 ],
					"source" : [ "obj-113", 1 ]
				}

			}
, 			{
				"patchline" : 				{
					"destination" : [ "obj-4", 0 ],
					"source" : [ "obj-113", 0 ]
				}

			}
, 			{
				"patchline" : 				{
					"destination" : [ "obj-150", 0 ],
					"source" : [ "obj-114", 0 ]
				}

			}
, 			{
				"patchline" : 				{
					"destination" : [ "obj-11", 1 ],
					"order" : 1,
					"source" : [ "obj-115", 0 ]
				}

			}
, 			{
				"patchline" : 				{
					"color" : [ 0.606694579124451, 0.0, 0.0, 1.0 ],
					"destination" : [ "obj-6", 0 ],
					"order" : 0,
					"source" : [ "obj-115", 0 ]
				}

			}
, 			{
				"patchline" : 				{
					"destination" : [ "obj-8", 0 ],
					"source" : [ "obj-12", 0 ]
				}

			}
, 			{
				"patchline" : 				{
					"destination" : [ "obj-80", 0 ],
					"source" : [ "obj-12", 1 ]
				}

			}
, 			{
				"patchline" : 				{
					"destination" : [ "obj-111", 0 ],
					"source" : [ "obj-120", 0 ]
				}

			}
, 			{
				"patchline" : 				{
					"destination" : [ "obj-152", 0 ],
					"source" : [ "obj-122", 0 ]
				}

			}
, 			{
				"patchline" : 				{
					"destination" : [ "obj-75", 0 ],
					"source" : [ "obj-123", 0 ]
				}

			}
, 			{
				"patchline" : 				{
					"destination" : [ "obj-8", 0 ],
					"source" : [ "obj-13", 0 ]
				}

			}
, 			{
				"patchline" : 				{
					"destination" : [ "obj-82", 0 ],
					"source" : [ "obj-13", 1 ]
				}

			}
, 			{
				"patchline" : 				{
					"destination" : [ "obj-123", 0 ],
					"order" : 1,
					"source" : [ "obj-137", 1 ]
				}

			}
, 			{
				"patchline" : 				{
					"destination" : [ "obj-156", 0 ],
					"order" : 0,
					"source" : [ "obj-137", 1 ]
				}

			}
, 			{
				"patchline" : 				{
					"destination" : [ "obj-162", 0 ],
					"order" : 0,
					"source" : [ "obj-137", 0 ]
				}

			}
, 			{
				"patchline" : 				{
					"color" : [ 0.606694579124451, 0.0, 0.0, 1.0 ],
					"destination" : [ "obj-5", 0 ],
					"midpoints" : [ 567.5, 757.021415442085072, 546.0, 757.021415442085072, 546.0, 533.021415442085072, 572.621152337402236, 533.021415442085072 ],
					"order" : 1,
					"source" : [ "obj-137", 0 ]
				}

			}
, 			{
				"patchline" : 				{
					"destination" : [ "obj-101", 0 ],
					"order" : 0,
					"source" : [ "obj-138", 0 ]
				}

			}
, 			{
				"patchline" : 				{
					"destination" : [ "obj-103", 0 ],
					"order" : 0,
					"source" : [ "obj-138", 1 ]
				}

			}
, 			{
				"patchline" : 				{
					"destination" : [ "obj-3", 0 ],
					"order" : 1,
					"source" : [ "obj-138", 1 ]
				}

			}
, 			{
				"patchline" : 				{
					"destination" : [ "obj-3", 0 ],
					"order" : 1,
					"source" : [ "obj-138", 0 ]
				}

			}
, 			{
				"patchline" : 				{
					"color" : [ 0.606694579124451, 0.0, 0.0, 1.0 ],
					"destination" : [ "obj-115", 0 ],
					"source" : [ "obj-14", 0 ]
				}

			}
, 			{
				"patchline" : 				{
					"destination" : [ "obj-106", 0 ],
					"source" : [ "obj-142", 0 ]
				}

			}
, 			{
				"patchline" : 				{
					"destination" : [ "obj-102", 0 ],
					"source" : [ "obj-143", 0 ]
				}

			}
, 			{
				"patchline" : 				{
					"destination" : [ "obj-38", 0 ],
					"order" : 0,
					"source" : [ "obj-15", 0 ]
				}

			}
, 			{
				"patchline" : 				{
					"destination" : [ "obj-60", 0 ],
					"order" : 1,
					"source" : [ "obj-15", 0 ]
				}

			}
, 			{
				"patchline" : 				{
					"destination" : [ "obj-122", 0 ],
					"source" : [ "obj-150", 0 ]
				}

			}
, 			{
				"patchline" : 				{
					"destination" : [ "obj-138", 2 ],
					"source" : [ "obj-152", 0 ]
				}

			}
, 			{
				"patchline" : 				{
					"destination" : [ "obj-155", 0 ],
					"source" : [ "obj-154", 0 ]
				}

			}
, 			{
				"patchline" : 				{
					"destination" : [ "obj-111", 0 ],
					"source" : [ "obj-155", 0 ]
				}

			}
, 			{
				"patchline" : 				{
					"destination" : [ "obj-11", 0 ],
					"source" : [ "obj-156", 0 ]
				}

			}
, 			{
				"patchline" : 				{
					"destination" : [ "obj-113", 0 ],
					"source" : [ "obj-16", 0 ]
				}

			}
, 			{
				"patchline" : 				{
					"destination" : [ "obj-11", 0 ],
					"source" : [ "obj-162", 0 ]
				}

			}
, 			{
				"patchline" : 				{
					"destination" : [ "obj-152", 0 ],
					"source" : [ "obj-163", 0 ]
				}

			}
, 			{
				"patchline" : 				{
					"destination" : [ "obj-895", 0 ],
					"source" : [ "obj-17", 0 ]
				}

			}
, 			{
				"patchline" : 				{
					"destination" : [ "obj-901", 0 ],
					"source" : [ "obj-18", 0 ]
				}

			}
, 			{
				"patchline" : 				{
					"destination" : [ "obj-8", 0 ],
					"source" : [ "obj-19", 0 ]
				}

			}
, 			{
				"patchline" : 				{
					"destination" : [ "obj-84", 0 ],
					"source" : [ "obj-19", 1 ]
				}

			}
, 			{
				"patchline" : 				{
					"destination" : [ "obj-19", 0 ],
					"order" : 1,
					"source" : [ "obj-20", 0 ]
				}

			}
, 			{
				"patchline" : 				{
					"destination" : [ "obj-40", 0 ],
					"order" : 0,
					"source" : [ "obj-20", 0 ]
				}

			}
, 			{
				"patchline" : 				{
					"destination" : [ "obj-4", 2 ],
					"source" : [ "obj-21", 0 ]
				}

			}
, 			{
				"patchline" : 				{
					"color" : [ 0.606694579124451, 0.0, 0.0, 1.0 ],
					"destination" : [ "obj-14", 0 ],
					"source" : [ "obj-22", 0 ]
				}

			}
, 			{
				"patchline" : 				{
					"destination" : [ "obj-15", 0 ],
					"source" : [ "obj-24", 0 ]
				}

			}
, 			{
				"patchline" : 				{
					"destination" : [ "obj-1059", 0 ],
					"source" : [ "obj-25", 0 ]
				}

			}
, 			{
				"patchline" : 				{
					"destination" : [ "obj-21", 0 ],
					"source" : [ "obj-26", 0 ]
				}

			}
, 			{
				"patchline" : 				{
					"destination" : [ "obj-8", 0 ],
					"source" : [ "obj-28", 0 ]
				}

			}
, 			{
				"patchline" : 				{
					"destination" : [ "obj-87", 0 ],
					"source" : [ "obj-29", 1 ]
				}

			}
, 			{
				"patchline" : 				{
					"destination" : [ "obj-7", 0 ],
					"source" : [ "obj-30", 1 ]
				}

			}
, 			{
				"patchline" : 				{
					"destination" : [ "obj-137", 0 ],
					"source" : [ "obj-35", 0 ]
				}

			}
, 			{
				"patchline" : 				{
					"destination" : [ "obj-21", 0 ],
					"source" : [ "obj-36", 0 ]
				}

			}
, 			{
				"patchline" : 				{
					"destination" : [ "obj-36", 0 ],
					"source" : [ "obj-38", 0 ]
				}

			}
, 			{
				"patchline" : 				{
					"destination" : [ "obj-15", 1 ],
					"source" : [ "obj-39", 0 ]
				}

			}
, 			{
				"patchline" : 				{
					"destination" : [ "obj-7", 1 ],
					"source" : [ "obj-4", 1 ]
				}

			}
, 			{
				"patchline" : 				{
					"destination" : [ "obj-7", 0 ],
					"source" : [ "obj-4", 0 ]
				}

			}
, 			{
				"patchline" : 				{
					"destination" : [ "obj-48", 0 ],
					"source" : [ "obj-44", 0 ]
				}

			}
, 			{
				"patchline" : 				{
					"destination" : [ "obj-48", 0 ],
					"source" : [ "obj-45", 0 ]
				}

			}
, 			{
				"patchline" : 				{
					"destination" : [ "obj-45", 0 ],
					"source" : [ "obj-46", 0 ]
				}

			}
, 			{
				"patchline" : 				{
					"destination" : [ "obj-45", 0 ],
					"source" : [ "obj-47", 0 ]
				}

			}
, 			{
				"patchline" : 				{
					"destination" : [ "obj-20", 0 ],
					"source" : [ "obj-48", 1 ]
				}

			}
, 			{
				"patchline" : 				{
					"destination" : [ "obj-901", 0 ],
					"source" : [ "obj-48", 0 ]
				}

			}
, 			{
				"patchline" : 				{
					"destination" : [ "obj-2", 0 ],
					"order" : 0,
					"source" : [ "obj-5", 0 ]
				}

			}
, 			{
				"patchline" : 				{
					"color" : [ 0.606694579124451, 0.0, 0.0, 1.0 ],
					"destination" : [ "obj-77", 0 ],
					"order" : 1,
					"source" : [ "obj-5", 0 ]
				}

			}
, 			{
				"patchline" : 				{
					"destination" : [ "obj-58", 0 ],
					"source" : [ "obj-54", 0 ]
				}

			}
, 			{
				"patchline" : 				{
					"destination" : [ "obj-58", 0 ],
					"source" : [ "obj-55", 0 ]
				}

			}
, 			{
				"patchline" : 				{
					"destination" : [ "obj-55", 0 ],
					"source" : [ "obj-56", 0 ]
				}

			}
, 			{
				"patchline" : 				{
					"destination" : [ "obj-55", 0 ],
					"source" : [ "obj-57", 0 ]
				}

			}
, 			{
				"patchline" : 				{
					"destination" : [ "obj-20", 0 ],
					"source" : [ "obj-58", 1 ]
				}

			}
, 			{
				"patchline" : 				{
					"destination" : [ "obj-895", 0 ],
					"source" : [ "obj-58", 0 ]
				}

			}
, 			{
				"patchline" : 				{
					"color" : [ 0.606694579124451, 0.0, 0.0, 1.0 ],
					"destination" : [ "obj-14", 3 ],
					"source" : [ "obj-6", 0 ]
				}

			}
, 			{
				"patchline" : 				{
					"color" : [ 0.606694579124451, 0.0, 0.0, 1.0 ],
					"destination" : [ "obj-22", 0 ],
					"source" : [ "obj-6", 1 ]
				}

			}
, 			{
				"patchline" : 				{
					"destination" : [ "obj-61", 0 ],
					"source" : [ "obj-60", 0 ]
				}

			}
, 			{
				"patchline" : 				{
					"destination" : [ "obj-38", 0 ],
					"source" : [ "obj-61", 0 ]
				}

			}
, 			{
				"patchline" : 				{
					"color" : [ 0.701961, 0.701961, 0.701961, 0.267927359271523 ],
					"destination" : [ "obj-110", 0 ],
					"source" : [ "obj-62", 2 ]
				}

			}
, 			{
				"patchline" : 				{
					"destination" : [ "obj-13", 0 ],
					"source" : [ "obj-62", 1 ]
				}

			}
, 			{
				"patchline" : 				{
					"destination" : [ "obj-154", 0 ],
					"source" : [ "obj-62", 0 ]
				}

			}
, 			{
				"patchline" : 				{
					"destination" : [ "obj-64", 0 ],
					"source" : [ "obj-62", 4 ]
				}

			}
, 			{
				"patchline" : 				{
					"destination" : [ "obj-70", 1 ],
					"source" : [ "obj-62", 3 ]
				}

			}
, 			{
				"patchline" : 				{
					"destination" : [ "obj-15", 0 ],
					"source" : [ "obj-64", 0 ]
				}

			}
, 			{
				"patchline" : 				{
					"destination" : [ "obj-1051", 0 ],
					"source" : [ "obj-67", 0 ]
				}

			}
, 			{
				"patchline" : 				{
					"destination" : [ "obj-97", 0 ],
					"source" : [ "obj-7", 0 ]
				}

			}
, 			{
				"patchline" : 				{
					"destination" : [ "obj-98", 0 ],
					"source" : [ "obj-7", 1 ]
				}

			}
, 			{
				"patchline" : 				{
					"destination" : [ "obj-1063", 0 ],
					"source" : [ "obj-70", 0 ]
				}

			}
, 			{
				"patchline" : 				{
					"destination" : [ "obj-46", 0 ],
					"source" : [ "obj-70", 1 ]
				}

			}
, 			{
				"patchline" : 				{
					"destination" : [ "obj-57", 0 ],
					"source" : [ "obj-70", 2 ]
				}

			}
, 			{
				"patchline" : 				{
					"destination" : [ "obj-28", 0 ],
					"order" : 1,
					"source" : [ "obj-72", 0 ]
				}

			}
, 			{
				"patchline" : 				{
					"destination" : [ "obj-86", 0 ],
					"order" : 0,
					"source" : [ "obj-72", 0 ]
				}

			}
, 			{
				"patchline" : 				{
					"destination" : [ "obj-70", 0 ],
					"source" : [ "obj-74", 0 ]
				}

			}
, 			{
				"patchline" : 				{
					"color" : [ 0.548421919345856, 0.0, 0.893835783004761, 1.0 ],
					"destination" : [ "obj-1014", 0 ],
					"midpoints" : [ 725.820533296374833, 1130.021415442085072, 516.0, 1130.021415442085072, 516.0, 809.021415442085072, 426.0, 809.021415442085072, 426.0, 453.021415442085072, 494.0, 453.021415442085072, 494.0, 257.021415442085072, 650.0, 257.021415442085072, 650.0, 221.021415442085072, 673.371152337402236, 221.021415442085072 ],
					"source" : [ "obj-75", 0 ]
				}

			}
, 			{
				"patchline" : 				{
					"color" : [ 0.606694579124451, 0.0, 0.0, 1.0 ],
					"destination" : [ "obj-22", 0 ],
					"source" : [ "obj-77", 0 ]
				}

			}
, 			{
				"patchline" : 				{
					"destination" : [ "obj-28", 0 ],
					"order" : 1,
					"source" : [ "obj-80", 0 ]
				}

			}
, 			{
				"patchline" : 				{
					"destination" : [ "obj-86", 0 ],
					"order" : 0,
					"source" : [ "obj-80", 0 ]
				}

			}
, 			{
				"patchline" : 				{
					"destination" : [ "obj-16", 0 ],
					"source" : [ "obj-813", 0 ]
				}

			}
, 			{
				"patchline" : 				{
					"destination" : [ "obj-28", 0 ],
					"order" : 1,
					"source" : [ "obj-82", 0 ]
				}

			}
, 			{
				"patchline" : 				{
					"destination" : [ "obj-86", 0 ],
					"order" : 0,
					"source" : [ "obj-82", 0 ]
				}

			}
, 			{
				"patchline" : 				{
					"destination" : [ "obj-28", 0 ],
					"order" : 1,
					"source" : [ "obj-84", 0 ]
				}

			}
, 			{
				"patchline" : 				{
					"destination" : [ "obj-86", 0 ],
					"order" : 0,
					"source" : [ "obj-84", 0 ]
				}

			}
, 			{
				"patchline" : 				{
					"destination" : [ "obj-8", 0 ],
					"source" : [ "obj-86", 0 ]
				}

			}
, 			{
				"patchline" : 				{
					"destination" : [ "obj-74", 0 ],
					"source" : [ "obj-87", 0 ]
				}

			}
, 			{
				"patchline" : 				{
					"destination" : [ "obj-100", 0 ],
					"order" : 0,
					"source" : [ "obj-895", 0 ]
				}

			}
, 			{
				"patchline" : 				{
					"destination" : [ "obj-109", 0 ],
					"order" : 1,
					"source" : [ "obj-895", 0 ]
				}

			}
, 			{
				"patchline" : 				{
					"destination" : [ "obj-72", 0 ],
					"source" : [ "obj-9", 1 ]
				}

			}
, 			{
				"patchline" : 				{
					"destination" : [ "obj-8", 0 ],
					"source" : [ "obj-9", 0 ]
				}

			}
, 			{
				"patchline" : 				{
					"destination" : [ "obj-107", 0 ],
					"order" : 1,
					"source" : [ "obj-901", 0 ]
				}

			}
, 			{
				"patchline" : 				{
					"destination" : [ "obj-99", 0 ],
					"order" : 0,
					"source" : [ "obj-901", 0 ]
				}

			}
, 			{
				"patchline" : 				{
					"destination" : [ "obj-113", 0 ],
					"order" : 1,
					"source" : [ "obj-947", 0 ]
				}

			}
, 			{
				"patchline" : 				{
					"destination" : [ "obj-3", 0 ],
					"order" : 0,
					"source" : [ "obj-947", 0 ]
				}

			}
, 			{
				"patchline" : 				{
					"destination" : [ "obj-113", 1 ],
					"order" : 1,
					"source" : [ "obj-955", 0 ]
				}

			}
, 			{
				"patchline" : 				{
					"destination" : [ "obj-3", 0 ],
					"order" : 0,
					"source" : [ "obj-955", 0 ]
				}

			}
, 			{
				"patchline" : 				{
					"destination" : [ "obj-138", 0 ],
					"source" : [ "obj-97", 0 ]
				}

			}
, 			{
				"patchline" : 				{
					"destination" : [ "obj-813", 0 ],
					"source" : [ "obj-973", 0 ]
				}

			}
, 			{
				"patchline" : 				{
					"destination" : [ "obj-138", 1 ],
					"source" : [ "obj-98", 0 ]
				}

			}
, 			{
				"patchline" : 				{
					"destination" : [ "obj-973", 0 ],
					"source" : [ "obj-985", 0 ]
				}

			}
, 			{
				"patchline" : 				{
					"destination" : [ "obj-973", 0 ],
					"source" : [ "obj-987", 0 ]
				}

			}
, 			{
				"patchline" : 				{
					"destination" : [ "obj-138", 2 ],
					"source" : [ "obj-99", 0 ]
				}

			}
, 			{
				"patchline" : 				{
					"color" : [ 0.606694579124451, 0.0, 0.0, 1.0 ],
					"destination" : [ "obj-992", 0 ],
					"source" : [ "obj-990", 0 ]
				}

			}
, 			{
				"patchline" : 				{
					"color" : [ 0.606694579124451, 0.0, 0.0, 1.0 ],
					"destination" : [ "obj-992", 0 ],
					"source" : [ "obj-991", 0 ]
				}

			}
, 			{
				"patchline" : 				{
					"destination" : [ "obj-104", 0 ],
					"source" : [ "obj-992", 0 ]
				}

			}
 ],
		"parameters" : 		{
			"obj-138::obj-1" : [ "filter sweep", "filter sweep", 0 ],
			"obj-138::obj-27" : [ "smooth", "smooth", 0 ],
			"obj-4::obj-114" : [ "solo", "Solo", 0 ],
			"obj-4::obj-115" : [ "active", "Active", 0 ],
			"obj-7" : [ "Loop Volume[1]", "volume", 0 ],
			"obj-8" : [ "live.menu", "live.menu", 0 ],
			"obj-813" : [ "feedback[1]", "feedback", 0 ],
			"obj-87" : [ "live.menu[1]", "live.menu[1]", 0 ],
			"obj-895" : [ "master_lowpass[1]", "lowpass", 0 ],
			"obj-901" : [ "master_highpass[1]", "highpass", 0 ],
			"parameterbanks" : 			{
				"0" : 				{
					"index" : 0,
					"name" : "",
					"parameters" : [ "-", "-", "-", "-", "-", "-", "-", "-" ]
				}

			}
,
			"inherited_shortname" : 1
		}
,
		"dependency_cache" : [ 			{
				"name" : "DJfilter.maxpat",
				"bootpath" : "~/Documents/Max 8/Projects/sousastep/SousaFX/patchers",
				"patcherrelativepath" : ".",
				"type" : "JSON",
				"implicit" : 1
			}
, 			{
				"name" : "FilterDelay.rnbopat",
				"bootpath" : "~/Documents/Max 8/Projects/sousastep/SousaFX/patchers",
				"patcherrelativepath" : ".",
				"type" : "RBOP",
				"implicit" : 1
			}
, 			{
				"name" : "sm.sallenkey2~.maxpat",
				"bootpath" : "~/Documents/Max 8/Projects/Sousastep Extended Instrument/patchers",
				"patcherrelativepath" : "../../../Sousastep Extended Instrument/patchers",
				"type" : "JSON",
				"implicit" : 1
			}
, 			{
				"name" : "sm_sallenkey_functions.genexpr",
				"bootpath" : "~/Documents/Max 8/Projects/sousastep/SousaFX/other",
				"patcherrelativepath" : "../other",
				"type" : "GenX",
				"implicit" : 1
			}
, 			{
				"name" : "sm_sallenkey_stereo.gendsp",
				"bootpath" : "~/Documents/Max 8/Projects/Sousastep Extended Instrument/code",
				"patcherrelativepath" : "../../../Sousastep Extended Instrument/code",
				"type" : "gDSP",
				"implicit" : 1
			}
, 			{
				"name" : "solomute.maxpat",
				"bootpath" : "~/Documents/Max 8/Projects/sousastep/SousaFX/patchers",
				"patcherrelativepath" : ".",
				"type" : "JSON",
				"implicit" : 1
			}
, 			{
				"name" : "solomuteUI.maxpat",
				"bootpath" : "~/Documents/Max 8/Projects/sousastep/SousaFX/patchers",
				"patcherrelativepath" : ".",
				"type" : "JSON",
				"implicit" : 1
			}
, 			{
				"name" : "thru.maxpat",
				"bootpath" : "C74:/patchers/m4l/Pluggo for Live resources/patches",
				"type" : "JSON",
				"implicit" : 1
			}
 ],
		"autosave" : 0,
		"bgcolor" : [ 0.43803733587265, 0.602580606937408, 0.706649482250214, 1.0 ],
		"editing_bgcolor" : [ 0.356862745098039, 0.356862745098039, 0.356862745098039, 1.0 ]
	}

}
