{
	"patcher" : 	{
		"fileversion" : 1,
		"appversion" : 		{
			"major" : 8,
			"minor" : 6,
			"revision" : 4,
			"architecture" : "x64",
			"modernui" : 1
		}
,
		"classnamespace" : "box",
		"rect" : [ 391.0, 376.0, 1552.0, 959.0 ],
		"bglocked" : 0,
		"openinpresentation" : 1,
		"default_fontsize" : 12.0,
		"default_fontface" : 0,
		"default_fontname" : "Arial",
		"gridonopen" : 1,
		"gridsize" : [ 15.0, 15.0 ],
		"gridsnaponopen" : 1,
		"objectsnaponopen" : 1,
		"statusbarvisible" : 2,
		"toolbarvisible" : 1,
		"lefttoolbarpinned" : 0,
		"toptoolbarpinned" : 0,
		"righttoolbarpinned" : 0,
		"bottomtoolbarpinned" : 0,
		"toolbars_unpinned_last_save" : 0,
		"tallnewobj" : 0,
		"boxanimatetime" : 200,
		"enablehscroll" : 1,
		"enablevscroll" : 1,
		"devicewidth" : 0.0,
		"description" : "",
		"digest" : "",
		"tags" : "",
		"style" : "",
		"subpatcher_template" : "",
		"assistshowspatchername" : 0,
		"boxes" : [ 			{
				"box" : 				{
					"id" : "obj-48",
					"maxclass" : "newobj",
					"numinlets" : 0,
					"numoutlets" : 1,
					"outlettype" : [ "" ],
					"patching_rect" : [ 990.0, 268.0, 129.0, 22.0 ],
					"text" : "r crossover_pull_down"
				}

			}
, 			{
				"box" : 				{
					"fontname" : "Menlo",
					"id" : "obj-46",
					"maxclass" : "newobj",
					"numinlets" : 1,
					"numoutlets" : 1,
					"outlettype" : [ "" ],
					"patching_rect" : [ 956.0, 387.918972227837912, 196.0, 22.0 ],
					"text" : "prepend \"Band 2 Frequency\""
				}

			}
, 			{
				"box" : 				{
					"fontname" : "Menlo",
					"id" : "obj-47",
					"maxclass" : "newobj",
					"numinlets" : 1,
					"numoutlets" : 1,
					"outlettype" : [ "" ],
					"patching_rect" : [ 933.0, 352.918972227837912, 196.0, 22.0 ],
					"text" : "prepend \"Band 1 Frequency\""
				}

			}
, 			{
				"box" : 				{
					"id" : "obj-39",
					"maxclass" : "newobj",
					"numinlets" : 1,
					"numoutlets" : 2,
					"outlettype" : [ "bang", "float" ],
					"patching_rect" : [ 380.0, 257.0, 29.5, 22.0 ],
					"text" : "t b f"
				}

			}
, 			{
				"box" : 				{
					"id" : "obj-40",
					"maxclass" : "newobj",
					"numinlets" : 2,
					"numoutlets" : 1,
					"outlettype" : [ "int" ],
					"patching_rect" : [ 339.0, 293.0, 29.5, 22.0 ],
					"text" : "-"
				}

			}
, 			{
				"box" : 				{
					"id" : "obj-36",
					"maxclass" : "newobj",
					"numinlets" : 2,
					"numoutlets" : 1,
					"outlettype" : [ "float" ],
					"patching_rect" : [ 990.0, 311.0, 29.5, 22.0 ],
					"text" : "!- 0."
				}

			}
, 			{
				"box" : 				{
					"id" : "obj-26",
					"maxclass" : "newobj",
					"numinlets" : 1,
					"numoutlets" : 1,
					"outlettype" : [ "" ],
					"patching_rect" : [ 1184.0, 311.0, 54.0, 22.0 ],
					"text" : "deferlow"
				}

			}
, 			{
				"box" : 				{
					"id" : "obj-25",
					"maxclass" : "newobj",
					"numinlets" : 2,
					"numoutlets" : 1,
					"outlettype" : [ "bang" ],
					"patching_rect" : [ 1184.0, 341.252305561171397, 55.0, 22.0 ],
					"text" : "del 3000"
				}

			}
, 			{
				"box" : 				{
					"id" : "obj-16",
					"maxclass" : "newobj",
					"numinlets" : 1,
					"numoutlets" : 1,
					"outlettype" : [ "bang" ],
					"patching_rect" : [ 1184.0, 278.86052547415693, 58.0, 22.0 ],
					"text" : "loadbang"
				}

			}
, 			{
				"box" : 				{
					"fontname" : "Ableton Sans Light",
					"id" : "obj-35",
					"maxclass" : "comment",
					"numinlets" : 0,
					"numoutlets" : 0,
					"patching_rect" : [ 399.0, 105.0, 150.0, 21.0 ],
					"presentation" : 1,
					"presentation_rect" : [ 414.0, 80.840723329060893, 122.0, 21.0 ],
					"suppressinlet" : 1,
					"text" : "vlow / low / wet / dry"
				}

			}
, 			{
				"box" : 				{
					"fontname" : "Ableton Sans Light",
					"id" : "obj-33",
					"maxclass" : "comment",
					"numinlets" : 0,
					"numoutlets" : 0,
					"patching_rect" : [ 270.0, 76.0, 150.0, 21.0 ],
					"presentation" : 1,
					"presentation_rect" : [ 279.0, 54.840723329060893, 122.0, 21.0 ],
					"suppressinlet" : 1,
					"text" : "open fabfilter plugins:"
				}

			}
, 			{
				"box" : 				{
					"id" : "obj-30",
					"maxclass" : "button",
					"numinlets" : 1,
					"numoutlets" : 1,
					"outlettype" : [ "bang" ],
					"parameter_enable" : 0,
					"patching_rect" : [ 122.0, 414.0, 24.0, 24.0 ],
					"presentation" : 1,
					"presentation_rect" : [ 519.5, 53.340723329060893, 24.0, 24.0 ]
				}

			}
, 			{
				"box" : 				{
					"id" : "obj-29",
					"maxclass" : "button",
					"numinlets" : 1,
					"numoutlets" : 1,
					"outlettype" : [ "bang" ],
					"parameter_enable" : 0,
					"patching_rect" : [ 107.0, 399.0, 24.0, 24.0 ],
					"presentation" : 1,
					"presentation_rect" : [ 482.0, 53.340723329060893, 24.0, 24.0 ]
				}

			}
, 			{
				"box" : 				{
					"id" : "obj-28",
					"maxclass" : "button",
					"numinlets" : 1,
					"numoutlets" : 1,
					"outlettype" : [ "bang" ],
					"parameter_enable" : 0,
					"patching_rect" : [ 92.0, 384.0, 24.0, 24.0 ],
					"presentation" : 1,
					"presentation_rect" : [ 444.5, 53.340723329060893, 24.0, 24.0 ]
				}

			}
, 			{
				"box" : 				{
					"id" : "obj-27",
					"maxclass" : "button",
					"numinlets" : 1,
					"numoutlets" : 1,
					"outlettype" : [ "bang" ],
					"parameter_enable" : 0,
					"patching_rect" : [ 77.0, 369.0, 24.0, 24.0 ],
					"presentation" : 1,
					"presentation_rect" : [ 407.0, 53.340723329060893, 24.0, 24.0 ]
				}

			}
, 			{
				"box" : 				{
					"id" : "obj-14",
					"maxclass" : "newobj",
					"numinlets" : 1,
					"numoutlets" : 1,
					"outlettype" : [ "open" ],
					"patching_rect" : [ 177.0, 402.918972227837912, 42.0, 22.0 ],
					"text" : "t open"
				}

			}
, 			{
				"box" : 				{
					"id" : "obj-12",
					"maxclass" : "newobj",
					"numinlets" : 1,
					"numoutlets" : 1,
					"outlettype" : [ "open" ],
					"patching_rect" : [ 162.0, 387.918972227837912, 42.0, 22.0 ],
					"text" : "t open"
				}

			}
, 			{
				"box" : 				{
					"id" : "obj-10",
					"maxclass" : "newobj",
					"numinlets" : 1,
					"numoutlets" : 1,
					"outlettype" : [ "open" ],
					"patching_rect" : [ 147.0, 372.918972227837912, 42.0, 22.0 ],
					"text" : "t open"
				}

			}
, 			{
				"box" : 				{
					"id" : "obj-9",
					"maxclass" : "newobj",
					"numinlets" : 1,
					"numoutlets" : 1,
					"outlettype" : [ "open" ],
					"patching_rect" : [ 132.0, 357.918972227837912, 42.0, 22.0 ],
					"text" : "t open"
				}

			}
, 			{
				"box" : 				{
					"comment" : "",
					"id" : "obj-24",
					"index" : 0,
					"maxclass" : "outlet",
					"numinlets" : 1,
					"numoutlets" : 0,
					"patching_rect" : [ 1184.0, 373.585638894504655, 30.0, 30.0 ]
				}

			}
, 			{
				"box" : 				{
					"comment" : "",
					"id" : "obj-23",
					"index" : 0,
					"maxclass" : "inlet",
					"numinlets" : 0,
					"numoutlets" : 1,
					"outlettype" : [ "" ],
					"patching_rect" : [ 1036.0, 13.840723329060893, 30.0, 30.0 ]
				}

			}
, 			{
				"box" : 				{
					"id" : "obj-20",
					"maxclass" : "newobj",
					"numinlets" : 1,
					"numoutlets" : 1,
					"outlettype" : [ "" ],
					"patching_rect" : [ 142.0, 17.840723329060893, 70.0, 22.0 ],
					"text" : "loadmess 0"
				}

			}
, 			{
				"box" : 				{
					"id" : "obj-18",
					"linecount" : 2,
					"maxclass" : "comment",
					"numinlets" : 1,
					"numoutlets" : 0,
					"patching_rect" : [ 348.970229923855641, 61.09302889023229, 97.0, 33.0 ],
					"presentation" : 1,
					"presentation_rect" : [ 31.0, 54.840723329060893, 141.0, 20.0 ],
					"text" : "bypass regular lowpass"
				}

			}
, 			{
				"box" : 				{
					"id" : "obj-19",
					"linecount" : 2,
					"maxclass" : "comment",
					"numinlets" : 1,
					"numoutlets" : 0,
					"patching_rect" : [ 165.0, 59.340723329060893, 104.0, 33.0 ],
					"presentation" : 1,
					"presentation_rect" : [ 31.0, 82.840723329060893, 148.0, 20.0 ],
					"text" : "bypass octaver's lowpass"
				}

			}
, 			{
				"box" : 				{
					"id" : "obj-17",
					"maxclass" : "toggle",
					"numinlets" : 1,
					"numoutlets" : 1,
					"outlettype" : [ "int" ],
					"parameter_enable" : 0,
					"patching_rect" : [ 322.0, 63.840723329060893, 24.0, 24.0 ],
					"presentation" : 1,
					"presentation_rect" : [ 7.0, 52.840723329060893, 24.0, 24.0 ]
				}

			}
, 			{
				"box" : 				{
					"id" : "obj-15",
					"maxclass" : "toggle",
					"numinlets" : 1,
					"numoutlets" : 1,
					"outlettype" : [ "int" ],
					"parameter_enable" : 0,
					"patching_rect" : [ 141.0, 63.840723329060893, 24.0, 24.0 ],
					"presentation" : 1,
					"presentation_rect" : [ 7.0, 80.840723329060893, 24.0, 24.0 ]
				}

			}
, 			{
				"box" : 				{
					"attr" : "bypass",
					"id" : "obj-13",
					"maxclass" : "attrui",
					"numinlets" : 1,
					"numoutlets" : 1,
					"outlettype" : [ "" ],
					"parameter_enable" : 0,
					"patching_rect" : [ 322.0, 96.840723329060893, 150.0, 22.0 ]
				}

			}
, 			{
				"box" : 				{
					"attr" : "bypass",
					"id" : "obj-11",
					"maxclass" : "attrui",
					"numinlets" : 1,
					"numoutlets" : 1,
					"outlettype" : [ "" ],
					"parameter_enable" : 0,
					"patching_rect" : [ 142.0, 96.840723329060893, 150.0, 22.0 ]
				}

			}
, 			{
				"box" : 				{
					"id" : "obj-8",
					"maxclass" : "newobj",
					"numinlets" : 2,
					"numoutlets" : 2,
					"outlettype" : [ "", "" ],
					"patching_rect" : [ 1036.0, 59.0, 415.0, 22.0 ],
					"text" : "list.lookup 0.261 0.268 0.275 0.282 0.288 0.294 0.3 0.306 0.311 0.316 0.321"
				}

			}
, 			{
				"box" : 				{
					"id" : "obj-69",
					"maxclass" : "newobj",
					"numinlets" : 1,
					"numoutlets" : 1,
					"outlettype" : [ "" ],
					"patching_rect" : [ 1040.0, 697.063447347136616, 176.0, 22.0 ],
					"text" : "prepend \"crossover frequency:\""
				}

			}
, 			{
				"box" : 				{
					"id" : "obj-22",
					"maxclass" : "newobj",
					"numinlets" : 1,
					"numoutlets" : 1,
					"outlettype" : [ "" ],
					"patching_rect" : [ 1040.0, 661.063447347136616, 67.0, 22.0 ],
					"text" : "append Hz"
				}

			}
, 			{
				"box" : 				{
					"id" : "obj-21",
					"maxclass" : "newobj",
					"numinlets" : 1,
					"numoutlets" : 1,
					"outlettype" : [ "" ],
					"patching_rect" : [ 1040.0, 731.063447347136616, 72.0, 22.0 ],
					"text" : "prepend set"
				}

			}
, 			{
				"box" : 				{
					"bgcolor" : [ 0.0, 0.0, 0.0, 0.53 ],
					"fontname" : "Monaco",
					"fontsize" : 33.0,
					"id" : "obj-7",
					"maxclass" : "comment",
					"numinlets" : 1,
					"numoutlets" : 0,
					"patching_rect" : [ 1040.0, 765.063447347136616, 563.0, 48.0 ],
					"presentation" : 1,
					"presentation_rect" : [ 0.0, 0.0, 563.0, 48.0 ],
					"text" : "crossover frequency: 130 Hz",
					"textcolor" : [ 1.0, 1.0, 1.0, 1.0 ]
				}

			}
, 			{
				"box" : 				{
					"fontname" : "Menlo",
					"id" : "obj-1192",
					"maxclass" : "newobj",
					"numinlets" : 2,
					"numoutlets" : 1,
					"outlettype" : [ "int" ],
					"patching_rect" : [ 1040.0, 622.063447347136616, 28.0, 22.0 ],
					"text" : "i"
				}

			}
, 			{
				"box" : 				{
					"fontname" : "Menlo",
					"id" : "obj-762",
					"maxclass" : "newobj",
					"numinlets" : 1,
					"numoutlets" : 0,
					"patching_rect" : [ 1133.0, 166.840723329060893, 139.0, 22.0 ],
					"text" : "s crossover_params"
				}

			}
, 			{
				"box" : 				{
					"fontname" : "Menlo",
					"id" : "obj-752",
					"maxclass" : "newobj",
					"numinlets" : 1,
					"numoutlets" : 1,
					"outlettype" : [ "" ],
					"patching_rect" : [ 1156.0, 131.840723329060893, 196.0, 22.0 ],
					"text" : "prepend \"Band 2 Frequency\""
				}

			}
, 			{
				"box" : 				{
					"fontname" : "Menlo",
					"id" : "obj-693",
					"maxclass" : "newobj",
					"numinlets" : 1,
					"numoutlets" : 1,
					"outlettype" : [ "" ],
					"patching_rect" : [ 1133.0, 96.840723329060893, 196.0, 22.0 ],
					"text" : "prepend \"Band 1 Frequency\""
				}

			}
, 			{
				"box" : 				{
					"fontname" : "Menlo",
					"fontsize" : 8.0,
					"id" : "obj-6",
					"maxclass" : "newobj",
					"numinlets" : 1,
					"numoutlets" : 3,
					"outlettype" : [ "", "", "" ],
					"patching_rect" : [ 765.538411887220263, 204.38789088213457, 86.0, 18.0 ],
					"restore" : [ 						{
							"filetype" : "C74Snapshot",
							"version" : 2,
							"minorversion" : 0,
							"name" : "Pro-Q 3",
							"origin" : "Pro-Q 3.auinfo",
							"type" : "AudioUnit",
							"subtype" : "MidiEffect",
							"embed" : 1,
							"snapshot" : 							{
								"pluginname" : "Pro-Q 3.auinfo",
								"plugindisplayname" : "Pro-Q 3",
								"pluginsavedname" : "",
								"pluginsaveduniqueid" : 1179726704,
								"version" : 1,
								"isbank" : 0,
								"isbase64" : 1,
								"blob" : "1676.hAGaoMGcv.i0AHv.DTfAGfPBJr.CWMWchQWdvUFWsEla0YVXiQWcxUlbeAAEFElXFkFazUlbPwVcmklaSQWXzUFUtEVakQEc4AWYWYWYxMWZu4lDFE0LvIgQgIlQOEQAeajQBMU.....lE.......9C...3OxMO3.A.............f+....9C...vO.....A...9C....P...f+.........3O...f+H27fCD..............9C...3O....+.....D...3O.....A...9C..............9i1y8QP..............3O...f+....7C........f+.....D...3O..............3OZO2GAA.............f+....9C...vO.........9C....P...f+..............f+n8beDD..............9C...3O....+.........3O.....A...9C..............9i1y8QP..............3O...f+....7C........f+.....D...3O..............3OZO2GAA.............f+....9C...vO.........9C....P...f+..............f+n8beDD..............9C...3O....+.........3O.....A...9C..............9i1y8QP..............3O...f+....7C........f+.....D...3O..............3OZO2GAA.............f+....9C...vO.........9C....P...f+..............f+n8beDD..............9C...3O....+.........3O.....A...9C..............9i1y8QP..............3O...f+....7C........f+.....D...3O..............3OZO2GAA.............f+....9C...vO.........9C....P...f+..............f+n8beDD..............9C...3O....+.........3O.....A...9C..............9i1y8QP..............3O...f+....7C........f+.....D...3O..............3OZO2GAA.............f+....9C...vO.........9C....P...f+..............f+n8beDD..............9C...3O....+.........3O.....A...9C..............9i1y8QP..............3O...f+....7C........f+.....D...3O..............3OZO2GAA.............f+....9C...vO.........9C....P...f+..............f+n8beDD..............9C...3O....+.........3O.....A...9C..............9i1y8QP..............3O...f+....7C........f+.....D...3O..............3OZO2GAA.............f+....9C...vO.........9C....P...f+..............f+n8beDD..............9C...3O....+.........3O.....A...9C..............9i1y8QP..............3O...f+....7C........f+.....D...3O..............3O...f+....................................9C...3O...f+B...9C...DP...f.A....D........f+....9C....P..........................................................................................................................................fQQMCbC....n....vXx81by8EZocFZ+++++G....PB....PI2asDEHnXSJA....LTcSYU..........n0Xx81by8EZocFZRDVcsYFD...B.TA.c.fJ.DD.FAvR.LE.XAPWF.jAKY.T........BD..........M...................FHE"
							}

						}
 ],
					"saved_object_attributes" : 					{
						"parameter_enable" : 0,
						"parameter_mappable" : 0
					}
,
					"text" : "pattr highCross2",
					"varname" : "highCross2"
				}

			}
, 			{
				"box" : 				{
					"fontname" : "Menlo",
					"fontsize" : 8.0,
					"id" : "obj-5",
					"maxclass" : "newobj",
					"numinlets" : 1,
					"numoutlets" : 3,
					"outlettype" : [ "", "", "" ],
					"patching_rect" : [ 542.755872460156525, 204.38789088213457, 81.0, 18.0 ],
					"restore" : [ 						{
							"filetype" : "C74Snapshot",
							"version" : 2,
							"minorversion" : 0,
							"name" : "Pro-Q 3",
							"origin" : "Pro-Q 3.auinfo",
							"type" : "AudioUnit",
							"subtype" : "MidiEffect",
							"embed" : 1,
							"snapshot" : 							{
								"pluginname" : "Pro-Q 3.auinfo",
								"plugindisplayname" : "Pro-Q 3",
								"pluginsavedname" : "",
								"pluginsaveduniqueid" : 1179726704,
								"version" : 1,
								"isbank" : 0,
								"isbase64" : 1,
								"blob" : "1676.hAGaoMGcv.i0AHv.DTfAGfPBJr.CWMWchQWdvUFWsEla0YVXiQWcxUlbeAAEFElXFkFazUlbPwVcmklaSQWXzUFUtEVakQEc4AWYWYWYxMWZu4lDFE0LvIgQgIlQOEQAeajQBMU.....lE.......9C...3OxMO3.A.............f+....9C...vO.....A...9C....P...f+.........3O...f+H27fCD..............9C...3O....+.....D...3O.....A...9C..............9i1y8QP..............3O...f+....7C........f+.....D...3O..............3OZO2GAA.............f+....9C...vO.........9C....P...f+..............f+n8beDD..............9C...3O....+.........3O.....A...9C..............9i1y8QP..............3O...f+....7C........f+.....D...3O..............3OZO2GAA.............f+....9C...vO.........9C....P...f+..............f+n8beDD..............9C...3O....+.........3O.....A...9C..............9i1y8QP..............3O...f+....7C........f+.....D...3O..............3OZO2GAA.............f+....9C...vO.........9C....P...f+..............f+n8beDD..............9C...3O....+.........3O.....A...9C..............9i1y8QP..............3O...f+....7C........f+.....D...3O..............3OZO2GAA.............f+....9C...vO.........9C....P...f+..............f+n8beDD..............9C...3O....+.........3O.....A...9C..............9i1y8QP..............3O...f+....7C........f+.....D...3O..............3OZO2GAA.............f+....9C...vO.........9C....P...f+..............f+n8beDD..............9C...3O....+.........3O.....A...9C..............9i1y8QP..............3O...f+....7C........f+.....D...3O..............3OZO2GAA.............f+....9C...vO.........9C....P...f+..............f+n8beDD..............9C...3O....+.........3O.....A...9C..............9i1y8QP..............3O...f+....7C........f+.....D...3O..............3OZO2GAA.............f+....9C...vO.........9C....P...f+..............f+n8beDD..............9C...3O....+.........3O.....A...9C..............9i1y8QP..............3O...f+....7C........f+.....D...3O..............3O...f+....................................9C...3O...f+B...9C...DP...f.A...AD........f+....9C....P..........................................................................................................................................fQQMCbC....n....vXx81by8EZocFZ+++++G....PB....PI2asDEHnPSJA....LTcSYU..........n0Xx81by8EZocFZRDVcsYFD...B.TA.c.fJ.DD.FAvR.LE.XAPWF.jAKY.T........BD..........M...................FHE"
							}

						}
 ],
					"saved_object_attributes" : 					{
						"parameter_enable" : 0,
						"parameter_mappable" : 0
					}
,
					"text" : "pattr highCross",
					"varname" : "highCross"
				}

			}
, 			{
				"box" : 				{
					"fontname" : "Menlo",
					"fontsize" : 8.0,
					"id" : "obj-4",
					"maxclass" : "newobj",
					"numinlets" : 1,
					"numoutlets" : 3,
					"outlettype" : [ "", "", "" ],
					"patching_rect" : [ 299.441672178154022, 204.38789088213457, 76.0, 18.0 ],
					"restore" : [ 						{
							"filetype" : "C74Snapshot",
							"version" : 2,
							"minorversion" : 0,
							"name" : "Pro-Q 3",
							"origin" : "Pro-Q 3.auinfo",
							"type" : "AudioUnit",
							"subtype" : "MidiEffect",
							"embed" : 1,
							"snapshot" : 							{
								"pluginname" : "Pro-Q 3.auinfo",
								"plugindisplayname" : "Pro-Q 3",
								"pluginsavedname" : "",
								"pluginsaveduniqueid" : 1179726704,
								"version" : 1,
								"isbank" : 0,
								"isbase64" : 1,
								"blob" : "1674.hAGaoMGcv.i0AHv.DTfAGfPBJr.CWMWchQWdvUFWsEla0YVXiQWcxUlbeAAEFElXFkFazUlbPwVcmklaSQWXzUFUtEVakQEc4AWYWYWYxMWZu4lDFE0LvIgQgIlQOEQAdajQBMU.....lE.......9C...3OxMO3.A.............f+....9C...vO...f.A...9C....P...f+.........3O...f+H27fCD..............9C...3O....+....BD...3O.....A...9C..............9i1y8QP..............3O...f+....7C........f+.....D...3O..............3OZO2GAA.............f+....9C...vO.........9C....P...f+..............f+n8beDD..............9C...3O....+.........3O.....A...9C..............9i1y8QP..............3O...f+....7C........f+.....D...3O..............3OZO2GAA.............f+....9C...vO.........9C....P...f+..............f+n8beDD..............9C...3O....+.........3O.....A...9C..............9i1y8QP..............3O...f+....7C........f+.....D...3O..............3OZO2GAA.............f+....9C...vO.........9C....P...f+..............f+n8beDD..............9C...3O....+.........3O.....A...9C..............9i1y8QP..............3O...f+....7C........f+.....D...3O..............3OZO2GAA.............f+....9C...vO.........9C....P...f+..............f+n8beDD..............9C...3O....+.........3O.....A...9C..............9i1y8QP..............3O...f+....7C........f+.....D...3O..............3OZO2GAA.............f+....9C...vO.........9C....P...f+..............f+n8beDD..............9C...3O....+.........3O.....A...9C..............9i1y8QP..............3O...f+....7C........f+.....D...3O..............3OZO2GAA.............f+....9C...vO.........9C....P...f+..............f+n8beDD..............9C...3O....+.........3O.....A...9C..............9i1y8QP..............3O...f+....7C........f+.....D...3O..............3OZO2GAA.............f+....9C...vO.........9C....P...f+..............f+n8beDD..............9C...3O....+.........3O.....A...9C..............9i1y8QP..............3O...f+....7C........f+.....D...3O..............3O...f+....................................9C...3O...f+B...9C...DP...f.A....D........f+....9C....P..........................................................................................................................................fQQMCbC....j....vXx81by8Eauc2+++++A....j.....Tx8VKQABJ0jR.....CU2TVE..........YMlbuM2bew1a2IQX00lYP...H.PE.zA.p.PP.XD.KAvT.fE.cYvOFjjANA.......HP..........z...................X.T"
							}

						}
 ],
					"saved_object_attributes" : 					{
						"parameter_enable" : 0,
						"parameter_mappable" : 0
					}
,
					"text" : "pattr lowCross",
					"varname" : "lowCross"
				}

			}
, 			{
				"box" : 				{
					"fontname" : "Menlo",
					"fontsize" : 8.0,
					"id" : "obj-1",
					"maxclass" : "newobj",
					"numinlets" : 1,
					"numoutlets" : 3,
					"outlettype" : [ "", "", "" ],
					"patching_rect" : [ 105.5, 204.38789088213457, 95.0, 18.0 ],
					"restore" : [ 						{
							"filetype" : "C74Snapshot",
							"version" : 2,
							"minorversion" : 0,
							"name" : "Pro-Q 3",
							"origin" : "Pro-Q 3.auinfo",
							"type" : "AudioUnit",
							"subtype" : "MidiEffect",
							"embed" : 1,
							"snapshot" : 							{
								"pluginname" : "Pro-Q 3.auinfo",
								"plugindisplayname" : "Pro-Q 3",
								"pluginsavedname" : "",
								"pluginsaveduniqueid" : 1179726704,
								"version" : 1,
								"isbank" : 0,
								"isbase64" : 1,
								"blob" : "1674.hAGaoMGcv.i0AHv.DTfAGfPBJr.CWMWchQWdvUFWsEla0YVXiQWcxUlbeAAEFElXFkFazUlbPwVcmklaSQWXzUFUtEVakQEc4AWYWYWYxMWZu4lDFE0LvIgQgIlQOEQAdajQBMU.....lE.......9C...3OxMO3.A.............f+....9C...vO...f.A...9C....P...f+.........3O...f+H27fCD..............9C...3O....+....BD...3O.....A...9C..............9i1y8QP..............3O...f+....7C........f+.....D...3O..............3OZO2GAA.............f+....9C...vO.........9C....P...f+..............f+n8beDD..............9C...3O....+.........3O.....A...9C..............9i1y8QP..............3O...f+....7C........f+.....D...3O..............3OZO2GAA.............f+....9C...vO.........9C....P...f+..............f+n8beDD..............9C...3O....+.........3O.....A...9C..............9i1y8QP..............3O...f+....7C........f+.....D...3O..............3OZO2GAA.............f+....9C...vO.........9C....P...f+..............f+n8beDD..............9C...3O....+.........3O.....A...9C..............9i1y8QP..............3O...f+....7C........f+.....D...3O..............3OZO2GAA.............f+....9C...vO.........9C....P...f+..............f+n8beDD..............9C...3O....+.........3O.....A...9C..............9i1y8QP..............3O...f+....7C........f+.....D...3O..............3OZO2GAA.............f+....9C...vO.........9C....P...f+..............f+n8beDD..............9C...3O....+.........3O.....A...9C..............9i1y8QP..............3O...f+....7C........f+.....D...3O..............3OZO2GAA.............f+....9C...vO.........9C....P...f+..............f+n8beDD..............9C...3O....+.........3O.....A...9C..............9i1y8QP..............3O...f+....7C........f+.....D...3O..............3OZO2GAA.............f+....9C...vO.........9C....P...f+..............f+n8beDD..............9C...3O....+.........3O.....A...9C..............9i1y8QP..............3O...f+....7C........f+.....D...3O..............3O...f+....................................9C...3O...f+B...9C...DP...f.A....D........f+....9C....P..........................................................................................................................................fQQMCbC....j....vXx81by8Eauc2+++++A....j.....Tx8VKQABJxjR.....CU2TVE..........YMlbuM2bew1a2IQX00lYP...H.PE.zA.p.PP.XD.KAvT.fE.cYvOFjjANA.......HP..........z...................X.T"
							}

						}
 ],
					"saved_object_attributes" : 					{
						"parameter_enable" : 0,
						"parameter_mappable" : 0
					}
,
					"text" : "pattr veryLowCross",
					"varname" : "veryLowCross"
				}

			}
, 			{
				"box" : 				{
					"fontname" : "Menlo",
					"id" : "obj-3",
					"maxclass" : "newobj",
					"numinlets" : 2,
					"numoutlets" : 1,
					"outlettype" : [ "bang" ],
					"patching_rect" : [ 447.951638418574476, 475.063454559298634, 52.0, 22.0 ],
					"text" : "del 10"
				}

			}
, 			{
				"box" : 				{
					"fontname" : "Menlo",
					"id" : "obj-2",
					"maxclass" : "message",
					"numinlets" : 2,
					"numoutlets" : 1,
					"outlettype" : [ "" ],
					"patching_rect" : [ 447.528557745701619, 504.595178232866942, 81.0, 22.0 ],
					"text" : "writeagain"
				}

			}
, 			{
				"box" : 				{
					"fontname" : "Menlo",
					"id" : "obj-45",
					"maxclass" : "newobj",
					"numinlets" : 1,
					"numoutlets" : 1,
					"outlettype" : [ "int" ],
					"patching_rect" : [ 148.0, 504.595178232866942, 30.0, 22.0 ],
					"text" : "t 1"
				}

			}
, 			{
				"box" : 				{
					"fontname" : "Menlo",
					"id" : "obj-43",
					"maxclass" : "newobj",
					"numinlets" : 1,
					"numoutlets" : 1,
					"outlettype" : [ "" ],
					"patching_rect" : [ 148.0, 475.063454559298634, 66.0, 22.0 ],
					"text" : "deferlow"
				}

			}
, 			{
				"box" : 				{
					"fontname" : "Menlo",
					"id" : "obj-42",
					"maxclass" : "newobj",
					"numinlets" : 1,
					"numoutlets" : 1,
					"outlettype" : [ "bang" ],
					"patching_rect" : [ 148.0, 445.531730885730326, 66.0, 22.0 ],
					"text" : "loadbang"
				}

			}
, 			{
				"box" : 				{
					"fontname" : "Menlo",
					"id" : "obj-44",
					"maxclass" : "newobj",
					"numinlets" : 2,
					"numoutlets" : 1,
					"outlettype" : [ "" ],
					"patching_rect" : [ 346.151638287444257, 504.595178232866942, 95.0, 22.0 ],
					"text" : "pack store 1"
				}

			}
, 			{
				"box" : 				{
					"fontname" : "Menlo",
					"id" : "obj-32",
					"maxclass" : "newobj",
					"numinlets" : 1,
					"numoutlets" : 1,
					"outlettype" : [ "" ],
					"patching_rect" : [ 223.928559390789815, 573.0, 297.0, 22.0 ],
					"saved_object_attributes" : 					{
						"client_rect" : [ 4, 44, 358, 172 ],
						"parameter_enable" : 0,
						"parameter_mappable" : 0,
						"storage_rect" : [ 583, 69, 1034, 197 ]
					}
,
					"text" : "pattrstorage ProQ3crossovers @savemode 0",
					"varname" : "ProQ3crossovers"
				}

			}
, 			{
				"box" : 				{
					"bgcolor" : [ 0.0, 0.0, 0.0, 0.27 ],
					"bubblepoint" : 0.4,
					"bubbleside" : 2,
					"bubbleusescolors" : 1,
					"fontname" : "Menlo",
					"fontsize" : 14.0,
					"id" : "obj-65",
					"maxclass" : "comment",
					"numinlets" : 0,
					"numoutlets" : 0,
					"patching_rect" : [ 290.951638418574476, 429.017397878947463, 155.0, 23.0 ],
					"suppressinlet" : 1,
					"text" : "save / overwrite:",
					"textcolor" : [ 0.898039215686275, 0.788235294117647, 0.996078431372549, 1.0 ]
				}

			}
, 			{
				"box" : 				{
					"bgcolor" : [ 0.0, 0.0, 0.0, 0.27 ],
					"blinkcolor" : [ 0.850980392156863, 0.686274509803922, 1.0, 1.0 ],
					"id" : "obj-84",
					"maxclass" : "button",
					"numinlets" : 1,
					"numoutlets" : 1,
					"outlettype" : [ "bang" ],
					"outlinecolor" : [ 0.850980392156863, 0.686274509803922, 1.0, 1.0 ],
					"parameter_enable" : 0,
					"patching_rect" : [ 447.951638418574476, 422.517397878947463, 36.0, 36.0 ],
					"style" : "buttonGold"
				}

			}
, 			{
				"box" : 				{
					"bgcolor" : [ 1.0, 0.949019607843137, 0.227450980392157, 0.57 ],
					"bgcolor2" : [ 0.941176470588235, 0.227450980392157, 1.0, 0.52 ],
					"bgfillcolor_angle" : 40.988422399155411,
					"bgfillcolor_autogradient" : 0.0,
					"bgfillcolor_color" : [ 0.941176470588235, 0.227450980392157, 1.0, 0.52 ],
					"bgfillcolor_color1" : [ 1.0, 0.949019607843137, 0.227450980392157, 0.57 ],
					"bgfillcolor_color2" : [ 0.941176470588235, 0.227450980392157, 1.0, 0.52 ],
					"bgfillcolor_proportion" : 0.39,
					"bgfillcolor_pt1" : [ -0.035353535353535, 0.95959595959596 ],
					"bgfillcolor_pt2" : [ 1.005050505050505, 0.055555555555556 ],
					"bgfillcolor_type" : "gradient",
					"fontname" : "Menlo",
					"gradient" : 1,
					"id" : "obj-89",
					"maxclass" : "message",
					"numinlets" : 2,
					"numoutlets" : 1,
					"outlettype" : [ "" ],
					"patching_rect" : [ 223.928559390789815, 475.063454559298634, 107.0, 23.0 ],
					"style" : "messageGold",
					"text" : "storagewindow",
					"textcolor" : [ 0.0, 0.0, 0.0, 0.890196078431372 ],
					"textjustification" : 1
				}

			}
, 			{
				"box" : 				{
					"bgcolor" : [ 0.247058823529412, 0.086274509803922, 0.317647058823529, 1.0 ],
					"bgcolor2" : [ 0.505882352941176, 0.266666666666667, 0.043137254901961, 1.0 ],
					"bgfillcolor_angle" : 40.988422399155411,
					"bgfillcolor_autogradient" : 0.0,
					"bgfillcolor_color" : [ 0.505882352941176, 0.266666666666667, 0.043137254901961, 1.0 ],
					"bgfillcolor_color1" : [ 0.247058823529412, 0.086274509803922, 0.317647058823529, 1.0 ],
					"bgfillcolor_color2" : [ 0.505882352941176, 0.266666666666667, 0.043137254901961, 1.0 ],
					"bgfillcolor_proportion" : 0.39,
					"bgfillcolor_pt1" : [ -0.035353535353535, 0.95959595959596 ],
					"bgfillcolor_pt2" : [ 1.005050505050505, 0.055555555555556 ],
					"bgfillcolor_type" : "gradient",
					"fontname" : "Menlo",
					"gradient" : 1,
					"id" : "obj-96",
					"maxclass" : "message",
					"numinlets" : 2,
					"numoutlets" : 1,
					"outlettype" : [ "" ],
					"patching_rect" : [ 235.928559390789815, 504.595178232866942, 100.0, 23.0 ],
					"style" : "messageGold",
					"text" : "clientwindow",
					"textcolor" : [ 0.8, 0.8, 0.8, 0.890196078431372 ]
				}

			}
, 			{
				"box" : 				{
					"bgcolor" : [ 0.325490196078431, 0.0, 0.545098039215686, 1.0 ],
					"fontname" : "Menlo",
					"id" : "obj-1180",
					"maxclass" : "comment",
					"numinlets" : 1,
					"numoutlets" : 0,
					"patching_rect" : [ 752.538411887220263, 130.018214321663663, 108.0, 20.0 ],
					"text" : "high dry",
					"textcolor" : [ 0.968627, 0.968627, 0.968627, 1.0 ],
					"textjustification" : 1
				}

			}
, 			{
				"box" : 				{
					"bgcolor" : [ 0.325490196078431, 0.0, 0.545098039215686, 1.0 ],
					"fontname" : "Menlo",
					"id" : "obj-1179",
					"linecount" : 2,
					"maxclass" : "comment",
					"numinlets" : 1,
					"numoutlets" : 0,
					"patching_rect" : [ 532.255872460156525, 116.018214321663663, 102.0, 34.0 ],
					"text" : "high distortion",
					"textcolor" : [ 0.968627, 0.968627, 0.968627, 1.0 ],
					"textjustification" : 1
				}

			}
, 			{
				"box" : 				{
					"bgcolor" : [ 0.325490196078431, 0.0, 0.545098039215686, 1.0 ],
					"fontname" : "Menlo",
					"id" : "obj-1177",
					"maxclass" : "comment",
					"numinlets" : 1,
					"numoutlets" : 0,
					"patching_rect" : [ 250.970229923855641, 130.018214321663663, 45.0, 20.0 ],
					"text" : "low",
					"textcolor" : [ 0.968627, 0.968627, 0.968627, 1.0 ],
					"textjustification" : 1
				}

			}
, 			{
				"box" : 				{
					"bgcolor" : [ 0.325490196078431, 0.0, 0.545098039215686, 1.0 ],
					"fontname" : "Menlo",
					"id" : "obj-1176",
					"maxclass" : "comment",
					"numinlets" : 1,
					"numoutlets" : 0,
					"patching_rect" : [ 44.028557745701619, 130.018214321663663, 72.0, 20.0 ],
					"text" : "very low",
					"textcolor" : [ 0.968627, 0.968627, 0.968627, 1.0 ],
					"textjustification" : 1
				}

			}
, 			{
				"box" : 				{
					"bgcolor" : [ 0.341176470588235, 0.701960784313725, 0.831372549019608, 1.0 ],
					"color" : [ 0.031372549019608, 0.247058823529412, 0.76078431372549, 1.0 ],
					"fontname" : "Menlo",
					"id" : "obj-1146",
					"maxclass" : "newobj",
					"numinlets" : 0,
					"numoutlets" : 1,
					"outlettype" : [ "" ],
					"patching_rect" : [ 1035.863400172920592, 201.38789088213457, 139.0, 22.0 ],
					"text" : "r crossover_params",
					"textcolor" : [ 0.188235294117647, 0.011764705882353, 0.219607843137255, 1.0 ]
				}

			}
, 			{
				"box" : 				{
					"autosave" : 0,
					"bgcolor" : [ 0.341176470588235, 0.701960784313725, 0.831372549019608, 1.0 ],
					"bgmode" : 0,
					"border" : 0,
					"clickthrough" : 0,
					"color" : [ 0.031372549019608, 0.247058823529412, 0.76078431372549, 1.0 ],
					"fontname" : "Menlo",
					"id" : "obj-1147",
					"linecount" : 4,
					"maxclass" : "newobj",
					"numinlets" : 1,
					"numoutlets" : 7,
					"offset" : [ 0.0, 0.0 ],
					"outlettype" : [ "signal", "", "list", "int", "", "", "" ],
					"patching_rect" : [ 55.528557745701619, 252.300741934708867, 189.0, 64.0 ],
					"save" : [ "#N", "vst~", "loaduniqueid", 0, 1, 1, "Pro-Q 3", "@prefer", "AudioUnit", "@parameter_enable", 0, "@autosave", 0, ";" ],
					"saved_object_attributes" : 					{
						"autosave" : 0,
						"parameter_enable" : 0,
						"parameter_mappable" : 0,
						"prefer" : "AudioUnit"
					}
,
					"text" : "audiounit~ 1 1 \"Pro-Q 3\" @prefer AudioUnit @parameter_enable 0 @autosave 0",
					"textcolor" : [ 0.188235294117647, 0.011764705882353, 0.219607843137255, 1.0 ],
					"varname" : "veryLowCrossAU",
					"viewvisibility" : 0
				}

			}
, 			{
				"box" : 				{
					"fontname" : "Menlo",
					"fontsize" : 11.0,
					"id" : "obj-608",
					"linecount" : 5,
					"maxclass" : "message",
					"numinlets" : 2,
					"numoutlets" : 1,
					"outlettype" : [ "" ],
					"patching_rect" : [ 593.0, 615.0, 161.0, 73.0 ],
					"text" : ";\rmax launchbrowser https://www.youtube.com/watch?v=qrXXNKhjBE8&t=436s"
				}

			}
, 			{
				"box" : 				{
					"autosave" : 0,
					"bgcolor" : [ 0.341176470588235, 0.701960784313725, 0.831372549019608, 1.0 ],
					"bgmode" : 0,
					"border" : 0,
					"clickthrough" : 0,
					"color" : [ 0.031372549019608, 0.247058823529412, 0.76078431372549, 1.0 ],
					"fontname" : "Menlo",
					"id" : "obj-873",
					"linecount" : 4,
					"maxclass" : "newobj",
					"numinlets" : 2,
					"numoutlets" : 8,
					"offset" : [ 0.0, 0.0 ],
					"outlettype" : [ "signal", "signal", "", "list", "int", "", "", "" ],
					"patching_rect" : [ 507.405849031557409, 251.86052547415693, 189.0, 64.0 ],
					"save" : [ "#N", "vst~", "loaduniqueid", 0, 2, 2, "Pro-Q 3", "@prefer", "AudioUnit", "@parameter_enable", 0, "@autosave", 0, ";" ],
					"saved_object_attributes" : 					{
						"autosave" : 0,
						"parameter_enable" : 0,
						"parameter_mappable" : 0,
						"prefer" : "AudioUnit"
					}
,
					"text" : "audiounit~ 2 2 \"Pro-Q 3\" @prefer AudioUnit @parameter_enable 0 @autosave 0",
					"textcolor" : [ 0.188235294117647, 0.011764705882353, 0.219607843137255, 1.0 ],
					"varname" : "highCrossAU",
					"viewvisibility" : 0
				}

			}
, 			{
				"box" : 				{
					"autosave" : 0,
					"bgcolor" : [ 0.341176470588235, 0.701960784313725, 0.831372549019608, 1.0 ],
					"bgmode" : 0,
					"border" : 0,
					"clickthrough" : 0,
					"color" : [ 0.031372549019608, 0.247058823529412, 0.76078431372549, 1.0 ],
					"fontname" : "Menlo",
					"id" : "obj-58",
					"linecount" : 5,
					"maxclass" : "newobj",
					"numinlets" : 2,
					"numoutlets" : 8,
					"offset" : [ 0.0, 0.0 ],
					"outlettype" : [ "signal", "signal", "", "list", "int", "", "", "" ],
					"patching_rect" : [ 730.863400172920592, 337.25230556117134, 189.0, 78.0 ],
					"save" : [ "#N", "vst~", "loaduniqueid", 0, 2, 2, "Pro-Q 3", "@valuemode", 1, "@prefer", "AudioUnit", "@parameter_enable", 0, "@autosave", 0, ";" ],
					"saved_object_attributes" : 					{
						"autosave" : 0,
						"parameter_enable" : 0,
						"parameter_mappable" : 0,
						"prefer" : "AudioUnit",
						"valuemode" : 1
					}
,
					"text" : "audiounit~ 2 2 \"Pro-Q 3\" @valuemode 1 @prefer AudioUnit @parameter_enable 0 @autosave 0",
					"textcolor" : [ 0.188235294117647, 0.011764705882353, 0.219607843137255, 1.0 ],
					"varname" : "highCross2AU",
					"viewvisibility" : 0
				}

			}
, 			{
				"box" : 				{
					"autosave" : 0,
					"bgcolor" : [ 0.341176470588235, 0.701960784313725, 0.831372549019608, 1.0 ],
					"bgmode" : 0,
					"border" : 0,
					"clickthrough" : 0,
					"color" : [ 0.031372549019608, 0.247058823529412, 0.76078431372549, 1.0 ],
					"fontname" : "Menlo",
					"id" : "obj-54",
					"linecount" : 4,
					"maxclass" : "newobj",
					"numinlets" : 1,
					"numoutlets" : 7,
					"offset" : [ 0.0, 0.0 ],
					"outlettype" : [ "signal", "", "list", "int", "", "", "" ],
					"patching_rect" : [ 254.970229923855641, 344.252305561171397, 189.0, 64.0 ],
					"save" : [ "#N", "vst~", "loaduniqueid", 0, 1, 1, "Pro-Q 3", "@prefer", "AudioUnit", "@parameter_enable", 0, "@autosave", 0, ";" ],
					"saved_object_attributes" : 					{
						"autosave" : 0,
						"parameter_enable" : 0,
						"parameter_mappable" : 0,
						"prefer" : "AudioUnit"
					}
,
					"text" : "audiounit~ 1 1 \"Pro-Q 3\" @prefer AudioUnit @parameter_enable 0 @autosave 0",
					"textcolor" : [ 0.188235294117647, 0.011764705882353, 0.219607843137255, 1.0 ],
					"varname" : "lowCrossAU",
					"viewvisibility" : 0
				}

			}
, 			{
				"box" : 				{
					"bgcolor" : [ 0.694117647058824, 0.694117647058824, 0.694117647058824, 0.73 ],
					"bubbleside" : 0,
					"fontname" : "Menlo",
					"fontsize" : 11.0,
					"id" : "obj-622",
					"linecount" : 2,
					"maxclass" : "comment",
					"numinlets" : 0,
					"numoutlets" : 0,
					"patching_rect" : [ 593.0, 567.0, 161.0, 32.0 ],
					"suppressinlet" : 1,
					"text" : "how to make crossovers with Pro-Q 3",
					"textjustification" : 1
				}

			}
, 			{
				"box" : 				{
					"comment" : "",
					"id" : "obj-57",
					"index" : 0,
					"maxclass" : "inlet",
					"numinlets" : 0,
					"numoutlets" : 1,
					"outlettype" : [ "" ],
					"patching_rect" : [ 55.528557745701619, 157.999945894504663, 30.0, 30.0 ]
				}

			}
, 			{
				"box" : 				{
					"comment" : "",
					"id" : "obj-64",
					"index" : 0,
					"maxclass" : "inlet",
					"numinlets" : 0,
					"numoutlets" : 1,
					"outlettype" : [ "" ],
					"patching_rect" : [ 254.970229923855641, 157.999945894504663, 30.0, 30.0 ]
				}

			}
, 			{
				"box" : 				{
					"comment" : "",
					"id" : "obj-94",
					"index" : 0,
					"maxclass" : "inlet",
					"numinlets" : 0,
					"numoutlets" : 1,
					"outlettype" : [ "" ],
					"patching_rect" : [ 507.405849031557409, 157.999945894504663, 30.0, 30.0 ]
				}

			}
, 			{
				"box" : 				{
					"comment" : "",
					"id" : "obj-102",
					"index" : 0,
					"maxclass" : "inlet",
					"numinlets" : 0,
					"numoutlets" : 1,
					"outlettype" : [ "" ],
					"patching_rect" : [ 626.405849031557409, 157.999945894504663, 30.0, 30.0 ]
				}

			}
, 			{
				"box" : 				{
					"comment" : "",
					"id" : "obj-144",
					"index" : 0,
					"maxclass" : "inlet",
					"numinlets" : 0,
					"numoutlets" : 1,
					"outlettype" : [ "" ],
					"patching_rect" : [ 730.863400172920592, 157.999945894504663, 30.0, 30.0 ]
				}

			}
, 			{
				"box" : 				{
					"comment" : "",
					"id" : "obj-221",
					"index" : 0,
					"maxclass" : "inlet",
					"numinlets" : 0,
					"numoutlets" : 1,
					"outlettype" : [ "" ],
					"patching_rect" : [ 849.863400172920592, 158.028531520713841, 30.0, 30.0 ]
				}

			}
, 			{
				"box" : 				{
					"comment" : "",
					"id" : "obj-245",
					"index" : 0,
					"maxclass" : "outlet",
					"numinlets" : 1,
					"numoutlets" : 0,
					"patching_rect" : [ 55.528557745701619, 328.918972227837969, 30.0, 30.0 ]
				}

			}
, 			{
				"box" : 				{
					"comment" : "",
					"id" : "obj-289",
					"index" : 0,
					"maxclass" : "outlet",
					"numinlets" : 1,
					"numoutlets" : 0,
					"patching_rect" : [ 254.970229923855641, 429.252305561171397, 30.0, 30.0 ]
				}

			}
, 			{
				"box" : 				{
					"comment" : "",
					"id" : "obj-337",
					"index" : 0,
					"maxclass" : "outlet",
					"numinlets" : 1,
					"numoutlets" : 0,
					"patching_rect" : [ 507.405820172920414, 345.585638894504655, 30.0, 30.0 ]
				}

			}
, 			{
				"box" : 				{
					"comment" : "",
					"id" : "obj-338",
					"index" : 0,
					"maxclass" : "outlet",
					"numinlets" : 1,
					"numoutlets" : 0,
					"patching_rect" : [ 626.405881172920544, 353.918972227837969, 30.0, 30.0 ]
				}

			}
, 			{
				"box" : 				{
					"comment" : "",
					"id" : "obj-401",
					"index" : 0,
					"maxclass" : "outlet",
					"numinlets" : 1,
					"numoutlets" : 0,
					"patching_rect" : [ 731.863400172920592, 448.25230556117134, 30.0, 30.0 ]
				}

			}
, 			{
				"box" : 				{
					"comment" : "",
					"id" : "obj-449",
					"index" : 0,
					"maxclass" : "outlet",
					"numinlets" : 1,
					"numoutlets" : 0,
					"patching_rect" : [ 839.0, 448.252305561171397, 30.0, 30.0 ]
				}

			}
, 			{
				"box" : 				{
					"fontname" : "Menlo",
					"id" : "obj-1184",
					"maxclass" : "newobj",
					"numinlets" : 1,
					"numoutlets" : 2,
					"outlettype" : [ "float", "int" ],
					"patching_rect" : [ 1040.0, 584.063447347136616, 81.0, 22.0 ],
					"text" : "unpack f i"
				}

			}
, 			{
				"box" : 				{
					"fontname" : "Menlo",
					"id" : "obj-1183",
					"maxclass" : "newobj",
					"numinlets" : 1,
					"numoutlets" : 1,
					"outlettype" : [ "" ],
					"patching_rect" : [ 1040.0, 550.063447347136616, 81.0, 22.0 ],
					"text" : "fromsymbol"
				}

			}
, 			{
				"box" : 				{
					"fontname" : "Menlo",
					"id" : "obj-1182",
					"maxclass" : "newobj",
					"numinlets" : 2,
					"numoutlets" : 2,
					"outlettype" : [ "", "" ],
					"patching_rect" : [ 1040.0, 517.063447347136616, 59.0, 22.0 ],
					"text" : "route 3"
				}

			}
 ],
		"lines" : [ 			{
				"patchline" : 				{
					"destination" : [ "obj-1147", 0 ],
					"midpoints" : [ 153.0, 228.0, 65.028557745701619, 228.0 ],
					"source" : [ "obj-1", 1 ]
				}

			}
, 			{
				"patchline" : 				{
					"destination" : [ "obj-54", 0 ],
					"source" : [ "obj-10", 0 ]
				}

			}
, 			{
				"patchline" : 				{
					"destination" : [ "obj-873", 1 ],
					"source" : [ "obj-102", 0 ]
				}

			}
, 			{
				"patchline" : 				{
					"destination" : [ "obj-1147", 0 ],
					"source" : [ "obj-11", 0 ]
				}

			}
, 			{
				"patchline" : 				{
					"color" : [ 0.124165579676628, 0.166832685470581, 0.858511447906494, 1.0 ],
					"destination" : [ "obj-1147", 0 ],
					"midpoints" : [ 1045.363400172920592, 235.0, 65.028557745701619, 235.0 ],
					"order" : 3,
					"source" : [ "obj-1146", 0 ]
				}

			}
, 			{
				"patchline" : 				{
					"color" : [ 0.124165579676628, 0.166832685470581, 0.858511447906494, 1.0 ],
					"destination" : [ "obj-54", 0 ],
					"midpoints" : [ 1045.363400172920592, 235.0, 264.470229923855641, 235.0 ],
					"order" : 2,
					"source" : [ "obj-1146", 0 ]
				}

			}
, 			{
				"patchline" : 				{
					"color" : [ 0.124165579676628, 0.166832685470581, 0.858511447906494, 1.0 ],
					"destination" : [ "obj-58", 0 ],
					"midpoints" : [ 1045.363400172920592, 235.0, 740.363400172920592, 235.0 ],
					"order" : 0,
					"source" : [ "obj-1146", 0 ]
				}

			}
, 			{
				"patchline" : 				{
					"color" : [ 0.124165579676628, 0.166832685470581, 0.858511447906494, 1.0 ],
					"destination" : [ "obj-873", 0 ],
					"midpoints" : [ 1045.363400172920592, 235.0, 516.905849031557409, 235.0 ],
					"order" : 1,
					"source" : [ "obj-1146", 0 ]
				}

			}
, 			{
				"patchline" : 				{
					"destination" : [ "obj-245", 0 ],
					"source" : [ "obj-1147", 0 ]
				}

			}
, 			{
				"patchline" : 				{
					"destination" : [ "obj-1183", 0 ],
					"source" : [ "obj-1182", 0 ]
				}

			}
, 			{
				"patchline" : 				{
					"destination" : [ "obj-1184", 0 ],
					"source" : [ "obj-1183", 0 ]
				}

			}
, 			{
				"patchline" : 				{
					"destination" : [ "obj-1192", 0 ],
					"source" : [ "obj-1184", 0 ]
				}

			}
, 			{
				"patchline" : 				{
					"destination" : [ "obj-22", 0 ],
					"source" : [ "obj-1192", 0 ]
				}

			}
, 			{
				"patchline" : 				{
					"destination" : [ "obj-873", 0 ],
					"source" : [ "obj-12", 0 ]
				}

			}
, 			{
				"patchline" : 				{
					"destination" : [ "obj-54", 0 ],
					"source" : [ "obj-13", 0 ]
				}

			}
, 			{
				"patchline" : 				{
					"destination" : [ "obj-58", 0 ],
					"source" : [ "obj-14", 0 ]
				}

			}
, 			{
				"patchline" : 				{
					"destination" : [ "obj-58", 0 ],
					"source" : [ "obj-144", 0 ]
				}

			}
, 			{
				"patchline" : 				{
					"destination" : [ "obj-11", 0 ],
					"source" : [ "obj-15", 0 ]
				}

			}
, 			{
				"patchline" : 				{
					"destination" : [ "obj-26", 0 ],
					"source" : [ "obj-16", 0 ]
				}

			}
, 			{
				"patchline" : 				{
					"destination" : [ "obj-13", 0 ],
					"source" : [ "obj-17", 0 ]
				}

			}
, 			{
				"patchline" : 				{
					"destination" : [ "obj-32", 0 ],
					"midpoints" : [ 457.028557745701619, 552.0, 233.428559390789815, 552.0 ],
					"source" : [ "obj-2", 0 ]
				}

			}
, 			{
				"patchline" : 				{
					"destination" : [ "obj-15", 0 ],
					"order" : 1,
					"source" : [ "obj-20", 0 ]
				}

			}
, 			{
				"patchline" : 				{
					"destination" : [ "obj-17", 0 ],
					"order" : 0,
					"source" : [ "obj-20", 0 ]
				}

			}
, 			{
				"patchline" : 				{
					"destination" : [ "obj-7", 0 ],
					"source" : [ "obj-21", 0 ]
				}

			}
, 			{
				"patchline" : 				{
					"destination" : [ "obj-69", 0 ],
					"source" : [ "obj-22", 0 ]
				}

			}
, 			{
				"patchline" : 				{
					"destination" : [ "obj-58", 1 ],
					"source" : [ "obj-221", 0 ]
				}

			}
, 			{
				"patchline" : 				{
					"destination" : [ "obj-8", 0 ],
					"source" : [ "obj-23", 0 ]
				}

			}
, 			{
				"patchline" : 				{
					"destination" : [ "obj-24", 0 ],
					"source" : [ "obj-25", 0 ]
				}

			}
, 			{
				"patchline" : 				{
					"destination" : [ "obj-25", 0 ],
					"source" : [ "obj-26", 0 ]
				}

			}
, 			{
				"patchline" : 				{
					"destination" : [ "obj-9", 0 ],
					"source" : [ "obj-27", 0 ]
				}

			}
, 			{
				"patchline" : 				{
					"destination" : [ "obj-10", 0 ],
					"source" : [ "obj-28", 0 ]
				}

			}
, 			{
				"patchline" : 				{
					"destination" : [ "obj-12", 0 ],
					"source" : [ "obj-29", 0 ]
				}

			}
, 			{
				"patchline" : 				{
					"destination" : [ "obj-2", 0 ],
					"source" : [ "obj-3", 0 ]
				}

			}
, 			{
				"patchline" : 				{
					"destination" : [ "obj-14", 0 ],
					"source" : [ "obj-30", 0 ]
				}

			}
, 			{
				"patchline" : 				{
					"destination" : [ "obj-46", 0 ],
					"order" : 0,
					"source" : [ "obj-36", 0 ]
				}

			}
, 			{
				"patchline" : 				{
					"destination" : [ "obj-47", 0 ],
					"order" : 1,
					"source" : [ "obj-36", 0 ]
				}

			}
, 			{
				"patchline" : 				{
					"destination" : [ "obj-40", 1 ],
					"source" : [ "obj-39", 1 ]
				}

			}
, 			{
				"patchline" : 				{
					"destination" : [ "obj-40", 0 ],
					"source" : [ "obj-39", 0 ]
				}

			}
, 			{
				"patchline" : 				{
					"destination" : [ "obj-54", 0 ],
					"midpoints" : [ 337.441672178154022, 228.0, 264.470229923855641, 228.0 ],
					"source" : [ "obj-4", 1 ]
				}

			}
, 			{
				"patchline" : 				{
					"destination" : [ "obj-43", 0 ],
					"source" : [ "obj-42", 0 ]
				}

			}
, 			{
				"patchline" : 				{
					"destination" : [ "obj-45", 0 ],
					"source" : [ "obj-43", 0 ]
				}

			}
, 			{
				"patchline" : 				{
					"destination" : [ "obj-32", 0 ],
					"midpoints" : [ 355.651638287444257, 552.0, 233.428559390789815, 552.0 ],
					"source" : [ "obj-44", 0 ]
				}

			}
, 			{
				"patchline" : 				{
					"destination" : [ "obj-32", 0 ],
					"midpoints" : [ 157.5, 552.0, 233.428559390789815, 552.0 ],
					"source" : [ "obj-45", 0 ]
				}

			}
, 			{
				"patchline" : 				{
					"destination" : [ "obj-54", 0 ],
					"order" : 1,
					"source" : [ "obj-46", 0 ]
				}

			}
, 			{
				"patchline" : 				{
					"destination" : [ "obj-58", 0 ],
					"order" : 0,
					"source" : [ "obj-46", 0 ]
				}

			}
, 			{
				"patchline" : 				{
					"destination" : [ "obj-54", 0 ],
					"order" : 1,
					"source" : [ "obj-47", 0 ]
				}

			}
, 			{
				"patchline" : 				{
					"destination" : [ "obj-58", 0 ],
					"order" : 0,
					"source" : [ "obj-47", 0 ]
				}

			}
, 			{
				"patchline" : 				{
					"destination" : [ "obj-36", 0 ],
					"source" : [ "obj-48", 0 ]
				}

			}
, 			{
				"patchline" : 				{
					"destination" : [ "obj-873", 0 ],
					"midpoints" : [ 583.255872460156525, 229.0, 516.905849031557409, 229.0 ],
					"source" : [ "obj-5", 1 ]
				}

			}
, 			{
				"patchline" : 				{
					"destination" : [ "obj-289", 0 ],
					"source" : [ "obj-54", 0 ]
				}

			}
, 			{
				"patchline" : 				{
					"destination" : [ "obj-1147", 0 ],
					"source" : [ "obj-57", 0 ]
				}

			}
, 			{
				"patchline" : 				{
					"destination" : [ "obj-1182", 0 ],
					"midpoints" : [ 813.220543030063482, 493.0, 1049.5, 493.0 ],
					"source" : [ "obj-58", 3 ]
				}

			}
, 			{
				"patchline" : 				{
					"destination" : [ "obj-401", 0 ],
					"source" : [ "obj-58", 0 ]
				}

			}
, 			{
				"patchline" : 				{
					"destination" : [ "obj-449", 0 ],
					"source" : [ "obj-58", 1 ]
				}

			}
, 			{
				"patchline" : 				{
					"destination" : [ "obj-58", 0 ],
					"midpoints" : [ 808.538411887220263, 229.0, 740.363400172920592, 229.0 ],
					"source" : [ "obj-6", 1 ]
				}

			}
, 			{
				"patchline" : 				{
					"destination" : [ "obj-54", 0 ],
					"source" : [ "obj-64", 0 ]
				}

			}
, 			{
				"patchline" : 				{
					"destination" : [ "obj-21", 0 ],
					"source" : [ "obj-69", 0 ]
				}

			}
, 			{
				"patchline" : 				{
					"destination" : [ "obj-762", 0 ],
					"source" : [ "obj-693", 0 ]
				}

			}
, 			{
				"patchline" : 				{
					"destination" : [ "obj-762", 0 ],
					"source" : [ "obj-752", 0 ]
				}

			}
, 			{
				"patchline" : 				{
					"destination" : [ "obj-36", 1 ],
					"order" : 2,
					"source" : [ "obj-8", 0 ]
				}

			}
, 			{
				"patchline" : 				{
					"destination" : [ "obj-693", 0 ],
					"order" : 1,
					"source" : [ "obj-8", 0 ]
				}

			}
, 			{
				"patchline" : 				{
					"destination" : [ "obj-752", 0 ],
					"order" : 0,
					"source" : [ "obj-8", 0 ]
				}

			}
, 			{
				"patchline" : 				{
					"destination" : [ "obj-3", 0 ],
					"order" : 0,
					"source" : [ "obj-84", 0 ]
				}

			}
, 			{
				"patchline" : 				{
					"destination" : [ "obj-44", 0 ],
					"midpoints" : [ 457.451638418574476, 463.095178232866942, 433.0, 463.095178232866942, 433.0, 489.095178232866942, 355.651638287444257, 489.095178232866942 ],
					"order" : 1,
					"source" : [ "obj-84", 0 ]
				}

			}
, 			{
				"patchline" : 				{
					"destination" : [ "obj-337", 0 ],
					"source" : [ "obj-873", 0 ]
				}

			}
, 			{
				"patchline" : 				{
					"destination" : [ "obj-338", 0 ],
					"source" : [ "obj-873", 1 ]
				}

			}
, 			{
				"patchline" : 				{
					"destination" : [ "obj-32", 0 ],
					"midpoints" : [ 233.428559390789815, 501.0, 233.428559390789815, 501.0 ],
					"source" : [ "obj-89", 0 ]
				}

			}
, 			{
				"patchline" : 				{
					"destination" : [ "obj-1147", 0 ],
					"source" : [ "obj-9", 0 ]
				}

			}
, 			{
				"patchline" : 				{
					"destination" : [ "obj-873", 0 ],
					"source" : [ "obj-94", 0 ]
				}

			}
, 			{
				"patchline" : 				{
					"destination" : [ "obj-32", 0 ],
					"midpoints" : [ 245.428559390789815, 552.0, 233.428559390789815, 552.0 ],
					"source" : [ "obj-96", 0 ]
				}

			}
 ],
		"dependency_cache" : [ 			{
				"name" : "ProQ3crossovers.json",
				"bootpath" : "~/Documents/Max 8/Projects/sousastep/default/presets/SousaFX",
				"patcherrelativepath" : "../../default/presets/SousaFX",
				"type" : "JSON",
				"implicit" : 1
			}
 ],
		"autosave" : 0
	}

}
