{
	"patcher" : 	{
		"fileversion" : 1,
		"appversion" : 		{
			"major" : 8,
			"minor" : 6,
			"revision" : 0,
			"architecture" : "x64",
			"modernui" : 1
		}
,
		"classnamespace" : "box",
		"rect" : [ 48.0, 102.0, 1008.0, 779.0 ],
		"bglocked" : 0,
		"openinpresentation" : 1,
		"default_fontsize" : 12.0,
		"default_fontface" : 0,
		"default_fontname" : "Arial",
		"gridonopen" : 1,
		"gridsize" : [ 15.0, 15.0 ],
		"gridsnaponopen" : 1,
		"objectsnaponopen" : 1,
		"statusbarvisible" : 2,
		"toolbarvisible" : 1,
		"lefttoolbarpinned" : 0,
		"toptoolbarpinned" : 0,
		"righttoolbarpinned" : 0,
		"bottomtoolbarpinned" : 0,
		"toolbars_unpinned_last_save" : 0,
		"tallnewobj" : 0,
		"boxanimatetime" : 200,
		"enablehscroll" : 1,
		"enablevscroll" : 1,
		"devicewidth" : 0.0,
		"description" : "",
		"digest" : "",
		"tags" : "",
		"style" : "",
		"subpatcher_template" : "",
		"assistshowspatchername" : 0,
		"boxes" : [ 			{
				"box" : 				{
					"id" : "obj-30",
					"maxclass" : "newobj",
					"numinlets" : 2,
					"numoutlets" : 1,
					"outlettype" : [ "" ],
					"patching_rect" : [ 37.0, 223.0, 61.0, 22.0 ],
					"text" : "pipe 2000"
				}

			}
, 			{
				"box" : 				{
					"id" : "obj-22",
					"maxclass" : "newobj",
					"numinlets" : 0,
					"numoutlets" : 1,
					"outlettype" : [ "" ],
					"patching_rect" : [ 124.0, 411.0, 73.0, 22.0 ],
					"text" : "r tap_tempo"
				}

			}
, 			{
				"box" : 				{
					"id" : "obj-29",
					"maxclass" : "newobj",
					"numinlets" : 1,
					"numoutlets" : 1,
					"outlettype" : [ "" ],
					"patching_rect" : [ 1020.0, 589.0, 148.0, 22.0 ],
					"text" : "loadmess \"RNBO Chorus\""
				}

			}
, 			{
				"box" : 				{
					"id" : "obj-21",
					"maxclass" : "newobj",
					"numinlets" : 1,
					"numoutlets" : 0,
					"patching_rect" : [ 1020.0, 661.0, 107.0, 22.0 ],
					"text" : "s #1_plugin_name"
				}

			}
, 			{
				"box" : 				{
					"fontname" : "Ableton Sans Light",
					"id" : "obj-10",
					"maxclass" : "comment",
					"numinlets" : 0,
					"numoutlets" : 0,
					"patching_rect" : [ 37.0, 135.0, 94.0, 21.0 ],
					"suppressinlet" : 1,
					"text" : "Default preset #"
				}

			}
, 			{
				"box" : 				{
					"fontname" : "Monaco",
					"id" : "obj-11",
					"maxclass" : "newobj",
					"numinlets" : 1,
					"numoutlets" : 1,
					"outlettype" : [ "" ],
					"patching_rect" : [ 311.0, 286.0, 66.0, 23.0 ],
					"text" : "deferlow"
				}

			}
, 			{
				"box" : 				{
					"fontname" : "Monaco",
					"id" : "obj-12",
					"maxclass" : "newobj",
					"numinlets" : 1,
					"numoutlets" : 2,
					"outlettype" : [ "bang", "bang" ],
					"patching_rect" : [ 241.0, 223.0, 45.0, 23.0 ],
					"text" : "t b b"
				}

			}
, 			{
				"box" : 				{
					"fontname" : "Monaco",
					"id" : "obj-13",
					"maxclass" : "newobj",
					"numinlets" : 1,
					"numoutlets" : 1,
					"outlettype" : [ "" ],
					"patching_rect" : [ 37.0, 161.0, 81.0, 23.0 ],
					"text" : "loadmess 1"
				}

			}
, 			{
				"box" : 				{
					"fontname" : "Monaco",
					"id" : "obj-14",
					"maxclass" : "newobj",
					"numinlets" : 2,
					"numoutlets" : 1,
					"outlettype" : [ "" ],
					"patching_rect" : [ 200.0, 286.0, 95.0, 23.0 ],
					"text" : "pack store 1"
				}

			}
, 			{
				"box" : 				{
					"fontname" : "Monaco",
					"id" : "obj-15",
					"maxclass" : "newobj",
					"numinlets" : 1,
					"numoutlets" : 1,
					"outlettype" : [ "" ],
					"patching_rect" : [ 37.0, 375.0, 361.0, 23.0 ],
					"saved_object_attributes" : 					{
						"client_rect" : [ 100, 159, 454, 287 ],
						"parameter_enable" : 0,
						"parameter_mappable" : 0,
						"storage_rect" : [ 257, 400, 708, 528 ]
					}
,
					"text" : "pattrstorage #1_rnbo_chorus @greedy 2 @savemode 0",
					"varname" : "#1_rnbo_chorus"
				}

			}
, 			{
				"box" : 				{
					"bgcolor" : [ 1.0, 0.949019607843137, 0.227450980392157, 0.57 ],
					"bgcolor2" : [ 0.941176470588235, 0.227450980392157, 1.0, 0.52 ],
					"bgfillcolor_angle" : 40.988422399155411,
					"bgfillcolor_autogradient" : 0.0,
					"bgfillcolor_color" : [ 0.941176470588235, 0.227450980392157, 1.0, 0.52 ],
					"bgfillcolor_color1" : [ 1.0, 0.949019607843137, 0.227450980392157, 0.57 ],
					"bgfillcolor_color2" : [ 0.941176470588235, 0.227450980392157, 1.0, 0.52 ],
					"bgfillcolor_proportion" : 0.39,
					"bgfillcolor_pt1" : [ -0.035353535353535, 0.95959595959596 ],
					"bgfillcolor_pt2" : [ 1.005050505050505, 0.055555555555556 ],
					"bgfillcolor_type" : "gradient",
					"fontname" : "Monaco",
					"fontsize" : 12.0,
					"gradient" : 1,
					"id" : "obj-16",
					"maxclass" : "message",
					"numinlets" : 2,
					"numoutlets" : 1,
					"outlettype" : [ "" ],
					"patching_rect" : [ 55.0, 273.0, 115.0, 23.0 ],
					"style" : "messageGold",
					"text" : "storagewindow",
					"textcolor" : [ 0.0, 0.0, 0.0, 0.890196078431372 ],
					"textjustification" : 1
				}

			}
, 			{
				"box" : 				{
					"bgcolor" : [ 0.247058823529412, 0.086274509803922, 0.317647058823529, 1.0 ],
					"bgcolor2" : [ 0.505882352941176, 0.266666666666667, 0.043137254901961, 1.0 ],
					"bgfillcolor_angle" : 40.988422399155411,
					"bgfillcolor_autogradient" : 0.0,
					"bgfillcolor_color" : [ 0.505882352941176, 0.266666666666667, 0.043137254901961, 1.0 ],
					"bgfillcolor_color1" : [ 0.247058823529412, 0.086274509803922, 0.317647058823529, 1.0 ],
					"bgfillcolor_color2" : [ 0.505882352941176, 0.266666666666667, 0.043137254901961, 1.0 ],
					"bgfillcolor_proportion" : 0.39,
					"bgfillcolor_pt1" : [ -0.035353535353535, 0.95959595959596 ],
					"bgfillcolor_pt2" : [ 1.005050505050505, 0.055555555555556 ],
					"bgfillcolor_type" : "gradient",
					"fontname" : "Monaco",
					"fontsize" : 12.0,
					"gradient" : 1,
					"id" : "obj-59",
					"maxclass" : "message",
					"numinlets" : 2,
					"numoutlets" : 1,
					"outlettype" : [ "" ],
					"patching_rect" : [ 63.0, 305.0, 101.0, 23.0 ],
					"style" : "messageGold",
					"text" : "clientwindow",
					"textcolor" : [ 1.0, 1.0, 1.0, 1.0 ]
				}

			}
, 			{
				"box" : 				{
					"fontname" : "Monaco",
					"id" : "obj-17",
					"maxclass" : "newobj",
					"numinlets" : 1,
					"numoutlets" : 1,
					"outlettype" : [ "bang" ],
					"patching_rect" : [ 402.0, 198.0, 66.0, 23.0 ],
					"text" : "loadbang"
				}

			}
, 			{
				"box" : 				{
					"fontname" : "Monaco",
					"id" : "obj-18",
					"maxclass" : "message",
					"numinlets" : 2,
					"numoutlets" : 1,
					"outlettype" : [ "" ],
					"patching_rect" : [ 402.0, 242.0, 131.0, 23.0 ],
					"text" : "#1"
				}

			}
, 			{
				"box" : 				{
					"fontname" : "Monaco",
					"id" : "obj-60",
					"maxclass" : "message",
					"numinlets" : 2,
					"numoutlets" : 1,
					"outlettype" : [ "" ],
					"patching_rect" : [ 311.0, 331.0, 606.0, 23.0 ],
					"text" : "write \"~/Documents/Max 8/Projects/sousastep/SousaFX/data/#1_rnbo_chorus.json\""
				}

			}
, 			{
				"box" : 				{
					"fontname" : "Monaco",
					"id" : "obj-45",
					"maxclass" : "newobj",
					"numinlets" : 1,
					"numoutlets" : 1,
					"outlettype" : [ "" ],
					"patching_rect" : [ 402.0, 286.0, 635.0, 23.0 ],
					"text" : "sprintf write \\\"~/Documents/Max 8/Projects/sousastep/SousaFX/data/%s_rnbo_chorus.json\\\""
				}

			}
, 			{
				"box" : 				{
					"id" : "obj-19",
					"maxclass" : "newobj",
					"numinlets" : 2,
					"numoutlets" : 1,
					"outlettype" : [ "bang" ],
					"patching_rect" : [ 387.0, 25.0, 48.0, 22.0 ],
					"text" : "del 250"
				}

			}
, 			{
				"box" : 				{
					"id" : "obj-20",
					"linecount" : 4,
					"maxclass" : "message",
					"numinlets" : 2,
					"numoutlets" : 1,
					"outlettype" : [ "" ],
					"patching_rect" : [ 473.0, 46.0, 50.0, 62.0 ],
					"text" : "0. 0.875 0.013672 1."
				}

			}
, 			{
				"box" : 				{
					"id" : "obj-36",
					"maxclass" : "message",
					"numinlets" : 2,
					"numoutlets" : 1,
					"outlettype" : [ "" ],
					"patching_rect" : [ 387.0, 86.0, 75.0, 22.0 ],
					"text" : "0.2 0.2 0.2 1"
				}

			}
, 			{
				"box" : 				{
					"attr" : "bgfillcolor",
					"id" : "obj-31",
					"maxclass" : "attrui",
					"numinlets" : 1,
					"numoutlets" : 1,
					"outlettype" : [ "" ],
					"parameter_enable" : 0,
					"patching_rect" : [ 458.0, 140.0, 150.0, 22.0 ]
				}

			}
, 			{
				"box" : 				{
					"id" : "obj-26",
					"maxclass" : "newobj",
					"numinlets" : 1,
					"numoutlets" : 4,
					"outlettype" : [ "", "", "", "" ],
					"patching_rect" : [ 200.0, 567.0, 56.0, 22.0 ],
					"restore" : 					{
						"TapMult" : [ 0 ],
						"depth" : [ "depth", 50.0 ],
						"rate" : [ "rate", 50.0 ],
						"spread" : [ "spread", 0.0 ],
						"sync" : [ 1 ]
					}
,
					"text" : "autopattr",
					"varname" : "u752014305"
				}

			}
, 			{
				"box" : 				{
					"id" : "obj-68",
					"maxclass" : "newobj",
					"numinlets" : 1,
					"numoutlets" : 1,
					"outlettype" : [ "bang" ],
					"patching_rect" : [ 310.0, 59.0, 22.0, 22.0 ],
					"text" : "t b"
				}

			}
, 			{
				"box" : 				{
					"bgcolor" : [ 0.301961, 0.301961, 0.301961, 1.0 ],
					"bgcolor2" : [ 0.301961, 0.301961, 0.301961, 1.0 ],
					"bgfillcolor_angle" : 270.0,
					"bgfillcolor_autogradient" : 0.0,
					"bgfillcolor_color" : [ 0.0, 0.0, 0.0, 0.7 ],
					"bgfillcolor_color1" : [ 0.301961, 0.301961, 0.301961, 1.0 ],
					"bgfillcolor_color2" : [ 0.2, 0.2, 0.2, 1.0 ],
					"bgfillcolor_proportion" : 0.5,
					"bgfillcolor_type" : "color",
					"fontname" : "Monaco",
					"fontsize" : 11.0,
					"gradient" : 1,
					"id" : "obj-67",
					"maxclass" : "message",
					"numinlets" : 2,
					"numoutlets" : 1,
					"outlettype" : [ "" ],
					"patching_rect" : [ 241.0, 109.0, 141.0, 22.0 ],
					"presentation" : 1,
					"presentation_rect" : [ 97.173767897747439, 149.0, 35.0, 22.0 ],
					"text" : "save",
					"textjustification" : 1
				}

			}
, 			{
				"box" : 				{
					"bgcolor" : [ 0.0, 0.0, 0.0, 0.7 ],
					"hint" : "Rate Sync On/Off",
					"id" : "obj-40",
					"maxclass" : "toggle",
					"numinlets" : 1,
					"numoutlets" : 1,
					"outlettype" : [ "int" ],
					"parameter_enable" : 0,
					"patching_rect" : [ 550.0, 520.0, 24.0, 24.0 ],
					"presentation" : 1,
					"presentation_rect" : [ 29.0, 65.0, 23.0, 23.0 ],
					"varname" : "sync"
				}

			}
, 			{
				"box" : 				{
					"id" : "obj-41",
					"maxclass" : "newobj",
					"numinlets" : 2,
					"numoutlets" : 1,
					"outlettype" : [ "signal" ],
					"patcher" : 					{
						"fileversion" : 1,
						"appversion" : 						{
							"major" : 8,
							"minor" : 6,
							"revision" : 0,
							"architecture" : "x64",
							"modernui" : 1
						}
,
						"classnamespace" : "box",
						"rect" : [ 1846.0, 424.0, 459.0, 613.0 ],
						"bglocked" : 0,
						"openinpresentation" : 0,
						"default_fontsize" : 12.0,
						"default_fontface" : 0,
						"default_fontname" : "Lato",
						"gridonopen" : 2,
						"gridsize" : [ 10.0, 10.0 ],
						"gridsnaponopen" : 2,
						"objectsnaponopen" : 0,
						"statusbarvisible" : 2,
						"toolbarvisible" : 1,
						"lefttoolbarpinned" : 0,
						"toptoolbarpinned" : 0,
						"righttoolbarpinned" : 0,
						"bottomtoolbarpinned" : 0,
						"toolbars_unpinned_last_save" : 0,
						"tallnewobj" : 0,
						"boxanimatetime" : 200,
						"enablehscroll" : 1,
						"enablevscroll" : 1,
						"devicewidth" : 0.0,
						"description" : "",
						"digest" : "",
						"tags" : "",
						"style" : "",
						"subpatcher_template" : "MP-Rnbo",
						"assistshowspatchername" : 0,
						"boxes" : [ 							{
								"box" : 								{
									"id" : "obj-14",
									"linecount" : 2,
									"maxclass" : "comment",
									"numinlets" : 1,
									"numoutlets" : 0,
									"patching_rect" : [ 211.0, 294.0, 47.0, 35.0 ],
									"text" : "Wrap [0. 1.]"
								}

							}
, 							{
								"box" : 								{
									"id" : "obj-12",
									"maxclass" : "newobj",
									"numinlets" : 3,
									"numoutlets" : 1,
									"outlettype" : [ "signal" ],
									"patching_rect" : [ 110.0, 300.0, 97.0, 23.0 ],
									"text" : "pong~ wrap 0. 1."
								}

							}
, 							{
								"box" : 								{
									"id" : "obj-7",
									"maxclass" : "comment",
									"numinlets" : 1,
									"numoutlets" : 0,
									"patching_rect" : [ 270.0, 407.0, 105.0, 21.0 ],
									"text" : "Message to rnbo~"
								}

							}
, 							{
								"box" : 								{
									"comment" : "",
									"id" : "obj-43",
									"index" : 2,
									"maxclass" : "inlet",
									"numinlets" : 0,
									"numoutlets" : 1,
									"outlettype" : [ "int" ],
									"patching_rect" : [ 240.0, 360.0, 30.0, 30.0 ]
								}

							}
, 							{
								"box" : 								{
									"format" : 6,
									"id" : "obj-29",
									"maxclass" : "flonum",
									"numinlets" : 1,
									"numoutlets" : 2,
									"outlettype" : [ "", "bang" ],
									"parameter_enable" : 0,
									"patching_rect" : [ 200.0, 200.0, 50.0, 23.0 ]
								}

							}
, 							{
								"box" : 								{
									"id" : "obj-16",
									"maxclass" : "newobj",
									"numinlets" : 2,
									"numoutlets" : 1,
									"outlettype" : [ "float" ],
									"patching_rect" : [ 200.0, 170.0, 30.0, 23.0 ],
									"text" : "!/ 1."
								}

							}
, 							{
								"box" : 								{
									"id" : "obj-11",
									"linecount" : 2,
									"maxclass" : "newobj",
									"numinlets" : 2,
									"numoutlets" : 1,
									"outlettype" : [ "signal" ],
									"patching_rect" : [ 110.0, 200.0, 70.0, 37.0 ],
									"text" : "rate~ @sync lock"
								}

							}
, 							{
								"box" : 								{
									"fontface" : 0,
									"fontname" : "Lato",
									"fontsize" : 12.0,
									"id" : "obj-5",
									"maxclass" : "number~",
									"mode" : 2,
									"numinlets" : 2,
									"numoutlets" : 2,
									"outlettype" : [ "signal", "float" ],
									"patching_rect" : [ 130.0, 370.0, 56.0, 23.0 ],
									"sig" : 0.0
								}

							}
, 							{
								"box" : 								{
									"id" : "obj-2",
									"items" : [ 0.25, ",", 0.5, ",", 1, ",", 2, ",", 3, ",", 4, ",", 6, ",", 8, ",", 12, ",", 16, ",", 24, ",", 32, ",", 48, ",", 64, ",", 96, ",", 128 ],
									"maxclass" : "umenu",
									"numinlets" : 1,
									"numoutlets" : 3,
									"outlettype" : [ "int", "", "" ],
									"parameter_enable" : 1,
									"patching_rect" : [ 180.0, 140.0, 59.0, 23.0 ],
									"pattrmode" : 1,
									"saved_attribute_attributes" : 									{
										"valueof" : 										{
											"parameter_enum" : [ "0.25", "0.5", "1", "2", "3", "4", "6", "8", "12", "16", "24", "32", "48", "64", "96", "128" ],
											"parameter_initial" : [ 9 ],
											"parameter_initial_enable" : 1,
											"parameter_linknames" : 1,
											"parameter_longname" : "Divisions[1]",
											"parameter_mmax" : 15,
											"parameter_shortname" : "Divisions",
											"parameter_type" : 2
										}

									}
,
									"varname" : "Divisions[1]"
								}

							}
, 							{
								"box" : 								{
									"id" : "obj-50",
									"maxclass" : "toggle",
									"numinlets" : 1,
									"numoutlets" : 1,
									"outlettype" : [ "int" ],
									"parameter_enable" : 0,
									"patching_rect" : [ 240.0, 400.0, 24.0, 24.0 ]
								}

							}
, 							{
								"box" : 								{
									"id" : "obj-1",
									"items" : [ -90, ",", 0, ",", 90, ",", 180 ],
									"maxclass" : "umenu",
									"numinlets" : 1,
									"numoutlets" : 3,
									"outlettype" : [ "int", "", "" ],
									"parameter_enable" : 1,
									"patching_rect" : [ 280.0, 140.0, 59.0, 23.0 ],
									"pattrmode" : 1,
									"saved_attribute_attributes" : 									{
										"valueof" : 										{
											"parameter_enum" : [ "-90", "0", "90", "180" ],
											"parameter_initial" : [ 1 ],
											"parameter_initial_enable" : 1,
											"parameter_linknames" : 1,
											"parameter_longname" : "Phase[1]",
											"parameter_mmax" : 3,
											"parameter_shortname" : "Phase",
											"parameter_type" : 2
										}

									}
,
									"varname" : "Phase[1]"
								}

							}
, 							{
								"box" : 								{
									"format" : 6,
									"id" : "obj-68",
									"maxclass" : "flonum",
									"numinlets" : 1,
									"numoutlets" : 2,
									"outlettype" : [ "", "bang" ],
									"parameter_enable" : 0,
									"patching_rect" : [ 300.0, 200.0, 50.0, 23.0 ]
								}

							}
, 							{
								"box" : 								{
									"id" : "obj-65",
									"maxclass" : "newobj",
									"numinlets" : 2,
									"numoutlets" : 1,
									"outlettype" : [ "float" ],
									"patching_rect" : [ 300.0, 170.0, 41.0, 23.0 ],
									"text" : "/ 360."
								}

							}
, 							{
								"box" : 								{
									"fontface" : 0,
									"fontname" : "Lato",
									"fontsize" : 12.0,
									"id" : "obj-32",
									"maxclass" : "number~",
									"mode" : 2,
									"numinlets" : 2,
									"numoutlets" : 2,
									"outlettype" : [ "signal", "float" ],
									"patching_rect" : [ 40.0, 200.0, 56.0, 23.0 ],
									"sig" : 0.0
								}

							}
, 							{
								"box" : 								{
									"id" : "obj-18",
									"maxclass" : "newobj",
									"numinlets" : 2,
									"numoutlets" : 1,
									"outlettype" : [ "signal" ],
									"patching_rect" : [ 110.0, 270.0, 29.5, 23.0 ],
									"text" : "+~"
								}

							}
, 							{
								"box" : 								{
									"id" : "obj-46",
									"maxclass" : "message",
									"numinlets" : 2,
									"numoutlets" : 1,
									"outlettype" : [ "" ],
									"patching_rect" : [ 240.0, 430.0, 124.0, 23.0 ],
									"text" : "message lfo-mode $1"
								}

							}
, 							{
								"box" : 								{
									"id" : "obj-88",
									"linecount" : 2,
									"maxclass" : "comment",
									"numinlets" : 1,
									"numoutlets" : 0,
									"patching_rect" : [ 141.5, 335.0, 69.0, 35.0 ],
									"text" : "Phase ramp [0. 1.]"
								}

							}
, 							{
								"box" : 								{
									"id" : "obj-6",
									"linecount" : 2,
									"maxclass" : "comment",
									"numinlets" : 1,
									"numoutlets" : 0,
									"patching_rect" : [ 252.0, 194.5, 39.0, 35.0 ],
									"text" : "Rate mult."
								}

							}
, 							{
								"box" : 								{
									"id" : "obj-4",
									"maxclass" : "comment",
									"numinlets" : 1,
									"numoutlets" : 0,
									"patching_rect" : [ 350.0, 200.0, 39.0, 21.0 ],
									"text" : "[0. 1.]"
								}

							}
, 							{
								"box" : 								{
									"id" : "obj-9",
									"maxclass" : "comment",
									"numinlets" : 1,
									"numoutlets" : 0,
									"patching_rect" : [ 100.0, 460.0, 56.0, 21.0 ],
									"text" : "To rnbo~"
								}

							}
, 							{
								"box" : 								{
									"id" : "obj-8",
									"maxclass" : "comment",
									"numinlets" : 1,
									"numoutlets" : 0,
									"patching_rect" : [ 143.0, 270.0, 69.0, 21.0 ],
									"text" : "Shift phase"
								}

							}
, 							{
								"box" : 								{
									"comment" : "",
									"id" : "obj-73",
									"index" : 1,
									"maxclass" : "inlet",
									"numinlets" : 0,
									"numoutlets" : 1,
									"outlettype" : [ "signal" ],
									"patching_rect" : [ 110.0, 140.0, 30.0, 30.0 ]
								}

							}
, 							{
								"box" : 								{
									"id" : "obj-3",
									"maxclass" : "comment",
									"numinlets" : 1,
									"numoutlets" : 0,
									"patching_rect" : [ 90.0, 117.0, 70.0, 21.0 ],
									"text" : "Sync signal",
									"textjustification" : 1
								}

							}
, 							{
								"box" : 								{
									"comment" : "",
									"id" : "obj-76",
									"index" : 1,
									"maxclass" : "outlet",
									"numinlets" : 1,
									"numoutlets" : 0,
									"patching_rect" : [ 110.0, 430.0, 30.0, 30.0 ]
								}

							}
, 							{
								"box" : 								{
									"gridcolor" : [ 0.505882352941176, 0.564705882352941, 0.666666666666667, 0.25 ],
									"id" : "obj-86",
									"maxclass" : "scope~",
									"numinlets" : 2,
									"numoutlets" : 0,
									"patching_rect" : [ 60.0, 370.0, 50.0, 30.0 ]
								}

							}
, 							{
								"box" : 								{
									"id" : "obj-78",
									"maxclass" : "comment",
									"numinlets" : 1,
									"numoutlets" : 0,
									"patching_rect" : [ 340.0, 140.0, 29.0, 21.0 ],
									"text" : "deg"
								}

							}
, 							{
								"box" : 								{
									"id" : "obj-63",
									"maxclass" : "comment",
									"numinlets" : 1,
									"numoutlets" : 0,
									"patching_rect" : [ 280.0, 117.0, 60.0, 21.0 ],
									"text" : "Phase",
									"textjustification" : 1
								}

							}
, 							{
								"box" : 								{
									"id" : "obj-62",
									"maxclass" : "comment",
									"numinlets" : 1,
									"numoutlets" : 0,
									"patching_rect" : [ 180.0, 117.0, 60.333333333333314, 21.0 ],
									"text" : "Divisions",
									"textjustification" : 1
								}

							}
, 							{
								"box" : 								{
									"id" : "obj-61",
									"maxclass" : "comment",
									"numinlets" : 1,
									"numoutlets" : 0,
									"patching_rect" : [ 220.0, 335.0, 70.0, 21.0 ],
									"text" : "Sync on/off"
								}

							}
, 							{
								"box" : 								{
									"background" : 1,
									"id" : "obj-10",
									"linecount" : 6,
									"maxclass" : "comment",
									"numinlets" : 1,
									"numoutlets" : 0,
									"patching_rect" : [ 40.0, 490.0, 361.0, 93.0 ],
									"text" : "In the present case, we're using a ramp signal produced by the playlist~ object while it's reading a sample. That signal is hooked to the LFO section of the rnbo~ effect, ensuring a perfect sync between the sample reading and the effect. Synced sub-ramps can be created using the rate~ object for different tempo settings, and the phase of the ramp may also be shifted with a simple +~ object."
								}

							}
, 							{
								"box" : 								{
									"background" : 1,
									"id" : "obj-59",
									"linecount" : 4,
									"maxclass" : "comment",
									"numinlets" : 1,
									"numoutlets" : 0,
									"patching_rect" : [ 40.0, 40.0, 391.0, 64.0 ],
									"text" : "By default, the LFO in action within the effect is set to work internally to the rnbo container, using a phasor~ object. However an external [0. 1.] signal ramp may be used instead. This may be useful in some use cases where the LFO ramp needs to be synced to other DSP processes."
								}

							}
, 							{
								"box" : 								{
									"background" : 1,
									"fontface" : 1,
									"id" : "obj-57",
									"maxclass" : "comment",
									"numinlets" : 1,
									"numoutlets" : 0,
									"patching_rect" : [ 40.0, 20.0, 153.0, 21.0 ],
									"text" : "External LFO/Sync signal"
								}

							}
 ],
						"lines" : [ 							{
								"patchline" : 								{
									"destination" : [ "obj-65", 0 ],
									"source" : [ "obj-1", 1 ]
								}

							}
, 							{
								"patchline" : 								{
									"destination" : [ "obj-18", 0 ],
									"source" : [ "obj-11", 0 ]
								}

							}
, 							{
								"patchline" : 								{
									"destination" : [ "obj-5", 0 ],
									"order" : 0,
									"source" : [ "obj-12", 0 ]
								}

							}
, 							{
								"patchline" : 								{
									"destination" : [ "obj-76", 0 ],
									"order" : 1,
									"source" : [ "obj-12", 0 ]
								}

							}
, 							{
								"patchline" : 								{
									"destination" : [ "obj-86", 0 ],
									"order" : 2,
									"source" : [ "obj-12", 0 ]
								}

							}
, 							{
								"patchline" : 								{
									"destination" : [ "obj-29", 0 ],
									"source" : [ "obj-16", 0 ]
								}

							}
, 							{
								"patchline" : 								{
									"destination" : [ "obj-12", 0 ],
									"source" : [ "obj-18", 0 ]
								}

							}
, 							{
								"patchline" : 								{
									"destination" : [ "obj-16", 0 ],
									"source" : [ "obj-2", 1 ]
								}

							}
, 							{
								"patchline" : 								{
									"destination" : [ "obj-11", 1 ],
									"source" : [ "obj-29", 0 ]
								}

							}
, 							{
								"patchline" : 								{
									"destination" : [ "obj-50", 0 ],
									"source" : [ "obj-43", 0 ]
								}

							}
, 							{
								"patchline" : 								{
									"destination" : [ "obj-76", 0 ],
									"source" : [ "obj-46", 0 ]
								}

							}
, 							{
								"patchline" : 								{
									"destination" : [ "obj-46", 0 ],
									"source" : [ "obj-50", 0 ]
								}

							}
, 							{
								"patchline" : 								{
									"destination" : [ "obj-68", 0 ],
									"source" : [ "obj-65", 0 ]
								}

							}
, 							{
								"patchline" : 								{
									"destination" : [ "obj-18", 1 ],
									"source" : [ "obj-68", 0 ]
								}

							}
, 							{
								"patchline" : 								{
									"destination" : [ "obj-11", 0 ],
									"order" : 0,
									"source" : [ "obj-73", 0 ]
								}

							}
, 							{
								"patchline" : 								{
									"destination" : [ "obj-32", 0 ],
									"order" : 1,
									"source" : [ "obj-73", 0 ]
								}

							}
 ]
					}
,
					"patching_rect" : [ 516.0, 599.0, 53.5, 22.0 ],
					"saved_object_attributes" : 					{
						"description" : "",
						"digest" : "",
						"fontname" : "Lato",
						"globalpatchername" : "",
						"tags" : ""
					}
,
					"text" : "p Sync~"
				}

			}
, 			{
				"box" : 				{
					"id" : "obj-43",
					"maxclass" : "newobj",
					"numinlets" : 3,
					"numoutlets" : 3,
					"outlettype" : [ "", "", "" ],
					"patcher" : 					{
						"fileversion" : 1,
						"appversion" : 						{
							"major" : 8,
							"minor" : 6,
							"revision" : 0,
							"architecture" : "x64",
							"modernui" : 1
						}
,
						"classnamespace" : "box",
						"rect" : [ 996.0, 1820.0, 566.0, 323.0 ],
						"bglocked" : 0,
						"openinpresentation" : 0,
						"default_fontsize" : 12.0,
						"default_fontface" : 0,
						"default_fontname" : "Lato",
						"gridonopen" : 2,
						"gridsize" : [ 10.0, 10.0 ],
						"gridsnaponopen" : 2,
						"objectsnaponopen" : 0,
						"statusbarvisible" : 2,
						"toolbarvisible" : 1,
						"lefttoolbarpinned" : 0,
						"toptoolbarpinned" : 0,
						"righttoolbarpinned" : 0,
						"bottomtoolbarpinned" : 0,
						"toolbars_unpinned_last_save" : 0,
						"tallnewobj" : 0,
						"boxanimatetime" : 200,
						"enablehscroll" : 1,
						"enablevscroll" : 1,
						"devicewidth" : 0.0,
						"description" : "",
						"digest" : "",
						"tags" : "",
						"style" : "",
						"subpatcher_template" : "MP-Rnbo",
						"assistshowspatchername" : 0,
						"boxes" : [ 							{
								"box" : 								{
									"id" : "obj-34",
									"maxclass" : "comment",
									"numinlets" : 1,
									"numoutlets" : 0,
									"patching_rect" : [ 450.0, 250.0, 39.0, 21.0 ],
									"text" : "Attrui"
								}

							}
, 							{
								"box" : 								{
									"id" : "obj-33",
									"maxclass" : "message",
									"numinlets" : 2,
									"numoutlets" : 1,
									"outlettype" : [ "" ],
									"patching_rect" : [ 410.0, 140.0, 127.0, 23.0 ],
									"text" : "bgcolor 0.2 0.2 0.2 0.3"
								}

							}
, 							{
								"box" : 								{
									"id" : "obj-32",
									"maxclass" : "message",
									"numinlets" : 2,
									"numoutlets" : 1,
									"outlettype" : [ "" ],
									"patching_rect" : [ 390.0, 170.0, 106.0, 23.0 ],
									"text" : "bgcolor 0. 0. 0. 0.7"
								}

							}
, 							{
								"box" : 								{
									"comment" : "",
									"id" : "obj-27",
									"index" : 3,
									"maxclass" : "outlet",
									"numinlets" : 1,
									"numoutlets" : 0,
									"patching_rect" : [ 410.0, 240.0, 30.0, 30.0 ]
								}

							}
, 							{
								"box" : 								{
									"id" : "obj-25",
									"maxclass" : "comment",
									"numinlets" : 1,
									"numoutlets" : 0,
									"patching_rect" : [ 387.0, 34.0, 33.0, 21.0 ],
									"text" : "Sync"
								}

							}
, 							{
								"box" : 								{
									"comment" : "",
									"id" : "obj-26",
									"index" : 3,
									"maxclass" : "inlet",
									"numinlets" : 0,
									"numoutlets" : 1,
									"outlettype" : [ "int" ],
									"patching_rect" : [ 390.0, 60.0, 30.0, 30.0 ]
								}

							}
, 							{
								"box" : 								{
									"id" : "obj-11",
									"maxclass" : "comment",
									"numinlets" : 1,
									"numoutlets" : 0,
									"patching_rect" : [ 248.5, 34.0, 33.0, 21.0 ],
									"text" : "Mult"
								}

							}
, 							{
								"box" : 								{
									"id" : "obj-9",
									"maxclass" : "comment",
									"numinlets" : 1,
									"numoutlets" : 0,
									"patching_rect" : [ 187.0, 34.0, 56.0, 21.0 ],
									"text" : "Message"
								}

							}
, 							{
								"box" : 								{
									"id" : "obj-3",
									"maxclass" : "comment",
									"numinlets" : 1,
									"numoutlets" : 0,
									"patching_rect" : [ 90.0, 250.0, 56.0, 21.0 ],
									"text" : "Message"
								}

							}
, 							{
								"box" : 								{
									"id" : "obj-78",
									"linecount" : 2,
									"maxclass" : "comment",
									"numinlets" : 1,
									"numoutlets" : 0,
									"patching_rect" : [ 310.0, 140.0, 60.0, 35.0 ],
									"text" : "rate multiplier"
								}

							}
, 							{
								"box" : 								{
									"id" : "obj-8",
									"linecount" : 2,
									"maxclass" : "message",
									"numinlets" : 2,
									"numoutlets" : 1,
									"outlettype" : [ "" ],
									"patching_rect" : [ 270.0, 180.0, 80.0, 37.0 ],
									"text" : "message tap-mult $1"
								}

							}
, 							{
								"box" : 								{
									"id" : "obj-7",
									"items" : [ 1, ",", 0.5, ",", 2 ],
									"maxclass" : "umenu",
									"numinlets" : 1,
									"numoutlets" : 3,
									"outlettype" : [ "int", "", "" ],
									"parameter_enable" : 0,
									"patching_rect" : [ 250.0, 150.0, 59.0, 23.0 ]
								}

							}
, 							{
								"box" : 								{
									"comment" : "",
									"id" : "obj-6",
									"index" : 2,
									"maxclass" : "inlet",
									"numinlets" : 0,
									"numoutlets" : 1,
									"outlettype" : [ "int" ],
									"patching_rect" : [ 250.0, 60.0, 30.0, 30.0 ]
								}

							}
, 							{
								"box" : 								{
									"comment" : "",
									"id" : "obj-36",
									"index" : 1,
									"maxclass" : "outlet",
									"numinlets" : 1,
									"numoutlets" : 0,
									"patching_rect" : [ 50.0, 240.0, 30.0, 30.0 ]
								}

							}
, 							{
								"box" : 								{
									"id" : "obj-30",
									"maxclass" : "comment",
									"numinlets" : 1,
									"numoutlets" : 0,
									"patching_rect" : [ 240.0, 250.0, 56.0, 21.0 ],
									"text" : "To rnbo~"
								}

							}
, 							{
								"box" : 								{
									"comment" : "",
									"id" : "obj-29",
									"index" : 2,
									"maxclass" : "outlet",
									"numinlets" : 1,
									"numoutlets" : 0,
									"patching_rect" : [ 200.0, 240.0, 30.0, 30.0 ]
								}

							}
, 							{
								"box" : 								{
									"id" : "obj-28",
									"maxclass" : "message",
									"numinlets" : 2,
									"numoutlets" : 1,
									"outlettype" : [ "" ],
									"patching_rect" : [ 200.0, 110.0, 125.0, 23.0 ],
									"text" : "message tap-tempo 0."
								}

							}
, 							{
								"box" : 								{
									"comment" : "",
									"id" : "obj-23",
									"index" : 1,
									"maxclass" : "inlet",
									"numinlets" : 0,
									"numoutlets" : 1,
									"outlettype" : [ "" ],
									"patching_rect" : [ 200.0, 60.0, 30.0, 30.0 ]
								}

							}
, 							{
								"box" : 								{
									"id" : "obj-21",
									"linecount" : 5,
									"maxclass" : "comment",
									"numinlets" : 1,
									"numoutlets" : 0,
									"patching_rect" : [ 50.0, 20.0, 107.0, 78.0 ],
									"text" : "Hit any key while holding the alt key doesn't do anything because i removed it"
								}

							}
, 							{
								"box" : 								{
									"id" : "obj-15",
									"maxclass" : "newobj",
									"numinlets" : 1,
									"numoutlets" : 1,
									"outlettype" : [ "" ],
									"patching_rect" : [ 430.0, 60.0, 70.0, 23.0 ],
									"text" : "loadmess 0"
								}

							}
, 							{
								"box" : 								{
									"id" : "obj-22",
									"maxclass" : "newobj",
									"numinlets" : 3,
									"numoutlets" : 3,
									"outlettype" : [ "bang", "bang", "" ],
									"patching_rect" : [ 390.0, 110.0, 59.0, 23.0 ],
									"text" : "sel 0 1"
								}

							}
 ],
						"lines" : [ 							{
								"patchline" : 								{
									"destination" : [ "obj-22", 0 ],
									"source" : [ "obj-15", 0 ]
								}

							}
, 							{
								"patchline" : 								{
									"destination" : [ "obj-32", 0 ],
									"source" : [ "obj-22", 0 ]
								}

							}
, 							{
								"patchline" : 								{
									"destination" : [ "obj-33", 0 ],
									"source" : [ "obj-22", 1 ]
								}

							}
, 							{
								"patchline" : 								{
									"destination" : [ "obj-28", 0 ],
									"source" : [ "obj-23", 0 ]
								}

							}
, 							{
								"patchline" : 								{
									"destination" : [ "obj-22", 0 ],
									"source" : [ "obj-26", 0 ]
								}

							}
, 							{
								"patchline" : 								{
									"destination" : [ "obj-29", 0 ],
									"source" : [ "obj-28", 0 ]
								}

							}
, 							{
								"patchline" : 								{
									"destination" : [ "obj-27", 0 ],
									"source" : [ "obj-32", 0 ]
								}

							}
, 							{
								"patchline" : 								{
									"destination" : [ "obj-27", 0 ],
									"source" : [ "obj-33", 0 ]
								}

							}
, 							{
								"patchline" : 								{
									"destination" : [ "obj-7", 0 ],
									"source" : [ "obj-6", 0 ]
								}

							}
, 							{
								"patchline" : 								{
									"destination" : [ "obj-8", 0 ],
									"source" : [ "obj-7", 1 ]
								}

							}
, 							{
								"patchline" : 								{
									"destination" : [ "obj-29", 0 ],
									"source" : [ "obj-8", 0 ]
								}

							}
 ]
					}
,
					"patching_rect" : [ 207.5, 453.0, 44.0, 22.0 ],
					"saved_object_attributes" : 					{
						"description" : "",
						"digest" : "",
						"fontname" : "Lato",
						"globalpatchername" : "",
						"tags" : ""
					}
,
					"text" : "p Rate"
				}

			}
, 			{
				"box" : 				{
					"bgcolor" : [ 0.0, 0.0, 0.0, 0.7 ],
					"bgfillcolor_angle" : 270.0,
					"bgfillcolor_autogradient" : 0.0,
					"bgfillcolor_color" : [ 0.0, 0.0, 0.0, 0.7 ],
					"bgfillcolor_color1" : [ 0.301961, 0.301961, 0.301961, 1.0 ],
					"bgfillcolor_color2" : [ 0.2, 0.2, 0.2, 1.0 ],
					"bgfillcolor_proportion" : 0.5,
					"bgfillcolor_type" : "color",
					"fontname" : "Monaco",
					"fontsize" : 10.0,
					"hint" : "Tempo tapping multiplier",
					"id" : "obj-46",
					"items" : [ "x", 1, ",", "x", 2, ",", "/", 2 ],
					"maxclass" : "umenu",
					"numinlets" : 1,
					"numoutlets" : 3,
					"outlettype" : [ "int", "", "" ],
					"parameter_enable" : 1,
					"patching_rect" : [ 220.0, 407.0, 45.5, 21.0 ],
					"presentation" : 1,
					"presentation_rect" : [ 122.173767897747439, 40.0, 51.0, 21.0 ],
					"saved_attribute_attributes" : 					{
						"valueof" : 						{
							"parameter_enum" : [ "x 1", "x 2", "/ 2" ],
							"parameter_initial" : [ 0 ],
							"parameter_initial_enable" : 1,
							"parameter_linknames" : 1,
							"parameter_longname" : "TapMult",
							"parameter_mmax" : 2,
							"parameter_shortname" : "TapMult",
							"parameter_type" : 2
						}

					}
,
					"varname" : "TapMult"
				}

			}
, 			{
				"box" : 				{
					"bgcolor" : [ 0.0, 0.0, 0.0, 0.701960784313725 ],
					"fontname" : "Monaco",
					"fontsize" : 10.0,
					"hint" : "Click the Tap Tempo message box at least 3 times to tap tempo, or hit any key while holding the alt key.",
					"id" : "obj-48",
					"maxclass" : "textbutton",
					"numinlets" : 1,
					"numoutlets" : 3,
					"outlettype" : [ "", "", "int" ],
					"parameter_enable" : 0,
					"patching_rect" : [ 124.0, 447.0, 63.5, 20.0 ],
					"presentation" : 1,
					"presentation_rect" : [ 57.173767897747439, 40.5, 63.5, 20.0 ],
					"text" : "Tap Tempo",
					"texton" : "Tap Tempo",
					"textoncolor" : [ 0.968627, 0.968627, 0.968627, 1.0 ]
				}

			}
, 			{
				"box" : 				{
					"attr" : "spread",
					"attr_display" : 1,
					"bgcolor" : [ 0.0, 0.0, 0.0, 0.7 ],
					"fontname" : "Monaco",
					"hint" : "Adjusts the amount of offset between the left and right channel of the LFO",
					"id" : "obj-50",
					"lock" : 1,
					"maxclass" : "attrui",
					"numinlets" : 1,
					"numoutlets" : 1,
					"outlettype" : [ "" ],
					"parameter_enable" : 0,
					"patching_rect" : [ 299.0, 557.0, 115.0, 23.0 ],
					"presentation" : 1,
					"presentation_rect" : [ 57.173767897747439, 120.69130434782609, 116.0, 23.0 ],
					"text_width" : 64.0,
					"varname" : "spread"
				}

			}
, 			{
				"box" : 				{
					"attr" : "rate",
					"attr_display" : 1,
					"bgcolor" : [ 0.2, 0.2, 0.2, 0.3 ],
					"fontname" : "Monaco",
					"hint" : "Sets the frequency of the LFO",
					"id" : "obj-52",
					"lock" : 1,
					"maxclass" : "attrui",
					"numinlets" : 1,
					"numoutlets" : 1,
					"outlettype" : [ "" ],
					"parameter_enable" : 0,
					"patching_rect" : [ 278.0, 478.0, 116.0, 23.0 ],
					"presentation" : 1,
					"presentation_rect" : [ 57.173767897747439, 65.34347826086956, 116.0, 23.0 ],
					"text_width" : 64.0,
					"varname" : "rate"
				}

			}
, 			{
				"box" : 				{
					"color" : [ 0.999996185302734, 0.99993908405304, 0.041033305227757, 1.0 ],
					"fontface" : 1,
					"fontsize" : 14.0,
					"hint" : "To make a preset, unlock the patcher and highlight the rnbo~ object, then click on the snapshot sidebar icon. From here, click on the + icon or the New... button to add a new snapshot and the play button to recall it. Just like standard Max snapshots , you can embed them in the patcher and rename them as you see fit.",
					"id" : "obj-53",
					"maxclass" : "newobj",
					"numinlets" : 4,
					"numoutlets" : 2,
					"outlettype" : [ "signal", "signal" ],
					"patching_rect" : [ 278.0, 685.0, 98.0, 24.0 ],
					"saved_object_attributes" : 					{
						"parameter_enable" : 0,
						"parameter_mappable" : 0
					}
,
					"text" : "rnbo.chorus~",
					"varname" : "rnbo~[1]"
				}

			}
, 			{
				"box" : 				{
					"attr" : "depth",
					"attr_display" : 1,
					"bgcolor" : [ 0.0, 0.0, 0.0, 0.7 ],
					"fontname" : "Monaco",
					"hint" : "Adjusts the amount of modulation ",
					"id" : "obj-54",
					"lock" : 1,
					"maxclass" : "attrui",
					"numinlets" : 1,
					"numoutlets" : 1,
					"outlettype" : [ "" ],
					"parameter_enable" : 0,
					"patching_rect" : [ 278.0, 508.0, 116.0, 23.0 ],
					"presentation" : 1,
					"presentation_rect" : [ 57.173767897747439, 93.017391304347825, 116.0, 23.0 ],
					"text_width" : 64.0,
					"varname" : "depth"
				}

			}
, 			{
				"box" : 				{
					"bgcolor" : [ 0.07843137254902, 0.07843137254902, 0.07843137254902, 1.0 ],
					"color" : [ 0.101960784313725, 0.796078431372549, 0.258823529411765, 1.0 ],
					"id" : "obj-268",
					"maxclass" : "newobj",
					"numinlets" : 1,
					"numoutlets" : 1,
					"outlettype" : [ "signal" ],
					"patching_rect" : [ 516.0, 438.0, 92.0, 22.0 ],
					"text" : "r~ main_phasor",
					"textcolor" : [ 0.647058823529412, 1.0, 0.725490196078431, 1.0 ]
				}

			}
, 			{
				"box" : 				{
					"fontname" : "Ableton Sans Light",
					"id" : "obj-9",
					"maxclass" : "comment",
					"numinlets" : 0,
					"numoutlets" : 0,
					"patching_rect" : [ 875.0, 596.0, 94.0, 21.0 ],
					"suppressinlet" : 1,
					"text" : "report 0 latency"
				}

			}
, 			{
				"box" : 				{
					"id" : "obj-7",
					"maxclass" : "newobj",
					"numinlets" : 1,
					"numoutlets" : 1,
					"outlettype" : [ "" ],
					"patching_rect" : [ 798.0, 596.0, 70.0, 22.0 ],
					"text" : "loadmess 0"
				}

			}
, 			{
				"box" : 				{
					"comment" : "bypass chorus",
					"id" : "obj-6",
					"index" : 0,
					"maxclass" : "inlet",
					"numinlets" : 0,
					"numoutlets" : 1,
					"outlettype" : [ "" ],
					"patching_rect" : [ 798.0, 418.0, 30.0, 30.0 ]
				}

			}
, 			{
				"box" : 				{
					"comment" : "latency",
					"id" : "obj-5",
					"index" : 0,
					"maxclass" : "outlet",
					"numinlets" : 1,
					"numoutlets" : 0,
					"patching_rect" : [ 798.0, 656.0, 30.0, 30.0 ]
				}

			}
, 			{
				"box" : 				{
					"comment" : "right output",
					"id" : "obj-4",
					"index" : 0,
					"maxclass" : "outlet",
					"numinlets" : 1,
					"numoutlets" : 0,
					"patching_rect" : [ 357.0, 738.0, 30.0, 30.0 ]
				}

			}
, 			{
				"box" : 				{
					"comment" : "left output",
					"id" : "obj-3",
					"index" : 0,
					"maxclass" : "outlet",
					"numinlets" : 1,
					"numoutlets" : 0,
					"patching_rect" : [ 278.0, 738.0, 30.0, 30.0 ]
				}

			}
, 			{
				"box" : 				{
					"comment" : "right input",
					"id" : "obj-2",
					"index" : 0,
					"maxclass" : "inlet",
					"numinlets" : 0,
					"numoutlets" : 1,
					"outlettype" : [ "" ],
					"patching_rect" : [ 380.0, 595.0, 30.0, 30.0 ]
				}

			}
, 			{
				"box" : 				{
					"comment" : "left imput",
					"id" : "obj-1",
					"index" : 0,
					"maxclass" : "inlet",
					"numinlets" : 0,
					"numoutlets" : 1,
					"outlettype" : [ "" ],
					"patching_rect" : [ 311.0, 595.0, 30.0, 30.0 ]
				}

			}
, 			{
				"box" : 				{
					"background" : 1,
					"fontface" : 0,
					"id" : "obj-8",
					"linecount" : 6,
					"maxclass" : "comment",
					"numinlets" : 1,
					"numoutlets" : 0,
					"patching_rect" : [ 635.0, 147.0, 402.0, 87.0 ],
					"text" : "Chorus is a type of modulation effect used to thicken and color a signal enough to sound as if there are multiple instruments playing. The effect is achieved by taking a signal and mixing it with one or more modulated copies of itself. The modulations are produced by an LFO that controls short delay variations of the original signal. Stereo modulation can be obtained by shifting the phase of one channel of the LFO."
				}

			}
, 			{
				"box" : 				{
					"background" : 1,
					"fontface" : 1,
					"fontname" : "Ableton Sans Bold",
					"fontsize" : 18.0,
					"hint" : "Chorus is a type of modulation effect used to thicken and color a signal enough to sound as if there are multiple instruments playing. The effect is achieved by taking a signal and mixing it with one or more modulated copies of itself. The modulations are produced by an LFO that controls short delay variations of the original signal. Stereo modulation can be obtained by shifting the phase of one channel of the LFO.",
					"id" : "obj-49",
					"maxclass" : "comment",
					"numinlets" : 1,
					"numoutlets" : 0,
					"patching_rect" : [ 635.0, 121.0, 121.0, 28.0 ],
					"presentation" : 1,
					"presentation_rect" : [ 55.0, -1.0, 121.0, 28.0 ],
					"text" : "RNBO Chorus"
				}

			}
, 			{
				"box" : 				{
					"background" : 1,
					"fontface" : 1,
					"fontname" : "Ableton Sans Bold",
					"hint" : "Chorus is a type of modulation effect used to thicken and color a signal enough to sound as if there are multiple instruments playing. The effect is achieved by taking a signal and mixing it with one or more modulated copies of itself. The modulations are produced by an LFO that controls short delay variations of the original signal. Stereo modulation can be obtained by shifting the phase of one channel of the LFO.",
					"id" : "obj-28",
					"maxclass" : "comment",
					"numinlets" : 1,
					"numoutlets" : 0,
					"patching_rect" : [ 795.0, 127.0, 161.0, 21.0 ],
					"presentation" : 1,
					"presentation_rect" : [ 35.0, 18.0, 161.0, 21.0 ],
					"text" : "Classic stereo chorus effect"
				}

			}
, 			{
				"box" : 				{
					"background" : 1,
					"fontface" : 0,
					"fontname" : "Monaco",
					"fontsize" : 10.0,
					"id" : "obj-55",
					"linecount" : 2,
					"maxclass" : "comment",
					"numinlets" : 1,
					"numoutlets" : 0,
					"patching_rect" : [ 575.0, 523.0, 49.0, 31.0 ],
					"text" : "Sync On/Off",
					"textjustification" : 1
				}

			}
, 			{
				"box" : 				{
					"background" : 1,
					"fontface" : 0,
					"fontsize" : 10.0,
					"id" : "obj-27",
					"maxclass" : "comment",
					"numinlets" : 1,
					"numoutlets" : 0,
					"patching_rect" : [ 408.0, 559.5, 18.0, 18.0 ],
					"text" : "%",
					"textjustification" : 1
				}

			}
, 			{
				"box" : 				{
					"background" : 1,
					"fontface" : 0,
					"fontsize" : 10.0,
					"id" : "obj-57",
					"maxclass" : "comment",
					"numinlets" : 1,
					"numoutlets" : 0,
					"patching_rect" : [ 388.0, 481.0, 18.0, 18.0 ],
					"text" : "%",
					"textjustification" : 1
				}

			}
, 			{
				"box" : 				{
					"background" : 1,
					"fontface" : 0,
					"fontsize" : 10.0,
					"id" : "obj-58",
					"maxclass" : "comment",
					"numinlets" : 1,
					"numoutlets" : 0,
					"patching_rect" : [ 388.0, 511.0, 18.0, 18.0 ],
					"text" : "%",
					"textjustification" : 1
				}

			}
 ],
		"lines" : [ 			{
				"patchline" : 				{
					"destination" : [ "obj-53", 0 ],
					"source" : [ "obj-1", 0 ]
				}

			}
, 			{
				"patchline" : 				{
					"destination" : [ "obj-60", 0 ],
					"source" : [ "obj-11", 0 ]
				}

			}
, 			{
				"patchline" : 				{
					"destination" : [ "obj-11", 0 ],
					"source" : [ "obj-12", 0 ]
				}

			}
, 			{
				"patchline" : 				{
					"destination" : [ "obj-14", 0 ],
					"source" : [ "obj-12", 1 ]
				}

			}
, 			{
				"patchline" : 				{
					"destination" : [ "obj-30", 0 ],
					"source" : [ "obj-13", 0 ]
				}

			}
, 			{
				"patchline" : 				{
					"destination" : [ "obj-15", 0 ],
					"source" : [ "obj-14", 0 ]
				}

			}
, 			{
				"patchline" : 				{
					"destination" : [ "obj-15", 0 ],
					"source" : [ "obj-16", 0 ]
				}

			}
, 			{
				"patchline" : 				{
					"destination" : [ "obj-18", 0 ],
					"source" : [ "obj-17", 0 ]
				}

			}
, 			{
				"patchline" : 				{
					"destination" : [ "obj-45", 0 ],
					"source" : [ "obj-18", 0 ]
				}

			}
, 			{
				"patchline" : 				{
					"destination" : [ "obj-36", 0 ],
					"source" : [ "obj-19", 0 ]
				}

			}
, 			{
				"patchline" : 				{
					"destination" : [ "obj-53", 1 ],
					"source" : [ "obj-2", 0 ]
				}

			}
, 			{
				"patchline" : 				{
					"destination" : [ "obj-31", 0 ],
					"source" : [ "obj-20", 0 ]
				}

			}
, 			{
				"patchline" : 				{
					"destination" : [ "obj-48", 0 ],
					"source" : [ "obj-22", 0 ]
				}

			}
, 			{
				"patchline" : 				{
					"destination" : [ "obj-53", 0 ],
					"source" : [ "obj-26", 1 ]
				}

			}
, 			{
				"patchline" : 				{
					"destination" : [ "obj-41", 0 ],
					"source" : [ "obj-268", 0 ]
				}

			}
, 			{
				"patchline" : 				{
					"destination" : [ "obj-21", 0 ],
					"source" : [ "obj-29", 0 ]
				}

			}
, 			{
				"patchline" : 				{
					"destination" : [ "obj-15", 0 ],
					"source" : [ "obj-30", 0 ]
				}

			}
, 			{
				"patchline" : 				{
					"destination" : [ "obj-67", 0 ],
					"source" : [ "obj-31", 0 ]
				}

			}
, 			{
				"patchline" : 				{
					"destination" : [ "obj-31", 0 ],
					"source" : [ "obj-36", 0 ]
				}

			}
, 			{
				"patchline" : 				{
					"destination" : [ "obj-41", 1 ],
					"order" : 0,
					"source" : [ "obj-40", 0 ]
				}

			}
, 			{
				"patchline" : 				{
					"destination" : [ "obj-43", 2 ],
					"midpoints" : [ 559.5, 570.0, 484.0, 570.0, 484.0, 441.0, 242.0, 441.0 ],
					"order" : 1,
					"source" : [ "obj-40", 0 ]
				}

			}
, 			{
				"patchline" : 				{
					"destination" : [ "obj-53", 2 ],
					"source" : [ "obj-41", 0 ]
				}

			}
, 			{
				"patchline" : 				{
					"destination" : [ "obj-52", 0 ],
					"source" : [ "obj-43", 2 ]
				}

			}
, 			{
				"patchline" : 				{
					"destination" : [ "obj-53", 0 ],
					"source" : [ "obj-43", 1 ]
				}

			}
, 			{
				"patchline" : 				{
					"destination" : [ "obj-60", 1 ],
					"source" : [ "obj-45", 0 ]
				}

			}
, 			{
				"patchline" : 				{
					"destination" : [ "obj-43", 1 ],
					"source" : [ "obj-46", 0 ]
				}

			}
, 			{
				"patchline" : 				{
					"destination" : [ "obj-43", 0 ],
					"source" : [ "obj-48", 0 ]
				}

			}
, 			{
				"patchline" : 				{
					"destination" : [ "obj-53", 0 ],
					"source" : [ "obj-50", 0 ]
				}

			}
, 			{
				"patchline" : 				{
					"destination" : [ "obj-53", 0 ],
					"source" : [ "obj-52", 0 ]
				}

			}
, 			{
				"patchline" : 				{
					"destination" : [ "obj-3", 0 ],
					"source" : [ "obj-53", 0 ]
				}

			}
, 			{
				"patchline" : 				{
					"destination" : [ "obj-4", 0 ],
					"source" : [ "obj-53", 1 ]
				}

			}
, 			{
				"patchline" : 				{
					"destination" : [ "obj-53", 0 ],
					"source" : [ "obj-54", 0 ]
				}

			}
, 			{
				"patchline" : 				{
					"destination" : [ "obj-15", 0 ],
					"source" : [ "obj-59", 0 ]
				}

			}
, 			{
				"patchline" : 				{
					"destination" : [ "obj-15", 0 ],
					"source" : [ "obj-60", 0 ]
				}

			}
, 			{
				"patchline" : 				{
					"destination" : [ "obj-12", 0 ],
					"order" : 1,
					"source" : [ "obj-67", 0 ]
				}

			}
, 			{
				"patchline" : 				{
					"destination" : [ "obj-68", 0 ],
					"order" : 0,
					"source" : [ "obj-67", 0 ]
				}

			}
, 			{
				"patchline" : 				{
					"destination" : [ "obj-19", 0 ],
					"order" : 1,
					"source" : [ "obj-68", 0 ]
				}

			}
, 			{
				"patchline" : 				{
					"destination" : [ "obj-20", 0 ],
					"order" : 0,
					"source" : [ "obj-68", 0 ]
				}

			}
, 			{
				"patchline" : 				{
					"destination" : [ "obj-5", 0 ],
					"source" : [ "obj-7", 0 ]
				}

			}
 ],
		"parameters" : 		{
			"obj-41::obj-1" : [ "Phase[1]", "Phase", 0 ],
			"obj-41::obj-2" : [ "Divisions[1]", "Divisions", 0 ],
			"obj-46" : [ "TapMult", "TapMult", 0 ],
			"parameterbanks" : 			{
				"0" : 				{
					"index" : 0,
					"name" : "",
					"parameters" : [ "-", "-", "-", "-", "-", "-", "-", "-" ]
				}

			}
,
			"inherited_shortname" : 1
		}
,
		"dependency_cache" : [ 			{
				"name" : "rnbo.chorus~.mxo",
				"type" : "iLaX"
			}
 ],
		"autosave" : 0
	}

}
