{
	"patcher" : 	{
		"fileversion" : 1,
		"appversion" : 		{
			"major" : 8,
			"minor" : 6,
			"revision" : 4,
			"architecture" : "x64",
			"modernui" : 1
		}
,
		"classnamespace" : "box",
		"rect" : [ 656.0, 429.0, 1081.0, 877.0 ],
		"bglocked" : 0,
		"openinpresentation" : 1,
		"default_fontsize" : 12.0,
		"default_fontface" : 0,
		"default_fontname" : "Arial",
		"gridonopen" : 1,
		"gridsize" : [ 15.0, 15.0 ],
		"gridsnaponopen" : 1,
		"objectsnaponopen" : 1,
		"statusbarvisible" : 2,
		"toolbarvisible" : 0,
		"lefttoolbarpinned" : 0,
		"toptoolbarpinned" : 0,
		"righttoolbarpinned" : 0,
		"bottomtoolbarpinned" : 0,
		"toolbars_unpinned_last_save" : 0,
		"tallnewobj" : 0,
		"boxanimatetime" : 200,
		"enablehscroll" : 1,
		"enablevscroll" : 1,
		"devicewidth" : 0.0,
		"description" : "",
		"digest" : "",
		"tags" : "",
		"style" : "",
		"subpatcher_template" : "",
		"assistshowspatchername" : 0,
		"enabletransparentbgwithtitlebar" : 1,
		"title" : "main input stutter, tremolo, filters",
		"boxes" : [ 			{
				"box" : 				{
					"id" : "obj-16",
					"maxclass" : "newobj",
					"numinlets" : 1,
					"numoutlets" : 0,
					"patching_rect" : [ 63.0, 499.5, 117.0, 22.0 ],
					"text" : "s~ main_stutter_env"
				}

			}
, 			{
				"box" : 				{
					"id" : "obj-15",
					"maxclass" : "newobj",
					"numinlets" : 1,
					"numoutlets" : 1,
					"outlettype" : [ "signal" ],
					"patching_rect" : [ 112.0, 449.0, 35.0, 22.0 ],
					"text" : "abs~"
				}

			}
, 			{
				"box" : 				{
					"id" : "obj-12",
					"maxclass" : "newobj",
					"numinlets" : 1,
					"numoutlets" : 1,
					"outlettype" : [ "signal" ],
					"patching_rect" : [ 66.0, 449.0, 35.0, 22.0 ],
					"text" : "abs~"
				}

			}
, 			{
				"box" : 				{
					"id" : "obj-13",
					"maxclass" : "newobj",
					"numinlets" : 1,
					"numoutlets" : 0,
					"patching_rect" : [ 1131.0, 404.0, 248.0, 22.0 ],
					"text" : "s #1\" Stutter, Tremolo, Filters_saved\""
				}

			}
, 			{
				"box" : 				{
					"fontname" : "Monaco",
					"id" : "obj-426",
					"maxclass" : "newobj",
					"numinlets" : 1,
					"numoutlets" : 1,
					"outlettype" : [ "" ],
					"patching_rect" : [ 1581.0, 711.0, 66.0, 23.0 ],
					"text" : "deferlow"
				}

			}
, 			{
				"box" : 				{
					"fontname" : "Monaco",
					"id" : "obj-427",
					"maxclass" : "newobj",
					"numinlets" : 1,
					"numoutlets" : 2,
					"outlettype" : [ "bang", "bang" ],
					"patching_rect" : [ 1581.0, 680.0, 45.0, 23.0 ],
					"text" : "t b b"
				}

			}
, 			{
				"box" : 				{
					"id" : "obj-431",
					"maxclass" : "newobj",
					"numinlets" : 2,
					"numoutlets" : 1,
					"outlettype" : [ "" ],
					"patching_rect" : [ 1581.0, 649.0, 82.0, 22.0 ],
					"text" : "gate 1 0"
				}

			}
, 			{
				"box" : 				{
					"fontname" : "Monaco",
					"id" : "obj-432",
					"maxclass" : "message",
					"numinlets" : 2,
					"numoutlets" : 1,
					"outlettype" : [ "" ],
					"patching_rect" : [ 1581.0, 743.0, 45.0, 23.0 ],
					"text" : "write"
				}

			}
, 			{
				"box" : 				{
					"id" : "obj-434",
					"maxclass" : "newobj",
					"numinlets" : 2,
					"numoutlets" : 1,
					"outlettype" : [ "" ],
					"patching_rect" : [ 1487.0, 649.0, 82.0, 22.0 ],
					"text" : "gate 1 0"
				}

			}
, 			{
				"box" : 				{
					"id" : "obj-435",
					"maxclass" : "newobj",
					"numinlets" : 1,
					"numoutlets" : 1,
					"outlettype" : [ "int" ],
					"patching_rect" : [ 1487.0, 609.0, 40.0, 22.0 ],
					"text" : "active"
				}

			}
, 			{
				"box" : 				{
					"id" : "obj-440",
					"maxclass" : "newobj",
					"numinlets" : 0,
					"numoutlets" : 1,
					"outlettype" : [ "" ],
					"patching_rect" : [ 1644.0, 609.0, 87.0, 22.0 ],
					"text" : "r saveas_bang"
				}

			}
, 			{
				"box" : 				{
					"id" : "obj-442",
					"maxclass" : "newobj",
					"numinlets" : 0,
					"numoutlets" : 1,
					"outlettype" : [ "" ],
					"patching_rect" : [ 1550.0, 609.0, 75.0, 22.0 ],
					"text" : "r save_bang"
				}

			}
, 			{
				"box" : 				{
					"id" : "obj-11",
					"maxclass" : "newobj",
					"numinlets" : 2,
					"numoutlets" : 1,
					"outlettype" : [ "" ],
					"patching_rect" : [ 1167.5, 626.0, 52.0, 22.0 ],
					"text" : "gate 1 0"
				}

			}
, 			{
				"box" : 				{
					"id" : "obj-10",
					"maxclass" : "newobj",
					"numinlets" : 1,
					"numoutlets" : 1,
					"outlettype" : [ "int" ],
					"patching_rect" : [ 1167.5, 589.0, 40.0, 22.0 ],
					"text" : "active"
				}

			}
, 			{
				"box" : 				{
					"id" : "obj-7",
					"maxclass" : "newobj",
					"numinlets" : 1,
					"numoutlets" : 1,
					"outlettype" : [ "" ],
					"patching_rect" : [ 145.0, 31.0, 113.0, 22.0 ],
					"text" : "loadmess 338. 289."
				}

			}
, 			{
				"box" : 				{
					"id" : "obj-6",
					"maxclass" : "newobj",
					"numinlets" : 1,
					"numoutlets" : 1,
					"outlettype" : [ "bang" ],
					"patching_rect" : [ 310.0, 31.0, 63.0, 22.0 ],
					"text" : "closebang"
				}

			}
, 			{
				"box" : 				{
					"id" : "obj-123",
					"maxclass" : "newobj",
					"numinlets" : 3,
					"numoutlets" : 2,
					"outlettype" : [ "", "bang" ],
					"patching_rect" : [ 145.0, 72.0, 350.0, 22.0 ],
					"text" : "\"floating window positioner\" #1\" Stutter, Tremolo, Filters\""
				}

			}
, 			{
				"box" : 				{
					"fontsize" : 8.935726999796946,
					"id" : "obj-2",
					"linecount" : 5,
					"maxclass" : "message",
					"numinlets" : 2,
					"numoutlets" : 1,
					"outlettype" : [ "" ],
					"patching_rect" : [ 15.0, 22.0, 96.0, 58.0 ],
					"text" : "window flags nofloat, window flags zoom, window flags grow, window exec, savewindow 0"
				}

			}
, 			{
				"box" : 				{
					"id" : "obj-9",
					"maxclass" : "newobj",
					"numinlets" : 1,
					"numoutlets" : 2,
					"outlettype" : [ "", "" ],
					"patching_rect" : [ 145.0, 115.0, 67.0, 22.0 ],
					"save" : [ "#N", "thispatcher", ";", "#Q", "end", ";" ],
					"text" : "thispatcher"
				}

			}
, 			{
				"box" : 				{
					"id" : "obj-343",
					"linecount" : 2,
					"maxclass" : "newobj",
					"numinlets" : 2,
					"numoutlets" : 3,
					"outlettype" : [ "", "bang", "bang" ],
					"patching_rect" : [ 782.0, 430.0, 262.5, 35.0 ],
					"text" : "dialog @mode 2 @label \"Restoring the current preset will discard unsaved changes.\""
				}

			}
, 			{
				"box" : 				{
					"bgcolor" : [ 0.2, 0.2, 0.2, 0.0 ],
					"blinkcolor" : [ 1.0, 0.709803921568627, 0.196078431372549, 1.0 ],
					"id" : "obj-46",
					"maxclass" : "button",
					"numinlets" : 1,
					"numoutlets" : 1,
					"outlettype" : [ "bang" ],
					"outlinecolor" : [ 1.0, 0.709803921568627, 0.196078431372549, 1.0 ],
					"parameter_enable" : 0,
					"patching_rect" : [ 782.0, 392.0, 24.0, 24.0 ],
					"presentation" : 1,
					"presentation_rect" : [ 299.5, 245.0, 29.0, 29.0 ]
				}

			}
, 			{
				"box" : 				{
					"fontname" : "Ableton Sans Light",
					"id" : "obj-47",
					"maxclass" : "comment",
					"numinlets" : 0,
					"numoutlets" : 0,
					"patching_rect" : [ 729.0, 394.0, 51.0, 21.0 ],
					"presentation" : 1,
					"presentation_rect" : [ 253.5, 251.0, 51.0, 21.0 ],
					"suppressinlet" : 1,
					"text" : "Restore:",
					"textcolor" : [ 1.0, 0.709803921568627, 0.196078431372549, 1.0 ]
				}

			}
, 			{
				"box" : 				{
					"bgcolor" : [ 0.2, 0.2, 0.2, 0.0 ],
					"blinkcolor" : [ 1.0, 0.709803921568627, 0.196078431372549, 1.0 ],
					"id" : "obj-8",
					"maxclass" : "button",
					"numinlets" : 1,
					"numoutlets" : 1,
					"outlettype" : [ "bang" ],
					"outlinecolor" : [ 1.0, 0.709803921568627, 0.196078431372549, 1.0 ],
					"parameter_enable" : 0,
					"patching_rect" : [ 986.0, 482.0, 24.0, 24.0 ],
					"presentation" : 1,
					"presentation_rect" : [ 299.5, 214.0, 29.0, 29.0 ]
				}

			}
, 			{
				"box" : 				{
					"fontname" : "Ableton Sans Light",
					"id" : "obj-36",
					"maxclass" : "comment",
					"numinlets" : 0,
					"numoutlets" : 0,
					"patching_rect" : [ 948.0, 484.0, 36.0, 21.0 ],
					"presentation" : 1,
					"presentation_rect" : [ 268.5, 220.0, 36.0, 21.0 ],
					"suppressinlet" : 1,
					"text" : "Save:",
					"textcolor" : [ 1.0, 0.709803921568627, 0.196078431372549, 1.0 ]
				}

			}
, 			{
				"box" : 				{
					"id" : "obj-4",
					"maxclass" : "message",
					"numinlets" : 2,
					"numoutlets" : 1,
					"outlettype" : [ "" ],
					"patching_rect" : [ 1167.5, 663.0, 29.5, 22.0 ],
					"text" : "set"
				}

			}
, 			{
				"box" : 				{
					"id" : "obj-1",
					"maxclass" : "newobj",
					"numinlets" : 1,
					"numoutlets" : 1,
					"outlettype" : [ "bang" ],
					"patching_rect" : [ 1218.5, 589.0, 61.0, 22.0 ],
					"text" : "savebang"
				}

			}
, 			{
				"box" : 				{
					"fontname" : "Ableton Sans Light",
					"id" : "obj-28",
					"maxclass" : "comment",
					"numinlets" : 0,
					"numoutlets" : 0,
					"patching_rect" : [ 782.0, 528.0, 94.0, 21.0 ],
					"suppressinlet" : 1,
					"text" : "Default preset #"
				}

			}
, 			{
				"box" : 				{
					"fontname" : "Monaco",
					"id" : "obj-40",
					"maxclass" : "newobj",
					"numinlets" : 1,
					"numoutlets" : 1,
					"outlettype" : [ "" ],
					"patching_rect" : [ 1055.0, 606.0, 66.0, 23.0 ],
					"text" : "deferlow"
				}

			}
, 			{
				"box" : 				{
					"fontname" : "Monaco",
					"id" : "obj-20",
					"maxclass" : "newobj",
					"numinlets" : 1,
					"numoutlets" : 3,
					"outlettype" : [ "bang", "bang", "bang" ],
					"patching_rect" : [ 986.0, 543.0, 59.0, 23.0 ],
					"text" : "t b b b"
				}

			}
, 			{
				"box" : 				{
					"fontname" : "Monaco",
					"id" : "obj-42",
					"maxclass" : "newobj",
					"numinlets" : 1,
					"numoutlets" : 1,
					"outlettype" : [ "" ],
					"patching_rect" : [ 782.0, 554.0, 81.0, 23.0 ],
					"text" : "loadmess 1"
				}

			}
, 			{
				"box" : 				{
					"fontname" : "Monaco",
					"id" : "obj-44",
					"maxclass" : "newobj",
					"numinlets" : 2,
					"numoutlets" : 1,
					"outlettype" : [ "" ],
					"patching_rect" : [ 945.0, 606.0, 95.0, 23.0 ],
					"text" : "pack store 1"
				}

			}
, 			{
				"box" : 				{
					"fontname" : "Monaco",
					"id" : "obj-41",
					"maxclass" : "newobj",
					"numinlets" : 1,
					"numoutlets" : 1,
					"outlettype" : [ "" ],
					"patching_rect" : [ 782.0, 767.0, 520.0, 23.0 ],
					"saved_object_attributes" : 					{
						"client_rect" : [ 100, 100, 500, 600 ],
						"parameter_enable" : 0,
						"parameter_mappable" : 0,
						"storage_rect" : [ 200, 200, 800, 500 ]
					}
,
					"text" : "pattrstorage #1\" stutter tremolo filters\" @greedy 0 @savemode 0",
					"varname" : "#1 stutter tremolo filters"
				}

			}
, 			{
				"box" : 				{
					"bgcolor" : [ 1.0, 0.949019607843137, 0.227450980392157, 0.57 ],
					"bgcolor2" : [ 0.941176470588235, 0.227450980392157, 1.0, 0.52 ],
					"bgfillcolor_angle" : 40.988422399155411,
					"bgfillcolor_autogradient" : 0.0,
					"bgfillcolor_color" : [ 0.941176470588235, 0.227450980392157, 1.0, 0.52 ],
					"bgfillcolor_color1" : [ 1.0, 0.949019607843137, 0.227450980392157, 0.57 ],
					"bgfillcolor_color2" : [ 0.941176470588235, 0.227450980392157, 1.0, 0.52 ],
					"bgfillcolor_proportion" : 0.39,
					"bgfillcolor_pt1" : [ -0.035353535353535, 0.95959595959596 ],
					"bgfillcolor_pt2" : [ 1.005050505050505, 0.055555555555556 ],
					"bgfillcolor_type" : "gradient",
					"fontname" : "Monaco",
					"fontsize" : 12.0,
					"gradient" : 1,
					"id" : "obj-89",
					"maxclass" : "message",
					"numinlets" : 2,
					"numoutlets" : 1,
					"outlettype" : [ "" ],
					"patching_rect" : [ 799.0, 593.0, 115.0, 23.0 ],
					"style" : "messageGold",
					"text" : "storagewindow",
					"textcolor" : [ 0.0, 0.0, 0.0, 0.890196078431372 ],
					"textjustification" : 1
				}

			}
, 			{
				"box" : 				{
					"bgcolor" : [ 0.247058823529412, 0.086274509803922, 0.317647058823529, 1.0 ],
					"bgcolor2" : [ 0.505882352941176, 0.266666666666667, 0.043137254901961, 1.0 ],
					"bgfillcolor_angle" : 40.988422399155411,
					"bgfillcolor_autogradient" : 0.0,
					"bgfillcolor_color" : [ 0.505882352941176, 0.266666666666667, 0.043137254901961, 1.0 ],
					"bgfillcolor_color1" : [ 0.247058823529412, 0.086274509803922, 0.317647058823529, 1.0 ],
					"bgfillcolor_color2" : [ 0.505882352941176, 0.266666666666667, 0.043137254901961, 1.0 ],
					"bgfillcolor_proportion" : 0.39,
					"bgfillcolor_pt1" : [ -0.035353535353535, 0.95959595959596 ],
					"bgfillcolor_pt2" : [ 1.005050505050505, 0.055555555555556 ],
					"bgfillcolor_type" : "gradient",
					"fontname" : "Monaco",
					"fontsize" : 12.0,
					"gradient" : 1,
					"id" : "obj-96",
					"maxclass" : "message",
					"numinlets" : 2,
					"numoutlets" : 1,
					"outlettype" : [ "" ],
					"patching_rect" : [ 808.0, 625.0, 101.0, 23.0 ],
					"style" : "messageGold",
					"text" : "clientwindow",
					"textcolor" : [ 1.0, 1.0, 1.0, 1.0 ]
				}

			}
, 			{
				"box" : 				{
					"fontname" : "Monaco",
					"id" : "obj-17",
					"maxclass" : "newobj",
					"numinlets" : 1,
					"numoutlets" : 1,
					"outlettype" : [ "bang" ],
					"patching_rect" : [ 1131.0, 454.0, 66.0, 23.0 ],
					"text" : "loadbang"
				}

			}
, 			{
				"box" : 				{
					"fontname" : "Monaco",
					"id" : "obj-14",
					"maxclass" : "message",
					"numinlets" : 2,
					"numoutlets" : 1,
					"outlettype" : [ "" ],
					"patching_rect" : [ 1131.0, 499.0, 131.0, 23.0 ],
					"text" : "#1"
				}

			}
, 			{
				"box" : 				{
					"fontname" : "Monaco",
					"id" : "obj-43",
					"linecount" : 10,
					"maxclass" : "message",
					"numinlets" : 2,
					"numoutlets" : 1,
					"outlettype" : [ "" ],
					"patching_rect" : [ 1055.0, 717.5, 95.0, 158.0 ]
				}

			}
, 			{
				"box" : 				{
					"fontname" : "Monaco",
					"id" : "obj-45",
					"maxclass" : "newobj",
					"numinlets" : 1,
					"numoutlets" : 1,
					"outlettype" : [ "" ],
					"patching_rect" : [ 1131.0, 543.0, 721.0, 23.0 ],
					"text" : "sprintf write \\\"~/Documents/Max 8/Projects/sousastep/SousaFX/data/%s stutter tremolo filters.json\\\""
				}

			}
, 			{
				"box" : 				{
					"id" : "obj-281",
					"maxclass" : "newobj",
					"numinlets" : 0,
					"numoutlets" : 1,
					"outlettype" : [ "" ],
					"patching_rect" : [ 240.0, 549.0, 137.0, 22.0 ],
					"text" : "r #1\" Filters (bi)\""
				}

			}
, 			{
				"box" : 				{
					"bgmode" : 0,
					"border" : 1,
					"clickthrough" : 0,
					"enablehscroll" : 0,
					"enablevscroll" : 0,
					"id" : "obj-3",
					"lockeddragscroll" : 0,
					"lockedsize" : 0,
					"maxclass" : "bpatcher",
					"name" : "DJfilter.maxpat",
					"numinlets" : 3,
					"numoutlets" : 2,
					"offset" : [ 0.0, 0.0 ],
					"outlettype" : [ "signal", "signal" ],
					"patching_rect" : [ 138.0, 605.0, 161.0, 80.0 ],
					"presentation" : 1,
					"presentation_rect" : [ 74.0, 214.0, 190.0, 66.0 ],
					"varname" : "DJfilter",
					"viewvisibility" : 1
				}

			}
, 			{
				"box" : 				{
					"args" : [ "#1" ],
					"bgmode" : 0,
					"border" : 1,
					"clickthrough" : 0,
					"enablehscroll" : 0,
					"enablevscroll" : 0,
					"id" : "obj-22",
					"lockeddragscroll" : 0,
					"lockedsize" : 0,
					"maxclass" : "bpatcher",
					"name" : "stutterstep.maxpat",
					"numinlets" : 3,
					"numoutlets" : 4,
					"offset" : [ 0.0, 0.0 ],
					"outlettype" : [ "signal", "signal", "signal", "signal" ],
					"patching_rect" : [ 180.0, 335.0, 315.0, 72.0 ],
					"presentation" : 1,
					"presentation_rect" : [ 9.5, 10.0, 319.0, 61.0 ],
					"varname" : "stutterstep",
					"viewvisibility" : 1
				}

			}
, 			{
				"box" : 				{
					"bgcolor" : [ 0.07843137254902, 0.07843137254902, 0.07843137254902, 1.0 ],
					"color" : [ 0.101960784313725, 0.796078431372549, 0.258823529411765, 1.0 ],
					"id" : "obj-117",
					"maxclass" : "newobj",
					"numinlets" : 1,
					"numoutlets" : 1,
					"outlettype" : [ "signal" ],
					"patching_rect" : [ 588.0, 718.0, 92.0, 22.0 ],
					"text" : "r~ main_phasor",
					"textcolor" : [ 0.647058823529412, 1.0, 0.725490196078431, 1.0 ]
				}

			}
, 			{
				"box" : 				{
					"bgcolor" : [ 1.0, 1.0, 1.0, 0.88 ],
					"fontname" : "Ableton Sans Light",
					"id" : "obj-161",
					"maxclass" : "comment",
					"numinlets" : 0,
					"numoutlets" : 0,
					"patching_rect" : [ 596.0, 686.0, 76.0, 21.0 ],
					"suppressinlet" : 1,
					"text" : "1-bar phasor"
				}

			}
, 			{
				"box" : 				{
					"args" : [ "#1" ],
					"bgmode" : 0,
					"border" : 1,
					"clickthrough" : 0,
					"enablehscroll" : 0,
					"enablevscroll" : 0,
					"id" : "obj-200",
					"lockeddragscroll" : 0,
					"lockedsize" : 0,
					"maxclass" : "bpatcher",
					"name" : "sousaFX_tremolo.maxpat",
					"numinlets" : 3,
					"numoutlets" : 2,
					"offset" : [ 0.0, 0.0 ],
					"outlettype" : [ "signal", "signal" ],
					"patching_rect" : [ 259.0, 784.0, 319.0, 173.0 ],
					"presentation" : 1,
					"presentation_rect" : [ 9.5, 76.0, 319.0, 133.0 ],
					"varname" : "sousaFX_tremolo",
					"viewvisibility" : 1
				}

			}
, 			{
				"box" : 				{
					"comment" : "",
					"id" : "obj-201",
					"index" : 0,
					"maxclass" : "inlet",
					"numinlets" : 0,
					"numoutlets" : 1,
					"outlettype" : [ "" ],
					"patching_rect" : [ 180.0, 275.0, 30.0, 30.0 ]
				}

			}
, 			{
				"box" : 				{
					"comment" : "",
					"id" : "obj-203",
					"index" : 0,
					"maxclass" : "inlet",
					"numinlets" : 0,
					"numoutlets" : 1,
					"outlettype" : [ "" ],
					"patching_rect" : [ 394.0, 275.0, 30.0, 30.0 ]
				}

			}
, 			{
				"box" : 				{
					"comment" : "",
					"id" : "obj-204",
					"index" : 0,
					"maxclass" : "outlet",
					"numinlets" : 1,
					"numoutlets" : 0,
					"patching_rect" : [ 383.0, 1011.0, 30.0, 30.0 ]
				}

			}
, 			{
				"box" : 				{
					"comment" : "",
					"id" : "obj-207",
					"index" : 0,
					"maxclass" : "outlet",
					"numinlets" : 1,
					"numoutlets" : 0,
					"patching_rect" : [ 418.0, 1011.0, 30.0, 30.0 ]
				}

			}
, 			{
				"box" : 				{
					"angle" : 270.0,
					"background" : 1,
					"bgcolor" : [ 0.301961, 0.301961, 0.301961, 0.0 ],
					"bordercolor" : [ 0.0, 0.0, 0.0, 1.0 ],
					"id" : "obj-5",
					"maxclass" : "panel",
					"mode" : 0,
					"numinlets" : 1,
					"numoutlets" : 0,
					"patching_rect" : [ 303.0, 496.0, 128.0, 128.0 ],
					"presentation" : 1,
					"presentation_rect" : [ 0.0, 0.0, 338.0, 289.0 ],
					"proportion" : 0.5,
					"rounded" : 0
				}

			}
 ],
		"lines" : [ 			{
				"patchline" : 				{
					"destination" : [ "obj-11", 1 ],
					"source" : [ "obj-1", 0 ]
				}

			}
, 			{
				"patchline" : 				{
					"destination" : [ "obj-11", 0 ],
					"source" : [ "obj-10", 0 ]
				}

			}
, 			{
				"patchline" : 				{
					"destination" : [ "obj-4", 0 ],
					"source" : [ "obj-11", 0 ]
				}

			}
, 			{
				"patchline" : 				{
					"destination" : [ "obj-200", 2 ],
					"source" : [ "obj-117", 0 ]
				}

			}
, 			{
				"patchline" : 				{
					"destination" : [ "obj-16", 0 ],
					"source" : [ "obj-12", 0 ]
				}

			}
, 			{
				"patchline" : 				{
					"destination" : [ "obj-9", 0 ],
					"source" : [ "obj-123", 0 ]
				}

			}
, 			{
				"patchline" : 				{
					"destination" : [ "obj-45", 0 ],
					"source" : [ "obj-14", 0 ]
				}

			}
, 			{
				"patchline" : 				{
					"destination" : [ "obj-16", 0 ],
					"source" : [ "obj-15", 0 ]
				}

			}
, 			{
				"patchline" : 				{
					"destination" : [ "obj-14", 0 ],
					"source" : [ "obj-17", 0 ]
				}

			}
, 			{
				"patchline" : 				{
					"destination" : [ "obj-9", 0 ],
					"source" : [ "obj-2", 0 ]
				}

			}
, 			{
				"patchline" : 				{
					"destination" : [ "obj-13", 0 ],
					"source" : [ "obj-20", 2 ]
				}

			}
, 			{
				"patchline" : 				{
					"destination" : [ "obj-40", 0 ],
					"source" : [ "obj-20", 0 ]
				}

			}
, 			{
				"patchline" : 				{
					"destination" : [ "obj-44", 0 ],
					"source" : [ "obj-20", 1 ]
				}

			}
, 			{
				"patchline" : 				{
					"destination" : [ "obj-204", 0 ],
					"source" : [ "obj-200", 0 ]
				}

			}
, 			{
				"patchline" : 				{
					"destination" : [ "obj-207", 0 ],
					"source" : [ "obj-200", 1 ]
				}

			}
, 			{
				"patchline" : 				{
					"destination" : [ "obj-22", 0 ],
					"source" : [ "obj-201", 0 ]
				}

			}
, 			{
				"patchline" : 				{
					"destination" : [ "obj-22", 1 ],
					"source" : [ "obj-203", 0 ]
				}

			}
, 			{
				"patchline" : 				{
					"destination" : [ "obj-12", 0 ],
					"order" : 0,
					"source" : [ "obj-22", 0 ]
				}

			}
, 			{
				"patchline" : 				{
					"destination" : [ "obj-15", 0 ],
					"order" : 0,
					"source" : [ "obj-22", 1 ]
				}

			}
, 			{
				"patchline" : 				{
					"destination" : [ "obj-200", 1 ],
					"source" : [ "obj-22", 3 ]
				}

			}
, 			{
				"patchline" : 				{
					"destination" : [ "obj-200", 0 ],
					"source" : [ "obj-22", 2 ]
				}

			}
, 			{
				"patchline" : 				{
					"destination" : [ "obj-3", 1 ],
					"order" : 1,
					"source" : [ "obj-22", 1 ]
				}

			}
, 			{
				"patchline" : 				{
					"destination" : [ "obj-3", 0 ],
					"order" : 1,
					"source" : [ "obj-22", 0 ]
				}

			}
, 			{
				"patchline" : 				{
					"destination" : [ "obj-3", 2 ],
					"source" : [ "obj-281", 0 ]
				}

			}
, 			{
				"patchline" : 				{
					"destination" : [ "obj-200", 1 ],
					"source" : [ "obj-3", 1 ]
				}

			}
, 			{
				"patchline" : 				{
					"destination" : [ "obj-200", 0 ],
					"source" : [ "obj-3", 0 ]
				}

			}
, 			{
				"patchline" : 				{
					"destination" : [ "obj-42", 0 ],
					"source" : [ "obj-343", 0 ]
				}

			}
, 			{
				"patchline" : 				{
					"destination" : [ "obj-43", 0 ],
					"source" : [ "obj-4", 0 ]
				}

			}
, 			{
				"patchline" : 				{
					"destination" : [ "obj-43", 0 ],
					"source" : [ "obj-40", 0 ]
				}

			}
, 			{
				"patchline" : 				{
					"destination" : [ "obj-41", 0 ],
					"source" : [ "obj-42", 0 ]
				}

			}
, 			{
				"patchline" : 				{
					"destination" : [ "obj-432", 0 ],
					"source" : [ "obj-426", 0 ]
				}

			}
, 			{
				"patchline" : 				{
					"destination" : [ "obj-426", 0 ],
					"source" : [ "obj-427", 0 ]
				}

			}
, 			{
				"patchline" : 				{
					"destination" : [ "obj-8", 0 ],
					"source" : [ "obj-427", 1 ]
				}

			}
, 			{
				"patchline" : 				{
					"destination" : [ "obj-41", 0 ],
					"source" : [ "obj-43", 0 ]
				}

			}
, 			{
				"patchline" : 				{
					"destination" : [ "obj-427", 0 ],
					"source" : [ "obj-431", 0 ]
				}

			}
, 			{
				"patchline" : 				{
					"destination" : [ "obj-41", 0 ],
					"source" : [ "obj-432", 0 ]
				}

			}
, 			{
				"patchline" : 				{
					"destination" : [ "obj-8", 0 ],
					"source" : [ "obj-434", 0 ]
				}

			}
, 			{
				"patchline" : 				{
					"destination" : [ "obj-431", 0 ],
					"order" : 0,
					"source" : [ "obj-435", 0 ]
				}

			}
, 			{
				"patchline" : 				{
					"destination" : [ "obj-434", 0 ],
					"order" : 1,
					"source" : [ "obj-435", 0 ]
				}

			}
, 			{
				"patchline" : 				{
					"destination" : [ "obj-41", 0 ],
					"source" : [ "obj-44", 0 ]
				}

			}
, 			{
				"patchline" : 				{
					"destination" : [ "obj-431", 1 ],
					"source" : [ "obj-440", 0 ]
				}

			}
, 			{
				"patchline" : 				{
					"destination" : [ "obj-434", 1 ],
					"source" : [ "obj-442", 0 ]
				}

			}
, 			{
				"patchline" : 				{
					"destination" : [ "obj-43", 1 ],
					"source" : [ "obj-45", 0 ]
				}

			}
, 			{
				"patchline" : 				{
					"destination" : [ "obj-343", 0 ],
					"source" : [ "obj-46", 0 ]
				}

			}
, 			{
				"patchline" : 				{
					"destination" : [ "obj-123", 1 ],
					"source" : [ "obj-6", 0 ]
				}

			}
, 			{
				"patchline" : 				{
					"destination" : [ "obj-123", 0 ],
					"source" : [ "obj-7", 0 ]
				}

			}
, 			{
				"patchline" : 				{
					"destination" : [ "obj-20", 0 ],
					"source" : [ "obj-8", 0 ]
				}

			}
, 			{
				"patchline" : 				{
					"destination" : [ "obj-41", 0 ],
					"source" : [ "obj-89", 0 ]
				}

			}
, 			{
				"patchline" : 				{
					"destination" : [ "obj-123", 2 ],
					"source" : [ "obj-9", 0 ]
				}

			}
, 			{
				"patchline" : 				{
					"destination" : [ "obj-41", 0 ],
					"source" : [ "obj-96", 0 ]
				}

			}
 ],
		"parameters" : 		{
			"obj-200::obj-18" : [ "phase offset[1]", "phase offset", 0 ],
			"obj-200::obj-2" : [ "live.menu", "live.menu", 0 ],
			"obj-200::obj-34" : [ "duty cycle[1]", "duty cycle", 0 ],
			"obj-200::obj-36" : [ "boost", "boost", 0 ],
			"obj-200::obj-38" : [ "smooth", "smooth", 0 ],
			"obj-200::obj-42" : [ "depth / mix", "depth / mix", 0 ],
			"obj-22::obj-105" : [ "function[107]", "function", 0 ],
			"obj-22::obj-106" : [ "MIDI syncrate[8]", "sync", 0 ],
			"obj-22::obj-145" : [ "accel[5]", "accel", 0 ],
			"obj-22::obj-153" : [ "live.button[5]", "live.button", 0 ],
			"obj-22::obj-155" : [ "live.menu[1]", "live.menu", 0 ],
			"obj-22::obj-159" : [ "live.dial[23]", "window", 0 ],
			"obj-22::obj-21" : [ "live.menu[16]", "live.menu", 0 ],
			"obj-22::obj-22" : [ "offset[4]", "offset", 0 ],
			"obj-22::obj-235" : [ "volume dip[4]", "vol dip", 0 ],
			"obj-22::obj-246" : [ "staircase", "staircase", 0 ],
			"obj-22::obj-36" : [ "active[6]", "Active", 0 ],
			"obj-22::obj-38" : [ "active[1]", "Active", 0 ],
			"obj-22::obj-42" : [ "stutter volume[4]", "stutter volume", 0 ],
			"obj-3::obj-1" : [ "filter sweep", "filter sweep", 0 ],
			"obj-3::obj-27" : [ "smooth[1]", "smooth", 0 ],
			"obj-3::obj-41" : [ "filter boost", "filter boost", 0 ],
			"parameterbanks" : 			{
				"0" : 				{
					"index" : 0,
					"name" : "",
					"parameters" : [ "-", "-", "-", "-", "-", "-", "-", "-" ]
				}

			}
,
			"parameter_overrides" : 			{
				"obj-3::obj-27" : 				{
					"parameter_longname" : "smooth[1]"
				}

			}
,
			"inherited_shortname" : 1
		}
,
		"dependency_cache" : [ 			{
				"name" : "AND.maxpat",
				"bootpath" : "~/Documents/Max 8/Projects/sousastep/SousaFX/patchers",
				"patcherrelativepath" : ".",
				"type" : "JSON",
				"implicit" : 1
			}
, 			{
				"name" : "DJfilter.maxpat",
				"bootpath" : "~/Documents/Max 8/Projects/sousastep/SousaFX/patchers",
				"patcherrelativepath" : ".",
				"type" : "JSON",
				"implicit" : 1
			}
, 			{
				"name" : "floating window positioner.maxpat",
				"bootpath" : "~/Documents/Max 8/Projects/sousastep/SousaFX/patchers",
				"patcherrelativepath" : ".",
				"type" : "JSON",
				"implicit" : 1
			}
, 			{
				"name" : "frame000.png",
				"bootpath" : "~/Documents/Max 8/Projects/sousastep/default/startup/stickman",
				"patcherrelativepath" : "../../default/startup/stickman",
				"type" : "PNG",
				"implicit" : 1
			}
, 			{
				"name" : "sm.sallenkey2~.maxpat",
				"bootpath" : "~/Documents/Max 8/Packages/smFilterPack/patchers",
				"patcherrelativepath" : "../../../../Packages/smFilterPack/patchers",
				"type" : "JSON",
				"implicit" : 1
			}
, 			{
				"name" : "sm_sallenkey_functions.genexpr",
				"bootpath" : "~/Documents/Max 8/Projects/sousastep/SousaFX/other",
				"patcherrelativepath" : "../other",
				"type" : "GenX",
				"implicit" : 1
			}
, 			{
				"name" : "sm_sallenkey_stereo.gendsp",
				"bootpath" : "~/Documents/Max 8/Packages/smFilterPack/code/sm_gendsp",
				"patcherrelativepath" : "../../../../Packages/smFilterPack/code/sm_gendsp",
				"type" : "gDSP",
				"implicit" : 1
			}
, 			{
				"name" : "sousaFX_tremolo.maxpat",
				"bootpath" : "~/Documents/Max 8/Projects/sousastep/SousaFX/patchers",
				"patcherrelativepath" : ".",
				"type" : "JSON",
				"implicit" : 1
			}
, 			{
				"name" : "stutterstep.maxpat",
				"bootpath" : "~/Documents/Max 8/Projects/sousastep/SousaFX/patchers",
				"patcherrelativepath" : ".",
				"type" : "JSON",
				"implicit" : 1
			}
, 			{
				"name" : "thru.maxpat",
				"bootpath" : "~/Documents/Max 8/Projects/sousastep/SousaFX/patchers",
				"patcherrelativepath" : ".",
				"type" : "JSON",
				"implicit" : 1
			}
 ],
		"autosave" : 0,
		"bgcolor" : [ 0.164705882352941, 0.164705882352941, 0.16078431372549, 0.98 ]
	}

}
