{
	"patcher" : 	{
		"fileversion" : 1,
		"appversion" : 		{
			"major" : 8,
			"minor" : 5,
			"revision" : 3,
			"architecture" : "x64",
			"modernui" : 1
		}
,
		"classnamespace" : "dsp.gen",
		"rect" : [ 34.0, 87.0, 1372.0, 779.0 ],
		"bglocked" : 0,
		"openinpresentation" : 0,
		"default_fontsize" : 12.0,
		"default_fontface" : 0,
		"default_fontname" : "Arial",
		"gridonopen" : 1,
		"gridsize" : [ 15.0, 15.0 ],
		"gridsnaponopen" : 1,
		"objectsnaponopen" : 1,
		"statusbarvisible" : 2,
		"toolbarvisible" : 1,
		"lefttoolbarpinned" : 0,
		"toptoolbarpinned" : 0,
		"righttoolbarpinned" : 0,
		"bottomtoolbarpinned" : 0,
		"toolbars_unpinned_last_save" : 0,
		"tallnewobj" : 0,
		"boxanimatetime" : 200,
		"enablehscroll" : 1,
		"enablevscroll" : 1,
		"devicewidth" : 0.0,
		"description" : "",
		"digest" : "",
		"tags" : "",
		"style" : "",
		"subpatcher_template" : "",
		"assistshowspatchername" : 0,
		"boxes" : [ 			{
				"box" : 				{
					"id" : "obj-3",
					"maxclass" : "newobj",
					"numinlets" : 0,
					"numoutlets" : 1,
					"outlettype" : [ "" ],
					"patching_rect" : [ 874.469937631430412, 23.0, 28.0, 22.0 ],
					"text" : "in 9"
				}

			}
, 			{
				"box" : 				{
					"id" : "obj-5",
					"maxclass" : "newobj",
					"numinlets" : 0,
					"numoutlets" : 1,
					"outlettype" : [ "" ],
					"patching_rect" : [ 769.775950105144148, 23.0, 28.0, 22.0 ],
					"text" : "in 8"
				}

			}
, 			{
				"box" : 				{
					"id" : "obj-6",
					"maxclass" : "newobj",
					"numinlets" : 0,
					"numoutlets" : 1,
					"outlettype" : [ "" ],
					"patching_rect" : [ 665.081962578858224, 29.0, 28.0, 22.0 ],
					"text" : "in 7"
				}

			}
, 			{
				"box" : 				{
					"id" : "obj-14",
					"maxclass" : "newobj",
					"numinlets" : 0,
					"numoutlets" : 1,
					"outlettype" : [ "" ],
					"patching_rect" : [ 568.469937631430412, 29.0, 28.0, 22.0 ],
					"text" : "in 6"
				}

			}
, 			{
				"box" : 				{
					"id" : "obj-13",
					"maxclass" : "newobj",
					"numinlets" : 0,
					"numoutlets" : 1,
					"outlettype" : [ "" ],
					"patching_rect" : [ 463.775950105144148, 29.0, 28.0, 22.0 ],
					"text" : "in 5"
				}

			}
, 			{
				"box" : 				{
					"id" : "obj-12",
					"maxclass" : "newobj",
					"numinlets" : 0,
					"numoutlets" : 1,
					"outlettype" : [ "" ],
					"patching_rect" : [ 359.081962578858224, 35.0, 28.0, 22.0 ],
					"text" : "in 4"
				}

			}
, 			{
				"box" : 				{
					"id" : "obj-11",
					"maxclass" : "newobj",
					"numinlets" : 0,
					"numoutlets" : 1,
					"outlettype" : [ "" ],
					"patching_rect" : [ 254.387975052572074, 35.0, 28.0, 22.0 ],
					"text" : "in 3"
				}

			}
, 			{
				"box" : 				{
					"id" : "obj-10",
					"maxclass" : "newobj",
					"numinlets" : 0,
					"numoutlets" : 1,
					"outlettype" : [ "" ],
					"patching_rect" : [ 149.693987526286037, 42.0, 28.0, 22.0 ],
					"text" : "in 2"
				}

			}
, 			{
				"box" : 				{
					"code" : "x = in1;\n\nfirstY = in2;\nfirstX = in3;\n\nmidY = in4;\nmidX = in5;\nfirstCurve = in6;\n\nendY = in7;\nendX = in8;\nsecondCurve = in9;\n\nif (x < midX) {\n\n\ttmpRange = midY - firstY;\n\ttmpDomain = midX - firstX;\n\t\n\tif (abs(firstCurve) < 0.001) {\n\t\t\n\t\tout1 = ((x - firstX) / tmpDomain) * tmpRange + firstY;\n\t\t\n\t}\n\t\n\tif (firstCurve < 0.0) {\n\t\t\n\t\tgx = (midX - x) / tmpDomain;\n\t\thp = pow((1e-20 - firstCurve) * 1.2, 0.41) * 0.91;\n\t\tfp = hp / (1.0 - hp);\n\t\tgp = (exp(fp * gx) - 1.0) / (exp(fp) - 1.0);\n\t\t\n\t\tout1 = midY - gp * tmpRange;\n\t\t\n\t} else {\n\t\t\n\t\tgx = (x - firstX) / tmpDomain;\n\t\thp = pow((firstCurve + 1e-20) * 1.2, 0.41) * 0.91;\n\t\tfp = hp / (1.0 - hp);\n\t\tgp = (exp(fp * gx) - 1.0) / (exp(fp) - 1.0);\n\t\t\n\t\tout1 = gp * tmpRange + firstY;\n\t\t\n\t}\n}\n\nelse {\n\ttmpRange = endY - midY;\n\ttmpDomain = endX - midX;\n\n\tif (abs(secondCurve) < 0.001) {\n\t\t\n\t\tout1 = ((x - midX) / tmpDomain) * tmpRange + midY;\n\t\t\n\t}\n\t\n\tif (secondCurve < 0.0) {\n\t\t\n\t\tgx = (endX - x) / tmpDomain;\n\t\thp = pow((1e-20 - secondCurve) * 1.2, 0.41) * 0.91;\n\t\tfp = hp / (1.0 - hp);\n\t\tgp = (exp(fp * gx) - 1.0) / (exp(fp) - 1.0);\n\t\t\n\t\tout1 = endY - gp * tmpRange;\n\t\t\n\t} else {\n\t\t\n\t\tgx = (x - midX) / tmpDomain;\n\t\thp = pow((secondCurve + 1e-20) * 1.2, 0.41) * 0.91;\n\t\tfp = hp / (1.0 - hp);\n\t\tgp = (exp(fp * gx) - 1.0) / (exp(fp) - 1.0);\n\t\t\n\t\tout1 = gp * tmpRange + midY;\t\n\t}\n}\n\n\n\t\n\n",
					"fontface" : 0,
					"fontname" : "<Monospaced>",
					"fontsize" : 12.0,
					"id" : "obj-7",
					"maxclass" : "codebox",
					"numinlets" : 9,
					"numoutlets" : 1,
					"outlettype" : [ "" ],
					"patching_rect" : [ 35.0, 92.0, 883.218566876955265, 594.0 ]
				}

			}
, 			{
				"box" : 				{
					"id" : "obj-1",
					"maxclass" : "newobj",
					"numinlets" : 0,
					"numoutlets" : 1,
					"outlettype" : [ "" ],
					"patching_rect" : [ 45.0, 42.0, 28.0, 22.0 ],
					"text" : "in 1"
				}

			}
, 			{
				"box" : 				{
					"id" : "obj-4",
					"maxclass" : "newobj",
					"numinlets" : 1,
					"numoutlets" : 0,
					"patching_rect" : [ 35.0, 697.0, 35.0, 22.0 ],
					"text" : "out 1"
				}

			}
 ],
		"lines" : [ 			{
				"patchline" : 				{
					"destination" : [ "obj-7", 0 ],
					"source" : [ "obj-1", 0 ]
				}

			}
, 			{
				"patchline" : 				{
					"destination" : [ "obj-7", 1 ],
					"source" : [ "obj-10", 0 ]
				}

			}
, 			{
				"patchline" : 				{
					"destination" : [ "obj-7", 2 ],
					"source" : [ "obj-11", 0 ]
				}

			}
, 			{
				"patchline" : 				{
					"destination" : [ "obj-7", 3 ],
					"source" : [ "obj-12", 0 ]
				}

			}
, 			{
				"patchline" : 				{
					"destination" : [ "obj-7", 4 ],
					"source" : [ "obj-13", 0 ]
				}

			}
, 			{
				"patchline" : 				{
					"destination" : [ "obj-7", 5 ],
					"source" : [ "obj-14", 0 ]
				}

			}
, 			{
				"patchline" : 				{
					"destination" : [ "obj-7", 8 ],
					"source" : [ "obj-3", 0 ]
				}

			}
, 			{
				"patchline" : 				{
					"destination" : [ "obj-7", 7 ],
					"source" : [ "obj-5", 0 ]
				}

			}
, 			{
				"patchline" : 				{
					"destination" : [ "obj-7", 6 ],
					"source" : [ "obj-6", 0 ]
				}

			}
, 			{
				"patchline" : 				{
					"destination" : [ "obj-4", 0 ],
					"source" : [ "obj-7", 0 ]
				}

			}
 ]
	}

}
