{
	"patcher" : 	{
		"fileversion" : 1,
		"appversion" : 		{
			"major" : 8,
			"minor" : 5,
			"revision" : 2,
			"architecture" : "x64",
			"modernui" : 1
		}
,
		"classnamespace" : "dsp.gen",
		"rect" : [ -201.0, -993.0, 1852.0, 959.0 ],
		"bglocked" : 0,
		"openinpresentation" : 0,
		"default_fontsize" : 12.0,
		"default_fontface" : 0,
		"default_fontname" : "Arial",
		"gridonopen" : 1,
		"gridsize" : [ 15.0, 15.0 ],
		"gridsnaponopen" : 1,
		"objectsnaponopen" : 1,
		"statusbarvisible" : 2,
		"toolbarvisible" : 1,
		"lefttoolbarpinned" : 0,
		"toptoolbarpinned" : 0,
		"righttoolbarpinned" : 0,
		"bottomtoolbarpinned" : 0,
		"toolbars_unpinned_last_save" : 0,
		"tallnewobj" : 0,
		"boxanimatetime" : 200,
		"enablehscroll" : 1,
		"enablevscroll" : 1,
		"devicewidth" : 0.0,
		"description" : "",
		"digest" : "",
		"tags" : "",
		"style" : "",
		"subpatcher_template" : "",
		"assistshowspatchername" : 0,
		"boxes" : [ 			{
				"box" : 				{
					"bgcolor" : [ 0.325490196078431, 0.0, 0.545098039215686, 1.0 ],
					"id" : "obj-127",
					"maxclass" : "comment",
					"numinlets" : 0,
					"numoutlets" : 0,
					"patching_rect" : [ 583.8125, 621.438057294247528, 86.5, 20.0 ],
					"suppressinlet" : 1,
					"text" : "high freq mod",
					"textcolor" : [ 1.0, 1.0, 1.0, 1.0 ]
				}

			}
, 			{
				"box" : 				{
					"bgcolor" : [ 0.325490196078431, 0.0, 0.545098039215686, 1.0 ],
					"id" : "obj-126",
					"linecount" : 2,
					"maxclass" : "comment",
					"numinlets" : 0,
					"numoutlets" : 0,
					"patching_rect" : [ 816.835057024685284, 560.771390217990074, 61.0, 33.0 ],
					"suppressinlet" : 1,
					"text" : "very low amp mod",
					"textcolor" : [ 1.0, 1.0, 1.0, 1.0 ]
				}

			}
, 			{
				"box" : 				{
					"bgcolor" : [ 0.325490196078431, 0.0, 0.545098039215686, 1.0 ],
					"id" : "obj-125",
					"maxclass" : "comment",
					"numinlets" : 0,
					"numoutlets" : 0,
					"patching_rect" : [ 169.333333333333314, 1351.660280676977209, 96.0, 20.0 ],
					"suppressinlet" : 1,
					"text" : "high dry-ish L R",
					"textcolor" : [ 1.0, 1.0, 1.0, 1.0 ]
				}

			}
, 			{
				"box" : 				{
					"bgcolor" : [ 0.325490196078431, 0.0, 0.545098039215686, 1.0 ],
					"id" : "obj-122",
					"maxclass" : "comment",
					"numinlets" : 0,
					"numoutlets" : 0,
					"patching_rect" : [ 124.0, 1427.160280676977209, 110.0, 20.0 ],
					"suppressinlet" : 1,
					"text" : "high distortion L R",
					"textcolor" : [ 1.0, 1.0, 1.0, 1.0 ]
				}

			}
, 			{
				"box" : 				{
					"bgcolor" : [ 0.325490196078431, 0.0, 0.545098039215686, 1.0 ],
					"id" : "obj-121",
					"maxclass" : "comment",
					"numinlets" : 0,
					"numoutlets" : 0,
					"patching_rect" : [ 95.0, 1501.32694468130353, 63.0, 20.0 ],
					"suppressinlet" : 1,
					"text" : "low mono",
					"textcolor" : [ 1.0, 1.0, 1.0, 1.0 ]
				}

			}
, 			{
				"box" : 				{
					"bgcolor" : [ 0.325490196078431, 0.0, 0.545098039215686, 1.0 ],
					"id" : "obj-119",
					"maxclass" : "comment",
					"numinlets" : 0,
					"numoutlets" : 0,
					"patching_rect" : [ 146.0, 1248.940003458917317, 88.0, 20.0 ],
					"suppressinlet" : 1,
					"text" : "tuba envelope",
					"textcolor" : [ 1.0, 1.0, 1.0, 1.0 ]
				}

			}
, 			{
				"box" : 				{
					"bgcolor" : [ 0.325490196078431, 0.0, 0.545098039215686, 1.0 ],
					"id" : "obj-116",
					"maxclass" : "comment",
					"numinlets" : 0,
					"numoutlets" : 0,
					"patching_rect" : [ 265.0, 937.6602800625908, 148.0, 20.0 ],
					"suppressinlet" : 1,
					"text" : "main high LFO for plugins",
					"textcolor" : [ 1.0, 1.0, 1.0, 1.0 ]
				}

			}
, 			{
				"box" : 				{
					"bgcolor" : [ 0.325490196078431, 0.0, 0.545098039215686, 1.0 ],
					"id" : "obj-115",
					"linecount" : 2,
					"maxclass" : "comment",
					"numinlets" : 0,
					"numoutlets" : 0,
					"patching_rect" : [ 268.333333333333314, 1140.604722527346439, 79.0, 33.0 ],
					"suppressinlet" : 1,
					"text" : "phase reset trigger signal",
					"textcolor" : [ 1.0, 1.0, 1.0, 1.0 ]
				}

			}
, 			{
				"box" : 				{
					"bgcolor" : [ 0.325490196078431, 0.0, 0.545098039215686, 1.0 ],
					"id" : "obj-113",
					"linecount" : 2,
					"maxclass" : "comment",
					"numinlets" : 0,
					"numoutlets" : 0,
					"patching_rect" : [ 156.333333333333314, 1196.482002388969477, 140.0, 33.0 ],
					"suppressinlet" : 1,
					"text" : "high freq mod no env scaling (for visuals only)",
					"textcolor" : [ 1.0, 1.0, 1.0, 1.0 ]
				}

			}
, 			{
				"box" : 				{
					"bgcolor" : [ 0.325490196078431, 0.0, 0.545098039215686, 1.0 ],
					"id" : "obj-109",
					"maxclass" : "comment",
					"numinlets" : 0,
					"numoutlets" : 0,
					"patching_rect" : [ 320.341223196257999, 1100.80461276996607, 87.0, 20.0 ],
					"suppressinlet" : 1,
					"text" : "very low mono",
					"textcolor" : [ 1.0, 1.0, 1.0, 1.0 ]
				}

			}
, 			{
				"box" : 				{
					"bgcolor" : [ 0.945098039215686, 0.917647058823529, 0.917647058823529, 1.0 ],
					"color" : [ 0.345098039215686, 0.0, 0.572549019607843, 1.0 ],
					"id" : "obj-108",
					"maxclass" : "newobj",
					"numinlets" : 0,
					"numoutlets" : 1,
					"outlettype" : [ "" ],
					"patching_rect" : [ 372.341223196257999, 1126.640003458917363, 28.0, 22.0 ],
					"text" : "in 2",
					"textcolor" : [ 0.345098039215686, 0.0, 0.572549019607843, 1.0 ]
				}

			}
, 			{
				"box" : 				{
					"bgcolor" : [ 0.945098039215686, 0.917647058823529, 0.917647058823529, 1.0 ],
					"color" : [ 0.345098039215686, 0.0, 0.572549019607843, 1.0 ],
					"id" : "obj-105",
					"maxclass" : "newobj",
					"numinlets" : 1,
					"numoutlets" : 0,
					"patching_rect" : [ 1083.778685501657037, 1993.82694406691644, 42.0, 22.0 ],
					"text" : "out 26",
					"textcolor" : [ 0.345098039215686, 0.0, 0.572549019607843, 1.0 ]
				}

			}
, 			{
				"box" : 				{
					"bgcolor" : [ 0.945098039215686, 0.917647058823529, 0.917647058823529, 1.0 ],
					"color" : [ 0.345098039215686, 0.0, 0.572549019607843, 1.0 ],
					"id" : "obj-107",
					"maxclass" : "newobj",
					"numinlets" : 1,
					"numoutlets" : 0,
					"patching_rect" : [ 1032.22312994610138, 1993.82694406691644, 42.0, 22.0 ],
					"text" : "out 25",
					"textcolor" : [ 0.345098039215686, 0.0, 0.572549019607843, 1.0 ]
				}

			}
, 			{
				"box" : 				{
					"bgcolor" : [ 0.945098039215686, 0.917647058823529, 0.917647058823529, 1.0 ],
					"color" : [ 0.345098039215686, 0.0, 0.572549019607843, 1.0 ],
					"id" : "obj-103",
					"maxclass" : "newobj",
					"numinlets" : 1,
					"numoutlets" : 0,
					"patching_rect" : [ 886.778685501657037, 1993.82694406691644, 42.0, 22.0 ],
					"text" : "out 24",
					"textcolor" : [ 0.345098039215686, 0.0, 0.572549019607843, 1.0 ]
				}

			}
, 			{
				"box" : 				{
					"bgcolor" : [ 0.945098039215686, 0.917647058823529, 0.917647058823529, 1.0 ],
					"color" : [ 0.345098039215686, 0.0, 0.572549019607843, 1.0 ],
					"id" : "obj-104",
					"maxclass" : "newobj",
					"numinlets" : 1,
					"numoutlets" : 0,
					"patching_rect" : [ 835.22312994610138, 1993.82694406691644, 42.0, 22.0 ],
					"text" : "out 23",
					"textcolor" : [ 0.345098039215686, 0.0, 0.572549019607843, 1.0 ]
				}

			}
, 			{
				"box" : 				{
					"bgcolor" : [ 0.325490196078431, 0.0, 0.545098039215686, 1.0 ],
					"fontface" : 0,
					"fontname" : "Ableton Sans Medium",
					"fontsize" : 12.0,
					"id" : "obj-102",
					"maxclass" : "comment",
					"numinlets" : 0,
					"numoutlets" : 0,
					"patching_rect" : [ 800.499999999999773, 2031.82694406691644, 171.0, 21.0 ],
					"suppressinlet" : 1,
					"text" : "Dry: very low L / very low R",
					"textcolor" : [ 1.0, 1.0, 1.0, 1.0 ],
					"textjustification" : 1
				}

			}
, 			{
				"box" : 				{
					"bgcolor" : [ 0.325490196078431, 0.0, 0.545098039215686, 1.0 ],
					"fontface" : 0,
					"fontname" : "Ableton Sans Medium",
					"fontsize" : 12.0,
					"id" : "obj-101",
					"maxclass" : "comment",
					"numinlets" : 0,
					"numoutlets" : 0,
					"patching_rect" : [ 992.499999999999773, 2031.82694406691644, 171.0, 21.0 ],
					"suppressinlet" : 1,
					"text" : "Wet: very low L / very low R",
					"textcolor" : [ 1.0, 1.0, 1.0, 1.0 ],
					"textjustification" : 1
				}

			}
, 			{
				"box" : 				{
					"bgcolor" : [ 0.843137254901961, 0.827450980392157, 1.0, 1.0 ],
					"color" : [ 0.094117647058824, 0.07843137254902, 0.243137254901961, 1.0 ],
					"fontname" : "Ableton Sans Medium",
					"fontsize" : 12.0,
					"id" : "obj-99",
					"maxclass" : "newobj",
					"numinlets" : 1,
					"numoutlets" : 1,
					"outlettype" : [ "" ],
					"patching_rect" : [ 1756.812346838124313, 1370.938055451088985, 169.0, 23.0 ],
					"text" : "setparam lock_very_low_mod",
					"textcolor" : [ 0.094117647058824, 0.07843137254902, 0.243137254901961, 1.0 ],
					"varname" : "shape[21]"
				}

			}
, 			{
				"box" : 				{
					"bgcolor" : [ 0.843137254901961, 0.827450980392157, 1.0, 1.0 ],
					"color" : [ 0.094117647058824, 0.07843137254902, 0.243137254901961, 1.0 ],
					"id" : "obj-100",
					"maxclass" : "newobj",
					"numinlets" : 0,
					"numoutlets" : 1,
					"outlettype" : [ "" ],
					"patching_rect" : [ 1756.812346838124313, 1333.215833297131894, 306.0, 22.0 ],
					"text" : "param lock_very_low_mod @default 0 @min 0 @max 1",
					"textcolor" : [ 0.094117647058824, 0.07843137254902, 0.243137254901961, 1.0 ]
				}

			}
, 			{
				"box" : 				{
					"bgcolor" : [ 0.843137254901961, 0.827450980392157, 1.0, 1.0 ],
					"color" : [ 0.094117647058824, 0.07843137254902, 0.243137254901961, 1.0 ],
					"fontname" : "Ableton Sans Medium",
					"fontsize" : 12.0,
					"id" : "obj-97",
					"maxclass" : "newobj",
					"numinlets" : 1,
					"numoutlets" : 1,
					"outlettype" : [ "" ],
					"patching_rect" : [ 1594.812346838124313, 830.826945295689711, 141.0, 23.0 ],
					"text" : "setparam VeryLoDryTrim",
					"textcolor" : [ 0.094117647058824, 0.07843137254902, 0.243137254901961, 1.0 ],
					"varname" : "shape[20]"
				}

			}
, 			{
				"box" : 				{
					"bgcolor" : [ 0.843137254901961, 0.827450980392157, 1.0, 1.0 ],
					"color" : [ 0.094117647058824, 0.07843137254902, 0.243137254901961, 1.0 ],
					"fontname" : "Ableton Sans Medium",
					"fontsize" : 12.0,
					"id" : "obj-98",
					"maxclass" : "newobj",
					"numinlets" : 0,
					"numoutlets" : 1,
					"outlettype" : [ "" ],
					"patching_rect" : [ 1594.812346838124313, 792.10472314173262, 234.0, 23.0 ],
					"text" : "param VeryLoDryTrim 0.5 @min 0 @max 1",
					"textcolor" : [ 0.094117647058824, 0.07843137254902, 0.243137254901961, 1.0 ],
					"varname" : "hi_filter[12]"
				}

			}
, 			{
				"box" : 				{
					"id" : "obj-95",
					"maxclass" : "newobj",
					"numinlets" : 2,
					"numoutlets" : 1,
					"outlettype" : [ "" ],
					"patching_rect" : [ 693.507889862924685, 810.760280062590709, 141.0, 22.0 ],
					"text" : "delay 5000 @feedback 0"
				}

			}
, 			{
				"box" : 				{
					"id" : "obj-96",
					"maxclass" : "newobj",
					"numinlets" : 2,
					"numoutlets" : 1,
					"outlettype" : [ "" ],
					"patching_rect" : [ 752.507889862924685, 837.160280062590573, 141.0, 22.0 ],
					"text" : "delay 5000 @feedback 0"
				}

			}
, 			{
				"box" : 				{
					"id" : "obj-90",
					"maxclass" : "newobj",
					"numinlets" : 1,
					"numoutlets" : 1,
					"outlettype" : [ "" ],
					"patching_rect" : [ 781.007889862924685, 513.6602800625908, 28.0, 22.0 ],
					"text" : "abs"
				}

			}
, 			{
				"box" : 				{
					"id" : "obj-91",
					"maxclass" : "newobj",
					"numinlets" : 1,
					"numoutlets" : 1,
					"outlettype" : [ "" ],
					"patching_rect" : [ 781.007889862924685, 448.332044687635744, 26.0, 22.0 ],
					"text" : "+ 1"
				}

			}
, 			{
				"box" : 				{
					"id" : "obj-92",
					"maxclass" : "newobj",
					"numinlets" : 2,
					"numoutlets" : 2,
					"outlettype" : [ "", "" ],
					"patching_rect" : [ 781.007889862924685, 480.996162375113272, 132.0, 22.0 ],
					"text" : "gate 2"
				}

			}
, 			{
				"box" : 				{
					"id" : "obj-93",
					"maxclass" : "newobj",
					"numinlets" : 1,
					"numoutlets" : 1,
					"outlettype" : [ "" ],
					"patching_rect" : [ 781.007889862924685, 415.667927000158102, 26.0, 22.0 ],
					"text" : "> 0"
				}

			}
, 			{
				"box" : 				{
					"bgcolor" : [ 0.843137254901961, 0.827450980392157, 1.0, 1.0 ],
					"color" : [ 0.094117647058824, 0.07843137254902, 0.243137254901961, 1.0 ],
					"fontname" : "Ableton Sans Medium",
					"fontsize" : 12.0,
					"id" : "obj-94",
					"maxclass" : "newobj",
					"numinlets" : 0,
					"numoutlets" : 1,
					"outlettype" : [ "" ],
					"patching_rect" : [ 827.835057024685284, 367.160279448204619, 283.0, 23.0 ],
					"text" : "Param very_low_spread 0 @min -5000 @max 5000",
					"textcolor" : [ 0.094117647058824, 0.07843137254902, 0.243137254901961, 1.0 ]
				}

			}
, 			{
				"box" : 				{
					"bgcolor" : [ 0.945098039215686, 0.917647058823529, 0.917647058823529, 1.0 ],
					"color" : [ 0.345098039215686, 0.0, 0.572549019607843, 1.0 ],
					"id" : "obj-89",
					"maxclass" : "newobj",
					"numinlets" : 0,
					"numoutlets" : 1,
					"outlettype" : [ "" ],
					"patching_rect" : [ 830.335057024685284, 599.493612371947165, 28.0, 22.0 ],
					"text" : "in 8",
					"textcolor" : [ 0.345098039215686, 0.0, 0.572549019607843, 1.0 ]
				}

			}
, 			{
				"box" : 				{
					"bgcolor" : [ 0.945098039215686, 0.917647058823529, 0.917647058823529, 1.0 ],
					"color" : [ 0.345098039215686, 0.0, 0.572549019607843, 1.0 ],
					"id" : "obj-88",
					"maxclass" : "newobj",
					"numinlets" : 0,
					"numoutlets" : 1,
					"outlettype" : [ "" ],
					"patching_rect" : [ 312.333333333333258, 1179.759779620625977, 35.0, 22.0 ],
					"text" : "in 12",
					"textcolor" : [ 0.345098039215686, 0.0, 0.572549019607843, 1.0 ]
				}

			}
, 			{
				"box" : 				{
					"bgcolor" : [ 0.945098039215686, 0.917647058823529, 0.917647058823529, 1.0 ],
					"color" : [ 0.345098039215686, 0.0, 0.572549019607843, 1.0 ],
					"id" : "obj-84",
					"maxclass" : "newobj",
					"numinlets" : 1,
					"numoutlets" : 0,
					"patching_rect" : [ 345.0, 910.771390217990074, 42.0, 22.0 ],
					"text" : "out 22",
					"textcolor" : [ 0.345098039215686, 0.0, 0.572549019607843, 1.0 ]
				}

			}
, 			{
				"box" : 				{
					"bgcolor" : [ 0.945098039215686, 0.917647058823529, 0.917647058823529, 1.0 ],
					"color" : [ 0.345098039215686, 0.0, 0.572549019607843, 1.0 ],
					"id" : "obj-85",
					"maxclass" : "newobj",
					"numinlets" : 1,
					"numoutlets" : 0,
					"patching_rect" : [ 286.0, 910.771390217990074, 42.0, 22.0 ],
					"text" : "out 21",
					"textcolor" : [ 0.345098039215686, 0.0, 0.572549019607843, 1.0 ]
				}

			}
, 			{
				"box" : 				{
					"bgcolor" : [ 0.843137254901961, 0.827450980392157, 1.0, 1.0 ],
					"color" : [ 0.094117647058824, 0.07843137254902, 0.243137254901961, 1.0 ],
					"fontname" : "Ableton Sans Medium",
					"fontsize" : 12.0,
					"id" : "obj-83",
					"maxclass" : "newobj",
					"numinlets" : 1,
					"numoutlets" : 1,
					"outlettype" : [ "" ],
					"patching_rect" : [ 1798.812346838124313, 1523.826944066917349, 125.0, 23.0 ],
					"text" : "setparam ease_select",
					"textcolor" : [ 0.094117647058824, 0.07843137254902, 0.243137254901961, 1.0 ],
					"varname" : "shape[18]"
				}

			}
, 			{
				"box" : 				{
					"bgcolor" : [ 0.843137254901961, 0.827450980392157, 1.0, 1.0 ],
					"color" : [ 0.094117647058824, 0.07843137254902, 0.243137254901961, 1.0 ],
					"id" : "obj-132",
					"maxclass" : "newobj",
					"numinlets" : 0,
					"numoutlets" : 1,
					"outlettype" : [ "" ],
					"patching_rect" : [ 1798.812346838124313, 1486.104721912960258, 264.0, 22.0 ],
					"text" : "param ease_select @default 2 @min 1 @max 4",
					"textcolor" : [ 0.094117647058824, 0.07843137254902, 0.243137254901961, 1.0 ]
				}

			}
, 			{
				"box" : 				{
					"bgcolor" : [ 0.843137254901961, 0.827450980392157, 1.0, 1.0 ],
					"color" : [ 0.094117647058824, 0.07843137254902, 0.243137254901961, 1.0 ],
					"fontname" : "Ableton Sans Medium",
					"fontsize" : 12.0,
					"id" : "obj-73",
					"maxclass" : "newobj",
					"numinlets" : 1,
					"numoutlets" : 1,
					"outlettype" : [ "" ],
					"patching_rect" : [ 1776.812346838124313, 1447.382499759003167, 139.0, 23.0 ],
					"text" : "setparam lock_low_mod",
					"textcolor" : [ 0.094117647058824, 0.07843137254902, 0.243137254901961, 1.0 ],
					"varname" : "shape[16]"
				}

			}
, 			{
				"box" : 				{
					"bgcolor" : [ 0.843137254901961, 0.827450980392157, 1.0, 1.0 ],
					"color" : [ 0.094117647058824, 0.07843137254902, 0.243137254901961, 1.0 ],
					"id" : "obj-32",
					"maxclass" : "newobj",
					"numinlets" : 0,
					"numoutlets" : 1,
					"outlettype" : [ "" ],
					"patching_rect" : [ 1776.812346838124313, 1409.660277605046076, 276.0, 22.0 ],
					"text" : "param lock_low_mod @default 0 @min 0 @max 1",
					"textcolor" : [ 0.094117647058824, 0.07843137254902, 0.243137254901961, 1.0 ]
				}

			}
, 			{
				"box" : 				{
					"bgcolor" : [ 0.325490196078431, 0.0, 0.545098039215686, 1.0 ],
					"fontface" : 0,
					"fontname" : "Ableton Sans Medium",
					"fontsize" : 12.0,
					"id" : "obj-82",
					"linecount" : 2,
					"maxclass" : "comment",
					"numinlets" : 0,
					"numoutlets" : 0,
					"patching_rect" : [ 1329.999999999999773, 2017.82694406691644, 92.0, 35.0 ],
					"suppressinlet" : 1,
					"text" : "pre-crossfade low outputs",
					"textcolor" : [ 1.0, 1.0, 1.0, 1.0 ],
					"textjustification" : 1
				}

			}
, 			{
				"box" : 				{
					"bgcolor" : [ 0.325490196078431, 0.0, 0.545098039215686, 1.0 ],
					"fontface" : 0,
					"fontname" : "Ableton Sans Medium",
					"fontsize" : 12.0,
					"id" : "obj-81",
					"maxclass" : "comment",
					"numinlets" : 0,
					"numoutlets" : 0,
					"patching_rect" : [ 1541.5, 1897.82694406691644, 63.0, 21.0 ],
					"suppressinlet" : 1,
					"text" : "high mod",
					"textcolor" : [ 1.0, 1.0, 1.0, 1.0 ],
					"textjustification" : 1
				}

			}
, 			{
				"box" : 				{
					"bgcolor" : [ 0.325490196078431, 0.0, 0.545098039215686, 1.0 ],
					"fontface" : 0,
					"fontname" : "Ableton Sans Medium",
					"fontsize" : 12.0,
					"id" : "obj-80",
					"maxclass" : "comment",
					"numinlets" : 0,
					"numoutlets" : 0,
					"patching_rect" : [ 1446.944444444444343, 1935.82694406691644, 63.0, 21.0 ],
					"suppressinlet" : 1,
					"text" : "high dry",
					"textcolor" : [ 1.0, 1.0, 1.0, 1.0 ],
					"textjustification" : 1
				}

			}
, 			{
				"box" : 				{
					"bgcolor" : [ 0.325490196078431, 0.0, 0.545098039215686, 1.0 ],
					"fontface" : 0,
					"fontname" : "Ableton Sans Medium",
					"fontsize" : 12.0,
					"id" : "obj-79",
					"maxclass" : "comment",
					"numinlets" : 0,
					"numoutlets" : 0,
					"patching_rect" : [ 1344.5, 1975.660280062590573, 63.0, 21.0 ],
					"suppressinlet" : 1,
					"text" : "low mod",
					"textcolor" : [ 1.0, 1.0, 1.0, 1.0 ],
					"textjustification" : 1
				}

			}
, 			{
				"box" : 				{
					"bgcolor" : [ 0.945098039215686, 0.917647058823529, 0.917647058823529, 1.0 ],
					"color" : [ 0.345098039215686, 0.0, 0.572549019607843, 1.0 ],
					"id" : "obj-74",
					"maxclass" : "newobj",
					"numinlets" : 1,
					"numoutlets" : 0,
					"patching_rect" : [ 1578.776870053898165, 1869.82694406691644, 42.0, 22.0 ],
					"text" : "out 20",
					"textcolor" : [ 0.345098039215686, 0.0, 0.572549019607843, 1.0 ]
				}

			}
, 			{
				"box" : 				{
					"bgcolor" : [ 0.945098039215686, 0.917647058823529, 0.917647058823529, 1.0 ],
					"color" : [ 0.345098039215686, 0.0, 0.572549019607843, 1.0 ],
					"id" : "obj-76",
					"maxclass" : "newobj",
					"numinlets" : 1,
					"numoutlets" : 0,
					"patching_rect" : [ 1527.221314498342508, 1869.82694406691644, 42.0, 22.0 ],
					"text" : "out 19",
					"textcolor" : [ 0.345098039215686, 0.0, 0.572549019607843, 1.0 ]
				}

			}
, 			{
				"box" : 				{
					"bgcolor" : [ 0.945098039215686, 0.917647058823529, 0.917647058823529, 1.0 ],
					"color" : [ 0.345098039215686, 0.0, 0.572549019607843, 1.0 ],
					"id" : "obj-77",
					"maxclass" : "newobj",
					"numinlets" : 1,
					"numoutlets" : 0,
					"patching_rect" : [ 1478.944444444444343, 1908.82694406691644, 42.0, 22.0 ],
					"text" : "out 18",
					"textcolor" : [ 0.345098039215686, 0.0, 0.572549019607843, 1.0 ]
				}

			}
, 			{
				"box" : 				{
					"bgcolor" : [ 0.945098039215686, 0.917647058823529, 0.917647058823529, 1.0 ],
					"color" : [ 0.345098039215686, 0.0, 0.572549019607843, 1.0 ],
					"id" : "obj-78",
					"maxclass" : "newobj",
					"numinlets" : 1,
					"numoutlets" : 0,
					"patching_rect" : [ 1427.388888888888914, 1908.82694406691644, 42.0, 22.0 ],
					"text" : "out 17",
					"textcolor" : [ 0.345098039215686, 0.0, 0.572549019607843, 1.0 ]
				}

			}
, 			{
				"box" : 				{
					"bgcolor" : [ 0.325490196078431, 0.0, 0.545098039215686, 1.0 ],
					"fontface" : 0,
					"fontname" : "Ableton Sans Medium",
					"fontsize" : 12.0,
					"id" : "obj-114",
					"maxclass" : "comment",
					"numinlets" : 0,
					"numoutlets" : 0,
					"patching_rect" : [ 1237.055555555555657, 2017.82694406691644, 63.0, 21.0 ],
					"suppressinlet" : 1,
					"text" : "low dry",
					"textcolor" : [ 1.0, 1.0, 1.0, 1.0 ],
					"textjustification" : 1
				}

			}
, 			{
				"box" : 				{
					"bgcolor" : [ 0.325490196078431, 0.0, 0.545098039215686, 1.0 ],
					"fontface" : 0,
					"fontname" : "Ableton Sans Medium",
					"fontsize" : 12.0,
					"id" : "obj-112",
					"linecount" : 2,
					"maxclass" : "comment",
					"numinlets" : 0,
					"numoutlets" : 0,
					"patching_rect" : [ 1536.165758942787079, 1935.82694406691644, 92.0, 35.0 ],
					"suppressinlet" : 1,
					"text" : "pre-crossfade high outputs",
					"textcolor" : [ 1.0, 1.0, 1.0, 1.0 ],
					"textjustification" : 1
				}

			}
, 			{
				"box" : 				{
					"bgcolor" : [ 0.945098039215686, 0.917647058823529, 0.917647058823529, 1.0 ],
					"color" : [ 0.345098039215686, 0.0, 0.572549019607843, 1.0 ],
					"id" : "obj-71",
					"maxclass" : "newobj",
					"numinlets" : 1,
					"numoutlets" : 0,
					"patching_rect" : [ 1378.055555555555657, 1948.660280062590573, 42.0, 22.0 ],
					"text" : "out 16",
					"textcolor" : [ 0.345098039215686, 0.0, 0.572549019607843, 1.0 ]
				}

			}
, 			{
				"box" : 				{
					"bgcolor" : [ 0.945098039215686, 0.917647058823529, 0.917647058823529, 1.0 ],
					"color" : [ 0.345098039215686, 0.0, 0.572549019607843, 1.0 ],
					"id" : "obj-72",
					"maxclass" : "newobj",
					"numinlets" : 1,
					"numoutlets" : 0,
					"patching_rect" : [ 1326.5, 1948.660280062590573, 42.0, 22.0 ],
					"text" : "out 15",
					"textcolor" : [ 0.345098039215686, 0.0, 0.572549019607843, 1.0 ]
				}

			}
, 			{
				"box" : 				{
					"bgcolor" : [ 0.945098039215686, 0.917647058823529, 0.917647058823529, 1.0 ],
					"color" : [ 0.345098039215686, 0.0, 0.572549019607843, 1.0 ],
					"id" : "obj-69",
					"maxclass" : "newobj",
					"numinlets" : 1,
					"numoutlets" : 0,
					"patching_rect" : [ 1270.944444444444343, 1989.660280062590573, 42.0, 22.0 ],
					"text" : "out 14",
					"textcolor" : [ 0.345098039215686, 0.0, 0.572549019607843, 1.0 ]
				}

			}
, 			{
				"box" : 				{
					"bgcolor" : [ 0.945098039215686, 0.917647058823529, 0.917647058823529, 1.0 ],
					"color" : [ 0.345098039215686, 0.0, 0.572549019607843, 1.0 ],
					"id" : "obj-70",
					"maxclass" : "newobj",
					"numinlets" : 1,
					"numoutlets" : 0,
					"patching_rect" : [ 1219.388888888888914, 1989.660280062590573, 42.0, 22.0 ],
					"text" : "out 13",
					"textcolor" : [ 0.345098039215686, 0.0, 0.572549019607843, 1.0 ]
				}

			}
, 			{
				"box" : 				{
					"bgcolor" : [ 0.843137254901961, 0.827450980392157, 1.0, 1.0 ],
					"color" : [ 0.094117647058824, 0.07843137254902, 0.243137254901961, 1.0 ],
					"fontname" : "Ableton Sans Medium",
					"fontsize" : 12.0,
					"id" : "obj-68",
					"maxclass" : "newobj",
					"numinlets" : 1,
					"numoutlets" : 1,
					"outlettype" : [ "" ],
					"patching_rect" : [ 1735.0, 1294.493611143174803, 132.0, 23.0 ],
					"text" : "setparam filter_bypass",
					"textcolor" : [ 0.094117647058824, 0.07843137254902, 0.243137254901961, 1.0 ],
					"varname" : "shape[14]"
				}

			}
, 			{
				"box" : 				{
					"bgcolor" : [ 0.843137254901961, 0.827450980392157, 1.0, 1.0 ],
					"color" : [ 0.094117647058824, 0.07843137254902, 0.243137254901961, 1.0 ],
					"id" : "obj-106",
					"maxclass" : "newobj",
					"numinlets" : 0,
					"numoutlets" : 1,
					"outlettype" : [ "" ],
					"patching_rect" : [ 1735.0, 1256.771388989217712, 206.0, 22.0 ],
					"text" : "param filter_bypass @min 0 @max 1",
					"textcolor" : [ 0.094117647058824, 0.07843137254902, 0.243137254901961, 1.0 ]
				}

			}
, 			{
				"box" : 				{
					"bgcolor" : [ 0.945098039215686, 0.917647058823529, 0.917647058823529, 1.0 ],
					"color" : [ 0.345098039215686, 0.0, 0.572549019607843, 1.0 ],
					"id" : "obj-65",
					"maxclass" : "newobj",
					"numinlets" : 0,
					"numoutlets" : 1,
					"outlettype" : [ "" ],
					"patching_rect" : [ 268.333333333333314, 1235.982002388969704, 34.0, 22.0 ],
					"text" : "in 11",
					"textcolor" : [ 0.345098039215686, 0.0, 0.572549019607843, 1.0 ]
				}

			}
, 			{
				"box" : 				{
					"bgcolor" : [ 0.843137254901961, 0.827450980392157, 1.0, 1.0 ],
					"color" : [ 0.094117647058824, 0.07843137254902, 0.243137254901961, 1.0 ],
					"fontname" : "Ableton Sans Medium",
					"fontsize" : 12.0,
					"id" : "obj-66",
					"maxclass" : "newobj",
					"numinlets" : 0,
					"numoutlets" : 1,
					"outlettype" : [ "" ],
					"patching_rect" : [ 1727.5, 1179.32694468130353, 265.0, 23.0 ],
					"text" : "param mix_bias @default 0.75 @min -1 @max 1",
					"textcolor" : [ 0.094117647058824, 0.07843137254902, 0.243137254901961, 1.0 ],
					"varname" : "hi_filter[10]"
				}

			}
, 			{
				"box" : 				{
					"bgcolor" : [ 0.843137254901961, 0.827450980392157, 1.0, 1.0 ],
					"color" : [ 0.094117647058824, 0.07843137254902, 0.243137254901961, 1.0 ],
					"fontname" : "Ableton Sans Medium",
					"fontsize" : 12.0,
					"id" : "obj-67",
					"maxclass" : "newobj",
					"numinlets" : 1,
					"numoutlets" : 1,
					"outlettype" : [ "" ],
					"patching_rect" : [ 1727.5, 1218.049166835260621, 109.0, 23.0 ],
					"text" : "setparam mix_bias",
					"textcolor" : [ 0.094117647058824, 0.07843137254902, 0.243137254901961, 1.0 ],
					"varname" : "shape[12]"
				}

			}
, 			{
				"box" : 				{
					"bgcolor" : [ 0.843137254901961, 0.827450980392157, 1.0, 1.0 ],
					"color" : [ 0.094117647058824, 0.07843137254902, 0.243137254901961, 1.0 ],
					"fontname" : "Ableton Sans Medium",
					"fontsize" : 12.0,
					"id" : "obj-64",
					"maxclass" : "newobj",
					"numinlets" : 0,
					"numoutlets" : 1,
					"outlettype" : [ "" ],
					"patching_rect" : [ 1697.5, 1101.882500373389348, 274.0, 23.0 ],
					"text" : "param Gate_Thresh_Wet 0.0013 @min 0 @max 1",
					"textcolor" : [ 0.094117647058824, 0.07843137254902, 0.243137254901961, 1.0 ],
					"varname" : "hi_filter[2]"
				}

			}
, 			{
				"box" : 				{
					"bgcolor" : [ 0.843137254901961, 0.827450980392157, 1.0, 1.0 ],
					"color" : [ 0.094117647058824, 0.07843137254902, 0.243137254901961, 1.0 ],
					"fontname" : "Ableton Sans Medium",
					"fontsize" : 12.0,
					"id" : "obj-48",
					"maxclass" : "newobj",
					"numinlets" : 1,
					"numoutlets" : 1,
					"outlettype" : [ "" ],
					"patching_rect" : [ 1697.5, 1140.604722527346439, 161.0, 23.0 ],
					"text" : "setparam Gate_Thresh_Wet",
					"textcolor" : [ 0.094117647058824, 0.07843137254902, 0.243137254901961, 1.0 ],
					"varname" : "shape[1]"
				}

			}
, 			{
				"box" : 				{
					"bgcolor" : [ 0.325490196078431, 0.0, 0.545098039215686, 1.0 ],
					"id" : "obj-41",
					"maxclass" : "comment",
					"numinlets" : 0,
					"numoutlets" : 0,
					"patching_rect" : [ 617.0, 1994.660280062590573, 190.0, 20.0 ],
					"suppressinlet" : 1,
					"text" : "smoothed envelope / dry-wet mix",
					"textcolor" : [ 1.0, 1.0, 1.0, 1.0 ]
				}

			}
, 			{
				"box" : 				{
					"bgcolor" : [ 0.945098039215686, 0.917647058823529, 0.917647058823529, 1.0 ],
					"color" : [ 0.345098039215686, 0.0, 0.572549019607843, 1.0 ],
					"id" : "obj-3",
					"maxclass" : "newobj",
					"numinlets" : 1,
					"numoutlets" : 0,
					"patching_rect" : [ 737.0, 1970.660280062590573, 42.0, 22.0 ],
					"text" : "out 12",
					"textcolor" : [ 0.345098039215686, 0.0, 0.572549019607843, 1.0 ]
				}

			}
, 			{
				"box" : 				{
					"bgcolor" : [ 0.945098039215686, 0.917647058823529, 0.917647058823529, 1.0 ],
					"color" : [ 0.345098039215686, 0.0, 0.572549019607843, 1.0 ],
					"id" : "obj-35",
					"maxclass" : "newobj",
					"numinlets" : 1,
					"numoutlets" : 0,
					"patching_rect" : [ 686.333333333333258, 1970.660280062590573, 41.0, 22.0 ],
					"text" : "out 11",
					"textcolor" : [ 0.345098039215686, 0.0, 0.572549019607843, 1.0 ]
				}

			}
, 			{
				"box" : 				{
					"bgcolor" : [ 0.843137254901961, 0.827450980392157, 1.0, 1.0 ],
					"color" : [ 0.094117647058824, 0.07843137254902, 0.243137254901961, 1.0 ],
					"fontname" : "Ableton Sans Medium",
					"fontsize" : 12.0,
					"id" : "obj-75",
					"maxclass" : "newobj",
					"numinlets" : 1,
					"numoutlets" : 1,
					"outlettype" : [ "" ],
					"patching_rect" : [ 1673.0, 1063.160278219432257, 158.0, 23.0 ],
					"text" : "setparam Gate_Thresh_Dry",
					"textcolor" : [ 0.094117647058824, 0.07843137254902, 0.243137254901961, 1.0 ],
					"varname" : "shape[8]"
				}

			}
, 			{
				"box" : 				{
					"bgcolor" : [ 0.843137254901961, 0.827450980392157, 1.0, 1.0 ],
					"color" : [ 0.094117647058824, 0.07843137254902, 0.243137254901961, 1.0 ],
					"fontname" : "Ableton Sans Medium",
					"fontsize" : 12.0,
					"id" : "obj-87",
					"maxclass" : "newobj",
					"numinlets" : 0,
					"numoutlets" : 1,
					"outlettype" : [ "" ],
					"patching_rect" : [ 1673.0, 1024.438056065475166, 271.0, 23.0 ],
					"text" : "param Gate_Thresh_Dry 0.0013 @min 0 @max 1",
					"textcolor" : [ 0.094117647058824, 0.07843137254902, 0.243137254901961, 1.0 ],
					"varname" : "hi_filter[9]"
				}

			}
, 			{
				"box" : 				{
					"bgcolor" : [ 0.325490196078431, 0.0, 0.545098039215686, 1.0 ],
					"id" : "obj-63",
					"maxclass" : "comment",
					"numinlets" : 0,
					"numoutlets" : 0,
					"patching_rect" : [ 378.0, 1883.660280062590573, 195.0, 20.0 ],
					"suppressinlet" : 1,
					"text" : "Wet: low L / low R / High L / High R",
					"textcolor" : [ 1.0, 1.0, 1.0, 1.0 ]
				}

			}
, 			{
				"box" : 				{
					"bgcolor" : [ 0.945098039215686, 0.917647058823529, 0.917647058823529, 1.0 ],
					"color" : [ 0.345098039215686, 0.0, 0.572549019607843, 1.0 ],
					"id" : "obj-40",
					"maxclass" : "newobj",
					"numinlets" : 1,
					"numoutlets" : 0,
					"patching_rect" : [ 530.5, 1859.660280062590573, 35.0, 22.0 ],
					"text" : "out 8",
					"textcolor" : [ 0.345098039215686, 0.0, 0.572549019607843, 1.0 ]
				}

			}
, 			{
				"box" : 				{
					"bgcolor" : [ 0.945098039215686, 0.917647058823529, 0.917647058823529, 1.0 ],
					"color" : [ 0.345098039215686, 0.0, 0.572549019607843, 1.0 ],
					"id" : "obj-55",
					"maxclass" : "newobj",
					"numinlets" : 1,
					"numoutlets" : 0,
					"patching_rect" : [ 450.833333333333314, 1859.660280062590573, 35.0, 22.0 ],
					"text" : "out 6",
					"textcolor" : [ 0.345098039215686, 0.0, 0.572549019607843, 1.0 ]
				}

			}
, 			{
				"box" : 				{
					"bgcolor" : [ 0.945098039215686, 0.917647058823529, 0.917647058823529, 1.0 ],
					"color" : [ 0.345098039215686, 0.0, 0.572549019607843, 1.0 ],
					"id" : "obj-56",
					"maxclass" : "newobj",
					"numinlets" : 1,
					"numoutlets" : 0,
					"patching_rect" : [ 490.666666666666629, 1859.660280062590573, 35.0, 22.0 ],
					"text" : "out 7",
					"textcolor" : [ 0.345098039215686, 0.0, 0.572549019607843, 1.0 ]
				}

			}
, 			{
				"box" : 				{
					"bgcolor" : [ 0.945098039215686, 0.917647058823529, 0.917647058823529, 1.0 ],
					"color" : [ 0.345098039215686, 0.0, 0.572549019607843, 1.0 ],
					"id" : "obj-60",
					"maxclass" : "newobj",
					"numinlets" : 1,
					"numoutlets" : 0,
					"patching_rect" : [ 411.0, 1859.660280062590573, 35.0, 22.0 ],
					"text" : "out 5",
					"textcolor" : [ 0.345098039215686, 0.0, 0.572549019607843, 1.0 ]
				}

			}
, 			{
				"box" : 				{
					"bgcolor" : [ 0.325490196078431, 0.0, 0.545098039215686, 1.0 ],
					"id" : "obj-54",
					"maxclass" : "comment",
					"numinlets" : 0,
					"numoutlets" : 0,
					"patching_rect" : [ 559.0, 1948.660280062590573, 120.0, 20.0 ],
					"suppressinlet" : 1,
					"text" : "Low LFO / High LFO",
					"textcolor" : [ 1.0, 1.0, 1.0, 1.0 ]
				}

			}
, 			{
				"box" : 				{
					"bgcolor" : [ 0.945098039215686, 0.917647058823529, 0.917647058823529, 1.0 ],
					"color" : [ 0.345098039215686, 0.0, 0.572549019607843, 1.0 ],
					"id" : "obj-39",
					"maxclass" : "newobj",
					"numinlets" : 1,
					"numoutlets" : 0,
					"patching_rect" : [ 626.0, 1924.660280062590573, 42.0, 22.0 ],
					"text" : "out 10",
					"textcolor" : [ 0.345098039215686, 0.0, 0.572549019607843, 1.0 ]
				}

			}
, 			{
				"box" : 				{
					"bgcolor" : [ 0.945098039215686, 0.917647058823529, 0.917647058823529, 1.0 ],
					"color" : [ 0.345098039215686, 0.0, 0.572549019607843, 1.0 ],
					"id" : "obj-53",
					"maxclass" : "newobj",
					"numinlets" : 1,
					"numoutlets" : 0,
					"patching_rect" : [ 575.333333333333258, 1924.660280062590573, 35.0, 22.0 ],
					"text" : "out 9",
					"textcolor" : [ 0.345098039215686, 0.0, 0.572549019607843, 1.0 ]
				}

			}
, 			{
				"box" : 				{
					"bgcolor" : [ 0.843137254901961, 0.827450980392157, 1.0, 1.0 ],
					"color" : [ 0.094117647058824, 0.07843137254902, 0.243137254901961, 1.0 ],
					"fontname" : "Ableton Sans Medium",
					"fontsize" : 12.0,
					"id" : "obj-31",
					"maxclass" : "newobj",
					"numinlets" : 1,
					"numoutlets" : 1,
					"outlettype" : [ "" ],
					"patching_rect" : [ 1550.372288091976998, 676.938056679861347, 99.0, 23.0 ],
					"text" : "setparam Xcurve",
					"textcolor" : [ 0.094117647058824, 0.07843137254902, 0.243137254901961, 1.0 ],
					"varname" : "shape[7]"
				}

			}
, 			{
				"box" : 				{
					"bgcolor" : [ 0.843137254901961, 0.827450980392157, 1.0, 1.0 ],
					"color" : [ 0.094117647058824, 0.07843137254902, 0.243137254901961, 1.0 ],
					"fontname" : "Ableton Sans Medium",
					"fontsize" : 12.0,
					"id" : "obj-22",
					"maxclass" : "newobj",
					"numinlets" : 1,
					"numoutlets" : 1,
					"outlettype" : [ "" ],
					"patching_rect" : [ 1526.372288091976998, 599.493612371947165, 101.0, 23.0 ],
					"text" : "setparam Xlo_val",
					"textcolor" : [ 0.094117647058824, 0.07843137254902, 0.243137254901961, 1.0 ],
					"varname" : "shape[6]"
				}

			}
, 			{
				"box" : 				{
					"bgcolor" : [ 0.843137254901961, 0.827450980392157, 1.0, 1.0 ],
					"color" : [ 0.094117647058824, 0.07843137254902, 0.243137254901961, 1.0 ],
					"fontname" : "Ableton Sans Medium",
					"fontsize" : 12.0,
					"id" : "obj-21",
					"maxclass" : "newobj",
					"numinlets" : 1,
					"numoutlets" : 1,
					"outlettype" : [ "" ],
					"patching_rect" : [ 1504.872288091976998, 522.049168064032983, 101.0, 23.0 ],
					"text" : "setparam Xhi_val",
					"textcolor" : [ 0.094117647058824, 0.07843137254902, 0.243137254901961, 1.0 ],
					"varname" : "shape[5]"
				}

			}
, 			{
				"box" : 				{
					"bgcolor" : [ 0.843137254901961, 0.827450980392157, 1.0, 1.0 ],
					"color" : [ 0.094117647058824, 0.07843137254902, 0.243137254901961, 1.0 ],
					"fontname" : "Ableton Sans Medium",
					"fontsize" : 12.0,
					"id" : "obj-18",
					"maxclass" : "newobj",
					"numinlets" : 1,
					"numoutlets" : 1,
					"outlettype" : [ "" ],
					"patching_rect" : [ 1483.372288091976998, 444.604723756118801, 130.0, 23.0 ],
					"text" : "setparam Xslide_down",
					"textcolor" : [ 0.094117647058824, 0.07843137254902, 0.243137254901961, 1.0 ],
					"varname" : "shape[4]"
				}

			}
, 			{
				"box" : 				{
					"bgcolor" : [ 0.843137254901961, 0.827450980392157, 1.0, 1.0 ],
					"color" : [ 0.094117647058824, 0.07843137254902, 0.243137254901961, 1.0 ],
					"fontname" : "Ableton Sans Medium",
					"fontsize" : 12.0,
					"id" : "obj-12",
					"maxclass" : "newobj",
					"numinlets" : 1,
					"numoutlets" : 1,
					"outlettype" : [ "" ],
					"patching_rect" : [ 1458.372288091976998, 367.160279448204619, 115.0, 23.0 ],
					"text" : "setparam Xslide_up",
					"textcolor" : [ 0.094117647058824, 0.07843137254902, 0.243137254901961, 1.0 ],
					"varname" : "shape[2]"
				}

			}
, 			{
				"box" : 				{
					"bgcolor" : [ 0.843137254901961, 0.827450980392157, 1.0, 1.0 ],
					"color" : [ 0.094117647058824, 0.07843137254902, 0.243137254901961, 1.0 ],
					"fontname" : "Ableton Sans Medium",
					"fontsize" : 12.0,
					"id" : "obj-124",
					"maxclass" : "newobj",
					"numinlets" : 0,
					"numoutlets" : 1,
					"outlettype" : [ "" ],
					"patching_rect" : [ 1550.372288091976998, 638.215834525904256, 214.0, 23.0 ],
					"text" : "param Zcurve 0 @min -100 @max 100",
					"textcolor" : [ 0.094117647058824, 0.07843137254902, 0.243137254901961, 1.0 ],
					"varname" : "hi_filter[8]"
				}

			}
, 			{
				"box" : 				{
					"bgcolor" : [ 0.843137254901961, 0.827450980392157, 1.0, 1.0 ],
					"color" : [ 0.094117647058824, 0.07843137254902, 0.243137254901961, 1.0 ],
					"fontname" : "Ableton Sans Medium",
					"fontsize" : 12.0,
					"id" : "obj-123",
					"maxclass" : "newobj",
					"numinlets" : 0,
					"numoutlets" : 1,
					"outlettype" : [ "" ],
					"patching_rect" : [ 1526.372288091976998, 560.771390217990074, 223.0, 23.0 ],
					"text" : "param Zlo_val 40 @min -100 @max 200",
					"textcolor" : [ 0.094117647058824, 0.07843137254902, 0.243137254901961, 1.0 ],
					"varname" : "hi_filter[7]"
				}

			}
, 			{
				"box" : 				{
					"bgcolor" : [ 0.843137254901961, 0.827450980392157, 1.0, 1.0 ],
					"color" : [ 0.094117647058824, 0.07843137254902, 0.243137254901961, 1.0 ],
					"fontname" : "Ableton Sans Medium",
					"fontsize" : 12.0,
					"id" : "obj-120",
					"maxclass" : "newobj",
					"numinlets" : 0,
					"numoutlets" : 1,
					"outlettype" : [ "" ],
					"patching_rect" : [ 1504.872288091976998, 483.326945910075892, 223.0, 23.0 ],
					"text" : "param Zhi_val 44 @min -100 @max 200",
					"textcolor" : [ 0.094117647058824, 0.07843137254902, 0.243137254901961, 1.0 ],
					"varname" : "hi_filter[6]"
				}

			}
, 			{
				"box" : 				{
					"bgcolor" : [ 0.843137254901961, 0.827450980392157, 1.0, 1.0 ],
					"color" : [ 0.094117647058824, 0.07843137254902, 0.243137254901961, 1.0 ],
					"fontname" : "Ableton Sans Medium",
					"fontsize" : 12.0,
					"id" : "obj-118",
					"maxclass" : "newobj",
					"numinlets" : 0,
					"numoutlets" : 1,
					"outlettype" : [ "" ],
					"patching_rect" : [ 1458.372288091976998, 328.438057294247528, 210.0, 23.0 ],
					"text" : "param Zslide_up 3 @min 0 @max 200",
					"textcolor" : [ 0.094117647058824, 0.07843137254902, 0.243137254901961, 1.0 ],
					"varname" : "hi_filter[5]"
				}

			}
, 			{
				"box" : 				{
					"bgcolor" : [ 0.843137254901961, 0.827450980392157, 1.0, 1.0 ],
					"color" : [ 0.094117647058824, 0.07843137254902, 0.243137254901961, 1.0 ],
					"fontname" : "Ableton Sans Medium",
					"fontsize" : 12.0,
					"id" : "obj-117",
					"maxclass" : "newobj",
					"numinlets" : 0,
					"numoutlets" : 1,
					"outlettype" : [ "" ],
					"patching_rect" : [ 1483.372288091976998, 405.88250160216171, 246.0, 23.0 ],
					"text" : "param Zslide_down 534 @min 0 @max 3000",
					"textcolor" : [ 0.094117647058824, 0.07843137254902, 0.243137254901961, 1.0 ],
					"varname" : "hi_filter[1]"
				}

			}
, 			{
				"box" : 				{
					"bgcolor" : [ 0.945098039215686, 0.917647058823529, 0.917647058823529, 1.0 ],
					"color" : [ 0.345098039215686, 0.0, 0.572549019607843, 1.0 ],
					"id" : "obj-61",
					"maxclass" : "newobj",
					"numinlets" : 0,
					"numoutlets" : 1,
					"outlettype" : [ "" ],
					"patching_rect" : [ 613.0625, 644.6602800625908, 35.0, 22.0 ],
					"text" : "in 10",
					"textcolor" : [ 0.345098039215686, 0.0, 0.572549019607843, 1.0 ]
				}

			}
, 			{
				"box" : 				{
					"bgcolor" : [ 0.945098039215686, 0.917647058823529, 0.917647058823529, 1.0 ],
					"color" : [ 0.345098039215686, 0.0, 0.572549019607843, 1.0 ],
					"id" : "obj-62",
					"maxclass" : "newobj",
					"numinlets" : 0,
					"numoutlets" : 1,
					"outlettype" : [ "" ],
					"patching_rect" : [ 475.827167161760599, 644.6602800625908, 28.0, 22.0 ],
					"text" : "in 9",
					"textcolor" : [ 0.345098039215686, 0.0, 0.572549019607843, 1.0 ]
				}

			}
, 			{
				"box" : 				{
					"bgcolor" : [ 0.843137254901961, 0.827450980392157, 1.0, 1.0 ],
					"color" : [ 0.094117647058824, 0.07843137254902, 0.243137254901961, 1.0 ],
					"fontname" : "Ableton Sans Medium",
					"fontsize" : 12.0,
					"id" : "obj-58",
					"maxclass" : "newobj",
					"numinlets" : 1,
					"numoutlets" : 1,
					"outlettype" : [ "" ],
					"patching_rect" : [ 1651.727711908022911, 985.715833911518075, 116.0, 23.0 ],
					"text" : "setparam HiDryTrim",
					"textcolor" : [ 0.094117647058824, 0.07843137254902, 0.243137254901961, 1.0 ],
					"varname" : "shape[17]"
				}

			}
, 			{
				"box" : 				{
					"bgcolor" : [ 0.843137254901961, 0.827450980392157, 1.0, 1.0 ],
					"color" : [ 0.094117647058824, 0.07843137254902, 0.243137254901961, 1.0 ],
					"fontname" : "Ableton Sans Medium",
					"fontsize" : 12.0,
					"id" : "obj-20",
					"maxclass" : "newobj",
					"numinlets" : 1,
					"numoutlets" : 1,
					"outlettype" : [ "" ],
					"patching_rect" : [ 1622.727711908022911, 908.271389603603893, 117.0, 23.0 ],
					"text" : "setparam LoDryTrim",
					"textcolor" : [ 0.094117647058824, 0.07843137254902, 0.243137254901961, 1.0 ],
					"varname" : "shape[3]"
				}

			}
, 			{
				"box" : 				{
					"bgcolor" : [ 0.843137254901961, 0.827450980392157, 1.0, 1.0 ],
					"color" : [ 0.094117647058824, 0.07843137254902, 0.243137254901961, 1.0 ],
					"fontname" : "Ableton Sans Medium",
					"fontsize" : 12.0,
					"id" : "obj-52",
					"maxclass" : "newobj",
					"numinlets" : 0,
					"numoutlets" : 1,
					"outlettype" : [ "" ],
					"patching_rect" : [ 1622.727711908022911, 869.549167449646802, 209.0, 23.0 ],
					"text" : "param LoDryTrim 0.5 @min 0 @max 1",
					"textcolor" : [ 0.094117647058824, 0.07843137254902, 0.243137254901961, 1.0 ],
					"varname" : "hi_filter[3]"
				}

			}
, 			{
				"box" : 				{
					"bgcolor" : [ 0.843137254901961, 0.827450980392157, 1.0, 1.0 ],
					"color" : [ 0.094117647058824, 0.07843137254902, 0.243137254901961, 1.0 ],
					"fontname" : "Ableton Sans Medium",
					"fontsize" : 12.0,
					"id" : "obj-19",
					"maxclass" : "newobj",
					"numinlets" : 0,
					"numoutlets" : 1,
					"outlettype" : [ "" ],
					"patching_rect" : [ 1651.727711908022911, 946.993611757560984, 198.0, 23.0 ],
					"text" : "param HiDryTrim 1 @min 0 @max 1",
					"textcolor" : [ 0.094117647058824, 0.07843137254902, 0.243137254901961, 1.0 ],
					"varname" : "hi_filter[4]"
				}

			}
, 			{
				"box" : 				{
					"bgcolor" : [ 0.843137254901961, 0.827450980392157, 1.0, 1.0 ],
					"color" : [ 0.094117647058824, 0.07843137254902, 0.243137254901961, 1.0 ],
					"fontface" : 0,
					"fontname" : "Arial",
					"fontsize" : 12.0,
					"id" : "obj-2",
					"maxclass" : "newobj",
					"numinlets" : 0,
					"numoutlets" : 1,
					"outlettype" : [ "" ],
					"patching_rect" : [ 1573.035057024685102, 715.660278833818438, 214.0, 22.0 ],
					"text" : "param freq_slide 2 @min 0 @max 100",
					"textcolor" : [ 0.094117647058824, 0.07843137254902, 0.243137254901961, 1.0 ]
				}

			}
, 			{
				"box" : 				{
					"bgcolor" : [ 0.843137254901961, 0.827450980392157, 1.0, 1.0 ],
					"color" : [ 0.094117647058824, 0.07843137254902, 0.243137254901961, 1.0 ],
					"fontname" : "Ableton Sans Medium",
					"fontsize" : 12.0,
					"id" : "obj-30",
					"maxclass" : "newobj",
					"numinlets" : 1,
					"numoutlets" : 1,
					"outlettype" : [ "" ],
					"patching_rect" : [ 1573.035057024685102, 753.382500987775529, 115.0, 23.0 ],
					"text" : "setparam freq_slide",
					"textcolor" : [ 0.094117647058824, 0.07843137254902, 0.243137254901961, 1.0 ],
					"varname" : "shape[13]"
				}

			}
, 			{
				"box" : 				{
					"bgcolor" : [ 0.843137254901961, 0.827450980392157, 1.0, 1.0 ],
					"color" : [ 0.094117647058824, 0.07843137254902, 0.243137254901961, 1.0 ],
					"fontname" : "Ableton Sans Medium",
					"fontsize" : 12.0,
					"id" : "obj-59",
					"maxclass" : "newobj",
					"numinlets" : 1,
					"numoutlets" : 1,
					"outlettype" : [ "" ],
					"patching_rect" : [ 1368.835057024685284, 57.382502216547891, 118.0, 23.0 ],
					"text" : "setparam Q_amount",
					"textcolor" : [ 0.094117647058824, 0.07843137254902, 0.243137254901961, 1.0 ],
					"varname" : "shape[15]"
				}

			}
, 			{
				"box" : 				{
					"bgcolor" : [ 0.843137254901961, 0.827450980392157, 1.0, 1.0 ],
					"color" : [ 0.094117647058824, 0.07843137254902, 0.243137254901961, 1.0 ],
					"fontname" : "Ableton Sans Medium",
					"fontsize" : 12.0,
					"id" : "obj-57",
					"maxclass" : "newobj",
					"numinlets" : 0,
					"numoutlets" : 1,
					"outlettype" : [ "" ],
					"patching_rect" : [ 1368.835057024685284, 18.6602800625908, 221.0, 23.0 ],
					"text" : "Param Q_amount 25 @min 0 @max 100",
					"textcolor" : [ 0.094117647058824, 0.07843137254902, 0.243137254901961, 1.0 ]
				}

			}
, 			{
				"box" : 				{
					"bgcolor" : [ 0.843137254901961, 0.827450980392157, 1.0, 1.0 ],
					"color" : [ 0.094117647058824, 0.07843137254902, 0.243137254901961, 1.0 ],
					"fontname" : "Ableton Sans Medium",
					"fontsize" : 12.0,
					"id" : "obj-51",
					"maxclass" : "newobj",
					"numinlets" : 1,
					"numoutlets" : 1,
					"outlettype" : [ "" ],
					"patching_rect" : [ 1407.410201533355803, 212.271390832376255, 109.0, 23.0 ],
					"text" : "setparam Q_decay",
					"textcolor" : [ 0.094117647058824, 0.07843137254902, 0.243137254901961, 1.0 ],
					"varname" : "shape[11]"
				}

			}
, 			{
				"box" : 				{
					"bgcolor" : [ 0.843137254901961, 0.827450980392157, 1.0, 1.0 ],
					"color" : [ 0.094117647058824, 0.07843137254902, 0.243137254901961, 1.0 ],
					"fontname" : "Ableton Sans Medium",
					"fontsize" : 12.0,
					"id" : "obj-49",
					"maxclass" : "newobj",
					"numinlets" : 1,
					"numoutlets" : 1,
					"outlettype" : [ "" ],
					"patching_rect" : [ 1388.77291829636124, 134.826946524462073, 112.0, 23.0 ],
					"text" : "setparam Q_attack",
					"textcolor" : [ 0.094117647058824, 0.07843137254902, 0.243137254901961, 1.0 ],
					"varname" : "shape[10]"
				}

			}
, 			{
				"box" : 				{
					"bgcolor" : [ 0.843137254901961, 0.827450980392157, 1.0, 1.0 ],
					"color" : [ 0.094117647058824, 0.07843137254902, 0.243137254901961, 1.0 ],
					"fontname" : "Ableton Sans Medium",
					"fontsize" : 12.0,
					"id" : "obj-42",
					"maxclass" : "newobj",
					"numinlets" : 1,
					"numoutlets" : 1,
					"outlettype" : [ "" ],
					"patching_rect" : [ 1429.77291829636124, 289.715835140290437, 108.0, 23.0 ],
					"text" : "setparam Q_sense",
					"textcolor" : [ 0.094117647058824, 0.07843137254902, 0.243137254901961, 1.0 ],
					"varname" : "shape[9]"
				}

			}
, 			{
				"box" : 				{
					"bgcolor" : [ 0.325490196078431, 0.0, 0.545098039215686, 1.0 ],
					"id" : "obj-50",
					"maxclass" : "comment",
					"numinlets" : 0,
					"numoutlets" : 0,
					"patching_rect" : [ 439.5, 331.160279448204619, 518.0, 20.0 ],
					"suppressinlet" : 1,
					"text" : "These parameters \"increase the width of the stereo image\" by delaying one channel of the LFO.",
					"textcolor" : [ 1.0, 1.0, 1.0, 1.0 ]
				}

			}
, 			{
				"box" : 				{
					"id" : "obj-44",
					"maxclass" : "newobj",
					"numinlets" : 1,
					"numoutlets" : 1,
					"outlettype" : [ "" ],
					"patching_rect" : [ 446.0, 513.6602800625908, 28.0, 22.0 ],
					"text" : "abs"
				}

			}
, 			{
				"box" : 				{
					"id" : "obj-45",
					"maxclass" : "newobj",
					"numinlets" : 1,
					"numoutlets" : 1,
					"outlettype" : [ "" ],
					"patching_rect" : [ 446.0, 448.33204468763563, 26.0, 22.0 ],
					"text" : "+ 1"
				}

			}
, 			{
				"box" : 				{
					"id" : "obj-46",
					"maxclass" : "newobj",
					"numinlets" : 2,
					"numoutlets" : 2,
					"outlettype" : [ "", "" ],
					"patching_rect" : [ 446.0, 480.996162375113272, 132.0, 22.0 ],
					"text" : "gate 2"
				}

			}
, 			{
				"box" : 				{
					"id" : "obj-47",
					"maxclass" : "newobj",
					"numinlets" : 1,
					"numoutlets" : 1,
					"outlettype" : [ "" ],
					"patching_rect" : [ 446.0, 415.667927000157988, 26.0, 22.0 ],
					"text" : "> 0"
				}

			}
, 			{
				"box" : 				{
					"id" : "obj-43",
					"maxclass" : "newobj",
					"numinlets" : 1,
					"numoutlets" : 1,
					"outlettype" : [ "" ],
					"patching_rect" : [ 196.0, 513.6602800625908, 28.0, 22.0 ],
					"text" : "abs"
				}

			}
, 			{
				"box" : 				{
					"id" : "obj-36",
					"maxclass" : "newobj",
					"numinlets" : 1,
					"numoutlets" : 1,
					"outlettype" : [ "" ],
					"patching_rect" : [ 196.0, 448.33204468763563, 26.0, 22.0 ],
					"text" : "+ 1"
				}

			}
, 			{
				"box" : 				{
					"id" : "obj-37",
					"maxclass" : "newobj",
					"numinlets" : 2,
					"numoutlets" : 2,
					"outlettype" : [ "", "" ],
					"patching_rect" : [ 196.0, 480.996162375113272, 132.0, 22.0 ],
					"text" : "gate 2"
				}

			}
, 			{
				"box" : 				{
					"id" : "obj-38",
					"maxclass" : "newobj",
					"numinlets" : 1,
					"numoutlets" : 1,
					"outlettype" : [ "" ],
					"patching_rect" : [ 196.0, 415.667927000157988, 26.0, 22.0 ],
					"text" : "> 0"
				}

			}
, 			{
				"box" : 				{
					"bgcolor" : [ 0.843137254901961, 0.827450980392157, 1.0, 1.0 ],
					"color" : [ 0.094117647058824, 0.07843137254902, 0.243137254901961, 1.0 ],
					"fontname" : "Ableton Sans Medium",
					"fontsize" : 12.0,
					"id" : "obj-29",
					"maxclass" : "newobj",
					"numinlets" : 0,
					"numoutlets" : 1,
					"outlettype" : [ "" ],
					"patching_rect" : [ 535.831112093222941, 367.160279448204619, 257.0, 23.0 ],
					"text" : "Param freq_spread 0 @min -5000 @max 5000",
					"textcolor" : [ 0.094117647058824, 0.07843137254902, 0.243137254901961, 1.0 ]
				}

			}
, 			{
				"box" : 				{
					"bgcolor" : [ 0.843137254901961, 0.827450980392157, 1.0, 1.0 ],
					"color" : [ 0.094117647058824, 0.07843137254902, 0.243137254901961, 1.0 ],
					"fontname" : "Ableton Sans Medium",
					"fontsize" : 12.0,
					"id" : "obj-28",
					"maxclass" : "newobj",
					"numinlets" : 0,
					"numoutlets" : 1,
					"outlettype" : [ "" ],
					"patching_rect" : [ 242.827167161760599, 367.160279448204619, 253.0, 23.0 ],
					"text" : "Param low_spread 0 @min -5000 @max 5000",
					"textcolor" : [ 0.094117647058824, 0.07843137254902, 0.243137254901961, 1.0 ]
				}

			}
, 			{
				"box" : 				{
					"id" : "obj-14",
					"maxclass" : "newobj",
					"numinlets" : 2,
					"numoutlets" : 1,
					"outlettype" : [ "" ],
					"patching_rect" : [ 564.0, 757.960280062590755, 141.0, 22.0 ],
					"text" : "delay 5000 @feedback 0"
				}

			}
, 			{
				"box" : 				{
					"id" : "obj-27",
					"maxclass" : "newobj",
					"numinlets" : 2,
					"numoutlets" : 1,
					"outlettype" : [ "" ],
					"patching_rect" : [ 623.0, 784.360280062590732, 141.0, 22.0 ],
					"text" : "delay 5000 @feedback 0"
				}

			}
, 			{
				"box" : 				{
					"id" : "obj-13",
					"maxclass" : "newobj",
					"numinlets" : 2,
					"numoutlets" : 1,
					"outlettype" : [ "" ],
					"patching_rect" : [ 446.0, 705.1602800625908, 141.0, 22.0 ],
					"text" : "delay 5000 @feedback 0"
				}

			}
, 			{
				"box" : 				{
					"id" : "obj-5",
					"maxclass" : "newobj",
					"numinlets" : 2,
					"numoutlets" : 1,
					"outlettype" : [ "" ],
					"patching_rect" : [ 505.0, 731.560280062590778, 141.0, 22.0 ],
					"text" : "delay 5000 @feedback 0"
				}

			}
, 			{
				"box" : 				{
					"bgcolor" : [ 0.945098039215686, 0.917647058823529, 0.917647058823529, 1.0 ],
					"color" : [ 0.345098039215686, 0.0, 0.572549019607843, 1.0 ],
					"id" : "obj-26",
					"maxclass" : "newobj",
					"numinlets" : 0,
					"numoutlets" : 1,
					"outlettype" : [ "" ],
					"patching_rect" : [ 225.693666171572715, 1381.660280676977209, 28.0, 22.0 ],
					"text" : "in 7",
					"textcolor" : [ 0.345098039215686, 0.0, 0.572549019607843, 1.0 ]
				}

			}
, 			{
				"box" : 				{
					"bgcolor" : [ 0.945098039215686, 0.917647058823529, 0.917647058823529, 1.0 ],
					"color" : [ 0.345098039215686, 0.0, 0.572549019607843, 1.0 ],
					"id" : "obj-25",
					"maxclass" : "newobj",
					"numinlets" : 0,
					"numoutlets" : 1,
					"outlettype" : [ "" ],
					"patching_rect" : [ 183.256166171572715, 1381.660280676977209, 28.0, 22.0 ],
					"text" : "in 6",
					"textcolor" : [ 0.345098039215686, 0.0, 0.572549019607843, 1.0 ]
				}

			}
, 			{
				"box" : 				{
					"bgcolor" : [ 0.945098039215686, 0.917647058823529, 0.917647058823529, 1.0 ],
					"color" : [ 0.345098039215686, 0.0, 0.572549019607843, 1.0 ],
					"id" : "obj-24",
					"maxclass" : "newobj",
					"numinlets" : 0,
					"numoutlets" : 1,
					"outlettype" : [ "" ],
					"patching_rect" : [ 195.3125, 1453.560280676977072, 28.0, 22.0 ],
					"text" : "in 5",
					"textcolor" : [ 0.345098039215686, 0.0, 0.572549019607843, 1.0 ]
				}

			}
, 			{
				"box" : 				{
					"bgcolor" : [ 0.945098039215686, 0.917647058823529, 0.917647058823529, 1.0 ],
					"color" : [ 0.345098039215686, 0.0, 0.572549019607843, 1.0 ],
					"id" : "obj-23",
					"maxclass" : "newobj",
					"numinlets" : 0,
					"numoutlets" : 1,
					"outlettype" : [ "" ],
					"patching_rect" : [ 134.875, 1453.560280676977072, 28.0, 22.0 ],
					"text" : "in 4",
					"textcolor" : [ 0.345098039215686, 0.0, 0.572549019607843, 1.0 ]
				}

			}
, 			{
				"box" : 				{
					"bgcolor" : [ 0.843137254901961, 0.827450980392157, 1.0, 1.0 ],
					"color" : [ 0.094117647058824, 0.07843137254902, 0.243137254901961, 1.0 ],
					"fontname" : "Ableton Sans Medium",
					"fontsize" : 12.0,
					"id" : "obj-17",
					"maxclass" : "newobj",
					"numinlets" : 0,
					"numoutlets" : 1,
					"outlettype" : [ "" ],
					"patching_rect" : [ 1429.77291829636124, 250.993612986333346, 204.0, 23.0 ],
					"text" : "Param Q_sense 0 @min 0 @max 100",
					"textcolor" : [ 0.094117647058824, 0.07843137254902, 0.243137254901961, 1.0 ]
				}

			}
, 			{
				"box" : 				{
					"bgcolor" : [ 0.843137254901961, 0.827450980392157, 1.0, 1.0 ],
					"color" : [ 0.094117647058824, 0.07843137254902, 0.243137254901961, 1.0 ],
					"fontname" : "Ableton Sans Medium",
					"fontsize" : 12.0,
					"id" : "obj-34",
					"maxclass" : "newobj",
					"numinlets" : 0,
					"numoutlets" : 1,
					"outlettype" : [ "" ],
					"patching_rect" : [ 1407.410201533355803, 173.549168678419164, 212.0, 23.0 ],
					"text" : "Param Q_decay 39 @min 0 @max 100",
					"textcolor" : [ 0.094117647058824, 0.07843137254902, 0.243137254901961, 1.0 ]
				}

			}
, 			{
				"box" : 				{
					"bgcolor" : [ 0.843137254901961, 0.827450980392157, 1.0, 1.0 ],
					"color" : [ 0.094117647058824, 0.07843137254902, 0.243137254901961, 1.0 ],
					"fontname" : "Ableton Sans Medium",
					"fontsize" : 12.0,
					"id" : "obj-33",
					"maxclass" : "newobj",
					"numinlets" : 0,
					"numoutlets" : 1,
					"outlettype" : [ "" ],
					"patching_rect" : [ 1388.77291829636124, 96.104724370504982, 215.0, 23.0 ],
					"text" : "Param Q_attack 11 @min 0 @max 100",
					"textcolor" : [ 0.094117647058824, 0.07843137254902, 0.243137254901961, 1.0 ]
				}

			}
, 			{
				"box" : 				{
					"bgcolor" : [ 0.325490196078431, 0.0, 0.545098039215686, 1.0 ],
					"id" : "obj-16",
					"maxclass" : "comment",
					"numinlets" : 0,
					"numoutlets" : 0,
					"patching_rect" : [ 154.0, 1883.660280062590573, 199.0, 20.0 ],
					"suppressinlet" : 1,
					"text" : "Dry: low L / low R / High L / High R",
					"textcolor" : [ 1.0, 1.0, 1.0, 1.0 ]
				}

			}
, 			{
				"box" : 				{
					"bgcolor" : [ 0.325490196078431, 0.0, 0.545098039215686, 1.0 ],
					"id" : "obj-15",
					"maxclass" : "comment",
					"numinlets" : 0,
					"numoutlets" : 0,
					"patching_rect" : [ 446.0, 621.438057294247528, 82.5, 20.0 ],
					"suppressinlet" : 1,
					"text" : "low amp mod",
					"textcolor" : [ 1.0, 1.0, 1.0, 1.0 ]
				}

			}
, 			{
				"box" : 				{
					"bgcolor" : [ 0.945098039215686, 0.917647058823529, 0.917647058823529, 1.0 ],
					"color" : [ 0.345098039215686, 0.0, 0.572549019607843, 1.0 ],
					"id" : "obj-11",
					"maxclass" : "newobj",
					"numinlets" : 0,
					"numoutlets" : 1,
					"outlettype" : [ "" ],
					"patching_rect" : [ 112.5, 1523.826944066917349, 28.0, 22.0 ],
					"text" : "in 3",
					"textcolor" : [ 0.345098039215686, 0.0, 0.572549019607843, 1.0 ]
				}

			}
, 			{
				"box" : 				{
					"bgcolor" : [ 0.945098039215686, 0.917647058823529, 0.917647058823529, 1.0 ],
					"color" : [ 0.345098039215686, 0.0, 0.572549019607843, 1.0 ],
					"id" : "obj-9",
					"maxclass" : "newobj",
					"numinlets" : 1,
					"numoutlets" : 0,
					"patching_rect" : [ 305.5, 1859.660280062590573, 35.0, 22.0 ],
					"text" : "out 4",
					"textcolor" : [ 0.345098039215686, 0.0, 0.572549019607843, 1.0 ]
				}

			}
, 			{
				"box" : 				{
					"bgcolor" : [ 0.945098039215686, 0.917647058823529, 0.917647058823529, 1.0 ],
					"color" : [ 0.345098039215686, 0.0, 0.572549019607843, 1.0 ],
					"id" : "obj-10",
					"maxclass" : "newobj",
					"numinlets" : 1,
					"numoutlets" : 0,
					"patching_rect" : [ 225.833333333333314, 1859.660280062590573, 35.0, 22.0 ],
					"text" : "out 2",
					"textcolor" : [ 0.345098039215686, 0.0, 0.572549019607843, 1.0 ]
				}

			}
, 			{
				"box" : 				{
					"bgcolor" : [ 0.945098039215686, 0.917647058823529, 0.917647058823529, 1.0 ],
					"color" : [ 0.345098039215686, 0.0, 0.572549019607843, 1.0 ],
					"id" : "obj-8",
					"maxclass" : "newobj",
					"numinlets" : 1,
					"numoutlets" : 0,
					"patching_rect" : [ 265.666666666666629, 1859.660280062590573, 35.0, 22.0 ],
					"text" : "out 3",
					"textcolor" : [ 0.345098039215686, 0.0, 0.572549019607843, 1.0 ]
				}

			}
, 			{
				"box" : 				{
					"bgcolor" : [ 0.592156862745098, 0.043137254901961, 0.043137254901961, 1.0 ],
					"color" : [ 0.592156862745098, 0.043137254901961, 0.043137254901961, 1.0 ],
					"id" : "obj-7",
					"maxclass" : "newobj",
					"numinlets" : 10,
					"numoutlets" : 14,
					"outlettype" : [ "", "", "", "", "", "", "", "", "", "", "", "", "", "" ],
					"patching_rect" : [ 605.0, 1647.6602800625908, 171.0, 22.0 ],
					"text" : "gen @file ladder_double_wrap",
					"textcolor" : [ 1.0, 1.0, 1.0, 1.0 ]
				}

			}
, 			{
				"box" : 				{
					"bgcolor" : [ 0.592156862745098, 0.043137254901961, 0.043137254901961, 1.0 ],
					"color" : [ 0.592156862745098, 0.043137254901961, 0.043137254901961, 1.0 ],
					"id" : "obj-6",
					"maxclass" : "newobj",
					"numinlets" : 10,
					"numoutlets" : 14,
					"outlettype" : [ "", "", "", "", "", "", "", "", "", "", "", "", "", "" ],
					"patching_rect" : [ 424.0, 1647.6602800625908, 171.0, 22.0 ],
					"text" : "gen @file ladder_double_wrap",
					"textcolor" : [ 1.0, 1.0, 1.0, 1.0 ]
				}

			}
, 			{
				"box" : 				{
					"bgcolor" : [ 0.945098039215686, 0.917647058823529, 0.917647058823529, 1.0 ],
					"color" : [ 0.345098039215686, 0.0, 0.572549019607843, 1.0 ],
					"id" : "obj-1",
					"maxclass" : "newobj",
					"numinlets" : 0,
					"numoutlets" : 1,
					"outlettype" : [ "" ],
					"patching_rect" : [ 174.0, 1273.340003458917408, 28.0, 22.0 ],
					"text" : "in 1",
					"textcolor" : [ 0.345098039215686, 0.0, 0.572549019607843, 1.0 ]
				}

			}
, 			{
				"box" : 				{
					"bgcolor" : [ 0.945098039215686, 0.917647058823529, 0.917647058823529, 1.0 ],
					"color" : [ 0.345098039215686, 0.0, 0.572549019607843, 1.0 ],
					"id" : "obj-4",
					"maxclass" : "newobj",
					"numinlets" : 1,
					"numoutlets" : 0,
					"patching_rect" : [ 186.0, 1859.660280062590573, 35.0, 22.0 ],
					"text" : "out 1",
					"textcolor" : [ 0.345098039215686, 0.0, 0.572549019607843, 1.0 ]
				}

			}
 ],
		"lines" : [ 			{
				"patchline" : 				{
					"color" : [ 0.087929949164391, 0.239419937133789, 0.732974648475647, 1.0 ],
					"destination" : [ "obj-6", 5 ],
					"order" : 1,
					"source" : [ "obj-1", 0 ]
				}

			}
, 			{
				"patchline" : 				{
					"color" : [ 0.087929949164391, 0.239419937133789, 0.732974648475647, 1.0 ],
					"destination" : [ "obj-7", 5 ],
					"order" : 0,
					"source" : [ "obj-1", 0 ]
				}

			}
, 			{
				"patchline" : 				{
					"destination" : [ "obj-99", 0 ],
					"source" : [ "obj-100", 0 ]
				}

			}
, 			{
				"patchline" : 				{
					"destination" : [ "obj-68", 0 ],
					"source" : [ "obj-106", 0 ]
				}

			}
, 			{
				"patchline" : 				{
					"color" : [ 0.492523729801178, 0.096991747617722, 0.701095700263977, 1.0 ],
					"destination" : [ "obj-6", 9 ],
					"order" : 1,
					"source" : [ "obj-108", 0 ]
				}

			}
, 			{
				"patchline" : 				{
					"color" : [ 0.492523729801178, 0.096991747617722, 0.701095700263977, 1.0 ],
					"destination" : [ "obj-7", 9 ],
					"order" : 0,
					"source" : [ "obj-108", 0 ]
				}

			}
, 			{
				"patchline" : 				{
					"color" : [ 0.771525800228119, 0.0, 0.700036466121674, 1.0 ],
					"destination" : [ "obj-6", 0 ],
					"order" : 1,
					"source" : [ "obj-11", 0 ]
				}

			}
, 			{
				"patchline" : 				{
					"color" : [ 0.771525800228119, 0.0, 0.700036466121674, 1.0 ],
					"destination" : [ "obj-7", 0 ],
					"order" : 0,
					"source" : [ "obj-11", 0 ]
				}

			}
, 			{
				"patchline" : 				{
					"destination" : [ "obj-18", 0 ],
					"source" : [ "obj-117", 0 ]
				}

			}
, 			{
				"patchline" : 				{
					"destination" : [ "obj-12", 0 ],
					"source" : [ "obj-118", 0 ]
				}

			}
, 			{
				"patchline" : 				{
					"color" : [ 0.202818617224693, 0.569137096405029, 0.805732071399689, 0.260894982993197 ],
					"destination" : [ "obj-6", 0 ],
					"order" : 1,
					"source" : [ "obj-12", 0 ]
				}

			}
, 			{
				"patchline" : 				{
					"color" : [ 0.202818617224693, 0.569137096405029, 0.805732071399689, 0.260894982993197 ],
					"destination" : [ "obj-7", 0 ],
					"order" : 0,
					"source" : [ "obj-12", 0 ]
				}

			}
, 			{
				"patchline" : 				{
					"destination" : [ "obj-21", 0 ],
					"source" : [ "obj-120", 0 ]
				}

			}
, 			{
				"patchline" : 				{
					"destination" : [ "obj-22", 0 ],
					"source" : [ "obj-123", 0 ]
				}

			}
, 			{
				"patchline" : 				{
					"destination" : [ "obj-31", 0 ],
					"source" : [ "obj-124", 0 ]
				}

			}
, 			{
				"patchline" : 				{
					"color" : [ 0.185306519269943, 0.712280750274658, 0.605714738368988, 1.0 ],
					"destination" : [ "obj-6", 3 ],
					"source" : [ "obj-13", 0 ]
				}

			}
, 			{
				"patchline" : 				{
					"destination" : [ "obj-83", 0 ],
					"source" : [ "obj-132", 0 ]
				}

			}
, 			{
				"patchline" : 				{
					"color" : [ 0.185306519269943, 0.712280750274658, 0.605714738368988, 1.0 ],
					"destination" : [ "obj-6", 4 ],
					"order" : 0,
					"source" : [ "obj-14", 0 ]
				}

			}
, 			{
				"patchline" : 				{
					"color" : [ 0.389529138803482, 0.0, 0.742982506752014, 1.0 ],
					"destination" : [ "obj-85", 0 ],
					"order" : 1,
					"source" : [ "obj-14", 0 ]
				}

			}
, 			{
				"patchline" : 				{
					"color" : [ 0.171097338199615, 0.173798412084579, 0.170147836208344, 1.0 ],
					"destination" : [ "obj-42", 0 ],
					"source" : [ "obj-17", 0 ]
				}

			}
, 			{
				"patchline" : 				{
					"color" : [ 0.202818617224693, 0.569137096405029, 0.805732071399689, 0.260894982993197 ],
					"destination" : [ "obj-6", 0 ],
					"order" : 1,
					"source" : [ "obj-18", 0 ]
				}

			}
, 			{
				"patchline" : 				{
					"color" : [ 0.202818617224693, 0.569137096405029, 0.805732071399689, 0.260894982993197 ],
					"destination" : [ "obj-7", 0 ],
					"order" : 0,
					"source" : [ "obj-18", 0 ]
				}

			}
, 			{
				"patchline" : 				{
					"destination" : [ "obj-58", 0 ],
					"source" : [ "obj-19", 0 ]
				}

			}
, 			{
				"patchline" : 				{
					"color" : [ 0.0, 0.0, 0.0, 1.0 ],
					"destination" : [ "obj-30", 0 ],
					"source" : [ "obj-2", 0 ]
				}

			}
, 			{
				"patchline" : 				{
					"color" : [ 0.202818617224693, 0.569137096405029, 0.805732071399689, 0.260894982993197 ],
					"destination" : [ "obj-6", 0 ],
					"order" : 1,
					"source" : [ "obj-20", 0 ]
				}

			}
, 			{
				"patchline" : 				{
					"color" : [ 0.202818617224693, 0.569137096405029, 0.805732071399689, 0.260894982993197 ],
					"destination" : [ "obj-7", 0 ],
					"order" : 0,
					"source" : [ "obj-20", 0 ]
				}

			}
, 			{
				"patchline" : 				{
					"color" : [ 0.202818617224693, 0.569137096405029, 0.805732071399689, 0.260894982993197 ],
					"destination" : [ "obj-6", 0 ],
					"order" : 1,
					"source" : [ "obj-21", 0 ]
				}

			}
, 			{
				"patchline" : 				{
					"color" : [ 0.202818617224693, 0.569137096405029, 0.805732071399689, 0.260894982993197 ],
					"destination" : [ "obj-7", 0 ],
					"order" : 0,
					"source" : [ "obj-21", 0 ]
				}

			}
, 			{
				"patchline" : 				{
					"color" : [ 0.202818617224693, 0.569137096405029, 0.805732071399689, 0.260894982993197 ],
					"destination" : [ "obj-6", 0 ],
					"order" : 1,
					"source" : [ "obj-22", 0 ]
				}

			}
, 			{
				"patchline" : 				{
					"color" : [ 0.202818617224693, 0.569137096405029, 0.805732071399689, 0.260894982993197 ],
					"destination" : [ "obj-7", 0 ],
					"order" : 0,
					"source" : [ "obj-22", 0 ]
				}

			}
, 			{
				"patchline" : 				{
					"color" : [ 0.779665946960449, 0.631406426429749, 0.122611999511719, 1.0 ],
					"destination" : [ "obj-6", 1 ],
					"source" : [ "obj-23", 0 ]
				}

			}
, 			{
				"patchline" : 				{
					"color" : [ 0.779665946960449, 0.631406426429749, 0.122611999511719, 1.0 ],
					"destination" : [ "obj-7", 1 ],
					"source" : [ "obj-24", 0 ]
				}

			}
, 			{
				"patchline" : 				{
					"color" : [ 0.449677616357803, 0.802193105220795, 0.167335256934166, 1.0 ],
					"destination" : [ "obj-6", 2 ],
					"source" : [ "obj-25", 0 ]
				}

			}
, 			{
				"patchline" : 				{
					"color" : [ 0.449677616357803, 0.802193105220795, 0.167335256934166, 1.0 ],
					"destination" : [ "obj-7", 2 ],
					"source" : [ "obj-26", 0 ]
				}

			}
, 			{
				"patchline" : 				{
					"color" : [ 0.185306519269943, 0.712280750274658, 0.605714738368988, 1.0 ],
					"destination" : [ "obj-7", 4 ],
					"order" : 0,
					"source" : [ "obj-27", 0 ]
				}

			}
, 			{
				"patchline" : 				{
					"color" : [ 0.389529138803482, 0.0, 0.742982506752014, 1.0 ],
					"destination" : [ "obj-84", 0 ],
					"order" : 1,
					"source" : [ "obj-27", 0 ]
				}

			}
, 			{
				"patchline" : 				{
					"color" : [ 0.743870973587036, 0.428996801376343, 0.0, 1.0 ],
					"destination" : [ "obj-37", 1 ],
					"order" : 0,
					"source" : [ "obj-28", 0 ]
				}

			}
, 			{
				"patchline" : 				{
					"destination" : [ "obj-38", 0 ],
					"order" : 1,
					"source" : [ "obj-28", 0 ]
				}

			}
, 			{
				"patchline" : 				{
					"color" : [ 0.743870973587036, 0.428996801376343, 0.0, 1.0 ],
					"destination" : [ "obj-46", 1 ],
					"order" : 0,
					"source" : [ "obj-29", 0 ]
				}

			}
, 			{
				"patchline" : 				{
					"destination" : [ "obj-47", 0 ],
					"order" : 1,
					"source" : [ "obj-29", 0 ]
				}

			}
, 			{
				"patchline" : 				{
					"color" : [ 0.202818617224693, 0.569137096405029, 0.805732071399689, 0.260894982993197 ],
					"destination" : [ "obj-6", 0 ],
					"order" : 1,
					"source" : [ "obj-30", 0 ]
				}

			}
, 			{
				"patchline" : 				{
					"color" : [ 0.202818617224693, 0.569137096405029, 0.805732071399689, 0.260894982993197 ],
					"destination" : [ "obj-7", 0 ],
					"order" : 0,
					"source" : [ "obj-30", 0 ]
				}

			}
, 			{
				"patchline" : 				{
					"color" : [ 0.202818617224693, 0.569137096405029, 0.805732071399689, 0.260894982993197 ],
					"destination" : [ "obj-6", 0 ],
					"order" : 1,
					"source" : [ "obj-31", 0 ]
				}

			}
, 			{
				"patchline" : 				{
					"color" : [ 0.202818617224693, 0.569137096405029, 0.805732071399689, 0.260894982993197 ],
					"destination" : [ "obj-7", 0 ],
					"order" : 0,
					"source" : [ "obj-31", 0 ]
				}

			}
, 			{
				"patchline" : 				{
					"destination" : [ "obj-73", 0 ],
					"source" : [ "obj-32", 0 ]
				}

			}
, 			{
				"patchline" : 				{
					"color" : [ 0.171097338199615, 0.173798412084579, 0.170147836208344, 1.0 ],
					"destination" : [ "obj-49", 0 ],
					"source" : [ "obj-33", 0 ]
				}

			}
, 			{
				"patchline" : 				{
					"color" : [ 0.171097338199615, 0.173798412084579, 0.170147836208344, 1.0 ],
					"destination" : [ "obj-51", 0 ],
					"source" : [ "obj-34", 0 ]
				}

			}
, 			{
				"patchline" : 				{
					"destination" : [ "obj-37", 0 ],
					"source" : [ "obj-36", 0 ]
				}

			}
, 			{
				"patchline" : 				{
					"destination" : [ "obj-43", 0 ],
					"source" : [ "obj-37", 0 ]
				}

			}
, 			{
				"patchline" : 				{
					"color" : [ 0.122720368206501, 0.687105298042297, 0.701284289360046, 1.0 ],
					"destination" : [ "obj-5", 1 ],
					"midpoints" : [ 318.5, 574.0, 719.0, 574.0, 719.0, 702.0, 636.5, 702.0 ],
					"source" : [ "obj-37", 1 ]
				}

			}
, 			{
				"patchline" : 				{
					"destination" : [ "obj-36", 0 ],
					"source" : [ "obj-38", 0 ]
				}

			}
, 			{
				"patchline" : 				{
					"color" : [ 0.202818617224693, 0.569137096405029, 0.805732071399689, 0.260894982993197 ],
					"destination" : [ "obj-6", 0 ],
					"order" : 1,
					"source" : [ "obj-42", 0 ]
				}

			}
, 			{
				"patchline" : 				{
					"color" : [ 0.202818617224693, 0.569137096405029, 0.805732071399689, 0.260894982993197 ],
					"destination" : [ "obj-7", 0 ],
					"order" : 0,
					"source" : [ "obj-42", 0 ]
				}

			}
, 			{
				"patchline" : 				{
					"color" : [ 0.122720368206501, 0.687105298042297, 0.701284289360046, 1.0 ],
					"destination" : [ "obj-13", 1 ],
					"midpoints" : [ 205.5, 593.0, 701.0, 593.0, 701.0, 685.0, 577.5, 685.0 ],
					"source" : [ "obj-43", 0 ]
				}

			}
, 			{
				"patchline" : 				{
					"color" : [ 0.122720368206501, 0.687105298042297, 0.701284289360046, 1.0 ],
					"destination" : [ "obj-14", 1 ],
					"midpoints" : [ 455.5, 557.0, 737.0, 557.0, 737.0, 715.0, 695.5, 715.0 ],
					"source" : [ "obj-44", 0 ]
				}

			}
, 			{
				"patchline" : 				{
					"destination" : [ "obj-46", 0 ],
					"source" : [ "obj-45", 0 ]
				}

			}
, 			{
				"patchline" : 				{
					"color" : [ 0.122720368206501, 0.687105298042297, 0.701284289360046, 1.0 ],
					"destination" : [ "obj-27", 1 ],
					"midpoints" : [ 568.5, 542.0, 754.5, 542.0 ],
					"source" : [ "obj-46", 1 ]
				}

			}
, 			{
				"patchline" : 				{
					"destination" : [ "obj-44", 0 ],
					"source" : [ "obj-46", 0 ]
				}

			}
, 			{
				"patchline" : 				{
					"destination" : [ "obj-45", 0 ],
					"source" : [ "obj-47", 0 ]
				}

			}
, 			{
				"patchline" : 				{
					"color" : [ 0.202818617224693, 0.569137096405029, 0.805732071399689, 0.260894982993197 ],
					"destination" : [ "obj-6", 0 ],
					"order" : 1,
					"source" : [ "obj-48", 0 ]
				}

			}
, 			{
				"patchline" : 				{
					"color" : [ 0.202818617224693, 0.569137096405029, 0.805732071399689, 0.260894982993197 ],
					"destination" : [ "obj-7", 0 ],
					"order" : 0,
					"source" : [ "obj-48", 0 ]
				}

			}
, 			{
				"patchline" : 				{
					"color" : [ 0.202818617224693, 0.569137096405029, 0.805732071399689, 0.260894982993197 ],
					"destination" : [ "obj-6", 0 ],
					"order" : 1,
					"source" : [ "obj-49", 0 ]
				}

			}
, 			{
				"patchline" : 				{
					"color" : [ 0.202818617224693, 0.569137096405029, 0.805732071399689, 0.260894982993197 ],
					"destination" : [ "obj-7", 0 ],
					"order" : 0,
					"source" : [ "obj-49", 0 ]
				}

			}
, 			{
				"patchline" : 				{
					"color" : [ 0.185306519269943, 0.712280750274658, 0.605714738368988, 1.0 ],
					"destination" : [ "obj-7", 3 ],
					"source" : [ "obj-5", 0 ]
				}

			}
, 			{
				"patchline" : 				{
					"color" : [ 0.202818617224693, 0.569137096405029, 0.805732071399689, 0.260894982993197 ],
					"destination" : [ "obj-6", 0 ],
					"order" : 1,
					"source" : [ "obj-51", 0 ]
				}

			}
, 			{
				"patchline" : 				{
					"color" : [ 0.202818617224693, 0.569137096405029, 0.805732071399689, 0.260894982993197 ],
					"destination" : [ "obj-7", 0 ],
					"order" : 0,
					"source" : [ "obj-51", 0 ]
				}

			}
, 			{
				"patchline" : 				{
					"destination" : [ "obj-20", 0 ],
					"source" : [ "obj-52", 0 ]
				}

			}
, 			{
				"patchline" : 				{
					"color" : [ 0.171097338199615, 0.173798412084579, 0.170147836208344, 1.0 ],
					"destination" : [ "obj-59", 0 ],
					"source" : [ "obj-57", 0 ]
				}

			}
, 			{
				"patchline" : 				{
					"color" : [ 0.202818617224693, 0.569137096405029, 0.805732071399689, 0.260894982993197 ],
					"destination" : [ "obj-6", 0 ],
					"order" : 1,
					"source" : [ "obj-58", 0 ]
				}

			}
, 			{
				"patchline" : 				{
					"color" : [ 0.202818617224693, 0.569137096405029, 0.805732071399689, 0.260894982993197 ],
					"destination" : [ "obj-7", 0 ],
					"order" : 0,
					"source" : [ "obj-58", 0 ]
				}

			}
, 			{
				"patchline" : 				{
					"color" : [ 0.202818617224693, 0.569137096405029, 0.805732071399689, 0.260894982993197 ],
					"destination" : [ "obj-6", 0 ],
					"order" : 1,
					"source" : [ "obj-59", 0 ]
				}

			}
, 			{
				"patchline" : 				{
					"color" : [ 0.202818617224693, 0.569137096405029, 0.805732071399689, 0.260894982993197 ],
					"destination" : [ "obj-7", 0 ],
					"order" : 0,
					"source" : [ "obj-59", 0 ]
				}

			}
, 			{
				"patchline" : 				{
					"destination" : [ "obj-104", 0 ],
					"source" : [ "obj-6", 12 ]
				}

			}
, 			{
				"patchline" : 				{
					"destination" : [ "obj-107", 0 ],
					"source" : [ "obj-6", 13 ]
				}

			}
, 			{
				"patchline" : 				{
					"color" : [ 0.771525800228119, 0.0, 0.700036466121674, 1.0 ],
					"destination" : [ "obj-4", 0 ],
					"source" : [ "obj-6", 0 ]
				}

			}
, 			{
				"patchline" : 				{
					"color" : [ 0.269766330718994, 0.0, 0.49876806139946, 1.0 ],
					"destination" : [ "obj-56", 0 ],
					"source" : [ "obj-6", 3 ]
				}

			}
, 			{
				"patchline" : 				{
					"color" : [ 0.269766330718994, 0.0, 0.49876806139946, 1.0 ],
					"destination" : [ "obj-60", 0 ],
					"source" : [ "obj-6", 2 ]
				}

			}
, 			{
				"patchline" : 				{
					"color" : [ 0.234175860881805, 0.860731720924377, 0.924277544021606, 1.0 ],
					"destination" : [ "obj-70", 0 ],
					"source" : [ "obj-6", 8 ]
				}

			}
, 			{
				"patchline" : 				{
					"color" : [ 0.230475246906281, 0.878876924514771, 0.731956660747528, 1.0 ],
					"destination" : [ "obj-72", 0 ],
					"source" : [ "obj-6", 9 ]
				}

			}
, 			{
				"patchline" : 				{
					"color" : [ 0.280239224433899, 0.783058285713196, 0.468038976192474, 1.0 ],
					"destination" : [ "obj-76", 0 ],
					"source" : [ "obj-6", 11 ]
				}

			}
, 			{
				"patchline" : 				{
					"color" : [ 0.259052246809006, 0.802729606628418, 0.562709331512451, 1.0 ],
					"destination" : [ "obj-78", 0 ],
					"source" : [ "obj-6", 10 ]
				}

			}
, 			{
				"patchline" : 				{
					"color" : [ 0.771525800228119, 0.0, 0.700036466121674, 1.0 ],
					"destination" : [ "obj-8", 0 ],
					"source" : [ "obj-6", 1 ]
				}

			}
, 			{
				"patchline" : 				{
					"color" : [ 0.124489568173885, 0.0, 0.700743436813354, 1.0 ],
					"destination" : [ "obj-14", 0 ],
					"order" : 1,
					"source" : [ "obj-61", 0 ]
				}

			}
, 			{
				"patchline" : 				{
					"color" : [ 0.124489568173885, 0.0, 0.700743436813354, 1.0 ],
					"destination" : [ "obj-27", 0 ],
					"order" : 0,
					"source" : [ "obj-61", 0 ]
				}

			}
, 			{
				"patchline" : 				{
					"color" : [ 0.124489568173885, 0.0, 0.700743436813354, 1.0 ],
					"destination" : [ "obj-13", 0 ],
					"order" : 1,
					"source" : [ "obj-62", 0 ]
				}

			}
, 			{
				"patchline" : 				{
					"color" : [ 0.124489568173885, 0.0, 0.700743436813354, 1.0 ],
					"destination" : [ "obj-5", 0 ],
					"order" : 0,
					"source" : [ "obj-62", 0 ]
				}

			}
, 			{
				"patchline" : 				{
					"destination" : [ "obj-48", 0 ],
					"source" : [ "obj-64", 0 ]
				}

			}
, 			{
				"patchline" : 				{
					"color" : [ 0.492523729801178, 0.096991747617722, 0.701095700263977, 1.0 ],
					"destination" : [ "obj-6", 6 ],
					"order" : 1,
					"source" : [ "obj-65", 0 ]
				}

			}
, 			{
				"patchline" : 				{
					"color" : [ 0.492523729801178, 0.096991747617722, 0.701095700263977, 1.0 ],
					"destination" : [ "obj-7", 6 ],
					"order" : 0,
					"source" : [ "obj-65", 0 ]
				}

			}
, 			{
				"patchline" : 				{
					"destination" : [ "obj-67", 0 ],
					"source" : [ "obj-66", 0 ]
				}

			}
, 			{
				"patchline" : 				{
					"color" : [ 0.202818617224693, 0.569137096405029, 0.805732071399689, 0.260894982993197 ],
					"destination" : [ "obj-6", 0 ],
					"order" : 1,
					"source" : [ "obj-67", 0 ]
				}

			}
, 			{
				"patchline" : 				{
					"color" : [ 0.202818617224693, 0.569137096405029, 0.805732071399689, 0.260894982993197 ],
					"destination" : [ "obj-7", 0 ],
					"order" : 0,
					"source" : [ "obj-67", 0 ]
				}

			}
, 			{
				"patchline" : 				{
					"color" : [ 0.202818617224693, 0.569137096405029, 0.805732071399689, 0.260894982993197 ],
					"destination" : [ "obj-6", 0 ],
					"order" : 1,
					"source" : [ "obj-68", 0 ]
				}

			}
, 			{
				"patchline" : 				{
					"color" : [ 0.202818617224693, 0.569137096405029, 0.805732071399689, 0.260894982993197 ],
					"destination" : [ "obj-7", 0 ],
					"order" : 0,
					"source" : [ "obj-68", 0 ]
				}

			}
, 			{
				"patchline" : 				{
					"color" : [ 0.771525800228119, 0.0, 0.700036466121674, 1.0 ],
					"destination" : [ "obj-10", 0 ],
					"source" : [ "obj-7", 0 ]
				}

			}
, 			{
				"patchline" : 				{
					"destination" : [ "obj-103", 0 ],
					"source" : [ "obj-7", 12 ]
				}

			}
, 			{
				"patchline" : 				{
					"destination" : [ "obj-105", 0 ],
					"source" : [ "obj-7", 13 ]
				}

			}
, 			{
				"patchline" : 				{
					"destination" : [ "obj-3", 0 ],
					"source" : [ "obj-7", 7 ]
				}

			}
, 			{
				"patchline" : 				{
					"destination" : [ "obj-35", 0 ],
					"source" : [ "obj-7", 6 ]
				}

			}
, 			{
				"patchline" : 				{
					"color" : [ 0.510988831520081, 0.0, 0.044979549944401, 1.0 ],
					"destination" : [ "obj-39", 0 ],
					"source" : [ "obj-7", 5 ]
				}

			}
, 			{
				"patchline" : 				{
					"color" : [ 0.269766330718994, 0.0, 0.49876806139946, 1.0 ],
					"destination" : [ "obj-40", 0 ],
					"source" : [ "obj-7", 3 ]
				}

			}
, 			{
				"patchline" : 				{
					"color" : [ 0.510988831520081, 0.0, 0.044979549944401, 1.0 ],
					"destination" : [ "obj-53", 0 ],
					"source" : [ "obj-7", 4 ]
				}

			}
, 			{
				"patchline" : 				{
					"color" : [ 0.269766330718994, 0.0, 0.49876806139946, 1.0 ],
					"destination" : [ "obj-55", 0 ],
					"source" : [ "obj-7", 2 ]
				}

			}
, 			{
				"patchline" : 				{
					"color" : [ 0.234175860881805, 0.860731720924377, 0.924277544021606, 1.0 ],
					"destination" : [ "obj-69", 0 ],
					"source" : [ "obj-7", 8 ]
				}

			}
, 			{
				"patchline" : 				{
					"color" : [ 0.230475246906281, 0.878876924514771, 0.731956660747528, 1.0 ],
					"destination" : [ "obj-71", 0 ],
					"source" : [ "obj-7", 9 ]
				}

			}
, 			{
				"patchline" : 				{
					"color" : [ 0.280239224433899, 0.783058285713196, 0.468038976192474, 1.0 ],
					"destination" : [ "obj-74", 0 ],
					"source" : [ "obj-7", 11 ]
				}

			}
, 			{
				"patchline" : 				{
					"color" : [ 0.259052246809006, 0.802729606628418, 0.562709331512451, 1.0 ],
					"destination" : [ "obj-77", 0 ],
					"source" : [ "obj-7", 10 ]
				}

			}
, 			{
				"patchline" : 				{
					"color" : [ 0.771525800228119, 0.0, 0.700036466121674, 1.0 ],
					"destination" : [ "obj-9", 0 ],
					"source" : [ "obj-7", 1 ]
				}

			}
, 			{
				"patchline" : 				{
					"color" : [ 0.202818617224693, 0.569137096405029, 0.805732071399689, 0.260894982993197 ],
					"destination" : [ "obj-6", 0 ],
					"order" : 1,
					"source" : [ "obj-73", 0 ]
				}

			}
, 			{
				"patchline" : 				{
					"color" : [ 0.202818617224693, 0.569137096405029, 0.805732071399689, 0.260894982993197 ],
					"destination" : [ "obj-7", 0 ],
					"order" : 0,
					"source" : [ "obj-73", 0 ]
				}

			}
, 			{
				"patchline" : 				{
					"color" : [ 0.202818617224693, 0.569137096405029, 0.805732071399689, 0.260894982993197 ],
					"destination" : [ "obj-6", 0 ],
					"order" : 1,
					"source" : [ "obj-75", 0 ]
				}

			}
, 			{
				"patchline" : 				{
					"color" : [ 0.202818617224693, 0.569137096405029, 0.805732071399689, 0.260894982993197 ],
					"destination" : [ "obj-7", 0 ],
					"order" : 0,
					"source" : [ "obj-75", 0 ]
				}

			}
, 			{
				"patchline" : 				{
					"color" : [ 0.202818617224693, 0.569137096405029, 0.805732071399689, 0.260894982993197 ],
					"destination" : [ "obj-6", 0 ],
					"order" : 1,
					"source" : [ "obj-83", 0 ]
				}

			}
, 			{
				"patchline" : 				{
					"color" : [ 0.202818617224693, 0.569137096405029, 0.805732071399689, 0.260894982993197 ],
					"destination" : [ "obj-7", 0 ],
					"order" : 0,
					"source" : [ "obj-83", 0 ]
				}

			}
, 			{
				"patchline" : 				{
					"destination" : [ "obj-75", 0 ],
					"source" : [ "obj-87", 0 ]
				}

			}
, 			{
				"patchline" : 				{
					"color" : [ 0.492523729801178, 0.096991747617722, 0.701095700263977, 1.0 ],
					"destination" : [ "obj-6", 7 ],
					"order" : 1,
					"source" : [ "obj-88", 0 ]
				}

			}
, 			{
				"patchline" : 				{
					"color" : [ 0.492523729801178, 0.096991747617722, 0.701095700263977, 1.0 ],
					"destination" : [ "obj-7", 7 ],
					"order" : 0,
					"source" : [ "obj-88", 0 ]
				}

			}
, 			{
				"patchline" : 				{
					"color" : [ 0.124489568173885, 0.0, 0.700743436813354, 1.0 ],
					"destination" : [ "obj-95", 0 ],
					"order" : 1,
					"source" : [ "obj-89", 0 ]
				}

			}
, 			{
				"patchline" : 				{
					"color" : [ 0.124489568173885, 0.0, 0.700743436813354, 1.0 ],
					"destination" : [ "obj-96", 0 ],
					"order" : 0,
					"source" : [ "obj-89", 0 ]
				}

			}
, 			{
				"patchline" : 				{
					"color" : [ 0.122720368206501, 0.687105298042297, 0.701284289360046, 1.0 ],
					"destination" : [ "obj-95", 1 ],
					"midpoints" : [ 790.507889862924685, 691.0, 825.007889862924685, 691.0 ],
					"source" : [ "obj-90", 0 ]
				}

			}
, 			{
				"patchline" : 				{
					"destination" : [ "obj-92", 0 ],
					"source" : [ "obj-91", 0 ]
				}

			}
, 			{
				"patchline" : 				{
					"destination" : [ "obj-90", 0 ],
					"source" : [ "obj-92", 0 ]
				}

			}
, 			{
				"patchline" : 				{
					"color" : [ 0.122720368206501, 0.687105298042297, 0.701284289360046, 1.0 ],
					"destination" : [ "obj-96", 1 ],
					"midpoints" : [ 903.507889862924685, 643.0, 884.007889862924685, 643.0 ],
					"source" : [ "obj-92", 1 ]
				}

			}
, 			{
				"patchline" : 				{
					"destination" : [ "obj-91", 0 ],
					"source" : [ "obj-93", 0 ]
				}

			}
, 			{
				"patchline" : 				{
					"color" : [ 0.743870973587036, 0.428996801376343, 0.0, 1.0 ],
					"destination" : [ "obj-92", 1 ],
					"order" : 0,
					"source" : [ "obj-94", 0 ]
				}

			}
, 			{
				"patchline" : 				{
					"destination" : [ "obj-93", 0 ],
					"order" : 1,
					"source" : [ "obj-94", 0 ]
				}

			}
, 			{
				"patchline" : 				{
					"color" : [ 0.185306519269943, 0.712280750274658, 0.605714738368988, 1.0 ],
					"destination" : [ "obj-6", 8 ],
					"source" : [ "obj-95", 0 ]
				}

			}
, 			{
				"patchline" : 				{
					"color" : [ 0.185306519269943, 0.712280750274658, 0.605714738368988, 1.0 ],
					"destination" : [ "obj-7", 8 ],
					"source" : [ "obj-96", 0 ]
				}

			}
, 			{
				"patchline" : 				{
					"color" : [ 0.202818617224693, 0.569137096405029, 0.805732071399689, 0.260894982993197 ],
					"destination" : [ "obj-6", 0 ],
					"order" : 1,
					"source" : [ "obj-97", 0 ]
				}

			}
, 			{
				"patchline" : 				{
					"color" : [ 0.202818617224693, 0.569137096405029, 0.805732071399689, 0.260894982993197 ],
					"destination" : [ "obj-7", 0 ],
					"order" : 0,
					"source" : [ "obj-97", 0 ]
				}

			}
, 			{
				"patchline" : 				{
					"destination" : [ "obj-97", 0 ],
					"source" : [ "obj-98", 0 ]
				}

			}
, 			{
				"patchline" : 				{
					"color" : [ 0.202818617224693, 0.569137096405029, 0.805732071399689, 0.260894982993197 ],
					"destination" : [ "obj-6", 0 ],
					"order" : 1,
					"source" : [ "obj-99", 0 ]
				}

			}
, 			{
				"patchline" : 				{
					"color" : [ 0.202818617224693, 0.569137096405029, 0.805732071399689, 0.260894982993197 ],
					"destination" : [ "obj-7", 0 ],
					"order" : 0,
					"source" : [ "obj-99", 0 ]
				}

			}
 ]
	}

}
